<?xml version='1.0' encoding='utf-8'?>
<xmeml version="4">
	<sequence>
		<name>Auto-Editor Media Group</name>
		<duration>69583</duration>
		<rate>
			<timebase>30</timebase>
			<ntsc>FALSE</ntsc>
		</rate>
		<media>
			<video>
				<format>
					<samplecharacteristics>
						<rate>
							<timebase>30</timebase>
							<ntsc>FALSE</ntsc>
						</rate>
						<fielddominance>none</fielddominance>
						<colordepth>24</colordepth>
						<width>1920</width>
						<height>1080</height>
						<pixelaspectratio>square</pixelaspectratio>
					</samplecharacteristics>
				</format>
				<track>
					<clipitem id="clipitem-1">
						<masterclipid>masterclip-2</masterclipid>
						<name>chandrika rocket equations</name>
						<start>0</start>
						<end>34</end>
						<in>34</in>
						<out>68</out>
						<file id="file-1">
							<name>chandrika rocket equations</name>
							<pathurl>C:\Users\Sandun\Downloads\auto-editor\chandrika rocket equations.mp4</pathurl>
							<rate>
								<timebase>30</timebase>
								<ntsc>FALSE</ntsc>
							</rate>
							<duration />
							<media>
								<video>
									<samplecharacteristics>
										<rate>
											<timebase>30</timebase>
											<ntsc>FALSE</ntsc>
										</rate>
										<width>1920</width>
										<height>1080</height>
										<anamorphic>FALSE</anamorphic>
										<pixelaspectratio>square</pixelaspectratio>
									</samplecharacteristics>
								</video>
								<audio>
									<samplecharacteristics>
										<depth>16</depth>
										<samplerate>48000</samplerate>
									</samplecharacteristics>
									<channelcount>2</channelcount>
								</audio>
							</media>
						</file>
						<link>
							<linkclipref>clipitem-1</linkclipref>
							<mediatype>video</mediatype>
							<trackindex>1</trackindex>
							<clipindex>1</clipindex>
						</link>
						<link>
							<linkclipref>clipitem-1036</linkclipref>
							<mediatype>audio</mediatype>
							<trackindex>1</trackindex>
							<clipindex>1</clipindex>
							<groupindex>1</groupindex>
						</link>
					</clipitem>
					<clipitem id="clipitem-2">
						<masterclipid>masterclip-2</masterclipid>
						<name>chandrika rocket equations</name>
						<start>34</start>
						<end>60</end>
						<in>85</in>
						<out>111</out>
						<file id="file-1" />
						<link>
							<linkclipref>clipitem-2</linkclipref>
							<mediatype>video</mediatype>
							<trackindex>1</trackindex>
							<clipindex>2</clipindex>
						</link>
						<link>
							<linkclipref>clipitem-1037</linkclipref>
							<mediatype>audio</mediatype>
							<trackindex>1</trackindex>
							<clipindex>2</clipindex>
							<groupindex>1</groupindex>
						</link>
					</clipitem>
					<clipitem id="clipitem-3">
						<masterclipid>masterclip-2</masterclipid>
						<name>chandrika rocket equations</name>
						<start>60</start>
						<end>111</end>
						<in>166</in>
						<out>217</out>
						<file id="file-1" />
						<link>
							<linkclipref>clipitem-3</linkclipref>
							<mediatype>video</mediatype>
							<trackindex>1</trackindex>
							<clipindex>3</clipindex>
						</link>
						<link>
							<linkclipref>clipitem-1038</linkclipref>
							<mediatype>audio</mediatype>
							<trackindex>1</trackindex>
							<clipindex>3</clipindex>
							<groupindex>1</groupindex>
						</link>
					</clipitem>
					<clipitem id="clipitem-4">
						<masterclipid>masterclip-2</masterclipid>
						<name>chandrika rocket equations</name>
						<start>111</start>
						<end>265</end>
						<in>236</in>
						<out>390</out>
						<file id="file-1" />
						<link>
							<linkclipref>clipitem-4</linkclipref>
							<mediatype>video</mediatype>
							<trackindex>1</trackindex>
							<clipindex>4</clipindex>
						</link>
						<link>
							<linkclipref>clipitem-1039</linkclipref>
							<mediatype>audio</mediatype>
							<trackindex>1</trackindex>
							<clipindex>4</clipindex>
							<groupindex>1</groupindex>
						</link>
					</clipitem>
					<clipitem id="clipitem-5">
						<masterclipid>masterclip-2</masterclipid>
						<name>chandrika rocket equations</name>
						<start>265</start>
						<end>321</end>
						<in>396</in>
						<out>452</out>
						<file id="file-1" />
						<link>
							<linkclipref>clipitem-5</linkclipref>
							<mediatype>video</mediatype>
							<trackindex>1</trackindex>
							<clipindex>5</clipindex>
						</link>
						<link>
							<linkclipref>clipitem-1040</linkclipref>
							<mediatype>audio</mediatype>
							<trackindex>1</trackindex>
							<clipindex>5</clipindex>
							<groupindex>1</groupindex>
						</link>
					</clipitem>
					<clipitem id="clipitem-6">
						<masterclipid>masterclip-2</masterclipid>
						<name>chandrika rocket equations</name>
						<start>321</start>
						<end>382</end>
						<in>463</in>
						<out>524</out>
						<file id="file-1" />
						<link>
							<linkclipref>clipitem-6</linkclipref>
							<mediatype>video</mediatype>
							<trackindex>1</trackindex>
							<clipindex>6</clipindex>
						</link>
						<link>
							<linkclipref>clipitem-1041</linkclipref>
							<mediatype>audio</mediatype>
							<trackindex>1</trackindex>
							<clipindex>6</clipindex>
							<groupindex>1</groupindex>
						</link>
					</clipitem>
					<clipitem id="clipitem-7">
						<masterclipid>masterclip-2</masterclipid>
						<name>chandrika rocket equations</name>
						<start>382</start>
						<end>529</end>
						<in>533</in>
						<out>680</out>
						<file id="file-1" />
						<link>
							<linkclipref>clipitem-7</linkclipref>
							<mediatype>video</mediatype>
							<trackindex>1</trackindex>
							<clipindex>7</clipindex>
						</link>
						<link>
							<linkclipref>clipitem-1042</linkclipref>
							<mediatype>audio</mediatype>
							<trackindex>1</trackindex>
							<clipindex>7</clipindex>
							<groupindex>1</groupindex>
						</link>
					</clipitem>
					<clipitem id="clipitem-8">
						<masterclipid>masterclip-2</masterclipid>
						<name>chandrika rocket equations</name>
						<start>529</start>
						<end>716</end>
						<in>741</in>
						<out>928</out>
						<file id="file-1" />
						<link>
							<linkclipref>clipitem-8</linkclipref>
							<mediatype>video</mediatype>
							<trackindex>1</trackindex>
							<clipindex>8</clipindex>
						</link>
						<link>
							<linkclipref>clipitem-1043</linkclipref>
							<mediatype>audio</mediatype>
							<trackindex>1</trackindex>
							<clipindex>8</clipindex>
							<groupindex>1</groupindex>
						</link>
					</clipitem>
					<clipitem id="clipitem-9">
						<masterclipid>masterclip-2</masterclipid>
						<name>chandrika rocket equations</name>
						<start>716</start>
						<end>765</end>
						<in>941</in>
						<out>990</out>
						<file id="file-1" />
						<link>
							<linkclipref>clipitem-9</linkclipref>
							<mediatype>video</mediatype>
							<trackindex>1</trackindex>
							<clipindex>9</clipindex>
						</link>
						<link>
							<linkclipref>clipitem-1044</linkclipref>
							<mediatype>audio</mediatype>
							<trackindex>1</trackindex>
							<clipindex>9</clipindex>
							<groupindex>1</groupindex>
						</link>
					</clipitem>
					<clipitem id="clipitem-10">
						<masterclipid>masterclip-2</masterclipid>
						<name>chandrika rocket equations</name>
						<start>765</start>
						<end>801</end>
						<in>1034</in>
						<out>1070</out>
						<file id="file-1" />
						<link>
							<linkclipref>clipitem-10</linkclipref>
							<mediatype>video</mediatype>
							<trackindex>1</trackindex>
							<clipindex>10</clipindex>
						</link>
						<link>
							<linkclipref>clipitem-1045</linkclipref>
							<mediatype>audio</mediatype>
							<trackindex>1</trackindex>
							<clipindex>10</clipindex>
							<groupindex>1</groupindex>
						</link>
					</clipitem>
					<clipitem id="clipitem-11">
						<masterclipid>masterclip-2</masterclipid>
						<name>chandrika rocket equations</name>
						<start>801</start>
						<end>832</end>
						<in>1121</in>
						<out>1152</out>
						<file id="file-1" />
						<link>
							<linkclipref>clipitem-11</linkclipref>
							<mediatype>video</mediatype>
							<trackindex>1</trackindex>
							<clipindex>11</clipindex>
						</link>
						<link>
							<linkclipref>clipitem-1046</linkclipref>
							<mediatype>audio</mediatype>
							<trackindex>1</trackindex>
							<clipindex>11</clipindex>
							<groupindex>1</groupindex>
						</link>
					</clipitem>
					<clipitem id="clipitem-12">
						<masterclipid>masterclip-2</masterclipid>
						<name>chandrika rocket equations</name>
						<start>832</start>
						<end>941</end>
						<in>1252</in>
						<out>1361</out>
						<file id="file-1" />
						<link>
							<linkclipref>clipitem-12</linkclipref>
							<mediatype>video</mediatype>
							<trackindex>1</trackindex>
							<clipindex>12</clipindex>
						</link>
						<link>
							<linkclipref>clipitem-1047</linkclipref>
							<mediatype>audio</mediatype>
							<trackindex>1</trackindex>
							<clipindex>12</clipindex>
							<groupindex>1</groupindex>
						</link>
					</clipitem>
					<clipitem id="clipitem-13">
						<masterclipid>masterclip-2</masterclipid>
						<name>chandrika rocket equations</name>
						<start>941</start>
						<end>1014</end>
						<in>1407</in>
						<out>1480</out>
						<file id="file-1" />
						<link>
							<linkclipref>clipitem-13</linkclipref>
							<mediatype>video</mediatype>
							<trackindex>1</trackindex>
							<clipindex>13</clipindex>
						</link>
						<link>
							<linkclipref>clipitem-1048</linkclipref>
							<mediatype>audio</mediatype>
							<trackindex>1</trackindex>
							<clipindex>13</clipindex>
							<groupindex>1</groupindex>
						</link>
					</clipitem>
					<clipitem id="clipitem-14">
						<masterclipid>masterclip-2</masterclipid>
						<name>chandrika rocket equations</name>
						<start>1014</start>
						<end>1087</end>
						<in>1559</in>
						<out>1632</out>
						<file id="file-1" />
						<link>
							<linkclipref>clipitem-14</linkclipref>
							<mediatype>video</mediatype>
							<trackindex>1</trackindex>
							<clipindex>14</clipindex>
						</link>
						<link>
							<linkclipref>clipitem-1049</linkclipref>
							<mediatype>audio</mediatype>
							<trackindex>1</trackindex>
							<clipindex>14</clipindex>
							<groupindex>1</groupindex>
						</link>
					</clipitem>
					<clipitem id="clipitem-15">
						<masterclipid>masterclip-2</masterclipid>
						<name>chandrika rocket equations</name>
						<start>1087</start>
						<end>1186</end>
						<in>1692</in>
						<out>1791</out>
						<file id="file-1" />
						<link>
							<linkclipref>clipitem-15</linkclipref>
							<mediatype>video</mediatype>
							<trackindex>1</trackindex>
							<clipindex>15</clipindex>
						</link>
						<link>
							<linkclipref>clipitem-1050</linkclipref>
							<mediatype>audio</mediatype>
							<trackindex>1</trackindex>
							<clipindex>15</clipindex>
							<groupindex>1</groupindex>
						</link>
					</clipitem>
					<clipitem id="clipitem-16">
						<masterclipid>masterclip-2</masterclipid>
						<name>chandrika rocket equations</name>
						<start>1186</start>
						<end>1378</end>
						<in>1799</in>
						<out>1991</out>
						<file id="file-1" />
						<link>
							<linkclipref>clipitem-16</linkclipref>
							<mediatype>video</mediatype>
							<trackindex>1</trackindex>
							<clipindex>16</clipindex>
						</link>
						<link>
							<linkclipref>clipitem-1051</linkclipref>
							<mediatype>audio</mediatype>
							<trackindex>1</trackindex>
							<clipindex>16</clipindex>
							<groupindex>1</groupindex>
						</link>
					</clipitem>
					<clipitem id="clipitem-17">
						<masterclipid>masterclip-2</masterclipid>
						<name>chandrika rocket equations</name>
						<start>1378</start>
						<end>1438</end>
						<in>2061</in>
						<out>2121</out>
						<file id="file-1" />
						<link>
							<linkclipref>clipitem-17</linkclipref>
							<mediatype>video</mediatype>
							<trackindex>1</trackindex>
							<clipindex>17</clipindex>
						</link>
						<link>
							<linkclipref>clipitem-1052</linkclipref>
							<mediatype>audio</mediatype>
							<trackindex>1</trackindex>
							<clipindex>17</clipindex>
							<groupindex>1</groupindex>
						</link>
					</clipitem>
					<clipitem id="clipitem-18">
						<masterclipid>masterclip-2</masterclipid>
						<name>chandrika rocket equations</name>
						<start>1438</start>
						<end>1457</end>
						<in>2165</in>
						<out>2184</out>
						<file id="file-1" />
						<link>
							<linkclipref>clipitem-18</linkclipref>
							<mediatype>video</mediatype>
							<trackindex>1</trackindex>
							<clipindex>18</clipindex>
						</link>
						<link>
							<linkclipref>clipitem-1053</linkclipref>
							<mediatype>audio</mediatype>
							<trackindex>1</trackindex>
							<clipindex>18</clipindex>
							<groupindex>1</groupindex>
						</link>
					</clipitem>
					<clipitem id="clipitem-19">
						<masterclipid>masterclip-2</masterclipid>
						<name>chandrika rocket equations</name>
						<start>1457</start>
						<end>1626</end>
						<in>2190</in>
						<out>2359</out>
						<file id="file-1" />
						<link>
							<linkclipref>clipitem-19</linkclipref>
							<mediatype>video</mediatype>
							<trackindex>1</trackindex>
							<clipindex>19</clipindex>
						</link>
						<link>
							<linkclipref>clipitem-1054</linkclipref>
							<mediatype>audio</mediatype>
							<trackindex>1</trackindex>
							<clipindex>19</clipindex>
							<groupindex>1</groupindex>
						</link>
					</clipitem>
					<clipitem id="clipitem-20">
						<masterclipid>masterclip-2</masterclipid>
						<name>chandrika rocket equations</name>
						<start>1626</start>
						<end>1752</end>
						<in>2375</in>
						<out>2501</out>
						<file id="file-1" />
						<link>
							<linkclipref>clipitem-20</linkclipref>
							<mediatype>video</mediatype>
							<trackindex>1</trackindex>
							<clipindex>20</clipindex>
						</link>
						<link>
							<linkclipref>clipitem-1055</linkclipref>
							<mediatype>audio</mediatype>
							<trackindex>1</trackindex>
							<clipindex>20</clipindex>
							<groupindex>1</groupindex>
						</link>
					</clipitem>
					<clipitem id="clipitem-21">
						<masterclipid>masterclip-2</masterclipid>
						<name>chandrika rocket equations</name>
						<start>1752</start>
						<end>1808</end>
						<in>2510</in>
						<out>2566</out>
						<file id="file-1" />
						<link>
							<linkclipref>clipitem-21</linkclipref>
							<mediatype>video</mediatype>
							<trackindex>1</trackindex>
							<clipindex>21</clipindex>
						</link>
						<link>
							<linkclipref>clipitem-1056</linkclipref>
							<mediatype>audio</mediatype>
							<trackindex>1</trackindex>
							<clipindex>21</clipindex>
							<groupindex>1</groupindex>
						</link>
					</clipitem>
					<clipitem id="clipitem-22">
						<masterclipid>masterclip-2</masterclipid>
						<name>chandrika rocket equations</name>
						<start>1808</start>
						<end>1828</end>
						<in>2593</in>
						<out>2613</out>
						<file id="file-1" />
						<link>
							<linkclipref>clipitem-22</linkclipref>
							<mediatype>video</mediatype>
							<trackindex>1</trackindex>
							<clipindex>22</clipindex>
						</link>
						<link>
							<linkclipref>clipitem-1057</linkclipref>
							<mediatype>audio</mediatype>
							<trackindex>1</trackindex>
							<clipindex>22</clipindex>
							<groupindex>1</groupindex>
						</link>
					</clipitem>
					<clipitem id="clipitem-23">
						<masterclipid>masterclip-2</masterclipid>
						<name>chandrika rocket equations</name>
						<start>1828</start>
						<end>1914</end>
						<in>2616</in>
						<out>2702</out>
						<file id="file-1" />
						<link>
							<linkclipref>clipitem-23</linkclipref>
							<mediatype>video</mediatype>
							<trackindex>1</trackindex>
							<clipindex>23</clipindex>
						</link>
						<link>
							<linkclipref>clipitem-1058</linkclipref>
							<mediatype>audio</mediatype>
							<trackindex>1</trackindex>
							<clipindex>23</clipindex>
							<groupindex>1</groupindex>
						</link>
					</clipitem>
					<clipitem id="clipitem-24">
						<masterclipid>masterclip-2</masterclipid>
						<name>chandrika rocket equations</name>
						<start>1914</start>
						<end>2046</end>
						<in>2726</in>
						<out>2858</out>
						<file id="file-1" />
						<link>
							<linkclipref>clipitem-24</linkclipref>
							<mediatype>video</mediatype>
							<trackindex>1</trackindex>
							<clipindex>24</clipindex>
						</link>
						<link>
							<linkclipref>clipitem-1059</linkclipref>
							<mediatype>audio</mediatype>
							<trackindex>1</trackindex>
							<clipindex>24</clipindex>
							<groupindex>1</groupindex>
						</link>
					</clipitem>
					<clipitem id="clipitem-25">
						<masterclipid>masterclip-2</masterclipid>
						<name>chandrika rocket equations</name>
						<start>2046</start>
						<end>2117</end>
						<in>2898</in>
						<out>2969</out>
						<file id="file-1" />
						<link>
							<linkclipref>clipitem-25</linkclipref>
							<mediatype>video</mediatype>
							<trackindex>1</trackindex>
							<clipindex>25</clipindex>
						</link>
						<link>
							<linkclipref>clipitem-1060</linkclipref>
							<mediatype>audio</mediatype>
							<trackindex>1</trackindex>
							<clipindex>25</clipindex>
							<groupindex>1</groupindex>
						</link>
					</clipitem>
					<clipitem id="clipitem-26">
						<masterclipid>masterclip-2</masterclipid>
						<name>chandrika rocket equations</name>
						<start>2117</start>
						<end>2159</end>
						<in>3027</in>
						<out>3069</out>
						<file id="file-1" />
						<link>
							<linkclipref>clipitem-26</linkclipref>
							<mediatype>video</mediatype>
							<trackindex>1</trackindex>
							<clipindex>26</clipindex>
						</link>
						<link>
							<linkclipref>clipitem-1061</linkclipref>
							<mediatype>audio</mediatype>
							<trackindex>1</trackindex>
							<clipindex>26</clipindex>
							<groupindex>1</groupindex>
						</link>
					</clipitem>
					<clipitem id="clipitem-27">
						<masterclipid>masterclip-2</masterclipid>
						<name>chandrika rocket equations</name>
						<start>2159</start>
						<end>2216</end>
						<in>3144</in>
						<out>3201</out>
						<file id="file-1" />
						<link>
							<linkclipref>clipitem-27</linkclipref>
							<mediatype>video</mediatype>
							<trackindex>1</trackindex>
							<clipindex>27</clipindex>
						</link>
						<link>
							<linkclipref>clipitem-1062</linkclipref>
							<mediatype>audio</mediatype>
							<trackindex>1</trackindex>
							<clipindex>27</clipindex>
							<groupindex>1</groupindex>
						</link>
					</clipitem>
					<clipitem id="clipitem-28">
						<masterclipid>masterclip-2</masterclipid>
						<name>chandrika rocket equations</name>
						<start>2216</start>
						<end>2342</end>
						<in>3204</in>
						<out>3330</out>
						<file id="file-1" />
						<link>
							<linkclipref>clipitem-28</linkclipref>
							<mediatype>video</mediatype>
							<trackindex>1</trackindex>
							<clipindex>28</clipindex>
						</link>
						<link>
							<linkclipref>clipitem-1063</linkclipref>
							<mediatype>audio</mediatype>
							<trackindex>1</trackindex>
							<clipindex>28</clipindex>
							<groupindex>1</groupindex>
						</link>
					</clipitem>
					<clipitem id="clipitem-29">
						<masterclipid>masterclip-2</masterclipid>
						<name>chandrika rocket equations</name>
						<start>2342</start>
						<end>2367</end>
						<in>3395</in>
						<out>3420</out>
						<file id="file-1" />
						<link>
							<linkclipref>clipitem-29</linkclipref>
							<mediatype>video</mediatype>
							<trackindex>1</trackindex>
							<clipindex>29</clipindex>
						</link>
						<link>
							<linkclipref>clipitem-1064</linkclipref>
							<mediatype>audio</mediatype>
							<trackindex>1</trackindex>
							<clipindex>29</clipindex>
							<groupindex>1</groupindex>
						</link>
					</clipitem>
					<clipitem id="clipitem-30">
						<masterclipid>masterclip-2</masterclipid>
						<name>chandrika rocket equations</name>
						<start>2367</start>
						<end>2402</end>
						<in>3498</in>
						<out>3533</out>
						<file id="file-1" />
						<link>
							<linkclipref>clipitem-30</linkclipref>
							<mediatype>video</mediatype>
							<trackindex>1</trackindex>
							<clipindex>30</clipindex>
						</link>
						<link>
							<linkclipref>clipitem-1065</linkclipref>
							<mediatype>audio</mediatype>
							<trackindex>1</trackindex>
							<clipindex>30</clipindex>
							<groupindex>1</groupindex>
						</link>
					</clipitem>
					<clipitem id="clipitem-31">
						<masterclipid>masterclip-2</masterclipid>
						<name>chandrika rocket equations</name>
						<start>2402</start>
						<end>2427</end>
						<in>3535</in>
						<out>3560</out>
						<file id="file-1" />
						<link>
							<linkclipref>clipitem-31</linkclipref>
							<mediatype>video</mediatype>
							<trackindex>1</trackindex>
							<clipindex>31</clipindex>
						</link>
						<link>
							<linkclipref>clipitem-1066</linkclipref>
							<mediatype>audio</mediatype>
							<trackindex>1</trackindex>
							<clipindex>31</clipindex>
							<groupindex>1</groupindex>
						</link>
					</clipitem>
					<clipitem id="clipitem-32">
						<masterclipid>masterclip-2</masterclipid>
						<name>chandrika rocket equations</name>
						<start>2427</start>
						<end>2516</end>
						<in>3665</in>
						<out>3754</out>
						<file id="file-1" />
						<link>
							<linkclipref>clipitem-32</linkclipref>
							<mediatype>video</mediatype>
							<trackindex>1</trackindex>
							<clipindex>32</clipindex>
						</link>
						<link>
							<linkclipref>clipitem-1067</linkclipref>
							<mediatype>audio</mediatype>
							<trackindex>1</trackindex>
							<clipindex>32</clipindex>
							<groupindex>1</groupindex>
						</link>
					</clipitem>
					<clipitem id="clipitem-33">
						<masterclipid>masterclip-2</masterclipid>
						<name>chandrika rocket equations</name>
						<start>2516</start>
						<end>2551</end>
						<in>3772</in>
						<out>3807</out>
						<file id="file-1" />
						<link>
							<linkclipref>clipitem-33</linkclipref>
							<mediatype>video</mediatype>
							<trackindex>1</trackindex>
							<clipindex>33</clipindex>
						</link>
						<link>
							<linkclipref>clipitem-1068</linkclipref>
							<mediatype>audio</mediatype>
							<trackindex>1</trackindex>
							<clipindex>33</clipindex>
							<groupindex>1</groupindex>
						</link>
					</clipitem>
					<clipitem id="clipitem-34">
						<masterclipid>masterclip-2</masterclipid>
						<name>chandrika rocket equations</name>
						<start>2551</start>
						<end>2577</end>
						<in>3924</in>
						<out>3950</out>
						<file id="file-1" />
						<link>
							<linkclipref>clipitem-34</linkclipref>
							<mediatype>video</mediatype>
							<trackindex>1</trackindex>
							<clipindex>34</clipindex>
						</link>
						<link>
							<linkclipref>clipitem-1069</linkclipref>
							<mediatype>audio</mediatype>
							<trackindex>1</trackindex>
							<clipindex>34</clipindex>
							<groupindex>1</groupindex>
						</link>
					</clipitem>
					<clipitem id="clipitem-35">
						<masterclipid>masterclip-2</masterclipid>
						<name>chandrika rocket equations</name>
						<start>2577</start>
						<end>2593</end>
						<in>4078</in>
						<out>4094</out>
						<file id="file-1" />
						<link>
							<linkclipref>clipitem-35</linkclipref>
							<mediatype>video</mediatype>
							<trackindex>1</trackindex>
							<clipindex>35</clipindex>
						</link>
						<link>
							<linkclipref>clipitem-1070</linkclipref>
							<mediatype>audio</mediatype>
							<trackindex>1</trackindex>
							<clipindex>35</clipindex>
							<groupindex>1</groupindex>
						</link>
					</clipitem>
					<clipitem id="clipitem-36">
						<masterclipid>masterclip-2</masterclipid>
						<name>chandrika rocket equations</name>
						<start>2593</start>
						<end>2645</end>
						<in>4176</in>
						<out>4228</out>
						<file id="file-1" />
						<link>
							<linkclipref>clipitem-36</linkclipref>
							<mediatype>video</mediatype>
							<trackindex>1</trackindex>
							<clipindex>36</clipindex>
						</link>
						<link>
							<linkclipref>clipitem-1071</linkclipref>
							<mediatype>audio</mediatype>
							<trackindex>1</trackindex>
							<clipindex>36</clipindex>
							<groupindex>1</groupindex>
						</link>
					</clipitem>
					<clipitem id="clipitem-37">
						<masterclipid>masterclip-2</masterclipid>
						<name>chandrika rocket equations</name>
						<start>2645</start>
						<end>2670</end>
						<in>4239</in>
						<out>4264</out>
						<file id="file-1" />
						<link>
							<linkclipref>clipitem-37</linkclipref>
							<mediatype>video</mediatype>
							<trackindex>1</trackindex>
							<clipindex>37</clipindex>
						</link>
						<link>
							<linkclipref>clipitem-1072</linkclipref>
							<mediatype>audio</mediatype>
							<trackindex>1</trackindex>
							<clipindex>37</clipindex>
							<groupindex>1</groupindex>
						</link>
					</clipitem>
					<clipitem id="clipitem-38">
						<masterclipid>masterclip-2</masterclipid>
						<name>chandrika rocket equations</name>
						<start>2670</start>
						<end>2695</end>
						<in>4267</in>
						<out>4292</out>
						<file id="file-1" />
						<link>
							<linkclipref>clipitem-38</linkclipref>
							<mediatype>video</mediatype>
							<trackindex>1</trackindex>
							<clipindex>38</clipindex>
						</link>
						<link>
							<linkclipref>clipitem-1073</linkclipref>
							<mediatype>audio</mediatype>
							<trackindex>1</trackindex>
							<clipindex>38</clipindex>
							<groupindex>1</groupindex>
						</link>
					</clipitem>
					<clipitem id="clipitem-39">
						<masterclipid>masterclip-2</masterclipid>
						<name>chandrika rocket equations</name>
						<start>2695</start>
						<end>2770</end>
						<in>4315</in>
						<out>4390</out>
						<file id="file-1" />
						<link>
							<linkclipref>clipitem-39</linkclipref>
							<mediatype>video</mediatype>
							<trackindex>1</trackindex>
							<clipindex>39</clipindex>
						</link>
						<link>
							<linkclipref>clipitem-1074</linkclipref>
							<mediatype>audio</mediatype>
							<trackindex>1</trackindex>
							<clipindex>39</clipindex>
							<groupindex>1</groupindex>
						</link>
					</clipitem>
					<clipitem id="clipitem-40">
						<masterclipid>masterclip-2</masterclipid>
						<name>chandrika rocket equations</name>
						<start>2770</start>
						<end>2792</end>
						<in>4395</in>
						<out>4417</out>
						<file id="file-1" />
						<link>
							<linkclipref>clipitem-40</linkclipref>
							<mediatype>video</mediatype>
							<trackindex>1</trackindex>
							<clipindex>40</clipindex>
						</link>
						<link>
							<linkclipref>clipitem-1075</linkclipref>
							<mediatype>audio</mediatype>
							<trackindex>1</trackindex>
							<clipindex>40</clipindex>
							<groupindex>1</groupindex>
						</link>
					</clipitem>
					<clipitem id="clipitem-41">
						<masterclipid>masterclip-2</masterclipid>
						<name>chandrika rocket equations</name>
						<start>2792</start>
						<end>2919</end>
						<in>4421</in>
						<out>4548</out>
						<file id="file-1" />
						<link>
							<linkclipref>clipitem-41</linkclipref>
							<mediatype>video</mediatype>
							<trackindex>1</trackindex>
							<clipindex>41</clipindex>
						</link>
						<link>
							<linkclipref>clipitem-1076</linkclipref>
							<mediatype>audio</mediatype>
							<trackindex>1</trackindex>
							<clipindex>41</clipindex>
							<groupindex>1</groupindex>
						</link>
					</clipitem>
					<clipitem id="clipitem-42">
						<masterclipid>masterclip-2</masterclipid>
						<name>chandrika rocket equations</name>
						<start>2919</start>
						<end>2958</end>
						<in>4574</in>
						<out>4613</out>
						<file id="file-1" />
						<link>
							<linkclipref>clipitem-42</linkclipref>
							<mediatype>video</mediatype>
							<trackindex>1</trackindex>
							<clipindex>42</clipindex>
						</link>
						<link>
							<linkclipref>clipitem-1077</linkclipref>
							<mediatype>audio</mediatype>
							<trackindex>1</trackindex>
							<clipindex>42</clipindex>
							<groupindex>1</groupindex>
						</link>
					</clipitem>
					<clipitem id="clipitem-43">
						<masterclipid>masterclip-2</masterclipid>
						<name>chandrika rocket equations</name>
						<start>2958</start>
						<end>3105</end>
						<in>4622</in>
						<out>4769</out>
						<file id="file-1" />
						<link>
							<linkclipref>clipitem-43</linkclipref>
							<mediatype>video</mediatype>
							<trackindex>1</trackindex>
							<clipindex>43</clipindex>
						</link>
						<link>
							<linkclipref>clipitem-1078</linkclipref>
							<mediatype>audio</mediatype>
							<trackindex>1</trackindex>
							<clipindex>43</clipindex>
							<groupindex>1</groupindex>
						</link>
					</clipitem>
					<clipitem id="clipitem-44">
						<masterclipid>masterclip-2</masterclipid>
						<name>chandrika rocket equations</name>
						<start>3105</start>
						<end>3123</end>
						<in>4776</in>
						<out>4794</out>
						<file id="file-1" />
						<link>
							<linkclipref>clipitem-44</linkclipref>
							<mediatype>video</mediatype>
							<trackindex>1</trackindex>
							<clipindex>44</clipindex>
						</link>
						<link>
							<linkclipref>clipitem-1079</linkclipref>
							<mediatype>audio</mediatype>
							<trackindex>1</trackindex>
							<clipindex>44</clipindex>
							<groupindex>1</groupindex>
						</link>
					</clipitem>
					<clipitem id="clipitem-45">
						<masterclipid>masterclip-2</masterclipid>
						<name>chandrika rocket equations</name>
						<start>3123</start>
						<end>3210</end>
						<in>4802</in>
						<out>4889</out>
						<file id="file-1" />
						<link>
							<linkclipref>clipitem-45</linkclipref>
							<mediatype>video</mediatype>
							<trackindex>1</trackindex>
							<clipindex>45</clipindex>
						</link>
						<link>
							<linkclipref>clipitem-1080</linkclipref>
							<mediatype>audio</mediatype>
							<trackindex>1</trackindex>
							<clipindex>45</clipindex>
							<groupindex>1</groupindex>
						</link>
					</clipitem>
					<clipitem id="clipitem-46">
						<masterclipid>masterclip-2</masterclipid>
						<name>chandrika rocket equations</name>
						<start>3210</start>
						<end>3257</end>
						<in>4905</in>
						<out>4952</out>
						<file id="file-1" />
						<link>
							<linkclipref>clipitem-46</linkclipref>
							<mediatype>video</mediatype>
							<trackindex>1</trackindex>
							<clipindex>46</clipindex>
						</link>
						<link>
							<linkclipref>clipitem-1081</linkclipref>
							<mediatype>audio</mediatype>
							<trackindex>1</trackindex>
							<clipindex>46</clipindex>
							<groupindex>1</groupindex>
						</link>
					</clipitem>
					<clipitem id="clipitem-47">
						<masterclipid>masterclip-2</masterclipid>
						<name>chandrika rocket equations</name>
						<start>3257</start>
						<end>3347</end>
						<in>4954</in>
						<out>5044</out>
						<file id="file-1" />
						<link>
							<linkclipref>clipitem-47</linkclipref>
							<mediatype>video</mediatype>
							<trackindex>1</trackindex>
							<clipindex>47</clipindex>
						</link>
						<link>
							<linkclipref>clipitem-1082</linkclipref>
							<mediatype>audio</mediatype>
							<trackindex>1</trackindex>
							<clipindex>47</clipindex>
							<groupindex>1</groupindex>
						</link>
					</clipitem>
					<clipitem id="clipitem-48">
						<masterclipid>masterclip-2</masterclipid>
						<name>chandrika rocket equations</name>
						<start>3347</start>
						<end>3367</end>
						<in>5047</in>
						<out>5067</out>
						<file id="file-1" />
						<link>
							<linkclipref>clipitem-48</linkclipref>
							<mediatype>video</mediatype>
							<trackindex>1</trackindex>
							<clipindex>48</clipindex>
						</link>
						<link>
							<linkclipref>clipitem-1083</linkclipref>
							<mediatype>audio</mediatype>
							<trackindex>1</trackindex>
							<clipindex>48</clipindex>
							<groupindex>1</groupindex>
						</link>
					</clipitem>
					<clipitem id="clipitem-49">
						<masterclipid>masterclip-2</masterclipid>
						<name>chandrika rocket equations</name>
						<start>3367</start>
						<end>3479</end>
						<in>5082</in>
						<out>5194</out>
						<file id="file-1" />
						<link>
							<linkclipref>clipitem-49</linkclipref>
							<mediatype>video</mediatype>
							<trackindex>1</trackindex>
							<clipindex>49</clipindex>
						</link>
						<link>
							<linkclipref>clipitem-1084</linkclipref>
							<mediatype>audio</mediatype>
							<trackindex>1</trackindex>
							<clipindex>49</clipindex>
							<groupindex>1</groupindex>
						</link>
					</clipitem>
					<clipitem id="clipitem-50">
						<masterclipid>masterclip-2</masterclipid>
						<name>chandrika rocket equations</name>
						<start>3479</start>
						<end>3622</end>
						<in>5237</in>
						<out>5380</out>
						<file id="file-1" />
						<link>
							<linkclipref>clipitem-50</linkclipref>
							<mediatype>video</mediatype>
							<trackindex>1</trackindex>
							<clipindex>50</clipindex>
						</link>
						<link>
							<linkclipref>clipitem-1085</linkclipref>
							<mediatype>audio</mediatype>
							<trackindex>1</trackindex>
							<clipindex>50</clipindex>
							<groupindex>1</groupindex>
						</link>
					</clipitem>
					<clipitem id="clipitem-51">
						<masterclipid>masterclip-2</masterclipid>
						<name>chandrika rocket equations</name>
						<start>3622</start>
						<end>3736</end>
						<in>5392</in>
						<out>5506</out>
						<file id="file-1" />
						<link>
							<linkclipref>clipitem-51</linkclipref>
							<mediatype>video</mediatype>
							<trackindex>1</trackindex>
							<clipindex>51</clipindex>
						</link>
						<link>
							<linkclipref>clipitem-1086</linkclipref>
							<mediatype>audio</mediatype>
							<trackindex>1</trackindex>
							<clipindex>51</clipindex>
							<groupindex>1</groupindex>
						</link>
					</clipitem>
					<clipitem id="clipitem-52">
						<masterclipid>masterclip-2</masterclipid>
						<name>chandrika rocket equations</name>
						<start>3736</start>
						<end>3762</end>
						<in>5515</in>
						<out>5541</out>
						<file id="file-1" />
						<link>
							<linkclipref>clipitem-52</linkclipref>
							<mediatype>video</mediatype>
							<trackindex>1</trackindex>
							<clipindex>52</clipindex>
						</link>
						<link>
							<linkclipref>clipitem-1087</linkclipref>
							<mediatype>audio</mediatype>
							<trackindex>1</trackindex>
							<clipindex>52</clipindex>
							<groupindex>1</groupindex>
						</link>
					</clipitem>
					<clipitem id="clipitem-53">
						<masterclipid>masterclip-2</masterclipid>
						<name>chandrika rocket equations</name>
						<start>3762</start>
						<end>3798</end>
						<in>5559</in>
						<out>5595</out>
						<file id="file-1" />
						<link>
							<linkclipref>clipitem-53</linkclipref>
							<mediatype>video</mediatype>
							<trackindex>1</trackindex>
							<clipindex>53</clipindex>
						</link>
						<link>
							<linkclipref>clipitem-1088</linkclipref>
							<mediatype>audio</mediatype>
							<trackindex>1</trackindex>
							<clipindex>53</clipindex>
							<groupindex>1</groupindex>
						</link>
					</clipitem>
					<clipitem id="clipitem-54">
						<masterclipid>masterclip-2</masterclipid>
						<name>chandrika rocket equations</name>
						<start>3798</start>
						<end>4109</end>
						<in>5621</in>
						<out>5932</out>
						<file id="file-1" />
						<link>
							<linkclipref>clipitem-54</linkclipref>
							<mediatype>video</mediatype>
							<trackindex>1</trackindex>
							<clipindex>54</clipindex>
						</link>
						<link>
							<linkclipref>clipitem-1089</linkclipref>
							<mediatype>audio</mediatype>
							<trackindex>1</trackindex>
							<clipindex>54</clipindex>
							<groupindex>1</groupindex>
						</link>
					</clipitem>
					<clipitem id="clipitem-55">
						<masterclipid>masterclip-2</masterclipid>
						<name>chandrika rocket equations</name>
						<start>4109</start>
						<end>4126</end>
						<in>5934</in>
						<out>5951</out>
						<file id="file-1" />
						<link>
							<linkclipref>clipitem-55</linkclipref>
							<mediatype>video</mediatype>
							<trackindex>1</trackindex>
							<clipindex>55</clipindex>
						</link>
						<link>
							<linkclipref>clipitem-1090</linkclipref>
							<mediatype>audio</mediatype>
							<trackindex>1</trackindex>
							<clipindex>55</clipindex>
							<groupindex>1</groupindex>
						</link>
					</clipitem>
					<clipitem id="clipitem-56">
						<masterclipid>masterclip-2</masterclipid>
						<name>chandrika rocket equations</name>
						<start>4126</start>
						<end>4290</end>
						<in>5973</in>
						<out>6137</out>
						<file id="file-1" />
						<link>
							<linkclipref>clipitem-56</linkclipref>
							<mediatype>video</mediatype>
							<trackindex>1</trackindex>
							<clipindex>56</clipindex>
						</link>
						<link>
							<linkclipref>clipitem-1091</linkclipref>
							<mediatype>audio</mediatype>
							<trackindex>1</trackindex>
							<clipindex>56</clipindex>
							<groupindex>1</groupindex>
						</link>
					</clipitem>
					<clipitem id="clipitem-57">
						<masterclipid>masterclip-2</masterclipid>
						<name>chandrika rocket equations</name>
						<start>4290</start>
						<end>4497</end>
						<in>6148</in>
						<out>6355</out>
						<file id="file-1" />
						<link>
							<linkclipref>clipitem-57</linkclipref>
							<mediatype>video</mediatype>
							<trackindex>1</trackindex>
							<clipindex>57</clipindex>
						</link>
						<link>
							<linkclipref>clipitem-1092</linkclipref>
							<mediatype>audio</mediatype>
							<trackindex>1</trackindex>
							<clipindex>57</clipindex>
							<groupindex>1</groupindex>
						</link>
					</clipitem>
					<clipitem id="clipitem-58">
						<masterclipid>masterclip-2</masterclipid>
						<name>chandrika rocket equations</name>
						<start>4497</start>
						<end>4538</end>
						<in>6363</in>
						<out>6404</out>
						<file id="file-1" />
						<link>
							<linkclipref>clipitem-58</linkclipref>
							<mediatype>video</mediatype>
							<trackindex>1</trackindex>
							<clipindex>58</clipindex>
						</link>
						<link>
							<linkclipref>clipitem-1093</linkclipref>
							<mediatype>audio</mediatype>
							<trackindex>1</trackindex>
							<clipindex>58</clipindex>
							<groupindex>1</groupindex>
						</link>
					</clipitem>
					<clipitem id="clipitem-59">
						<masterclipid>masterclip-2</masterclipid>
						<name>chandrika rocket equations</name>
						<start>4538</start>
						<end>4608</end>
						<in>6409</in>
						<out>6479</out>
						<file id="file-1" />
						<link>
							<linkclipref>clipitem-59</linkclipref>
							<mediatype>video</mediatype>
							<trackindex>1</trackindex>
							<clipindex>59</clipindex>
						</link>
						<link>
							<linkclipref>clipitem-1094</linkclipref>
							<mediatype>audio</mediatype>
							<trackindex>1</trackindex>
							<clipindex>59</clipindex>
							<groupindex>1</groupindex>
						</link>
					</clipitem>
					<clipitem id="clipitem-60">
						<masterclipid>masterclip-2</masterclipid>
						<name>chandrika rocket equations</name>
						<start>4608</start>
						<end>4642</end>
						<in>6481</in>
						<out>6515</out>
						<file id="file-1" />
						<link>
							<linkclipref>clipitem-60</linkclipref>
							<mediatype>video</mediatype>
							<trackindex>1</trackindex>
							<clipindex>60</clipindex>
						</link>
						<link>
							<linkclipref>clipitem-1095</linkclipref>
							<mediatype>audio</mediatype>
							<trackindex>1</trackindex>
							<clipindex>60</clipindex>
							<groupindex>1</groupindex>
						</link>
					</clipitem>
					<clipitem id="clipitem-61">
						<masterclipid>masterclip-2</masterclipid>
						<name>chandrika rocket equations</name>
						<start>4642</start>
						<end>4684</end>
						<in>6535</in>
						<out>6577</out>
						<file id="file-1" />
						<link>
							<linkclipref>clipitem-61</linkclipref>
							<mediatype>video</mediatype>
							<trackindex>1</trackindex>
							<clipindex>61</clipindex>
						</link>
						<link>
							<linkclipref>clipitem-1096</linkclipref>
							<mediatype>audio</mediatype>
							<trackindex>1</trackindex>
							<clipindex>61</clipindex>
							<groupindex>1</groupindex>
						</link>
					</clipitem>
					<clipitem id="clipitem-62">
						<masterclipid>masterclip-2</masterclipid>
						<name>chandrika rocket equations</name>
						<start>4684</start>
						<end>4784</end>
						<in>6594</in>
						<out>6694</out>
						<file id="file-1" />
						<link>
							<linkclipref>clipitem-62</linkclipref>
							<mediatype>video</mediatype>
							<trackindex>1</trackindex>
							<clipindex>62</clipindex>
						</link>
						<link>
							<linkclipref>clipitem-1097</linkclipref>
							<mediatype>audio</mediatype>
							<trackindex>1</trackindex>
							<clipindex>62</clipindex>
							<groupindex>1</groupindex>
						</link>
					</clipitem>
					<clipitem id="clipitem-63">
						<masterclipid>masterclip-2</masterclipid>
						<name>chandrika rocket equations</name>
						<start>4784</start>
						<end>4939</end>
						<in>6695</in>
						<out>6850</out>
						<file id="file-1" />
						<link>
							<linkclipref>clipitem-63</linkclipref>
							<mediatype>video</mediatype>
							<trackindex>1</trackindex>
							<clipindex>63</clipindex>
						</link>
						<link>
							<linkclipref>clipitem-1098</linkclipref>
							<mediatype>audio</mediatype>
							<trackindex>1</trackindex>
							<clipindex>63</clipindex>
							<groupindex>1</groupindex>
						</link>
					</clipitem>
					<clipitem id="clipitem-64">
						<masterclipid>masterclip-2</masterclipid>
						<name>chandrika rocket equations</name>
						<start>4939</start>
						<end>5151</end>
						<in>6856</in>
						<out>7068</out>
						<file id="file-1" />
						<link>
							<linkclipref>clipitem-64</linkclipref>
							<mediatype>video</mediatype>
							<trackindex>1</trackindex>
							<clipindex>64</clipindex>
						</link>
						<link>
							<linkclipref>clipitem-1099</linkclipref>
							<mediatype>audio</mediatype>
							<trackindex>1</trackindex>
							<clipindex>64</clipindex>
							<groupindex>1</groupindex>
						</link>
					</clipitem>
					<clipitem id="clipitem-65">
						<masterclipid>masterclip-2</masterclipid>
						<name>chandrika rocket equations</name>
						<start>5151</start>
						<end>5223</end>
						<in>7071</in>
						<out>7143</out>
						<file id="file-1" />
						<link>
							<linkclipref>clipitem-65</linkclipref>
							<mediatype>video</mediatype>
							<trackindex>1</trackindex>
							<clipindex>65</clipindex>
						</link>
						<link>
							<linkclipref>clipitem-1100</linkclipref>
							<mediatype>audio</mediatype>
							<trackindex>1</trackindex>
							<clipindex>65</clipindex>
							<groupindex>1</groupindex>
						</link>
					</clipitem>
					<clipitem id="clipitem-66">
						<masterclipid>masterclip-2</masterclipid>
						<name>chandrika rocket equations</name>
						<start>5223</start>
						<end>5329</end>
						<in>7151</in>
						<out>7257</out>
						<file id="file-1" />
						<link>
							<linkclipref>clipitem-66</linkclipref>
							<mediatype>video</mediatype>
							<trackindex>1</trackindex>
							<clipindex>66</clipindex>
						</link>
						<link>
							<linkclipref>clipitem-1101</linkclipref>
							<mediatype>audio</mediatype>
							<trackindex>1</trackindex>
							<clipindex>66</clipindex>
							<groupindex>1</groupindex>
						</link>
					</clipitem>
					<clipitem id="clipitem-67">
						<masterclipid>masterclip-2</masterclipid>
						<name>chandrika rocket equations</name>
						<start>5329</start>
						<end>5365</end>
						<in>7258</in>
						<out>7294</out>
						<file id="file-1" />
						<link>
							<linkclipref>clipitem-67</linkclipref>
							<mediatype>video</mediatype>
							<trackindex>1</trackindex>
							<clipindex>67</clipindex>
						</link>
						<link>
							<linkclipref>clipitem-1102</linkclipref>
							<mediatype>audio</mediatype>
							<trackindex>1</trackindex>
							<clipindex>67</clipindex>
							<groupindex>1</groupindex>
						</link>
					</clipitem>
					<clipitem id="clipitem-68">
						<masterclipid>masterclip-2</masterclipid>
						<name>chandrika rocket equations</name>
						<start>5365</start>
						<end>5572</end>
						<in>7325</in>
						<out>7532</out>
						<file id="file-1" />
						<link>
							<linkclipref>clipitem-68</linkclipref>
							<mediatype>video</mediatype>
							<trackindex>1</trackindex>
							<clipindex>68</clipindex>
						</link>
						<link>
							<linkclipref>clipitem-1103</linkclipref>
							<mediatype>audio</mediatype>
							<trackindex>1</trackindex>
							<clipindex>68</clipindex>
							<groupindex>1</groupindex>
						</link>
					</clipitem>
					<clipitem id="clipitem-69">
						<masterclipid>masterclip-2</masterclipid>
						<name>chandrika rocket equations</name>
						<start>5572</start>
						<end>5693</end>
						<in>7553</in>
						<out>7674</out>
						<file id="file-1" />
						<link>
							<linkclipref>clipitem-69</linkclipref>
							<mediatype>video</mediatype>
							<trackindex>1</trackindex>
							<clipindex>69</clipindex>
						</link>
						<link>
							<linkclipref>clipitem-1104</linkclipref>
							<mediatype>audio</mediatype>
							<trackindex>1</trackindex>
							<clipindex>69</clipindex>
							<groupindex>1</groupindex>
						</link>
					</clipitem>
					<clipitem id="clipitem-70">
						<masterclipid>masterclip-2</masterclipid>
						<name>chandrika rocket equations</name>
						<start>5693</start>
						<end>5780</end>
						<in>7705</in>
						<out>7792</out>
						<file id="file-1" />
						<link>
							<linkclipref>clipitem-70</linkclipref>
							<mediatype>video</mediatype>
							<trackindex>1</trackindex>
							<clipindex>70</clipindex>
						</link>
						<link>
							<linkclipref>clipitem-1105</linkclipref>
							<mediatype>audio</mediatype>
							<trackindex>1</trackindex>
							<clipindex>70</clipindex>
							<groupindex>1</groupindex>
						</link>
					</clipitem>
					<clipitem id="clipitem-71">
						<masterclipid>masterclip-2</masterclipid>
						<name>chandrika rocket equations</name>
						<start>5780</start>
						<end>5860</end>
						<in>7822</in>
						<out>7902</out>
						<file id="file-1" />
						<link>
							<linkclipref>clipitem-71</linkclipref>
							<mediatype>video</mediatype>
							<trackindex>1</trackindex>
							<clipindex>71</clipindex>
						</link>
						<link>
							<linkclipref>clipitem-1106</linkclipref>
							<mediatype>audio</mediatype>
							<trackindex>1</trackindex>
							<clipindex>71</clipindex>
							<groupindex>1</groupindex>
						</link>
					</clipitem>
					<clipitem id="clipitem-72">
						<masterclipid>masterclip-2</masterclipid>
						<name>chandrika rocket equations</name>
						<start>5860</start>
						<end>5975</end>
						<in>7929</in>
						<out>8044</out>
						<file id="file-1" />
						<link>
							<linkclipref>clipitem-72</linkclipref>
							<mediatype>video</mediatype>
							<trackindex>1</trackindex>
							<clipindex>72</clipindex>
						</link>
						<link>
							<linkclipref>clipitem-1107</linkclipref>
							<mediatype>audio</mediatype>
							<trackindex>1</trackindex>
							<clipindex>72</clipindex>
							<groupindex>1</groupindex>
						</link>
					</clipitem>
					<clipitem id="clipitem-73">
						<masterclipid>masterclip-2</masterclipid>
						<name>chandrika rocket equations</name>
						<start>5975</start>
						<end>6049</end>
						<in>8071</in>
						<out>8145</out>
						<file id="file-1" />
						<link>
							<linkclipref>clipitem-73</linkclipref>
							<mediatype>video</mediatype>
							<trackindex>1</trackindex>
							<clipindex>73</clipindex>
						</link>
						<link>
							<linkclipref>clipitem-1108</linkclipref>
							<mediatype>audio</mediatype>
							<trackindex>1</trackindex>
							<clipindex>73</clipindex>
							<groupindex>1</groupindex>
						</link>
					</clipitem>
					<clipitem id="clipitem-74">
						<masterclipid>masterclip-2</masterclipid>
						<name>chandrika rocket equations</name>
						<start>6049</start>
						<end>6065</end>
						<in>8164</in>
						<out>8180</out>
						<file id="file-1" />
						<link>
							<linkclipref>clipitem-74</linkclipref>
							<mediatype>video</mediatype>
							<trackindex>1</trackindex>
							<clipindex>74</clipindex>
						</link>
						<link>
							<linkclipref>clipitem-1109</linkclipref>
							<mediatype>audio</mediatype>
							<trackindex>1</trackindex>
							<clipindex>74</clipindex>
							<groupindex>1</groupindex>
						</link>
					</clipitem>
					<clipitem id="clipitem-75">
						<masterclipid>masterclip-2</masterclipid>
						<name>chandrika rocket equations</name>
						<start>6065</start>
						<end>6134</end>
						<in>8186</in>
						<out>8255</out>
						<file id="file-1" />
						<link>
							<linkclipref>clipitem-75</linkclipref>
							<mediatype>video</mediatype>
							<trackindex>1</trackindex>
							<clipindex>75</clipindex>
						</link>
						<link>
							<linkclipref>clipitem-1110</linkclipref>
							<mediatype>audio</mediatype>
							<trackindex>1</trackindex>
							<clipindex>75</clipindex>
							<groupindex>1</groupindex>
						</link>
					</clipitem>
					<clipitem id="clipitem-76">
						<masterclipid>masterclip-2</masterclipid>
						<name>chandrika rocket equations</name>
						<start>6134</start>
						<end>6255</end>
						<in>8274</in>
						<out>8395</out>
						<file id="file-1" />
						<link>
							<linkclipref>clipitem-76</linkclipref>
							<mediatype>video</mediatype>
							<trackindex>1</trackindex>
							<clipindex>76</clipindex>
						</link>
						<link>
							<linkclipref>clipitem-1111</linkclipref>
							<mediatype>audio</mediatype>
							<trackindex>1</trackindex>
							<clipindex>76</clipindex>
							<groupindex>1</groupindex>
						</link>
					</clipitem>
					<clipitem id="clipitem-77">
						<masterclipid>masterclip-2</masterclipid>
						<name>chandrika rocket equations</name>
						<start>6255</start>
						<end>6533</end>
						<in>8415</in>
						<out>8693</out>
						<file id="file-1" />
						<link>
							<linkclipref>clipitem-77</linkclipref>
							<mediatype>video</mediatype>
							<trackindex>1</trackindex>
							<clipindex>77</clipindex>
						</link>
						<link>
							<linkclipref>clipitem-1112</linkclipref>
							<mediatype>audio</mediatype>
							<trackindex>1</trackindex>
							<clipindex>77</clipindex>
							<groupindex>1</groupindex>
						</link>
					</clipitem>
					<clipitem id="clipitem-78">
						<masterclipid>masterclip-2</masterclipid>
						<name>chandrika rocket equations</name>
						<start>6533</start>
						<end>6559</end>
						<in>8729</in>
						<out>8755</out>
						<file id="file-1" />
						<link>
							<linkclipref>clipitem-78</linkclipref>
							<mediatype>video</mediatype>
							<trackindex>1</trackindex>
							<clipindex>78</clipindex>
						</link>
						<link>
							<linkclipref>clipitem-1113</linkclipref>
							<mediatype>audio</mediatype>
							<trackindex>1</trackindex>
							<clipindex>78</clipindex>
							<groupindex>1</groupindex>
						</link>
					</clipitem>
					<clipitem id="clipitem-79">
						<masterclipid>masterclip-2</masterclipid>
						<name>chandrika rocket equations</name>
						<start>6559</start>
						<end>6728</end>
						<in>8760</in>
						<out>8929</out>
						<file id="file-1" />
						<link>
							<linkclipref>clipitem-79</linkclipref>
							<mediatype>video</mediatype>
							<trackindex>1</trackindex>
							<clipindex>79</clipindex>
						</link>
						<link>
							<linkclipref>clipitem-1114</linkclipref>
							<mediatype>audio</mediatype>
							<trackindex>1</trackindex>
							<clipindex>79</clipindex>
							<groupindex>1</groupindex>
						</link>
					</clipitem>
					<clipitem id="clipitem-80">
						<masterclipid>masterclip-2</masterclipid>
						<name>chandrika rocket equations</name>
						<start>6728</start>
						<end>6830</end>
						<in>8942</in>
						<out>9044</out>
						<file id="file-1" />
						<link>
							<linkclipref>clipitem-80</linkclipref>
							<mediatype>video</mediatype>
							<trackindex>1</trackindex>
							<clipindex>80</clipindex>
						</link>
						<link>
							<linkclipref>clipitem-1115</linkclipref>
							<mediatype>audio</mediatype>
							<trackindex>1</trackindex>
							<clipindex>80</clipindex>
							<groupindex>1</groupindex>
						</link>
					</clipitem>
					<clipitem id="clipitem-81">
						<masterclipid>masterclip-2</masterclipid>
						<name>chandrika rocket equations</name>
						<start>6830</start>
						<end>6845</end>
						<in>9076</in>
						<out>9091</out>
						<file id="file-1" />
						<link>
							<linkclipref>clipitem-81</linkclipref>
							<mediatype>video</mediatype>
							<trackindex>1</trackindex>
							<clipindex>81</clipindex>
						</link>
						<link>
							<linkclipref>clipitem-1116</linkclipref>
							<mediatype>audio</mediatype>
							<trackindex>1</trackindex>
							<clipindex>81</clipindex>
							<groupindex>1</groupindex>
						</link>
					</clipitem>
					<clipitem id="clipitem-82">
						<masterclipid>masterclip-2</masterclipid>
						<name>chandrika rocket equations</name>
						<start>6845</start>
						<end>6902</end>
						<in>9110</in>
						<out>9167</out>
						<file id="file-1" />
						<link>
							<linkclipref>clipitem-82</linkclipref>
							<mediatype>video</mediatype>
							<trackindex>1</trackindex>
							<clipindex>82</clipindex>
						</link>
						<link>
							<linkclipref>clipitem-1117</linkclipref>
							<mediatype>audio</mediatype>
							<trackindex>1</trackindex>
							<clipindex>82</clipindex>
							<groupindex>1</groupindex>
						</link>
					</clipitem>
					<clipitem id="clipitem-83">
						<masterclipid>masterclip-2</masterclipid>
						<name>chandrika rocket equations</name>
						<start>6902</start>
						<end>7011</end>
						<in>9201</in>
						<out>9310</out>
						<file id="file-1" />
						<link>
							<linkclipref>clipitem-83</linkclipref>
							<mediatype>video</mediatype>
							<trackindex>1</trackindex>
							<clipindex>83</clipindex>
						</link>
						<link>
							<linkclipref>clipitem-1118</linkclipref>
							<mediatype>audio</mediatype>
							<trackindex>1</trackindex>
							<clipindex>83</clipindex>
							<groupindex>1</groupindex>
						</link>
					</clipitem>
					<clipitem id="clipitem-84">
						<masterclipid>masterclip-2</masterclipid>
						<name>chandrika rocket equations</name>
						<start>7011</start>
						<end>7032</end>
						<in>9346</in>
						<out>9367</out>
						<file id="file-1" />
						<link>
							<linkclipref>clipitem-84</linkclipref>
							<mediatype>video</mediatype>
							<trackindex>1</trackindex>
							<clipindex>84</clipindex>
						</link>
						<link>
							<linkclipref>clipitem-1119</linkclipref>
							<mediatype>audio</mediatype>
							<trackindex>1</trackindex>
							<clipindex>84</clipindex>
							<groupindex>1</groupindex>
						</link>
					</clipitem>
					<clipitem id="clipitem-85">
						<masterclipid>masterclip-2</masterclipid>
						<name>chandrika rocket equations</name>
						<start>7032</start>
						<end>7061</end>
						<in>9385</in>
						<out>9414</out>
						<file id="file-1" />
						<link>
							<linkclipref>clipitem-85</linkclipref>
							<mediatype>video</mediatype>
							<trackindex>1</trackindex>
							<clipindex>85</clipindex>
						</link>
						<link>
							<linkclipref>clipitem-1120</linkclipref>
							<mediatype>audio</mediatype>
							<trackindex>1</trackindex>
							<clipindex>85</clipindex>
							<groupindex>1</groupindex>
						</link>
					</clipitem>
					<clipitem id="clipitem-86">
						<masterclipid>masterclip-2</masterclipid>
						<name>chandrika rocket equations</name>
						<start>7061</start>
						<end>7161</end>
						<in>9432</in>
						<out>9532</out>
						<file id="file-1" />
						<link>
							<linkclipref>clipitem-86</linkclipref>
							<mediatype>video</mediatype>
							<trackindex>1</trackindex>
							<clipindex>86</clipindex>
						</link>
						<link>
							<linkclipref>clipitem-1121</linkclipref>
							<mediatype>audio</mediatype>
							<trackindex>1</trackindex>
							<clipindex>86</clipindex>
							<groupindex>1</groupindex>
						</link>
					</clipitem>
					<clipitem id="clipitem-87">
						<masterclipid>masterclip-2</masterclipid>
						<name>chandrika rocket equations</name>
						<start>7161</start>
						<end>7488</end>
						<in>9559</in>
						<out>9886</out>
						<file id="file-1" />
						<link>
							<linkclipref>clipitem-87</linkclipref>
							<mediatype>video</mediatype>
							<trackindex>1</trackindex>
							<clipindex>87</clipindex>
						</link>
						<link>
							<linkclipref>clipitem-1122</linkclipref>
							<mediatype>audio</mediatype>
							<trackindex>1</trackindex>
							<clipindex>87</clipindex>
							<groupindex>1</groupindex>
						</link>
					</clipitem>
					<clipitem id="clipitem-88">
						<masterclipid>masterclip-2</masterclipid>
						<name>chandrika rocket equations</name>
						<start>7488</start>
						<end>7503</end>
						<in>9903</in>
						<out>9918</out>
						<file id="file-1" />
						<link>
							<linkclipref>clipitem-88</linkclipref>
							<mediatype>video</mediatype>
							<trackindex>1</trackindex>
							<clipindex>88</clipindex>
						</link>
						<link>
							<linkclipref>clipitem-1123</linkclipref>
							<mediatype>audio</mediatype>
							<trackindex>1</trackindex>
							<clipindex>88</clipindex>
							<groupindex>1</groupindex>
						</link>
					</clipitem>
					<clipitem id="clipitem-89">
						<masterclipid>masterclip-2</masterclipid>
						<name>chandrika rocket equations</name>
						<start>7503</start>
						<end>7546</end>
						<in>9934</in>
						<out>9977</out>
						<file id="file-1" />
						<link>
							<linkclipref>clipitem-89</linkclipref>
							<mediatype>video</mediatype>
							<trackindex>1</trackindex>
							<clipindex>89</clipindex>
						</link>
						<link>
							<linkclipref>clipitem-1124</linkclipref>
							<mediatype>audio</mediatype>
							<trackindex>1</trackindex>
							<clipindex>89</clipindex>
							<groupindex>1</groupindex>
						</link>
					</clipitem>
					<clipitem id="clipitem-90">
						<masterclipid>masterclip-2</masterclipid>
						<name>chandrika rocket equations</name>
						<start>7546</start>
						<end>7843</end>
						<in>9988</in>
						<out>10285</out>
						<file id="file-1" />
						<link>
							<linkclipref>clipitem-90</linkclipref>
							<mediatype>video</mediatype>
							<trackindex>1</trackindex>
							<clipindex>90</clipindex>
						</link>
						<link>
							<linkclipref>clipitem-1125</linkclipref>
							<mediatype>audio</mediatype>
							<trackindex>1</trackindex>
							<clipindex>90</clipindex>
							<groupindex>1</groupindex>
						</link>
					</clipitem>
					<clipitem id="clipitem-91">
						<masterclipid>masterclip-2</masterclipid>
						<name>chandrika rocket equations</name>
						<start>7843</start>
						<end>7929</end>
						<in>10292</in>
						<out>10378</out>
						<file id="file-1" />
						<link>
							<linkclipref>clipitem-91</linkclipref>
							<mediatype>video</mediatype>
							<trackindex>1</trackindex>
							<clipindex>91</clipindex>
						</link>
						<link>
							<linkclipref>clipitem-1126</linkclipref>
							<mediatype>audio</mediatype>
							<trackindex>1</trackindex>
							<clipindex>91</clipindex>
							<groupindex>1</groupindex>
						</link>
					</clipitem>
					<clipitem id="clipitem-92">
						<masterclipid>masterclip-2</masterclipid>
						<name>chandrika rocket equations</name>
						<start>7929</start>
						<end>7987</end>
						<in>10385</in>
						<out>10443</out>
						<file id="file-1" />
						<link>
							<linkclipref>clipitem-92</linkclipref>
							<mediatype>video</mediatype>
							<trackindex>1</trackindex>
							<clipindex>92</clipindex>
						</link>
						<link>
							<linkclipref>clipitem-1127</linkclipref>
							<mediatype>audio</mediatype>
							<trackindex>1</trackindex>
							<clipindex>92</clipindex>
							<groupindex>1</groupindex>
						</link>
					</clipitem>
					<clipitem id="clipitem-93">
						<masterclipid>masterclip-2</masterclipid>
						<name>chandrika rocket equations</name>
						<start>7987</start>
						<end>8163</end>
						<in>10460</in>
						<out>10636</out>
						<file id="file-1" />
						<link>
							<linkclipref>clipitem-93</linkclipref>
							<mediatype>video</mediatype>
							<trackindex>1</trackindex>
							<clipindex>93</clipindex>
						</link>
						<link>
							<linkclipref>clipitem-1128</linkclipref>
							<mediatype>audio</mediatype>
							<trackindex>1</trackindex>
							<clipindex>93</clipindex>
							<groupindex>1</groupindex>
						</link>
					</clipitem>
					<clipitem id="clipitem-94">
						<masterclipid>masterclip-2</masterclipid>
						<name>chandrika rocket equations</name>
						<start>8163</start>
						<end>8407</end>
						<in>10638</in>
						<out>10882</out>
						<file id="file-1" />
						<link>
							<linkclipref>clipitem-94</linkclipref>
							<mediatype>video</mediatype>
							<trackindex>1</trackindex>
							<clipindex>94</clipindex>
						</link>
						<link>
							<linkclipref>clipitem-1129</linkclipref>
							<mediatype>audio</mediatype>
							<trackindex>1</trackindex>
							<clipindex>94</clipindex>
							<groupindex>1</groupindex>
						</link>
					</clipitem>
					<clipitem id="clipitem-95">
						<masterclipid>masterclip-2</masterclipid>
						<name>chandrika rocket equations</name>
						<start>8407</start>
						<end>8493</end>
						<in>10892</in>
						<out>10978</out>
						<file id="file-1" />
						<link>
							<linkclipref>clipitem-95</linkclipref>
							<mediatype>video</mediatype>
							<trackindex>1</trackindex>
							<clipindex>95</clipindex>
						</link>
						<link>
							<linkclipref>clipitem-1130</linkclipref>
							<mediatype>audio</mediatype>
							<trackindex>1</trackindex>
							<clipindex>95</clipindex>
							<groupindex>1</groupindex>
						</link>
					</clipitem>
					<clipitem id="clipitem-96">
						<masterclipid>masterclip-2</masterclipid>
						<name>chandrika rocket equations</name>
						<start>8493</start>
						<end>8599</end>
						<in>10984</in>
						<out>11090</out>
						<file id="file-1" />
						<link>
							<linkclipref>clipitem-96</linkclipref>
							<mediatype>video</mediatype>
							<trackindex>1</trackindex>
							<clipindex>96</clipindex>
						</link>
						<link>
							<linkclipref>clipitem-1131</linkclipref>
							<mediatype>audio</mediatype>
							<trackindex>1</trackindex>
							<clipindex>96</clipindex>
							<groupindex>1</groupindex>
						</link>
					</clipitem>
					<clipitem id="clipitem-97">
						<masterclipid>masterclip-2</masterclipid>
						<name>chandrika rocket equations</name>
						<start>8599</start>
						<end>8710</end>
						<in>11099</in>
						<out>11210</out>
						<file id="file-1" />
						<link>
							<linkclipref>clipitem-97</linkclipref>
							<mediatype>video</mediatype>
							<trackindex>1</trackindex>
							<clipindex>97</clipindex>
						</link>
						<link>
							<linkclipref>clipitem-1132</linkclipref>
							<mediatype>audio</mediatype>
							<trackindex>1</trackindex>
							<clipindex>97</clipindex>
							<groupindex>1</groupindex>
						</link>
					</clipitem>
					<clipitem id="clipitem-98">
						<masterclipid>masterclip-2</masterclipid>
						<name>chandrika rocket equations</name>
						<start>8710</start>
						<end>8894</end>
						<in>11226</in>
						<out>11410</out>
						<file id="file-1" />
						<link>
							<linkclipref>clipitem-98</linkclipref>
							<mediatype>video</mediatype>
							<trackindex>1</trackindex>
							<clipindex>98</clipindex>
						</link>
						<link>
							<linkclipref>clipitem-1133</linkclipref>
							<mediatype>audio</mediatype>
							<trackindex>1</trackindex>
							<clipindex>98</clipindex>
							<groupindex>1</groupindex>
						</link>
					</clipitem>
					<clipitem id="clipitem-99">
						<masterclipid>masterclip-2</masterclipid>
						<name>chandrika rocket equations</name>
						<start>8894</start>
						<end>8914</end>
						<in>11412</in>
						<out>11432</out>
						<file id="file-1" />
						<link>
							<linkclipref>clipitem-99</linkclipref>
							<mediatype>video</mediatype>
							<trackindex>1</trackindex>
							<clipindex>99</clipindex>
						</link>
						<link>
							<linkclipref>clipitem-1134</linkclipref>
							<mediatype>audio</mediatype>
							<trackindex>1</trackindex>
							<clipindex>99</clipindex>
							<groupindex>1</groupindex>
						</link>
					</clipitem>
					<clipitem id="clipitem-100">
						<masterclipid>masterclip-2</masterclipid>
						<name>chandrika rocket equations</name>
						<start>8914</start>
						<end>8960</end>
						<in>11447</in>
						<out>11493</out>
						<file id="file-1" />
						<link>
							<linkclipref>clipitem-100</linkclipref>
							<mediatype>video</mediatype>
							<trackindex>1</trackindex>
							<clipindex>100</clipindex>
						</link>
						<link>
							<linkclipref>clipitem-1135</linkclipref>
							<mediatype>audio</mediatype>
							<trackindex>1</trackindex>
							<clipindex>100</clipindex>
							<groupindex>1</groupindex>
						</link>
					</clipitem>
					<clipitem id="clipitem-101">
						<masterclipid>masterclip-2</masterclipid>
						<name>chandrika rocket equations</name>
						<start>8960</start>
						<end>9335</end>
						<in>11503</in>
						<out>11878</out>
						<file id="file-1" />
						<link>
							<linkclipref>clipitem-101</linkclipref>
							<mediatype>video</mediatype>
							<trackindex>1</trackindex>
							<clipindex>101</clipindex>
						</link>
						<link>
							<linkclipref>clipitem-1136</linkclipref>
							<mediatype>audio</mediatype>
							<trackindex>1</trackindex>
							<clipindex>101</clipindex>
							<groupindex>1</groupindex>
						</link>
					</clipitem>
					<clipitem id="clipitem-102">
						<masterclipid>masterclip-2</masterclipid>
						<name>chandrika rocket equations</name>
						<start>9335</start>
						<end>9350</end>
						<in>11883</in>
						<out>11898</out>
						<file id="file-1" />
						<link>
							<linkclipref>clipitem-102</linkclipref>
							<mediatype>video</mediatype>
							<trackindex>1</trackindex>
							<clipindex>102</clipindex>
						</link>
						<link>
							<linkclipref>clipitem-1137</linkclipref>
							<mediatype>audio</mediatype>
							<trackindex>1</trackindex>
							<clipindex>102</clipindex>
							<groupindex>1</groupindex>
						</link>
					</clipitem>
					<clipitem id="clipitem-103">
						<masterclipid>masterclip-2</masterclipid>
						<name>chandrika rocket equations</name>
						<start>9350</start>
						<end>9558</end>
						<in>11937</in>
						<out>12145</out>
						<file id="file-1" />
						<link>
							<linkclipref>clipitem-103</linkclipref>
							<mediatype>video</mediatype>
							<trackindex>1</trackindex>
							<clipindex>103</clipindex>
						</link>
						<link>
							<linkclipref>clipitem-1138</linkclipref>
							<mediatype>audio</mediatype>
							<trackindex>1</trackindex>
							<clipindex>103</clipindex>
							<groupindex>1</groupindex>
						</link>
					</clipitem>
					<clipitem id="clipitem-104">
						<masterclipid>masterclip-2</masterclipid>
						<name>chandrika rocket equations</name>
						<start>9558</start>
						<end>9616</end>
						<in>12197</in>
						<out>12255</out>
						<file id="file-1" />
						<link>
							<linkclipref>clipitem-104</linkclipref>
							<mediatype>video</mediatype>
							<trackindex>1</trackindex>
							<clipindex>104</clipindex>
						</link>
						<link>
							<linkclipref>clipitem-1139</linkclipref>
							<mediatype>audio</mediatype>
							<trackindex>1</trackindex>
							<clipindex>104</clipindex>
							<groupindex>1</groupindex>
						</link>
					</clipitem>
					<clipitem id="clipitem-105">
						<masterclipid>masterclip-2</masterclipid>
						<name>chandrika rocket equations</name>
						<start>9616</start>
						<end>9660</end>
						<in>12332</in>
						<out>12376</out>
						<file id="file-1" />
						<link>
							<linkclipref>clipitem-105</linkclipref>
							<mediatype>video</mediatype>
							<trackindex>1</trackindex>
							<clipindex>105</clipindex>
						</link>
						<link>
							<linkclipref>clipitem-1140</linkclipref>
							<mediatype>audio</mediatype>
							<trackindex>1</trackindex>
							<clipindex>105</clipindex>
							<groupindex>1</groupindex>
						</link>
					</clipitem>
					<clipitem id="clipitem-106">
						<masterclipid>masterclip-2</masterclipid>
						<name>chandrika rocket equations</name>
						<start>9660</start>
						<end>9732</end>
						<in>12386</in>
						<out>12458</out>
						<file id="file-1" />
						<link>
							<linkclipref>clipitem-106</linkclipref>
							<mediatype>video</mediatype>
							<trackindex>1</trackindex>
							<clipindex>106</clipindex>
						</link>
						<link>
							<linkclipref>clipitem-1141</linkclipref>
							<mediatype>audio</mediatype>
							<trackindex>1</trackindex>
							<clipindex>106</clipindex>
							<groupindex>1</groupindex>
						</link>
					</clipitem>
					<clipitem id="clipitem-107">
						<masterclipid>masterclip-2</masterclipid>
						<name>chandrika rocket equations</name>
						<start>9732</start>
						<end>9950</end>
						<in>12462</in>
						<out>12680</out>
						<file id="file-1" />
						<link>
							<linkclipref>clipitem-107</linkclipref>
							<mediatype>video</mediatype>
							<trackindex>1</trackindex>
							<clipindex>107</clipindex>
						</link>
						<link>
							<linkclipref>clipitem-1142</linkclipref>
							<mediatype>audio</mediatype>
							<trackindex>1</trackindex>
							<clipindex>107</clipindex>
							<groupindex>1</groupindex>
						</link>
					</clipitem>
					<clipitem id="clipitem-108">
						<masterclipid>masterclip-2</masterclipid>
						<name>chandrika rocket equations</name>
						<start>9950</start>
						<end>9998</end>
						<in>12744</in>
						<out>12792</out>
						<file id="file-1" />
						<link>
							<linkclipref>clipitem-108</linkclipref>
							<mediatype>video</mediatype>
							<trackindex>1</trackindex>
							<clipindex>108</clipindex>
						</link>
						<link>
							<linkclipref>clipitem-1143</linkclipref>
							<mediatype>audio</mediatype>
							<trackindex>1</trackindex>
							<clipindex>108</clipindex>
							<groupindex>1</groupindex>
						</link>
					</clipitem>
					<clipitem id="clipitem-109">
						<masterclipid>masterclip-2</masterclipid>
						<name>chandrika rocket equations</name>
						<start>9998</start>
						<end>10068</end>
						<in>12794</in>
						<out>12864</out>
						<file id="file-1" />
						<link>
							<linkclipref>clipitem-109</linkclipref>
							<mediatype>video</mediatype>
							<trackindex>1</trackindex>
							<clipindex>109</clipindex>
						</link>
						<link>
							<linkclipref>clipitem-1144</linkclipref>
							<mediatype>audio</mediatype>
							<trackindex>1</trackindex>
							<clipindex>109</clipindex>
							<groupindex>1</groupindex>
						</link>
					</clipitem>
					<clipitem id="clipitem-110">
						<masterclipid>masterclip-2</masterclipid>
						<name>chandrika rocket equations</name>
						<start>10068</start>
						<end>10110</end>
						<in>12983</in>
						<out>13025</out>
						<file id="file-1" />
						<link>
							<linkclipref>clipitem-110</linkclipref>
							<mediatype>video</mediatype>
							<trackindex>1</trackindex>
							<clipindex>110</clipindex>
						</link>
						<link>
							<linkclipref>clipitem-1145</linkclipref>
							<mediatype>audio</mediatype>
							<trackindex>1</trackindex>
							<clipindex>110</clipindex>
							<groupindex>1</groupindex>
						</link>
					</clipitem>
					<clipitem id="clipitem-111">
						<masterclipid>masterclip-2</masterclipid>
						<name>chandrika rocket equations</name>
						<start>10110</start>
						<end>10158</end>
						<in>13042</in>
						<out>13090</out>
						<file id="file-1" />
						<link>
							<linkclipref>clipitem-111</linkclipref>
							<mediatype>video</mediatype>
							<trackindex>1</trackindex>
							<clipindex>111</clipindex>
						</link>
						<link>
							<linkclipref>clipitem-1146</linkclipref>
							<mediatype>audio</mediatype>
							<trackindex>1</trackindex>
							<clipindex>111</clipindex>
							<groupindex>1</groupindex>
						</link>
					</clipitem>
					<clipitem id="clipitem-112">
						<masterclipid>masterclip-2</masterclipid>
						<name>chandrika rocket equations</name>
						<start>10158</start>
						<end>10198</end>
						<in>13102</in>
						<out>13142</out>
						<file id="file-1" />
						<link>
							<linkclipref>clipitem-112</linkclipref>
							<mediatype>video</mediatype>
							<trackindex>1</trackindex>
							<clipindex>112</clipindex>
						</link>
						<link>
							<linkclipref>clipitem-1147</linkclipref>
							<mediatype>audio</mediatype>
							<trackindex>1</trackindex>
							<clipindex>112</clipindex>
							<groupindex>1</groupindex>
						</link>
					</clipitem>
					<clipitem id="clipitem-113">
						<masterclipid>masterclip-2</masterclipid>
						<name>chandrika rocket equations</name>
						<start>10198</start>
						<end>10242</end>
						<in>13186</in>
						<out>13230</out>
						<file id="file-1" />
						<link>
							<linkclipref>clipitem-113</linkclipref>
							<mediatype>video</mediatype>
							<trackindex>1</trackindex>
							<clipindex>113</clipindex>
						</link>
						<link>
							<linkclipref>clipitem-1148</linkclipref>
							<mediatype>audio</mediatype>
							<trackindex>1</trackindex>
							<clipindex>113</clipindex>
							<groupindex>1</groupindex>
						</link>
					</clipitem>
					<clipitem id="clipitem-114">
						<masterclipid>masterclip-2</masterclipid>
						<name>chandrika rocket equations</name>
						<start>10242</start>
						<end>10349</end>
						<in>13335</in>
						<out>13442</out>
						<file id="file-1" />
						<link>
							<linkclipref>clipitem-114</linkclipref>
							<mediatype>video</mediatype>
							<trackindex>1</trackindex>
							<clipindex>114</clipindex>
						</link>
						<link>
							<linkclipref>clipitem-1149</linkclipref>
							<mediatype>audio</mediatype>
							<trackindex>1</trackindex>
							<clipindex>114</clipindex>
							<groupindex>1</groupindex>
						</link>
					</clipitem>
					<clipitem id="clipitem-115">
						<masterclipid>masterclip-2</masterclipid>
						<name>chandrika rocket equations</name>
						<start>10349</start>
						<end>10403</end>
						<in>13455</in>
						<out>13509</out>
						<file id="file-1" />
						<link>
							<linkclipref>clipitem-115</linkclipref>
							<mediatype>video</mediatype>
							<trackindex>1</trackindex>
							<clipindex>115</clipindex>
						</link>
						<link>
							<linkclipref>clipitem-1150</linkclipref>
							<mediatype>audio</mediatype>
							<trackindex>1</trackindex>
							<clipindex>115</clipindex>
							<groupindex>1</groupindex>
						</link>
					</clipitem>
					<clipitem id="clipitem-116">
						<masterclipid>masterclip-2</masterclipid>
						<name>chandrika rocket equations</name>
						<start>10403</start>
						<end>10544</end>
						<in>13517</in>
						<out>13658</out>
						<file id="file-1" />
						<link>
							<linkclipref>clipitem-116</linkclipref>
							<mediatype>video</mediatype>
							<trackindex>1</trackindex>
							<clipindex>116</clipindex>
						</link>
						<link>
							<linkclipref>clipitem-1151</linkclipref>
							<mediatype>audio</mediatype>
							<trackindex>1</trackindex>
							<clipindex>116</clipindex>
							<groupindex>1</groupindex>
						</link>
					</clipitem>
					<clipitem id="clipitem-117">
						<masterclipid>masterclip-2</masterclipid>
						<name>chandrika rocket equations</name>
						<start>10544</start>
						<end>10705</end>
						<in>13751</in>
						<out>13912</out>
						<file id="file-1" />
						<link>
							<linkclipref>clipitem-117</linkclipref>
							<mediatype>video</mediatype>
							<trackindex>1</trackindex>
							<clipindex>117</clipindex>
						</link>
						<link>
							<linkclipref>clipitem-1152</linkclipref>
							<mediatype>audio</mediatype>
							<trackindex>1</trackindex>
							<clipindex>117</clipindex>
							<groupindex>1</groupindex>
						</link>
					</clipitem>
					<clipitem id="clipitem-118">
						<masterclipid>masterclip-2</masterclipid>
						<name>chandrika rocket equations</name>
						<start>10705</start>
						<end>10796</end>
						<in>13935</in>
						<out>14026</out>
						<file id="file-1" />
						<link>
							<linkclipref>clipitem-118</linkclipref>
							<mediatype>video</mediatype>
							<trackindex>1</trackindex>
							<clipindex>118</clipindex>
						</link>
						<link>
							<linkclipref>clipitem-1153</linkclipref>
							<mediatype>audio</mediatype>
							<trackindex>1</trackindex>
							<clipindex>118</clipindex>
							<groupindex>1</groupindex>
						</link>
					</clipitem>
					<clipitem id="clipitem-119">
						<masterclipid>masterclip-2</masterclipid>
						<name>chandrika rocket equations</name>
						<start>10796</start>
						<end>10892</end>
						<in>14032</in>
						<out>14128</out>
						<file id="file-1" />
						<link>
							<linkclipref>clipitem-119</linkclipref>
							<mediatype>video</mediatype>
							<trackindex>1</trackindex>
							<clipindex>119</clipindex>
						</link>
						<link>
							<linkclipref>clipitem-1154</linkclipref>
							<mediatype>audio</mediatype>
							<trackindex>1</trackindex>
							<clipindex>119</clipindex>
							<groupindex>1</groupindex>
						</link>
					</clipitem>
					<clipitem id="clipitem-120">
						<masterclipid>masterclip-2</masterclipid>
						<name>chandrika rocket equations</name>
						<start>10892</start>
						<end>10964</end>
						<in>14206</in>
						<out>14278</out>
						<file id="file-1" />
						<link>
							<linkclipref>clipitem-120</linkclipref>
							<mediatype>video</mediatype>
							<trackindex>1</trackindex>
							<clipindex>120</clipindex>
						</link>
						<link>
							<linkclipref>clipitem-1155</linkclipref>
							<mediatype>audio</mediatype>
							<trackindex>1</trackindex>
							<clipindex>120</clipindex>
							<groupindex>1</groupindex>
						</link>
					</clipitem>
					<clipitem id="clipitem-121">
						<masterclipid>masterclip-2</masterclipid>
						<name>chandrika rocket equations</name>
						<start>10964</start>
						<end>11032</end>
						<in>14294</in>
						<out>14362</out>
						<file id="file-1" />
						<link>
							<linkclipref>clipitem-121</linkclipref>
							<mediatype>video</mediatype>
							<trackindex>1</trackindex>
							<clipindex>121</clipindex>
						</link>
						<link>
							<linkclipref>clipitem-1156</linkclipref>
							<mediatype>audio</mediatype>
							<trackindex>1</trackindex>
							<clipindex>121</clipindex>
							<groupindex>1</groupindex>
						</link>
					</clipitem>
					<clipitem id="clipitem-122">
						<masterclipid>masterclip-2</masterclipid>
						<name>chandrika rocket equations</name>
						<start>11032</start>
						<end>11073</end>
						<in>14364</in>
						<out>14405</out>
						<file id="file-1" />
						<link>
							<linkclipref>clipitem-122</linkclipref>
							<mediatype>video</mediatype>
							<trackindex>1</trackindex>
							<clipindex>122</clipindex>
						</link>
						<link>
							<linkclipref>clipitem-1157</linkclipref>
							<mediatype>audio</mediatype>
							<trackindex>1</trackindex>
							<clipindex>122</clipindex>
							<groupindex>1</groupindex>
						</link>
					</clipitem>
					<clipitem id="clipitem-123">
						<masterclipid>masterclip-2</masterclipid>
						<name>chandrika rocket equations</name>
						<start>11073</start>
						<end>11151</end>
						<in>14406</in>
						<out>14484</out>
						<file id="file-1" />
						<link>
							<linkclipref>clipitem-123</linkclipref>
							<mediatype>video</mediatype>
							<trackindex>1</trackindex>
							<clipindex>123</clipindex>
						</link>
						<link>
							<linkclipref>clipitem-1158</linkclipref>
							<mediatype>audio</mediatype>
							<trackindex>1</trackindex>
							<clipindex>123</clipindex>
							<groupindex>1</groupindex>
						</link>
					</clipitem>
					<clipitem id="clipitem-124">
						<masterclipid>masterclip-2</masterclipid>
						<name>chandrika rocket equations</name>
						<start>11151</start>
						<end>11166</end>
						<in>14486</in>
						<out>14501</out>
						<file id="file-1" />
						<link>
							<linkclipref>clipitem-124</linkclipref>
							<mediatype>video</mediatype>
							<trackindex>1</trackindex>
							<clipindex>124</clipindex>
						</link>
						<link>
							<linkclipref>clipitem-1159</linkclipref>
							<mediatype>audio</mediatype>
							<trackindex>1</trackindex>
							<clipindex>124</clipindex>
							<groupindex>1</groupindex>
						</link>
					</clipitem>
					<clipitem id="clipitem-125">
						<masterclipid>masterclip-2</masterclipid>
						<name>chandrika rocket equations</name>
						<start>11166</start>
						<end>11251</end>
						<in>14553</in>
						<out>14638</out>
						<file id="file-1" />
						<link>
							<linkclipref>clipitem-125</linkclipref>
							<mediatype>video</mediatype>
							<trackindex>1</trackindex>
							<clipindex>125</clipindex>
						</link>
						<link>
							<linkclipref>clipitem-1160</linkclipref>
							<mediatype>audio</mediatype>
							<trackindex>1</trackindex>
							<clipindex>125</clipindex>
							<groupindex>1</groupindex>
						</link>
					</clipitem>
					<clipitem id="clipitem-126">
						<masterclipid>masterclip-2</masterclipid>
						<name>chandrika rocket equations</name>
						<start>11251</start>
						<end>11378</end>
						<in>14672</in>
						<out>14799</out>
						<file id="file-1" />
						<link>
							<linkclipref>clipitem-126</linkclipref>
							<mediatype>video</mediatype>
							<trackindex>1</trackindex>
							<clipindex>126</clipindex>
						</link>
						<link>
							<linkclipref>clipitem-1161</linkclipref>
							<mediatype>audio</mediatype>
							<trackindex>1</trackindex>
							<clipindex>126</clipindex>
							<groupindex>1</groupindex>
						</link>
					</clipitem>
					<clipitem id="clipitem-127">
						<masterclipid>masterclip-2</masterclipid>
						<name>chandrika rocket equations</name>
						<start>11378</start>
						<end>11719</end>
						<in>14829</in>
						<out>15170</out>
						<file id="file-1" />
						<link>
							<linkclipref>clipitem-127</linkclipref>
							<mediatype>video</mediatype>
							<trackindex>1</trackindex>
							<clipindex>127</clipindex>
						</link>
						<link>
							<linkclipref>clipitem-1162</linkclipref>
							<mediatype>audio</mediatype>
							<trackindex>1</trackindex>
							<clipindex>127</clipindex>
							<groupindex>1</groupindex>
						</link>
					</clipitem>
					<clipitem id="clipitem-128">
						<masterclipid>masterclip-2</masterclipid>
						<name>chandrika rocket equations</name>
						<start>11719</start>
						<end>11935</end>
						<in>15192</in>
						<out>15408</out>
						<file id="file-1" />
						<link>
							<linkclipref>clipitem-128</linkclipref>
							<mediatype>video</mediatype>
							<trackindex>1</trackindex>
							<clipindex>128</clipindex>
						</link>
						<link>
							<linkclipref>clipitem-1163</linkclipref>
							<mediatype>audio</mediatype>
							<trackindex>1</trackindex>
							<clipindex>128</clipindex>
							<groupindex>1</groupindex>
						</link>
					</clipitem>
					<clipitem id="clipitem-129">
						<masterclipid>masterclip-2</masterclipid>
						<name>chandrika rocket equations</name>
						<start>11935</start>
						<end>12004</end>
						<in>15445</in>
						<out>15514</out>
						<file id="file-1" />
						<link>
							<linkclipref>clipitem-129</linkclipref>
							<mediatype>video</mediatype>
							<trackindex>1</trackindex>
							<clipindex>129</clipindex>
						</link>
						<link>
							<linkclipref>clipitem-1164</linkclipref>
							<mediatype>audio</mediatype>
							<trackindex>1</trackindex>
							<clipindex>129</clipindex>
							<groupindex>1</groupindex>
						</link>
					</clipitem>
					<clipitem id="clipitem-130">
						<masterclipid>masterclip-2</masterclipid>
						<name>chandrika rocket equations</name>
						<start>12004</start>
						<end>12038</end>
						<in>15528</in>
						<out>15562</out>
						<file id="file-1" />
						<link>
							<linkclipref>clipitem-130</linkclipref>
							<mediatype>video</mediatype>
							<trackindex>1</trackindex>
							<clipindex>130</clipindex>
						</link>
						<link>
							<linkclipref>clipitem-1165</linkclipref>
							<mediatype>audio</mediatype>
							<trackindex>1</trackindex>
							<clipindex>130</clipindex>
							<groupindex>1</groupindex>
						</link>
					</clipitem>
					<clipitem id="clipitem-131">
						<masterclipid>masterclip-2</masterclipid>
						<name>chandrika rocket equations</name>
						<start>12038</start>
						<end>12126</end>
						<in>15569</in>
						<out>15657</out>
						<file id="file-1" />
						<link>
							<linkclipref>clipitem-131</linkclipref>
							<mediatype>video</mediatype>
							<trackindex>1</trackindex>
							<clipindex>131</clipindex>
						</link>
						<link>
							<linkclipref>clipitem-1166</linkclipref>
							<mediatype>audio</mediatype>
							<trackindex>1</trackindex>
							<clipindex>131</clipindex>
							<groupindex>1</groupindex>
						</link>
					</clipitem>
					<clipitem id="clipitem-132">
						<masterclipid>masterclip-2</masterclipid>
						<name>chandrika rocket equations</name>
						<start>12126</start>
						<end>12272</end>
						<in>15659</in>
						<out>15805</out>
						<file id="file-1" />
						<link>
							<linkclipref>clipitem-132</linkclipref>
							<mediatype>video</mediatype>
							<trackindex>1</trackindex>
							<clipindex>132</clipindex>
						</link>
						<link>
							<linkclipref>clipitem-1167</linkclipref>
							<mediatype>audio</mediatype>
							<trackindex>1</trackindex>
							<clipindex>132</clipindex>
							<groupindex>1</groupindex>
						</link>
					</clipitem>
					<clipitem id="clipitem-133">
						<masterclipid>masterclip-2</masterclipid>
						<name>chandrika rocket equations</name>
						<start>12272</start>
						<end>12626</end>
						<in>15816</in>
						<out>16170</out>
						<file id="file-1" />
						<link>
							<linkclipref>clipitem-133</linkclipref>
							<mediatype>video</mediatype>
							<trackindex>1</trackindex>
							<clipindex>133</clipindex>
						</link>
						<link>
							<linkclipref>clipitem-1168</linkclipref>
							<mediatype>audio</mediatype>
							<trackindex>1</trackindex>
							<clipindex>133</clipindex>
							<groupindex>1</groupindex>
						</link>
					</clipitem>
					<clipitem id="clipitem-134">
						<masterclipid>masterclip-2</masterclipid>
						<name>chandrika rocket equations</name>
						<start>12626</start>
						<end>12671</end>
						<in>16180</in>
						<out>16225</out>
						<file id="file-1" />
						<link>
							<linkclipref>clipitem-134</linkclipref>
							<mediatype>video</mediatype>
							<trackindex>1</trackindex>
							<clipindex>134</clipindex>
						</link>
						<link>
							<linkclipref>clipitem-1169</linkclipref>
							<mediatype>audio</mediatype>
							<trackindex>1</trackindex>
							<clipindex>134</clipindex>
							<groupindex>1</groupindex>
						</link>
					</clipitem>
					<clipitem id="clipitem-135">
						<masterclipid>masterclip-2</masterclipid>
						<name>chandrika rocket equations</name>
						<start>12671</start>
						<end>12861</end>
						<in>16230</in>
						<out>16420</out>
						<file id="file-1" />
						<link>
							<linkclipref>clipitem-135</linkclipref>
							<mediatype>video</mediatype>
							<trackindex>1</trackindex>
							<clipindex>135</clipindex>
						</link>
						<link>
							<linkclipref>clipitem-1170</linkclipref>
							<mediatype>audio</mediatype>
							<trackindex>1</trackindex>
							<clipindex>135</clipindex>
							<groupindex>1</groupindex>
						</link>
					</clipitem>
					<clipitem id="clipitem-136">
						<masterclipid>masterclip-2</masterclipid>
						<name>chandrika rocket equations</name>
						<start>12861</start>
						<end>12911</end>
						<in>16475</in>
						<out>16525</out>
						<file id="file-1" />
						<link>
							<linkclipref>clipitem-136</linkclipref>
							<mediatype>video</mediatype>
							<trackindex>1</trackindex>
							<clipindex>136</clipindex>
						</link>
						<link>
							<linkclipref>clipitem-1171</linkclipref>
							<mediatype>audio</mediatype>
							<trackindex>1</trackindex>
							<clipindex>136</clipindex>
							<groupindex>1</groupindex>
						</link>
					</clipitem>
					<clipitem id="clipitem-137">
						<masterclipid>masterclip-2</masterclipid>
						<name>chandrika rocket equations</name>
						<start>12911</start>
						<end>13097</end>
						<in>16529</in>
						<out>16715</out>
						<file id="file-1" />
						<link>
							<linkclipref>clipitem-137</linkclipref>
							<mediatype>video</mediatype>
							<trackindex>1</trackindex>
							<clipindex>137</clipindex>
						</link>
						<link>
							<linkclipref>clipitem-1172</linkclipref>
							<mediatype>audio</mediatype>
							<trackindex>1</trackindex>
							<clipindex>137</clipindex>
							<groupindex>1</groupindex>
						</link>
					</clipitem>
					<clipitem id="clipitem-138">
						<masterclipid>masterclip-2</masterclipid>
						<name>chandrika rocket equations</name>
						<start>13097</start>
						<end>13112</end>
						<in>16807</in>
						<out>16822</out>
						<file id="file-1" />
						<link>
							<linkclipref>clipitem-138</linkclipref>
							<mediatype>video</mediatype>
							<trackindex>1</trackindex>
							<clipindex>138</clipindex>
						</link>
						<link>
							<linkclipref>clipitem-1173</linkclipref>
							<mediatype>audio</mediatype>
							<trackindex>1</trackindex>
							<clipindex>138</clipindex>
							<groupindex>1</groupindex>
						</link>
					</clipitem>
					<clipitem id="clipitem-139">
						<masterclipid>masterclip-2</masterclipid>
						<name>chandrika rocket equations</name>
						<start>13112</start>
						<end>13207</end>
						<in>16970</in>
						<out>17065</out>
						<file id="file-1" />
						<link>
							<linkclipref>clipitem-139</linkclipref>
							<mediatype>video</mediatype>
							<trackindex>1</trackindex>
							<clipindex>139</clipindex>
						</link>
						<link>
							<linkclipref>clipitem-1174</linkclipref>
							<mediatype>audio</mediatype>
							<trackindex>1</trackindex>
							<clipindex>139</clipindex>
							<groupindex>1</groupindex>
						</link>
					</clipitem>
					<clipitem id="clipitem-140">
						<masterclipid>masterclip-2</masterclipid>
						<name>chandrika rocket equations</name>
						<start>13207</start>
						<end>13295</end>
						<in>17110</in>
						<out>17198</out>
						<file id="file-1" />
						<link>
							<linkclipref>clipitem-140</linkclipref>
							<mediatype>video</mediatype>
							<trackindex>1</trackindex>
							<clipindex>140</clipindex>
						</link>
						<link>
							<linkclipref>clipitem-1175</linkclipref>
							<mediatype>audio</mediatype>
							<trackindex>1</trackindex>
							<clipindex>140</clipindex>
							<groupindex>1</groupindex>
						</link>
					</clipitem>
					<clipitem id="clipitem-141">
						<masterclipid>masterclip-2</masterclipid>
						<name>chandrika rocket equations</name>
						<start>13295</start>
						<end>13731</end>
						<in>17289</in>
						<out>17725</out>
						<file id="file-1" />
						<link>
							<linkclipref>clipitem-141</linkclipref>
							<mediatype>video</mediatype>
							<trackindex>1</trackindex>
							<clipindex>141</clipindex>
						</link>
						<link>
							<linkclipref>clipitem-1176</linkclipref>
							<mediatype>audio</mediatype>
							<trackindex>1</trackindex>
							<clipindex>141</clipindex>
							<groupindex>1</groupindex>
						</link>
					</clipitem>
					<clipitem id="clipitem-142">
						<masterclipid>masterclip-2</masterclipid>
						<name>chandrika rocket equations</name>
						<start>13731</start>
						<end>13815</end>
						<in>17761</in>
						<out>17845</out>
						<file id="file-1" />
						<link>
							<linkclipref>clipitem-142</linkclipref>
							<mediatype>video</mediatype>
							<trackindex>1</trackindex>
							<clipindex>142</clipindex>
						</link>
						<link>
							<linkclipref>clipitem-1177</linkclipref>
							<mediatype>audio</mediatype>
							<trackindex>1</trackindex>
							<clipindex>142</clipindex>
							<groupindex>1</groupindex>
						</link>
					</clipitem>
					<clipitem id="clipitem-143">
						<masterclipid>masterclip-2</masterclipid>
						<name>chandrika rocket equations</name>
						<start>13815</start>
						<end>13893</end>
						<in>17850</in>
						<out>17928</out>
						<file id="file-1" />
						<link>
							<linkclipref>clipitem-143</linkclipref>
							<mediatype>video</mediatype>
							<trackindex>1</trackindex>
							<clipindex>143</clipindex>
						</link>
						<link>
							<linkclipref>clipitem-1178</linkclipref>
							<mediatype>audio</mediatype>
							<trackindex>1</trackindex>
							<clipindex>143</clipindex>
							<groupindex>1</groupindex>
						</link>
					</clipitem>
					<clipitem id="clipitem-144">
						<masterclipid>masterclip-2</masterclipid>
						<name>chandrika rocket equations</name>
						<start>13893</start>
						<end>14023</end>
						<in>17959</in>
						<out>18089</out>
						<file id="file-1" />
						<link>
							<linkclipref>clipitem-144</linkclipref>
							<mediatype>video</mediatype>
							<trackindex>1</trackindex>
							<clipindex>144</clipindex>
						</link>
						<link>
							<linkclipref>clipitem-1179</linkclipref>
							<mediatype>audio</mediatype>
							<trackindex>1</trackindex>
							<clipindex>144</clipindex>
							<groupindex>1</groupindex>
						</link>
					</clipitem>
					<clipitem id="clipitem-145">
						<masterclipid>masterclip-2</masterclipid>
						<name>chandrika rocket equations</name>
						<start>14023</start>
						<end>14066</end>
						<in>18222</in>
						<out>18265</out>
						<file id="file-1" />
						<link>
							<linkclipref>clipitem-145</linkclipref>
							<mediatype>video</mediatype>
							<trackindex>1</trackindex>
							<clipindex>145</clipindex>
						</link>
						<link>
							<linkclipref>clipitem-1180</linkclipref>
							<mediatype>audio</mediatype>
							<trackindex>1</trackindex>
							<clipindex>145</clipindex>
							<groupindex>1</groupindex>
						</link>
					</clipitem>
					<clipitem id="clipitem-146">
						<masterclipid>masterclip-2</masterclipid>
						<name>chandrika rocket equations</name>
						<start>14066</start>
						<end>14112</end>
						<in>18290</in>
						<out>18336</out>
						<file id="file-1" />
						<link>
							<linkclipref>clipitem-146</linkclipref>
							<mediatype>video</mediatype>
							<trackindex>1</trackindex>
							<clipindex>146</clipindex>
						</link>
						<link>
							<linkclipref>clipitem-1181</linkclipref>
							<mediatype>audio</mediatype>
							<trackindex>1</trackindex>
							<clipindex>146</clipindex>
							<groupindex>1</groupindex>
						</link>
					</clipitem>
					<clipitem id="clipitem-147">
						<masterclipid>masterclip-2</masterclipid>
						<name>chandrika rocket equations</name>
						<start>14112</start>
						<end>14192</end>
						<in>18361</in>
						<out>18441</out>
						<file id="file-1" />
						<link>
							<linkclipref>clipitem-147</linkclipref>
							<mediatype>video</mediatype>
							<trackindex>1</trackindex>
							<clipindex>147</clipindex>
						</link>
						<link>
							<linkclipref>clipitem-1182</linkclipref>
							<mediatype>audio</mediatype>
							<trackindex>1</trackindex>
							<clipindex>147</clipindex>
							<groupindex>1</groupindex>
						</link>
					</clipitem>
					<clipitem id="clipitem-148">
						<masterclipid>masterclip-2</masterclipid>
						<name>chandrika rocket equations</name>
						<start>14192</start>
						<end>14539</end>
						<in>18446</in>
						<out>18793</out>
						<file id="file-1" />
						<link>
							<linkclipref>clipitem-148</linkclipref>
							<mediatype>video</mediatype>
							<trackindex>1</trackindex>
							<clipindex>148</clipindex>
						</link>
						<link>
							<linkclipref>clipitem-1183</linkclipref>
							<mediatype>audio</mediatype>
							<trackindex>1</trackindex>
							<clipindex>148</clipindex>
							<groupindex>1</groupindex>
						</link>
					</clipitem>
					<clipitem id="clipitem-149">
						<masterclipid>masterclip-2</masterclipid>
						<name>chandrika rocket equations</name>
						<start>14539</start>
						<end>14593</end>
						<in>18797</in>
						<out>18851</out>
						<file id="file-1" />
						<link>
							<linkclipref>clipitem-149</linkclipref>
							<mediatype>video</mediatype>
							<trackindex>1</trackindex>
							<clipindex>149</clipindex>
						</link>
						<link>
							<linkclipref>clipitem-1184</linkclipref>
							<mediatype>audio</mediatype>
							<trackindex>1</trackindex>
							<clipindex>149</clipindex>
							<groupindex>1</groupindex>
						</link>
					</clipitem>
					<clipitem id="clipitem-150">
						<masterclipid>masterclip-2</masterclipid>
						<name>chandrika rocket equations</name>
						<start>14593</start>
						<end>14776</end>
						<in>18884</in>
						<out>19067</out>
						<file id="file-1" />
						<link>
							<linkclipref>clipitem-150</linkclipref>
							<mediatype>video</mediatype>
							<trackindex>1</trackindex>
							<clipindex>150</clipindex>
						</link>
						<link>
							<linkclipref>clipitem-1185</linkclipref>
							<mediatype>audio</mediatype>
							<trackindex>1</trackindex>
							<clipindex>150</clipindex>
							<groupindex>1</groupindex>
						</link>
					</clipitem>
					<clipitem id="clipitem-151">
						<masterclipid>masterclip-2</masterclipid>
						<name>chandrika rocket equations</name>
						<start>14776</start>
						<end>15037</end>
						<in>19092</in>
						<out>19353</out>
						<file id="file-1" />
						<link>
							<linkclipref>clipitem-151</linkclipref>
							<mediatype>video</mediatype>
							<trackindex>1</trackindex>
							<clipindex>151</clipindex>
						</link>
						<link>
							<linkclipref>clipitem-1186</linkclipref>
							<mediatype>audio</mediatype>
							<trackindex>1</trackindex>
							<clipindex>151</clipindex>
							<groupindex>1</groupindex>
						</link>
					</clipitem>
					<clipitem id="clipitem-152">
						<masterclipid>masterclip-2</masterclipid>
						<name>chandrika rocket equations</name>
						<start>15037</start>
						<end>15163</end>
						<in>19394</in>
						<out>19520</out>
						<file id="file-1" />
						<link>
							<linkclipref>clipitem-152</linkclipref>
							<mediatype>video</mediatype>
							<trackindex>1</trackindex>
							<clipindex>152</clipindex>
						</link>
						<link>
							<linkclipref>clipitem-1187</linkclipref>
							<mediatype>audio</mediatype>
							<trackindex>1</trackindex>
							<clipindex>152</clipindex>
							<groupindex>1</groupindex>
						</link>
					</clipitem>
					<clipitem id="clipitem-153">
						<masterclipid>masterclip-2</masterclipid>
						<name>chandrika rocket equations</name>
						<start>15163</start>
						<end>15323</end>
						<in>19532</in>
						<out>19692</out>
						<file id="file-1" />
						<link>
							<linkclipref>clipitem-153</linkclipref>
							<mediatype>video</mediatype>
							<trackindex>1</trackindex>
							<clipindex>153</clipindex>
						</link>
						<link>
							<linkclipref>clipitem-1188</linkclipref>
							<mediatype>audio</mediatype>
							<trackindex>1</trackindex>
							<clipindex>153</clipindex>
							<groupindex>1</groupindex>
						</link>
					</clipitem>
					<clipitem id="clipitem-154">
						<masterclipid>masterclip-2</masterclipid>
						<name>chandrika rocket equations</name>
						<start>15323</start>
						<end>15440</end>
						<in>19718</in>
						<out>19835</out>
						<file id="file-1" />
						<link>
							<linkclipref>clipitem-154</linkclipref>
							<mediatype>video</mediatype>
							<trackindex>1</trackindex>
							<clipindex>154</clipindex>
						</link>
						<link>
							<linkclipref>clipitem-1189</linkclipref>
							<mediatype>audio</mediatype>
							<trackindex>1</trackindex>
							<clipindex>154</clipindex>
							<groupindex>1</groupindex>
						</link>
					</clipitem>
					<clipitem id="clipitem-155">
						<masterclipid>masterclip-2</masterclipid>
						<name>chandrika rocket equations</name>
						<start>15440</start>
						<end>15523</end>
						<in>19865</in>
						<out>19948</out>
						<file id="file-1" />
						<link>
							<linkclipref>clipitem-155</linkclipref>
							<mediatype>video</mediatype>
							<trackindex>1</trackindex>
							<clipindex>155</clipindex>
						</link>
						<link>
							<linkclipref>clipitem-1190</linkclipref>
							<mediatype>audio</mediatype>
							<trackindex>1</trackindex>
							<clipindex>155</clipindex>
							<groupindex>1</groupindex>
						</link>
					</clipitem>
					<clipitem id="clipitem-156">
						<masterclipid>masterclip-2</masterclipid>
						<name>chandrika rocket equations</name>
						<start>15523</start>
						<end>15544</end>
						<in>19983</in>
						<out>20004</out>
						<file id="file-1" />
						<link>
							<linkclipref>clipitem-156</linkclipref>
							<mediatype>video</mediatype>
							<trackindex>1</trackindex>
							<clipindex>156</clipindex>
						</link>
						<link>
							<linkclipref>clipitem-1191</linkclipref>
							<mediatype>audio</mediatype>
							<trackindex>1</trackindex>
							<clipindex>156</clipindex>
							<groupindex>1</groupindex>
						</link>
					</clipitem>
					<clipitem id="clipitem-157">
						<masterclipid>masterclip-2</masterclipid>
						<name>chandrika rocket equations</name>
						<start>15544</start>
						<end>15617</end>
						<in>20075</in>
						<out>20148</out>
						<file id="file-1" />
						<link>
							<linkclipref>clipitem-157</linkclipref>
							<mediatype>video</mediatype>
							<trackindex>1</trackindex>
							<clipindex>157</clipindex>
						</link>
						<link>
							<linkclipref>clipitem-1192</linkclipref>
							<mediatype>audio</mediatype>
							<trackindex>1</trackindex>
							<clipindex>157</clipindex>
							<groupindex>1</groupindex>
						</link>
					</clipitem>
					<clipitem id="clipitem-158">
						<masterclipid>masterclip-2</masterclipid>
						<name>chandrika rocket equations</name>
						<start>15617</start>
						<end>15632</end>
						<in>20183</in>
						<out>20198</out>
						<file id="file-1" />
						<link>
							<linkclipref>clipitem-158</linkclipref>
							<mediatype>video</mediatype>
							<trackindex>1</trackindex>
							<clipindex>158</clipindex>
						</link>
						<link>
							<linkclipref>clipitem-1193</linkclipref>
							<mediatype>audio</mediatype>
							<trackindex>1</trackindex>
							<clipindex>158</clipindex>
							<groupindex>1</groupindex>
						</link>
					</clipitem>
					<clipitem id="clipitem-159">
						<masterclipid>masterclip-2</masterclipid>
						<name>chandrika rocket equations</name>
						<start>15632</start>
						<end>15670</end>
						<in>20294</in>
						<out>20332</out>
						<file id="file-1" />
						<link>
							<linkclipref>clipitem-159</linkclipref>
							<mediatype>video</mediatype>
							<trackindex>1</trackindex>
							<clipindex>159</clipindex>
						</link>
						<link>
							<linkclipref>clipitem-1194</linkclipref>
							<mediatype>audio</mediatype>
							<trackindex>1</trackindex>
							<clipindex>159</clipindex>
							<groupindex>1</groupindex>
						</link>
					</clipitem>
					<clipitem id="clipitem-160">
						<masterclipid>masterclip-2</masterclipid>
						<name>chandrika rocket equations</name>
						<start>15670</start>
						<end>15723</end>
						<in>20357</in>
						<out>20410</out>
						<file id="file-1" />
						<link>
							<linkclipref>clipitem-160</linkclipref>
							<mediatype>video</mediatype>
							<trackindex>1</trackindex>
							<clipindex>160</clipindex>
						</link>
						<link>
							<linkclipref>clipitem-1195</linkclipref>
							<mediatype>audio</mediatype>
							<trackindex>1</trackindex>
							<clipindex>160</clipindex>
							<groupindex>1</groupindex>
						</link>
					</clipitem>
					<clipitem id="clipitem-161">
						<masterclipid>masterclip-2</masterclipid>
						<name>chandrika rocket equations</name>
						<start>15723</start>
						<end>15763</end>
						<in>20443</in>
						<out>20483</out>
						<file id="file-1" />
						<link>
							<linkclipref>clipitem-161</linkclipref>
							<mediatype>video</mediatype>
							<trackindex>1</trackindex>
							<clipindex>161</clipindex>
						</link>
						<link>
							<linkclipref>clipitem-1196</linkclipref>
							<mediatype>audio</mediatype>
							<trackindex>1</trackindex>
							<clipindex>161</clipindex>
							<groupindex>1</groupindex>
						</link>
					</clipitem>
					<clipitem id="clipitem-162">
						<masterclipid>masterclip-2</masterclipid>
						<name>chandrika rocket equations</name>
						<start>15763</start>
						<end>15794</end>
						<in>20489</in>
						<out>20520</out>
						<file id="file-1" />
						<link>
							<linkclipref>clipitem-162</linkclipref>
							<mediatype>video</mediatype>
							<trackindex>1</trackindex>
							<clipindex>162</clipindex>
						</link>
						<link>
							<linkclipref>clipitem-1197</linkclipref>
							<mediatype>audio</mediatype>
							<trackindex>1</trackindex>
							<clipindex>162</clipindex>
							<groupindex>1</groupindex>
						</link>
					</clipitem>
					<clipitem id="clipitem-163">
						<masterclipid>masterclip-2</masterclipid>
						<name>chandrika rocket equations</name>
						<start>15794</start>
						<end>15810</end>
						<in>20525</in>
						<out>20541</out>
						<file id="file-1" />
						<link>
							<linkclipref>clipitem-163</linkclipref>
							<mediatype>video</mediatype>
							<trackindex>1</trackindex>
							<clipindex>163</clipindex>
						</link>
						<link>
							<linkclipref>clipitem-1198</linkclipref>
							<mediatype>audio</mediatype>
							<trackindex>1</trackindex>
							<clipindex>163</clipindex>
							<groupindex>1</groupindex>
						</link>
					</clipitem>
					<clipitem id="clipitem-164">
						<masterclipid>masterclip-2</masterclipid>
						<name>chandrika rocket equations</name>
						<start>15810</start>
						<end>15936</end>
						<in>20574</in>
						<out>20700</out>
						<file id="file-1" />
						<link>
							<linkclipref>clipitem-164</linkclipref>
							<mediatype>video</mediatype>
							<trackindex>1</trackindex>
							<clipindex>164</clipindex>
						</link>
						<link>
							<linkclipref>clipitem-1199</linkclipref>
							<mediatype>audio</mediatype>
							<trackindex>1</trackindex>
							<clipindex>164</clipindex>
							<groupindex>1</groupindex>
						</link>
					</clipitem>
					<clipitem id="clipitem-165">
						<masterclipid>masterclip-2</masterclipid>
						<name>chandrika rocket equations</name>
						<start>15936</start>
						<end>15970</end>
						<in>20738</in>
						<out>20772</out>
						<file id="file-1" />
						<link>
							<linkclipref>clipitem-165</linkclipref>
							<mediatype>video</mediatype>
							<trackindex>1</trackindex>
							<clipindex>165</clipindex>
						</link>
						<link>
							<linkclipref>clipitem-1200</linkclipref>
							<mediatype>audio</mediatype>
							<trackindex>1</trackindex>
							<clipindex>165</clipindex>
							<groupindex>1</groupindex>
						</link>
					</clipitem>
					<clipitem id="clipitem-166">
						<masterclipid>masterclip-2</masterclipid>
						<name>chandrika rocket equations</name>
						<start>15970</start>
						<end>16014</end>
						<in>20944</in>
						<out>20988</out>
						<file id="file-1" />
						<link>
							<linkclipref>clipitem-166</linkclipref>
							<mediatype>video</mediatype>
							<trackindex>1</trackindex>
							<clipindex>166</clipindex>
						</link>
						<link>
							<linkclipref>clipitem-1201</linkclipref>
							<mediatype>audio</mediatype>
							<trackindex>1</trackindex>
							<clipindex>166</clipindex>
							<groupindex>1</groupindex>
						</link>
					</clipitem>
					<clipitem id="clipitem-167">
						<masterclipid>masterclip-2</masterclipid>
						<name>chandrika rocket equations</name>
						<start>16014</start>
						<end>16070</end>
						<in>21375</in>
						<out>21431</out>
						<file id="file-1" />
						<link>
							<linkclipref>clipitem-167</linkclipref>
							<mediatype>video</mediatype>
							<trackindex>1</trackindex>
							<clipindex>167</clipindex>
						</link>
						<link>
							<linkclipref>clipitem-1202</linkclipref>
							<mediatype>audio</mediatype>
							<trackindex>1</trackindex>
							<clipindex>167</clipindex>
							<groupindex>1</groupindex>
						</link>
					</clipitem>
					<clipitem id="clipitem-168">
						<masterclipid>masterclip-2</masterclipid>
						<name>chandrika rocket equations</name>
						<start>16070</start>
						<end>16118</end>
						<in>21522</in>
						<out>21570</out>
						<file id="file-1" />
						<link>
							<linkclipref>clipitem-168</linkclipref>
							<mediatype>video</mediatype>
							<trackindex>1</trackindex>
							<clipindex>168</clipindex>
						</link>
						<link>
							<linkclipref>clipitem-1203</linkclipref>
							<mediatype>audio</mediatype>
							<trackindex>1</trackindex>
							<clipindex>168</clipindex>
							<groupindex>1</groupindex>
						</link>
					</clipitem>
					<clipitem id="clipitem-169">
						<masterclipid>masterclip-2</masterclipid>
						<name>chandrika rocket equations</name>
						<start>16118</start>
						<end>16223</end>
						<in>21626</in>
						<out>21731</out>
						<file id="file-1" />
						<link>
							<linkclipref>clipitem-169</linkclipref>
							<mediatype>video</mediatype>
							<trackindex>1</trackindex>
							<clipindex>169</clipindex>
						</link>
						<link>
							<linkclipref>clipitem-1204</linkclipref>
							<mediatype>audio</mediatype>
							<trackindex>1</trackindex>
							<clipindex>169</clipindex>
							<groupindex>1</groupindex>
						</link>
					</clipitem>
					<clipitem id="clipitem-170">
						<masterclipid>masterclip-2</masterclipid>
						<name>chandrika rocket equations</name>
						<start>16223</start>
						<end>16282</end>
						<in>21825</in>
						<out>21884</out>
						<file id="file-1" />
						<link>
							<linkclipref>clipitem-170</linkclipref>
							<mediatype>video</mediatype>
							<trackindex>1</trackindex>
							<clipindex>170</clipindex>
						</link>
						<link>
							<linkclipref>clipitem-1205</linkclipref>
							<mediatype>audio</mediatype>
							<trackindex>1</trackindex>
							<clipindex>170</clipindex>
							<groupindex>1</groupindex>
						</link>
					</clipitem>
					<clipitem id="clipitem-171">
						<masterclipid>masterclip-2</masterclipid>
						<name>chandrika rocket equations</name>
						<start>16282</start>
						<end>16389</end>
						<in>22014</in>
						<out>22121</out>
						<file id="file-1" />
						<link>
							<linkclipref>clipitem-171</linkclipref>
							<mediatype>video</mediatype>
							<trackindex>1</trackindex>
							<clipindex>171</clipindex>
						</link>
						<link>
							<linkclipref>clipitem-1206</linkclipref>
							<mediatype>audio</mediatype>
							<trackindex>1</trackindex>
							<clipindex>171</clipindex>
							<groupindex>1</groupindex>
						</link>
					</clipitem>
					<clipitem id="clipitem-172">
						<masterclipid>masterclip-2</masterclipid>
						<name>chandrika rocket equations</name>
						<start>16389</start>
						<end>16423</end>
						<in>22251</in>
						<out>22285</out>
						<file id="file-1" />
						<link>
							<linkclipref>clipitem-172</linkclipref>
							<mediatype>video</mediatype>
							<trackindex>1</trackindex>
							<clipindex>172</clipindex>
						</link>
						<link>
							<linkclipref>clipitem-1207</linkclipref>
							<mediatype>audio</mediatype>
							<trackindex>1</trackindex>
							<clipindex>172</clipindex>
							<groupindex>1</groupindex>
						</link>
					</clipitem>
					<clipitem id="clipitem-173">
						<masterclipid>masterclip-2</masterclipid>
						<name>chandrika rocket equations</name>
						<start>16423</start>
						<end>16527</end>
						<in>22362</in>
						<out>22466</out>
						<file id="file-1" />
						<link>
							<linkclipref>clipitem-173</linkclipref>
							<mediatype>video</mediatype>
							<trackindex>1</trackindex>
							<clipindex>173</clipindex>
						</link>
						<link>
							<linkclipref>clipitem-1208</linkclipref>
							<mediatype>audio</mediatype>
							<trackindex>1</trackindex>
							<clipindex>173</clipindex>
							<groupindex>1</groupindex>
						</link>
					</clipitem>
					<clipitem id="clipitem-174">
						<masterclipid>masterclip-2</masterclipid>
						<name>chandrika rocket equations</name>
						<start>16527</start>
						<end>16567</end>
						<in>22705</in>
						<out>22745</out>
						<file id="file-1" />
						<link>
							<linkclipref>clipitem-174</linkclipref>
							<mediatype>video</mediatype>
							<trackindex>1</trackindex>
							<clipindex>174</clipindex>
						</link>
						<link>
							<linkclipref>clipitem-1209</linkclipref>
							<mediatype>audio</mediatype>
							<trackindex>1</trackindex>
							<clipindex>174</clipindex>
							<groupindex>1</groupindex>
						</link>
					</clipitem>
					<clipitem id="clipitem-175">
						<masterclipid>masterclip-2</masterclipid>
						<name>chandrika rocket equations</name>
						<start>16567</start>
						<end>16633</end>
						<in>22785</in>
						<out>22851</out>
						<file id="file-1" />
						<link>
							<linkclipref>clipitem-175</linkclipref>
							<mediatype>video</mediatype>
							<trackindex>1</trackindex>
							<clipindex>175</clipindex>
						</link>
						<link>
							<linkclipref>clipitem-1210</linkclipref>
							<mediatype>audio</mediatype>
							<trackindex>1</trackindex>
							<clipindex>175</clipindex>
							<groupindex>1</groupindex>
						</link>
					</clipitem>
					<clipitem id="clipitem-176">
						<masterclipid>masterclip-2</masterclipid>
						<name>chandrika rocket equations</name>
						<start>16633</start>
						<end>16660</end>
						<in>22926</in>
						<out>22953</out>
						<file id="file-1" />
						<link>
							<linkclipref>clipitem-176</linkclipref>
							<mediatype>video</mediatype>
							<trackindex>1</trackindex>
							<clipindex>176</clipindex>
						</link>
						<link>
							<linkclipref>clipitem-1211</linkclipref>
							<mediatype>audio</mediatype>
							<trackindex>1</trackindex>
							<clipindex>176</clipindex>
							<groupindex>1</groupindex>
						</link>
					</clipitem>
					<clipitem id="clipitem-177">
						<masterclipid>masterclip-2</masterclipid>
						<name>chandrika rocket equations</name>
						<start>16660</start>
						<end>16717</end>
						<in>23051</in>
						<out>23108</out>
						<file id="file-1" />
						<link>
							<linkclipref>clipitem-177</linkclipref>
							<mediatype>video</mediatype>
							<trackindex>1</trackindex>
							<clipindex>177</clipindex>
						</link>
						<link>
							<linkclipref>clipitem-1212</linkclipref>
							<mediatype>audio</mediatype>
							<trackindex>1</trackindex>
							<clipindex>177</clipindex>
							<groupindex>1</groupindex>
						</link>
					</clipitem>
					<clipitem id="clipitem-178">
						<masterclipid>masterclip-2</masterclipid>
						<name>chandrika rocket equations</name>
						<start>16717</start>
						<end>16877</end>
						<in>23158</in>
						<out>23318</out>
						<file id="file-1" />
						<link>
							<linkclipref>clipitem-178</linkclipref>
							<mediatype>video</mediatype>
							<trackindex>1</trackindex>
							<clipindex>178</clipindex>
						</link>
						<link>
							<linkclipref>clipitem-1213</linkclipref>
							<mediatype>audio</mediatype>
							<trackindex>1</trackindex>
							<clipindex>178</clipindex>
							<groupindex>1</groupindex>
						</link>
					</clipitem>
					<clipitem id="clipitem-179">
						<masterclipid>masterclip-2</masterclipid>
						<name>chandrika rocket equations</name>
						<start>16877</start>
						<end>16893</end>
						<in>23321</in>
						<out>23337</out>
						<file id="file-1" />
						<link>
							<linkclipref>clipitem-179</linkclipref>
							<mediatype>video</mediatype>
							<trackindex>1</trackindex>
							<clipindex>179</clipindex>
						</link>
						<link>
							<linkclipref>clipitem-1214</linkclipref>
							<mediatype>audio</mediatype>
							<trackindex>1</trackindex>
							<clipindex>179</clipindex>
							<groupindex>1</groupindex>
						</link>
					</clipitem>
					<clipitem id="clipitem-180">
						<masterclipid>masterclip-2</masterclipid>
						<name>chandrika rocket equations</name>
						<start>16893</start>
						<end>16969</end>
						<in>23410</in>
						<out>23486</out>
						<file id="file-1" />
						<link>
							<linkclipref>clipitem-180</linkclipref>
							<mediatype>video</mediatype>
							<trackindex>1</trackindex>
							<clipindex>180</clipindex>
						</link>
						<link>
							<linkclipref>clipitem-1215</linkclipref>
							<mediatype>audio</mediatype>
							<trackindex>1</trackindex>
							<clipindex>180</clipindex>
							<groupindex>1</groupindex>
						</link>
					</clipitem>
					<clipitem id="clipitem-181">
						<masterclipid>masterclip-2</masterclipid>
						<name>chandrika rocket equations</name>
						<start>16969</start>
						<end>17015</end>
						<in>23519</in>
						<out>23565</out>
						<file id="file-1" />
						<link>
							<linkclipref>clipitem-181</linkclipref>
							<mediatype>video</mediatype>
							<trackindex>1</trackindex>
							<clipindex>181</clipindex>
						</link>
						<link>
							<linkclipref>clipitem-1216</linkclipref>
							<mediatype>audio</mediatype>
							<trackindex>1</trackindex>
							<clipindex>181</clipindex>
							<groupindex>1</groupindex>
						</link>
					</clipitem>
					<clipitem id="clipitem-182">
						<masterclipid>masterclip-2</masterclipid>
						<name>chandrika rocket equations</name>
						<start>17015</start>
						<end>17107</end>
						<in>23587</in>
						<out>23679</out>
						<file id="file-1" />
						<link>
							<linkclipref>clipitem-182</linkclipref>
							<mediatype>video</mediatype>
							<trackindex>1</trackindex>
							<clipindex>182</clipindex>
						</link>
						<link>
							<linkclipref>clipitem-1217</linkclipref>
							<mediatype>audio</mediatype>
							<trackindex>1</trackindex>
							<clipindex>182</clipindex>
							<groupindex>1</groupindex>
						</link>
					</clipitem>
					<clipitem id="clipitem-183">
						<masterclipid>masterclip-2</masterclipid>
						<name>chandrika rocket equations</name>
						<start>17107</start>
						<end>17179</end>
						<in>23721</in>
						<out>23793</out>
						<file id="file-1" />
						<link>
							<linkclipref>clipitem-183</linkclipref>
							<mediatype>video</mediatype>
							<trackindex>1</trackindex>
							<clipindex>183</clipindex>
						</link>
						<link>
							<linkclipref>clipitem-1218</linkclipref>
							<mediatype>audio</mediatype>
							<trackindex>1</trackindex>
							<clipindex>183</clipindex>
							<groupindex>1</groupindex>
						</link>
					</clipitem>
					<clipitem id="clipitem-184">
						<masterclipid>masterclip-2</masterclipid>
						<name>chandrika rocket equations</name>
						<start>17179</start>
						<end>17199</end>
						<in>23853</in>
						<out>23873</out>
						<file id="file-1" />
						<link>
							<linkclipref>clipitem-184</linkclipref>
							<mediatype>video</mediatype>
							<trackindex>1</trackindex>
							<clipindex>184</clipindex>
						</link>
						<link>
							<linkclipref>clipitem-1219</linkclipref>
							<mediatype>audio</mediatype>
							<trackindex>1</trackindex>
							<clipindex>184</clipindex>
							<groupindex>1</groupindex>
						</link>
					</clipitem>
					<clipitem id="clipitem-185">
						<masterclipid>masterclip-2</masterclipid>
						<name>chandrika rocket equations</name>
						<start>17199</start>
						<end>17245</end>
						<in>23955</in>
						<out>24001</out>
						<file id="file-1" />
						<link>
							<linkclipref>clipitem-185</linkclipref>
							<mediatype>video</mediatype>
							<trackindex>1</trackindex>
							<clipindex>185</clipindex>
						</link>
						<link>
							<linkclipref>clipitem-1220</linkclipref>
							<mediatype>audio</mediatype>
							<trackindex>1</trackindex>
							<clipindex>185</clipindex>
							<groupindex>1</groupindex>
						</link>
					</clipitem>
					<clipitem id="clipitem-186">
						<masterclipid>masterclip-2</masterclipid>
						<name>chandrika rocket equations</name>
						<start>17245</start>
						<end>17344</end>
						<in>24320</in>
						<out>24419</out>
						<file id="file-1" />
						<link>
							<linkclipref>clipitem-186</linkclipref>
							<mediatype>video</mediatype>
							<trackindex>1</trackindex>
							<clipindex>186</clipindex>
						</link>
						<link>
							<linkclipref>clipitem-1221</linkclipref>
							<mediatype>audio</mediatype>
							<trackindex>1</trackindex>
							<clipindex>186</clipindex>
							<groupindex>1</groupindex>
						</link>
					</clipitem>
					<clipitem id="clipitem-187">
						<masterclipid>masterclip-2</masterclipid>
						<name>chandrika rocket equations</name>
						<start>17344</start>
						<end>17392</end>
						<in>24472</in>
						<out>24520</out>
						<file id="file-1" />
						<link>
							<linkclipref>clipitem-187</linkclipref>
							<mediatype>video</mediatype>
							<trackindex>1</trackindex>
							<clipindex>187</clipindex>
						</link>
						<link>
							<linkclipref>clipitem-1222</linkclipref>
							<mediatype>audio</mediatype>
							<trackindex>1</trackindex>
							<clipindex>187</clipindex>
							<groupindex>1</groupindex>
						</link>
					</clipitem>
					<clipitem id="clipitem-188">
						<masterclipid>masterclip-2</masterclipid>
						<name>chandrika rocket equations</name>
						<start>17392</start>
						<end>17447</end>
						<in>24689</in>
						<out>24744</out>
						<file id="file-1" />
						<link>
							<linkclipref>clipitem-188</linkclipref>
							<mediatype>video</mediatype>
							<trackindex>1</trackindex>
							<clipindex>188</clipindex>
						</link>
						<link>
							<linkclipref>clipitem-1223</linkclipref>
							<mediatype>audio</mediatype>
							<trackindex>1</trackindex>
							<clipindex>188</clipindex>
							<groupindex>1</groupindex>
						</link>
					</clipitem>
					<clipitem id="clipitem-189">
						<masterclipid>masterclip-2</masterclipid>
						<name>chandrika rocket equations</name>
						<start>17447</start>
						<end>17501</end>
						<in>24954</in>
						<out>25008</out>
						<file id="file-1" />
						<link>
							<linkclipref>clipitem-189</linkclipref>
							<mediatype>video</mediatype>
							<trackindex>1</trackindex>
							<clipindex>189</clipindex>
						</link>
						<link>
							<linkclipref>clipitem-1224</linkclipref>
							<mediatype>audio</mediatype>
							<trackindex>1</trackindex>
							<clipindex>189</clipindex>
							<groupindex>1</groupindex>
						</link>
					</clipitem>
					<clipitem id="clipitem-190">
						<masterclipid>masterclip-2</masterclipid>
						<name>chandrika rocket equations</name>
						<start>17501</start>
						<end>17555</end>
						<in>25096</in>
						<out>25150</out>
						<file id="file-1" />
						<link>
							<linkclipref>clipitem-190</linkclipref>
							<mediatype>video</mediatype>
							<trackindex>1</trackindex>
							<clipindex>190</clipindex>
						</link>
						<link>
							<linkclipref>clipitem-1225</linkclipref>
							<mediatype>audio</mediatype>
							<trackindex>1</trackindex>
							<clipindex>190</clipindex>
							<groupindex>1</groupindex>
						</link>
					</clipitem>
					<clipitem id="clipitem-191">
						<masterclipid>masterclip-2</masterclipid>
						<name>chandrika rocket equations</name>
						<start>17555</start>
						<end>17605</end>
						<in>25497</in>
						<out>25547</out>
						<file id="file-1" />
						<link>
							<linkclipref>clipitem-191</linkclipref>
							<mediatype>video</mediatype>
							<trackindex>1</trackindex>
							<clipindex>191</clipindex>
						</link>
						<link>
							<linkclipref>clipitem-1226</linkclipref>
							<mediatype>audio</mediatype>
							<trackindex>1</trackindex>
							<clipindex>191</clipindex>
							<groupindex>1</groupindex>
						</link>
					</clipitem>
					<clipitem id="clipitem-192">
						<masterclipid>masterclip-2</masterclipid>
						<name>chandrika rocket equations</name>
						<start>17605</start>
						<end>17622</end>
						<in>25711</in>
						<out>25728</out>
						<file id="file-1" />
						<link>
							<linkclipref>clipitem-192</linkclipref>
							<mediatype>video</mediatype>
							<trackindex>1</trackindex>
							<clipindex>192</clipindex>
						</link>
						<link>
							<linkclipref>clipitem-1227</linkclipref>
							<mediatype>audio</mediatype>
							<trackindex>1</trackindex>
							<clipindex>192</clipindex>
							<groupindex>1</groupindex>
						</link>
					</clipitem>
					<clipitem id="clipitem-193">
						<masterclipid>masterclip-2</masterclipid>
						<name>chandrika rocket equations</name>
						<start>17622</start>
						<end>17637</end>
						<in>25735</in>
						<out>25750</out>
						<file id="file-1" />
						<link>
							<linkclipref>clipitem-193</linkclipref>
							<mediatype>video</mediatype>
							<trackindex>1</trackindex>
							<clipindex>193</clipindex>
						</link>
						<link>
							<linkclipref>clipitem-1228</linkclipref>
							<mediatype>audio</mediatype>
							<trackindex>1</trackindex>
							<clipindex>193</clipindex>
							<groupindex>1</groupindex>
						</link>
					</clipitem>
					<clipitem id="clipitem-194">
						<masterclipid>masterclip-2</masterclipid>
						<name>chandrika rocket equations</name>
						<start>17637</start>
						<end>17717</end>
						<in>25801</in>
						<out>25881</out>
						<file id="file-1" />
						<link>
							<linkclipref>clipitem-194</linkclipref>
							<mediatype>video</mediatype>
							<trackindex>1</trackindex>
							<clipindex>194</clipindex>
						</link>
						<link>
							<linkclipref>clipitem-1229</linkclipref>
							<mediatype>audio</mediatype>
							<trackindex>1</trackindex>
							<clipindex>194</clipindex>
							<groupindex>1</groupindex>
						</link>
					</clipitem>
					<clipitem id="clipitem-195">
						<masterclipid>masterclip-2</masterclipid>
						<name>chandrika rocket equations</name>
						<start>17717</start>
						<end>17756</end>
						<in>25887</in>
						<out>25926</out>
						<file id="file-1" />
						<link>
							<linkclipref>clipitem-195</linkclipref>
							<mediatype>video</mediatype>
							<trackindex>1</trackindex>
							<clipindex>195</clipindex>
						</link>
						<link>
							<linkclipref>clipitem-1230</linkclipref>
							<mediatype>audio</mediatype>
							<trackindex>1</trackindex>
							<clipindex>195</clipindex>
							<groupindex>1</groupindex>
						</link>
					</clipitem>
					<clipitem id="clipitem-196">
						<masterclipid>masterclip-2</masterclipid>
						<name>chandrika rocket equations</name>
						<start>17756</start>
						<end>17805</end>
						<in>26347</in>
						<out>26396</out>
						<file id="file-1" />
						<link>
							<linkclipref>clipitem-196</linkclipref>
							<mediatype>video</mediatype>
							<trackindex>1</trackindex>
							<clipindex>196</clipindex>
						</link>
						<link>
							<linkclipref>clipitem-1231</linkclipref>
							<mediatype>audio</mediatype>
							<trackindex>1</trackindex>
							<clipindex>196</clipindex>
							<groupindex>1</groupindex>
						</link>
					</clipitem>
					<clipitem id="clipitem-197">
						<masterclipid>masterclip-2</masterclipid>
						<name>chandrika rocket equations</name>
						<start>17805</start>
						<end>17881</end>
						<in>26399</in>
						<out>26475</out>
						<file id="file-1" />
						<link>
							<linkclipref>clipitem-197</linkclipref>
							<mediatype>video</mediatype>
							<trackindex>1</trackindex>
							<clipindex>197</clipindex>
						</link>
						<link>
							<linkclipref>clipitem-1232</linkclipref>
							<mediatype>audio</mediatype>
							<trackindex>1</trackindex>
							<clipindex>197</clipindex>
							<groupindex>1</groupindex>
						</link>
					</clipitem>
					<clipitem id="clipitem-198">
						<masterclipid>masterclip-2</masterclipid>
						<name>chandrika rocket equations</name>
						<start>17881</start>
						<end>17903</end>
						<in>26504</in>
						<out>26526</out>
						<file id="file-1" />
						<link>
							<linkclipref>clipitem-198</linkclipref>
							<mediatype>video</mediatype>
							<trackindex>1</trackindex>
							<clipindex>198</clipindex>
						</link>
						<link>
							<linkclipref>clipitem-1233</linkclipref>
							<mediatype>audio</mediatype>
							<trackindex>1</trackindex>
							<clipindex>198</clipindex>
							<groupindex>1</groupindex>
						</link>
					</clipitem>
					<clipitem id="clipitem-199">
						<masterclipid>masterclip-2</masterclipid>
						<name>chandrika rocket equations</name>
						<start>17903</start>
						<end>17924</end>
						<in>26549</in>
						<out>26570</out>
						<file id="file-1" />
						<link>
							<linkclipref>clipitem-199</linkclipref>
							<mediatype>video</mediatype>
							<trackindex>1</trackindex>
							<clipindex>199</clipindex>
						</link>
						<link>
							<linkclipref>clipitem-1234</linkclipref>
							<mediatype>audio</mediatype>
							<trackindex>1</trackindex>
							<clipindex>199</clipindex>
							<groupindex>1</groupindex>
						</link>
					</clipitem>
					<clipitem id="clipitem-200">
						<masterclipid>masterclip-2</masterclipid>
						<name>chandrika rocket equations</name>
						<start>17924</start>
						<end>17992</end>
						<in>26597</in>
						<out>26665</out>
						<file id="file-1" />
						<link>
							<linkclipref>clipitem-200</linkclipref>
							<mediatype>video</mediatype>
							<trackindex>1</trackindex>
							<clipindex>200</clipindex>
						</link>
						<link>
							<linkclipref>clipitem-1235</linkclipref>
							<mediatype>audio</mediatype>
							<trackindex>1</trackindex>
							<clipindex>200</clipindex>
							<groupindex>1</groupindex>
						</link>
					</clipitem>
					<clipitem id="clipitem-201">
						<masterclipid>masterclip-2</masterclipid>
						<name>chandrika rocket equations</name>
						<start>17992</start>
						<end>18167</end>
						<in>26686</in>
						<out>26861</out>
						<file id="file-1" />
						<link>
							<linkclipref>clipitem-201</linkclipref>
							<mediatype>video</mediatype>
							<trackindex>1</trackindex>
							<clipindex>201</clipindex>
						</link>
						<link>
							<linkclipref>clipitem-1236</linkclipref>
							<mediatype>audio</mediatype>
							<trackindex>1</trackindex>
							<clipindex>201</clipindex>
							<groupindex>1</groupindex>
						</link>
					</clipitem>
					<clipitem id="clipitem-202">
						<masterclipid>masterclip-2</masterclipid>
						<name>chandrika rocket equations</name>
						<start>18167</start>
						<end>18207</end>
						<in>26868</in>
						<out>26908</out>
						<file id="file-1" />
						<link>
							<linkclipref>clipitem-202</linkclipref>
							<mediatype>video</mediatype>
							<trackindex>1</trackindex>
							<clipindex>202</clipindex>
						</link>
						<link>
							<linkclipref>clipitem-1237</linkclipref>
							<mediatype>audio</mediatype>
							<trackindex>1</trackindex>
							<clipindex>202</clipindex>
							<groupindex>1</groupindex>
						</link>
					</clipitem>
					<clipitem id="clipitem-203">
						<masterclipid>masterclip-2</masterclipid>
						<name>chandrika rocket equations</name>
						<start>18207</start>
						<end>18292</end>
						<in>26921</in>
						<out>27006</out>
						<file id="file-1" />
						<link>
							<linkclipref>clipitem-203</linkclipref>
							<mediatype>video</mediatype>
							<trackindex>1</trackindex>
							<clipindex>203</clipindex>
						</link>
						<link>
							<linkclipref>clipitem-1238</linkclipref>
							<mediatype>audio</mediatype>
							<trackindex>1</trackindex>
							<clipindex>203</clipindex>
							<groupindex>1</groupindex>
						</link>
					</clipitem>
					<clipitem id="clipitem-204">
						<masterclipid>masterclip-2</masterclipid>
						<name>chandrika rocket equations</name>
						<start>18292</start>
						<end>18333</end>
						<in>27018</in>
						<out>27059</out>
						<file id="file-1" />
						<link>
							<linkclipref>clipitem-204</linkclipref>
							<mediatype>video</mediatype>
							<trackindex>1</trackindex>
							<clipindex>204</clipindex>
						</link>
						<link>
							<linkclipref>clipitem-1239</linkclipref>
							<mediatype>audio</mediatype>
							<trackindex>1</trackindex>
							<clipindex>204</clipindex>
							<groupindex>1</groupindex>
						</link>
					</clipitem>
					<clipitem id="clipitem-205">
						<masterclipid>masterclip-2</masterclipid>
						<name>chandrika rocket equations</name>
						<start>18333</start>
						<end>18354</end>
						<in>27071</in>
						<out>27092</out>
						<file id="file-1" />
						<link>
							<linkclipref>clipitem-205</linkclipref>
							<mediatype>video</mediatype>
							<trackindex>1</trackindex>
							<clipindex>205</clipindex>
						</link>
						<link>
							<linkclipref>clipitem-1240</linkclipref>
							<mediatype>audio</mediatype>
							<trackindex>1</trackindex>
							<clipindex>205</clipindex>
							<groupindex>1</groupindex>
						</link>
					</clipitem>
					<clipitem id="clipitem-206">
						<masterclipid>masterclip-2</masterclipid>
						<name>chandrika rocket equations</name>
						<start>18354</start>
						<end>18411</end>
						<in>27120</in>
						<out>27177</out>
						<file id="file-1" />
						<link>
							<linkclipref>clipitem-206</linkclipref>
							<mediatype>video</mediatype>
							<trackindex>1</trackindex>
							<clipindex>206</clipindex>
						</link>
						<link>
							<linkclipref>clipitem-1241</linkclipref>
							<mediatype>audio</mediatype>
							<trackindex>1</trackindex>
							<clipindex>206</clipindex>
							<groupindex>1</groupindex>
						</link>
					</clipitem>
					<clipitem id="clipitem-207">
						<masterclipid>masterclip-2</masterclipid>
						<name>chandrika rocket equations</name>
						<start>18411</start>
						<end>18486</end>
						<in>27205</in>
						<out>27280</out>
						<file id="file-1" />
						<link>
							<linkclipref>clipitem-207</linkclipref>
							<mediatype>video</mediatype>
							<trackindex>1</trackindex>
							<clipindex>207</clipindex>
						</link>
						<link>
							<linkclipref>clipitem-1242</linkclipref>
							<mediatype>audio</mediatype>
							<trackindex>1</trackindex>
							<clipindex>207</clipindex>
							<groupindex>1</groupindex>
						</link>
					</clipitem>
					<clipitem id="clipitem-208">
						<masterclipid>masterclip-2</masterclipid>
						<name>chandrika rocket equations</name>
						<start>18486</start>
						<end>18511</end>
						<in>27329</in>
						<out>27354</out>
						<file id="file-1" />
						<link>
							<linkclipref>clipitem-208</linkclipref>
							<mediatype>video</mediatype>
							<trackindex>1</trackindex>
							<clipindex>208</clipindex>
						</link>
						<link>
							<linkclipref>clipitem-1243</linkclipref>
							<mediatype>audio</mediatype>
							<trackindex>1</trackindex>
							<clipindex>208</clipindex>
							<groupindex>1</groupindex>
						</link>
					</clipitem>
					<clipitem id="clipitem-209">
						<masterclipid>masterclip-2</masterclipid>
						<name>chandrika rocket equations</name>
						<start>18511</start>
						<end>18556</end>
						<in>27391</in>
						<out>27436</out>
						<file id="file-1" />
						<link>
							<linkclipref>clipitem-209</linkclipref>
							<mediatype>video</mediatype>
							<trackindex>1</trackindex>
							<clipindex>209</clipindex>
						</link>
						<link>
							<linkclipref>clipitem-1244</linkclipref>
							<mediatype>audio</mediatype>
							<trackindex>1</trackindex>
							<clipindex>209</clipindex>
							<groupindex>1</groupindex>
						</link>
					</clipitem>
					<clipitem id="clipitem-210">
						<masterclipid>masterclip-2</masterclipid>
						<name>chandrika rocket equations</name>
						<start>18556</start>
						<end>18720</end>
						<in>27697</in>
						<out>27861</out>
						<file id="file-1" />
						<link>
							<linkclipref>clipitem-210</linkclipref>
							<mediatype>video</mediatype>
							<trackindex>1</trackindex>
							<clipindex>210</clipindex>
						</link>
						<link>
							<linkclipref>clipitem-1245</linkclipref>
							<mediatype>audio</mediatype>
							<trackindex>1</trackindex>
							<clipindex>210</clipindex>
							<groupindex>1</groupindex>
						</link>
					</clipitem>
					<clipitem id="clipitem-211">
						<masterclipid>masterclip-2</masterclipid>
						<name>chandrika rocket equations</name>
						<start>18720</start>
						<end>18779</end>
						<in>27894</in>
						<out>27953</out>
						<file id="file-1" />
						<link>
							<linkclipref>clipitem-211</linkclipref>
							<mediatype>video</mediatype>
							<trackindex>1</trackindex>
							<clipindex>211</clipindex>
						</link>
						<link>
							<linkclipref>clipitem-1246</linkclipref>
							<mediatype>audio</mediatype>
							<trackindex>1</trackindex>
							<clipindex>211</clipindex>
							<groupindex>1</groupindex>
						</link>
					</clipitem>
					<clipitem id="clipitem-212">
						<masterclipid>masterclip-2</masterclipid>
						<name>chandrika rocket equations</name>
						<start>18779</start>
						<end>18825</end>
						<in>27962</in>
						<out>28008</out>
						<file id="file-1" />
						<link>
							<linkclipref>clipitem-212</linkclipref>
							<mediatype>video</mediatype>
							<trackindex>1</trackindex>
							<clipindex>212</clipindex>
						</link>
						<link>
							<linkclipref>clipitem-1247</linkclipref>
							<mediatype>audio</mediatype>
							<trackindex>1</trackindex>
							<clipindex>212</clipindex>
							<groupindex>1</groupindex>
						</link>
					</clipitem>
					<clipitem id="clipitem-213">
						<masterclipid>masterclip-2</masterclipid>
						<name>chandrika rocket equations</name>
						<start>18825</start>
						<end>18896</end>
						<in>28141</in>
						<out>28212</out>
						<file id="file-1" />
						<link>
							<linkclipref>clipitem-213</linkclipref>
							<mediatype>video</mediatype>
							<trackindex>1</trackindex>
							<clipindex>213</clipindex>
						</link>
						<link>
							<linkclipref>clipitem-1248</linkclipref>
							<mediatype>audio</mediatype>
							<trackindex>1</trackindex>
							<clipindex>213</clipindex>
							<groupindex>1</groupindex>
						</link>
					</clipitem>
					<clipitem id="clipitem-214">
						<masterclipid>masterclip-2</masterclipid>
						<name>chandrika rocket equations</name>
						<start>18896</start>
						<end>18926</end>
						<in>28873</in>
						<out>28903</out>
						<file id="file-1" />
						<link>
							<linkclipref>clipitem-214</linkclipref>
							<mediatype>video</mediatype>
							<trackindex>1</trackindex>
							<clipindex>214</clipindex>
						</link>
						<link>
							<linkclipref>clipitem-1249</linkclipref>
							<mediatype>audio</mediatype>
							<trackindex>1</trackindex>
							<clipindex>214</clipindex>
							<groupindex>1</groupindex>
						</link>
					</clipitem>
					<clipitem id="clipitem-215">
						<masterclipid>masterclip-2</masterclipid>
						<name>chandrika rocket equations</name>
						<start>18926</start>
						<end>18966</end>
						<in>29034</in>
						<out>29074</out>
						<file id="file-1" />
						<link>
							<linkclipref>clipitem-215</linkclipref>
							<mediatype>video</mediatype>
							<trackindex>1</trackindex>
							<clipindex>215</clipindex>
						</link>
						<link>
							<linkclipref>clipitem-1250</linkclipref>
							<mediatype>audio</mediatype>
							<trackindex>1</trackindex>
							<clipindex>215</clipindex>
							<groupindex>1</groupindex>
						</link>
					</clipitem>
					<clipitem id="clipitem-216">
						<masterclipid>masterclip-2</masterclipid>
						<name>chandrika rocket equations</name>
						<start>18966</start>
						<end>19019</end>
						<in>29077</in>
						<out>29130</out>
						<file id="file-1" />
						<link>
							<linkclipref>clipitem-216</linkclipref>
							<mediatype>video</mediatype>
							<trackindex>1</trackindex>
							<clipindex>216</clipindex>
						</link>
						<link>
							<linkclipref>clipitem-1251</linkclipref>
							<mediatype>audio</mediatype>
							<trackindex>1</trackindex>
							<clipindex>216</clipindex>
							<groupindex>1</groupindex>
						</link>
					</clipitem>
					<clipitem id="clipitem-217">
						<masterclipid>masterclip-2</masterclipid>
						<name>chandrika rocket equations</name>
						<start>19019</start>
						<end>19034</end>
						<in>29133</in>
						<out>29148</out>
						<file id="file-1" />
						<link>
							<linkclipref>clipitem-217</linkclipref>
							<mediatype>video</mediatype>
							<trackindex>1</trackindex>
							<clipindex>217</clipindex>
						</link>
						<link>
							<linkclipref>clipitem-1252</linkclipref>
							<mediatype>audio</mediatype>
							<trackindex>1</trackindex>
							<clipindex>217</clipindex>
							<groupindex>1</groupindex>
						</link>
					</clipitem>
					<clipitem id="clipitem-218">
						<masterclipid>masterclip-2</masterclipid>
						<name>chandrika rocket equations</name>
						<start>19034</start>
						<end>19065</end>
						<in>29192</in>
						<out>29223</out>
						<file id="file-1" />
						<link>
							<linkclipref>clipitem-218</linkclipref>
							<mediatype>video</mediatype>
							<trackindex>1</trackindex>
							<clipindex>218</clipindex>
						</link>
						<link>
							<linkclipref>clipitem-1253</linkclipref>
							<mediatype>audio</mediatype>
							<trackindex>1</trackindex>
							<clipindex>218</clipindex>
							<groupindex>1</groupindex>
						</link>
					</clipitem>
					<clipitem id="clipitem-219">
						<masterclipid>masterclip-2</masterclipid>
						<name>chandrika rocket equations</name>
						<start>19065</start>
						<end>19080</end>
						<in>29228</in>
						<out>29243</out>
						<file id="file-1" />
						<link>
							<linkclipref>clipitem-219</linkclipref>
							<mediatype>video</mediatype>
							<trackindex>1</trackindex>
							<clipindex>219</clipindex>
						</link>
						<link>
							<linkclipref>clipitem-1254</linkclipref>
							<mediatype>audio</mediatype>
							<trackindex>1</trackindex>
							<clipindex>219</clipindex>
							<groupindex>1</groupindex>
						</link>
					</clipitem>
					<clipitem id="clipitem-220">
						<masterclipid>masterclip-2</masterclipid>
						<name>chandrika rocket equations</name>
						<start>19080</start>
						<end>19095</end>
						<in>29254</in>
						<out>29269</out>
						<file id="file-1" />
						<link>
							<linkclipref>clipitem-220</linkclipref>
							<mediatype>video</mediatype>
							<trackindex>1</trackindex>
							<clipindex>220</clipindex>
						</link>
						<link>
							<linkclipref>clipitem-1255</linkclipref>
							<mediatype>audio</mediatype>
							<trackindex>1</trackindex>
							<clipindex>220</clipindex>
							<groupindex>1</groupindex>
						</link>
					</clipitem>
					<clipitem id="clipitem-221">
						<masterclipid>masterclip-2</masterclipid>
						<name>chandrika rocket equations</name>
						<start>19095</start>
						<end>19114</end>
						<in>29330</in>
						<out>29349</out>
						<file id="file-1" />
						<link>
							<linkclipref>clipitem-221</linkclipref>
							<mediatype>video</mediatype>
							<trackindex>1</trackindex>
							<clipindex>221</clipindex>
						</link>
						<link>
							<linkclipref>clipitem-1256</linkclipref>
							<mediatype>audio</mediatype>
							<trackindex>1</trackindex>
							<clipindex>221</clipindex>
							<groupindex>1</groupindex>
						</link>
					</clipitem>
					<clipitem id="clipitem-222">
						<masterclipid>masterclip-2</masterclipid>
						<name>chandrika rocket equations</name>
						<start>19114</start>
						<end>19165</end>
						<in>29488</in>
						<out>29539</out>
						<file id="file-1" />
						<link>
							<linkclipref>clipitem-222</linkclipref>
							<mediatype>video</mediatype>
							<trackindex>1</trackindex>
							<clipindex>222</clipindex>
						</link>
						<link>
							<linkclipref>clipitem-1257</linkclipref>
							<mediatype>audio</mediatype>
							<trackindex>1</trackindex>
							<clipindex>222</clipindex>
							<groupindex>1</groupindex>
						</link>
					</clipitem>
					<clipitem id="clipitem-223">
						<masterclipid>masterclip-2</masterclipid>
						<name>chandrika rocket equations</name>
						<start>19165</start>
						<end>19180</end>
						<in>29547</in>
						<out>29562</out>
						<file id="file-1" />
						<link>
							<linkclipref>clipitem-223</linkclipref>
							<mediatype>video</mediatype>
							<trackindex>1</trackindex>
							<clipindex>223</clipindex>
						</link>
						<link>
							<linkclipref>clipitem-1258</linkclipref>
							<mediatype>audio</mediatype>
							<trackindex>1</trackindex>
							<clipindex>223</clipindex>
							<groupindex>1</groupindex>
						</link>
					</clipitem>
					<clipitem id="clipitem-224">
						<masterclipid>masterclip-2</masterclipid>
						<name>chandrika rocket equations</name>
						<start>19180</start>
						<end>19195</end>
						<in>29597</in>
						<out>29612</out>
						<file id="file-1" />
						<link>
							<linkclipref>clipitem-224</linkclipref>
							<mediatype>video</mediatype>
							<trackindex>1</trackindex>
							<clipindex>224</clipindex>
						</link>
						<link>
							<linkclipref>clipitem-1259</linkclipref>
							<mediatype>audio</mediatype>
							<trackindex>1</trackindex>
							<clipindex>224</clipindex>
							<groupindex>1</groupindex>
						</link>
					</clipitem>
					<clipitem id="clipitem-225">
						<masterclipid>masterclip-2</masterclipid>
						<name>chandrika rocket equations</name>
						<start>19195</start>
						<end>19242</end>
						<in>29627</in>
						<out>29674</out>
						<file id="file-1" />
						<link>
							<linkclipref>clipitem-225</linkclipref>
							<mediatype>video</mediatype>
							<trackindex>1</trackindex>
							<clipindex>225</clipindex>
						</link>
						<link>
							<linkclipref>clipitem-1260</linkclipref>
							<mediatype>audio</mediatype>
							<trackindex>1</trackindex>
							<clipindex>225</clipindex>
							<groupindex>1</groupindex>
						</link>
					</clipitem>
					<clipitem id="clipitem-226">
						<masterclipid>masterclip-2</masterclipid>
						<name>chandrika rocket equations</name>
						<start>19242</start>
						<end>19340</end>
						<in>29910</in>
						<out>30008</out>
						<file id="file-1" />
						<link>
							<linkclipref>clipitem-226</linkclipref>
							<mediatype>video</mediatype>
							<trackindex>1</trackindex>
							<clipindex>226</clipindex>
						</link>
						<link>
							<linkclipref>clipitem-1261</linkclipref>
							<mediatype>audio</mediatype>
							<trackindex>1</trackindex>
							<clipindex>226</clipindex>
							<groupindex>1</groupindex>
						</link>
					</clipitem>
					<clipitem id="clipitem-227">
						<masterclipid>masterclip-2</masterclipid>
						<name>chandrika rocket equations</name>
						<start>19340</start>
						<end>19409</end>
						<in>30031</in>
						<out>30100</out>
						<file id="file-1" />
						<link>
							<linkclipref>clipitem-227</linkclipref>
							<mediatype>video</mediatype>
							<trackindex>1</trackindex>
							<clipindex>227</clipindex>
						</link>
						<link>
							<linkclipref>clipitem-1262</linkclipref>
							<mediatype>audio</mediatype>
							<trackindex>1</trackindex>
							<clipindex>227</clipindex>
							<groupindex>1</groupindex>
						</link>
					</clipitem>
					<clipitem id="clipitem-228">
						<masterclipid>masterclip-2</masterclipid>
						<name>chandrika rocket equations</name>
						<start>19409</start>
						<end>19427</end>
						<in>31358</in>
						<out>31376</out>
						<file id="file-1" />
						<link>
							<linkclipref>clipitem-228</linkclipref>
							<mediatype>video</mediatype>
							<trackindex>1</trackindex>
							<clipindex>228</clipindex>
						</link>
						<link>
							<linkclipref>clipitem-1263</linkclipref>
							<mediatype>audio</mediatype>
							<trackindex>1</trackindex>
							<clipindex>228</clipindex>
							<groupindex>1</groupindex>
						</link>
					</clipitem>
					<clipitem id="clipitem-229">
						<masterclipid>masterclip-2</masterclipid>
						<name>chandrika rocket equations</name>
						<start>19427</start>
						<end>19512</end>
						<in>31396</in>
						<out>31481</out>
						<file id="file-1" />
						<link>
							<linkclipref>clipitem-229</linkclipref>
							<mediatype>video</mediatype>
							<trackindex>1</trackindex>
							<clipindex>229</clipindex>
						</link>
						<link>
							<linkclipref>clipitem-1264</linkclipref>
							<mediatype>audio</mediatype>
							<trackindex>1</trackindex>
							<clipindex>229</clipindex>
							<groupindex>1</groupindex>
						</link>
					</clipitem>
					<clipitem id="clipitem-230">
						<masterclipid>masterclip-2</masterclipid>
						<name>chandrika rocket equations</name>
						<start>19512</start>
						<end>19560</end>
						<in>31515</in>
						<out>31563</out>
						<file id="file-1" />
						<link>
							<linkclipref>clipitem-230</linkclipref>
							<mediatype>video</mediatype>
							<trackindex>1</trackindex>
							<clipindex>230</clipindex>
						</link>
						<link>
							<linkclipref>clipitem-1265</linkclipref>
							<mediatype>audio</mediatype>
							<trackindex>1</trackindex>
							<clipindex>230</clipindex>
							<groupindex>1</groupindex>
						</link>
					</clipitem>
					<clipitem id="clipitem-231">
						<masterclipid>masterclip-2</masterclipid>
						<name>chandrika rocket equations</name>
						<start>19560</start>
						<end>19576</end>
						<in>31692</in>
						<out>31708</out>
						<file id="file-1" />
						<link>
							<linkclipref>clipitem-231</linkclipref>
							<mediatype>video</mediatype>
							<trackindex>1</trackindex>
							<clipindex>231</clipindex>
						</link>
						<link>
							<linkclipref>clipitem-1266</linkclipref>
							<mediatype>audio</mediatype>
							<trackindex>1</trackindex>
							<clipindex>231</clipindex>
							<groupindex>1</groupindex>
						</link>
					</clipitem>
					<clipitem id="clipitem-232">
						<masterclipid>masterclip-2</masterclipid>
						<name>chandrika rocket equations</name>
						<start>19576</start>
						<end>19597</end>
						<in>31791</in>
						<out>31812</out>
						<file id="file-1" />
						<link>
							<linkclipref>clipitem-232</linkclipref>
							<mediatype>video</mediatype>
							<trackindex>1</trackindex>
							<clipindex>232</clipindex>
						</link>
						<link>
							<linkclipref>clipitem-1267</linkclipref>
							<mediatype>audio</mediatype>
							<trackindex>1</trackindex>
							<clipindex>232</clipindex>
							<groupindex>1</groupindex>
						</link>
					</clipitem>
					<clipitem id="clipitem-233">
						<masterclipid>masterclip-2</masterclipid>
						<name>chandrika rocket equations</name>
						<start>19597</start>
						<end>19612</end>
						<in>31836</in>
						<out>31851</out>
						<file id="file-1" />
						<link>
							<linkclipref>clipitem-233</linkclipref>
							<mediatype>video</mediatype>
							<trackindex>1</trackindex>
							<clipindex>233</clipindex>
						</link>
						<link>
							<linkclipref>clipitem-1268</linkclipref>
							<mediatype>audio</mediatype>
							<trackindex>1</trackindex>
							<clipindex>233</clipindex>
							<groupindex>1</groupindex>
						</link>
					</clipitem>
					<clipitem id="clipitem-234">
						<masterclipid>masterclip-2</masterclipid>
						<name>chandrika rocket equations</name>
						<start>19612</start>
						<end>19662</end>
						<in>31969</in>
						<out>32019</out>
						<file id="file-1" />
						<link>
							<linkclipref>clipitem-234</linkclipref>
							<mediatype>video</mediatype>
							<trackindex>1</trackindex>
							<clipindex>234</clipindex>
						</link>
						<link>
							<linkclipref>clipitem-1269</linkclipref>
							<mediatype>audio</mediatype>
							<trackindex>1</trackindex>
							<clipindex>234</clipindex>
							<groupindex>1</groupindex>
						</link>
					</clipitem>
					<clipitem id="clipitem-235">
						<masterclipid>masterclip-2</masterclipid>
						<name>chandrika rocket equations</name>
						<start>19662</start>
						<end>19677</end>
						<in>32029</in>
						<out>32044</out>
						<file id="file-1" />
						<link>
							<linkclipref>clipitem-235</linkclipref>
							<mediatype>video</mediatype>
							<trackindex>1</trackindex>
							<clipindex>235</clipindex>
						</link>
						<link>
							<linkclipref>clipitem-1270</linkclipref>
							<mediatype>audio</mediatype>
							<trackindex>1</trackindex>
							<clipindex>235</clipindex>
							<groupindex>1</groupindex>
						</link>
					</clipitem>
					<clipitem id="clipitem-236">
						<masterclipid>masterclip-2</masterclipid>
						<name>chandrika rocket equations</name>
						<start>19677</start>
						<end>19698</end>
						<in>32110</in>
						<out>32131</out>
						<file id="file-1" />
						<link>
							<linkclipref>clipitem-236</linkclipref>
							<mediatype>video</mediatype>
							<trackindex>1</trackindex>
							<clipindex>236</clipindex>
						</link>
						<link>
							<linkclipref>clipitem-1271</linkclipref>
							<mediatype>audio</mediatype>
							<trackindex>1</trackindex>
							<clipindex>236</clipindex>
							<groupindex>1</groupindex>
						</link>
					</clipitem>
					<clipitem id="clipitem-237">
						<masterclipid>masterclip-2</masterclipid>
						<name>chandrika rocket equations</name>
						<start>19698</start>
						<end>19713</end>
						<in>32142</in>
						<out>32157</out>
						<file id="file-1" />
						<link>
							<linkclipref>clipitem-237</linkclipref>
							<mediatype>video</mediatype>
							<trackindex>1</trackindex>
							<clipindex>237</clipindex>
						</link>
						<link>
							<linkclipref>clipitem-1272</linkclipref>
							<mediatype>audio</mediatype>
							<trackindex>1</trackindex>
							<clipindex>237</clipindex>
							<groupindex>1</groupindex>
						</link>
					</clipitem>
					<clipitem id="clipitem-238">
						<masterclipid>masterclip-2</masterclipid>
						<name>chandrika rocket equations</name>
						<start>19713</start>
						<end>19789</end>
						<in>32233</in>
						<out>32309</out>
						<file id="file-1" />
						<link>
							<linkclipref>clipitem-238</linkclipref>
							<mediatype>video</mediatype>
							<trackindex>1</trackindex>
							<clipindex>238</clipindex>
						</link>
						<link>
							<linkclipref>clipitem-1273</linkclipref>
							<mediatype>audio</mediatype>
							<trackindex>1</trackindex>
							<clipindex>238</clipindex>
							<groupindex>1</groupindex>
						</link>
					</clipitem>
					<clipitem id="clipitem-239">
						<masterclipid>masterclip-2</masterclipid>
						<name>chandrika rocket equations</name>
						<start>19789</start>
						<end>19845</end>
						<in>32351</in>
						<out>32407</out>
						<file id="file-1" />
						<link>
							<linkclipref>clipitem-239</linkclipref>
							<mediatype>video</mediatype>
							<trackindex>1</trackindex>
							<clipindex>239</clipindex>
						</link>
						<link>
							<linkclipref>clipitem-1274</linkclipref>
							<mediatype>audio</mediatype>
							<trackindex>1</trackindex>
							<clipindex>239</clipindex>
							<groupindex>1</groupindex>
						</link>
					</clipitem>
					<clipitem id="clipitem-240">
						<masterclipid>masterclip-2</masterclipid>
						<name>chandrika rocket equations</name>
						<start>19845</start>
						<end>19890</end>
						<in>32718</in>
						<out>32763</out>
						<file id="file-1" />
						<link>
							<linkclipref>clipitem-240</linkclipref>
							<mediatype>video</mediatype>
							<trackindex>1</trackindex>
							<clipindex>240</clipindex>
						</link>
						<link>
							<linkclipref>clipitem-1275</linkclipref>
							<mediatype>audio</mediatype>
							<trackindex>1</trackindex>
							<clipindex>240</clipindex>
							<groupindex>1</groupindex>
						</link>
					</clipitem>
					<clipitem id="clipitem-241">
						<masterclipid>masterclip-2</masterclipid>
						<name>chandrika rocket equations</name>
						<start>19890</start>
						<end>19930</end>
						<in>32965</in>
						<out>33005</out>
						<file id="file-1" />
						<link>
							<linkclipref>clipitem-241</linkclipref>
							<mediatype>video</mediatype>
							<trackindex>1</trackindex>
							<clipindex>241</clipindex>
						</link>
						<link>
							<linkclipref>clipitem-1276</linkclipref>
							<mediatype>audio</mediatype>
							<trackindex>1</trackindex>
							<clipindex>241</clipindex>
							<groupindex>1</groupindex>
						</link>
					</clipitem>
					<clipitem id="clipitem-242">
						<masterclipid>masterclip-2</masterclipid>
						<name>chandrika rocket equations</name>
						<start>19930</start>
						<end>19953</end>
						<in>33149</in>
						<out>33172</out>
						<file id="file-1" />
						<link>
							<linkclipref>clipitem-242</linkclipref>
							<mediatype>video</mediatype>
							<trackindex>1</trackindex>
							<clipindex>242</clipindex>
						</link>
						<link>
							<linkclipref>clipitem-1277</linkclipref>
							<mediatype>audio</mediatype>
							<trackindex>1</trackindex>
							<clipindex>242</clipindex>
							<groupindex>1</groupindex>
						</link>
					</clipitem>
					<clipitem id="clipitem-243">
						<masterclipid>masterclip-2</masterclipid>
						<name>chandrika rocket equations</name>
						<start>19953</start>
						<end>19999</end>
						<in>33409</in>
						<out>33455</out>
						<file id="file-1" />
						<link>
							<linkclipref>clipitem-243</linkclipref>
							<mediatype>video</mediatype>
							<trackindex>1</trackindex>
							<clipindex>243</clipindex>
						</link>
						<link>
							<linkclipref>clipitem-1278</linkclipref>
							<mediatype>audio</mediatype>
							<trackindex>1</trackindex>
							<clipindex>243</clipindex>
							<groupindex>1</groupindex>
						</link>
					</clipitem>
					<clipitem id="clipitem-244">
						<masterclipid>masterclip-2</masterclipid>
						<name>chandrika rocket equations</name>
						<start>19999</start>
						<end>20068</end>
						<in>33686</in>
						<out>33755</out>
						<file id="file-1" />
						<link>
							<linkclipref>clipitem-244</linkclipref>
							<mediatype>video</mediatype>
							<trackindex>1</trackindex>
							<clipindex>244</clipindex>
						</link>
						<link>
							<linkclipref>clipitem-1279</linkclipref>
							<mediatype>audio</mediatype>
							<trackindex>1</trackindex>
							<clipindex>244</clipindex>
							<groupindex>1</groupindex>
						</link>
					</clipitem>
					<clipitem id="clipitem-245">
						<masterclipid>masterclip-2</masterclipid>
						<name>chandrika rocket equations</name>
						<start>20068</start>
						<end>20088</end>
						<in>33914</in>
						<out>33934</out>
						<file id="file-1" />
						<link>
							<linkclipref>clipitem-245</linkclipref>
							<mediatype>video</mediatype>
							<trackindex>1</trackindex>
							<clipindex>245</clipindex>
						</link>
						<link>
							<linkclipref>clipitem-1280</linkclipref>
							<mediatype>audio</mediatype>
							<trackindex>1</trackindex>
							<clipindex>245</clipindex>
							<groupindex>1</groupindex>
						</link>
					</clipitem>
					<clipitem id="clipitem-246">
						<masterclipid>masterclip-2</masterclipid>
						<name>chandrika rocket equations</name>
						<start>20088</start>
						<end>20151</end>
						<in>33946</in>
						<out>34009</out>
						<file id="file-1" />
						<link>
							<linkclipref>clipitem-246</linkclipref>
							<mediatype>video</mediatype>
							<trackindex>1</trackindex>
							<clipindex>246</clipindex>
						</link>
						<link>
							<linkclipref>clipitem-1281</linkclipref>
							<mediatype>audio</mediatype>
							<trackindex>1</trackindex>
							<clipindex>246</clipindex>
							<groupindex>1</groupindex>
						</link>
					</clipitem>
					<clipitem id="clipitem-247">
						<masterclipid>masterclip-2</masterclipid>
						<name>chandrika rocket equations</name>
						<start>20151</start>
						<end>20183</end>
						<in>34026</in>
						<out>34058</out>
						<file id="file-1" />
						<link>
							<linkclipref>clipitem-247</linkclipref>
							<mediatype>video</mediatype>
							<trackindex>1</trackindex>
							<clipindex>247</clipindex>
						</link>
						<link>
							<linkclipref>clipitem-1282</linkclipref>
							<mediatype>audio</mediatype>
							<trackindex>1</trackindex>
							<clipindex>247</clipindex>
							<groupindex>1</groupindex>
						</link>
					</clipitem>
					<clipitem id="clipitem-248">
						<masterclipid>masterclip-2</masterclipid>
						<name>chandrika rocket equations</name>
						<start>20183</start>
						<end>20218</end>
						<in>34181</in>
						<out>34216</out>
						<file id="file-1" />
						<link>
							<linkclipref>clipitem-248</linkclipref>
							<mediatype>video</mediatype>
							<trackindex>1</trackindex>
							<clipindex>248</clipindex>
						</link>
						<link>
							<linkclipref>clipitem-1283</linkclipref>
							<mediatype>audio</mediatype>
							<trackindex>1</trackindex>
							<clipindex>248</clipindex>
							<groupindex>1</groupindex>
						</link>
					</clipitem>
					<clipitem id="clipitem-249">
						<masterclipid>masterclip-2</masterclipid>
						<name>chandrika rocket equations</name>
						<start>20218</start>
						<end>20234</end>
						<in>34262</in>
						<out>34278</out>
						<file id="file-1" />
						<link>
							<linkclipref>clipitem-249</linkclipref>
							<mediatype>video</mediatype>
							<trackindex>1</trackindex>
							<clipindex>249</clipindex>
						</link>
						<link>
							<linkclipref>clipitem-1284</linkclipref>
							<mediatype>audio</mediatype>
							<trackindex>1</trackindex>
							<clipindex>249</clipindex>
							<groupindex>1</groupindex>
						</link>
					</clipitem>
					<clipitem id="clipitem-250">
						<masterclipid>masterclip-2</masterclipid>
						<name>chandrika rocket equations</name>
						<start>20234</start>
						<end>20297</end>
						<in>34500</in>
						<out>34563</out>
						<file id="file-1" />
						<link>
							<linkclipref>clipitem-250</linkclipref>
							<mediatype>video</mediatype>
							<trackindex>1</trackindex>
							<clipindex>250</clipindex>
						</link>
						<link>
							<linkclipref>clipitem-1285</linkclipref>
							<mediatype>audio</mediatype>
							<trackindex>1</trackindex>
							<clipindex>250</clipindex>
							<groupindex>1</groupindex>
						</link>
					</clipitem>
					<clipitem id="clipitem-251">
						<masterclipid>masterclip-2</masterclipid>
						<name>chandrika rocket equations</name>
						<start>20297</start>
						<end>20329</end>
						<in>34569</in>
						<out>34601</out>
						<file id="file-1" />
						<link>
							<linkclipref>clipitem-251</linkclipref>
							<mediatype>video</mediatype>
							<trackindex>1</trackindex>
							<clipindex>251</clipindex>
						</link>
						<link>
							<linkclipref>clipitem-1286</linkclipref>
							<mediatype>audio</mediatype>
							<trackindex>1</trackindex>
							<clipindex>251</clipindex>
							<groupindex>1</groupindex>
						</link>
					</clipitem>
					<clipitem id="clipitem-252">
						<masterclipid>masterclip-2</masterclipid>
						<name>chandrika rocket equations</name>
						<start>20329</start>
						<end>20378</end>
						<in>34603</in>
						<out>34652</out>
						<file id="file-1" />
						<link>
							<linkclipref>clipitem-252</linkclipref>
							<mediatype>video</mediatype>
							<trackindex>1</trackindex>
							<clipindex>252</clipindex>
						</link>
						<link>
							<linkclipref>clipitem-1287</linkclipref>
							<mediatype>audio</mediatype>
							<trackindex>1</trackindex>
							<clipindex>252</clipindex>
							<groupindex>1</groupindex>
						</link>
					</clipitem>
					<clipitem id="clipitem-253">
						<masterclipid>masterclip-2</masterclipid>
						<name>chandrika rocket equations</name>
						<start>20378</start>
						<end>20394</end>
						<in>34666</in>
						<out>34682</out>
						<file id="file-1" />
						<link>
							<linkclipref>clipitem-253</linkclipref>
							<mediatype>video</mediatype>
							<trackindex>1</trackindex>
							<clipindex>253</clipindex>
						</link>
						<link>
							<linkclipref>clipitem-1288</linkclipref>
							<mediatype>audio</mediatype>
							<trackindex>1</trackindex>
							<clipindex>253</clipindex>
							<groupindex>1</groupindex>
						</link>
					</clipitem>
					<clipitem id="clipitem-254">
						<masterclipid>masterclip-2</masterclipid>
						<name>chandrika rocket equations</name>
						<start>20394</start>
						<end>20474</end>
						<in>34707</in>
						<out>34787</out>
						<file id="file-1" />
						<link>
							<linkclipref>clipitem-254</linkclipref>
							<mediatype>video</mediatype>
							<trackindex>1</trackindex>
							<clipindex>254</clipindex>
						</link>
						<link>
							<linkclipref>clipitem-1289</linkclipref>
							<mediatype>audio</mediatype>
							<trackindex>1</trackindex>
							<clipindex>254</clipindex>
							<groupindex>1</groupindex>
						</link>
					</clipitem>
					<clipitem id="clipitem-255">
						<masterclipid>masterclip-2</masterclipid>
						<name>chandrika rocket equations</name>
						<start>20474</start>
						<end>20594</end>
						<in>34792</in>
						<out>34912</out>
						<file id="file-1" />
						<link>
							<linkclipref>clipitem-255</linkclipref>
							<mediatype>video</mediatype>
							<trackindex>1</trackindex>
							<clipindex>255</clipindex>
						</link>
						<link>
							<linkclipref>clipitem-1290</linkclipref>
							<mediatype>audio</mediatype>
							<trackindex>1</trackindex>
							<clipindex>255</clipindex>
							<groupindex>1</groupindex>
						</link>
					</clipitem>
					<clipitem id="clipitem-256">
						<masterclipid>masterclip-2</masterclipid>
						<name>chandrika rocket equations</name>
						<start>20594</start>
						<end>20743</end>
						<in>34927</in>
						<out>35076</out>
						<file id="file-1" />
						<link>
							<linkclipref>clipitem-256</linkclipref>
							<mediatype>video</mediatype>
							<trackindex>1</trackindex>
							<clipindex>256</clipindex>
						</link>
						<link>
							<linkclipref>clipitem-1291</linkclipref>
							<mediatype>audio</mediatype>
							<trackindex>1</trackindex>
							<clipindex>256</clipindex>
							<groupindex>1</groupindex>
						</link>
					</clipitem>
					<clipitem id="clipitem-257">
						<masterclipid>masterclip-2</masterclipid>
						<name>chandrika rocket equations</name>
						<start>20743</start>
						<end>20765</end>
						<in>35082</in>
						<out>35104</out>
						<file id="file-1" />
						<link>
							<linkclipref>clipitem-257</linkclipref>
							<mediatype>video</mediatype>
							<trackindex>1</trackindex>
							<clipindex>257</clipindex>
						</link>
						<link>
							<linkclipref>clipitem-1292</linkclipref>
							<mediatype>audio</mediatype>
							<trackindex>1</trackindex>
							<clipindex>257</clipindex>
							<groupindex>1</groupindex>
						</link>
					</clipitem>
					<clipitem id="clipitem-258">
						<masterclipid>masterclip-2</masterclipid>
						<name>chandrika rocket equations</name>
						<start>20765</start>
						<end>20858</end>
						<in>35110</in>
						<out>35203</out>
						<file id="file-1" />
						<link>
							<linkclipref>clipitem-258</linkclipref>
							<mediatype>video</mediatype>
							<trackindex>1</trackindex>
							<clipindex>258</clipindex>
						</link>
						<link>
							<linkclipref>clipitem-1293</linkclipref>
							<mediatype>audio</mediatype>
							<trackindex>1</trackindex>
							<clipindex>258</clipindex>
							<groupindex>1</groupindex>
						</link>
					</clipitem>
					<clipitem id="clipitem-259">
						<masterclipid>masterclip-2</masterclipid>
						<name>chandrika rocket equations</name>
						<start>20858</start>
						<end>20888</end>
						<in>35237</in>
						<out>35267</out>
						<file id="file-1" />
						<link>
							<linkclipref>clipitem-259</linkclipref>
							<mediatype>video</mediatype>
							<trackindex>1</trackindex>
							<clipindex>259</clipindex>
						</link>
						<link>
							<linkclipref>clipitem-1294</linkclipref>
							<mediatype>audio</mediatype>
							<trackindex>1</trackindex>
							<clipindex>259</clipindex>
							<groupindex>1</groupindex>
						</link>
					</clipitem>
					<clipitem id="clipitem-260">
						<masterclipid>masterclip-2</masterclipid>
						<name>chandrika rocket equations</name>
						<start>20888</start>
						<end>21040</end>
						<in>35288</in>
						<out>35440</out>
						<file id="file-1" />
						<link>
							<linkclipref>clipitem-260</linkclipref>
							<mediatype>video</mediatype>
							<trackindex>1</trackindex>
							<clipindex>260</clipindex>
						</link>
						<link>
							<linkclipref>clipitem-1295</linkclipref>
							<mediatype>audio</mediatype>
							<trackindex>1</trackindex>
							<clipindex>260</clipindex>
							<groupindex>1</groupindex>
						</link>
					</clipitem>
					<clipitem id="clipitem-261">
						<masterclipid>masterclip-2</masterclipid>
						<name>chandrika rocket equations</name>
						<start>21040</start>
						<end>21151</end>
						<in>35445</in>
						<out>35556</out>
						<file id="file-1" />
						<link>
							<linkclipref>clipitem-261</linkclipref>
							<mediatype>video</mediatype>
							<trackindex>1</trackindex>
							<clipindex>261</clipindex>
						</link>
						<link>
							<linkclipref>clipitem-1296</linkclipref>
							<mediatype>audio</mediatype>
							<trackindex>1</trackindex>
							<clipindex>261</clipindex>
							<groupindex>1</groupindex>
						</link>
					</clipitem>
					<clipitem id="clipitem-262">
						<masterclipid>masterclip-2</masterclipid>
						<name>chandrika rocket equations</name>
						<start>21151</start>
						<end>21192</end>
						<in>35570</in>
						<out>35611</out>
						<file id="file-1" />
						<link>
							<linkclipref>clipitem-262</linkclipref>
							<mediatype>video</mediatype>
							<trackindex>1</trackindex>
							<clipindex>262</clipindex>
						</link>
						<link>
							<linkclipref>clipitem-1297</linkclipref>
							<mediatype>audio</mediatype>
							<trackindex>1</trackindex>
							<clipindex>262</clipindex>
							<groupindex>1</groupindex>
						</link>
					</clipitem>
					<clipitem id="clipitem-263">
						<masterclipid>masterclip-2</masterclipid>
						<name>chandrika rocket equations</name>
						<start>21192</start>
						<end>21231</end>
						<in>35686</in>
						<out>35725</out>
						<file id="file-1" />
						<link>
							<linkclipref>clipitem-263</linkclipref>
							<mediatype>video</mediatype>
							<trackindex>1</trackindex>
							<clipindex>263</clipindex>
						</link>
						<link>
							<linkclipref>clipitem-1298</linkclipref>
							<mediatype>audio</mediatype>
							<trackindex>1</trackindex>
							<clipindex>263</clipindex>
							<groupindex>1</groupindex>
						</link>
					</clipitem>
					<clipitem id="clipitem-264">
						<masterclipid>masterclip-2</masterclipid>
						<name>chandrika rocket equations</name>
						<start>21231</start>
						<end>21261</end>
						<in>35766</in>
						<out>35796</out>
						<file id="file-1" />
						<link>
							<linkclipref>clipitem-264</linkclipref>
							<mediatype>video</mediatype>
							<trackindex>1</trackindex>
							<clipindex>264</clipindex>
						</link>
						<link>
							<linkclipref>clipitem-1299</linkclipref>
							<mediatype>audio</mediatype>
							<trackindex>1</trackindex>
							<clipindex>264</clipindex>
							<groupindex>1</groupindex>
						</link>
					</clipitem>
					<clipitem id="clipitem-265">
						<masterclipid>masterclip-2</masterclipid>
						<name>chandrika rocket equations</name>
						<start>21261</start>
						<end>21288</end>
						<in>35818</in>
						<out>35845</out>
						<file id="file-1" />
						<link>
							<linkclipref>clipitem-265</linkclipref>
							<mediatype>video</mediatype>
							<trackindex>1</trackindex>
							<clipindex>265</clipindex>
						</link>
						<link>
							<linkclipref>clipitem-1300</linkclipref>
							<mediatype>audio</mediatype>
							<trackindex>1</trackindex>
							<clipindex>265</clipindex>
							<groupindex>1</groupindex>
						</link>
					</clipitem>
					<clipitem id="clipitem-266">
						<masterclipid>masterclip-2</masterclipid>
						<name>chandrika rocket equations</name>
						<start>21288</start>
						<end>21326</end>
						<in>35923</in>
						<out>35961</out>
						<file id="file-1" />
						<link>
							<linkclipref>clipitem-266</linkclipref>
							<mediatype>video</mediatype>
							<trackindex>1</trackindex>
							<clipindex>266</clipindex>
						</link>
						<link>
							<linkclipref>clipitem-1301</linkclipref>
							<mediatype>audio</mediatype>
							<trackindex>1</trackindex>
							<clipindex>266</clipindex>
							<groupindex>1</groupindex>
						</link>
					</clipitem>
					<clipitem id="clipitem-267">
						<masterclipid>masterclip-2</masterclipid>
						<name>chandrika rocket equations</name>
						<start>21326</start>
						<end>21354</end>
						<in>36078</in>
						<out>36106</out>
						<file id="file-1" />
						<link>
							<linkclipref>clipitem-267</linkclipref>
							<mediatype>video</mediatype>
							<trackindex>1</trackindex>
							<clipindex>267</clipindex>
						</link>
						<link>
							<linkclipref>clipitem-1302</linkclipref>
							<mediatype>audio</mediatype>
							<trackindex>1</trackindex>
							<clipindex>267</clipindex>
							<groupindex>1</groupindex>
						</link>
					</clipitem>
					<clipitem id="clipitem-268">
						<masterclipid>masterclip-2</masterclipid>
						<name>chandrika rocket equations</name>
						<start>21354</start>
						<end>21433</end>
						<in>36142</in>
						<out>36221</out>
						<file id="file-1" />
						<link>
							<linkclipref>clipitem-268</linkclipref>
							<mediatype>video</mediatype>
							<trackindex>1</trackindex>
							<clipindex>268</clipindex>
						</link>
						<link>
							<linkclipref>clipitem-1303</linkclipref>
							<mediatype>audio</mediatype>
							<trackindex>1</trackindex>
							<clipindex>268</clipindex>
							<groupindex>1</groupindex>
						</link>
					</clipitem>
					<clipitem id="clipitem-269">
						<masterclipid>masterclip-2</masterclipid>
						<name>chandrika rocket equations</name>
						<start>21433</start>
						<end>21481</end>
						<in>36317</in>
						<out>36365</out>
						<file id="file-1" />
						<link>
							<linkclipref>clipitem-269</linkclipref>
							<mediatype>video</mediatype>
							<trackindex>1</trackindex>
							<clipindex>269</clipindex>
						</link>
						<link>
							<linkclipref>clipitem-1304</linkclipref>
							<mediatype>audio</mediatype>
							<trackindex>1</trackindex>
							<clipindex>269</clipindex>
							<groupindex>1</groupindex>
						</link>
					</clipitem>
					<clipitem id="clipitem-270">
						<masterclipid>masterclip-2</masterclipid>
						<name>chandrika rocket equations</name>
						<start>21481</start>
						<end>21508</end>
						<in>36494</in>
						<out>36521</out>
						<file id="file-1" />
						<link>
							<linkclipref>clipitem-270</linkclipref>
							<mediatype>video</mediatype>
							<trackindex>1</trackindex>
							<clipindex>270</clipindex>
						</link>
						<link>
							<linkclipref>clipitem-1305</linkclipref>
							<mediatype>audio</mediatype>
							<trackindex>1</trackindex>
							<clipindex>270</clipindex>
							<groupindex>1</groupindex>
						</link>
					</clipitem>
					<clipitem id="clipitem-271">
						<masterclipid>masterclip-2</masterclipid>
						<name>chandrika rocket equations</name>
						<start>21508</start>
						<end>21612</end>
						<in>36659</in>
						<out>36763</out>
						<file id="file-1" />
						<link>
							<linkclipref>clipitem-271</linkclipref>
							<mediatype>video</mediatype>
							<trackindex>1</trackindex>
							<clipindex>271</clipindex>
						</link>
						<link>
							<linkclipref>clipitem-1306</linkclipref>
							<mediatype>audio</mediatype>
							<trackindex>1</trackindex>
							<clipindex>271</clipindex>
							<groupindex>1</groupindex>
						</link>
					</clipitem>
					<clipitem id="clipitem-272">
						<masterclipid>masterclip-2</masterclipid>
						<name>chandrika rocket equations</name>
						<start>21612</start>
						<end>21646</end>
						<in>36801</in>
						<out>36835</out>
						<file id="file-1" />
						<link>
							<linkclipref>clipitem-272</linkclipref>
							<mediatype>video</mediatype>
							<trackindex>1</trackindex>
							<clipindex>272</clipindex>
						</link>
						<link>
							<linkclipref>clipitem-1307</linkclipref>
							<mediatype>audio</mediatype>
							<trackindex>1</trackindex>
							<clipindex>272</clipindex>
							<groupindex>1</groupindex>
						</link>
					</clipitem>
					<clipitem id="clipitem-273">
						<masterclipid>masterclip-2</masterclipid>
						<name>chandrika rocket equations</name>
						<start>21646</start>
						<end>21682</end>
						<in>36919</in>
						<out>36955</out>
						<file id="file-1" />
						<link>
							<linkclipref>clipitem-273</linkclipref>
							<mediatype>video</mediatype>
							<trackindex>1</trackindex>
							<clipindex>273</clipindex>
						</link>
						<link>
							<linkclipref>clipitem-1308</linkclipref>
							<mediatype>audio</mediatype>
							<trackindex>1</trackindex>
							<clipindex>273</clipindex>
							<groupindex>1</groupindex>
						</link>
					</clipitem>
					<clipitem id="clipitem-274">
						<masterclipid>masterclip-2</masterclipid>
						<name>chandrika rocket equations</name>
						<start>21682</start>
						<end>21766</end>
						<in>36982</in>
						<out>37066</out>
						<file id="file-1" />
						<link>
							<linkclipref>clipitem-274</linkclipref>
							<mediatype>video</mediatype>
							<trackindex>1</trackindex>
							<clipindex>274</clipindex>
						</link>
						<link>
							<linkclipref>clipitem-1309</linkclipref>
							<mediatype>audio</mediatype>
							<trackindex>1</trackindex>
							<clipindex>274</clipindex>
							<groupindex>1</groupindex>
						</link>
					</clipitem>
					<clipitem id="clipitem-275">
						<masterclipid>masterclip-2</masterclipid>
						<name>chandrika rocket equations</name>
						<start>21766</start>
						<end>21865</end>
						<in>37098</in>
						<out>37197</out>
						<file id="file-1" />
						<link>
							<linkclipref>clipitem-275</linkclipref>
							<mediatype>video</mediatype>
							<trackindex>1</trackindex>
							<clipindex>275</clipindex>
						</link>
						<link>
							<linkclipref>clipitem-1310</linkclipref>
							<mediatype>audio</mediatype>
							<trackindex>1</trackindex>
							<clipindex>275</clipindex>
							<groupindex>1</groupindex>
						</link>
					</clipitem>
					<clipitem id="clipitem-276">
						<masterclipid>masterclip-2</masterclipid>
						<name>chandrika rocket equations</name>
						<start>21865</start>
						<end>21882</end>
						<in>37220</in>
						<out>37237</out>
						<file id="file-1" />
						<link>
							<linkclipref>clipitem-276</linkclipref>
							<mediatype>video</mediatype>
							<trackindex>1</trackindex>
							<clipindex>276</clipindex>
						</link>
						<link>
							<linkclipref>clipitem-1311</linkclipref>
							<mediatype>audio</mediatype>
							<trackindex>1</trackindex>
							<clipindex>276</clipindex>
							<groupindex>1</groupindex>
						</link>
					</clipitem>
					<clipitem id="clipitem-277">
						<masterclipid>masterclip-2</masterclipid>
						<name>chandrika rocket equations</name>
						<start>21882</start>
						<end>21979</end>
						<in>37242</in>
						<out>37339</out>
						<file id="file-1" />
						<link>
							<linkclipref>clipitem-277</linkclipref>
							<mediatype>video</mediatype>
							<trackindex>1</trackindex>
							<clipindex>277</clipindex>
						</link>
						<link>
							<linkclipref>clipitem-1312</linkclipref>
							<mediatype>audio</mediatype>
							<trackindex>1</trackindex>
							<clipindex>277</clipindex>
							<groupindex>1</groupindex>
						</link>
					</clipitem>
					<clipitem id="clipitem-278">
						<masterclipid>masterclip-2</masterclipid>
						<name>chandrika rocket equations</name>
						<start>21979</start>
						<end>22060</end>
						<in>37356</in>
						<out>37437</out>
						<file id="file-1" />
						<link>
							<linkclipref>clipitem-278</linkclipref>
							<mediatype>video</mediatype>
							<trackindex>1</trackindex>
							<clipindex>278</clipindex>
						</link>
						<link>
							<linkclipref>clipitem-1313</linkclipref>
							<mediatype>audio</mediatype>
							<trackindex>1</trackindex>
							<clipindex>278</clipindex>
							<groupindex>1</groupindex>
						</link>
					</clipitem>
					<clipitem id="clipitem-279">
						<masterclipid>masterclip-2</masterclipid>
						<name>chandrika rocket equations</name>
						<start>22060</start>
						<end>22172</end>
						<in>37459</in>
						<out>37571</out>
						<file id="file-1" />
						<link>
							<linkclipref>clipitem-279</linkclipref>
							<mediatype>video</mediatype>
							<trackindex>1</trackindex>
							<clipindex>279</clipindex>
						</link>
						<link>
							<linkclipref>clipitem-1314</linkclipref>
							<mediatype>audio</mediatype>
							<trackindex>1</trackindex>
							<clipindex>279</clipindex>
							<groupindex>1</groupindex>
						</link>
					</clipitem>
					<clipitem id="clipitem-280">
						<masterclipid>masterclip-2</masterclipid>
						<name>chandrika rocket equations</name>
						<start>22172</start>
						<end>22197</end>
						<in>37577</in>
						<out>37602</out>
						<file id="file-1" />
						<link>
							<linkclipref>clipitem-280</linkclipref>
							<mediatype>video</mediatype>
							<trackindex>1</trackindex>
							<clipindex>280</clipindex>
						</link>
						<link>
							<linkclipref>clipitem-1315</linkclipref>
							<mediatype>audio</mediatype>
							<trackindex>1</trackindex>
							<clipindex>280</clipindex>
							<groupindex>1</groupindex>
						</link>
					</clipitem>
					<clipitem id="clipitem-281">
						<masterclipid>masterclip-2</masterclipid>
						<name>chandrika rocket equations</name>
						<start>22197</start>
						<end>22239</end>
						<in>37612</in>
						<out>37654</out>
						<file id="file-1" />
						<link>
							<linkclipref>clipitem-281</linkclipref>
							<mediatype>video</mediatype>
							<trackindex>1</trackindex>
							<clipindex>281</clipindex>
						</link>
						<link>
							<linkclipref>clipitem-1316</linkclipref>
							<mediatype>audio</mediatype>
							<trackindex>1</trackindex>
							<clipindex>281</clipindex>
							<groupindex>1</groupindex>
						</link>
					</clipitem>
					<clipitem id="clipitem-282">
						<masterclipid>masterclip-2</masterclipid>
						<name>chandrika rocket equations</name>
						<start>22239</start>
						<end>22254</end>
						<in>37715</in>
						<out>37730</out>
						<file id="file-1" />
						<link>
							<linkclipref>clipitem-282</linkclipref>
							<mediatype>video</mediatype>
							<trackindex>1</trackindex>
							<clipindex>282</clipindex>
						</link>
						<link>
							<linkclipref>clipitem-1317</linkclipref>
							<mediatype>audio</mediatype>
							<trackindex>1</trackindex>
							<clipindex>282</clipindex>
							<groupindex>1</groupindex>
						</link>
					</clipitem>
					<clipitem id="clipitem-283">
						<masterclipid>masterclip-2</masterclipid>
						<name>chandrika rocket equations</name>
						<start>22254</start>
						<end>22289</end>
						<in>37753</in>
						<out>37788</out>
						<file id="file-1" />
						<link>
							<linkclipref>clipitem-283</linkclipref>
							<mediatype>video</mediatype>
							<trackindex>1</trackindex>
							<clipindex>283</clipindex>
						</link>
						<link>
							<linkclipref>clipitem-1318</linkclipref>
							<mediatype>audio</mediatype>
							<trackindex>1</trackindex>
							<clipindex>283</clipindex>
							<groupindex>1</groupindex>
						</link>
					</clipitem>
					<clipitem id="clipitem-284">
						<masterclipid>masterclip-2</masterclipid>
						<name>chandrika rocket equations</name>
						<start>22289</start>
						<end>22385</end>
						<in>37816</in>
						<out>37912</out>
						<file id="file-1" />
						<link>
							<linkclipref>clipitem-284</linkclipref>
							<mediatype>video</mediatype>
							<trackindex>1</trackindex>
							<clipindex>284</clipindex>
						</link>
						<link>
							<linkclipref>clipitem-1319</linkclipref>
							<mediatype>audio</mediatype>
							<trackindex>1</trackindex>
							<clipindex>284</clipindex>
							<groupindex>1</groupindex>
						</link>
					</clipitem>
					<clipitem id="clipitem-285">
						<masterclipid>masterclip-2</masterclipid>
						<name>chandrika rocket equations</name>
						<start>22385</start>
						<end>22429</end>
						<in>37921</in>
						<out>37965</out>
						<file id="file-1" />
						<link>
							<linkclipref>clipitem-285</linkclipref>
							<mediatype>video</mediatype>
							<trackindex>1</trackindex>
							<clipindex>285</clipindex>
						</link>
						<link>
							<linkclipref>clipitem-1320</linkclipref>
							<mediatype>audio</mediatype>
							<trackindex>1</trackindex>
							<clipindex>285</clipindex>
							<groupindex>1</groupindex>
						</link>
					</clipitem>
					<clipitem id="clipitem-286">
						<masterclipid>masterclip-2</masterclipid>
						<name>chandrika rocket equations</name>
						<start>22429</start>
						<end>22446</end>
						<in>37968</in>
						<out>37985</out>
						<file id="file-1" />
						<link>
							<linkclipref>clipitem-286</linkclipref>
							<mediatype>video</mediatype>
							<trackindex>1</trackindex>
							<clipindex>286</clipindex>
						</link>
						<link>
							<linkclipref>clipitem-1321</linkclipref>
							<mediatype>audio</mediatype>
							<trackindex>1</trackindex>
							<clipindex>286</clipindex>
							<groupindex>1</groupindex>
						</link>
					</clipitem>
					<clipitem id="clipitem-287">
						<masterclipid>masterclip-2</masterclipid>
						<name>chandrika rocket equations</name>
						<start>22446</start>
						<end>22467</end>
						<in>38013</in>
						<out>38034</out>
						<file id="file-1" />
						<link>
							<linkclipref>clipitem-287</linkclipref>
							<mediatype>video</mediatype>
							<trackindex>1</trackindex>
							<clipindex>287</clipindex>
						</link>
						<link>
							<linkclipref>clipitem-1322</linkclipref>
							<mediatype>audio</mediatype>
							<trackindex>1</trackindex>
							<clipindex>287</clipindex>
							<groupindex>1</groupindex>
						</link>
					</clipitem>
					<clipitem id="clipitem-288">
						<masterclipid>masterclip-2</masterclipid>
						<name>chandrika rocket equations</name>
						<start>22467</start>
						<end>22508</end>
						<in>38073</in>
						<out>38114</out>
						<file id="file-1" />
						<link>
							<linkclipref>clipitem-288</linkclipref>
							<mediatype>video</mediatype>
							<trackindex>1</trackindex>
							<clipindex>288</clipindex>
						</link>
						<link>
							<linkclipref>clipitem-1323</linkclipref>
							<mediatype>audio</mediatype>
							<trackindex>1</trackindex>
							<clipindex>288</clipindex>
							<groupindex>1</groupindex>
						</link>
					</clipitem>
					<clipitem id="clipitem-289">
						<masterclipid>masterclip-2</masterclipid>
						<name>chandrika rocket equations</name>
						<start>22508</start>
						<end>22634</end>
						<in>38149</in>
						<out>38275</out>
						<file id="file-1" />
						<link>
							<linkclipref>clipitem-289</linkclipref>
							<mediatype>video</mediatype>
							<trackindex>1</trackindex>
							<clipindex>289</clipindex>
						</link>
						<link>
							<linkclipref>clipitem-1324</linkclipref>
							<mediatype>audio</mediatype>
							<trackindex>1</trackindex>
							<clipindex>289</clipindex>
							<groupindex>1</groupindex>
						</link>
					</clipitem>
					<clipitem id="clipitem-290">
						<masterclipid>masterclip-2</masterclipid>
						<name>chandrika rocket equations</name>
						<start>22634</start>
						<end>22678</end>
						<in>38307</in>
						<out>38351</out>
						<file id="file-1" />
						<link>
							<linkclipref>clipitem-290</linkclipref>
							<mediatype>video</mediatype>
							<trackindex>1</trackindex>
							<clipindex>290</clipindex>
						</link>
						<link>
							<linkclipref>clipitem-1325</linkclipref>
							<mediatype>audio</mediatype>
							<trackindex>1</trackindex>
							<clipindex>290</clipindex>
							<groupindex>1</groupindex>
						</link>
					</clipitem>
					<clipitem id="clipitem-291">
						<masterclipid>masterclip-2</masterclipid>
						<name>chandrika rocket equations</name>
						<start>22678</start>
						<end>22739</end>
						<in>38386</in>
						<out>38447</out>
						<file id="file-1" />
						<link>
							<linkclipref>clipitem-291</linkclipref>
							<mediatype>video</mediatype>
							<trackindex>1</trackindex>
							<clipindex>291</clipindex>
						</link>
						<link>
							<linkclipref>clipitem-1326</linkclipref>
							<mediatype>audio</mediatype>
							<trackindex>1</trackindex>
							<clipindex>291</clipindex>
							<groupindex>1</groupindex>
						</link>
					</clipitem>
					<clipitem id="clipitem-292">
						<masterclipid>masterclip-2</masterclipid>
						<name>chandrika rocket equations</name>
						<start>22739</start>
						<end>22770</end>
						<in>38471</in>
						<out>38502</out>
						<file id="file-1" />
						<link>
							<linkclipref>clipitem-292</linkclipref>
							<mediatype>video</mediatype>
							<trackindex>1</trackindex>
							<clipindex>292</clipindex>
						</link>
						<link>
							<linkclipref>clipitem-1327</linkclipref>
							<mediatype>audio</mediatype>
							<trackindex>1</trackindex>
							<clipindex>292</clipindex>
							<groupindex>1</groupindex>
						</link>
					</clipitem>
					<clipitem id="clipitem-293">
						<masterclipid>masterclip-2</masterclipid>
						<name>chandrika rocket equations</name>
						<start>22770</start>
						<end>22804</end>
						<in>38538</in>
						<out>38572</out>
						<file id="file-1" />
						<link>
							<linkclipref>clipitem-293</linkclipref>
							<mediatype>video</mediatype>
							<trackindex>1</trackindex>
							<clipindex>293</clipindex>
						</link>
						<link>
							<linkclipref>clipitem-1328</linkclipref>
							<mediatype>audio</mediatype>
							<trackindex>1</trackindex>
							<clipindex>293</clipindex>
							<groupindex>1</groupindex>
						</link>
					</clipitem>
					<clipitem id="clipitem-294">
						<masterclipid>masterclip-2</masterclipid>
						<name>chandrika rocket equations</name>
						<start>22804</start>
						<end>22892</end>
						<in>38585</in>
						<out>38673</out>
						<file id="file-1" />
						<link>
							<linkclipref>clipitem-294</linkclipref>
							<mediatype>video</mediatype>
							<trackindex>1</trackindex>
							<clipindex>294</clipindex>
						</link>
						<link>
							<linkclipref>clipitem-1329</linkclipref>
							<mediatype>audio</mediatype>
							<trackindex>1</trackindex>
							<clipindex>294</clipindex>
							<groupindex>1</groupindex>
						</link>
					</clipitem>
					<clipitem id="clipitem-295">
						<masterclipid>masterclip-2</masterclipid>
						<name>chandrika rocket equations</name>
						<start>22892</start>
						<end>22993</end>
						<in>38677</in>
						<out>38778</out>
						<file id="file-1" />
						<link>
							<linkclipref>clipitem-295</linkclipref>
							<mediatype>video</mediatype>
							<trackindex>1</trackindex>
							<clipindex>295</clipindex>
						</link>
						<link>
							<linkclipref>clipitem-1330</linkclipref>
							<mediatype>audio</mediatype>
							<trackindex>1</trackindex>
							<clipindex>295</clipindex>
							<groupindex>1</groupindex>
						</link>
					</clipitem>
					<clipitem id="clipitem-296">
						<masterclipid>masterclip-2</masterclipid>
						<name>chandrika rocket equations</name>
						<start>22993</start>
						<end>23046</end>
						<in>38850</in>
						<out>38903</out>
						<file id="file-1" />
						<link>
							<linkclipref>clipitem-296</linkclipref>
							<mediatype>video</mediatype>
							<trackindex>1</trackindex>
							<clipindex>296</clipindex>
						</link>
						<link>
							<linkclipref>clipitem-1331</linkclipref>
							<mediatype>audio</mediatype>
							<trackindex>1</trackindex>
							<clipindex>296</clipindex>
							<groupindex>1</groupindex>
						</link>
					</clipitem>
					<clipitem id="clipitem-297">
						<masterclipid>masterclip-2</masterclipid>
						<name>chandrika rocket equations</name>
						<start>23046</start>
						<end>23088</end>
						<in>38939</in>
						<out>38981</out>
						<file id="file-1" />
						<link>
							<linkclipref>clipitem-297</linkclipref>
							<mediatype>video</mediatype>
							<trackindex>1</trackindex>
							<clipindex>297</clipindex>
						</link>
						<link>
							<linkclipref>clipitem-1332</linkclipref>
							<mediatype>audio</mediatype>
							<trackindex>1</trackindex>
							<clipindex>297</clipindex>
							<groupindex>1</groupindex>
						</link>
					</clipitem>
					<clipitem id="clipitem-298">
						<masterclipid>masterclip-2</masterclipid>
						<name>chandrika rocket equations</name>
						<start>23088</start>
						<end>23124</end>
						<in>39095</in>
						<out>39131</out>
						<file id="file-1" />
						<link>
							<linkclipref>clipitem-298</linkclipref>
							<mediatype>video</mediatype>
							<trackindex>1</trackindex>
							<clipindex>298</clipindex>
						</link>
						<link>
							<linkclipref>clipitem-1333</linkclipref>
							<mediatype>audio</mediatype>
							<trackindex>1</trackindex>
							<clipindex>298</clipindex>
							<groupindex>1</groupindex>
						</link>
					</clipitem>
					<clipitem id="clipitem-299">
						<masterclipid>masterclip-2</masterclipid>
						<name>chandrika rocket equations</name>
						<start>23124</start>
						<end>23160</end>
						<in>39132</in>
						<out>39168</out>
						<file id="file-1" />
						<link>
							<linkclipref>clipitem-299</linkclipref>
							<mediatype>video</mediatype>
							<trackindex>1</trackindex>
							<clipindex>299</clipindex>
						</link>
						<link>
							<linkclipref>clipitem-1334</linkclipref>
							<mediatype>audio</mediatype>
							<trackindex>1</trackindex>
							<clipindex>299</clipindex>
							<groupindex>1</groupindex>
						</link>
					</clipitem>
					<clipitem id="clipitem-300">
						<masterclipid>masterclip-2</masterclipid>
						<name>chandrika rocket equations</name>
						<start>23160</start>
						<end>23188</end>
						<in>39200</in>
						<out>39228</out>
						<file id="file-1" />
						<link>
							<linkclipref>clipitem-300</linkclipref>
							<mediatype>video</mediatype>
							<trackindex>1</trackindex>
							<clipindex>300</clipindex>
						</link>
						<link>
							<linkclipref>clipitem-1335</linkclipref>
							<mediatype>audio</mediatype>
							<trackindex>1</trackindex>
							<clipindex>300</clipindex>
							<groupindex>1</groupindex>
						</link>
					</clipitem>
					<clipitem id="clipitem-301">
						<masterclipid>masterclip-2</masterclipid>
						<name>chandrika rocket equations</name>
						<start>23188</start>
						<end>23233</end>
						<in>39255</in>
						<out>39300</out>
						<file id="file-1" />
						<link>
							<linkclipref>clipitem-301</linkclipref>
							<mediatype>video</mediatype>
							<trackindex>1</trackindex>
							<clipindex>301</clipindex>
						</link>
						<link>
							<linkclipref>clipitem-1336</linkclipref>
							<mediatype>audio</mediatype>
							<trackindex>1</trackindex>
							<clipindex>301</clipindex>
							<groupindex>1</groupindex>
						</link>
					</clipitem>
					<clipitem id="clipitem-302">
						<masterclipid>masterclip-2</masterclipid>
						<name>chandrika rocket equations</name>
						<start>23233</start>
						<end>23301</end>
						<in>39374</in>
						<out>39442</out>
						<file id="file-1" />
						<link>
							<linkclipref>clipitem-302</linkclipref>
							<mediatype>video</mediatype>
							<trackindex>1</trackindex>
							<clipindex>302</clipindex>
						</link>
						<link>
							<linkclipref>clipitem-1337</linkclipref>
							<mediatype>audio</mediatype>
							<trackindex>1</trackindex>
							<clipindex>302</clipindex>
							<groupindex>1</groupindex>
						</link>
					</clipitem>
					<clipitem id="clipitem-303">
						<masterclipid>masterclip-2</masterclipid>
						<name>chandrika rocket equations</name>
						<start>23301</start>
						<end>23385</end>
						<in>39698</in>
						<out>39782</out>
						<file id="file-1" />
						<link>
							<linkclipref>clipitem-303</linkclipref>
							<mediatype>video</mediatype>
							<trackindex>1</trackindex>
							<clipindex>303</clipindex>
						</link>
						<link>
							<linkclipref>clipitem-1338</linkclipref>
							<mediatype>audio</mediatype>
							<trackindex>1</trackindex>
							<clipindex>303</clipindex>
							<groupindex>1</groupindex>
						</link>
					</clipitem>
					<clipitem id="clipitem-304">
						<masterclipid>masterclip-2</masterclipid>
						<name>chandrika rocket equations</name>
						<start>23385</start>
						<end>23515</end>
						<in>39801</in>
						<out>39931</out>
						<file id="file-1" />
						<link>
							<linkclipref>clipitem-304</linkclipref>
							<mediatype>video</mediatype>
							<trackindex>1</trackindex>
							<clipindex>304</clipindex>
						</link>
						<link>
							<linkclipref>clipitem-1339</linkclipref>
							<mediatype>audio</mediatype>
							<trackindex>1</trackindex>
							<clipindex>304</clipindex>
							<groupindex>1</groupindex>
						</link>
					</clipitem>
					<clipitem id="clipitem-305">
						<masterclipid>masterclip-2</masterclipid>
						<name>chandrika rocket equations</name>
						<start>23515</start>
						<end>23532</end>
						<in>39939</in>
						<out>39956</out>
						<file id="file-1" />
						<link>
							<linkclipref>clipitem-305</linkclipref>
							<mediatype>video</mediatype>
							<trackindex>1</trackindex>
							<clipindex>305</clipindex>
						</link>
						<link>
							<linkclipref>clipitem-1340</linkclipref>
							<mediatype>audio</mediatype>
							<trackindex>1</trackindex>
							<clipindex>305</clipindex>
							<groupindex>1</groupindex>
						</link>
					</clipitem>
					<clipitem id="clipitem-306">
						<masterclipid>masterclip-2</masterclipid>
						<name>chandrika rocket equations</name>
						<start>23532</start>
						<end>23597</end>
						<in>39958</in>
						<out>40023</out>
						<file id="file-1" />
						<link>
							<linkclipref>clipitem-306</linkclipref>
							<mediatype>video</mediatype>
							<trackindex>1</trackindex>
							<clipindex>306</clipindex>
						</link>
						<link>
							<linkclipref>clipitem-1341</linkclipref>
							<mediatype>audio</mediatype>
							<trackindex>1</trackindex>
							<clipindex>306</clipindex>
							<groupindex>1</groupindex>
						</link>
					</clipitem>
					<clipitem id="clipitem-307">
						<masterclipid>masterclip-2</masterclipid>
						<name>chandrika rocket equations</name>
						<start>23597</start>
						<end>23693</end>
						<in>40033</in>
						<out>40129</out>
						<file id="file-1" />
						<link>
							<linkclipref>clipitem-307</linkclipref>
							<mediatype>video</mediatype>
							<trackindex>1</trackindex>
							<clipindex>307</clipindex>
						</link>
						<link>
							<linkclipref>clipitem-1342</linkclipref>
							<mediatype>audio</mediatype>
							<trackindex>1</trackindex>
							<clipindex>307</clipindex>
							<groupindex>1</groupindex>
						</link>
					</clipitem>
					<clipitem id="clipitem-308">
						<masterclipid>masterclip-2</masterclipid>
						<name>chandrika rocket equations</name>
						<start>23693</start>
						<end>23728</end>
						<in>40139</in>
						<out>40174</out>
						<file id="file-1" />
						<link>
							<linkclipref>clipitem-308</linkclipref>
							<mediatype>video</mediatype>
							<trackindex>1</trackindex>
							<clipindex>308</clipindex>
						</link>
						<link>
							<linkclipref>clipitem-1343</linkclipref>
							<mediatype>audio</mediatype>
							<trackindex>1</trackindex>
							<clipindex>308</clipindex>
							<groupindex>1</groupindex>
						</link>
					</clipitem>
					<clipitem id="clipitem-309">
						<masterclipid>masterclip-2</masterclipid>
						<name>chandrika rocket equations</name>
						<start>23728</start>
						<end>23766</end>
						<in>40183</in>
						<out>40221</out>
						<file id="file-1" />
						<link>
							<linkclipref>clipitem-309</linkclipref>
							<mediatype>video</mediatype>
							<trackindex>1</trackindex>
							<clipindex>309</clipindex>
						</link>
						<link>
							<linkclipref>clipitem-1344</linkclipref>
							<mediatype>audio</mediatype>
							<trackindex>1</trackindex>
							<clipindex>309</clipindex>
							<groupindex>1</groupindex>
						</link>
					</clipitem>
					<clipitem id="clipitem-310">
						<masterclipid>masterclip-2</masterclipid>
						<name>chandrika rocket equations</name>
						<start>23766</start>
						<end>23792</end>
						<in>40229</in>
						<out>40255</out>
						<file id="file-1" />
						<link>
							<linkclipref>clipitem-310</linkclipref>
							<mediatype>video</mediatype>
							<trackindex>1</trackindex>
							<clipindex>310</clipindex>
						</link>
						<link>
							<linkclipref>clipitem-1345</linkclipref>
							<mediatype>audio</mediatype>
							<trackindex>1</trackindex>
							<clipindex>310</clipindex>
							<groupindex>1</groupindex>
						</link>
					</clipitem>
					<clipitem id="clipitem-311">
						<masterclipid>masterclip-2</masterclipid>
						<name>chandrika rocket equations</name>
						<start>23792</start>
						<end>23923</end>
						<in>40267</in>
						<out>40398</out>
						<file id="file-1" />
						<link>
							<linkclipref>clipitem-311</linkclipref>
							<mediatype>video</mediatype>
							<trackindex>1</trackindex>
							<clipindex>311</clipindex>
						</link>
						<link>
							<linkclipref>clipitem-1346</linkclipref>
							<mediatype>audio</mediatype>
							<trackindex>1</trackindex>
							<clipindex>311</clipindex>
							<groupindex>1</groupindex>
						</link>
					</clipitem>
					<clipitem id="clipitem-312">
						<masterclipid>masterclip-2</masterclipid>
						<name>chandrika rocket equations</name>
						<start>23923</start>
						<end>24096</end>
						<in>40415</in>
						<out>40588</out>
						<file id="file-1" />
						<link>
							<linkclipref>clipitem-312</linkclipref>
							<mediatype>video</mediatype>
							<trackindex>1</trackindex>
							<clipindex>312</clipindex>
						</link>
						<link>
							<linkclipref>clipitem-1347</linkclipref>
							<mediatype>audio</mediatype>
							<trackindex>1</trackindex>
							<clipindex>312</clipindex>
							<groupindex>1</groupindex>
						</link>
					</clipitem>
					<clipitem id="clipitem-313">
						<masterclipid>masterclip-2</masterclipid>
						<name>chandrika rocket equations</name>
						<start>24096</start>
						<end>24124</end>
						<in>40606</in>
						<out>40634</out>
						<file id="file-1" />
						<link>
							<linkclipref>clipitem-313</linkclipref>
							<mediatype>video</mediatype>
							<trackindex>1</trackindex>
							<clipindex>313</clipindex>
						</link>
						<link>
							<linkclipref>clipitem-1348</linkclipref>
							<mediatype>audio</mediatype>
							<trackindex>1</trackindex>
							<clipindex>313</clipindex>
							<groupindex>1</groupindex>
						</link>
					</clipitem>
					<clipitem id="clipitem-314">
						<masterclipid>masterclip-2</masterclipid>
						<name>chandrika rocket equations</name>
						<start>24124</start>
						<end>24181</end>
						<in>40646</in>
						<out>40703</out>
						<file id="file-1" />
						<link>
							<linkclipref>clipitem-314</linkclipref>
							<mediatype>video</mediatype>
							<trackindex>1</trackindex>
							<clipindex>314</clipindex>
						</link>
						<link>
							<linkclipref>clipitem-1349</linkclipref>
							<mediatype>audio</mediatype>
							<trackindex>1</trackindex>
							<clipindex>314</clipindex>
							<groupindex>1</groupindex>
						</link>
					</clipitem>
					<clipitem id="clipitem-315">
						<masterclipid>masterclip-2</masterclipid>
						<name>chandrika rocket equations</name>
						<start>24181</start>
						<end>24350</end>
						<in>40710</in>
						<out>40879</out>
						<file id="file-1" />
						<link>
							<linkclipref>clipitem-315</linkclipref>
							<mediatype>video</mediatype>
							<trackindex>1</trackindex>
							<clipindex>315</clipindex>
						</link>
						<link>
							<linkclipref>clipitem-1350</linkclipref>
							<mediatype>audio</mediatype>
							<trackindex>1</trackindex>
							<clipindex>315</clipindex>
							<groupindex>1</groupindex>
						</link>
					</clipitem>
					<clipitem id="clipitem-316">
						<masterclipid>masterclip-2</masterclipid>
						<name>chandrika rocket equations</name>
						<start>24350</start>
						<end>24372</end>
						<in>40908</in>
						<out>40930</out>
						<file id="file-1" />
						<link>
							<linkclipref>clipitem-316</linkclipref>
							<mediatype>video</mediatype>
							<trackindex>1</trackindex>
							<clipindex>316</clipindex>
						</link>
						<link>
							<linkclipref>clipitem-1351</linkclipref>
							<mediatype>audio</mediatype>
							<trackindex>1</trackindex>
							<clipindex>316</clipindex>
							<groupindex>1</groupindex>
						</link>
					</clipitem>
					<clipitem id="clipitem-317">
						<masterclipid>masterclip-2</masterclipid>
						<name>chandrika rocket equations</name>
						<start>24372</start>
						<end>24526</end>
						<in>40941</in>
						<out>41095</out>
						<file id="file-1" />
						<link>
							<linkclipref>clipitem-317</linkclipref>
							<mediatype>video</mediatype>
							<trackindex>1</trackindex>
							<clipindex>317</clipindex>
						</link>
						<link>
							<linkclipref>clipitem-1352</linkclipref>
							<mediatype>audio</mediatype>
							<trackindex>1</trackindex>
							<clipindex>317</clipindex>
							<groupindex>1</groupindex>
						</link>
					</clipitem>
					<clipitem id="clipitem-318">
						<masterclipid>masterclip-2</masterclipid>
						<name>chandrika rocket equations</name>
						<start>24526</start>
						<end>24552</end>
						<in>41112</in>
						<out>41138</out>
						<file id="file-1" />
						<link>
							<linkclipref>clipitem-318</linkclipref>
							<mediatype>video</mediatype>
							<trackindex>1</trackindex>
							<clipindex>318</clipindex>
						</link>
						<link>
							<linkclipref>clipitem-1353</linkclipref>
							<mediatype>audio</mediatype>
							<trackindex>1</trackindex>
							<clipindex>318</clipindex>
							<groupindex>1</groupindex>
						</link>
					</clipitem>
					<clipitem id="clipitem-319">
						<masterclipid>masterclip-2</masterclipid>
						<name>chandrika rocket equations</name>
						<start>24552</start>
						<end>24671</end>
						<in>41140</in>
						<out>41259</out>
						<file id="file-1" />
						<link>
							<linkclipref>clipitem-319</linkclipref>
							<mediatype>video</mediatype>
							<trackindex>1</trackindex>
							<clipindex>319</clipindex>
						</link>
						<link>
							<linkclipref>clipitem-1354</linkclipref>
							<mediatype>audio</mediatype>
							<trackindex>1</trackindex>
							<clipindex>319</clipindex>
							<groupindex>1</groupindex>
						</link>
					</clipitem>
					<clipitem id="clipitem-320">
						<masterclipid>masterclip-2</masterclipid>
						<name>chandrika rocket equations</name>
						<start>24671</start>
						<end>24820</end>
						<in>41305</in>
						<out>41454</out>
						<file id="file-1" />
						<link>
							<linkclipref>clipitem-320</linkclipref>
							<mediatype>video</mediatype>
							<trackindex>1</trackindex>
							<clipindex>320</clipindex>
						</link>
						<link>
							<linkclipref>clipitem-1355</linkclipref>
							<mediatype>audio</mediatype>
							<trackindex>1</trackindex>
							<clipindex>320</clipindex>
							<groupindex>1</groupindex>
						</link>
					</clipitem>
					<clipitem id="clipitem-321">
						<masterclipid>masterclip-2</masterclipid>
						<name>chandrika rocket equations</name>
						<start>24820</start>
						<end>24856</end>
						<in>41465</in>
						<out>41501</out>
						<file id="file-1" />
						<link>
							<linkclipref>clipitem-321</linkclipref>
							<mediatype>video</mediatype>
							<trackindex>1</trackindex>
							<clipindex>321</clipindex>
						</link>
						<link>
							<linkclipref>clipitem-1356</linkclipref>
							<mediatype>audio</mediatype>
							<trackindex>1</trackindex>
							<clipindex>321</clipindex>
							<groupindex>1</groupindex>
						</link>
					</clipitem>
					<clipitem id="clipitem-322">
						<masterclipid>masterclip-2</masterclipid>
						<name>chandrika rocket equations</name>
						<start>24856</start>
						<end>24913</end>
						<in>41519</in>
						<out>41576</out>
						<file id="file-1" />
						<link>
							<linkclipref>clipitem-322</linkclipref>
							<mediatype>video</mediatype>
							<trackindex>1</trackindex>
							<clipindex>322</clipindex>
						</link>
						<link>
							<linkclipref>clipitem-1357</linkclipref>
							<mediatype>audio</mediatype>
							<trackindex>1</trackindex>
							<clipindex>322</clipindex>
							<groupindex>1</groupindex>
						</link>
					</clipitem>
					<clipitem id="clipitem-323">
						<masterclipid>masterclip-2</masterclipid>
						<name>chandrika rocket equations</name>
						<start>24913</start>
						<end>24944</end>
						<in>41581</in>
						<out>41612</out>
						<file id="file-1" />
						<link>
							<linkclipref>clipitem-323</linkclipref>
							<mediatype>video</mediatype>
							<trackindex>1</trackindex>
							<clipindex>323</clipindex>
						</link>
						<link>
							<linkclipref>clipitem-1358</linkclipref>
							<mediatype>audio</mediatype>
							<trackindex>1</trackindex>
							<clipindex>323</clipindex>
							<groupindex>1</groupindex>
						</link>
					</clipitem>
					<clipitem id="clipitem-324">
						<masterclipid>masterclip-2</masterclipid>
						<name>chandrika rocket equations</name>
						<start>24944</start>
						<end>24965</end>
						<in>41629</in>
						<out>41650</out>
						<file id="file-1" />
						<link>
							<linkclipref>clipitem-324</linkclipref>
							<mediatype>video</mediatype>
							<trackindex>1</trackindex>
							<clipindex>324</clipindex>
						</link>
						<link>
							<linkclipref>clipitem-1359</linkclipref>
							<mediatype>audio</mediatype>
							<trackindex>1</trackindex>
							<clipindex>324</clipindex>
							<groupindex>1</groupindex>
						</link>
					</clipitem>
					<clipitem id="clipitem-325">
						<masterclipid>masterclip-2</masterclipid>
						<name>chandrika rocket equations</name>
						<start>24965</start>
						<end>24998</end>
						<in>41662</in>
						<out>41695</out>
						<file id="file-1" />
						<link>
							<linkclipref>clipitem-325</linkclipref>
							<mediatype>video</mediatype>
							<trackindex>1</trackindex>
							<clipindex>325</clipindex>
						</link>
						<link>
							<linkclipref>clipitem-1360</linkclipref>
							<mediatype>audio</mediatype>
							<trackindex>1</trackindex>
							<clipindex>325</clipindex>
							<groupindex>1</groupindex>
						</link>
					</clipitem>
					<clipitem id="clipitem-326">
						<masterclipid>masterclip-2</masterclipid>
						<name>chandrika rocket equations</name>
						<start>24998</start>
						<end>25046</end>
						<in>41699</in>
						<out>41747</out>
						<file id="file-1" />
						<link>
							<linkclipref>clipitem-326</linkclipref>
							<mediatype>video</mediatype>
							<trackindex>1</trackindex>
							<clipindex>326</clipindex>
						</link>
						<link>
							<linkclipref>clipitem-1361</linkclipref>
							<mediatype>audio</mediatype>
							<trackindex>1</trackindex>
							<clipindex>326</clipindex>
							<groupindex>1</groupindex>
						</link>
					</clipitem>
					<clipitem id="clipitem-327">
						<masterclipid>masterclip-2</masterclipid>
						<name>chandrika rocket equations</name>
						<start>25046</start>
						<end>25126</end>
						<in>41761</in>
						<out>41841</out>
						<file id="file-1" />
						<link>
							<linkclipref>clipitem-327</linkclipref>
							<mediatype>video</mediatype>
							<trackindex>1</trackindex>
							<clipindex>327</clipindex>
						</link>
						<link>
							<linkclipref>clipitem-1362</linkclipref>
							<mediatype>audio</mediatype>
							<trackindex>1</trackindex>
							<clipindex>327</clipindex>
							<groupindex>1</groupindex>
						</link>
					</clipitem>
					<clipitem id="clipitem-328">
						<masterclipid>masterclip-2</masterclipid>
						<name>chandrika rocket equations</name>
						<start>25126</start>
						<end>25157</end>
						<in>41848</in>
						<out>41879</out>
						<file id="file-1" />
						<link>
							<linkclipref>clipitem-328</linkclipref>
							<mediatype>video</mediatype>
							<trackindex>1</trackindex>
							<clipindex>328</clipindex>
						</link>
						<link>
							<linkclipref>clipitem-1363</linkclipref>
							<mediatype>audio</mediatype>
							<trackindex>1</trackindex>
							<clipindex>328</clipindex>
							<groupindex>1</groupindex>
						</link>
					</clipitem>
					<clipitem id="clipitem-329">
						<masterclipid>masterclip-2</masterclipid>
						<name>chandrika rocket equations</name>
						<start>25157</start>
						<end>25244</end>
						<in>41905</in>
						<out>41992</out>
						<file id="file-1" />
						<link>
							<linkclipref>clipitem-329</linkclipref>
							<mediatype>video</mediatype>
							<trackindex>1</trackindex>
							<clipindex>329</clipindex>
						</link>
						<link>
							<linkclipref>clipitem-1364</linkclipref>
							<mediatype>audio</mediatype>
							<trackindex>1</trackindex>
							<clipindex>329</clipindex>
							<groupindex>1</groupindex>
						</link>
					</clipitem>
					<clipitem id="clipitem-330">
						<masterclipid>masterclip-2</masterclipid>
						<name>chandrika rocket equations</name>
						<start>25244</start>
						<end>25386</end>
						<in>42039</in>
						<out>42181</out>
						<file id="file-1" />
						<link>
							<linkclipref>clipitem-330</linkclipref>
							<mediatype>video</mediatype>
							<trackindex>1</trackindex>
							<clipindex>330</clipindex>
						</link>
						<link>
							<linkclipref>clipitem-1365</linkclipref>
							<mediatype>audio</mediatype>
							<trackindex>1</trackindex>
							<clipindex>330</clipindex>
							<groupindex>1</groupindex>
						</link>
					</clipitem>
					<clipitem id="clipitem-331">
						<masterclipid>masterclip-2</masterclipid>
						<name>chandrika rocket equations</name>
						<start>25386</start>
						<end>25426</end>
						<in>42198</in>
						<out>42238</out>
						<file id="file-1" />
						<link>
							<linkclipref>clipitem-331</linkclipref>
							<mediatype>video</mediatype>
							<trackindex>1</trackindex>
							<clipindex>331</clipindex>
						</link>
						<link>
							<linkclipref>clipitem-1366</linkclipref>
							<mediatype>audio</mediatype>
							<trackindex>1</trackindex>
							<clipindex>331</clipindex>
							<groupindex>1</groupindex>
						</link>
					</clipitem>
					<clipitem id="clipitem-332">
						<masterclipid>masterclip-2</masterclipid>
						<name>chandrika rocket equations</name>
						<start>25426</start>
						<end>25469</end>
						<in>42293</in>
						<out>42336</out>
						<file id="file-1" />
						<link>
							<linkclipref>clipitem-332</linkclipref>
							<mediatype>video</mediatype>
							<trackindex>1</trackindex>
							<clipindex>332</clipindex>
						</link>
						<link>
							<linkclipref>clipitem-1367</linkclipref>
							<mediatype>audio</mediatype>
							<trackindex>1</trackindex>
							<clipindex>332</clipindex>
							<groupindex>1</groupindex>
						</link>
					</clipitem>
					<clipitem id="clipitem-333">
						<masterclipid>masterclip-2</masterclipid>
						<name>chandrika rocket equations</name>
						<start>25469</start>
						<end>25500</end>
						<in>42383</in>
						<out>42414</out>
						<file id="file-1" />
						<link>
							<linkclipref>clipitem-333</linkclipref>
							<mediatype>video</mediatype>
							<trackindex>1</trackindex>
							<clipindex>333</clipindex>
						</link>
						<link>
							<linkclipref>clipitem-1368</linkclipref>
							<mediatype>audio</mediatype>
							<trackindex>1</trackindex>
							<clipindex>333</clipindex>
							<groupindex>1</groupindex>
						</link>
					</clipitem>
					<clipitem id="clipitem-334">
						<masterclipid>masterclip-2</masterclipid>
						<name>chandrika rocket equations</name>
						<start>25500</start>
						<end>25548</end>
						<in>42541</in>
						<out>42589</out>
						<file id="file-1" />
						<link>
							<linkclipref>clipitem-334</linkclipref>
							<mediatype>video</mediatype>
							<trackindex>1</trackindex>
							<clipindex>334</clipindex>
						</link>
						<link>
							<linkclipref>clipitem-1369</linkclipref>
							<mediatype>audio</mediatype>
							<trackindex>1</trackindex>
							<clipindex>334</clipindex>
							<groupindex>1</groupindex>
						</link>
					</clipitem>
					<clipitem id="clipitem-335">
						<masterclipid>masterclip-2</masterclipid>
						<name>chandrika rocket equations</name>
						<start>25548</start>
						<end>25672</end>
						<in>42617</in>
						<out>42741</out>
						<file id="file-1" />
						<link>
							<linkclipref>clipitem-335</linkclipref>
							<mediatype>video</mediatype>
							<trackindex>1</trackindex>
							<clipindex>335</clipindex>
						</link>
						<link>
							<linkclipref>clipitem-1370</linkclipref>
							<mediatype>audio</mediatype>
							<trackindex>1</trackindex>
							<clipindex>335</clipindex>
							<groupindex>1</groupindex>
						</link>
					</clipitem>
					<clipitem id="clipitem-336">
						<masterclipid>masterclip-2</masterclipid>
						<name>chandrika rocket equations</name>
						<start>25672</start>
						<end>25727</end>
						<in>42754</in>
						<out>42809</out>
						<file id="file-1" />
						<link>
							<linkclipref>clipitem-336</linkclipref>
							<mediatype>video</mediatype>
							<trackindex>1</trackindex>
							<clipindex>336</clipindex>
						</link>
						<link>
							<linkclipref>clipitem-1371</linkclipref>
							<mediatype>audio</mediatype>
							<trackindex>1</trackindex>
							<clipindex>336</clipindex>
							<groupindex>1</groupindex>
						</link>
					</clipitem>
					<clipitem id="clipitem-337">
						<masterclipid>masterclip-2</masterclipid>
						<name>chandrika rocket equations</name>
						<start>25727</start>
						<end>25752</end>
						<in>42849</in>
						<out>42874</out>
						<file id="file-1" />
						<link>
							<linkclipref>clipitem-337</linkclipref>
							<mediatype>video</mediatype>
							<trackindex>1</trackindex>
							<clipindex>337</clipindex>
						</link>
						<link>
							<linkclipref>clipitem-1372</linkclipref>
							<mediatype>audio</mediatype>
							<trackindex>1</trackindex>
							<clipindex>337</clipindex>
							<groupindex>1</groupindex>
						</link>
					</clipitem>
					<clipitem id="clipitem-338">
						<masterclipid>masterclip-2</masterclipid>
						<name>chandrika rocket equations</name>
						<start>25752</start>
						<end>25773</end>
						<in>42886</in>
						<out>42907</out>
						<file id="file-1" />
						<link>
							<linkclipref>clipitem-338</linkclipref>
							<mediatype>video</mediatype>
							<trackindex>1</trackindex>
							<clipindex>338</clipindex>
						</link>
						<link>
							<linkclipref>clipitem-1373</linkclipref>
							<mediatype>audio</mediatype>
							<trackindex>1</trackindex>
							<clipindex>338</clipindex>
							<groupindex>1</groupindex>
						</link>
					</clipitem>
					<clipitem id="clipitem-339">
						<masterclipid>masterclip-2</masterclipid>
						<name>chandrika rocket equations</name>
						<start>25773</start>
						<end>25956</end>
						<in>42946</in>
						<out>43129</out>
						<file id="file-1" />
						<link>
							<linkclipref>clipitem-339</linkclipref>
							<mediatype>video</mediatype>
							<trackindex>1</trackindex>
							<clipindex>339</clipindex>
						</link>
						<link>
							<linkclipref>clipitem-1374</linkclipref>
							<mediatype>audio</mediatype>
							<trackindex>1</trackindex>
							<clipindex>339</clipindex>
							<groupindex>1</groupindex>
						</link>
					</clipitem>
					<clipitem id="clipitem-340">
						<masterclipid>masterclip-2</masterclipid>
						<name>chandrika rocket equations</name>
						<start>25956</start>
						<end>25991</end>
						<in>43137</in>
						<out>43172</out>
						<file id="file-1" />
						<link>
							<linkclipref>clipitem-340</linkclipref>
							<mediatype>video</mediatype>
							<trackindex>1</trackindex>
							<clipindex>340</clipindex>
						</link>
						<link>
							<linkclipref>clipitem-1375</linkclipref>
							<mediatype>audio</mediatype>
							<trackindex>1</trackindex>
							<clipindex>340</clipindex>
							<groupindex>1</groupindex>
						</link>
					</clipitem>
					<clipitem id="clipitem-341">
						<masterclipid>masterclip-2</masterclipid>
						<name>chandrika rocket equations</name>
						<start>25991</start>
						<end>26028</end>
						<in>43194</in>
						<out>43231</out>
						<file id="file-1" />
						<link>
							<linkclipref>clipitem-341</linkclipref>
							<mediatype>video</mediatype>
							<trackindex>1</trackindex>
							<clipindex>341</clipindex>
						</link>
						<link>
							<linkclipref>clipitem-1376</linkclipref>
							<mediatype>audio</mediatype>
							<trackindex>1</trackindex>
							<clipindex>341</clipindex>
							<groupindex>1</groupindex>
						</link>
					</clipitem>
					<clipitem id="clipitem-342">
						<masterclipid>masterclip-2</masterclipid>
						<name>chandrika rocket equations</name>
						<start>26028</start>
						<end>26063</end>
						<in>43255</in>
						<out>43290</out>
						<file id="file-1" />
						<link>
							<linkclipref>clipitem-342</linkclipref>
							<mediatype>video</mediatype>
							<trackindex>1</trackindex>
							<clipindex>342</clipindex>
						</link>
						<link>
							<linkclipref>clipitem-1377</linkclipref>
							<mediatype>audio</mediatype>
							<trackindex>1</trackindex>
							<clipindex>342</clipindex>
							<groupindex>1</groupindex>
						</link>
					</clipitem>
					<clipitem id="clipitem-343">
						<masterclipid>masterclip-2</masterclipid>
						<name>chandrika rocket equations</name>
						<start>26063</start>
						<end>26099</end>
						<in>43352</in>
						<out>43388</out>
						<file id="file-1" />
						<link>
							<linkclipref>clipitem-343</linkclipref>
							<mediatype>video</mediatype>
							<trackindex>1</trackindex>
							<clipindex>343</clipindex>
						</link>
						<link>
							<linkclipref>clipitem-1378</linkclipref>
							<mediatype>audio</mediatype>
							<trackindex>1</trackindex>
							<clipindex>343</clipindex>
							<groupindex>1</groupindex>
						</link>
					</clipitem>
					<clipitem id="clipitem-344">
						<masterclipid>masterclip-2</masterclipid>
						<name>chandrika rocket equations</name>
						<start>26099</start>
						<end>26156</end>
						<in>43425</in>
						<out>43482</out>
						<file id="file-1" />
						<link>
							<linkclipref>clipitem-344</linkclipref>
							<mediatype>video</mediatype>
							<trackindex>1</trackindex>
							<clipindex>344</clipindex>
						</link>
						<link>
							<linkclipref>clipitem-1379</linkclipref>
							<mediatype>audio</mediatype>
							<trackindex>1</trackindex>
							<clipindex>344</clipindex>
							<groupindex>1</groupindex>
						</link>
					</clipitem>
					<clipitem id="clipitem-345">
						<masterclipid>masterclip-2</masterclipid>
						<name>chandrika rocket equations</name>
						<start>26156</start>
						<end>26179</end>
						<in>43613</in>
						<out>43636</out>
						<file id="file-1" />
						<link>
							<linkclipref>clipitem-345</linkclipref>
							<mediatype>video</mediatype>
							<trackindex>1</trackindex>
							<clipindex>345</clipindex>
						</link>
						<link>
							<linkclipref>clipitem-1380</linkclipref>
							<mediatype>audio</mediatype>
							<trackindex>1</trackindex>
							<clipindex>345</clipindex>
							<groupindex>1</groupindex>
						</link>
					</clipitem>
					<clipitem id="clipitem-346">
						<masterclipid>masterclip-2</masterclipid>
						<name>chandrika rocket equations</name>
						<start>26179</start>
						<end>26220</end>
						<in>43697</in>
						<out>43738</out>
						<file id="file-1" />
						<link>
							<linkclipref>clipitem-346</linkclipref>
							<mediatype>video</mediatype>
							<trackindex>1</trackindex>
							<clipindex>346</clipindex>
						</link>
						<link>
							<linkclipref>clipitem-1381</linkclipref>
							<mediatype>audio</mediatype>
							<trackindex>1</trackindex>
							<clipindex>346</clipindex>
							<groupindex>1</groupindex>
						</link>
					</clipitem>
					<clipitem id="clipitem-347">
						<masterclipid>masterclip-2</masterclipid>
						<name>chandrika rocket equations</name>
						<start>26220</start>
						<end>26283</end>
						<in>43752</in>
						<out>43815</out>
						<file id="file-1" />
						<link>
							<linkclipref>clipitem-347</linkclipref>
							<mediatype>video</mediatype>
							<trackindex>1</trackindex>
							<clipindex>347</clipindex>
						</link>
						<link>
							<linkclipref>clipitem-1382</linkclipref>
							<mediatype>audio</mediatype>
							<trackindex>1</trackindex>
							<clipindex>347</clipindex>
							<groupindex>1</groupindex>
						</link>
					</clipitem>
					<clipitem id="clipitem-348">
						<masterclipid>masterclip-2</masterclipid>
						<name>chandrika rocket equations</name>
						<start>26283</start>
						<end>26333</end>
						<in>43860</in>
						<out>43910</out>
						<file id="file-1" />
						<link>
							<linkclipref>clipitem-348</linkclipref>
							<mediatype>video</mediatype>
							<trackindex>1</trackindex>
							<clipindex>348</clipindex>
						</link>
						<link>
							<linkclipref>clipitem-1383</linkclipref>
							<mediatype>audio</mediatype>
							<trackindex>1</trackindex>
							<clipindex>348</clipindex>
							<groupindex>1</groupindex>
						</link>
					</clipitem>
					<clipitem id="clipitem-349">
						<masterclipid>masterclip-2</masterclipid>
						<name>chandrika rocket equations</name>
						<start>26333</start>
						<end>26399</end>
						<in>44035</in>
						<out>44101</out>
						<file id="file-1" />
						<link>
							<linkclipref>clipitem-349</linkclipref>
							<mediatype>video</mediatype>
							<trackindex>1</trackindex>
							<clipindex>349</clipindex>
						</link>
						<link>
							<linkclipref>clipitem-1384</linkclipref>
							<mediatype>audio</mediatype>
							<trackindex>1</trackindex>
							<clipindex>349</clipindex>
							<groupindex>1</groupindex>
						</link>
					</clipitem>
					<clipitem id="clipitem-350">
						<masterclipid>masterclip-2</masterclipid>
						<name>chandrika rocket equations</name>
						<start>26399</start>
						<end>26439</end>
						<in>44124</in>
						<out>44164</out>
						<file id="file-1" />
						<link>
							<linkclipref>clipitem-350</linkclipref>
							<mediatype>video</mediatype>
							<trackindex>1</trackindex>
							<clipindex>350</clipindex>
						</link>
						<link>
							<linkclipref>clipitem-1385</linkclipref>
							<mediatype>audio</mediatype>
							<trackindex>1</trackindex>
							<clipindex>350</clipindex>
							<groupindex>1</groupindex>
						</link>
					</clipitem>
					<clipitem id="clipitem-351">
						<masterclipid>masterclip-2</masterclipid>
						<name>chandrika rocket equations</name>
						<start>26439</start>
						<end>26454</end>
						<in>44166</in>
						<out>44181</out>
						<file id="file-1" />
						<link>
							<linkclipref>clipitem-351</linkclipref>
							<mediatype>video</mediatype>
							<trackindex>1</trackindex>
							<clipindex>351</clipindex>
						</link>
						<link>
							<linkclipref>clipitem-1386</linkclipref>
							<mediatype>audio</mediatype>
							<trackindex>1</trackindex>
							<clipindex>351</clipindex>
							<groupindex>1</groupindex>
						</link>
					</clipitem>
					<clipitem id="clipitem-352">
						<masterclipid>masterclip-2</masterclipid>
						<name>chandrika rocket equations</name>
						<start>26454</start>
						<end>26477</end>
						<in>44194</in>
						<out>44217</out>
						<file id="file-1" />
						<link>
							<linkclipref>clipitem-352</linkclipref>
							<mediatype>video</mediatype>
							<trackindex>1</trackindex>
							<clipindex>352</clipindex>
						</link>
						<link>
							<linkclipref>clipitem-1387</linkclipref>
							<mediatype>audio</mediatype>
							<trackindex>1</trackindex>
							<clipindex>352</clipindex>
							<groupindex>1</groupindex>
						</link>
					</clipitem>
					<clipitem id="clipitem-353">
						<masterclipid>masterclip-2</masterclipid>
						<name>chandrika rocket equations</name>
						<start>26477</start>
						<end>26541</end>
						<in>44239</in>
						<out>44303</out>
						<file id="file-1" />
						<link>
							<linkclipref>clipitem-353</linkclipref>
							<mediatype>video</mediatype>
							<trackindex>1</trackindex>
							<clipindex>353</clipindex>
						</link>
						<link>
							<linkclipref>clipitem-1388</linkclipref>
							<mediatype>audio</mediatype>
							<trackindex>1</trackindex>
							<clipindex>353</clipindex>
							<groupindex>1</groupindex>
						</link>
					</clipitem>
					<clipitem id="clipitem-354">
						<masterclipid>masterclip-2</masterclipid>
						<name>chandrika rocket equations</name>
						<start>26541</start>
						<end>26561</end>
						<in>44416</in>
						<out>44436</out>
						<file id="file-1" />
						<link>
							<linkclipref>clipitem-354</linkclipref>
							<mediatype>video</mediatype>
							<trackindex>1</trackindex>
							<clipindex>354</clipindex>
						</link>
						<link>
							<linkclipref>clipitem-1389</linkclipref>
							<mediatype>audio</mediatype>
							<trackindex>1</trackindex>
							<clipindex>354</clipindex>
							<groupindex>1</groupindex>
						</link>
					</clipitem>
					<clipitem id="clipitem-355">
						<masterclipid>masterclip-2</masterclipid>
						<name>chandrika rocket equations</name>
						<start>26561</start>
						<end>26580</end>
						<in>44442</in>
						<out>44461</out>
						<file id="file-1" />
						<link>
							<linkclipref>clipitem-355</linkclipref>
							<mediatype>video</mediatype>
							<trackindex>1</trackindex>
							<clipindex>355</clipindex>
						</link>
						<link>
							<linkclipref>clipitem-1390</linkclipref>
							<mediatype>audio</mediatype>
							<trackindex>1</trackindex>
							<clipindex>355</clipindex>
							<groupindex>1</groupindex>
						</link>
					</clipitem>
					<clipitem id="clipitem-356">
						<masterclipid>masterclip-2</masterclipid>
						<name>chandrika rocket equations</name>
						<start>26580</start>
						<end>26632</end>
						<in>44544</in>
						<out>44596</out>
						<file id="file-1" />
						<link>
							<linkclipref>clipitem-356</linkclipref>
							<mediatype>video</mediatype>
							<trackindex>1</trackindex>
							<clipindex>356</clipindex>
						</link>
						<link>
							<linkclipref>clipitem-1391</linkclipref>
							<mediatype>audio</mediatype>
							<trackindex>1</trackindex>
							<clipindex>356</clipindex>
							<groupindex>1</groupindex>
						</link>
					</clipitem>
					<clipitem id="clipitem-357">
						<masterclipid>masterclip-2</masterclipid>
						<name>chandrika rocket equations</name>
						<start>26632</start>
						<end>26724</end>
						<in>44619</in>
						<out>44711</out>
						<file id="file-1" />
						<link>
							<linkclipref>clipitem-357</linkclipref>
							<mediatype>video</mediatype>
							<trackindex>1</trackindex>
							<clipindex>357</clipindex>
						</link>
						<link>
							<linkclipref>clipitem-1392</linkclipref>
							<mediatype>audio</mediatype>
							<trackindex>1</trackindex>
							<clipindex>357</clipindex>
							<groupindex>1</groupindex>
						</link>
					</clipitem>
					<clipitem id="clipitem-358">
						<masterclipid>masterclip-2</masterclipid>
						<name>chandrika rocket equations</name>
						<start>26724</start>
						<end>26764</end>
						<in>44730</in>
						<out>44770</out>
						<file id="file-1" />
						<link>
							<linkclipref>clipitem-358</linkclipref>
							<mediatype>video</mediatype>
							<trackindex>1</trackindex>
							<clipindex>358</clipindex>
						</link>
						<link>
							<linkclipref>clipitem-1393</linkclipref>
							<mediatype>audio</mediatype>
							<trackindex>1</trackindex>
							<clipindex>358</clipindex>
							<groupindex>1</groupindex>
						</link>
					</clipitem>
					<clipitem id="clipitem-359">
						<masterclipid>masterclip-2</masterclipid>
						<name>chandrika rocket equations</name>
						<start>26764</start>
						<end>26780</end>
						<in>44792</in>
						<out>44808</out>
						<file id="file-1" />
						<link>
							<linkclipref>clipitem-359</linkclipref>
							<mediatype>video</mediatype>
							<trackindex>1</trackindex>
							<clipindex>359</clipindex>
						</link>
						<link>
							<linkclipref>clipitem-1394</linkclipref>
							<mediatype>audio</mediatype>
							<trackindex>1</trackindex>
							<clipindex>359</clipindex>
							<groupindex>1</groupindex>
						</link>
					</clipitem>
					<clipitem id="clipitem-360">
						<masterclipid>masterclip-2</masterclipid>
						<name>chandrika rocket equations</name>
						<start>26780</start>
						<end>26865</end>
						<in>44827</in>
						<out>44912</out>
						<file id="file-1" />
						<link>
							<linkclipref>clipitem-360</linkclipref>
							<mediatype>video</mediatype>
							<trackindex>1</trackindex>
							<clipindex>360</clipindex>
						</link>
						<link>
							<linkclipref>clipitem-1395</linkclipref>
							<mediatype>audio</mediatype>
							<trackindex>1</trackindex>
							<clipindex>360</clipindex>
							<groupindex>1</groupindex>
						</link>
					</clipitem>
					<clipitem id="clipitem-361">
						<masterclipid>masterclip-2</masterclipid>
						<name>chandrika rocket equations</name>
						<start>26865</start>
						<end>26983</end>
						<in>44921</in>
						<out>45039</out>
						<file id="file-1" />
						<link>
							<linkclipref>clipitem-361</linkclipref>
							<mediatype>video</mediatype>
							<trackindex>1</trackindex>
							<clipindex>361</clipindex>
						</link>
						<link>
							<linkclipref>clipitem-1396</linkclipref>
							<mediatype>audio</mediatype>
							<trackindex>1</trackindex>
							<clipindex>361</clipindex>
							<groupindex>1</groupindex>
						</link>
					</clipitem>
					<clipitem id="clipitem-362">
						<masterclipid>masterclip-2</masterclipid>
						<name>chandrika rocket equations</name>
						<start>26983</start>
						<end>27013</end>
						<in>45044</in>
						<out>45074</out>
						<file id="file-1" />
						<link>
							<linkclipref>clipitem-362</linkclipref>
							<mediatype>video</mediatype>
							<trackindex>1</trackindex>
							<clipindex>362</clipindex>
						</link>
						<link>
							<linkclipref>clipitem-1397</linkclipref>
							<mediatype>audio</mediatype>
							<trackindex>1</trackindex>
							<clipindex>362</clipindex>
							<groupindex>1</groupindex>
						</link>
					</clipitem>
					<clipitem id="clipitem-363">
						<masterclipid>masterclip-2</masterclipid>
						<name>chandrika rocket equations</name>
						<start>27013</start>
						<end>27035</end>
						<in>45084</in>
						<out>45106</out>
						<file id="file-1" />
						<link>
							<linkclipref>clipitem-363</linkclipref>
							<mediatype>video</mediatype>
							<trackindex>1</trackindex>
							<clipindex>363</clipindex>
						</link>
						<link>
							<linkclipref>clipitem-1398</linkclipref>
							<mediatype>audio</mediatype>
							<trackindex>1</trackindex>
							<clipindex>363</clipindex>
							<groupindex>1</groupindex>
						</link>
					</clipitem>
					<clipitem id="clipitem-364">
						<masterclipid>masterclip-2</masterclipid>
						<name>chandrika rocket equations</name>
						<start>27035</start>
						<end>27069</end>
						<in>45113</in>
						<out>45147</out>
						<file id="file-1" />
						<link>
							<linkclipref>clipitem-364</linkclipref>
							<mediatype>video</mediatype>
							<trackindex>1</trackindex>
							<clipindex>364</clipindex>
						</link>
						<link>
							<linkclipref>clipitem-1399</linkclipref>
							<mediatype>audio</mediatype>
							<trackindex>1</trackindex>
							<clipindex>364</clipindex>
							<groupindex>1</groupindex>
						</link>
					</clipitem>
					<clipitem id="clipitem-365">
						<masterclipid>masterclip-2</masterclipid>
						<name>chandrika rocket equations</name>
						<start>27069</start>
						<end>27086</end>
						<in>45175</in>
						<out>45192</out>
						<file id="file-1" />
						<link>
							<linkclipref>clipitem-365</linkclipref>
							<mediatype>video</mediatype>
							<trackindex>1</trackindex>
							<clipindex>365</clipindex>
						</link>
						<link>
							<linkclipref>clipitem-1400</linkclipref>
							<mediatype>audio</mediatype>
							<trackindex>1</trackindex>
							<clipindex>365</clipindex>
							<groupindex>1</groupindex>
						</link>
					</clipitem>
					<clipitem id="clipitem-366">
						<masterclipid>masterclip-2</masterclipid>
						<name>chandrika rocket equations</name>
						<start>27086</start>
						<end>27122</end>
						<in>45208</in>
						<out>45244</out>
						<file id="file-1" />
						<link>
							<linkclipref>clipitem-366</linkclipref>
							<mediatype>video</mediatype>
							<trackindex>1</trackindex>
							<clipindex>366</clipindex>
						</link>
						<link>
							<linkclipref>clipitem-1401</linkclipref>
							<mediatype>audio</mediatype>
							<trackindex>1</trackindex>
							<clipindex>366</clipindex>
							<groupindex>1</groupindex>
						</link>
					</clipitem>
					<clipitem id="clipitem-367">
						<masterclipid>masterclip-2</masterclipid>
						<name>chandrika rocket equations</name>
						<start>27122</start>
						<end>27159</end>
						<in>45248</in>
						<out>45285</out>
						<file id="file-1" />
						<link>
							<linkclipref>clipitem-367</linkclipref>
							<mediatype>video</mediatype>
							<trackindex>1</trackindex>
							<clipindex>367</clipindex>
						</link>
						<link>
							<linkclipref>clipitem-1402</linkclipref>
							<mediatype>audio</mediatype>
							<trackindex>1</trackindex>
							<clipindex>367</clipindex>
							<groupindex>1</groupindex>
						</link>
					</clipitem>
					<clipitem id="clipitem-368">
						<masterclipid>masterclip-2</masterclipid>
						<name>chandrika rocket equations</name>
						<start>27159</start>
						<end>27255</end>
						<in>45328</in>
						<out>45424</out>
						<file id="file-1" />
						<link>
							<linkclipref>clipitem-368</linkclipref>
							<mediatype>video</mediatype>
							<trackindex>1</trackindex>
							<clipindex>368</clipindex>
						</link>
						<link>
							<linkclipref>clipitem-1403</linkclipref>
							<mediatype>audio</mediatype>
							<trackindex>1</trackindex>
							<clipindex>368</clipindex>
							<groupindex>1</groupindex>
						</link>
					</clipitem>
					<clipitem id="clipitem-369">
						<masterclipid>masterclip-2</masterclipid>
						<name>chandrika rocket equations</name>
						<start>27255</start>
						<end>27296</end>
						<in>45434</in>
						<out>45475</out>
						<file id="file-1" />
						<link>
							<linkclipref>clipitem-369</linkclipref>
							<mediatype>video</mediatype>
							<trackindex>1</trackindex>
							<clipindex>369</clipindex>
						</link>
						<link>
							<linkclipref>clipitem-1404</linkclipref>
							<mediatype>audio</mediatype>
							<trackindex>1</trackindex>
							<clipindex>369</clipindex>
							<groupindex>1</groupindex>
						</link>
					</clipitem>
					<clipitem id="clipitem-370">
						<masterclipid>masterclip-2</masterclipid>
						<name>chandrika rocket equations</name>
						<start>27296</start>
						<end>27338</end>
						<in>45514</in>
						<out>45556</out>
						<file id="file-1" />
						<link>
							<linkclipref>clipitem-370</linkclipref>
							<mediatype>video</mediatype>
							<trackindex>1</trackindex>
							<clipindex>370</clipindex>
						</link>
						<link>
							<linkclipref>clipitem-1405</linkclipref>
							<mediatype>audio</mediatype>
							<trackindex>1</trackindex>
							<clipindex>370</clipindex>
							<groupindex>1</groupindex>
						</link>
					</clipitem>
					<clipitem id="clipitem-371">
						<masterclipid>masterclip-2</masterclipid>
						<name>chandrika rocket equations</name>
						<start>27338</start>
						<end>27361</end>
						<in>45605</in>
						<out>45628</out>
						<file id="file-1" />
						<link>
							<linkclipref>clipitem-371</linkclipref>
							<mediatype>video</mediatype>
							<trackindex>1</trackindex>
							<clipindex>371</clipindex>
						</link>
						<link>
							<linkclipref>clipitem-1406</linkclipref>
							<mediatype>audio</mediatype>
							<trackindex>1</trackindex>
							<clipindex>371</clipindex>
							<groupindex>1</groupindex>
						</link>
					</clipitem>
					<clipitem id="clipitem-372">
						<masterclipid>masterclip-2</masterclipid>
						<name>chandrika rocket equations</name>
						<start>27361</start>
						<end>27549</end>
						<in>45631</in>
						<out>45819</out>
						<file id="file-1" />
						<link>
							<linkclipref>clipitem-372</linkclipref>
							<mediatype>video</mediatype>
							<trackindex>1</trackindex>
							<clipindex>372</clipindex>
						</link>
						<link>
							<linkclipref>clipitem-1407</linkclipref>
							<mediatype>audio</mediatype>
							<trackindex>1</trackindex>
							<clipindex>372</clipindex>
							<groupindex>1</groupindex>
						</link>
					</clipitem>
					<clipitem id="clipitem-373">
						<masterclipid>masterclip-2</masterclipid>
						<name>chandrika rocket equations</name>
						<start>27549</start>
						<end>27599</end>
						<in>45834</in>
						<out>45884</out>
						<file id="file-1" />
						<link>
							<linkclipref>clipitem-373</linkclipref>
							<mediatype>video</mediatype>
							<trackindex>1</trackindex>
							<clipindex>373</clipindex>
						</link>
						<link>
							<linkclipref>clipitem-1408</linkclipref>
							<mediatype>audio</mediatype>
							<trackindex>1</trackindex>
							<clipindex>373</clipindex>
							<groupindex>1</groupindex>
						</link>
					</clipitem>
					<clipitem id="clipitem-374">
						<masterclipid>masterclip-2</masterclipid>
						<name>chandrika rocket equations</name>
						<start>27599</start>
						<end>27629</end>
						<in>45890</in>
						<out>45920</out>
						<file id="file-1" />
						<link>
							<linkclipref>clipitem-374</linkclipref>
							<mediatype>video</mediatype>
							<trackindex>1</trackindex>
							<clipindex>374</clipindex>
						</link>
						<link>
							<linkclipref>clipitem-1409</linkclipref>
							<mediatype>audio</mediatype>
							<trackindex>1</trackindex>
							<clipindex>374</clipindex>
							<groupindex>1</groupindex>
						</link>
					</clipitem>
					<clipitem id="clipitem-375">
						<masterclipid>masterclip-2</masterclipid>
						<name>chandrika rocket equations</name>
						<start>27629</start>
						<end>27680</end>
						<in>45929</in>
						<out>45980</out>
						<file id="file-1" />
						<link>
							<linkclipref>clipitem-375</linkclipref>
							<mediatype>video</mediatype>
							<trackindex>1</trackindex>
							<clipindex>375</clipindex>
						</link>
						<link>
							<linkclipref>clipitem-1410</linkclipref>
							<mediatype>audio</mediatype>
							<trackindex>1</trackindex>
							<clipindex>375</clipindex>
							<groupindex>1</groupindex>
						</link>
					</clipitem>
					<clipitem id="clipitem-376">
						<masterclipid>masterclip-2</masterclipid>
						<name>chandrika rocket equations</name>
						<start>27680</start>
						<end>27695</end>
						<in>45993</in>
						<out>46008</out>
						<file id="file-1" />
						<link>
							<linkclipref>clipitem-376</linkclipref>
							<mediatype>video</mediatype>
							<trackindex>1</trackindex>
							<clipindex>376</clipindex>
						</link>
						<link>
							<linkclipref>clipitem-1411</linkclipref>
							<mediatype>audio</mediatype>
							<trackindex>1</trackindex>
							<clipindex>376</clipindex>
							<groupindex>1</groupindex>
						</link>
					</clipitem>
					<clipitem id="clipitem-377">
						<masterclipid>masterclip-2</masterclipid>
						<name>chandrika rocket equations</name>
						<start>27695</start>
						<end>27711</end>
						<in>46032</in>
						<out>46048</out>
						<file id="file-1" />
						<link>
							<linkclipref>clipitem-377</linkclipref>
							<mediatype>video</mediatype>
							<trackindex>1</trackindex>
							<clipindex>377</clipindex>
						</link>
						<link>
							<linkclipref>clipitem-1412</linkclipref>
							<mediatype>audio</mediatype>
							<trackindex>1</trackindex>
							<clipindex>377</clipindex>
							<groupindex>1</groupindex>
						</link>
					</clipitem>
					<clipitem id="clipitem-378">
						<masterclipid>masterclip-2</masterclipid>
						<name>chandrika rocket equations</name>
						<start>27711</start>
						<end>27727</end>
						<in>46055</in>
						<out>46071</out>
						<file id="file-1" />
						<link>
							<linkclipref>clipitem-378</linkclipref>
							<mediatype>video</mediatype>
							<trackindex>1</trackindex>
							<clipindex>378</clipindex>
						</link>
						<link>
							<linkclipref>clipitem-1413</linkclipref>
							<mediatype>audio</mediatype>
							<trackindex>1</trackindex>
							<clipindex>378</clipindex>
							<groupindex>1</groupindex>
						</link>
					</clipitem>
					<clipitem id="clipitem-379">
						<masterclipid>masterclip-2</masterclipid>
						<name>chandrika rocket equations</name>
						<start>27727</start>
						<end>27783</end>
						<in>46098</in>
						<out>46154</out>
						<file id="file-1" />
						<link>
							<linkclipref>clipitem-379</linkclipref>
							<mediatype>video</mediatype>
							<trackindex>1</trackindex>
							<clipindex>379</clipindex>
						</link>
						<link>
							<linkclipref>clipitem-1414</linkclipref>
							<mediatype>audio</mediatype>
							<trackindex>1</trackindex>
							<clipindex>379</clipindex>
							<groupindex>1</groupindex>
						</link>
					</clipitem>
					<clipitem id="clipitem-380">
						<masterclipid>masterclip-2</masterclipid>
						<name>chandrika rocket equations</name>
						<start>27783</start>
						<end>27839</end>
						<in>46159</in>
						<out>46215</out>
						<file id="file-1" />
						<link>
							<linkclipref>clipitem-380</linkclipref>
							<mediatype>video</mediatype>
							<trackindex>1</trackindex>
							<clipindex>380</clipindex>
						</link>
						<link>
							<linkclipref>clipitem-1415</linkclipref>
							<mediatype>audio</mediatype>
							<trackindex>1</trackindex>
							<clipindex>380</clipindex>
							<groupindex>1</groupindex>
						</link>
					</clipitem>
					<clipitem id="clipitem-381">
						<masterclipid>masterclip-2</masterclipid>
						<name>chandrika rocket equations</name>
						<start>27839</start>
						<end>27854</end>
						<in>46230</in>
						<out>46245</out>
						<file id="file-1" />
						<link>
							<linkclipref>clipitem-381</linkclipref>
							<mediatype>video</mediatype>
							<trackindex>1</trackindex>
							<clipindex>381</clipindex>
						</link>
						<link>
							<linkclipref>clipitem-1416</linkclipref>
							<mediatype>audio</mediatype>
							<trackindex>1</trackindex>
							<clipindex>381</clipindex>
							<groupindex>1</groupindex>
						</link>
					</clipitem>
					<clipitem id="clipitem-382">
						<masterclipid>masterclip-2</masterclipid>
						<name>chandrika rocket equations</name>
						<start>27854</start>
						<end>27908</end>
						<in>46279</in>
						<out>46333</out>
						<file id="file-1" />
						<link>
							<linkclipref>clipitem-382</linkclipref>
							<mediatype>video</mediatype>
							<trackindex>1</trackindex>
							<clipindex>382</clipindex>
						</link>
						<link>
							<linkclipref>clipitem-1417</linkclipref>
							<mediatype>audio</mediatype>
							<trackindex>1</trackindex>
							<clipindex>382</clipindex>
							<groupindex>1</groupindex>
						</link>
					</clipitem>
					<clipitem id="clipitem-383">
						<masterclipid>masterclip-2</masterclipid>
						<name>chandrika rocket equations</name>
						<start>27908</start>
						<end>28069</end>
						<in>46387</in>
						<out>46548</out>
						<file id="file-1" />
						<link>
							<linkclipref>clipitem-383</linkclipref>
							<mediatype>video</mediatype>
							<trackindex>1</trackindex>
							<clipindex>383</clipindex>
						</link>
						<link>
							<linkclipref>clipitem-1418</linkclipref>
							<mediatype>audio</mediatype>
							<trackindex>1</trackindex>
							<clipindex>383</clipindex>
							<groupindex>1</groupindex>
						</link>
					</clipitem>
					<clipitem id="clipitem-384">
						<masterclipid>masterclip-2</masterclipid>
						<name>chandrika rocket equations</name>
						<start>28069</start>
						<end>28085</end>
						<in>46564</in>
						<out>46580</out>
						<file id="file-1" />
						<link>
							<linkclipref>clipitem-384</linkclipref>
							<mediatype>video</mediatype>
							<trackindex>1</trackindex>
							<clipindex>384</clipindex>
						</link>
						<link>
							<linkclipref>clipitem-1419</linkclipref>
							<mediatype>audio</mediatype>
							<trackindex>1</trackindex>
							<clipindex>384</clipindex>
							<groupindex>1</groupindex>
						</link>
					</clipitem>
					<clipitem id="clipitem-385">
						<masterclipid>masterclip-2</masterclipid>
						<name>chandrika rocket equations</name>
						<start>28085</start>
						<end>28117</end>
						<in>46583</in>
						<out>46615</out>
						<file id="file-1" />
						<link>
							<linkclipref>clipitem-385</linkclipref>
							<mediatype>video</mediatype>
							<trackindex>1</trackindex>
							<clipindex>385</clipindex>
						</link>
						<link>
							<linkclipref>clipitem-1420</linkclipref>
							<mediatype>audio</mediatype>
							<trackindex>1</trackindex>
							<clipindex>385</clipindex>
							<groupindex>1</groupindex>
						</link>
					</clipitem>
					<clipitem id="clipitem-386">
						<masterclipid>masterclip-2</masterclipid>
						<name>chandrika rocket equations</name>
						<start>28117</start>
						<end>28211</end>
						<in>46663</in>
						<out>46757</out>
						<file id="file-1" />
						<link>
							<linkclipref>clipitem-386</linkclipref>
							<mediatype>video</mediatype>
							<trackindex>1</trackindex>
							<clipindex>386</clipindex>
						</link>
						<link>
							<linkclipref>clipitem-1421</linkclipref>
							<mediatype>audio</mediatype>
							<trackindex>1</trackindex>
							<clipindex>386</clipindex>
							<groupindex>1</groupindex>
						</link>
					</clipitem>
					<clipitem id="clipitem-387">
						<masterclipid>masterclip-2</masterclipid>
						<name>chandrika rocket equations</name>
						<start>28211</start>
						<end>28229</end>
						<in>46767</in>
						<out>46785</out>
						<file id="file-1" />
						<link>
							<linkclipref>clipitem-387</linkclipref>
							<mediatype>video</mediatype>
							<trackindex>1</trackindex>
							<clipindex>387</clipindex>
						</link>
						<link>
							<linkclipref>clipitem-1422</linkclipref>
							<mediatype>audio</mediatype>
							<trackindex>1</trackindex>
							<clipindex>387</clipindex>
							<groupindex>1</groupindex>
						</link>
					</clipitem>
					<clipitem id="clipitem-388">
						<masterclipid>masterclip-2</masterclipid>
						<name>chandrika rocket equations</name>
						<start>28229</start>
						<end>28305</end>
						<in>46788</in>
						<out>46864</out>
						<file id="file-1" />
						<link>
							<linkclipref>clipitem-388</linkclipref>
							<mediatype>video</mediatype>
							<trackindex>1</trackindex>
							<clipindex>388</clipindex>
						</link>
						<link>
							<linkclipref>clipitem-1423</linkclipref>
							<mediatype>audio</mediatype>
							<trackindex>1</trackindex>
							<clipindex>388</clipindex>
							<groupindex>1</groupindex>
						</link>
					</clipitem>
					<clipitem id="clipitem-389">
						<masterclipid>masterclip-2</masterclipid>
						<name>chandrika rocket equations</name>
						<start>28305</start>
						<end>28364</end>
						<in>46868</in>
						<out>46927</out>
						<file id="file-1" />
						<link>
							<linkclipref>clipitem-389</linkclipref>
							<mediatype>video</mediatype>
							<trackindex>1</trackindex>
							<clipindex>389</clipindex>
						</link>
						<link>
							<linkclipref>clipitem-1424</linkclipref>
							<mediatype>audio</mediatype>
							<trackindex>1</trackindex>
							<clipindex>389</clipindex>
							<groupindex>1</groupindex>
						</link>
					</clipitem>
					<clipitem id="clipitem-390">
						<masterclipid>masterclip-2</masterclipid>
						<name>chandrika rocket equations</name>
						<start>28364</start>
						<end>28406</end>
						<in>46937</in>
						<out>46979</out>
						<file id="file-1" />
						<link>
							<linkclipref>clipitem-390</linkclipref>
							<mediatype>video</mediatype>
							<trackindex>1</trackindex>
							<clipindex>390</clipindex>
						</link>
						<link>
							<linkclipref>clipitem-1425</linkclipref>
							<mediatype>audio</mediatype>
							<trackindex>1</trackindex>
							<clipindex>390</clipindex>
							<groupindex>1</groupindex>
						</link>
					</clipitem>
					<clipitem id="clipitem-391">
						<masterclipid>masterclip-2</masterclipid>
						<name>chandrika rocket equations</name>
						<start>28406</start>
						<end>28519</end>
						<in>46993</in>
						<out>47106</out>
						<file id="file-1" />
						<link>
							<linkclipref>clipitem-391</linkclipref>
							<mediatype>video</mediatype>
							<trackindex>1</trackindex>
							<clipindex>391</clipindex>
						</link>
						<link>
							<linkclipref>clipitem-1426</linkclipref>
							<mediatype>audio</mediatype>
							<trackindex>1</trackindex>
							<clipindex>391</clipindex>
							<groupindex>1</groupindex>
						</link>
					</clipitem>
					<clipitem id="clipitem-392">
						<masterclipid>masterclip-2</masterclipid>
						<name>chandrika rocket equations</name>
						<start>28519</start>
						<end>28584</end>
						<in>47113</in>
						<out>47178</out>
						<file id="file-1" />
						<link>
							<linkclipref>clipitem-392</linkclipref>
							<mediatype>video</mediatype>
							<trackindex>1</trackindex>
							<clipindex>392</clipindex>
						</link>
						<link>
							<linkclipref>clipitem-1427</linkclipref>
							<mediatype>audio</mediatype>
							<trackindex>1</trackindex>
							<clipindex>392</clipindex>
							<groupindex>1</groupindex>
						</link>
					</clipitem>
					<clipitem id="clipitem-393">
						<masterclipid>masterclip-2</masterclipid>
						<name>chandrika rocket equations</name>
						<start>28584</start>
						<end>28622</end>
						<in>47268</in>
						<out>47306</out>
						<file id="file-1" />
						<link>
							<linkclipref>clipitem-393</linkclipref>
							<mediatype>video</mediatype>
							<trackindex>1</trackindex>
							<clipindex>393</clipindex>
						</link>
						<link>
							<linkclipref>clipitem-1428</linkclipref>
							<mediatype>audio</mediatype>
							<trackindex>1</trackindex>
							<clipindex>393</clipindex>
							<groupindex>1</groupindex>
						</link>
					</clipitem>
					<clipitem id="clipitem-394">
						<masterclipid>masterclip-2</masterclipid>
						<name>chandrika rocket equations</name>
						<start>28622</start>
						<end>28640</end>
						<in>47333</in>
						<out>47351</out>
						<file id="file-1" />
						<link>
							<linkclipref>clipitem-394</linkclipref>
							<mediatype>video</mediatype>
							<trackindex>1</trackindex>
							<clipindex>394</clipindex>
						</link>
						<link>
							<linkclipref>clipitem-1429</linkclipref>
							<mediatype>audio</mediatype>
							<trackindex>1</trackindex>
							<clipindex>394</clipindex>
							<groupindex>1</groupindex>
						</link>
					</clipitem>
					<clipitem id="clipitem-395">
						<masterclipid>masterclip-2</masterclipid>
						<name>chandrika rocket equations</name>
						<start>28640</start>
						<end>28663</end>
						<in>47481</in>
						<out>47504</out>
						<file id="file-1" />
						<link>
							<linkclipref>clipitem-395</linkclipref>
							<mediatype>video</mediatype>
							<trackindex>1</trackindex>
							<clipindex>395</clipindex>
						</link>
						<link>
							<linkclipref>clipitem-1430</linkclipref>
							<mediatype>audio</mediatype>
							<trackindex>1</trackindex>
							<clipindex>395</clipindex>
							<groupindex>1</groupindex>
						</link>
					</clipitem>
					<clipitem id="clipitem-396">
						<masterclipid>masterclip-2</masterclipid>
						<name>chandrika rocket equations</name>
						<start>28663</start>
						<end>28704</end>
						<in>47606</in>
						<out>47647</out>
						<file id="file-1" />
						<link>
							<linkclipref>clipitem-396</linkclipref>
							<mediatype>video</mediatype>
							<trackindex>1</trackindex>
							<clipindex>396</clipindex>
						</link>
						<link>
							<linkclipref>clipitem-1431</linkclipref>
							<mediatype>audio</mediatype>
							<trackindex>1</trackindex>
							<clipindex>396</clipindex>
							<groupindex>1</groupindex>
						</link>
					</clipitem>
					<clipitem id="clipitem-397">
						<masterclipid>masterclip-2</masterclipid>
						<name>chandrika rocket equations</name>
						<start>28704</start>
						<end>28764</end>
						<in>47666</in>
						<out>47726</out>
						<file id="file-1" />
						<link>
							<linkclipref>clipitem-397</linkclipref>
							<mediatype>video</mediatype>
							<trackindex>1</trackindex>
							<clipindex>397</clipindex>
						</link>
						<link>
							<linkclipref>clipitem-1432</linkclipref>
							<mediatype>audio</mediatype>
							<trackindex>1</trackindex>
							<clipindex>397</clipindex>
							<groupindex>1</groupindex>
						</link>
					</clipitem>
					<clipitem id="clipitem-398">
						<masterclipid>masterclip-2</masterclipid>
						<name>chandrika rocket equations</name>
						<start>28764</start>
						<end>28783</end>
						<in>47813</in>
						<out>47832</out>
						<file id="file-1" />
						<link>
							<linkclipref>clipitem-398</linkclipref>
							<mediatype>video</mediatype>
							<trackindex>1</trackindex>
							<clipindex>398</clipindex>
						</link>
						<link>
							<linkclipref>clipitem-1433</linkclipref>
							<mediatype>audio</mediatype>
							<trackindex>1</trackindex>
							<clipindex>398</clipindex>
							<groupindex>1</groupindex>
						</link>
					</clipitem>
					<clipitem id="clipitem-399">
						<masterclipid>masterclip-2</masterclipid>
						<name>chandrika rocket equations</name>
						<start>28783</start>
						<end>28867</end>
						<in>47902</in>
						<out>47986</out>
						<file id="file-1" />
						<link>
							<linkclipref>clipitem-399</linkclipref>
							<mediatype>video</mediatype>
							<trackindex>1</trackindex>
							<clipindex>399</clipindex>
						</link>
						<link>
							<linkclipref>clipitem-1434</linkclipref>
							<mediatype>audio</mediatype>
							<trackindex>1</trackindex>
							<clipindex>399</clipindex>
							<groupindex>1</groupindex>
						</link>
					</clipitem>
					<clipitem id="clipitem-400">
						<masterclipid>masterclip-2</masterclipid>
						<name>chandrika rocket equations</name>
						<start>28867</start>
						<end>28887</end>
						<in>48461</in>
						<out>48481</out>
						<file id="file-1" />
						<link>
							<linkclipref>clipitem-400</linkclipref>
							<mediatype>video</mediatype>
							<trackindex>1</trackindex>
							<clipindex>400</clipindex>
						</link>
						<link>
							<linkclipref>clipitem-1435</linkclipref>
							<mediatype>audio</mediatype>
							<trackindex>1</trackindex>
							<clipindex>400</clipindex>
							<groupindex>1</groupindex>
						</link>
					</clipitem>
					<clipitem id="clipitem-401">
						<masterclipid>masterclip-2</masterclipid>
						<name>chandrika rocket equations</name>
						<start>28887</start>
						<end>28910</end>
						<in>48499</in>
						<out>48522</out>
						<file id="file-1" />
						<link>
							<linkclipref>clipitem-401</linkclipref>
							<mediatype>video</mediatype>
							<trackindex>1</trackindex>
							<clipindex>401</clipindex>
						</link>
						<link>
							<linkclipref>clipitem-1436</linkclipref>
							<mediatype>audio</mediatype>
							<trackindex>1</trackindex>
							<clipindex>401</clipindex>
							<groupindex>1</groupindex>
						</link>
					</clipitem>
					<clipitem id="clipitem-402">
						<masterclipid>masterclip-2</masterclipid>
						<name>chandrika rocket equations</name>
						<start>28910</start>
						<end>29041</end>
						<in>49059</in>
						<out>49190</out>
						<file id="file-1" />
						<link>
							<linkclipref>clipitem-402</linkclipref>
							<mediatype>video</mediatype>
							<trackindex>1</trackindex>
							<clipindex>402</clipindex>
						</link>
						<link>
							<linkclipref>clipitem-1437</linkclipref>
							<mediatype>audio</mediatype>
							<trackindex>1</trackindex>
							<clipindex>402</clipindex>
							<groupindex>1</groupindex>
						</link>
					</clipitem>
					<clipitem id="clipitem-403">
						<masterclipid>masterclip-2</masterclipid>
						<name>chandrika rocket equations</name>
						<start>29041</start>
						<end>29095</end>
						<in>49237</in>
						<out>49291</out>
						<file id="file-1" />
						<link>
							<linkclipref>clipitem-403</linkclipref>
							<mediatype>video</mediatype>
							<trackindex>1</trackindex>
							<clipindex>403</clipindex>
						</link>
						<link>
							<linkclipref>clipitem-1438</linkclipref>
							<mediatype>audio</mediatype>
							<trackindex>1</trackindex>
							<clipindex>403</clipindex>
							<groupindex>1</groupindex>
						</link>
					</clipitem>
					<clipitem id="clipitem-404">
						<masterclipid>masterclip-2</masterclipid>
						<name>chandrika rocket equations</name>
						<start>29095</start>
						<end>29135</end>
						<in>49383</in>
						<out>49423</out>
						<file id="file-1" />
						<link>
							<linkclipref>clipitem-404</linkclipref>
							<mediatype>video</mediatype>
							<trackindex>1</trackindex>
							<clipindex>404</clipindex>
						</link>
						<link>
							<linkclipref>clipitem-1439</linkclipref>
							<mediatype>audio</mediatype>
							<trackindex>1</trackindex>
							<clipindex>404</clipindex>
							<groupindex>1</groupindex>
						</link>
					</clipitem>
					<clipitem id="clipitem-405">
						<masterclipid>masterclip-2</masterclipid>
						<name>chandrika rocket equations</name>
						<start>29135</start>
						<end>29193</end>
						<in>50318</in>
						<out>50376</out>
						<file id="file-1" />
						<link>
							<linkclipref>clipitem-405</linkclipref>
							<mediatype>video</mediatype>
							<trackindex>1</trackindex>
							<clipindex>405</clipindex>
						</link>
						<link>
							<linkclipref>clipitem-1440</linkclipref>
							<mediatype>audio</mediatype>
							<trackindex>1</trackindex>
							<clipindex>405</clipindex>
							<groupindex>1</groupindex>
						</link>
					</clipitem>
					<clipitem id="clipitem-406">
						<masterclipid>masterclip-2</masterclipid>
						<name>chandrika rocket equations</name>
						<start>29193</start>
						<end>29236</end>
						<in>50388</in>
						<out>50431</out>
						<file id="file-1" />
						<link>
							<linkclipref>clipitem-406</linkclipref>
							<mediatype>video</mediatype>
							<trackindex>1</trackindex>
							<clipindex>406</clipindex>
						</link>
						<link>
							<linkclipref>clipitem-1441</linkclipref>
							<mediatype>audio</mediatype>
							<trackindex>1</trackindex>
							<clipindex>406</clipindex>
							<groupindex>1</groupindex>
						</link>
					</clipitem>
					<clipitem id="clipitem-407">
						<masterclipid>masterclip-2</masterclipid>
						<name>chandrika rocket equations</name>
						<start>29236</start>
						<end>29257</end>
						<in>50779</in>
						<out>50800</out>
						<file id="file-1" />
						<link>
							<linkclipref>clipitem-407</linkclipref>
							<mediatype>video</mediatype>
							<trackindex>1</trackindex>
							<clipindex>407</clipindex>
						</link>
						<link>
							<linkclipref>clipitem-1442</linkclipref>
							<mediatype>audio</mediatype>
							<trackindex>1</trackindex>
							<clipindex>407</clipindex>
							<groupindex>1</groupindex>
						</link>
					</clipitem>
					<clipitem id="clipitem-408">
						<masterclipid>masterclip-2</masterclipid>
						<name>chandrika rocket equations</name>
						<start>29257</start>
						<end>29325</end>
						<in>50806</in>
						<out>50874</out>
						<file id="file-1" />
						<link>
							<linkclipref>clipitem-408</linkclipref>
							<mediatype>video</mediatype>
							<trackindex>1</trackindex>
							<clipindex>408</clipindex>
						</link>
						<link>
							<linkclipref>clipitem-1443</linkclipref>
							<mediatype>audio</mediatype>
							<trackindex>1</trackindex>
							<clipindex>408</clipindex>
							<groupindex>1</groupindex>
						</link>
					</clipitem>
					<clipitem id="clipitem-409">
						<masterclipid>masterclip-2</masterclipid>
						<name>chandrika rocket equations</name>
						<start>29325</start>
						<end>29405</end>
						<in>51193</in>
						<out>51273</out>
						<file id="file-1" />
						<link>
							<linkclipref>clipitem-409</linkclipref>
							<mediatype>video</mediatype>
							<trackindex>1</trackindex>
							<clipindex>409</clipindex>
						</link>
						<link>
							<linkclipref>clipitem-1444</linkclipref>
							<mediatype>audio</mediatype>
							<trackindex>1</trackindex>
							<clipindex>409</clipindex>
							<groupindex>1</groupindex>
						</link>
					</clipitem>
					<clipitem id="clipitem-410">
						<masterclipid>masterclip-2</masterclipid>
						<name>chandrika rocket equations</name>
						<start>29405</start>
						<end>29436</end>
						<in>51286</in>
						<out>51317</out>
						<file id="file-1" />
						<link>
							<linkclipref>clipitem-410</linkclipref>
							<mediatype>video</mediatype>
							<trackindex>1</trackindex>
							<clipindex>410</clipindex>
						</link>
						<link>
							<linkclipref>clipitem-1445</linkclipref>
							<mediatype>audio</mediatype>
							<trackindex>1</trackindex>
							<clipindex>410</clipindex>
							<groupindex>1</groupindex>
						</link>
					</clipitem>
					<clipitem id="clipitem-411">
						<masterclipid>masterclip-2</masterclipid>
						<name>chandrika rocket equations</name>
						<start>29436</start>
						<end>29457</end>
						<in>51321</in>
						<out>51342</out>
						<file id="file-1" />
						<link>
							<linkclipref>clipitem-411</linkclipref>
							<mediatype>video</mediatype>
							<trackindex>1</trackindex>
							<clipindex>411</clipindex>
						</link>
						<link>
							<linkclipref>clipitem-1446</linkclipref>
							<mediatype>audio</mediatype>
							<trackindex>1</trackindex>
							<clipindex>411</clipindex>
							<groupindex>1</groupindex>
						</link>
					</clipitem>
					<clipitem id="clipitem-412">
						<masterclipid>masterclip-2</masterclipid>
						<name>chandrika rocket equations</name>
						<start>29457</start>
						<end>29472</end>
						<in>51344</in>
						<out>51359</out>
						<file id="file-1" />
						<link>
							<linkclipref>clipitem-412</linkclipref>
							<mediatype>video</mediatype>
							<trackindex>1</trackindex>
							<clipindex>412</clipindex>
						</link>
						<link>
							<linkclipref>clipitem-1447</linkclipref>
							<mediatype>audio</mediatype>
							<trackindex>1</trackindex>
							<clipindex>412</clipindex>
							<groupindex>1</groupindex>
						</link>
					</clipitem>
					<clipitem id="clipitem-413">
						<masterclipid>masterclip-2</masterclipid>
						<name>chandrika rocket equations</name>
						<start>29472</start>
						<end>29490</end>
						<in>51384</in>
						<out>51402</out>
						<file id="file-1" />
						<link>
							<linkclipref>clipitem-413</linkclipref>
							<mediatype>video</mediatype>
							<trackindex>1</trackindex>
							<clipindex>413</clipindex>
						</link>
						<link>
							<linkclipref>clipitem-1448</linkclipref>
							<mediatype>audio</mediatype>
							<trackindex>1</trackindex>
							<clipindex>413</clipindex>
							<groupindex>1</groupindex>
						</link>
					</clipitem>
					<clipitem id="clipitem-414">
						<masterclipid>masterclip-2</masterclipid>
						<name>chandrika rocket equations</name>
						<start>29490</start>
						<end>29545</end>
						<in>51407</in>
						<out>51462</out>
						<file id="file-1" />
						<link>
							<linkclipref>clipitem-414</linkclipref>
							<mediatype>video</mediatype>
							<trackindex>1</trackindex>
							<clipindex>414</clipindex>
						</link>
						<link>
							<linkclipref>clipitem-1449</linkclipref>
							<mediatype>audio</mediatype>
							<trackindex>1</trackindex>
							<clipindex>414</clipindex>
							<groupindex>1</groupindex>
						</link>
					</clipitem>
					<clipitem id="clipitem-415">
						<masterclipid>masterclip-2</masterclipid>
						<name>chandrika rocket equations</name>
						<start>29545</start>
						<end>29599</end>
						<in>51562</in>
						<out>51616</out>
						<file id="file-1" />
						<link>
							<linkclipref>clipitem-415</linkclipref>
							<mediatype>video</mediatype>
							<trackindex>1</trackindex>
							<clipindex>415</clipindex>
						</link>
						<link>
							<linkclipref>clipitem-1450</linkclipref>
							<mediatype>audio</mediatype>
							<trackindex>1</trackindex>
							<clipindex>415</clipindex>
							<groupindex>1</groupindex>
						</link>
					</clipitem>
					<clipitem id="clipitem-416">
						<masterclipid>masterclip-2</masterclipid>
						<name>chandrika rocket equations</name>
						<start>29599</start>
						<end>29675</end>
						<in>51680</in>
						<out>51756</out>
						<file id="file-1" />
						<link>
							<linkclipref>clipitem-416</linkclipref>
							<mediatype>video</mediatype>
							<trackindex>1</trackindex>
							<clipindex>416</clipindex>
						</link>
						<link>
							<linkclipref>clipitem-1451</linkclipref>
							<mediatype>audio</mediatype>
							<trackindex>1</trackindex>
							<clipindex>416</clipindex>
							<groupindex>1</groupindex>
						</link>
					</clipitem>
					<clipitem id="clipitem-417">
						<masterclipid>masterclip-2</masterclipid>
						<name>chandrika rocket equations</name>
						<start>29675</start>
						<end>29692</end>
						<in>51826</in>
						<out>51843</out>
						<file id="file-1" />
						<link>
							<linkclipref>clipitem-417</linkclipref>
							<mediatype>video</mediatype>
							<trackindex>1</trackindex>
							<clipindex>417</clipindex>
						</link>
						<link>
							<linkclipref>clipitem-1452</linkclipref>
							<mediatype>audio</mediatype>
							<trackindex>1</trackindex>
							<clipindex>417</clipindex>
							<groupindex>1</groupindex>
						</link>
					</clipitem>
					<clipitem id="clipitem-418">
						<masterclipid>masterclip-2</masterclipid>
						<name>chandrika rocket equations</name>
						<start>29692</start>
						<end>29736</end>
						<in>51947</in>
						<out>51991</out>
						<file id="file-1" />
						<link>
							<linkclipref>clipitem-418</linkclipref>
							<mediatype>video</mediatype>
							<trackindex>1</trackindex>
							<clipindex>418</clipindex>
						</link>
						<link>
							<linkclipref>clipitem-1453</linkclipref>
							<mediatype>audio</mediatype>
							<trackindex>1</trackindex>
							<clipindex>418</clipindex>
							<groupindex>1</groupindex>
						</link>
					</clipitem>
					<clipitem id="clipitem-419">
						<masterclipid>masterclip-2</masterclipid>
						<name>chandrika rocket equations</name>
						<start>29736</start>
						<end>29759</end>
						<in>52133</in>
						<out>52156</out>
						<file id="file-1" />
						<link>
							<linkclipref>clipitem-419</linkclipref>
							<mediatype>video</mediatype>
							<trackindex>1</trackindex>
							<clipindex>419</clipindex>
						</link>
						<link>
							<linkclipref>clipitem-1454</linkclipref>
							<mediatype>audio</mediatype>
							<trackindex>1</trackindex>
							<clipindex>419</clipindex>
							<groupindex>1</groupindex>
						</link>
					</clipitem>
					<clipitem id="clipitem-420">
						<masterclipid>masterclip-2</masterclipid>
						<name>chandrika rocket equations</name>
						<start>29759</start>
						<end>29806</end>
						<in>52246</in>
						<out>52293</out>
						<file id="file-1" />
						<link>
							<linkclipref>clipitem-420</linkclipref>
							<mediatype>video</mediatype>
							<trackindex>1</trackindex>
							<clipindex>420</clipindex>
						</link>
						<link>
							<linkclipref>clipitem-1455</linkclipref>
							<mediatype>audio</mediatype>
							<trackindex>1</trackindex>
							<clipindex>420</clipindex>
							<groupindex>1</groupindex>
						</link>
					</clipitem>
					<clipitem id="clipitem-421">
						<masterclipid>masterclip-2</masterclipid>
						<name>chandrika rocket equations</name>
						<start>29806</start>
						<end>29856</end>
						<in>52384</in>
						<out>52434</out>
						<file id="file-1" />
						<link>
							<linkclipref>clipitem-421</linkclipref>
							<mediatype>video</mediatype>
							<trackindex>1</trackindex>
							<clipindex>421</clipindex>
						</link>
						<link>
							<linkclipref>clipitem-1456</linkclipref>
							<mediatype>audio</mediatype>
							<trackindex>1</trackindex>
							<clipindex>421</clipindex>
							<groupindex>1</groupindex>
						</link>
					</clipitem>
					<clipitem id="clipitem-422">
						<masterclipid>masterclip-2</masterclipid>
						<name>chandrika rocket equations</name>
						<start>29856</start>
						<end>29957</end>
						<in>52953</in>
						<out>53054</out>
						<file id="file-1" />
						<link>
							<linkclipref>clipitem-422</linkclipref>
							<mediatype>video</mediatype>
							<trackindex>1</trackindex>
							<clipindex>422</clipindex>
						</link>
						<link>
							<linkclipref>clipitem-1457</linkclipref>
							<mediatype>audio</mediatype>
							<trackindex>1</trackindex>
							<clipindex>422</clipindex>
							<groupindex>1</groupindex>
						</link>
					</clipitem>
					<clipitem id="clipitem-423">
						<masterclipid>masterclip-2</masterclipid>
						<name>chandrika rocket equations</name>
						<start>29957</start>
						<end>29995</end>
						<in>53095</in>
						<out>53133</out>
						<file id="file-1" />
						<link>
							<linkclipref>clipitem-423</linkclipref>
							<mediatype>video</mediatype>
							<trackindex>1</trackindex>
							<clipindex>423</clipindex>
						</link>
						<link>
							<linkclipref>clipitem-1458</linkclipref>
							<mediatype>audio</mediatype>
							<trackindex>1</trackindex>
							<clipindex>423</clipindex>
							<groupindex>1</groupindex>
						</link>
					</clipitem>
					<clipitem id="clipitem-424">
						<masterclipid>masterclip-2</masterclipid>
						<name>chandrika rocket equations</name>
						<start>29995</start>
						<end>30116</end>
						<in>53183</in>
						<out>53304</out>
						<file id="file-1" />
						<link>
							<linkclipref>clipitem-424</linkclipref>
							<mediatype>video</mediatype>
							<trackindex>1</trackindex>
							<clipindex>424</clipindex>
						</link>
						<link>
							<linkclipref>clipitem-1459</linkclipref>
							<mediatype>audio</mediatype>
							<trackindex>1</trackindex>
							<clipindex>424</clipindex>
							<groupindex>1</groupindex>
						</link>
					</clipitem>
					<clipitem id="clipitem-425">
						<masterclipid>masterclip-2</masterclipid>
						<name>chandrika rocket equations</name>
						<start>30116</start>
						<end>30156</end>
						<in>53347</in>
						<out>53387</out>
						<file id="file-1" />
						<link>
							<linkclipref>clipitem-425</linkclipref>
							<mediatype>video</mediatype>
							<trackindex>1</trackindex>
							<clipindex>425</clipindex>
						</link>
						<link>
							<linkclipref>clipitem-1460</linkclipref>
							<mediatype>audio</mediatype>
							<trackindex>1</trackindex>
							<clipindex>425</clipindex>
							<groupindex>1</groupindex>
						</link>
					</clipitem>
					<clipitem id="clipitem-426">
						<masterclipid>masterclip-2</masterclipid>
						<name>chandrika rocket equations</name>
						<start>30156</start>
						<end>30291</end>
						<in>53485</in>
						<out>53620</out>
						<file id="file-1" />
						<link>
							<linkclipref>clipitem-426</linkclipref>
							<mediatype>video</mediatype>
							<trackindex>1</trackindex>
							<clipindex>426</clipindex>
						</link>
						<link>
							<linkclipref>clipitem-1461</linkclipref>
							<mediatype>audio</mediatype>
							<trackindex>1</trackindex>
							<clipindex>426</clipindex>
							<groupindex>1</groupindex>
						</link>
					</clipitem>
					<clipitem id="clipitem-427">
						<masterclipid>masterclip-2</masterclipid>
						<name>chandrika rocket equations</name>
						<start>30291</start>
						<end>30328</end>
						<in>53629</in>
						<out>53666</out>
						<file id="file-1" />
						<link>
							<linkclipref>clipitem-427</linkclipref>
							<mediatype>video</mediatype>
							<trackindex>1</trackindex>
							<clipindex>427</clipindex>
						</link>
						<link>
							<linkclipref>clipitem-1462</linkclipref>
							<mediatype>audio</mediatype>
							<trackindex>1</trackindex>
							<clipindex>427</clipindex>
							<groupindex>1</groupindex>
						</link>
					</clipitem>
					<clipitem id="clipitem-428">
						<masterclipid>masterclip-2</masterclipid>
						<name>chandrika rocket equations</name>
						<start>30328</start>
						<end>30450</end>
						<in>53680</in>
						<out>53802</out>
						<file id="file-1" />
						<link>
							<linkclipref>clipitem-428</linkclipref>
							<mediatype>video</mediatype>
							<trackindex>1</trackindex>
							<clipindex>428</clipindex>
						</link>
						<link>
							<linkclipref>clipitem-1463</linkclipref>
							<mediatype>audio</mediatype>
							<trackindex>1</trackindex>
							<clipindex>428</clipindex>
							<groupindex>1</groupindex>
						</link>
					</clipitem>
					<clipitem id="clipitem-429">
						<masterclipid>masterclip-2</masterclipid>
						<name>chandrika rocket equations</name>
						<start>30450</start>
						<end>30660</end>
						<in>53831</in>
						<out>54041</out>
						<file id="file-1" />
						<link>
							<linkclipref>clipitem-429</linkclipref>
							<mediatype>video</mediatype>
							<trackindex>1</trackindex>
							<clipindex>429</clipindex>
						</link>
						<link>
							<linkclipref>clipitem-1464</linkclipref>
							<mediatype>audio</mediatype>
							<trackindex>1</trackindex>
							<clipindex>429</clipindex>
							<groupindex>1</groupindex>
						</link>
					</clipitem>
					<clipitem id="clipitem-430">
						<masterclipid>masterclip-2</masterclipid>
						<name>chandrika rocket equations</name>
						<start>30660</start>
						<end>30870</end>
						<in>54052</in>
						<out>54262</out>
						<file id="file-1" />
						<link>
							<linkclipref>clipitem-430</linkclipref>
							<mediatype>video</mediatype>
							<trackindex>1</trackindex>
							<clipindex>430</clipindex>
						</link>
						<link>
							<linkclipref>clipitem-1465</linkclipref>
							<mediatype>audio</mediatype>
							<trackindex>1</trackindex>
							<clipindex>430</clipindex>
							<groupindex>1</groupindex>
						</link>
					</clipitem>
					<clipitem id="clipitem-431">
						<masterclipid>masterclip-2</masterclipid>
						<name>chandrika rocket equations</name>
						<start>30870</start>
						<end>30972</end>
						<in>54328</in>
						<out>54430</out>
						<file id="file-1" />
						<link>
							<linkclipref>clipitem-431</linkclipref>
							<mediatype>video</mediatype>
							<trackindex>1</trackindex>
							<clipindex>431</clipindex>
						</link>
						<link>
							<linkclipref>clipitem-1466</linkclipref>
							<mediatype>audio</mediatype>
							<trackindex>1</trackindex>
							<clipindex>431</clipindex>
							<groupindex>1</groupindex>
						</link>
					</clipitem>
					<clipitem id="clipitem-432">
						<masterclipid>masterclip-2</masterclipid>
						<name>chandrika rocket equations</name>
						<start>30972</start>
						<end>31089</end>
						<in>54440</in>
						<out>54557</out>
						<file id="file-1" />
						<link>
							<linkclipref>clipitem-432</linkclipref>
							<mediatype>video</mediatype>
							<trackindex>1</trackindex>
							<clipindex>432</clipindex>
						</link>
						<link>
							<linkclipref>clipitem-1467</linkclipref>
							<mediatype>audio</mediatype>
							<trackindex>1</trackindex>
							<clipindex>432</clipindex>
							<groupindex>1</groupindex>
						</link>
					</clipitem>
					<clipitem id="clipitem-433">
						<masterclipid>masterclip-2</masterclipid>
						<name>chandrika rocket equations</name>
						<start>31089</start>
						<end>31158</end>
						<in>54560</in>
						<out>54629</out>
						<file id="file-1" />
						<link>
							<linkclipref>clipitem-433</linkclipref>
							<mediatype>video</mediatype>
							<trackindex>1</trackindex>
							<clipindex>433</clipindex>
						</link>
						<link>
							<linkclipref>clipitem-1468</linkclipref>
							<mediatype>audio</mediatype>
							<trackindex>1</trackindex>
							<clipindex>433</clipindex>
							<groupindex>1</groupindex>
						</link>
					</clipitem>
					<clipitem id="clipitem-434">
						<masterclipid>masterclip-2</masterclipid>
						<name>chandrika rocket equations</name>
						<start>31158</start>
						<end>31183</end>
						<in>54681</in>
						<out>54706</out>
						<file id="file-1" />
						<link>
							<linkclipref>clipitem-434</linkclipref>
							<mediatype>video</mediatype>
							<trackindex>1</trackindex>
							<clipindex>434</clipindex>
						</link>
						<link>
							<linkclipref>clipitem-1469</linkclipref>
							<mediatype>audio</mediatype>
							<trackindex>1</trackindex>
							<clipindex>434</clipindex>
							<groupindex>1</groupindex>
						</link>
					</clipitem>
					<clipitem id="clipitem-435">
						<masterclipid>masterclip-2</masterclipid>
						<name>chandrika rocket equations</name>
						<start>31183</start>
						<end>31326</end>
						<in>54750</in>
						<out>54893</out>
						<file id="file-1" />
						<link>
							<linkclipref>clipitem-435</linkclipref>
							<mediatype>video</mediatype>
							<trackindex>1</trackindex>
							<clipindex>435</clipindex>
						</link>
						<link>
							<linkclipref>clipitem-1470</linkclipref>
							<mediatype>audio</mediatype>
							<trackindex>1</trackindex>
							<clipindex>435</clipindex>
							<groupindex>1</groupindex>
						</link>
					</clipitem>
					<clipitem id="clipitem-436">
						<masterclipid>masterclip-2</masterclipid>
						<name>chandrika rocket equations</name>
						<start>31326</start>
						<end>31478</end>
						<in>54898</in>
						<out>55050</out>
						<file id="file-1" />
						<link>
							<linkclipref>clipitem-436</linkclipref>
							<mediatype>video</mediatype>
							<trackindex>1</trackindex>
							<clipindex>436</clipindex>
						</link>
						<link>
							<linkclipref>clipitem-1471</linkclipref>
							<mediatype>audio</mediatype>
							<trackindex>1</trackindex>
							<clipindex>436</clipindex>
							<groupindex>1</groupindex>
						</link>
					</clipitem>
					<clipitem id="clipitem-437">
						<masterclipid>masterclip-2</masterclipid>
						<name>chandrika rocket equations</name>
						<start>31478</start>
						<end>31518</end>
						<in>55052</in>
						<out>55092</out>
						<file id="file-1" />
						<link>
							<linkclipref>clipitem-437</linkclipref>
							<mediatype>video</mediatype>
							<trackindex>1</trackindex>
							<clipindex>437</clipindex>
						</link>
						<link>
							<linkclipref>clipitem-1472</linkclipref>
							<mediatype>audio</mediatype>
							<trackindex>1</trackindex>
							<clipindex>437</clipindex>
							<groupindex>1</groupindex>
						</link>
					</clipitem>
					<clipitem id="clipitem-438">
						<masterclipid>masterclip-2</masterclipid>
						<name>chandrika rocket equations</name>
						<start>31518</start>
						<end>31558</end>
						<in>55105</in>
						<out>55145</out>
						<file id="file-1" />
						<link>
							<linkclipref>clipitem-438</linkclipref>
							<mediatype>video</mediatype>
							<trackindex>1</trackindex>
							<clipindex>438</clipindex>
						</link>
						<link>
							<linkclipref>clipitem-1473</linkclipref>
							<mediatype>audio</mediatype>
							<trackindex>1</trackindex>
							<clipindex>438</clipindex>
							<groupindex>1</groupindex>
						</link>
					</clipitem>
					<clipitem id="clipitem-439">
						<masterclipid>masterclip-2</masterclipid>
						<name>chandrika rocket equations</name>
						<start>31558</start>
						<end>31634</end>
						<in>55149</in>
						<out>55225</out>
						<file id="file-1" />
						<link>
							<linkclipref>clipitem-439</linkclipref>
							<mediatype>video</mediatype>
							<trackindex>1</trackindex>
							<clipindex>439</clipindex>
						</link>
						<link>
							<linkclipref>clipitem-1474</linkclipref>
							<mediatype>audio</mediatype>
							<trackindex>1</trackindex>
							<clipindex>439</clipindex>
							<groupindex>1</groupindex>
						</link>
					</clipitem>
					<clipitem id="clipitem-440">
						<masterclipid>masterclip-2</masterclipid>
						<name>chandrika rocket equations</name>
						<start>31634</start>
						<end>31685</end>
						<in>55254</in>
						<out>55305</out>
						<file id="file-1" />
						<link>
							<linkclipref>clipitem-440</linkclipref>
							<mediatype>video</mediatype>
							<trackindex>1</trackindex>
							<clipindex>440</clipindex>
						</link>
						<link>
							<linkclipref>clipitem-1475</linkclipref>
							<mediatype>audio</mediatype>
							<trackindex>1</trackindex>
							<clipindex>440</clipindex>
							<groupindex>1</groupindex>
						</link>
					</clipitem>
					<clipitem id="clipitem-441">
						<masterclipid>masterclip-2</masterclipid>
						<name>chandrika rocket equations</name>
						<start>31685</start>
						<end>31701</end>
						<in>55314</in>
						<out>55330</out>
						<file id="file-1" />
						<link>
							<linkclipref>clipitem-441</linkclipref>
							<mediatype>video</mediatype>
							<trackindex>1</trackindex>
							<clipindex>441</clipindex>
						</link>
						<link>
							<linkclipref>clipitem-1476</linkclipref>
							<mediatype>audio</mediatype>
							<trackindex>1</trackindex>
							<clipindex>441</clipindex>
							<groupindex>1</groupindex>
						</link>
					</clipitem>
					<clipitem id="clipitem-442">
						<masterclipid>masterclip-2</masterclipid>
						<name>chandrika rocket equations</name>
						<start>31701</start>
						<end>31717</end>
						<in>55336</in>
						<out>55352</out>
						<file id="file-1" />
						<link>
							<linkclipref>clipitem-442</linkclipref>
							<mediatype>video</mediatype>
							<trackindex>1</trackindex>
							<clipindex>442</clipindex>
						</link>
						<link>
							<linkclipref>clipitem-1477</linkclipref>
							<mediatype>audio</mediatype>
							<trackindex>1</trackindex>
							<clipindex>442</clipindex>
							<groupindex>1</groupindex>
						</link>
					</clipitem>
					<clipitem id="clipitem-443">
						<masterclipid>masterclip-2</masterclipid>
						<name>chandrika rocket equations</name>
						<start>31717</start>
						<end>31739</end>
						<in>55366</in>
						<out>55388</out>
						<file id="file-1" />
						<link>
							<linkclipref>clipitem-443</linkclipref>
							<mediatype>video</mediatype>
							<trackindex>1</trackindex>
							<clipindex>443</clipindex>
						</link>
						<link>
							<linkclipref>clipitem-1478</linkclipref>
							<mediatype>audio</mediatype>
							<trackindex>1</trackindex>
							<clipindex>443</clipindex>
							<groupindex>1</groupindex>
						</link>
					</clipitem>
					<clipitem id="clipitem-444">
						<masterclipid>masterclip-2</masterclipid>
						<name>chandrika rocket equations</name>
						<start>31739</start>
						<end>31805</end>
						<in>55414</in>
						<out>55480</out>
						<file id="file-1" />
						<link>
							<linkclipref>clipitem-444</linkclipref>
							<mediatype>video</mediatype>
							<trackindex>1</trackindex>
							<clipindex>444</clipindex>
						</link>
						<link>
							<linkclipref>clipitem-1479</linkclipref>
							<mediatype>audio</mediatype>
							<trackindex>1</trackindex>
							<clipindex>444</clipindex>
							<groupindex>1</groupindex>
						</link>
					</clipitem>
					<clipitem id="clipitem-445">
						<masterclipid>masterclip-2</masterclipid>
						<name>chandrika rocket equations</name>
						<start>31805</start>
						<end>31930</end>
						<in>55504</in>
						<out>55629</out>
						<file id="file-1" />
						<link>
							<linkclipref>clipitem-445</linkclipref>
							<mediatype>video</mediatype>
							<trackindex>1</trackindex>
							<clipindex>445</clipindex>
						</link>
						<link>
							<linkclipref>clipitem-1480</linkclipref>
							<mediatype>audio</mediatype>
							<trackindex>1</trackindex>
							<clipindex>445</clipindex>
							<groupindex>1</groupindex>
						</link>
					</clipitem>
					<clipitem id="clipitem-446">
						<masterclipid>masterclip-2</masterclipid>
						<name>chandrika rocket equations</name>
						<start>31930</start>
						<end>31994</end>
						<in>55630</in>
						<out>55694</out>
						<file id="file-1" />
						<link>
							<linkclipref>clipitem-446</linkclipref>
							<mediatype>video</mediatype>
							<trackindex>1</trackindex>
							<clipindex>446</clipindex>
						</link>
						<link>
							<linkclipref>clipitem-1481</linkclipref>
							<mediatype>audio</mediatype>
							<trackindex>1</trackindex>
							<clipindex>446</clipindex>
							<groupindex>1</groupindex>
						</link>
					</clipitem>
					<clipitem id="clipitem-447">
						<masterclipid>masterclip-2</masterclipid>
						<name>chandrika rocket equations</name>
						<start>31994</start>
						<end>32016</end>
						<in>55701</in>
						<out>55723</out>
						<file id="file-1" />
						<link>
							<linkclipref>clipitem-447</linkclipref>
							<mediatype>video</mediatype>
							<trackindex>1</trackindex>
							<clipindex>447</clipindex>
						</link>
						<link>
							<linkclipref>clipitem-1482</linkclipref>
							<mediatype>audio</mediatype>
							<trackindex>1</trackindex>
							<clipindex>447</clipindex>
							<groupindex>1</groupindex>
						</link>
					</clipitem>
					<clipitem id="clipitem-448">
						<masterclipid>masterclip-2</masterclipid>
						<name>chandrika rocket equations</name>
						<start>32016</start>
						<end>32094</end>
						<in>55725</in>
						<out>55803</out>
						<file id="file-1" />
						<link>
							<linkclipref>clipitem-448</linkclipref>
							<mediatype>video</mediatype>
							<trackindex>1</trackindex>
							<clipindex>448</clipindex>
						</link>
						<link>
							<linkclipref>clipitem-1483</linkclipref>
							<mediatype>audio</mediatype>
							<trackindex>1</trackindex>
							<clipindex>448</clipindex>
							<groupindex>1</groupindex>
						</link>
					</clipitem>
					<clipitem id="clipitem-449">
						<masterclipid>masterclip-2</masterclipid>
						<name>chandrika rocket equations</name>
						<start>32094</start>
						<end>32277</end>
						<in>55808</in>
						<out>55991</out>
						<file id="file-1" />
						<link>
							<linkclipref>clipitem-449</linkclipref>
							<mediatype>video</mediatype>
							<trackindex>1</trackindex>
							<clipindex>449</clipindex>
						</link>
						<link>
							<linkclipref>clipitem-1484</linkclipref>
							<mediatype>audio</mediatype>
							<trackindex>1</trackindex>
							<clipindex>449</clipindex>
							<groupindex>1</groupindex>
						</link>
					</clipitem>
					<clipitem id="clipitem-450">
						<masterclipid>masterclip-2</masterclipid>
						<name>chandrika rocket equations</name>
						<start>32277</start>
						<end>32307</end>
						<in>55993</in>
						<out>56023</out>
						<file id="file-1" />
						<link>
							<linkclipref>clipitem-450</linkclipref>
							<mediatype>video</mediatype>
							<trackindex>1</trackindex>
							<clipindex>450</clipindex>
						</link>
						<link>
							<linkclipref>clipitem-1485</linkclipref>
							<mediatype>audio</mediatype>
							<trackindex>1</trackindex>
							<clipindex>450</clipindex>
							<groupindex>1</groupindex>
						</link>
					</clipitem>
					<clipitem id="clipitem-451">
						<masterclipid>masterclip-2</masterclipid>
						<name>chandrika rocket equations</name>
						<start>32307</start>
						<end>32476</end>
						<in>56032</in>
						<out>56201</out>
						<file id="file-1" />
						<link>
							<linkclipref>clipitem-451</linkclipref>
							<mediatype>video</mediatype>
							<trackindex>1</trackindex>
							<clipindex>451</clipindex>
						</link>
						<link>
							<linkclipref>clipitem-1486</linkclipref>
							<mediatype>audio</mediatype>
							<trackindex>1</trackindex>
							<clipindex>451</clipindex>
							<groupindex>1</groupindex>
						</link>
					</clipitem>
					<clipitem id="clipitem-452">
						<masterclipid>masterclip-2</masterclipid>
						<name>chandrika rocket equations</name>
						<start>32476</start>
						<end>32537</end>
						<in>56262</in>
						<out>56323</out>
						<file id="file-1" />
						<link>
							<linkclipref>clipitem-452</linkclipref>
							<mediatype>video</mediatype>
							<trackindex>1</trackindex>
							<clipindex>452</clipindex>
						</link>
						<link>
							<linkclipref>clipitem-1487</linkclipref>
							<mediatype>audio</mediatype>
							<trackindex>1</trackindex>
							<clipindex>452</clipindex>
							<groupindex>1</groupindex>
						</link>
					</clipitem>
					<clipitem id="clipitem-453">
						<masterclipid>masterclip-2</masterclipid>
						<name>chandrika rocket equations</name>
						<start>32537</start>
						<end>32564</end>
						<in>56327</in>
						<out>56354</out>
						<file id="file-1" />
						<link>
							<linkclipref>clipitem-453</linkclipref>
							<mediatype>video</mediatype>
							<trackindex>1</trackindex>
							<clipindex>453</clipindex>
						</link>
						<link>
							<linkclipref>clipitem-1488</linkclipref>
							<mediatype>audio</mediatype>
							<trackindex>1</trackindex>
							<clipindex>453</clipindex>
							<groupindex>1</groupindex>
						</link>
					</clipitem>
					<clipitem id="clipitem-454">
						<masterclipid>masterclip-2</masterclipid>
						<name>chandrika rocket equations</name>
						<start>32564</start>
						<end>32631</end>
						<in>56417</in>
						<out>56484</out>
						<file id="file-1" />
						<link>
							<linkclipref>clipitem-454</linkclipref>
							<mediatype>video</mediatype>
							<trackindex>1</trackindex>
							<clipindex>454</clipindex>
						</link>
						<link>
							<linkclipref>clipitem-1489</linkclipref>
							<mediatype>audio</mediatype>
							<trackindex>1</trackindex>
							<clipindex>454</clipindex>
							<groupindex>1</groupindex>
						</link>
					</clipitem>
					<clipitem id="clipitem-455">
						<masterclipid>masterclip-2</masterclipid>
						<name>chandrika rocket equations</name>
						<start>32631</start>
						<end>32661</end>
						<in>56527</in>
						<out>56557</out>
						<file id="file-1" />
						<link>
							<linkclipref>clipitem-455</linkclipref>
							<mediatype>video</mediatype>
							<trackindex>1</trackindex>
							<clipindex>455</clipindex>
						</link>
						<link>
							<linkclipref>clipitem-1490</linkclipref>
							<mediatype>audio</mediatype>
							<trackindex>1</trackindex>
							<clipindex>455</clipindex>
							<groupindex>1</groupindex>
						</link>
					</clipitem>
					<clipitem id="clipitem-456">
						<masterclipid>masterclip-2</masterclipid>
						<name>chandrika rocket equations</name>
						<start>32661</start>
						<end>32782</end>
						<in>56577</in>
						<out>56698</out>
						<file id="file-1" />
						<link>
							<linkclipref>clipitem-456</linkclipref>
							<mediatype>video</mediatype>
							<trackindex>1</trackindex>
							<clipindex>456</clipindex>
						</link>
						<link>
							<linkclipref>clipitem-1491</linkclipref>
							<mediatype>audio</mediatype>
							<trackindex>1</trackindex>
							<clipindex>456</clipindex>
							<groupindex>1</groupindex>
						</link>
					</clipitem>
					<clipitem id="clipitem-457">
						<masterclipid>masterclip-2</masterclipid>
						<name>chandrika rocket equations</name>
						<start>32782</start>
						<end>32810</end>
						<in>56718</in>
						<out>56746</out>
						<file id="file-1" />
						<link>
							<linkclipref>clipitem-457</linkclipref>
							<mediatype>video</mediatype>
							<trackindex>1</trackindex>
							<clipindex>457</clipindex>
						</link>
						<link>
							<linkclipref>clipitem-1492</linkclipref>
							<mediatype>audio</mediatype>
							<trackindex>1</trackindex>
							<clipindex>457</clipindex>
							<groupindex>1</groupindex>
						</link>
					</clipitem>
					<clipitem id="clipitem-458">
						<masterclipid>masterclip-2</masterclipid>
						<name>chandrika rocket equations</name>
						<start>32810</start>
						<end>32863</end>
						<in>56791</in>
						<out>56844</out>
						<file id="file-1" />
						<link>
							<linkclipref>clipitem-458</linkclipref>
							<mediatype>video</mediatype>
							<trackindex>1</trackindex>
							<clipindex>458</clipindex>
						</link>
						<link>
							<linkclipref>clipitem-1493</linkclipref>
							<mediatype>audio</mediatype>
							<trackindex>1</trackindex>
							<clipindex>458</clipindex>
							<groupindex>1</groupindex>
						</link>
					</clipitem>
					<clipitem id="clipitem-459">
						<masterclipid>masterclip-2</masterclipid>
						<name>chandrika rocket equations</name>
						<start>32863</start>
						<end>32903</end>
						<in>56855</in>
						<out>56895</out>
						<file id="file-1" />
						<link>
							<linkclipref>clipitem-459</linkclipref>
							<mediatype>video</mediatype>
							<trackindex>1</trackindex>
							<clipindex>459</clipindex>
						</link>
						<link>
							<linkclipref>clipitem-1494</linkclipref>
							<mediatype>audio</mediatype>
							<trackindex>1</trackindex>
							<clipindex>459</clipindex>
							<groupindex>1</groupindex>
						</link>
					</clipitem>
					<clipitem id="clipitem-460">
						<masterclipid>masterclip-2</masterclipid>
						<name>chandrika rocket equations</name>
						<start>32903</start>
						<end>33023</end>
						<in>56898</in>
						<out>57018</out>
						<file id="file-1" />
						<link>
							<linkclipref>clipitem-460</linkclipref>
							<mediatype>video</mediatype>
							<trackindex>1</trackindex>
							<clipindex>460</clipindex>
						</link>
						<link>
							<linkclipref>clipitem-1495</linkclipref>
							<mediatype>audio</mediatype>
							<trackindex>1</trackindex>
							<clipindex>460</clipindex>
							<groupindex>1</groupindex>
						</link>
					</clipitem>
					<clipitem id="clipitem-461">
						<masterclipid>masterclip-2</masterclipid>
						<name>chandrika rocket equations</name>
						<start>33023</start>
						<end>33173</end>
						<in>57039</in>
						<out>57189</out>
						<file id="file-1" />
						<link>
							<linkclipref>clipitem-461</linkclipref>
							<mediatype>video</mediatype>
							<trackindex>1</trackindex>
							<clipindex>461</clipindex>
						</link>
						<link>
							<linkclipref>clipitem-1496</linkclipref>
							<mediatype>audio</mediatype>
							<trackindex>1</trackindex>
							<clipindex>461</clipindex>
							<groupindex>1</groupindex>
						</link>
					</clipitem>
					<clipitem id="clipitem-462">
						<masterclipid>masterclip-2</masterclipid>
						<name>chandrika rocket equations</name>
						<start>33173</start>
						<end>33246</end>
						<in>57215</in>
						<out>57288</out>
						<file id="file-1" />
						<link>
							<linkclipref>clipitem-462</linkclipref>
							<mediatype>video</mediatype>
							<trackindex>1</trackindex>
							<clipindex>462</clipindex>
						</link>
						<link>
							<linkclipref>clipitem-1497</linkclipref>
							<mediatype>audio</mediatype>
							<trackindex>1</trackindex>
							<clipindex>462</clipindex>
							<groupindex>1</groupindex>
						</link>
					</clipitem>
					<clipitem id="clipitem-463">
						<masterclipid>masterclip-2</masterclipid>
						<name>chandrika rocket equations</name>
						<start>33246</start>
						<end>33353</end>
						<in>57311</in>
						<out>57418</out>
						<file id="file-1" />
						<link>
							<linkclipref>clipitem-463</linkclipref>
							<mediatype>video</mediatype>
							<trackindex>1</trackindex>
							<clipindex>463</clipindex>
						</link>
						<link>
							<linkclipref>clipitem-1498</linkclipref>
							<mediatype>audio</mediatype>
							<trackindex>1</trackindex>
							<clipindex>463</clipindex>
							<groupindex>1</groupindex>
						</link>
					</clipitem>
					<clipitem id="clipitem-464">
						<masterclipid>masterclip-2</masterclipid>
						<name>chandrika rocket equations</name>
						<start>33353</start>
						<end>33379</end>
						<in>57435</in>
						<out>57461</out>
						<file id="file-1" />
						<link>
							<linkclipref>clipitem-464</linkclipref>
							<mediatype>video</mediatype>
							<trackindex>1</trackindex>
							<clipindex>464</clipindex>
						</link>
						<link>
							<linkclipref>clipitem-1499</linkclipref>
							<mediatype>audio</mediatype>
							<trackindex>1</trackindex>
							<clipindex>464</clipindex>
							<groupindex>1</groupindex>
						</link>
					</clipitem>
					<clipitem id="clipitem-465">
						<masterclipid>masterclip-2</masterclipid>
						<name>chandrika rocket equations</name>
						<start>33379</start>
						<end>33460</end>
						<in>57482</in>
						<out>57563</out>
						<file id="file-1" />
						<link>
							<linkclipref>clipitem-465</linkclipref>
							<mediatype>video</mediatype>
							<trackindex>1</trackindex>
							<clipindex>465</clipindex>
						</link>
						<link>
							<linkclipref>clipitem-1500</linkclipref>
							<mediatype>audio</mediatype>
							<trackindex>1</trackindex>
							<clipindex>465</clipindex>
							<groupindex>1</groupindex>
						</link>
					</clipitem>
					<clipitem id="clipitem-466">
						<masterclipid>masterclip-2</masterclipid>
						<name>chandrika rocket equations</name>
						<start>33460</start>
						<end>33529</end>
						<in>57598</in>
						<out>57667</out>
						<file id="file-1" />
						<link>
							<linkclipref>clipitem-466</linkclipref>
							<mediatype>video</mediatype>
							<trackindex>1</trackindex>
							<clipindex>466</clipindex>
						</link>
						<link>
							<linkclipref>clipitem-1501</linkclipref>
							<mediatype>audio</mediatype>
							<trackindex>1</trackindex>
							<clipindex>466</clipindex>
							<groupindex>1</groupindex>
						</link>
					</clipitem>
					<clipitem id="clipitem-467">
						<masterclipid>masterclip-2</masterclipid>
						<name>chandrika rocket equations</name>
						<start>33529</start>
						<end>33617</end>
						<in>57677</in>
						<out>57765</out>
						<file id="file-1" />
						<link>
							<linkclipref>clipitem-467</linkclipref>
							<mediatype>video</mediatype>
							<trackindex>1</trackindex>
							<clipindex>467</clipindex>
						</link>
						<link>
							<linkclipref>clipitem-1502</linkclipref>
							<mediatype>audio</mediatype>
							<trackindex>1</trackindex>
							<clipindex>467</clipindex>
							<groupindex>1</groupindex>
						</link>
					</clipitem>
					<clipitem id="clipitem-468">
						<masterclipid>masterclip-2</masterclipid>
						<name>chandrika rocket equations</name>
						<start>33617</start>
						<end>33644</end>
						<in>57815</in>
						<out>57842</out>
						<file id="file-1" />
						<link>
							<linkclipref>clipitem-468</linkclipref>
							<mediatype>video</mediatype>
							<trackindex>1</trackindex>
							<clipindex>468</clipindex>
						</link>
						<link>
							<linkclipref>clipitem-1503</linkclipref>
							<mediatype>audio</mediatype>
							<trackindex>1</trackindex>
							<clipindex>468</clipindex>
							<groupindex>1</groupindex>
						</link>
					</clipitem>
					<clipitem id="clipitem-469">
						<masterclipid>masterclip-2</masterclipid>
						<name>chandrika rocket equations</name>
						<start>33644</start>
						<end>33680</end>
						<in>57869</in>
						<out>57905</out>
						<file id="file-1" />
						<link>
							<linkclipref>clipitem-469</linkclipref>
							<mediatype>video</mediatype>
							<trackindex>1</trackindex>
							<clipindex>469</clipindex>
						</link>
						<link>
							<linkclipref>clipitem-1504</linkclipref>
							<mediatype>audio</mediatype>
							<trackindex>1</trackindex>
							<clipindex>469</clipindex>
							<groupindex>1</groupindex>
						</link>
					</clipitem>
					<clipitem id="clipitem-470">
						<masterclipid>masterclip-2</masterclipid>
						<name>chandrika rocket equations</name>
						<start>33680</start>
						<end>33713</end>
						<in>57935</in>
						<out>57968</out>
						<file id="file-1" />
						<link>
							<linkclipref>clipitem-470</linkclipref>
							<mediatype>video</mediatype>
							<trackindex>1</trackindex>
							<clipindex>470</clipindex>
						</link>
						<link>
							<linkclipref>clipitem-1505</linkclipref>
							<mediatype>audio</mediatype>
							<trackindex>1</trackindex>
							<clipindex>470</clipindex>
							<groupindex>1</groupindex>
						</link>
					</clipitem>
					<clipitem id="clipitem-471">
						<masterclipid>masterclip-2</masterclipid>
						<name>chandrika rocket equations</name>
						<start>33713</start>
						<end>33738</end>
						<in>57992</in>
						<out>58017</out>
						<file id="file-1" />
						<link>
							<linkclipref>clipitem-471</linkclipref>
							<mediatype>video</mediatype>
							<trackindex>1</trackindex>
							<clipindex>471</clipindex>
						</link>
						<link>
							<linkclipref>clipitem-1506</linkclipref>
							<mediatype>audio</mediatype>
							<trackindex>1</trackindex>
							<clipindex>471</clipindex>
							<groupindex>1</groupindex>
						</link>
					</clipitem>
					<clipitem id="clipitem-472">
						<masterclipid>masterclip-2</masterclipid>
						<name>chandrika rocket equations</name>
						<start>33738</start>
						<end>33819</end>
						<in>58023</in>
						<out>58104</out>
						<file id="file-1" />
						<link>
							<linkclipref>clipitem-472</linkclipref>
							<mediatype>video</mediatype>
							<trackindex>1</trackindex>
							<clipindex>472</clipindex>
						</link>
						<link>
							<linkclipref>clipitem-1507</linkclipref>
							<mediatype>audio</mediatype>
							<trackindex>1</trackindex>
							<clipindex>472</clipindex>
							<groupindex>1</groupindex>
						</link>
					</clipitem>
					<clipitem id="clipitem-473">
						<masterclipid>masterclip-2</masterclipid>
						<name>chandrika rocket equations</name>
						<start>33819</start>
						<end>33875</end>
						<in>58110</in>
						<out>58166</out>
						<file id="file-1" />
						<link>
							<linkclipref>clipitem-473</linkclipref>
							<mediatype>video</mediatype>
							<trackindex>1</trackindex>
							<clipindex>473</clipindex>
						</link>
						<link>
							<linkclipref>clipitem-1508</linkclipref>
							<mediatype>audio</mediatype>
							<trackindex>1</trackindex>
							<clipindex>473</clipindex>
							<groupindex>1</groupindex>
						</link>
					</clipitem>
					<clipitem id="clipitem-474">
						<masterclipid>masterclip-2</masterclipid>
						<name>chandrika rocket equations</name>
						<start>33875</start>
						<end>33916</end>
						<in>58230</in>
						<out>58271</out>
						<file id="file-1" />
						<link>
							<linkclipref>clipitem-474</linkclipref>
							<mediatype>video</mediatype>
							<trackindex>1</trackindex>
							<clipindex>474</clipindex>
						</link>
						<link>
							<linkclipref>clipitem-1509</linkclipref>
							<mediatype>audio</mediatype>
							<trackindex>1</trackindex>
							<clipindex>474</clipindex>
							<groupindex>1</groupindex>
						</link>
					</clipitem>
					<clipitem id="clipitem-475">
						<masterclipid>masterclip-2</masterclipid>
						<name>chandrika rocket equations</name>
						<start>33916</start>
						<end>34002</end>
						<in>58312</in>
						<out>58398</out>
						<file id="file-1" />
						<link>
							<linkclipref>clipitem-475</linkclipref>
							<mediatype>video</mediatype>
							<trackindex>1</trackindex>
							<clipindex>475</clipindex>
						</link>
						<link>
							<linkclipref>clipitem-1510</linkclipref>
							<mediatype>audio</mediatype>
							<trackindex>1</trackindex>
							<clipindex>475</clipindex>
							<groupindex>1</groupindex>
						</link>
					</clipitem>
					<clipitem id="clipitem-476">
						<masterclipid>masterclip-2</masterclipid>
						<name>chandrika rocket equations</name>
						<start>34002</start>
						<end>34021</end>
						<in>58421</in>
						<out>58440</out>
						<file id="file-1" />
						<link>
							<linkclipref>clipitem-476</linkclipref>
							<mediatype>video</mediatype>
							<trackindex>1</trackindex>
							<clipindex>476</clipindex>
						</link>
						<link>
							<linkclipref>clipitem-1511</linkclipref>
							<mediatype>audio</mediatype>
							<trackindex>1</trackindex>
							<clipindex>476</clipindex>
							<groupindex>1</groupindex>
						</link>
					</clipitem>
					<clipitem id="clipitem-477">
						<masterclipid>masterclip-2</masterclipid>
						<name>chandrika rocket equations</name>
						<start>34021</start>
						<end>34037</end>
						<in>58475</in>
						<out>58491</out>
						<file id="file-1" />
						<link>
							<linkclipref>clipitem-477</linkclipref>
							<mediatype>video</mediatype>
							<trackindex>1</trackindex>
							<clipindex>477</clipindex>
						</link>
						<link>
							<linkclipref>clipitem-1512</linkclipref>
							<mediatype>audio</mediatype>
							<trackindex>1</trackindex>
							<clipindex>477</clipindex>
							<groupindex>1</groupindex>
						</link>
					</clipitem>
					<clipitem id="clipitem-478">
						<masterclipid>masterclip-2</masterclipid>
						<name>chandrika rocket equations</name>
						<start>34037</start>
						<end>34059</end>
						<in>58493</in>
						<out>58515</out>
						<file id="file-1" />
						<link>
							<linkclipref>clipitem-478</linkclipref>
							<mediatype>video</mediatype>
							<trackindex>1</trackindex>
							<clipindex>478</clipindex>
						</link>
						<link>
							<linkclipref>clipitem-1513</linkclipref>
							<mediatype>audio</mediatype>
							<trackindex>1</trackindex>
							<clipindex>478</clipindex>
							<groupindex>1</groupindex>
						</link>
					</clipitem>
					<clipitem id="clipitem-479">
						<masterclipid>masterclip-2</masterclipid>
						<name>chandrika rocket equations</name>
						<start>34059</start>
						<end>34105</end>
						<in>58530</in>
						<out>58576</out>
						<file id="file-1" />
						<link>
							<linkclipref>clipitem-479</linkclipref>
							<mediatype>video</mediatype>
							<trackindex>1</trackindex>
							<clipindex>479</clipindex>
						</link>
						<link>
							<linkclipref>clipitem-1514</linkclipref>
							<mediatype>audio</mediatype>
							<trackindex>1</trackindex>
							<clipindex>479</clipindex>
							<groupindex>1</groupindex>
						</link>
					</clipitem>
					<clipitem id="clipitem-480">
						<masterclipid>masterclip-2</masterclipid>
						<name>chandrika rocket equations</name>
						<start>34105</start>
						<end>34142</end>
						<in>58608</in>
						<out>58645</out>
						<file id="file-1" />
						<link>
							<linkclipref>clipitem-480</linkclipref>
							<mediatype>video</mediatype>
							<trackindex>1</trackindex>
							<clipindex>480</clipindex>
						</link>
						<link>
							<linkclipref>clipitem-1515</linkclipref>
							<mediatype>audio</mediatype>
							<trackindex>1</trackindex>
							<clipindex>480</clipindex>
							<groupindex>1</groupindex>
						</link>
					</clipitem>
					<clipitem id="clipitem-481">
						<masterclipid>masterclip-2</masterclipid>
						<name>chandrika rocket equations</name>
						<start>34142</start>
						<end>34165</end>
						<in>58646</in>
						<out>58669</out>
						<file id="file-1" />
						<link>
							<linkclipref>clipitem-481</linkclipref>
							<mediatype>video</mediatype>
							<trackindex>1</trackindex>
							<clipindex>481</clipindex>
						</link>
						<link>
							<linkclipref>clipitem-1516</linkclipref>
							<mediatype>audio</mediatype>
							<trackindex>1</trackindex>
							<clipindex>481</clipindex>
							<groupindex>1</groupindex>
						</link>
					</clipitem>
					<clipitem id="clipitem-482">
						<masterclipid>masterclip-2</masterclipid>
						<name>chandrika rocket equations</name>
						<start>34165</start>
						<end>34180</end>
						<in>58671</in>
						<out>58686</out>
						<file id="file-1" />
						<link>
							<linkclipref>clipitem-482</linkclipref>
							<mediatype>video</mediatype>
							<trackindex>1</trackindex>
							<clipindex>482</clipindex>
						</link>
						<link>
							<linkclipref>clipitem-1517</linkclipref>
							<mediatype>audio</mediatype>
							<trackindex>1</trackindex>
							<clipindex>482</clipindex>
							<groupindex>1</groupindex>
						</link>
					</clipitem>
					<clipitem id="clipitem-483">
						<masterclipid>masterclip-2</masterclipid>
						<name>chandrika rocket equations</name>
						<start>34180</start>
						<end>34195</end>
						<in>58703</in>
						<out>58718</out>
						<file id="file-1" />
						<link>
							<linkclipref>clipitem-483</linkclipref>
							<mediatype>video</mediatype>
							<trackindex>1</trackindex>
							<clipindex>483</clipindex>
						</link>
						<link>
							<linkclipref>clipitem-1518</linkclipref>
							<mediatype>audio</mediatype>
							<trackindex>1</trackindex>
							<clipindex>483</clipindex>
							<groupindex>1</groupindex>
						</link>
					</clipitem>
					<clipitem id="clipitem-484">
						<masterclipid>masterclip-2</masterclipid>
						<name>chandrika rocket equations</name>
						<start>34195</start>
						<end>34266</end>
						<in>58730</in>
						<out>58801</out>
						<file id="file-1" />
						<link>
							<linkclipref>clipitem-484</linkclipref>
							<mediatype>video</mediatype>
							<trackindex>1</trackindex>
							<clipindex>484</clipindex>
						</link>
						<link>
							<linkclipref>clipitem-1519</linkclipref>
							<mediatype>audio</mediatype>
							<trackindex>1</trackindex>
							<clipindex>484</clipindex>
							<groupindex>1</groupindex>
						</link>
					</clipitem>
					<clipitem id="clipitem-485">
						<masterclipid>masterclip-2</masterclipid>
						<name>chandrika rocket equations</name>
						<start>34266</start>
						<end>34319</end>
						<in>58830</in>
						<out>58883</out>
						<file id="file-1" />
						<link>
							<linkclipref>clipitem-485</linkclipref>
							<mediatype>video</mediatype>
							<trackindex>1</trackindex>
							<clipindex>485</clipindex>
						</link>
						<link>
							<linkclipref>clipitem-1520</linkclipref>
							<mediatype>audio</mediatype>
							<trackindex>1</trackindex>
							<clipindex>485</clipindex>
							<groupindex>1</groupindex>
						</link>
					</clipitem>
					<clipitem id="clipitem-486">
						<masterclipid>masterclip-2</masterclipid>
						<name>chandrika rocket equations</name>
						<start>34319</start>
						<end>34354</end>
						<in>58950</in>
						<out>58985</out>
						<file id="file-1" />
						<link>
							<linkclipref>clipitem-486</linkclipref>
							<mediatype>video</mediatype>
							<trackindex>1</trackindex>
							<clipindex>486</clipindex>
						</link>
						<link>
							<linkclipref>clipitem-1521</linkclipref>
							<mediatype>audio</mediatype>
							<trackindex>1</trackindex>
							<clipindex>486</clipindex>
							<groupindex>1</groupindex>
						</link>
					</clipitem>
					<clipitem id="clipitem-487">
						<masterclipid>masterclip-2</masterclipid>
						<name>chandrika rocket equations</name>
						<start>34354</start>
						<end>34401</end>
						<in>59057</in>
						<out>59104</out>
						<file id="file-1" />
						<link>
							<linkclipref>clipitem-487</linkclipref>
							<mediatype>video</mediatype>
							<trackindex>1</trackindex>
							<clipindex>487</clipindex>
						</link>
						<link>
							<linkclipref>clipitem-1522</linkclipref>
							<mediatype>audio</mediatype>
							<trackindex>1</trackindex>
							<clipindex>487</clipindex>
							<groupindex>1</groupindex>
						</link>
					</clipitem>
					<clipitem id="clipitem-488">
						<masterclipid>masterclip-2</masterclipid>
						<name>chandrika rocket equations</name>
						<start>34401</start>
						<end>34473</end>
						<in>59157</in>
						<out>59229</out>
						<file id="file-1" />
						<link>
							<linkclipref>clipitem-488</linkclipref>
							<mediatype>video</mediatype>
							<trackindex>1</trackindex>
							<clipindex>488</clipindex>
						</link>
						<link>
							<linkclipref>clipitem-1523</linkclipref>
							<mediatype>audio</mediatype>
							<trackindex>1</trackindex>
							<clipindex>488</clipindex>
							<groupindex>1</groupindex>
						</link>
					</clipitem>
					<clipitem id="clipitem-489">
						<masterclipid>masterclip-2</masterclipid>
						<name>chandrika rocket equations</name>
						<start>34473</start>
						<end>34621</end>
						<in>59230</in>
						<out>59378</out>
						<file id="file-1" />
						<link>
							<linkclipref>clipitem-489</linkclipref>
							<mediatype>video</mediatype>
							<trackindex>1</trackindex>
							<clipindex>489</clipindex>
						</link>
						<link>
							<linkclipref>clipitem-1524</linkclipref>
							<mediatype>audio</mediatype>
							<trackindex>1</trackindex>
							<clipindex>489</clipindex>
							<groupindex>1</groupindex>
						</link>
					</clipitem>
					<clipitem id="clipitem-490">
						<masterclipid>masterclip-2</masterclipid>
						<name>chandrika rocket equations</name>
						<start>34621</start>
						<end>34665</end>
						<in>59384</in>
						<out>59428</out>
						<file id="file-1" />
						<link>
							<linkclipref>clipitem-490</linkclipref>
							<mediatype>video</mediatype>
							<trackindex>1</trackindex>
							<clipindex>490</clipindex>
						</link>
						<link>
							<linkclipref>clipitem-1525</linkclipref>
							<mediatype>audio</mediatype>
							<trackindex>1</trackindex>
							<clipindex>490</clipindex>
							<groupindex>1</groupindex>
						</link>
					</clipitem>
					<clipitem id="clipitem-491">
						<masterclipid>masterclip-2</masterclipid>
						<name>chandrika rocket equations</name>
						<start>34665</start>
						<end>34714</end>
						<in>59432</in>
						<out>59481</out>
						<file id="file-1" />
						<link>
							<linkclipref>clipitem-491</linkclipref>
							<mediatype>video</mediatype>
							<trackindex>1</trackindex>
							<clipindex>491</clipindex>
						</link>
						<link>
							<linkclipref>clipitem-1526</linkclipref>
							<mediatype>audio</mediatype>
							<trackindex>1</trackindex>
							<clipindex>491</clipindex>
							<groupindex>1</groupindex>
						</link>
					</clipitem>
					<clipitem id="clipitem-492">
						<masterclipid>masterclip-2</masterclipid>
						<name>chandrika rocket equations</name>
						<start>34714</start>
						<end>34884</end>
						<in>59489</in>
						<out>59659</out>
						<file id="file-1" />
						<link>
							<linkclipref>clipitem-492</linkclipref>
							<mediatype>video</mediatype>
							<trackindex>1</trackindex>
							<clipindex>492</clipindex>
						</link>
						<link>
							<linkclipref>clipitem-1527</linkclipref>
							<mediatype>audio</mediatype>
							<trackindex>1</trackindex>
							<clipindex>492</clipindex>
							<groupindex>1</groupindex>
						</link>
					</clipitem>
					<clipitem id="clipitem-493">
						<masterclipid>masterclip-2</masterclipid>
						<name>chandrika rocket equations</name>
						<start>34884</start>
						<end>34900</end>
						<in>59678</in>
						<out>59694</out>
						<file id="file-1" />
						<link>
							<linkclipref>clipitem-493</linkclipref>
							<mediatype>video</mediatype>
							<trackindex>1</trackindex>
							<clipindex>493</clipindex>
						</link>
						<link>
							<linkclipref>clipitem-1528</linkclipref>
							<mediatype>audio</mediatype>
							<trackindex>1</trackindex>
							<clipindex>493</clipindex>
							<groupindex>1</groupindex>
						</link>
					</clipitem>
					<clipitem id="clipitem-494">
						<masterclipid>masterclip-2</masterclipid>
						<name>chandrika rocket equations</name>
						<start>34900</start>
						<end>35047</end>
						<in>59729</in>
						<out>59876</out>
						<file id="file-1" />
						<link>
							<linkclipref>clipitem-494</linkclipref>
							<mediatype>video</mediatype>
							<trackindex>1</trackindex>
							<clipindex>494</clipindex>
						</link>
						<link>
							<linkclipref>clipitem-1529</linkclipref>
							<mediatype>audio</mediatype>
							<trackindex>1</trackindex>
							<clipindex>494</clipindex>
							<groupindex>1</groupindex>
						</link>
					</clipitem>
					<clipitem id="clipitem-495">
						<masterclipid>masterclip-2</masterclipid>
						<name>chandrika rocket equations</name>
						<start>35047</start>
						<end>35071</end>
						<in>59898</in>
						<out>59922</out>
						<file id="file-1" />
						<link>
							<linkclipref>clipitem-495</linkclipref>
							<mediatype>video</mediatype>
							<trackindex>1</trackindex>
							<clipindex>495</clipindex>
						</link>
						<link>
							<linkclipref>clipitem-1530</linkclipref>
							<mediatype>audio</mediatype>
							<trackindex>1</trackindex>
							<clipindex>495</clipindex>
							<groupindex>1</groupindex>
						</link>
					</clipitem>
					<clipitem id="clipitem-496">
						<masterclipid>masterclip-2</masterclipid>
						<name>chandrika rocket equations</name>
						<start>35071</start>
						<end>35183</end>
						<in>60008</in>
						<out>60120</out>
						<file id="file-1" />
						<link>
							<linkclipref>clipitem-496</linkclipref>
							<mediatype>video</mediatype>
							<trackindex>1</trackindex>
							<clipindex>496</clipindex>
						</link>
						<link>
							<linkclipref>clipitem-1531</linkclipref>
							<mediatype>audio</mediatype>
							<trackindex>1</trackindex>
							<clipindex>496</clipindex>
							<groupindex>1</groupindex>
						</link>
					</clipitem>
					<clipitem id="clipitem-497">
						<masterclipid>masterclip-2</masterclipid>
						<name>chandrika rocket equations</name>
						<start>35183</start>
						<end>35331</end>
						<in>60176</in>
						<out>60324</out>
						<file id="file-1" />
						<link>
							<linkclipref>clipitem-497</linkclipref>
							<mediatype>video</mediatype>
							<trackindex>1</trackindex>
							<clipindex>497</clipindex>
						</link>
						<link>
							<linkclipref>clipitem-1532</linkclipref>
							<mediatype>audio</mediatype>
							<trackindex>1</trackindex>
							<clipindex>497</clipindex>
							<groupindex>1</groupindex>
						</link>
					</clipitem>
					<clipitem id="clipitem-498">
						<masterclipid>masterclip-2</masterclipid>
						<name>chandrika rocket equations</name>
						<start>35331</start>
						<end>35388</end>
						<in>60328</in>
						<out>60385</out>
						<file id="file-1" />
						<link>
							<linkclipref>clipitem-498</linkclipref>
							<mediatype>video</mediatype>
							<trackindex>1</trackindex>
							<clipindex>498</clipindex>
						</link>
						<link>
							<linkclipref>clipitem-1533</linkclipref>
							<mediatype>audio</mediatype>
							<trackindex>1</trackindex>
							<clipindex>498</clipindex>
							<groupindex>1</groupindex>
						</link>
					</clipitem>
					<clipitem id="clipitem-499">
						<masterclipid>masterclip-2</masterclipid>
						<name>chandrika rocket equations</name>
						<start>35388</start>
						<end>35457</end>
						<in>60397</in>
						<out>60466</out>
						<file id="file-1" />
						<link>
							<linkclipref>clipitem-499</linkclipref>
							<mediatype>video</mediatype>
							<trackindex>1</trackindex>
							<clipindex>499</clipindex>
						</link>
						<link>
							<linkclipref>clipitem-1534</linkclipref>
							<mediatype>audio</mediatype>
							<trackindex>1</trackindex>
							<clipindex>499</clipindex>
							<groupindex>1</groupindex>
						</link>
					</clipitem>
					<clipitem id="clipitem-500">
						<masterclipid>masterclip-2</masterclipid>
						<name>chandrika rocket equations</name>
						<start>35457</start>
						<end>35482</end>
						<in>60539</in>
						<out>60564</out>
						<file id="file-1" />
						<link>
							<linkclipref>clipitem-500</linkclipref>
							<mediatype>video</mediatype>
							<trackindex>1</trackindex>
							<clipindex>500</clipindex>
						</link>
						<link>
							<linkclipref>clipitem-1535</linkclipref>
							<mediatype>audio</mediatype>
							<trackindex>1</trackindex>
							<clipindex>500</clipindex>
							<groupindex>1</groupindex>
						</link>
					</clipitem>
					<clipitem id="clipitem-501">
						<masterclipid>masterclip-2</masterclipid>
						<name>chandrika rocket equations</name>
						<start>35482</start>
						<end>35511</end>
						<in>60598</in>
						<out>60627</out>
						<file id="file-1" />
						<link>
							<linkclipref>clipitem-501</linkclipref>
							<mediatype>video</mediatype>
							<trackindex>1</trackindex>
							<clipindex>501</clipindex>
						</link>
						<link>
							<linkclipref>clipitem-1536</linkclipref>
							<mediatype>audio</mediatype>
							<trackindex>1</trackindex>
							<clipindex>501</clipindex>
							<groupindex>1</groupindex>
						</link>
					</clipitem>
					<clipitem id="clipitem-502">
						<masterclipid>masterclip-2</masterclipid>
						<name>chandrika rocket equations</name>
						<start>35511</start>
						<end>35581</end>
						<in>60639</in>
						<out>60709</out>
						<file id="file-1" />
						<link>
							<linkclipref>clipitem-502</linkclipref>
							<mediatype>video</mediatype>
							<trackindex>1</trackindex>
							<clipindex>502</clipindex>
						</link>
						<link>
							<linkclipref>clipitem-1537</linkclipref>
							<mediatype>audio</mediatype>
							<trackindex>1</trackindex>
							<clipindex>502</clipindex>
							<groupindex>1</groupindex>
						</link>
					</clipitem>
					<clipitem id="clipitem-503">
						<masterclipid>masterclip-2</masterclipid>
						<name>chandrika rocket equations</name>
						<start>35581</start>
						<end>35612</end>
						<in>60734</in>
						<out>60765</out>
						<file id="file-1" />
						<link>
							<linkclipref>clipitem-503</linkclipref>
							<mediatype>video</mediatype>
							<trackindex>1</trackindex>
							<clipindex>503</clipindex>
						</link>
						<link>
							<linkclipref>clipitem-1538</linkclipref>
							<mediatype>audio</mediatype>
							<trackindex>1</trackindex>
							<clipindex>503</clipindex>
							<groupindex>1</groupindex>
						</link>
					</clipitem>
					<clipitem id="clipitem-504">
						<masterclipid>masterclip-2</masterclipid>
						<name>chandrika rocket equations</name>
						<start>35612</start>
						<end>35640</end>
						<in>60766</in>
						<out>60794</out>
						<file id="file-1" />
						<link>
							<linkclipref>clipitem-504</linkclipref>
							<mediatype>video</mediatype>
							<trackindex>1</trackindex>
							<clipindex>504</clipindex>
						</link>
						<link>
							<linkclipref>clipitem-1539</linkclipref>
							<mediatype>audio</mediatype>
							<trackindex>1</trackindex>
							<clipindex>504</clipindex>
							<groupindex>1</groupindex>
						</link>
					</clipitem>
					<clipitem id="clipitem-505">
						<masterclipid>masterclip-2</masterclipid>
						<name>chandrika rocket equations</name>
						<start>35640</start>
						<end>35716</end>
						<in>60803</in>
						<out>60879</out>
						<file id="file-1" />
						<link>
							<linkclipref>clipitem-505</linkclipref>
							<mediatype>video</mediatype>
							<trackindex>1</trackindex>
							<clipindex>505</clipindex>
						</link>
						<link>
							<linkclipref>clipitem-1540</linkclipref>
							<mediatype>audio</mediatype>
							<trackindex>1</trackindex>
							<clipindex>505</clipindex>
							<groupindex>1</groupindex>
						</link>
					</clipitem>
					<clipitem id="clipitem-506">
						<masterclipid>masterclip-2</masterclipid>
						<name>chandrika rocket equations</name>
						<start>35716</start>
						<end>35795</end>
						<in>60881</in>
						<out>60960</out>
						<file id="file-1" />
						<link>
							<linkclipref>clipitem-506</linkclipref>
							<mediatype>video</mediatype>
							<trackindex>1</trackindex>
							<clipindex>506</clipindex>
						</link>
						<link>
							<linkclipref>clipitem-1541</linkclipref>
							<mediatype>audio</mediatype>
							<trackindex>1</trackindex>
							<clipindex>506</clipindex>
							<groupindex>1</groupindex>
						</link>
					</clipitem>
					<clipitem id="clipitem-507">
						<masterclipid>masterclip-2</masterclipid>
						<name>chandrika rocket equations</name>
						<start>35795</start>
						<end>35826</end>
						<in>60964</in>
						<out>60995</out>
						<file id="file-1" />
						<link>
							<linkclipref>clipitem-507</linkclipref>
							<mediatype>video</mediatype>
							<trackindex>1</trackindex>
							<clipindex>507</clipindex>
						</link>
						<link>
							<linkclipref>clipitem-1542</linkclipref>
							<mediatype>audio</mediatype>
							<trackindex>1</trackindex>
							<clipindex>507</clipindex>
							<groupindex>1</groupindex>
						</link>
					</clipitem>
					<clipitem id="clipitem-508">
						<masterclipid>masterclip-2</masterclipid>
						<name>chandrika rocket equations</name>
						<start>35826</start>
						<end>35862</end>
						<in>61036</in>
						<out>61072</out>
						<file id="file-1" />
						<link>
							<linkclipref>clipitem-508</linkclipref>
							<mediatype>video</mediatype>
							<trackindex>1</trackindex>
							<clipindex>508</clipindex>
						</link>
						<link>
							<linkclipref>clipitem-1543</linkclipref>
							<mediatype>audio</mediatype>
							<trackindex>1</trackindex>
							<clipindex>508</clipindex>
							<groupindex>1</groupindex>
						</link>
					</clipitem>
					<clipitem id="clipitem-509">
						<masterclipid>masterclip-2</masterclipid>
						<name>chandrika rocket equations</name>
						<start>35862</start>
						<end>35897</end>
						<in>61099</in>
						<out>61134</out>
						<file id="file-1" />
						<link>
							<linkclipref>clipitem-509</linkclipref>
							<mediatype>video</mediatype>
							<trackindex>1</trackindex>
							<clipindex>509</clipindex>
						</link>
						<link>
							<linkclipref>clipitem-1544</linkclipref>
							<mediatype>audio</mediatype>
							<trackindex>1</trackindex>
							<clipindex>509</clipindex>
							<groupindex>1</groupindex>
						</link>
					</clipitem>
					<clipitem id="clipitem-510">
						<masterclipid>masterclip-2</masterclipid>
						<name>chandrika rocket equations</name>
						<start>35897</start>
						<end>35936</end>
						<in>61150</in>
						<out>61189</out>
						<file id="file-1" />
						<link>
							<linkclipref>clipitem-510</linkclipref>
							<mediatype>video</mediatype>
							<trackindex>1</trackindex>
							<clipindex>510</clipindex>
						</link>
						<link>
							<linkclipref>clipitem-1545</linkclipref>
							<mediatype>audio</mediatype>
							<trackindex>1</trackindex>
							<clipindex>510</clipindex>
							<groupindex>1</groupindex>
						</link>
					</clipitem>
					<clipitem id="clipitem-511">
						<masterclipid>masterclip-2</masterclipid>
						<name>chandrika rocket equations</name>
						<start>35936</start>
						<end>35954</end>
						<in>61206</in>
						<out>61224</out>
						<file id="file-1" />
						<link>
							<linkclipref>clipitem-511</linkclipref>
							<mediatype>video</mediatype>
							<trackindex>1</trackindex>
							<clipindex>511</clipindex>
						</link>
						<link>
							<linkclipref>clipitem-1546</linkclipref>
							<mediatype>audio</mediatype>
							<trackindex>1</trackindex>
							<clipindex>511</clipindex>
							<groupindex>1</groupindex>
						</link>
					</clipitem>
					<clipitem id="clipitem-512">
						<masterclipid>masterclip-2</masterclipid>
						<name>chandrika rocket equations</name>
						<start>35954</start>
						<end>36003</end>
						<in>61238</in>
						<out>61287</out>
						<file id="file-1" />
						<link>
							<linkclipref>clipitem-512</linkclipref>
							<mediatype>video</mediatype>
							<trackindex>1</trackindex>
							<clipindex>512</clipindex>
						</link>
						<link>
							<linkclipref>clipitem-1547</linkclipref>
							<mediatype>audio</mediatype>
							<trackindex>1</trackindex>
							<clipindex>512</clipindex>
							<groupindex>1</groupindex>
						</link>
					</clipitem>
					<clipitem id="clipitem-513">
						<masterclipid>masterclip-2</masterclipid>
						<name>chandrika rocket equations</name>
						<start>36003</start>
						<end>36032</end>
						<in>61337</in>
						<out>61366</out>
						<file id="file-1" />
						<link>
							<linkclipref>clipitem-513</linkclipref>
							<mediatype>video</mediatype>
							<trackindex>1</trackindex>
							<clipindex>513</clipindex>
						</link>
						<link>
							<linkclipref>clipitem-1548</linkclipref>
							<mediatype>audio</mediatype>
							<trackindex>1</trackindex>
							<clipindex>513</clipindex>
							<groupindex>1</groupindex>
						</link>
					</clipitem>
					<clipitem id="clipitem-514">
						<masterclipid>masterclip-2</masterclipid>
						<name>chandrika rocket equations</name>
						<start>36032</start>
						<end>36059</end>
						<in>61378</in>
						<out>61405</out>
						<file id="file-1" />
						<link>
							<linkclipref>clipitem-514</linkclipref>
							<mediatype>video</mediatype>
							<trackindex>1</trackindex>
							<clipindex>514</clipindex>
						</link>
						<link>
							<linkclipref>clipitem-1549</linkclipref>
							<mediatype>audio</mediatype>
							<trackindex>1</trackindex>
							<clipindex>514</clipindex>
							<groupindex>1</groupindex>
						</link>
					</clipitem>
					<clipitem id="clipitem-515">
						<masterclipid>masterclip-2</masterclipid>
						<name>chandrika rocket equations</name>
						<start>36059</start>
						<end>36088</end>
						<in>61422</in>
						<out>61451</out>
						<file id="file-1" />
						<link>
							<linkclipref>clipitem-515</linkclipref>
							<mediatype>video</mediatype>
							<trackindex>1</trackindex>
							<clipindex>515</clipindex>
						</link>
						<link>
							<linkclipref>clipitem-1550</linkclipref>
							<mediatype>audio</mediatype>
							<trackindex>1</trackindex>
							<clipindex>515</clipindex>
							<groupindex>1</groupindex>
						</link>
					</clipitem>
					<clipitem id="clipitem-516">
						<masterclipid>masterclip-2</masterclipid>
						<name>chandrika rocket equations</name>
						<start>36088</start>
						<end>36114</end>
						<in>61459</in>
						<out>61485</out>
						<file id="file-1" />
						<link>
							<linkclipref>clipitem-516</linkclipref>
							<mediatype>video</mediatype>
							<trackindex>1</trackindex>
							<clipindex>516</clipindex>
						</link>
						<link>
							<linkclipref>clipitem-1551</linkclipref>
							<mediatype>audio</mediatype>
							<trackindex>1</trackindex>
							<clipindex>516</clipindex>
							<groupindex>1</groupindex>
						</link>
					</clipitem>
					<clipitem id="clipitem-517">
						<masterclipid>masterclip-2</masterclipid>
						<name>chandrika rocket equations</name>
						<start>36114</start>
						<end>36314</end>
						<in>61541</in>
						<out>61741</out>
						<file id="file-1" />
						<link>
							<linkclipref>clipitem-517</linkclipref>
							<mediatype>video</mediatype>
							<trackindex>1</trackindex>
							<clipindex>517</clipindex>
						</link>
						<link>
							<linkclipref>clipitem-1552</linkclipref>
							<mediatype>audio</mediatype>
							<trackindex>1</trackindex>
							<clipindex>517</clipindex>
							<groupindex>1</groupindex>
						</link>
					</clipitem>
					<clipitem id="clipitem-518">
						<masterclipid>masterclip-2</masterclipid>
						<name>chandrika rocket equations</name>
						<start>36314</start>
						<end>36354</end>
						<in>61803</in>
						<out>61843</out>
						<file id="file-1" />
						<link>
							<linkclipref>clipitem-518</linkclipref>
							<mediatype>video</mediatype>
							<trackindex>1</trackindex>
							<clipindex>518</clipindex>
						</link>
						<link>
							<linkclipref>clipitem-1553</linkclipref>
							<mediatype>audio</mediatype>
							<trackindex>1</trackindex>
							<clipindex>518</clipindex>
							<groupindex>1</groupindex>
						</link>
					</clipitem>
					<clipitem id="clipitem-519">
						<masterclipid>masterclip-2</masterclipid>
						<name>chandrika rocket equations</name>
						<start>36354</start>
						<end>36411</end>
						<in>61846</in>
						<out>61903</out>
						<file id="file-1" />
						<link>
							<linkclipref>clipitem-519</linkclipref>
							<mediatype>video</mediatype>
							<trackindex>1</trackindex>
							<clipindex>519</clipindex>
						</link>
						<link>
							<linkclipref>clipitem-1554</linkclipref>
							<mediatype>audio</mediatype>
							<trackindex>1</trackindex>
							<clipindex>519</clipindex>
							<groupindex>1</groupindex>
						</link>
					</clipitem>
					<clipitem id="clipitem-520">
						<masterclipid>masterclip-2</masterclipid>
						<name>chandrika rocket equations</name>
						<start>36411</start>
						<end>36465</end>
						<in>61916</in>
						<out>61970</out>
						<file id="file-1" />
						<link>
							<linkclipref>clipitem-520</linkclipref>
							<mediatype>video</mediatype>
							<trackindex>1</trackindex>
							<clipindex>520</clipindex>
						</link>
						<link>
							<linkclipref>clipitem-1555</linkclipref>
							<mediatype>audio</mediatype>
							<trackindex>1</trackindex>
							<clipindex>520</clipindex>
							<groupindex>1</groupindex>
						</link>
					</clipitem>
					<clipitem id="clipitem-521">
						<masterclipid>masterclip-2</masterclipid>
						<name>chandrika rocket equations</name>
						<start>36465</start>
						<end>36492</end>
						<in>61993</in>
						<out>62020</out>
						<file id="file-1" />
						<link>
							<linkclipref>clipitem-521</linkclipref>
							<mediatype>video</mediatype>
							<trackindex>1</trackindex>
							<clipindex>521</clipindex>
						</link>
						<link>
							<linkclipref>clipitem-1556</linkclipref>
							<mediatype>audio</mediatype>
							<trackindex>1</trackindex>
							<clipindex>521</clipindex>
							<groupindex>1</groupindex>
						</link>
					</clipitem>
					<clipitem id="clipitem-522">
						<masterclipid>masterclip-2</masterclipid>
						<name>chandrika rocket equations</name>
						<start>36492</start>
						<end>36507</end>
						<in>62024</in>
						<out>62039</out>
						<file id="file-1" />
						<link>
							<linkclipref>clipitem-522</linkclipref>
							<mediatype>video</mediatype>
							<trackindex>1</trackindex>
							<clipindex>522</clipindex>
						</link>
						<link>
							<linkclipref>clipitem-1557</linkclipref>
							<mediatype>audio</mediatype>
							<trackindex>1</trackindex>
							<clipindex>522</clipindex>
							<groupindex>1</groupindex>
						</link>
					</clipitem>
					<clipitem id="clipitem-523">
						<masterclipid>masterclip-2</masterclipid>
						<name>chandrika rocket equations</name>
						<start>36507</start>
						<end>36547</end>
						<in>62047</in>
						<out>62087</out>
						<file id="file-1" />
						<link>
							<linkclipref>clipitem-523</linkclipref>
							<mediatype>video</mediatype>
							<trackindex>1</trackindex>
							<clipindex>523</clipindex>
						</link>
						<link>
							<linkclipref>clipitem-1558</linkclipref>
							<mediatype>audio</mediatype>
							<trackindex>1</trackindex>
							<clipindex>523</clipindex>
							<groupindex>1</groupindex>
						</link>
					</clipitem>
					<clipitem id="clipitem-524">
						<masterclipid>masterclip-2</masterclipid>
						<name>chandrika rocket equations</name>
						<start>36547</start>
						<end>36575</end>
						<in>62088</in>
						<out>62116</out>
						<file id="file-1" />
						<link>
							<linkclipref>clipitem-524</linkclipref>
							<mediatype>video</mediatype>
							<trackindex>1</trackindex>
							<clipindex>524</clipindex>
						</link>
						<link>
							<linkclipref>clipitem-1559</linkclipref>
							<mediatype>audio</mediatype>
							<trackindex>1</trackindex>
							<clipindex>524</clipindex>
							<groupindex>1</groupindex>
						</link>
					</clipitem>
					<clipitem id="clipitem-525">
						<masterclipid>masterclip-2</masterclipid>
						<name>chandrika rocket equations</name>
						<start>36575</start>
						<end>36600</end>
						<in>62127</in>
						<out>62152</out>
						<file id="file-1" />
						<link>
							<linkclipref>clipitem-525</linkclipref>
							<mediatype>video</mediatype>
							<trackindex>1</trackindex>
							<clipindex>525</clipindex>
						</link>
						<link>
							<linkclipref>clipitem-1560</linkclipref>
							<mediatype>audio</mediatype>
							<trackindex>1</trackindex>
							<clipindex>525</clipindex>
							<groupindex>1</groupindex>
						</link>
					</clipitem>
					<clipitem id="clipitem-526">
						<masterclipid>masterclip-2</masterclipid>
						<name>chandrika rocket equations</name>
						<start>36600</start>
						<end>36640</end>
						<in>62163</in>
						<out>62203</out>
						<file id="file-1" />
						<link>
							<linkclipref>clipitem-526</linkclipref>
							<mediatype>video</mediatype>
							<trackindex>1</trackindex>
							<clipindex>526</clipindex>
						</link>
						<link>
							<linkclipref>clipitem-1561</linkclipref>
							<mediatype>audio</mediatype>
							<trackindex>1</trackindex>
							<clipindex>526</clipindex>
							<groupindex>1</groupindex>
						</link>
					</clipitem>
					<clipitem id="clipitem-527">
						<masterclipid>masterclip-2</masterclipid>
						<name>chandrika rocket equations</name>
						<start>36640</start>
						<end>36765</end>
						<in>62220</in>
						<out>62345</out>
						<file id="file-1" />
						<link>
							<linkclipref>clipitem-527</linkclipref>
							<mediatype>video</mediatype>
							<trackindex>1</trackindex>
							<clipindex>527</clipindex>
						</link>
						<link>
							<linkclipref>clipitem-1562</linkclipref>
							<mediatype>audio</mediatype>
							<trackindex>1</trackindex>
							<clipindex>527</clipindex>
							<groupindex>1</groupindex>
						</link>
					</clipitem>
					<clipitem id="clipitem-528">
						<masterclipid>masterclip-2</masterclipid>
						<name>chandrika rocket equations</name>
						<start>36765</start>
						<end>36796</end>
						<in>62348</in>
						<out>62379</out>
						<file id="file-1" />
						<link>
							<linkclipref>clipitem-528</linkclipref>
							<mediatype>video</mediatype>
							<trackindex>1</trackindex>
							<clipindex>528</clipindex>
						</link>
						<link>
							<linkclipref>clipitem-1563</linkclipref>
							<mediatype>audio</mediatype>
							<trackindex>1</trackindex>
							<clipindex>528</clipindex>
							<groupindex>1</groupindex>
						</link>
					</clipitem>
					<clipitem id="clipitem-529">
						<masterclipid>masterclip-2</masterclipid>
						<name>chandrika rocket equations</name>
						<start>36796</start>
						<end>36889</end>
						<in>62397</in>
						<out>62490</out>
						<file id="file-1" />
						<link>
							<linkclipref>clipitem-529</linkclipref>
							<mediatype>video</mediatype>
							<trackindex>1</trackindex>
							<clipindex>529</clipindex>
						</link>
						<link>
							<linkclipref>clipitem-1564</linkclipref>
							<mediatype>audio</mediatype>
							<trackindex>1</trackindex>
							<clipindex>529</clipindex>
							<groupindex>1</groupindex>
						</link>
					</clipitem>
					<clipitem id="clipitem-530">
						<masterclipid>masterclip-2</masterclipid>
						<name>chandrika rocket equations</name>
						<start>36889</start>
						<end>36976</end>
						<in>62503</in>
						<out>62590</out>
						<file id="file-1" />
						<link>
							<linkclipref>clipitem-530</linkclipref>
							<mediatype>video</mediatype>
							<trackindex>1</trackindex>
							<clipindex>530</clipindex>
						</link>
						<link>
							<linkclipref>clipitem-1565</linkclipref>
							<mediatype>audio</mediatype>
							<trackindex>1</trackindex>
							<clipindex>530</clipindex>
							<groupindex>1</groupindex>
						</link>
					</clipitem>
					<clipitem id="clipitem-531">
						<masterclipid>masterclip-2</masterclipid>
						<name>chandrika rocket equations</name>
						<start>36976</start>
						<end>37353</end>
						<in>62593</in>
						<out>62970</out>
						<file id="file-1" />
						<link>
							<linkclipref>clipitem-531</linkclipref>
							<mediatype>video</mediatype>
							<trackindex>1</trackindex>
							<clipindex>531</clipindex>
						</link>
						<link>
							<linkclipref>clipitem-1566</linkclipref>
							<mediatype>audio</mediatype>
							<trackindex>1</trackindex>
							<clipindex>531</clipindex>
							<groupindex>1</groupindex>
						</link>
					</clipitem>
					<clipitem id="clipitem-532">
						<masterclipid>masterclip-2</masterclipid>
						<name>chandrika rocket equations</name>
						<start>37353</start>
						<end>37419</end>
						<in>62973</in>
						<out>63039</out>
						<file id="file-1" />
						<link>
							<linkclipref>clipitem-532</linkclipref>
							<mediatype>video</mediatype>
							<trackindex>1</trackindex>
							<clipindex>532</clipindex>
						</link>
						<link>
							<linkclipref>clipitem-1567</linkclipref>
							<mediatype>audio</mediatype>
							<trackindex>1</trackindex>
							<clipindex>532</clipindex>
							<groupindex>1</groupindex>
						</link>
					</clipitem>
					<clipitem id="clipitem-533">
						<masterclipid>masterclip-2</masterclipid>
						<name>chandrika rocket equations</name>
						<start>37419</start>
						<end>37451</end>
						<in>63134</in>
						<out>63166</out>
						<file id="file-1" />
						<link>
							<linkclipref>clipitem-533</linkclipref>
							<mediatype>video</mediatype>
							<trackindex>1</trackindex>
							<clipindex>533</clipindex>
						</link>
						<link>
							<linkclipref>clipitem-1568</linkclipref>
							<mediatype>audio</mediatype>
							<trackindex>1</trackindex>
							<clipindex>533</clipindex>
							<groupindex>1</groupindex>
						</link>
					</clipitem>
					<clipitem id="clipitem-534">
						<masterclipid>masterclip-2</masterclipid>
						<name>chandrika rocket equations</name>
						<start>37451</start>
						<end>37506</end>
						<in>63183</in>
						<out>63238</out>
						<file id="file-1" />
						<link>
							<linkclipref>clipitem-534</linkclipref>
							<mediatype>video</mediatype>
							<trackindex>1</trackindex>
							<clipindex>534</clipindex>
						</link>
						<link>
							<linkclipref>clipitem-1569</linkclipref>
							<mediatype>audio</mediatype>
							<trackindex>1</trackindex>
							<clipindex>534</clipindex>
							<groupindex>1</groupindex>
						</link>
					</clipitem>
					<clipitem id="clipitem-535">
						<masterclipid>masterclip-2</masterclipid>
						<name>chandrika rocket equations</name>
						<start>37506</start>
						<end>37629</end>
						<in>63270</in>
						<out>63393</out>
						<file id="file-1" />
						<link>
							<linkclipref>clipitem-535</linkclipref>
							<mediatype>video</mediatype>
							<trackindex>1</trackindex>
							<clipindex>535</clipindex>
						</link>
						<link>
							<linkclipref>clipitem-1570</linkclipref>
							<mediatype>audio</mediatype>
							<trackindex>1</trackindex>
							<clipindex>535</clipindex>
							<groupindex>1</groupindex>
						</link>
					</clipitem>
					<clipitem id="clipitem-536">
						<masterclipid>masterclip-2</masterclipid>
						<name>chandrika rocket equations</name>
						<start>37629</start>
						<end>37743</end>
						<in>63402</in>
						<out>63516</out>
						<file id="file-1" />
						<link>
							<linkclipref>clipitem-536</linkclipref>
							<mediatype>video</mediatype>
							<trackindex>1</trackindex>
							<clipindex>536</clipindex>
						</link>
						<link>
							<linkclipref>clipitem-1571</linkclipref>
							<mediatype>audio</mediatype>
							<trackindex>1</trackindex>
							<clipindex>536</clipindex>
							<groupindex>1</groupindex>
						</link>
					</clipitem>
					<clipitem id="clipitem-537">
						<masterclipid>masterclip-2</masterclipid>
						<name>chandrika rocket equations</name>
						<start>37743</start>
						<end>37806</end>
						<in>63518</in>
						<out>63581</out>
						<file id="file-1" />
						<link>
							<linkclipref>clipitem-537</linkclipref>
							<mediatype>video</mediatype>
							<trackindex>1</trackindex>
							<clipindex>537</clipindex>
						</link>
						<link>
							<linkclipref>clipitem-1572</linkclipref>
							<mediatype>audio</mediatype>
							<trackindex>1</trackindex>
							<clipindex>537</clipindex>
							<groupindex>1</groupindex>
						</link>
					</clipitem>
					<clipitem id="clipitem-538">
						<masterclipid>masterclip-2</masterclipid>
						<name>chandrika rocket equations</name>
						<start>37806</start>
						<end>37863</end>
						<in>63812</in>
						<out>63869</out>
						<file id="file-1" />
						<link>
							<linkclipref>clipitem-538</linkclipref>
							<mediatype>video</mediatype>
							<trackindex>1</trackindex>
							<clipindex>538</clipindex>
						</link>
						<link>
							<linkclipref>clipitem-1573</linkclipref>
							<mediatype>audio</mediatype>
							<trackindex>1</trackindex>
							<clipindex>538</clipindex>
							<groupindex>1</groupindex>
						</link>
					</clipitem>
					<clipitem id="clipitem-539">
						<masterclipid>masterclip-2</masterclipid>
						<name>chandrika rocket equations</name>
						<start>37863</start>
						<end>37992</end>
						<in>63888</in>
						<out>64017</out>
						<file id="file-1" />
						<link>
							<linkclipref>clipitem-539</linkclipref>
							<mediatype>video</mediatype>
							<trackindex>1</trackindex>
							<clipindex>539</clipindex>
						</link>
						<link>
							<linkclipref>clipitem-1574</linkclipref>
							<mediatype>audio</mediatype>
							<trackindex>1</trackindex>
							<clipindex>539</clipindex>
							<groupindex>1</groupindex>
						</link>
					</clipitem>
					<clipitem id="clipitem-540">
						<masterclipid>masterclip-2</masterclipid>
						<name>chandrika rocket equations</name>
						<start>37992</start>
						<end>38091</end>
						<in>64022</in>
						<out>64121</out>
						<file id="file-1" />
						<link>
							<linkclipref>clipitem-540</linkclipref>
							<mediatype>video</mediatype>
							<trackindex>1</trackindex>
							<clipindex>540</clipindex>
						</link>
						<link>
							<linkclipref>clipitem-1575</linkclipref>
							<mediatype>audio</mediatype>
							<trackindex>1</trackindex>
							<clipindex>540</clipindex>
							<groupindex>1</groupindex>
						</link>
					</clipitem>
					<clipitem id="clipitem-541">
						<masterclipid>masterclip-2</masterclipid>
						<name>chandrika rocket equations</name>
						<start>38091</start>
						<end>38237</end>
						<in>64177</in>
						<out>64323</out>
						<file id="file-1" />
						<link>
							<linkclipref>clipitem-541</linkclipref>
							<mediatype>video</mediatype>
							<trackindex>1</trackindex>
							<clipindex>541</clipindex>
						</link>
						<link>
							<linkclipref>clipitem-1576</linkclipref>
							<mediatype>audio</mediatype>
							<trackindex>1</trackindex>
							<clipindex>541</clipindex>
							<groupindex>1</groupindex>
						</link>
					</clipitem>
					<clipitem id="clipitem-542">
						<masterclipid>masterclip-2</masterclipid>
						<name>chandrika rocket equations</name>
						<start>38237</start>
						<end>38337</end>
						<in>64329</in>
						<out>64429</out>
						<file id="file-1" />
						<link>
							<linkclipref>clipitem-542</linkclipref>
							<mediatype>video</mediatype>
							<trackindex>1</trackindex>
							<clipindex>542</clipindex>
						</link>
						<link>
							<linkclipref>clipitem-1577</linkclipref>
							<mediatype>audio</mediatype>
							<trackindex>1</trackindex>
							<clipindex>542</clipindex>
							<groupindex>1</groupindex>
						</link>
					</clipitem>
					<clipitem id="clipitem-543">
						<masterclipid>masterclip-2</masterclipid>
						<name>chandrika rocket equations</name>
						<start>38337</start>
						<end>38435</end>
						<in>64491</in>
						<out>64589</out>
						<file id="file-1" />
						<link>
							<linkclipref>clipitem-543</linkclipref>
							<mediatype>video</mediatype>
							<trackindex>1</trackindex>
							<clipindex>543</clipindex>
						</link>
						<link>
							<linkclipref>clipitem-1578</linkclipref>
							<mediatype>audio</mediatype>
							<trackindex>1</trackindex>
							<clipindex>543</clipindex>
							<groupindex>1</groupindex>
						</link>
					</clipitem>
					<clipitem id="clipitem-544">
						<masterclipid>masterclip-2</masterclipid>
						<name>chandrika rocket equations</name>
						<start>38435</start>
						<end>38565</end>
						<in>64593</in>
						<out>64723</out>
						<file id="file-1" />
						<link>
							<linkclipref>clipitem-544</linkclipref>
							<mediatype>video</mediatype>
							<trackindex>1</trackindex>
							<clipindex>544</clipindex>
						</link>
						<link>
							<linkclipref>clipitem-1579</linkclipref>
							<mediatype>audio</mediatype>
							<trackindex>1</trackindex>
							<clipindex>544</clipindex>
							<groupindex>1</groupindex>
						</link>
					</clipitem>
					<clipitem id="clipitem-545">
						<masterclipid>masterclip-2</masterclipid>
						<name>chandrika rocket equations</name>
						<start>38565</start>
						<end>38586</end>
						<in>64810</in>
						<out>64831</out>
						<file id="file-1" />
						<link>
							<linkclipref>clipitem-545</linkclipref>
							<mediatype>video</mediatype>
							<trackindex>1</trackindex>
							<clipindex>545</clipindex>
						</link>
						<link>
							<linkclipref>clipitem-1580</linkclipref>
							<mediatype>audio</mediatype>
							<trackindex>1</trackindex>
							<clipindex>545</clipindex>
							<groupindex>1</groupindex>
						</link>
					</clipitem>
					<clipitem id="clipitem-546">
						<masterclipid>masterclip-2</masterclipid>
						<name>chandrika rocket equations</name>
						<start>38586</start>
						<end>38705</end>
						<in>64834</in>
						<out>64953</out>
						<file id="file-1" />
						<link>
							<linkclipref>clipitem-546</linkclipref>
							<mediatype>video</mediatype>
							<trackindex>1</trackindex>
							<clipindex>546</clipindex>
						</link>
						<link>
							<linkclipref>clipitem-1581</linkclipref>
							<mediatype>audio</mediatype>
							<trackindex>1</trackindex>
							<clipindex>546</clipindex>
							<groupindex>1</groupindex>
						</link>
					</clipitem>
					<clipitem id="clipitem-547">
						<masterclipid>masterclip-2</masterclipid>
						<name>chandrika rocket equations</name>
						<start>38705</start>
						<end>38730</end>
						<in>64970</in>
						<out>64995</out>
						<file id="file-1" />
						<link>
							<linkclipref>clipitem-547</linkclipref>
							<mediatype>video</mediatype>
							<trackindex>1</trackindex>
							<clipindex>547</clipindex>
						</link>
						<link>
							<linkclipref>clipitem-1582</linkclipref>
							<mediatype>audio</mediatype>
							<trackindex>1</trackindex>
							<clipindex>547</clipindex>
							<groupindex>1</groupindex>
						</link>
					</clipitem>
					<clipitem id="clipitem-548">
						<masterclipid>masterclip-2</masterclipid>
						<name>chandrika rocket equations</name>
						<start>38730</start>
						<end>38925</end>
						<in>64998</in>
						<out>65193</out>
						<file id="file-1" />
						<link>
							<linkclipref>clipitem-548</linkclipref>
							<mediatype>video</mediatype>
							<trackindex>1</trackindex>
							<clipindex>548</clipindex>
						</link>
						<link>
							<linkclipref>clipitem-1583</linkclipref>
							<mediatype>audio</mediatype>
							<trackindex>1</trackindex>
							<clipindex>548</clipindex>
							<groupindex>1</groupindex>
						</link>
					</clipitem>
					<clipitem id="clipitem-549">
						<masterclipid>masterclip-2</masterclipid>
						<name>chandrika rocket equations</name>
						<start>38925</start>
						<end>38957</end>
						<in>65214</in>
						<out>65246</out>
						<file id="file-1" />
						<link>
							<linkclipref>clipitem-549</linkclipref>
							<mediatype>video</mediatype>
							<trackindex>1</trackindex>
							<clipindex>549</clipindex>
						</link>
						<link>
							<linkclipref>clipitem-1584</linkclipref>
							<mediatype>audio</mediatype>
							<trackindex>1</trackindex>
							<clipindex>549</clipindex>
							<groupindex>1</groupindex>
						</link>
					</clipitem>
					<clipitem id="clipitem-550">
						<masterclipid>masterclip-2</masterclipid>
						<name>chandrika rocket equations</name>
						<start>38957</start>
						<end>39021</end>
						<in>65334</in>
						<out>65398</out>
						<file id="file-1" />
						<link>
							<linkclipref>clipitem-550</linkclipref>
							<mediatype>video</mediatype>
							<trackindex>1</trackindex>
							<clipindex>550</clipindex>
						</link>
						<link>
							<linkclipref>clipitem-1585</linkclipref>
							<mediatype>audio</mediatype>
							<trackindex>1</trackindex>
							<clipindex>550</clipindex>
							<groupindex>1</groupindex>
						</link>
					</clipitem>
					<clipitem id="clipitem-551">
						<masterclipid>masterclip-2</masterclipid>
						<name>chandrika rocket equations</name>
						<start>39021</start>
						<end>39051</end>
						<in>65488</in>
						<out>65518</out>
						<file id="file-1" />
						<link>
							<linkclipref>clipitem-551</linkclipref>
							<mediatype>video</mediatype>
							<trackindex>1</trackindex>
							<clipindex>551</clipindex>
						</link>
						<link>
							<linkclipref>clipitem-1586</linkclipref>
							<mediatype>audio</mediatype>
							<trackindex>1</trackindex>
							<clipindex>551</clipindex>
							<groupindex>1</groupindex>
						</link>
					</clipitem>
					<clipitem id="clipitem-552">
						<masterclipid>masterclip-2</masterclipid>
						<name>chandrika rocket equations</name>
						<start>39051</start>
						<end>39087</end>
						<in>65603</in>
						<out>65639</out>
						<file id="file-1" />
						<link>
							<linkclipref>clipitem-552</linkclipref>
							<mediatype>video</mediatype>
							<trackindex>1</trackindex>
							<clipindex>552</clipindex>
						</link>
						<link>
							<linkclipref>clipitem-1587</linkclipref>
							<mediatype>audio</mediatype>
							<trackindex>1</trackindex>
							<clipindex>552</clipindex>
							<groupindex>1</groupindex>
						</link>
					</clipitem>
					<clipitem id="clipitem-553">
						<masterclipid>masterclip-2</masterclipid>
						<name>chandrika rocket equations</name>
						<start>39087</start>
						<end>39108</end>
						<in>65658</in>
						<out>65679</out>
						<file id="file-1" />
						<link>
							<linkclipref>clipitem-553</linkclipref>
							<mediatype>video</mediatype>
							<trackindex>1</trackindex>
							<clipindex>553</clipindex>
						</link>
						<link>
							<linkclipref>clipitem-1588</linkclipref>
							<mediatype>audio</mediatype>
							<trackindex>1</trackindex>
							<clipindex>553</clipindex>
							<groupindex>1</groupindex>
						</link>
					</clipitem>
					<clipitem id="clipitem-554">
						<masterclipid>masterclip-2</masterclipid>
						<name>chandrika rocket equations</name>
						<start>39108</start>
						<end>39129</end>
						<in>65689</in>
						<out>65710</out>
						<file id="file-1" />
						<link>
							<linkclipref>clipitem-554</linkclipref>
							<mediatype>video</mediatype>
							<trackindex>1</trackindex>
							<clipindex>554</clipindex>
						</link>
						<link>
							<linkclipref>clipitem-1589</linkclipref>
							<mediatype>audio</mediatype>
							<trackindex>1</trackindex>
							<clipindex>554</clipindex>
							<groupindex>1</groupindex>
						</link>
					</clipitem>
					<clipitem id="clipitem-555">
						<masterclipid>masterclip-2</masterclipid>
						<name>chandrika rocket equations</name>
						<start>39129</start>
						<end>39158</end>
						<in>65787</in>
						<out>65816</out>
						<file id="file-1" />
						<link>
							<linkclipref>clipitem-555</linkclipref>
							<mediatype>video</mediatype>
							<trackindex>1</trackindex>
							<clipindex>555</clipindex>
						</link>
						<link>
							<linkclipref>clipitem-1590</linkclipref>
							<mediatype>audio</mediatype>
							<trackindex>1</trackindex>
							<clipindex>555</clipindex>
							<groupindex>1</groupindex>
						</link>
					</clipitem>
					<clipitem id="clipitem-556">
						<masterclipid>masterclip-2</masterclipid>
						<name>chandrika rocket equations</name>
						<start>39158</start>
						<end>39200</end>
						<in>65837</in>
						<out>65879</out>
						<file id="file-1" />
						<link>
							<linkclipref>clipitem-556</linkclipref>
							<mediatype>video</mediatype>
							<trackindex>1</trackindex>
							<clipindex>556</clipindex>
						</link>
						<link>
							<linkclipref>clipitem-1591</linkclipref>
							<mediatype>audio</mediatype>
							<trackindex>1</trackindex>
							<clipindex>556</clipindex>
							<groupindex>1</groupindex>
						</link>
					</clipitem>
					<clipitem id="clipitem-557">
						<masterclipid>masterclip-2</masterclipid>
						<name>chandrika rocket equations</name>
						<start>39200</start>
						<end>39401</end>
						<in>65920</in>
						<out>66121</out>
						<file id="file-1" />
						<link>
							<linkclipref>clipitem-557</linkclipref>
							<mediatype>video</mediatype>
							<trackindex>1</trackindex>
							<clipindex>557</clipindex>
						</link>
						<link>
							<linkclipref>clipitem-1592</linkclipref>
							<mediatype>audio</mediatype>
							<trackindex>1</trackindex>
							<clipindex>557</clipindex>
							<groupindex>1</groupindex>
						</link>
					</clipitem>
					<clipitem id="clipitem-558">
						<masterclipid>masterclip-2</masterclipid>
						<name>chandrika rocket equations</name>
						<start>39401</start>
						<end>39492</end>
						<in>66187</in>
						<out>66278</out>
						<file id="file-1" />
						<link>
							<linkclipref>clipitem-558</linkclipref>
							<mediatype>video</mediatype>
							<trackindex>1</trackindex>
							<clipindex>558</clipindex>
						</link>
						<link>
							<linkclipref>clipitem-1593</linkclipref>
							<mediatype>audio</mediatype>
							<trackindex>1</trackindex>
							<clipindex>558</clipindex>
							<groupindex>1</groupindex>
						</link>
					</clipitem>
					<clipitem id="clipitem-559">
						<masterclipid>masterclip-2</masterclipid>
						<name>chandrika rocket equations</name>
						<start>39492</start>
						<end>39525</end>
						<in>66302</in>
						<out>66335</out>
						<file id="file-1" />
						<link>
							<linkclipref>clipitem-559</linkclipref>
							<mediatype>video</mediatype>
							<trackindex>1</trackindex>
							<clipindex>559</clipindex>
						</link>
						<link>
							<linkclipref>clipitem-1594</linkclipref>
							<mediatype>audio</mediatype>
							<trackindex>1</trackindex>
							<clipindex>559</clipindex>
							<groupindex>1</groupindex>
						</link>
					</clipitem>
					<clipitem id="clipitem-560">
						<masterclipid>masterclip-2</masterclipid>
						<name>chandrika rocket equations</name>
						<start>39525</start>
						<end>39550</end>
						<in>66396</in>
						<out>66421</out>
						<file id="file-1" />
						<link>
							<linkclipref>clipitem-560</linkclipref>
							<mediatype>video</mediatype>
							<trackindex>1</trackindex>
							<clipindex>560</clipindex>
						</link>
						<link>
							<linkclipref>clipitem-1595</linkclipref>
							<mediatype>audio</mediatype>
							<trackindex>1</trackindex>
							<clipindex>560</clipindex>
							<groupindex>1</groupindex>
						</link>
					</clipitem>
					<clipitem id="clipitem-561">
						<masterclipid>masterclip-2</masterclipid>
						<name>chandrika rocket equations</name>
						<start>39550</start>
						<end>39589</end>
						<in>66444</in>
						<out>66483</out>
						<file id="file-1" />
						<link>
							<linkclipref>clipitem-561</linkclipref>
							<mediatype>video</mediatype>
							<trackindex>1</trackindex>
							<clipindex>561</clipindex>
						</link>
						<link>
							<linkclipref>clipitem-1596</linkclipref>
							<mediatype>audio</mediatype>
							<trackindex>1</trackindex>
							<clipindex>561</clipindex>
							<groupindex>1</groupindex>
						</link>
					</clipitem>
					<clipitem id="clipitem-562">
						<masterclipid>masterclip-2</masterclipid>
						<name>chandrika rocket equations</name>
						<start>39589</start>
						<end>39607</end>
						<in>66580</in>
						<out>66598</out>
						<file id="file-1" />
						<link>
							<linkclipref>clipitem-562</linkclipref>
							<mediatype>video</mediatype>
							<trackindex>1</trackindex>
							<clipindex>562</clipindex>
						</link>
						<link>
							<linkclipref>clipitem-1597</linkclipref>
							<mediatype>audio</mediatype>
							<trackindex>1</trackindex>
							<clipindex>562</clipindex>
							<groupindex>1</groupindex>
						</link>
					</clipitem>
					<clipitem id="clipitem-563">
						<masterclipid>masterclip-2</masterclipid>
						<name>chandrika rocket equations</name>
						<start>39607</start>
						<end>39627</end>
						<in>66647</in>
						<out>66667</out>
						<file id="file-1" />
						<link>
							<linkclipref>clipitem-563</linkclipref>
							<mediatype>video</mediatype>
							<trackindex>1</trackindex>
							<clipindex>563</clipindex>
						</link>
						<link>
							<linkclipref>clipitem-1598</linkclipref>
							<mediatype>audio</mediatype>
							<trackindex>1</trackindex>
							<clipindex>563</clipindex>
							<groupindex>1</groupindex>
						</link>
					</clipitem>
					<clipitem id="clipitem-564">
						<masterclipid>masterclip-2</masterclipid>
						<name>chandrika rocket equations</name>
						<start>39627</start>
						<end>39646</end>
						<in>66704</in>
						<out>66723</out>
						<file id="file-1" />
						<link>
							<linkclipref>clipitem-564</linkclipref>
							<mediatype>video</mediatype>
							<trackindex>1</trackindex>
							<clipindex>564</clipindex>
						</link>
						<link>
							<linkclipref>clipitem-1599</linkclipref>
							<mediatype>audio</mediatype>
							<trackindex>1</trackindex>
							<clipindex>564</clipindex>
							<groupindex>1</groupindex>
						</link>
					</clipitem>
					<clipitem id="clipitem-565">
						<masterclipid>masterclip-2</masterclipid>
						<name>chandrika rocket equations</name>
						<start>39646</start>
						<end>39668</end>
						<in>66776</in>
						<out>66798</out>
						<file id="file-1" />
						<link>
							<linkclipref>clipitem-565</linkclipref>
							<mediatype>video</mediatype>
							<trackindex>1</trackindex>
							<clipindex>565</clipindex>
						</link>
						<link>
							<linkclipref>clipitem-1600</linkclipref>
							<mediatype>audio</mediatype>
							<trackindex>1</trackindex>
							<clipindex>565</clipindex>
							<groupindex>1</groupindex>
						</link>
					</clipitem>
					<clipitem id="clipitem-566">
						<masterclipid>masterclip-2</masterclipid>
						<name>chandrika rocket equations</name>
						<start>39668</start>
						<end>39687</end>
						<in>66885</in>
						<out>66904</out>
						<file id="file-1" />
						<link>
							<linkclipref>clipitem-566</linkclipref>
							<mediatype>video</mediatype>
							<trackindex>1</trackindex>
							<clipindex>566</clipindex>
						</link>
						<link>
							<linkclipref>clipitem-1601</linkclipref>
							<mediatype>audio</mediatype>
							<trackindex>1</trackindex>
							<clipindex>566</clipindex>
							<groupindex>1</groupindex>
						</link>
					</clipitem>
					<clipitem id="clipitem-567">
						<masterclipid>masterclip-2</masterclipid>
						<name>chandrika rocket equations</name>
						<start>39687</start>
						<end>39769</end>
						<in>66964</in>
						<out>67046</out>
						<file id="file-1" />
						<link>
							<linkclipref>clipitem-567</linkclipref>
							<mediatype>video</mediatype>
							<trackindex>1</trackindex>
							<clipindex>567</clipindex>
						</link>
						<link>
							<linkclipref>clipitem-1602</linkclipref>
							<mediatype>audio</mediatype>
							<trackindex>1</trackindex>
							<clipindex>567</clipindex>
							<groupindex>1</groupindex>
						</link>
					</clipitem>
					<clipitem id="clipitem-568">
						<masterclipid>masterclip-2</masterclipid>
						<name>chandrika rocket equations</name>
						<start>39769</start>
						<end>39818</end>
						<in>67116</in>
						<out>67165</out>
						<file id="file-1" />
						<link>
							<linkclipref>clipitem-568</linkclipref>
							<mediatype>video</mediatype>
							<trackindex>1</trackindex>
							<clipindex>568</clipindex>
						</link>
						<link>
							<linkclipref>clipitem-1603</linkclipref>
							<mediatype>audio</mediatype>
							<trackindex>1</trackindex>
							<clipindex>568</clipindex>
							<groupindex>1</groupindex>
						</link>
					</clipitem>
					<clipitem id="clipitem-569">
						<masterclipid>masterclip-2</masterclipid>
						<name>chandrika rocket equations</name>
						<start>39818</start>
						<end>39915</end>
						<in>67272</in>
						<out>67369</out>
						<file id="file-1" />
						<link>
							<linkclipref>clipitem-569</linkclipref>
							<mediatype>video</mediatype>
							<trackindex>1</trackindex>
							<clipindex>569</clipindex>
						</link>
						<link>
							<linkclipref>clipitem-1604</linkclipref>
							<mediatype>audio</mediatype>
							<trackindex>1</trackindex>
							<clipindex>569</clipindex>
							<groupindex>1</groupindex>
						</link>
					</clipitem>
					<clipitem id="clipitem-570">
						<masterclipid>masterclip-2</masterclipid>
						<name>chandrika rocket equations</name>
						<start>39915</start>
						<end>39958</end>
						<in>67395</in>
						<out>67438</out>
						<file id="file-1" />
						<link>
							<linkclipref>clipitem-570</linkclipref>
							<mediatype>video</mediatype>
							<trackindex>1</trackindex>
							<clipindex>570</clipindex>
						</link>
						<link>
							<linkclipref>clipitem-1605</linkclipref>
							<mediatype>audio</mediatype>
							<trackindex>1</trackindex>
							<clipindex>570</clipindex>
							<groupindex>1</groupindex>
						</link>
					</clipitem>
					<clipitem id="clipitem-571">
						<masterclipid>masterclip-2</masterclipid>
						<name>chandrika rocket equations</name>
						<start>39958</start>
						<end>39993</end>
						<in>67462</in>
						<out>67497</out>
						<file id="file-1" />
						<link>
							<linkclipref>clipitem-571</linkclipref>
							<mediatype>video</mediatype>
							<trackindex>1</trackindex>
							<clipindex>571</clipindex>
						</link>
						<link>
							<linkclipref>clipitem-1606</linkclipref>
							<mediatype>audio</mediatype>
							<trackindex>1</trackindex>
							<clipindex>571</clipindex>
							<groupindex>1</groupindex>
						</link>
					</clipitem>
					<clipitem id="clipitem-572">
						<masterclipid>masterclip-2</masterclipid>
						<name>chandrika rocket equations</name>
						<start>39993</start>
						<end>40129</end>
						<in>67560</in>
						<out>67696</out>
						<file id="file-1" />
						<link>
							<linkclipref>clipitem-572</linkclipref>
							<mediatype>video</mediatype>
							<trackindex>1</trackindex>
							<clipindex>572</clipindex>
						</link>
						<link>
							<linkclipref>clipitem-1607</linkclipref>
							<mediatype>audio</mediatype>
							<trackindex>1</trackindex>
							<clipindex>572</clipindex>
							<groupindex>1</groupindex>
						</link>
					</clipitem>
					<clipitem id="clipitem-573">
						<masterclipid>masterclip-2</masterclipid>
						<name>chandrika rocket equations</name>
						<start>40129</start>
						<end>40171</end>
						<in>67823</in>
						<out>67865</out>
						<file id="file-1" />
						<link>
							<linkclipref>clipitem-573</linkclipref>
							<mediatype>video</mediatype>
							<trackindex>1</trackindex>
							<clipindex>573</clipindex>
						</link>
						<link>
							<linkclipref>clipitem-1608</linkclipref>
							<mediatype>audio</mediatype>
							<trackindex>1</trackindex>
							<clipindex>573</clipindex>
							<groupindex>1</groupindex>
						</link>
					</clipitem>
					<clipitem id="clipitem-574">
						<masterclipid>masterclip-2</masterclipid>
						<name>chandrika rocket equations</name>
						<start>40171</start>
						<end>40199</end>
						<in>67931</in>
						<out>67959</out>
						<file id="file-1" />
						<link>
							<linkclipref>clipitem-574</linkclipref>
							<mediatype>video</mediatype>
							<trackindex>1</trackindex>
							<clipindex>574</clipindex>
						</link>
						<link>
							<linkclipref>clipitem-1609</linkclipref>
							<mediatype>audio</mediatype>
							<trackindex>1</trackindex>
							<clipindex>574</clipindex>
							<groupindex>1</groupindex>
						</link>
					</clipitem>
					<clipitem id="clipitem-575">
						<masterclipid>masterclip-2</masterclipid>
						<name>chandrika rocket equations</name>
						<start>40199</start>
						<end>40290</end>
						<in>67984</in>
						<out>68075</out>
						<file id="file-1" />
						<link>
							<linkclipref>clipitem-575</linkclipref>
							<mediatype>video</mediatype>
							<trackindex>1</trackindex>
							<clipindex>575</clipindex>
						</link>
						<link>
							<linkclipref>clipitem-1610</linkclipref>
							<mediatype>audio</mediatype>
							<trackindex>1</trackindex>
							<clipindex>575</clipindex>
							<groupindex>1</groupindex>
						</link>
					</clipitem>
					<clipitem id="clipitem-576">
						<masterclipid>masterclip-2</masterclipid>
						<name>chandrika rocket equations</name>
						<start>40290</start>
						<end>40320</end>
						<in>68098</in>
						<out>68128</out>
						<file id="file-1" />
						<link>
							<linkclipref>clipitem-576</linkclipref>
							<mediatype>video</mediatype>
							<trackindex>1</trackindex>
							<clipindex>576</clipindex>
						</link>
						<link>
							<linkclipref>clipitem-1611</linkclipref>
							<mediatype>audio</mediatype>
							<trackindex>1</trackindex>
							<clipindex>576</clipindex>
							<groupindex>1</groupindex>
						</link>
					</clipitem>
					<clipitem id="clipitem-577">
						<masterclipid>masterclip-2</masterclipid>
						<name>chandrika rocket equations</name>
						<start>40320</start>
						<end>40343</end>
						<in>68319</in>
						<out>68342</out>
						<file id="file-1" />
						<link>
							<linkclipref>clipitem-577</linkclipref>
							<mediatype>video</mediatype>
							<trackindex>1</trackindex>
							<clipindex>577</clipindex>
						</link>
						<link>
							<linkclipref>clipitem-1612</linkclipref>
							<mediatype>audio</mediatype>
							<trackindex>1</trackindex>
							<clipindex>577</clipindex>
							<groupindex>1</groupindex>
						</link>
					</clipitem>
					<clipitem id="clipitem-578">
						<masterclipid>masterclip-2</masterclipid>
						<name>chandrika rocket equations</name>
						<start>40343</start>
						<end>40406</end>
						<in>68361</in>
						<out>68424</out>
						<file id="file-1" />
						<link>
							<linkclipref>clipitem-578</linkclipref>
							<mediatype>video</mediatype>
							<trackindex>1</trackindex>
							<clipindex>578</clipindex>
						</link>
						<link>
							<linkclipref>clipitem-1613</linkclipref>
							<mediatype>audio</mediatype>
							<trackindex>1</trackindex>
							<clipindex>578</clipindex>
							<groupindex>1</groupindex>
						</link>
					</clipitem>
					<clipitem id="clipitem-579">
						<masterclipid>masterclip-2</masterclipid>
						<name>chandrika rocket equations</name>
						<start>40406</start>
						<end>40577</end>
						<in>68529</in>
						<out>68700</out>
						<file id="file-1" />
						<link>
							<linkclipref>clipitem-579</linkclipref>
							<mediatype>video</mediatype>
							<trackindex>1</trackindex>
							<clipindex>579</clipindex>
						</link>
						<link>
							<linkclipref>clipitem-1614</linkclipref>
							<mediatype>audio</mediatype>
							<trackindex>1</trackindex>
							<clipindex>579</clipindex>
							<groupindex>1</groupindex>
						</link>
					</clipitem>
					<clipitem id="clipitem-580">
						<masterclipid>masterclip-2</masterclipid>
						<name>chandrika rocket equations</name>
						<start>40577</start>
						<end>40614</end>
						<in>68722</in>
						<out>68759</out>
						<file id="file-1" />
						<link>
							<linkclipref>clipitem-580</linkclipref>
							<mediatype>video</mediatype>
							<trackindex>1</trackindex>
							<clipindex>580</clipindex>
						</link>
						<link>
							<linkclipref>clipitem-1615</linkclipref>
							<mediatype>audio</mediatype>
							<trackindex>1</trackindex>
							<clipindex>580</clipindex>
							<groupindex>1</groupindex>
						</link>
					</clipitem>
					<clipitem id="clipitem-581">
						<masterclipid>masterclip-2</masterclipid>
						<name>chandrika rocket equations</name>
						<start>40614</start>
						<end>40665</end>
						<in>68806</in>
						<out>68857</out>
						<file id="file-1" />
						<link>
							<linkclipref>clipitem-581</linkclipref>
							<mediatype>video</mediatype>
							<trackindex>1</trackindex>
							<clipindex>581</clipindex>
						</link>
						<link>
							<linkclipref>clipitem-1616</linkclipref>
							<mediatype>audio</mediatype>
							<trackindex>1</trackindex>
							<clipindex>581</clipindex>
							<groupindex>1</groupindex>
						</link>
					</clipitem>
					<clipitem id="clipitem-582">
						<masterclipid>masterclip-2</masterclipid>
						<name>chandrika rocket equations</name>
						<start>40665</start>
						<end>40689</end>
						<in>68927</in>
						<out>68951</out>
						<file id="file-1" />
						<link>
							<linkclipref>clipitem-582</linkclipref>
							<mediatype>video</mediatype>
							<trackindex>1</trackindex>
							<clipindex>582</clipindex>
						</link>
						<link>
							<linkclipref>clipitem-1617</linkclipref>
							<mediatype>audio</mediatype>
							<trackindex>1</trackindex>
							<clipindex>582</clipindex>
							<groupindex>1</groupindex>
						</link>
					</clipitem>
					<clipitem id="clipitem-583">
						<masterclipid>masterclip-2</masterclipid>
						<name>chandrika rocket equations</name>
						<start>40689</start>
						<end>40750</end>
						<in>69017</in>
						<out>69078</out>
						<file id="file-1" />
						<link>
							<linkclipref>clipitem-583</linkclipref>
							<mediatype>video</mediatype>
							<trackindex>1</trackindex>
							<clipindex>583</clipindex>
						</link>
						<link>
							<linkclipref>clipitem-1618</linkclipref>
							<mediatype>audio</mediatype>
							<trackindex>1</trackindex>
							<clipindex>583</clipindex>
							<groupindex>1</groupindex>
						</link>
					</clipitem>
					<clipitem id="clipitem-584">
						<masterclipid>masterclip-2</masterclipid>
						<name>chandrika rocket equations</name>
						<start>40750</start>
						<end>40824</end>
						<in>69108</in>
						<out>69182</out>
						<file id="file-1" />
						<link>
							<linkclipref>clipitem-584</linkclipref>
							<mediatype>video</mediatype>
							<trackindex>1</trackindex>
							<clipindex>584</clipindex>
						</link>
						<link>
							<linkclipref>clipitem-1619</linkclipref>
							<mediatype>audio</mediatype>
							<trackindex>1</trackindex>
							<clipindex>584</clipindex>
							<groupindex>1</groupindex>
						</link>
					</clipitem>
					<clipitem id="clipitem-585">
						<masterclipid>masterclip-2</masterclipid>
						<name>chandrika rocket equations</name>
						<start>40824</start>
						<end>40968</end>
						<in>69228</in>
						<out>69372</out>
						<file id="file-1" />
						<link>
							<linkclipref>clipitem-585</linkclipref>
							<mediatype>video</mediatype>
							<trackindex>1</trackindex>
							<clipindex>585</clipindex>
						</link>
						<link>
							<linkclipref>clipitem-1620</linkclipref>
							<mediatype>audio</mediatype>
							<trackindex>1</trackindex>
							<clipindex>585</clipindex>
							<groupindex>1</groupindex>
						</link>
					</clipitem>
					<clipitem id="clipitem-586">
						<masterclipid>masterclip-2</masterclipid>
						<name>chandrika rocket equations</name>
						<start>40968</start>
						<end>41065</end>
						<in>69392</in>
						<out>69489</out>
						<file id="file-1" />
						<link>
							<linkclipref>clipitem-586</linkclipref>
							<mediatype>video</mediatype>
							<trackindex>1</trackindex>
							<clipindex>586</clipindex>
						</link>
						<link>
							<linkclipref>clipitem-1621</linkclipref>
							<mediatype>audio</mediatype>
							<trackindex>1</trackindex>
							<clipindex>586</clipindex>
							<groupindex>1</groupindex>
						</link>
					</clipitem>
					<clipitem id="clipitem-587">
						<masterclipid>masterclip-2</masterclipid>
						<name>chandrika rocket equations</name>
						<start>41065</start>
						<end>41102</end>
						<in>69537</in>
						<out>69574</out>
						<file id="file-1" />
						<link>
							<linkclipref>clipitem-587</linkclipref>
							<mediatype>video</mediatype>
							<trackindex>1</trackindex>
							<clipindex>587</clipindex>
						</link>
						<link>
							<linkclipref>clipitem-1622</linkclipref>
							<mediatype>audio</mediatype>
							<trackindex>1</trackindex>
							<clipindex>587</clipindex>
							<groupindex>1</groupindex>
						</link>
					</clipitem>
					<clipitem id="clipitem-588">
						<masterclipid>masterclip-2</masterclipid>
						<name>chandrika rocket equations</name>
						<start>41102</start>
						<end>41150</end>
						<in>69591</in>
						<out>69639</out>
						<file id="file-1" />
						<link>
							<linkclipref>clipitem-588</linkclipref>
							<mediatype>video</mediatype>
							<trackindex>1</trackindex>
							<clipindex>588</clipindex>
						</link>
						<link>
							<linkclipref>clipitem-1623</linkclipref>
							<mediatype>audio</mediatype>
							<trackindex>1</trackindex>
							<clipindex>588</clipindex>
							<groupindex>1</groupindex>
						</link>
					</clipitem>
					<clipitem id="clipitem-589">
						<masterclipid>masterclip-2</masterclipid>
						<name>chandrika rocket equations</name>
						<start>41150</start>
						<end>41312</end>
						<in>69662</in>
						<out>69824</out>
						<file id="file-1" />
						<link>
							<linkclipref>clipitem-589</linkclipref>
							<mediatype>video</mediatype>
							<trackindex>1</trackindex>
							<clipindex>589</clipindex>
						</link>
						<link>
							<linkclipref>clipitem-1624</linkclipref>
							<mediatype>audio</mediatype>
							<trackindex>1</trackindex>
							<clipindex>589</clipindex>
							<groupindex>1</groupindex>
						</link>
					</clipitem>
					<clipitem id="clipitem-590">
						<masterclipid>masterclip-2</masterclipid>
						<name>chandrika rocket equations</name>
						<start>41312</start>
						<end>41402</end>
						<in>69825</in>
						<out>69915</out>
						<file id="file-1" />
						<link>
							<linkclipref>clipitem-590</linkclipref>
							<mediatype>video</mediatype>
							<trackindex>1</trackindex>
							<clipindex>590</clipindex>
						</link>
						<link>
							<linkclipref>clipitem-1625</linkclipref>
							<mediatype>audio</mediatype>
							<trackindex>1</trackindex>
							<clipindex>590</clipindex>
							<groupindex>1</groupindex>
						</link>
					</clipitem>
					<clipitem id="clipitem-591">
						<masterclipid>masterclip-2</masterclipid>
						<name>chandrika rocket equations</name>
						<start>41402</start>
						<end>41471</end>
						<in>69945</in>
						<out>70014</out>
						<file id="file-1" />
						<link>
							<linkclipref>clipitem-591</linkclipref>
							<mediatype>video</mediatype>
							<trackindex>1</trackindex>
							<clipindex>591</clipindex>
						</link>
						<link>
							<linkclipref>clipitem-1626</linkclipref>
							<mediatype>audio</mediatype>
							<trackindex>1</trackindex>
							<clipindex>591</clipindex>
							<groupindex>1</groupindex>
						</link>
					</clipitem>
					<clipitem id="clipitem-592">
						<masterclipid>masterclip-2</masterclipid>
						<name>chandrika rocket equations</name>
						<start>41471</start>
						<end>41505</end>
						<in>70031</in>
						<out>70065</out>
						<file id="file-1" />
						<link>
							<linkclipref>clipitem-592</linkclipref>
							<mediatype>video</mediatype>
							<trackindex>1</trackindex>
							<clipindex>592</clipindex>
						</link>
						<link>
							<linkclipref>clipitem-1627</linkclipref>
							<mediatype>audio</mediatype>
							<trackindex>1</trackindex>
							<clipindex>592</clipindex>
							<groupindex>1</groupindex>
						</link>
					</clipitem>
					<clipitem id="clipitem-593">
						<masterclipid>masterclip-2</masterclipid>
						<name>chandrika rocket equations</name>
						<start>41505</start>
						<end>41531</end>
						<in>70125</in>
						<out>70151</out>
						<file id="file-1" />
						<link>
							<linkclipref>clipitem-593</linkclipref>
							<mediatype>video</mediatype>
							<trackindex>1</trackindex>
							<clipindex>593</clipindex>
						</link>
						<link>
							<linkclipref>clipitem-1628</linkclipref>
							<mediatype>audio</mediatype>
							<trackindex>1</trackindex>
							<clipindex>593</clipindex>
							<groupindex>1</groupindex>
						</link>
					</clipitem>
					<clipitem id="clipitem-594">
						<masterclipid>masterclip-2</masterclipid>
						<name>chandrika rocket equations</name>
						<start>41531</start>
						<end>41643</end>
						<in>70175</in>
						<out>70287</out>
						<file id="file-1" />
						<link>
							<linkclipref>clipitem-594</linkclipref>
							<mediatype>video</mediatype>
							<trackindex>1</trackindex>
							<clipindex>594</clipindex>
						</link>
						<link>
							<linkclipref>clipitem-1629</linkclipref>
							<mediatype>audio</mediatype>
							<trackindex>1</trackindex>
							<clipindex>594</clipindex>
							<groupindex>1</groupindex>
						</link>
					</clipitem>
					<clipitem id="clipitem-595">
						<masterclipid>masterclip-2</masterclipid>
						<name>chandrika rocket equations</name>
						<start>41643</start>
						<end>41698</end>
						<in>70327</in>
						<out>70382</out>
						<file id="file-1" />
						<link>
							<linkclipref>clipitem-595</linkclipref>
							<mediatype>video</mediatype>
							<trackindex>1</trackindex>
							<clipindex>595</clipindex>
						</link>
						<link>
							<linkclipref>clipitem-1630</linkclipref>
							<mediatype>audio</mediatype>
							<trackindex>1</trackindex>
							<clipindex>595</clipindex>
							<groupindex>1</groupindex>
						</link>
					</clipitem>
					<clipitem id="clipitem-596">
						<masterclipid>masterclip-2</masterclipid>
						<name>chandrika rocket equations</name>
						<start>41698</start>
						<end>41763</end>
						<in>70403</in>
						<out>70468</out>
						<file id="file-1" />
						<link>
							<linkclipref>clipitem-596</linkclipref>
							<mediatype>video</mediatype>
							<trackindex>1</trackindex>
							<clipindex>596</clipindex>
						</link>
						<link>
							<linkclipref>clipitem-1631</linkclipref>
							<mediatype>audio</mediatype>
							<trackindex>1</trackindex>
							<clipindex>596</clipindex>
							<groupindex>1</groupindex>
						</link>
					</clipitem>
					<clipitem id="clipitem-597">
						<masterclipid>masterclip-2</masterclipid>
						<name>chandrika rocket equations</name>
						<start>41763</start>
						<end>41811</end>
						<in>70575</in>
						<out>70623</out>
						<file id="file-1" />
						<link>
							<linkclipref>clipitem-597</linkclipref>
							<mediatype>video</mediatype>
							<trackindex>1</trackindex>
							<clipindex>597</clipindex>
						</link>
						<link>
							<linkclipref>clipitem-1632</linkclipref>
							<mediatype>audio</mediatype>
							<trackindex>1</trackindex>
							<clipindex>597</clipindex>
							<groupindex>1</groupindex>
						</link>
					</clipitem>
					<clipitem id="clipitem-598">
						<masterclipid>masterclip-2</masterclipid>
						<name>chandrika rocket equations</name>
						<start>41811</start>
						<end>41827</end>
						<in>70634</in>
						<out>70650</out>
						<file id="file-1" />
						<link>
							<linkclipref>clipitem-598</linkclipref>
							<mediatype>video</mediatype>
							<trackindex>1</trackindex>
							<clipindex>598</clipindex>
						</link>
						<link>
							<linkclipref>clipitem-1633</linkclipref>
							<mediatype>audio</mediatype>
							<trackindex>1</trackindex>
							<clipindex>598</clipindex>
							<groupindex>1</groupindex>
						</link>
					</clipitem>
					<clipitem id="clipitem-599">
						<masterclipid>masterclip-2</masterclipid>
						<name>chandrika rocket equations</name>
						<start>41827</start>
						<end>41843</end>
						<in>70755</in>
						<out>70771</out>
						<file id="file-1" />
						<link>
							<linkclipref>clipitem-599</linkclipref>
							<mediatype>video</mediatype>
							<trackindex>1</trackindex>
							<clipindex>599</clipindex>
						</link>
						<link>
							<linkclipref>clipitem-1634</linkclipref>
							<mediatype>audio</mediatype>
							<trackindex>1</trackindex>
							<clipindex>599</clipindex>
							<groupindex>1</groupindex>
						</link>
					</clipitem>
					<clipitem id="clipitem-600">
						<masterclipid>masterclip-2</masterclipid>
						<name>chandrika rocket equations</name>
						<start>41843</start>
						<end>41865</end>
						<in>70827</in>
						<out>70849</out>
						<file id="file-1" />
						<link>
							<linkclipref>clipitem-600</linkclipref>
							<mediatype>video</mediatype>
							<trackindex>1</trackindex>
							<clipindex>600</clipindex>
						</link>
						<link>
							<linkclipref>clipitem-1635</linkclipref>
							<mediatype>audio</mediatype>
							<trackindex>1</trackindex>
							<clipindex>600</clipindex>
							<groupindex>1</groupindex>
						</link>
					</clipitem>
					<clipitem id="clipitem-601">
						<masterclipid>masterclip-2</masterclipid>
						<name>chandrika rocket equations</name>
						<start>41865</start>
						<end>41928</end>
						<in>71030</in>
						<out>71093</out>
						<file id="file-1" />
						<link>
							<linkclipref>clipitem-601</linkclipref>
							<mediatype>video</mediatype>
							<trackindex>1</trackindex>
							<clipindex>601</clipindex>
						</link>
						<link>
							<linkclipref>clipitem-1636</linkclipref>
							<mediatype>audio</mediatype>
							<trackindex>1</trackindex>
							<clipindex>601</clipindex>
							<groupindex>1</groupindex>
						</link>
					</clipitem>
					<clipitem id="clipitem-602">
						<masterclipid>masterclip-2</masterclipid>
						<name>chandrika rocket equations</name>
						<start>41928</start>
						<end>42038</end>
						<in>71132</in>
						<out>71242</out>
						<file id="file-1" />
						<link>
							<linkclipref>clipitem-602</linkclipref>
							<mediatype>video</mediatype>
							<trackindex>1</trackindex>
							<clipindex>602</clipindex>
						</link>
						<link>
							<linkclipref>clipitem-1637</linkclipref>
							<mediatype>audio</mediatype>
							<trackindex>1</trackindex>
							<clipindex>602</clipindex>
							<groupindex>1</groupindex>
						</link>
					</clipitem>
					<clipitem id="clipitem-603">
						<masterclipid>masterclip-2</masterclipid>
						<name>chandrika rocket equations</name>
						<start>42038</start>
						<end>42094</end>
						<in>71256</in>
						<out>71312</out>
						<file id="file-1" />
						<link>
							<linkclipref>clipitem-603</linkclipref>
							<mediatype>video</mediatype>
							<trackindex>1</trackindex>
							<clipindex>603</clipindex>
						</link>
						<link>
							<linkclipref>clipitem-1638</linkclipref>
							<mediatype>audio</mediatype>
							<trackindex>1</trackindex>
							<clipindex>603</clipindex>
							<groupindex>1</groupindex>
						</link>
					</clipitem>
					<clipitem id="clipitem-604">
						<masterclipid>masterclip-2</masterclipid>
						<name>chandrika rocket equations</name>
						<start>42094</start>
						<end>42127</end>
						<in>71353</in>
						<out>71386</out>
						<file id="file-1" />
						<link>
							<linkclipref>clipitem-604</linkclipref>
							<mediatype>video</mediatype>
							<trackindex>1</trackindex>
							<clipindex>604</clipindex>
						</link>
						<link>
							<linkclipref>clipitem-1639</linkclipref>
							<mediatype>audio</mediatype>
							<trackindex>1</trackindex>
							<clipindex>604</clipindex>
							<groupindex>1</groupindex>
						</link>
					</clipitem>
					<clipitem id="clipitem-605">
						<masterclipid>masterclip-2</masterclipid>
						<name>chandrika rocket equations</name>
						<start>42127</start>
						<end>42153</end>
						<in>71389</in>
						<out>71415</out>
						<file id="file-1" />
						<link>
							<linkclipref>clipitem-605</linkclipref>
							<mediatype>video</mediatype>
							<trackindex>1</trackindex>
							<clipindex>605</clipindex>
						</link>
						<link>
							<linkclipref>clipitem-1640</linkclipref>
							<mediatype>audio</mediatype>
							<trackindex>1</trackindex>
							<clipindex>605</clipindex>
							<groupindex>1</groupindex>
						</link>
					</clipitem>
					<clipitem id="clipitem-606">
						<masterclipid>masterclip-2</masterclipid>
						<name>chandrika rocket equations</name>
						<start>42153</start>
						<end>42179</end>
						<in>71440</in>
						<out>71466</out>
						<file id="file-1" />
						<link>
							<linkclipref>clipitem-606</linkclipref>
							<mediatype>video</mediatype>
							<trackindex>1</trackindex>
							<clipindex>606</clipindex>
						</link>
						<link>
							<linkclipref>clipitem-1641</linkclipref>
							<mediatype>audio</mediatype>
							<trackindex>1</trackindex>
							<clipindex>606</clipindex>
							<groupindex>1</groupindex>
						</link>
					</clipitem>
					<clipitem id="clipitem-607">
						<masterclipid>masterclip-2</masterclipid>
						<name>chandrika rocket equations</name>
						<start>42179</start>
						<end>42194</end>
						<in>71472</in>
						<out>71487</out>
						<file id="file-1" />
						<link>
							<linkclipref>clipitem-607</linkclipref>
							<mediatype>video</mediatype>
							<trackindex>1</trackindex>
							<clipindex>607</clipindex>
						</link>
						<link>
							<linkclipref>clipitem-1642</linkclipref>
							<mediatype>audio</mediatype>
							<trackindex>1</trackindex>
							<clipindex>607</clipindex>
							<groupindex>1</groupindex>
						</link>
					</clipitem>
					<clipitem id="clipitem-608">
						<masterclipid>masterclip-2</masterclipid>
						<name>chandrika rocket equations</name>
						<start>42194</start>
						<end>42225</end>
						<in>71528</in>
						<out>71559</out>
						<file id="file-1" />
						<link>
							<linkclipref>clipitem-608</linkclipref>
							<mediatype>video</mediatype>
							<trackindex>1</trackindex>
							<clipindex>608</clipindex>
						</link>
						<link>
							<linkclipref>clipitem-1643</linkclipref>
							<mediatype>audio</mediatype>
							<trackindex>1</trackindex>
							<clipindex>608</clipindex>
							<groupindex>1</groupindex>
						</link>
					</clipitem>
					<clipitem id="clipitem-609">
						<masterclipid>masterclip-2</masterclipid>
						<name>chandrika rocket equations</name>
						<start>42225</start>
						<end>42316</end>
						<in>71565</in>
						<out>71656</out>
						<file id="file-1" />
						<link>
							<linkclipref>clipitem-609</linkclipref>
							<mediatype>video</mediatype>
							<trackindex>1</trackindex>
							<clipindex>609</clipindex>
						</link>
						<link>
							<linkclipref>clipitem-1644</linkclipref>
							<mediatype>audio</mediatype>
							<trackindex>1</trackindex>
							<clipindex>609</clipindex>
							<groupindex>1</groupindex>
						</link>
					</clipitem>
					<clipitem id="clipitem-610">
						<masterclipid>masterclip-2</masterclipid>
						<name>chandrika rocket equations</name>
						<start>42316</start>
						<end>42348</end>
						<in>71659</in>
						<out>71691</out>
						<file id="file-1" />
						<link>
							<linkclipref>clipitem-610</linkclipref>
							<mediatype>video</mediatype>
							<trackindex>1</trackindex>
							<clipindex>610</clipindex>
						</link>
						<link>
							<linkclipref>clipitem-1645</linkclipref>
							<mediatype>audio</mediatype>
							<trackindex>1</trackindex>
							<clipindex>610</clipindex>
							<groupindex>1</groupindex>
						</link>
					</clipitem>
					<clipitem id="clipitem-611">
						<masterclipid>masterclip-2</masterclipid>
						<name>chandrika rocket equations</name>
						<start>42348</start>
						<end>42434</end>
						<in>71698</in>
						<out>71784</out>
						<file id="file-1" />
						<link>
							<linkclipref>clipitem-611</linkclipref>
							<mediatype>video</mediatype>
							<trackindex>1</trackindex>
							<clipindex>611</clipindex>
						</link>
						<link>
							<linkclipref>clipitem-1646</linkclipref>
							<mediatype>audio</mediatype>
							<trackindex>1</trackindex>
							<clipindex>611</clipindex>
							<groupindex>1</groupindex>
						</link>
					</clipitem>
					<clipitem id="clipitem-612">
						<masterclipid>masterclip-2</masterclipid>
						<name>chandrika rocket equations</name>
						<start>42434</start>
						<end>42451</end>
						<in>71817</in>
						<out>71834</out>
						<file id="file-1" />
						<link>
							<linkclipref>clipitem-612</linkclipref>
							<mediatype>video</mediatype>
							<trackindex>1</trackindex>
							<clipindex>612</clipindex>
						</link>
						<link>
							<linkclipref>clipitem-1647</linkclipref>
							<mediatype>audio</mediatype>
							<trackindex>1</trackindex>
							<clipindex>612</clipindex>
							<groupindex>1</groupindex>
						</link>
					</clipitem>
					<clipitem id="clipitem-613">
						<masterclipid>masterclip-2</masterclipid>
						<name>chandrika rocket equations</name>
						<start>42451</start>
						<end>42483</end>
						<in>71844</in>
						<out>71876</out>
						<file id="file-1" />
						<link>
							<linkclipref>clipitem-613</linkclipref>
							<mediatype>video</mediatype>
							<trackindex>1</trackindex>
							<clipindex>613</clipindex>
						</link>
						<link>
							<linkclipref>clipitem-1648</linkclipref>
							<mediatype>audio</mediatype>
							<trackindex>1</trackindex>
							<clipindex>613</clipindex>
							<groupindex>1</groupindex>
						</link>
					</clipitem>
					<clipitem id="clipitem-614">
						<masterclipid>masterclip-2</masterclipid>
						<name>chandrika rocket equations</name>
						<start>42483</start>
						<end>42509</end>
						<in>71883</in>
						<out>71909</out>
						<file id="file-1" />
						<link>
							<linkclipref>clipitem-614</linkclipref>
							<mediatype>video</mediatype>
							<trackindex>1</trackindex>
							<clipindex>614</clipindex>
						</link>
						<link>
							<linkclipref>clipitem-1649</linkclipref>
							<mediatype>audio</mediatype>
							<trackindex>1</trackindex>
							<clipindex>614</clipindex>
							<groupindex>1</groupindex>
						</link>
					</clipitem>
					<clipitem id="clipitem-615">
						<masterclipid>masterclip-2</masterclipid>
						<name>chandrika rocket equations</name>
						<start>42509</start>
						<end>42526</end>
						<in>71923</in>
						<out>71940</out>
						<file id="file-1" />
						<link>
							<linkclipref>clipitem-615</linkclipref>
							<mediatype>video</mediatype>
							<trackindex>1</trackindex>
							<clipindex>615</clipindex>
						</link>
						<link>
							<linkclipref>clipitem-1650</linkclipref>
							<mediatype>audio</mediatype>
							<trackindex>1</trackindex>
							<clipindex>615</clipindex>
							<groupindex>1</groupindex>
						</link>
					</clipitem>
					<clipitem id="clipitem-616">
						<masterclipid>masterclip-2</masterclipid>
						<name>chandrika rocket equations</name>
						<start>42526</start>
						<end>42564</end>
						<in>71946</in>
						<out>71984</out>
						<file id="file-1" />
						<link>
							<linkclipref>clipitem-616</linkclipref>
							<mediatype>video</mediatype>
							<trackindex>1</trackindex>
							<clipindex>616</clipindex>
						</link>
						<link>
							<linkclipref>clipitem-1651</linkclipref>
							<mediatype>audio</mediatype>
							<trackindex>1</trackindex>
							<clipindex>616</clipindex>
							<groupindex>1</groupindex>
						</link>
					</clipitem>
					<clipitem id="clipitem-617">
						<masterclipid>masterclip-2</masterclipid>
						<name>chandrika rocket equations</name>
						<start>42564</start>
						<end>42756</end>
						<in>71991</in>
						<out>72183</out>
						<file id="file-1" />
						<link>
							<linkclipref>clipitem-617</linkclipref>
							<mediatype>video</mediatype>
							<trackindex>1</trackindex>
							<clipindex>617</clipindex>
						</link>
						<link>
							<linkclipref>clipitem-1652</linkclipref>
							<mediatype>audio</mediatype>
							<trackindex>1</trackindex>
							<clipindex>617</clipindex>
							<groupindex>1</groupindex>
						</link>
					</clipitem>
					<clipitem id="clipitem-618">
						<masterclipid>masterclip-2</masterclipid>
						<name>chandrika rocket equations</name>
						<start>42756</start>
						<end>42939</end>
						<in>72184</in>
						<out>72367</out>
						<file id="file-1" />
						<link>
							<linkclipref>clipitem-618</linkclipref>
							<mediatype>video</mediatype>
							<trackindex>1</trackindex>
							<clipindex>618</clipindex>
						</link>
						<link>
							<linkclipref>clipitem-1653</linkclipref>
							<mediatype>audio</mediatype>
							<trackindex>1</trackindex>
							<clipindex>618</clipindex>
							<groupindex>1</groupindex>
						</link>
					</clipitem>
					<clipitem id="clipitem-619">
						<masterclipid>masterclip-2</masterclipid>
						<name>chandrika rocket equations</name>
						<start>42939</start>
						<end>42984</end>
						<in>72399</in>
						<out>72444</out>
						<file id="file-1" />
						<link>
							<linkclipref>clipitem-619</linkclipref>
							<mediatype>video</mediatype>
							<trackindex>1</trackindex>
							<clipindex>619</clipindex>
						</link>
						<link>
							<linkclipref>clipitem-1654</linkclipref>
							<mediatype>audio</mediatype>
							<trackindex>1</trackindex>
							<clipindex>619</clipindex>
							<groupindex>1</groupindex>
						</link>
					</clipitem>
					<clipitem id="clipitem-620">
						<masterclipid>masterclip-2</masterclipid>
						<name>chandrika rocket equations</name>
						<start>42984</start>
						<end>43028</end>
						<in>72453</in>
						<out>72497</out>
						<file id="file-1" />
						<link>
							<linkclipref>clipitem-620</linkclipref>
							<mediatype>video</mediatype>
							<trackindex>1</trackindex>
							<clipindex>620</clipindex>
						</link>
						<link>
							<linkclipref>clipitem-1655</linkclipref>
							<mediatype>audio</mediatype>
							<trackindex>1</trackindex>
							<clipindex>620</clipindex>
							<groupindex>1</groupindex>
						</link>
					</clipitem>
					<clipitem id="clipitem-621">
						<masterclipid>masterclip-2</masterclipid>
						<name>chandrika rocket equations</name>
						<start>43028</start>
						<end>43078</end>
						<in>72499</in>
						<out>72549</out>
						<file id="file-1" />
						<link>
							<linkclipref>clipitem-621</linkclipref>
							<mediatype>video</mediatype>
							<trackindex>1</trackindex>
							<clipindex>621</clipindex>
						</link>
						<link>
							<linkclipref>clipitem-1656</linkclipref>
							<mediatype>audio</mediatype>
							<trackindex>1</trackindex>
							<clipindex>621</clipindex>
							<groupindex>1</groupindex>
						</link>
					</clipitem>
					<clipitem id="clipitem-622">
						<masterclipid>masterclip-2</masterclipid>
						<name>chandrika rocket equations</name>
						<start>43078</start>
						<end>43113</end>
						<in>72569</in>
						<out>72604</out>
						<file id="file-1" />
						<link>
							<linkclipref>clipitem-622</linkclipref>
							<mediatype>video</mediatype>
							<trackindex>1</trackindex>
							<clipindex>622</clipindex>
						</link>
						<link>
							<linkclipref>clipitem-1657</linkclipref>
							<mediatype>audio</mediatype>
							<trackindex>1</trackindex>
							<clipindex>622</clipindex>
							<groupindex>1</groupindex>
						</link>
					</clipitem>
					<clipitem id="clipitem-623">
						<masterclipid>masterclip-2</masterclipid>
						<name>chandrika rocket equations</name>
						<start>43113</start>
						<end>43129</end>
						<in>72606</in>
						<out>72622</out>
						<file id="file-1" />
						<link>
							<linkclipref>clipitem-623</linkclipref>
							<mediatype>video</mediatype>
							<trackindex>1</trackindex>
							<clipindex>623</clipindex>
						</link>
						<link>
							<linkclipref>clipitem-1658</linkclipref>
							<mediatype>audio</mediatype>
							<trackindex>1</trackindex>
							<clipindex>623</clipindex>
							<groupindex>1</groupindex>
						</link>
					</clipitem>
					<clipitem id="clipitem-624">
						<masterclipid>masterclip-2</masterclipid>
						<name>chandrika rocket equations</name>
						<start>43129</start>
						<end>43305</end>
						<in>72711</in>
						<out>72887</out>
						<file id="file-1" />
						<link>
							<linkclipref>clipitem-624</linkclipref>
							<mediatype>video</mediatype>
							<trackindex>1</trackindex>
							<clipindex>624</clipindex>
						</link>
						<link>
							<linkclipref>clipitem-1659</linkclipref>
							<mediatype>audio</mediatype>
							<trackindex>1</trackindex>
							<clipindex>624</clipindex>
							<groupindex>1</groupindex>
						</link>
					</clipitem>
					<clipitem id="clipitem-625">
						<masterclipid>masterclip-2</masterclipid>
						<name>chandrika rocket equations</name>
						<start>43305</start>
						<end>43324</end>
						<in>72897</in>
						<out>72916</out>
						<file id="file-1" />
						<link>
							<linkclipref>clipitem-625</linkclipref>
							<mediatype>video</mediatype>
							<trackindex>1</trackindex>
							<clipindex>625</clipindex>
						</link>
						<link>
							<linkclipref>clipitem-1660</linkclipref>
							<mediatype>audio</mediatype>
							<trackindex>1</trackindex>
							<clipindex>625</clipindex>
							<groupindex>1</groupindex>
						</link>
					</clipitem>
					<clipitem id="clipitem-626">
						<masterclipid>masterclip-2</masterclipid>
						<name>chandrika rocket equations</name>
						<start>43324</start>
						<end>43435</end>
						<in>72932</in>
						<out>73043</out>
						<file id="file-1" />
						<link>
							<linkclipref>clipitem-626</linkclipref>
							<mediatype>video</mediatype>
							<trackindex>1</trackindex>
							<clipindex>626</clipindex>
						</link>
						<link>
							<linkclipref>clipitem-1661</linkclipref>
							<mediatype>audio</mediatype>
							<trackindex>1</trackindex>
							<clipindex>626</clipindex>
							<groupindex>1</groupindex>
						</link>
					</clipitem>
					<clipitem id="clipitem-627">
						<masterclipid>masterclip-2</masterclipid>
						<name>chandrika rocket equations</name>
						<start>43435</start>
						<end>43472</end>
						<in>73053</in>
						<out>73090</out>
						<file id="file-1" />
						<link>
							<linkclipref>clipitem-627</linkclipref>
							<mediatype>video</mediatype>
							<trackindex>1</trackindex>
							<clipindex>627</clipindex>
						</link>
						<link>
							<linkclipref>clipitem-1662</linkclipref>
							<mediatype>audio</mediatype>
							<trackindex>1</trackindex>
							<clipindex>627</clipindex>
							<groupindex>1</groupindex>
						</link>
					</clipitem>
					<clipitem id="clipitem-628">
						<masterclipid>masterclip-2</masterclipid>
						<name>chandrika rocket equations</name>
						<start>43472</start>
						<end>43521</end>
						<in>73102</in>
						<out>73151</out>
						<file id="file-1" />
						<link>
							<linkclipref>clipitem-628</linkclipref>
							<mediatype>video</mediatype>
							<trackindex>1</trackindex>
							<clipindex>628</clipindex>
						</link>
						<link>
							<linkclipref>clipitem-1663</linkclipref>
							<mediatype>audio</mediatype>
							<trackindex>1</trackindex>
							<clipindex>628</clipindex>
							<groupindex>1</groupindex>
						</link>
					</clipitem>
					<clipitem id="clipitem-629">
						<masterclipid>masterclip-2</masterclipid>
						<name>chandrika rocket equations</name>
						<start>43521</start>
						<end>43705</end>
						<in>73203</in>
						<out>73387</out>
						<file id="file-1" />
						<link>
							<linkclipref>clipitem-629</linkclipref>
							<mediatype>video</mediatype>
							<trackindex>1</trackindex>
							<clipindex>629</clipindex>
						</link>
						<link>
							<linkclipref>clipitem-1664</linkclipref>
							<mediatype>audio</mediatype>
							<trackindex>1</trackindex>
							<clipindex>629</clipindex>
							<groupindex>1</groupindex>
						</link>
					</clipitem>
					<clipitem id="clipitem-630">
						<masterclipid>masterclip-2</masterclipid>
						<name>chandrika rocket equations</name>
						<start>43705</start>
						<end>43739</end>
						<in>73400</in>
						<out>73434</out>
						<file id="file-1" />
						<link>
							<linkclipref>clipitem-630</linkclipref>
							<mediatype>video</mediatype>
							<trackindex>1</trackindex>
							<clipindex>630</clipindex>
						</link>
						<link>
							<linkclipref>clipitem-1665</linkclipref>
							<mediatype>audio</mediatype>
							<trackindex>1</trackindex>
							<clipindex>630</clipindex>
							<groupindex>1</groupindex>
						</link>
					</clipitem>
					<clipitem id="clipitem-631">
						<masterclipid>masterclip-2</masterclipid>
						<name>chandrika rocket equations</name>
						<start>43739</start>
						<end>43870</end>
						<in>73454</in>
						<out>73585</out>
						<file id="file-1" />
						<link>
							<linkclipref>clipitem-631</linkclipref>
							<mediatype>video</mediatype>
							<trackindex>1</trackindex>
							<clipindex>631</clipindex>
						</link>
						<link>
							<linkclipref>clipitem-1666</linkclipref>
							<mediatype>audio</mediatype>
							<trackindex>1</trackindex>
							<clipindex>631</clipindex>
							<groupindex>1</groupindex>
						</link>
					</clipitem>
					<clipitem id="clipitem-632">
						<masterclipid>masterclip-2</masterclipid>
						<name>chandrika rocket equations</name>
						<start>43870</start>
						<end>43920</end>
						<in>73597</in>
						<out>73647</out>
						<file id="file-1" />
						<link>
							<linkclipref>clipitem-632</linkclipref>
							<mediatype>video</mediatype>
							<trackindex>1</trackindex>
							<clipindex>632</clipindex>
						</link>
						<link>
							<linkclipref>clipitem-1667</linkclipref>
							<mediatype>audio</mediatype>
							<trackindex>1</trackindex>
							<clipindex>632</clipindex>
							<groupindex>1</groupindex>
						</link>
					</clipitem>
					<clipitem id="clipitem-633">
						<masterclipid>masterclip-2</masterclipid>
						<name>chandrika rocket equations</name>
						<start>43920</start>
						<end>43998</end>
						<in>73652</in>
						<out>73730</out>
						<file id="file-1" />
						<link>
							<linkclipref>clipitem-633</linkclipref>
							<mediatype>video</mediatype>
							<trackindex>1</trackindex>
							<clipindex>633</clipindex>
						</link>
						<link>
							<linkclipref>clipitem-1668</linkclipref>
							<mediatype>audio</mediatype>
							<trackindex>1</trackindex>
							<clipindex>633</clipindex>
							<groupindex>1</groupindex>
						</link>
					</clipitem>
					<clipitem id="clipitem-634">
						<masterclipid>masterclip-2</masterclipid>
						<name>chandrika rocket equations</name>
						<start>43998</start>
						<end>44128</end>
						<in>73746</in>
						<out>73876</out>
						<file id="file-1" />
						<link>
							<linkclipref>clipitem-634</linkclipref>
							<mediatype>video</mediatype>
							<trackindex>1</trackindex>
							<clipindex>634</clipindex>
						</link>
						<link>
							<linkclipref>clipitem-1669</linkclipref>
							<mediatype>audio</mediatype>
							<trackindex>1</trackindex>
							<clipindex>634</clipindex>
							<groupindex>1</groupindex>
						</link>
					</clipitem>
					<clipitem id="clipitem-635">
						<masterclipid>masterclip-2</masterclipid>
						<name>chandrika rocket equations</name>
						<start>44128</start>
						<end>44198</end>
						<in>73888</in>
						<out>73958</out>
						<file id="file-1" />
						<link>
							<linkclipref>clipitem-635</linkclipref>
							<mediatype>video</mediatype>
							<trackindex>1</trackindex>
							<clipindex>635</clipindex>
						</link>
						<link>
							<linkclipref>clipitem-1670</linkclipref>
							<mediatype>audio</mediatype>
							<trackindex>1</trackindex>
							<clipindex>635</clipindex>
							<groupindex>1</groupindex>
						</link>
					</clipitem>
					<clipitem id="clipitem-636">
						<masterclipid>masterclip-2</masterclipid>
						<name>chandrika rocket equations</name>
						<start>44198</start>
						<end>44375</end>
						<in>74097</in>
						<out>74274</out>
						<file id="file-1" />
						<link>
							<linkclipref>clipitem-636</linkclipref>
							<mediatype>video</mediatype>
							<trackindex>1</trackindex>
							<clipindex>636</clipindex>
						</link>
						<link>
							<linkclipref>clipitem-1671</linkclipref>
							<mediatype>audio</mediatype>
							<trackindex>1</trackindex>
							<clipindex>636</clipindex>
							<groupindex>1</groupindex>
						</link>
					</clipitem>
					<clipitem id="clipitem-637">
						<masterclipid>masterclip-2</masterclipid>
						<name>chandrika rocket equations</name>
						<start>44375</start>
						<end>44480</end>
						<in>74286</in>
						<out>74391</out>
						<file id="file-1" />
						<link>
							<linkclipref>clipitem-637</linkclipref>
							<mediatype>video</mediatype>
							<trackindex>1</trackindex>
							<clipindex>637</clipindex>
						</link>
						<link>
							<linkclipref>clipitem-1672</linkclipref>
							<mediatype>audio</mediatype>
							<trackindex>1</trackindex>
							<clipindex>637</clipindex>
							<groupindex>1</groupindex>
						</link>
					</clipitem>
					<clipitem id="clipitem-638">
						<masterclipid>masterclip-2</masterclipid>
						<name>chandrika rocket equations</name>
						<start>44480</start>
						<end>44553</end>
						<in>74435</in>
						<out>74508</out>
						<file id="file-1" />
						<link>
							<linkclipref>clipitem-638</linkclipref>
							<mediatype>video</mediatype>
							<trackindex>1</trackindex>
							<clipindex>638</clipindex>
						</link>
						<link>
							<linkclipref>clipitem-1673</linkclipref>
							<mediatype>audio</mediatype>
							<trackindex>1</trackindex>
							<clipindex>638</clipindex>
							<groupindex>1</groupindex>
						</link>
					</clipitem>
					<clipitem id="clipitem-639">
						<masterclipid>masterclip-2</masterclipid>
						<name>chandrika rocket equations</name>
						<start>44553</start>
						<end>44619</end>
						<in>74527</in>
						<out>74593</out>
						<file id="file-1" />
						<link>
							<linkclipref>clipitem-639</linkclipref>
							<mediatype>video</mediatype>
							<trackindex>1</trackindex>
							<clipindex>639</clipindex>
						</link>
						<link>
							<linkclipref>clipitem-1674</linkclipref>
							<mediatype>audio</mediatype>
							<trackindex>1</trackindex>
							<clipindex>639</clipindex>
							<groupindex>1</groupindex>
						</link>
					</clipitem>
					<clipitem id="clipitem-640">
						<masterclipid>masterclip-2</masterclipid>
						<name>chandrika rocket equations</name>
						<start>44619</start>
						<end>44702</end>
						<in>74597</in>
						<out>74680</out>
						<file id="file-1" />
						<link>
							<linkclipref>clipitem-640</linkclipref>
							<mediatype>video</mediatype>
							<trackindex>1</trackindex>
							<clipindex>640</clipindex>
						</link>
						<link>
							<linkclipref>clipitem-1675</linkclipref>
							<mediatype>audio</mediatype>
							<trackindex>1</trackindex>
							<clipindex>640</clipindex>
							<groupindex>1</groupindex>
						</link>
					</clipitem>
					<clipitem id="clipitem-641">
						<masterclipid>masterclip-2</masterclipid>
						<name>chandrika rocket equations</name>
						<start>44702</start>
						<end>44797</end>
						<in>74697</in>
						<out>74792</out>
						<file id="file-1" />
						<link>
							<linkclipref>clipitem-641</linkclipref>
							<mediatype>video</mediatype>
							<trackindex>1</trackindex>
							<clipindex>641</clipindex>
						</link>
						<link>
							<linkclipref>clipitem-1676</linkclipref>
							<mediatype>audio</mediatype>
							<trackindex>1</trackindex>
							<clipindex>641</clipindex>
							<groupindex>1</groupindex>
						</link>
					</clipitem>
					<clipitem id="clipitem-642">
						<masterclipid>masterclip-2</masterclipid>
						<name>chandrika rocket equations</name>
						<start>44797</start>
						<end>44862</end>
						<in>74817</in>
						<out>74882</out>
						<file id="file-1" />
						<link>
							<linkclipref>clipitem-642</linkclipref>
							<mediatype>video</mediatype>
							<trackindex>1</trackindex>
							<clipindex>642</clipindex>
						</link>
						<link>
							<linkclipref>clipitem-1677</linkclipref>
							<mediatype>audio</mediatype>
							<trackindex>1</trackindex>
							<clipindex>642</clipindex>
							<groupindex>1</groupindex>
						</link>
					</clipitem>
					<clipitem id="clipitem-643">
						<masterclipid>masterclip-2</masterclipid>
						<name>chandrika rocket equations</name>
						<start>44862</start>
						<end>44914</end>
						<in>74894</in>
						<out>74946</out>
						<file id="file-1" />
						<link>
							<linkclipref>clipitem-643</linkclipref>
							<mediatype>video</mediatype>
							<trackindex>1</trackindex>
							<clipindex>643</clipindex>
						</link>
						<link>
							<linkclipref>clipitem-1678</linkclipref>
							<mediatype>audio</mediatype>
							<trackindex>1</trackindex>
							<clipindex>643</clipindex>
							<groupindex>1</groupindex>
						</link>
					</clipitem>
					<clipitem id="clipitem-644">
						<masterclipid>masterclip-2</masterclipid>
						<name>chandrika rocket equations</name>
						<start>44914</start>
						<end>44935</end>
						<in>74992</in>
						<out>75013</out>
						<file id="file-1" />
						<link>
							<linkclipref>clipitem-644</linkclipref>
							<mediatype>video</mediatype>
							<trackindex>1</trackindex>
							<clipindex>644</clipindex>
						</link>
						<link>
							<linkclipref>clipitem-1679</linkclipref>
							<mediatype>audio</mediatype>
							<trackindex>1</trackindex>
							<clipindex>644</clipindex>
							<groupindex>1</groupindex>
						</link>
					</clipitem>
					<clipitem id="clipitem-645">
						<masterclipid>masterclip-2</masterclipid>
						<name>chandrika rocket equations</name>
						<start>44935</start>
						<end>45025</end>
						<in>75065</in>
						<out>75155</out>
						<file id="file-1" />
						<link>
							<linkclipref>clipitem-645</linkclipref>
							<mediatype>video</mediatype>
							<trackindex>1</trackindex>
							<clipindex>645</clipindex>
						</link>
						<link>
							<linkclipref>clipitem-1680</linkclipref>
							<mediatype>audio</mediatype>
							<trackindex>1</trackindex>
							<clipindex>645</clipindex>
							<groupindex>1</groupindex>
						</link>
					</clipitem>
					<clipitem id="clipitem-646">
						<masterclipid>masterclip-2</masterclipid>
						<name>chandrika rocket equations</name>
						<start>45025</start>
						<end>45150</end>
						<in>75181</in>
						<out>75306</out>
						<file id="file-1" />
						<link>
							<linkclipref>clipitem-646</linkclipref>
							<mediatype>video</mediatype>
							<trackindex>1</trackindex>
							<clipindex>646</clipindex>
						</link>
						<link>
							<linkclipref>clipitem-1681</linkclipref>
							<mediatype>audio</mediatype>
							<trackindex>1</trackindex>
							<clipindex>646</clipindex>
							<groupindex>1</groupindex>
						</link>
					</clipitem>
					<clipitem id="clipitem-647">
						<masterclipid>masterclip-2</masterclipid>
						<name>chandrika rocket equations</name>
						<start>45150</start>
						<end>45185</end>
						<in>75321</in>
						<out>75356</out>
						<file id="file-1" />
						<link>
							<linkclipref>clipitem-647</linkclipref>
							<mediatype>video</mediatype>
							<trackindex>1</trackindex>
							<clipindex>647</clipindex>
						</link>
						<link>
							<linkclipref>clipitem-1682</linkclipref>
							<mediatype>audio</mediatype>
							<trackindex>1</trackindex>
							<clipindex>647</clipindex>
							<groupindex>1</groupindex>
						</link>
					</clipitem>
					<clipitem id="clipitem-648">
						<masterclipid>masterclip-2</masterclipid>
						<name>chandrika rocket equations</name>
						<start>45185</start>
						<end>45207</end>
						<in>75359</in>
						<out>75381</out>
						<file id="file-1" />
						<link>
							<linkclipref>clipitem-648</linkclipref>
							<mediatype>video</mediatype>
							<trackindex>1</trackindex>
							<clipindex>648</clipindex>
						</link>
						<link>
							<linkclipref>clipitem-1683</linkclipref>
							<mediatype>audio</mediatype>
							<trackindex>1</trackindex>
							<clipindex>648</clipindex>
							<groupindex>1</groupindex>
						</link>
					</clipitem>
					<clipitem id="clipitem-649">
						<masterclipid>masterclip-2</masterclipid>
						<name>chandrika rocket equations</name>
						<start>45207</start>
						<end>45288</end>
						<in>75450</in>
						<out>75531</out>
						<file id="file-1" />
						<link>
							<linkclipref>clipitem-649</linkclipref>
							<mediatype>video</mediatype>
							<trackindex>1</trackindex>
							<clipindex>649</clipindex>
						</link>
						<link>
							<linkclipref>clipitem-1684</linkclipref>
							<mediatype>audio</mediatype>
							<trackindex>1</trackindex>
							<clipindex>649</clipindex>
							<groupindex>1</groupindex>
						</link>
					</clipitem>
					<clipitem id="clipitem-650">
						<masterclipid>masterclip-2</masterclipid>
						<name>chandrika rocket equations</name>
						<start>45288</start>
						<end>45327</end>
						<in>75544</in>
						<out>75583</out>
						<file id="file-1" />
						<link>
							<linkclipref>clipitem-650</linkclipref>
							<mediatype>video</mediatype>
							<trackindex>1</trackindex>
							<clipindex>650</clipindex>
						</link>
						<link>
							<linkclipref>clipitem-1685</linkclipref>
							<mediatype>audio</mediatype>
							<trackindex>1</trackindex>
							<clipindex>650</clipindex>
							<groupindex>1</groupindex>
						</link>
					</clipitem>
					<clipitem id="clipitem-651">
						<masterclipid>masterclip-2</masterclipid>
						<name>chandrika rocket equations</name>
						<start>45327</start>
						<end>45360</end>
						<in>75626</in>
						<out>75659</out>
						<file id="file-1" />
						<link>
							<linkclipref>clipitem-651</linkclipref>
							<mediatype>video</mediatype>
							<trackindex>1</trackindex>
							<clipindex>651</clipindex>
						</link>
						<link>
							<linkclipref>clipitem-1686</linkclipref>
							<mediatype>audio</mediatype>
							<trackindex>1</trackindex>
							<clipindex>651</clipindex>
							<groupindex>1</groupindex>
						</link>
					</clipitem>
					<clipitem id="clipitem-652">
						<masterclipid>masterclip-2</masterclipid>
						<name>chandrika rocket equations</name>
						<start>45360</start>
						<end>45442</end>
						<in>75705</in>
						<out>75787</out>
						<file id="file-1" />
						<link>
							<linkclipref>clipitem-652</linkclipref>
							<mediatype>video</mediatype>
							<trackindex>1</trackindex>
							<clipindex>652</clipindex>
						</link>
						<link>
							<linkclipref>clipitem-1687</linkclipref>
							<mediatype>audio</mediatype>
							<trackindex>1</trackindex>
							<clipindex>652</clipindex>
							<groupindex>1</groupindex>
						</link>
					</clipitem>
					<clipitem id="clipitem-653">
						<masterclipid>masterclip-2</masterclipid>
						<name>chandrika rocket equations</name>
						<start>45442</start>
						<end>45515</end>
						<in>75831</in>
						<out>75904</out>
						<file id="file-1" />
						<link>
							<linkclipref>clipitem-653</linkclipref>
							<mediatype>video</mediatype>
							<trackindex>1</trackindex>
							<clipindex>653</clipindex>
						</link>
						<link>
							<linkclipref>clipitem-1688</linkclipref>
							<mediatype>audio</mediatype>
							<trackindex>1</trackindex>
							<clipindex>653</clipindex>
							<groupindex>1</groupindex>
						</link>
					</clipitem>
					<clipitem id="clipitem-654">
						<masterclipid>masterclip-2</masterclipid>
						<name>chandrika rocket equations</name>
						<start>45515</start>
						<end>45553</end>
						<in>75939</in>
						<out>75977</out>
						<file id="file-1" />
						<link>
							<linkclipref>clipitem-654</linkclipref>
							<mediatype>video</mediatype>
							<trackindex>1</trackindex>
							<clipindex>654</clipindex>
						</link>
						<link>
							<linkclipref>clipitem-1689</linkclipref>
							<mediatype>audio</mediatype>
							<trackindex>1</trackindex>
							<clipindex>654</clipindex>
							<groupindex>1</groupindex>
						</link>
					</clipitem>
					<clipitem id="clipitem-655">
						<masterclipid>masterclip-2</masterclipid>
						<name>chandrika rocket equations</name>
						<start>45553</start>
						<end>45599</end>
						<in>76010</in>
						<out>76056</out>
						<file id="file-1" />
						<link>
							<linkclipref>clipitem-655</linkclipref>
							<mediatype>video</mediatype>
							<trackindex>1</trackindex>
							<clipindex>655</clipindex>
						</link>
						<link>
							<linkclipref>clipitem-1690</linkclipref>
							<mediatype>audio</mediatype>
							<trackindex>1</trackindex>
							<clipindex>655</clipindex>
							<groupindex>1</groupindex>
						</link>
					</clipitem>
					<clipitem id="clipitem-656">
						<masterclipid>masterclip-2</masterclipid>
						<name>chandrika rocket equations</name>
						<start>45599</start>
						<end>45684</end>
						<in>76071</in>
						<out>76156</out>
						<file id="file-1" />
						<link>
							<linkclipref>clipitem-656</linkclipref>
							<mediatype>video</mediatype>
							<trackindex>1</trackindex>
							<clipindex>656</clipindex>
						</link>
						<link>
							<linkclipref>clipitem-1691</linkclipref>
							<mediatype>audio</mediatype>
							<trackindex>1</trackindex>
							<clipindex>656</clipindex>
							<groupindex>1</groupindex>
						</link>
					</clipitem>
					<clipitem id="clipitem-657">
						<masterclipid>masterclip-2</masterclipid>
						<name>chandrika rocket equations</name>
						<start>45684</start>
						<end>45713</end>
						<in>76223</in>
						<out>76252</out>
						<file id="file-1" />
						<link>
							<linkclipref>clipitem-657</linkclipref>
							<mediatype>video</mediatype>
							<trackindex>1</trackindex>
							<clipindex>657</clipindex>
						</link>
						<link>
							<linkclipref>clipitem-1692</linkclipref>
							<mediatype>audio</mediatype>
							<trackindex>1</trackindex>
							<clipindex>657</clipindex>
							<groupindex>1</groupindex>
						</link>
					</clipitem>
					<clipitem id="clipitem-658">
						<masterclipid>masterclip-2</masterclipid>
						<name>chandrika rocket equations</name>
						<start>45713</start>
						<end>45742</end>
						<in>76300</in>
						<out>76329</out>
						<file id="file-1" />
						<link>
							<linkclipref>clipitem-658</linkclipref>
							<mediatype>video</mediatype>
							<trackindex>1</trackindex>
							<clipindex>658</clipindex>
						</link>
						<link>
							<linkclipref>clipitem-1693</linkclipref>
							<mediatype>audio</mediatype>
							<trackindex>1</trackindex>
							<clipindex>658</clipindex>
							<groupindex>1</groupindex>
						</link>
					</clipitem>
					<clipitem id="clipitem-659">
						<masterclipid>masterclip-2</masterclipid>
						<name>chandrika rocket equations</name>
						<start>45742</start>
						<end>45773</end>
						<in>76346</in>
						<out>76377</out>
						<file id="file-1" />
						<link>
							<linkclipref>clipitem-659</linkclipref>
							<mediatype>video</mediatype>
							<trackindex>1</trackindex>
							<clipindex>659</clipindex>
						</link>
						<link>
							<linkclipref>clipitem-1694</linkclipref>
							<mediatype>audio</mediatype>
							<trackindex>1</trackindex>
							<clipindex>659</clipindex>
							<groupindex>1</groupindex>
						</link>
					</clipitem>
					<clipitem id="clipitem-660">
						<masterclipid>masterclip-2</masterclipid>
						<name>chandrika rocket equations</name>
						<start>45773</start>
						<end>45799</end>
						<in>76430</in>
						<out>76456</out>
						<file id="file-1" />
						<link>
							<linkclipref>clipitem-660</linkclipref>
							<mediatype>video</mediatype>
							<trackindex>1</trackindex>
							<clipindex>660</clipindex>
						</link>
						<link>
							<linkclipref>clipitem-1695</linkclipref>
							<mediatype>audio</mediatype>
							<trackindex>1</trackindex>
							<clipindex>660</clipindex>
							<groupindex>1</groupindex>
						</link>
					</clipitem>
					<clipitem id="clipitem-661">
						<masterclipid>masterclip-2</masterclipid>
						<name>chandrika rocket equations</name>
						<start>45799</start>
						<end>45833</end>
						<in>76460</in>
						<out>76494</out>
						<file id="file-1" />
						<link>
							<linkclipref>clipitem-661</linkclipref>
							<mediatype>video</mediatype>
							<trackindex>1</trackindex>
							<clipindex>661</clipindex>
						</link>
						<link>
							<linkclipref>clipitem-1696</linkclipref>
							<mediatype>audio</mediatype>
							<trackindex>1</trackindex>
							<clipindex>661</clipindex>
							<groupindex>1</groupindex>
						</link>
					</clipitem>
					<clipitem id="clipitem-662">
						<masterclipid>masterclip-2</masterclipid>
						<name>chandrika rocket equations</name>
						<start>45833</start>
						<end>45869</end>
						<in>76592</in>
						<out>76628</out>
						<file id="file-1" />
						<link>
							<linkclipref>clipitem-662</linkclipref>
							<mediatype>video</mediatype>
							<trackindex>1</trackindex>
							<clipindex>662</clipindex>
						</link>
						<link>
							<linkclipref>clipitem-1697</linkclipref>
							<mediatype>audio</mediatype>
							<trackindex>1</trackindex>
							<clipindex>662</clipindex>
							<groupindex>1</groupindex>
						</link>
					</clipitem>
					<clipitem id="clipitem-663">
						<masterclipid>masterclip-2</masterclipid>
						<name>chandrika rocket equations</name>
						<start>45869</start>
						<end>45905</end>
						<in>76659</in>
						<out>76695</out>
						<file id="file-1" />
						<link>
							<linkclipref>clipitem-663</linkclipref>
							<mediatype>video</mediatype>
							<trackindex>1</trackindex>
							<clipindex>663</clipindex>
						</link>
						<link>
							<linkclipref>clipitem-1698</linkclipref>
							<mediatype>audio</mediatype>
							<trackindex>1</trackindex>
							<clipindex>663</clipindex>
							<groupindex>1</groupindex>
						</link>
					</clipitem>
					<clipitem id="clipitem-664">
						<masterclipid>masterclip-2</masterclipid>
						<name>chandrika rocket equations</name>
						<start>45905</start>
						<end>45941</end>
						<in>76727</in>
						<out>76763</out>
						<file id="file-1" />
						<link>
							<linkclipref>clipitem-664</linkclipref>
							<mediatype>video</mediatype>
							<trackindex>1</trackindex>
							<clipindex>664</clipindex>
						</link>
						<link>
							<linkclipref>clipitem-1699</linkclipref>
							<mediatype>audio</mediatype>
							<trackindex>1</trackindex>
							<clipindex>664</clipindex>
							<groupindex>1</groupindex>
						</link>
					</clipitem>
					<clipitem id="clipitem-665">
						<masterclipid>masterclip-2</masterclipid>
						<name>chandrika rocket equations</name>
						<start>45941</start>
						<end>45964</end>
						<in>76783</in>
						<out>76806</out>
						<file id="file-1" />
						<link>
							<linkclipref>clipitem-665</linkclipref>
							<mediatype>video</mediatype>
							<trackindex>1</trackindex>
							<clipindex>665</clipindex>
						</link>
						<link>
							<linkclipref>clipitem-1700</linkclipref>
							<mediatype>audio</mediatype>
							<trackindex>1</trackindex>
							<clipindex>665</clipindex>
							<groupindex>1</groupindex>
						</link>
					</clipitem>
					<clipitem id="clipitem-666">
						<masterclipid>masterclip-2</masterclipid>
						<name>chandrika rocket equations</name>
						<start>45964</start>
						<end>46109</end>
						<in>76942</in>
						<out>77087</out>
						<file id="file-1" />
						<link>
							<linkclipref>clipitem-666</linkclipref>
							<mediatype>video</mediatype>
							<trackindex>1</trackindex>
							<clipindex>666</clipindex>
						</link>
						<link>
							<linkclipref>clipitem-1701</linkclipref>
							<mediatype>audio</mediatype>
							<trackindex>1</trackindex>
							<clipindex>666</clipindex>
							<groupindex>1</groupindex>
						</link>
					</clipitem>
					<clipitem id="clipitem-667">
						<masterclipid>masterclip-2</masterclipid>
						<name>chandrika rocket equations</name>
						<start>46109</start>
						<end>46167</end>
						<in>77097</in>
						<out>77155</out>
						<file id="file-1" />
						<link>
							<linkclipref>clipitem-667</linkclipref>
							<mediatype>video</mediatype>
							<trackindex>1</trackindex>
							<clipindex>667</clipindex>
						</link>
						<link>
							<linkclipref>clipitem-1702</linkclipref>
							<mediatype>audio</mediatype>
							<trackindex>1</trackindex>
							<clipindex>667</clipindex>
							<groupindex>1</groupindex>
						</link>
					</clipitem>
					<clipitem id="clipitem-668">
						<masterclipid>masterclip-2</masterclipid>
						<name>chandrika rocket equations</name>
						<start>46167</start>
						<end>46274</end>
						<in>77160</in>
						<out>77267</out>
						<file id="file-1" />
						<link>
							<linkclipref>clipitem-668</linkclipref>
							<mediatype>video</mediatype>
							<trackindex>1</trackindex>
							<clipindex>668</clipindex>
						</link>
						<link>
							<linkclipref>clipitem-1703</linkclipref>
							<mediatype>audio</mediatype>
							<trackindex>1</trackindex>
							<clipindex>668</clipindex>
							<groupindex>1</groupindex>
						</link>
					</clipitem>
					<clipitem id="clipitem-669">
						<masterclipid>masterclip-2</masterclipid>
						<name>chandrika rocket equations</name>
						<start>46274</start>
						<end>46312</end>
						<in>77295</in>
						<out>77333</out>
						<file id="file-1" />
						<link>
							<linkclipref>clipitem-669</linkclipref>
							<mediatype>video</mediatype>
							<trackindex>1</trackindex>
							<clipindex>669</clipindex>
						</link>
						<link>
							<linkclipref>clipitem-1704</linkclipref>
							<mediatype>audio</mediatype>
							<trackindex>1</trackindex>
							<clipindex>669</clipindex>
							<groupindex>1</groupindex>
						</link>
					</clipitem>
					<clipitem id="clipitem-670">
						<masterclipid>masterclip-2</masterclipid>
						<name>chandrika rocket equations</name>
						<start>46312</start>
						<end>46390</end>
						<in>77334</in>
						<out>77412</out>
						<file id="file-1" />
						<link>
							<linkclipref>clipitem-670</linkclipref>
							<mediatype>video</mediatype>
							<trackindex>1</trackindex>
							<clipindex>670</clipindex>
						</link>
						<link>
							<linkclipref>clipitem-1705</linkclipref>
							<mediatype>audio</mediatype>
							<trackindex>1</trackindex>
							<clipindex>670</clipindex>
							<groupindex>1</groupindex>
						</link>
					</clipitem>
					<clipitem id="clipitem-671">
						<masterclipid>masterclip-2</masterclipid>
						<name>chandrika rocket equations</name>
						<start>46390</start>
						<end>46413</end>
						<in>77437</in>
						<out>77460</out>
						<file id="file-1" />
						<link>
							<linkclipref>clipitem-671</linkclipref>
							<mediatype>video</mediatype>
							<trackindex>1</trackindex>
							<clipindex>671</clipindex>
						</link>
						<link>
							<linkclipref>clipitem-1706</linkclipref>
							<mediatype>audio</mediatype>
							<trackindex>1</trackindex>
							<clipindex>671</clipindex>
							<groupindex>1</groupindex>
						</link>
					</clipitem>
					<clipitem id="clipitem-672">
						<masterclipid>masterclip-2</masterclipid>
						<name>chandrika rocket equations</name>
						<start>46413</start>
						<end>46471</end>
						<in>77474</in>
						<out>77532</out>
						<file id="file-1" />
						<link>
							<linkclipref>clipitem-672</linkclipref>
							<mediatype>video</mediatype>
							<trackindex>1</trackindex>
							<clipindex>672</clipindex>
						</link>
						<link>
							<linkclipref>clipitem-1707</linkclipref>
							<mediatype>audio</mediatype>
							<trackindex>1</trackindex>
							<clipindex>672</clipindex>
							<groupindex>1</groupindex>
						</link>
					</clipitem>
					<clipitem id="clipitem-673">
						<masterclipid>masterclip-2</masterclipid>
						<name>chandrika rocket equations</name>
						<start>46471</start>
						<end>46516</end>
						<in>77552</in>
						<out>77597</out>
						<file id="file-1" />
						<link>
							<linkclipref>clipitem-673</linkclipref>
							<mediatype>video</mediatype>
							<trackindex>1</trackindex>
							<clipindex>673</clipindex>
						</link>
						<link>
							<linkclipref>clipitem-1708</linkclipref>
							<mediatype>audio</mediatype>
							<trackindex>1</trackindex>
							<clipindex>673</clipindex>
							<groupindex>1</groupindex>
						</link>
					</clipitem>
					<clipitem id="clipitem-674">
						<masterclipid>masterclip-2</masterclipid>
						<name>chandrika rocket equations</name>
						<start>46516</start>
						<end>46567</end>
						<in>77636</in>
						<out>77687</out>
						<file id="file-1" />
						<link>
							<linkclipref>clipitem-674</linkclipref>
							<mediatype>video</mediatype>
							<trackindex>1</trackindex>
							<clipindex>674</clipindex>
						</link>
						<link>
							<linkclipref>clipitem-1709</linkclipref>
							<mediatype>audio</mediatype>
							<trackindex>1</trackindex>
							<clipindex>674</clipindex>
							<groupindex>1</groupindex>
						</link>
					</clipitem>
					<clipitem id="clipitem-675">
						<masterclipid>masterclip-2</masterclipid>
						<name>chandrika rocket equations</name>
						<start>46567</start>
						<end>46588</end>
						<in>77747</in>
						<out>77768</out>
						<file id="file-1" />
						<link>
							<linkclipref>clipitem-675</linkclipref>
							<mediatype>video</mediatype>
							<trackindex>1</trackindex>
							<clipindex>675</clipindex>
						</link>
						<link>
							<linkclipref>clipitem-1710</linkclipref>
							<mediatype>audio</mediatype>
							<trackindex>1</trackindex>
							<clipindex>675</clipindex>
							<groupindex>1</groupindex>
						</link>
					</clipitem>
					<clipitem id="clipitem-676">
						<masterclipid>masterclip-2</masterclipid>
						<name>chandrika rocket equations</name>
						<start>46588</start>
						<end>46619</end>
						<in>77827</in>
						<out>77858</out>
						<file id="file-1" />
						<link>
							<linkclipref>clipitem-676</linkclipref>
							<mediatype>video</mediatype>
							<trackindex>1</trackindex>
							<clipindex>676</clipindex>
						</link>
						<link>
							<linkclipref>clipitem-1711</linkclipref>
							<mediatype>audio</mediatype>
							<trackindex>1</trackindex>
							<clipindex>676</clipindex>
							<groupindex>1</groupindex>
						</link>
					</clipitem>
					<clipitem id="clipitem-677">
						<masterclipid>masterclip-2</masterclipid>
						<name>chandrika rocket equations</name>
						<start>46619</start>
						<end>46706</end>
						<in>77889</in>
						<out>77976</out>
						<file id="file-1" />
						<link>
							<linkclipref>clipitem-677</linkclipref>
							<mediatype>video</mediatype>
							<trackindex>1</trackindex>
							<clipindex>677</clipindex>
						</link>
						<link>
							<linkclipref>clipitem-1712</linkclipref>
							<mediatype>audio</mediatype>
							<trackindex>1</trackindex>
							<clipindex>677</clipindex>
							<groupindex>1</groupindex>
						</link>
					</clipitem>
					<clipitem id="clipitem-678">
						<masterclipid>masterclip-2</masterclipid>
						<name>chandrika rocket equations</name>
						<start>46706</start>
						<end>46847</end>
						<in>78030</in>
						<out>78171</out>
						<file id="file-1" />
						<link>
							<linkclipref>clipitem-678</linkclipref>
							<mediatype>video</mediatype>
							<trackindex>1</trackindex>
							<clipindex>678</clipindex>
						</link>
						<link>
							<linkclipref>clipitem-1713</linkclipref>
							<mediatype>audio</mediatype>
							<trackindex>1</trackindex>
							<clipindex>678</clipindex>
							<groupindex>1</groupindex>
						</link>
					</clipitem>
					<clipitem id="clipitem-679">
						<masterclipid>masterclip-2</masterclipid>
						<name>chandrika rocket equations</name>
						<start>46847</start>
						<end>46862</end>
						<in>78174</in>
						<out>78189</out>
						<file id="file-1" />
						<link>
							<linkclipref>clipitem-679</linkclipref>
							<mediatype>video</mediatype>
							<trackindex>1</trackindex>
							<clipindex>679</clipindex>
						</link>
						<link>
							<linkclipref>clipitem-1714</linkclipref>
							<mediatype>audio</mediatype>
							<trackindex>1</trackindex>
							<clipindex>679</clipindex>
							<groupindex>1</groupindex>
						</link>
					</clipitem>
					<clipitem id="clipitem-680">
						<masterclipid>masterclip-2</masterclipid>
						<name>chandrika rocket equations</name>
						<start>46862</start>
						<end>46883</end>
						<in>78225</in>
						<out>78246</out>
						<file id="file-1" />
						<link>
							<linkclipref>clipitem-680</linkclipref>
							<mediatype>video</mediatype>
							<trackindex>1</trackindex>
							<clipindex>680</clipindex>
						</link>
						<link>
							<linkclipref>clipitem-1715</linkclipref>
							<mediatype>audio</mediatype>
							<trackindex>1</trackindex>
							<clipindex>680</clipindex>
							<groupindex>1</groupindex>
						</link>
					</clipitem>
					<clipitem id="clipitem-681">
						<masterclipid>masterclip-2</masterclipid>
						<name>chandrika rocket equations</name>
						<start>46883</start>
						<end>46932</end>
						<in>78300</in>
						<out>78349</out>
						<file id="file-1" />
						<link>
							<linkclipref>clipitem-681</linkclipref>
							<mediatype>video</mediatype>
							<trackindex>1</trackindex>
							<clipindex>681</clipindex>
						</link>
						<link>
							<linkclipref>clipitem-1716</linkclipref>
							<mediatype>audio</mediatype>
							<trackindex>1</trackindex>
							<clipindex>681</clipindex>
							<groupindex>1</groupindex>
						</link>
					</clipitem>
					<clipitem id="clipitem-682">
						<masterclipid>masterclip-2</masterclipid>
						<name>chandrika rocket equations</name>
						<start>46932</start>
						<end>46979</end>
						<in>78374</in>
						<out>78421</out>
						<file id="file-1" />
						<link>
							<linkclipref>clipitem-682</linkclipref>
							<mediatype>video</mediatype>
							<trackindex>1</trackindex>
							<clipindex>682</clipindex>
						</link>
						<link>
							<linkclipref>clipitem-1717</linkclipref>
							<mediatype>audio</mediatype>
							<trackindex>1</trackindex>
							<clipindex>682</clipindex>
							<groupindex>1</groupindex>
						</link>
					</clipitem>
					<clipitem id="clipitem-683">
						<masterclipid>masterclip-2</masterclipid>
						<name>chandrika rocket equations</name>
						<start>46979</start>
						<end>47054</end>
						<in>78456</in>
						<out>78531</out>
						<file id="file-1" />
						<link>
							<linkclipref>clipitem-683</linkclipref>
							<mediatype>video</mediatype>
							<trackindex>1</trackindex>
							<clipindex>683</clipindex>
						</link>
						<link>
							<linkclipref>clipitem-1718</linkclipref>
							<mediatype>audio</mediatype>
							<trackindex>1</trackindex>
							<clipindex>683</clipindex>
							<groupindex>1</groupindex>
						</link>
					</clipitem>
					<clipitem id="clipitem-684">
						<masterclipid>masterclip-2</masterclipid>
						<name>chandrika rocket equations</name>
						<start>47054</start>
						<end>47083</end>
						<in>78584</in>
						<out>78613</out>
						<file id="file-1" />
						<link>
							<linkclipref>clipitem-684</linkclipref>
							<mediatype>video</mediatype>
							<trackindex>1</trackindex>
							<clipindex>684</clipindex>
						</link>
						<link>
							<linkclipref>clipitem-1719</linkclipref>
							<mediatype>audio</mediatype>
							<trackindex>1</trackindex>
							<clipindex>684</clipindex>
							<groupindex>1</groupindex>
						</link>
					</clipitem>
					<clipitem id="clipitem-685">
						<masterclipid>masterclip-2</masterclipid>
						<name>chandrika rocket equations</name>
						<start>47083</start>
						<end>47112</end>
						<in>78703</in>
						<out>78732</out>
						<file id="file-1" />
						<link>
							<linkclipref>clipitem-685</linkclipref>
							<mediatype>video</mediatype>
							<trackindex>1</trackindex>
							<clipindex>685</clipindex>
						</link>
						<link>
							<linkclipref>clipitem-1720</linkclipref>
							<mediatype>audio</mediatype>
							<trackindex>1</trackindex>
							<clipindex>685</clipindex>
							<groupindex>1</groupindex>
						</link>
					</clipitem>
					<clipitem id="clipitem-686">
						<masterclipid>masterclip-2</masterclipid>
						<name>chandrika rocket equations</name>
						<start>47112</start>
						<end>47154</end>
						<in>78941</in>
						<out>78983</out>
						<file id="file-1" />
						<link>
							<linkclipref>clipitem-686</linkclipref>
							<mediatype>video</mediatype>
							<trackindex>1</trackindex>
							<clipindex>686</clipindex>
						</link>
						<link>
							<linkclipref>clipitem-1721</linkclipref>
							<mediatype>audio</mediatype>
							<trackindex>1</trackindex>
							<clipindex>686</clipindex>
							<groupindex>1</groupindex>
						</link>
					</clipitem>
					<clipitem id="clipitem-687">
						<masterclipid>masterclip-2</masterclipid>
						<name>chandrika rocket equations</name>
						<start>47154</start>
						<end>47198</end>
						<in>79013</in>
						<out>79057</out>
						<file id="file-1" />
						<link>
							<linkclipref>clipitem-687</linkclipref>
							<mediatype>video</mediatype>
							<trackindex>1</trackindex>
							<clipindex>687</clipindex>
						</link>
						<link>
							<linkclipref>clipitem-1722</linkclipref>
							<mediatype>audio</mediatype>
							<trackindex>1</trackindex>
							<clipindex>687</clipindex>
							<groupindex>1</groupindex>
						</link>
					</clipitem>
					<clipitem id="clipitem-688">
						<masterclipid>masterclip-2</masterclipid>
						<name>chandrika rocket equations</name>
						<start>47198</start>
						<end>47271</end>
						<in>79137</in>
						<out>79210</out>
						<file id="file-1" />
						<link>
							<linkclipref>clipitem-688</linkclipref>
							<mediatype>video</mediatype>
							<trackindex>1</trackindex>
							<clipindex>688</clipindex>
						</link>
						<link>
							<linkclipref>clipitem-1723</linkclipref>
							<mediatype>audio</mediatype>
							<trackindex>1</trackindex>
							<clipindex>688</clipindex>
							<groupindex>1</groupindex>
						</link>
					</clipitem>
					<clipitem id="clipitem-689">
						<masterclipid>masterclip-2</masterclipid>
						<name>chandrika rocket equations</name>
						<start>47271</start>
						<end>47394</end>
						<in>79237</in>
						<out>79360</out>
						<file id="file-1" />
						<link>
							<linkclipref>clipitem-689</linkclipref>
							<mediatype>video</mediatype>
							<trackindex>1</trackindex>
							<clipindex>689</clipindex>
						</link>
						<link>
							<linkclipref>clipitem-1724</linkclipref>
							<mediatype>audio</mediatype>
							<trackindex>1</trackindex>
							<clipindex>689</clipindex>
							<groupindex>1</groupindex>
						</link>
					</clipitem>
					<clipitem id="clipitem-690">
						<masterclipid>masterclip-2</masterclipid>
						<name>chandrika rocket equations</name>
						<start>47394</start>
						<end>47483</end>
						<in>79420</in>
						<out>79509</out>
						<file id="file-1" />
						<link>
							<linkclipref>clipitem-690</linkclipref>
							<mediatype>video</mediatype>
							<trackindex>1</trackindex>
							<clipindex>690</clipindex>
						</link>
						<link>
							<linkclipref>clipitem-1725</linkclipref>
							<mediatype>audio</mediatype>
							<trackindex>1</trackindex>
							<clipindex>690</clipindex>
							<groupindex>1</groupindex>
						</link>
					</clipitem>
					<clipitem id="clipitem-691">
						<masterclipid>masterclip-2</masterclipid>
						<name>chandrika rocket equations</name>
						<start>47483</start>
						<end>47500</end>
						<in>79510</in>
						<out>79527</out>
						<file id="file-1" />
						<link>
							<linkclipref>clipitem-691</linkclipref>
							<mediatype>video</mediatype>
							<trackindex>1</trackindex>
							<clipindex>691</clipindex>
						</link>
						<link>
							<linkclipref>clipitem-1726</linkclipref>
							<mediatype>audio</mediatype>
							<trackindex>1</trackindex>
							<clipindex>691</clipindex>
							<groupindex>1</groupindex>
						</link>
					</clipitem>
					<clipitem id="clipitem-692">
						<masterclipid>masterclip-2</masterclipid>
						<name>chandrika rocket equations</name>
						<start>47500</start>
						<end>47522</end>
						<in>79553</in>
						<out>79575</out>
						<file id="file-1" />
						<link>
							<linkclipref>clipitem-692</linkclipref>
							<mediatype>video</mediatype>
							<trackindex>1</trackindex>
							<clipindex>692</clipindex>
						</link>
						<link>
							<linkclipref>clipitem-1727</linkclipref>
							<mediatype>audio</mediatype>
							<trackindex>1</trackindex>
							<clipindex>692</clipindex>
							<groupindex>1</groupindex>
						</link>
					</clipitem>
					<clipitem id="clipitem-693">
						<masterclipid>masterclip-2</masterclipid>
						<name>chandrika rocket equations</name>
						<start>47522</start>
						<end>47566</end>
						<in>79605</in>
						<out>79649</out>
						<file id="file-1" />
						<link>
							<linkclipref>clipitem-693</linkclipref>
							<mediatype>video</mediatype>
							<trackindex>1</trackindex>
							<clipindex>693</clipindex>
						</link>
						<link>
							<linkclipref>clipitem-1728</linkclipref>
							<mediatype>audio</mediatype>
							<trackindex>1</trackindex>
							<clipindex>693</clipindex>
							<groupindex>1</groupindex>
						</link>
					</clipitem>
					<clipitem id="clipitem-694">
						<masterclipid>masterclip-2</masterclipid>
						<name>chandrika rocket equations</name>
						<start>47566</start>
						<end>47795</end>
						<in>79655</in>
						<out>79884</out>
						<file id="file-1" />
						<link>
							<linkclipref>clipitem-694</linkclipref>
							<mediatype>video</mediatype>
							<trackindex>1</trackindex>
							<clipindex>694</clipindex>
						</link>
						<link>
							<linkclipref>clipitem-1729</linkclipref>
							<mediatype>audio</mediatype>
							<trackindex>1</trackindex>
							<clipindex>694</clipindex>
							<groupindex>1</groupindex>
						</link>
					</clipitem>
					<clipitem id="clipitem-695">
						<masterclipid>masterclip-2</masterclipid>
						<name>chandrika rocket equations</name>
						<start>47795</start>
						<end>47815</end>
						<in>79903</in>
						<out>79923</out>
						<file id="file-1" />
						<link>
							<linkclipref>clipitem-695</linkclipref>
							<mediatype>video</mediatype>
							<trackindex>1</trackindex>
							<clipindex>695</clipindex>
						</link>
						<link>
							<linkclipref>clipitem-1730</linkclipref>
							<mediatype>audio</mediatype>
							<trackindex>1</trackindex>
							<clipindex>695</clipindex>
							<groupindex>1</groupindex>
						</link>
					</clipitem>
					<clipitem id="clipitem-696">
						<masterclipid>masterclip-2</masterclipid>
						<name>chandrika rocket equations</name>
						<start>47815</start>
						<end>47861</end>
						<in>80023</in>
						<out>80069</out>
						<file id="file-1" />
						<link>
							<linkclipref>clipitem-696</linkclipref>
							<mediatype>video</mediatype>
							<trackindex>1</trackindex>
							<clipindex>696</clipindex>
						</link>
						<link>
							<linkclipref>clipitem-1731</linkclipref>
							<mediatype>audio</mediatype>
							<trackindex>1</trackindex>
							<clipindex>696</clipindex>
							<groupindex>1</groupindex>
						</link>
					</clipitem>
					<clipitem id="clipitem-697">
						<masterclipid>masterclip-2</masterclipid>
						<name>chandrika rocket equations</name>
						<start>47861</start>
						<end>47943</end>
						<in>80131</in>
						<out>80213</out>
						<file id="file-1" />
						<link>
							<linkclipref>clipitem-697</linkclipref>
							<mediatype>video</mediatype>
							<trackindex>1</trackindex>
							<clipindex>697</clipindex>
						</link>
						<link>
							<linkclipref>clipitem-1732</linkclipref>
							<mediatype>audio</mediatype>
							<trackindex>1</trackindex>
							<clipindex>697</clipindex>
							<groupindex>1</groupindex>
						</link>
					</clipitem>
					<clipitem id="clipitem-698">
						<masterclipid>masterclip-2</masterclipid>
						<name>chandrika rocket equations</name>
						<start>47943</start>
						<end>47971</end>
						<in>80338</in>
						<out>80366</out>
						<file id="file-1" />
						<link>
							<linkclipref>clipitem-698</linkclipref>
							<mediatype>video</mediatype>
							<trackindex>1</trackindex>
							<clipindex>698</clipindex>
						</link>
						<link>
							<linkclipref>clipitem-1733</linkclipref>
							<mediatype>audio</mediatype>
							<trackindex>1</trackindex>
							<clipindex>698</clipindex>
							<groupindex>1</groupindex>
						</link>
					</clipitem>
					<clipitem id="clipitem-699">
						<masterclipid>masterclip-2</masterclipid>
						<name>chandrika rocket equations</name>
						<start>47971</start>
						<end>48011</end>
						<in>80385</in>
						<out>80425</out>
						<file id="file-1" />
						<link>
							<linkclipref>clipitem-699</linkclipref>
							<mediatype>video</mediatype>
							<trackindex>1</trackindex>
							<clipindex>699</clipindex>
						</link>
						<link>
							<linkclipref>clipitem-1734</linkclipref>
							<mediatype>audio</mediatype>
							<trackindex>1</trackindex>
							<clipindex>699</clipindex>
							<groupindex>1</groupindex>
						</link>
					</clipitem>
					<clipitem id="clipitem-700">
						<masterclipid>masterclip-2</masterclipid>
						<name>chandrika rocket equations</name>
						<start>48011</start>
						<end>48067</end>
						<in>80428</in>
						<out>80484</out>
						<file id="file-1" />
						<link>
							<linkclipref>clipitem-700</linkclipref>
							<mediatype>video</mediatype>
							<trackindex>1</trackindex>
							<clipindex>700</clipindex>
						</link>
						<link>
							<linkclipref>clipitem-1735</linkclipref>
							<mediatype>audio</mediatype>
							<trackindex>1</trackindex>
							<clipindex>700</clipindex>
							<groupindex>1</groupindex>
						</link>
					</clipitem>
					<clipitem id="clipitem-701">
						<masterclipid>masterclip-2</masterclipid>
						<name>chandrika rocket equations</name>
						<start>48067</start>
						<end>48118</end>
						<in>80505</in>
						<out>80556</out>
						<file id="file-1" />
						<link>
							<linkclipref>clipitem-701</linkclipref>
							<mediatype>video</mediatype>
							<trackindex>1</trackindex>
							<clipindex>701</clipindex>
						</link>
						<link>
							<linkclipref>clipitem-1736</linkclipref>
							<mediatype>audio</mediatype>
							<trackindex>1</trackindex>
							<clipindex>701</clipindex>
							<groupindex>1</groupindex>
						</link>
					</clipitem>
					<clipitem id="clipitem-702">
						<masterclipid>masterclip-2</masterclipid>
						<name>chandrika rocket equations</name>
						<start>48118</start>
						<end>48161</end>
						<in>80628</in>
						<out>80671</out>
						<file id="file-1" />
						<link>
							<linkclipref>clipitem-702</linkclipref>
							<mediatype>video</mediatype>
							<trackindex>1</trackindex>
							<clipindex>702</clipindex>
						</link>
						<link>
							<linkclipref>clipitem-1737</linkclipref>
							<mediatype>audio</mediatype>
							<trackindex>1</trackindex>
							<clipindex>702</clipindex>
							<groupindex>1</groupindex>
						</link>
					</clipitem>
					<clipitem id="clipitem-703">
						<masterclipid>masterclip-2</masterclipid>
						<name>chandrika rocket equations</name>
						<start>48161</start>
						<end>48236</end>
						<in>80676</in>
						<out>80751</out>
						<file id="file-1" />
						<link>
							<linkclipref>clipitem-703</linkclipref>
							<mediatype>video</mediatype>
							<trackindex>1</trackindex>
							<clipindex>703</clipindex>
						</link>
						<link>
							<linkclipref>clipitem-1738</linkclipref>
							<mediatype>audio</mediatype>
							<trackindex>1</trackindex>
							<clipindex>703</clipindex>
							<groupindex>1</groupindex>
						</link>
					</clipitem>
					<clipitem id="clipitem-704">
						<masterclipid>masterclip-2</masterclipid>
						<name>chandrika rocket equations</name>
						<start>48236</start>
						<end>48285</end>
						<in>80759</in>
						<out>80808</out>
						<file id="file-1" />
						<link>
							<linkclipref>clipitem-704</linkclipref>
							<mediatype>video</mediatype>
							<trackindex>1</trackindex>
							<clipindex>704</clipindex>
						</link>
						<link>
							<linkclipref>clipitem-1739</linkclipref>
							<mediatype>audio</mediatype>
							<trackindex>1</trackindex>
							<clipindex>704</clipindex>
							<groupindex>1</groupindex>
						</link>
					</clipitem>
					<clipitem id="clipitem-705">
						<masterclipid>masterclip-2</masterclipid>
						<name>chandrika rocket equations</name>
						<start>48285</start>
						<end>48337</end>
						<in>80818</in>
						<out>80870</out>
						<file id="file-1" />
						<link>
							<linkclipref>clipitem-705</linkclipref>
							<mediatype>video</mediatype>
							<trackindex>1</trackindex>
							<clipindex>705</clipindex>
						</link>
						<link>
							<linkclipref>clipitem-1740</linkclipref>
							<mediatype>audio</mediatype>
							<trackindex>1</trackindex>
							<clipindex>705</clipindex>
							<groupindex>1</groupindex>
						</link>
					</clipitem>
					<clipitem id="clipitem-706">
						<masterclipid>masterclip-2</masterclipid>
						<name>chandrika rocket equations</name>
						<start>48337</start>
						<end>48380</end>
						<in>80871</in>
						<out>80914</out>
						<file id="file-1" />
						<link>
							<linkclipref>clipitem-706</linkclipref>
							<mediatype>video</mediatype>
							<trackindex>1</trackindex>
							<clipindex>706</clipindex>
						</link>
						<link>
							<linkclipref>clipitem-1741</linkclipref>
							<mediatype>audio</mediatype>
							<trackindex>1</trackindex>
							<clipindex>706</clipindex>
							<groupindex>1</groupindex>
						</link>
					</clipitem>
					<clipitem id="clipitem-707">
						<masterclipid>masterclip-2</masterclipid>
						<name>chandrika rocket equations</name>
						<start>48380</start>
						<end>48397</end>
						<in>80927</in>
						<out>80944</out>
						<file id="file-1" />
						<link>
							<linkclipref>clipitem-707</linkclipref>
							<mediatype>video</mediatype>
							<trackindex>1</trackindex>
							<clipindex>707</clipindex>
						</link>
						<link>
							<linkclipref>clipitem-1742</linkclipref>
							<mediatype>audio</mediatype>
							<trackindex>1</trackindex>
							<clipindex>707</clipindex>
							<groupindex>1</groupindex>
						</link>
					</clipitem>
					<clipitem id="clipitem-708">
						<masterclipid>masterclip-2</masterclipid>
						<name>chandrika rocket equations</name>
						<start>48397</start>
						<end>48451</end>
						<in>80968</in>
						<out>81022</out>
						<file id="file-1" />
						<link>
							<linkclipref>clipitem-708</linkclipref>
							<mediatype>video</mediatype>
							<trackindex>1</trackindex>
							<clipindex>708</clipindex>
						</link>
						<link>
							<linkclipref>clipitem-1743</linkclipref>
							<mediatype>audio</mediatype>
							<trackindex>1</trackindex>
							<clipindex>708</clipindex>
							<groupindex>1</groupindex>
						</link>
					</clipitem>
					<clipitem id="clipitem-709">
						<masterclipid>masterclip-2</masterclipid>
						<name>chandrika rocket equations</name>
						<start>48451</start>
						<end>48599</end>
						<in>81045</in>
						<out>81193</out>
						<file id="file-1" />
						<link>
							<linkclipref>clipitem-709</linkclipref>
							<mediatype>video</mediatype>
							<trackindex>1</trackindex>
							<clipindex>709</clipindex>
						</link>
						<link>
							<linkclipref>clipitem-1744</linkclipref>
							<mediatype>audio</mediatype>
							<trackindex>1</trackindex>
							<clipindex>709</clipindex>
							<groupindex>1</groupindex>
						</link>
					</clipitem>
					<clipitem id="clipitem-710">
						<masterclipid>masterclip-2</masterclipid>
						<name>chandrika rocket equations</name>
						<start>48599</start>
						<end>48647</end>
						<in>81246</in>
						<out>81294</out>
						<file id="file-1" />
						<link>
							<linkclipref>clipitem-710</linkclipref>
							<mediatype>video</mediatype>
							<trackindex>1</trackindex>
							<clipindex>710</clipindex>
						</link>
						<link>
							<linkclipref>clipitem-1745</linkclipref>
							<mediatype>audio</mediatype>
							<trackindex>1</trackindex>
							<clipindex>710</clipindex>
							<groupindex>1</groupindex>
						</link>
					</clipitem>
					<clipitem id="clipitem-711">
						<masterclipid>masterclip-2</masterclipid>
						<name>chandrika rocket equations</name>
						<start>48647</start>
						<end>48726</end>
						<in>81301</in>
						<out>81380</out>
						<file id="file-1" />
						<link>
							<linkclipref>clipitem-711</linkclipref>
							<mediatype>video</mediatype>
							<trackindex>1</trackindex>
							<clipindex>711</clipindex>
						</link>
						<link>
							<linkclipref>clipitem-1746</linkclipref>
							<mediatype>audio</mediatype>
							<trackindex>1</trackindex>
							<clipindex>711</clipindex>
							<groupindex>1</groupindex>
						</link>
					</clipitem>
					<clipitem id="clipitem-712">
						<masterclipid>masterclip-2</masterclipid>
						<name>chandrika rocket equations</name>
						<start>48726</start>
						<end>48796</end>
						<in>81391</in>
						<out>81461</out>
						<file id="file-1" />
						<link>
							<linkclipref>clipitem-712</linkclipref>
							<mediatype>video</mediatype>
							<trackindex>1</trackindex>
							<clipindex>712</clipindex>
						</link>
						<link>
							<linkclipref>clipitem-1747</linkclipref>
							<mediatype>audio</mediatype>
							<trackindex>1</trackindex>
							<clipindex>712</clipindex>
							<groupindex>1</groupindex>
						</link>
					</clipitem>
					<clipitem id="clipitem-713">
						<masterclipid>masterclip-2</masterclipid>
						<name>chandrika rocket equations</name>
						<start>48796</start>
						<end>48849</end>
						<in>81510</in>
						<out>81563</out>
						<file id="file-1" />
						<link>
							<linkclipref>clipitem-713</linkclipref>
							<mediatype>video</mediatype>
							<trackindex>1</trackindex>
							<clipindex>713</clipindex>
						</link>
						<link>
							<linkclipref>clipitem-1748</linkclipref>
							<mediatype>audio</mediatype>
							<trackindex>1</trackindex>
							<clipindex>713</clipindex>
							<groupindex>1</groupindex>
						</link>
					</clipitem>
					<clipitem id="clipitem-714">
						<masterclipid>masterclip-2</masterclipid>
						<name>chandrika rocket equations</name>
						<start>48849</start>
						<end>48894</end>
						<in>81571</in>
						<out>81616</out>
						<file id="file-1" />
						<link>
							<linkclipref>clipitem-714</linkclipref>
							<mediatype>video</mediatype>
							<trackindex>1</trackindex>
							<clipindex>714</clipindex>
						</link>
						<link>
							<linkclipref>clipitem-1749</linkclipref>
							<mediatype>audio</mediatype>
							<trackindex>1</trackindex>
							<clipindex>714</clipindex>
							<groupindex>1</groupindex>
						</link>
					</clipitem>
					<clipitem id="clipitem-715">
						<masterclipid>masterclip-2</masterclipid>
						<name>chandrika rocket equations</name>
						<start>48894</start>
						<end>48946</end>
						<in>81649</in>
						<out>81701</out>
						<file id="file-1" />
						<link>
							<linkclipref>clipitem-715</linkclipref>
							<mediatype>video</mediatype>
							<trackindex>1</trackindex>
							<clipindex>715</clipindex>
						</link>
						<link>
							<linkclipref>clipitem-1750</linkclipref>
							<mediatype>audio</mediatype>
							<trackindex>1</trackindex>
							<clipindex>715</clipindex>
							<groupindex>1</groupindex>
						</link>
					</clipitem>
					<clipitem id="clipitem-716">
						<masterclipid>masterclip-2</masterclipid>
						<name>chandrika rocket equations</name>
						<start>48946</start>
						<end>49062</end>
						<in>81710</in>
						<out>81826</out>
						<file id="file-1" />
						<link>
							<linkclipref>clipitem-716</linkclipref>
							<mediatype>video</mediatype>
							<trackindex>1</trackindex>
							<clipindex>716</clipindex>
						</link>
						<link>
							<linkclipref>clipitem-1751</linkclipref>
							<mediatype>audio</mediatype>
							<trackindex>1</trackindex>
							<clipindex>716</clipindex>
							<groupindex>1</groupindex>
						</link>
					</clipitem>
					<clipitem id="clipitem-717">
						<masterclipid>masterclip-2</masterclipid>
						<name>chandrika rocket equations</name>
						<start>49062</start>
						<end>49289</end>
						<in>81841</in>
						<out>82068</out>
						<file id="file-1" />
						<link>
							<linkclipref>clipitem-717</linkclipref>
							<mediatype>video</mediatype>
							<trackindex>1</trackindex>
							<clipindex>717</clipindex>
						</link>
						<link>
							<linkclipref>clipitem-1752</linkclipref>
							<mediatype>audio</mediatype>
							<trackindex>1</trackindex>
							<clipindex>717</clipindex>
							<groupindex>1</groupindex>
						</link>
					</clipitem>
					<clipitem id="clipitem-718">
						<masterclipid>masterclip-2</masterclipid>
						<name>chandrika rocket equations</name>
						<start>49289</start>
						<end>49305</end>
						<in>82073</in>
						<out>82089</out>
						<file id="file-1" />
						<link>
							<linkclipref>clipitem-718</linkclipref>
							<mediatype>video</mediatype>
							<trackindex>1</trackindex>
							<clipindex>718</clipindex>
						</link>
						<link>
							<linkclipref>clipitem-1753</linkclipref>
							<mediatype>audio</mediatype>
							<trackindex>1</trackindex>
							<clipindex>718</clipindex>
							<groupindex>1</groupindex>
						</link>
					</clipitem>
					<clipitem id="clipitem-719">
						<masterclipid>masterclip-2</masterclipid>
						<name>chandrika rocket equations</name>
						<start>49305</start>
						<end>49321</end>
						<in>82094</in>
						<out>82110</out>
						<file id="file-1" />
						<link>
							<linkclipref>clipitem-719</linkclipref>
							<mediatype>video</mediatype>
							<trackindex>1</trackindex>
							<clipindex>719</clipindex>
						</link>
						<link>
							<linkclipref>clipitem-1754</linkclipref>
							<mediatype>audio</mediatype>
							<trackindex>1</trackindex>
							<clipindex>719</clipindex>
							<groupindex>1</groupindex>
						</link>
					</clipitem>
					<clipitem id="clipitem-720">
						<masterclipid>masterclip-2</masterclipid>
						<name>chandrika rocket equations</name>
						<start>49321</start>
						<end>49362</end>
						<in>82120</in>
						<out>82161</out>
						<file id="file-1" />
						<link>
							<linkclipref>clipitem-720</linkclipref>
							<mediatype>video</mediatype>
							<trackindex>1</trackindex>
							<clipindex>720</clipindex>
						</link>
						<link>
							<linkclipref>clipitem-1755</linkclipref>
							<mediatype>audio</mediatype>
							<trackindex>1</trackindex>
							<clipindex>720</clipindex>
							<groupindex>1</groupindex>
						</link>
					</clipitem>
					<clipitem id="clipitem-721">
						<masterclipid>masterclip-2</masterclipid>
						<name>chandrika rocket equations</name>
						<start>49362</start>
						<end>49415</end>
						<in>82164</in>
						<out>82217</out>
						<file id="file-1" />
						<link>
							<linkclipref>clipitem-721</linkclipref>
							<mediatype>video</mediatype>
							<trackindex>1</trackindex>
							<clipindex>721</clipindex>
						</link>
						<link>
							<linkclipref>clipitem-1756</linkclipref>
							<mediatype>audio</mediatype>
							<trackindex>1</trackindex>
							<clipindex>721</clipindex>
							<groupindex>1</groupindex>
						</link>
					</clipitem>
					<clipitem id="clipitem-722">
						<masterclipid>masterclip-2</masterclipid>
						<name>chandrika rocket equations</name>
						<start>49415</start>
						<end>49450</end>
						<in>82237</in>
						<out>82272</out>
						<file id="file-1" />
						<link>
							<linkclipref>clipitem-722</linkclipref>
							<mediatype>video</mediatype>
							<trackindex>1</trackindex>
							<clipindex>722</clipindex>
						</link>
						<link>
							<linkclipref>clipitem-1757</linkclipref>
							<mediatype>audio</mediatype>
							<trackindex>1</trackindex>
							<clipindex>722</clipindex>
							<groupindex>1</groupindex>
						</link>
					</clipitem>
					<clipitem id="clipitem-723">
						<masterclipid>masterclip-2</masterclipid>
						<name>chandrika rocket equations</name>
						<start>49450</start>
						<end>49488</end>
						<in>82283</in>
						<out>82321</out>
						<file id="file-1" />
						<link>
							<linkclipref>clipitem-723</linkclipref>
							<mediatype>video</mediatype>
							<trackindex>1</trackindex>
							<clipindex>723</clipindex>
						</link>
						<link>
							<linkclipref>clipitem-1758</linkclipref>
							<mediatype>audio</mediatype>
							<trackindex>1</trackindex>
							<clipindex>723</clipindex>
							<groupindex>1</groupindex>
						</link>
					</clipitem>
					<clipitem id="clipitem-724">
						<masterclipid>masterclip-2</masterclipid>
						<name>chandrika rocket equations</name>
						<start>49488</start>
						<end>49512</end>
						<in>82323</in>
						<out>82347</out>
						<file id="file-1" />
						<link>
							<linkclipref>clipitem-724</linkclipref>
							<mediatype>video</mediatype>
							<trackindex>1</trackindex>
							<clipindex>724</clipindex>
						</link>
						<link>
							<linkclipref>clipitem-1759</linkclipref>
							<mediatype>audio</mediatype>
							<trackindex>1</trackindex>
							<clipindex>724</clipindex>
							<groupindex>1</groupindex>
						</link>
					</clipitem>
					<clipitem id="clipitem-725">
						<masterclipid>masterclip-2</masterclipid>
						<name>chandrika rocket equations</name>
						<start>49512</start>
						<end>49544</end>
						<in>82349</in>
						<out>82381</out>
						<file id="file-1" />
						<link>
							<linkclipref>clipitem-725</linkclipref>
							<mediatype>video</mediatype>
							<trackindex>1</trackindex>
							<clipindex>725</clipindex>
						</link>
						<link>
							<linkclipref>clipitem-1760</linkclipref>
							<mediatype>audio</mediatype>
							<trackindex>1</trackindex>
							<clipindex>725</clipindex>
							<groupindex>1</groupindex>
						</link>
					</clipitem>
					<clipitem id="clipitem-726">
						<masterclipid>masterclip-2</masterclipid>
						<name>chandrika rocket equations</name>
						<start>49544</start>
						<end>49636</end>
						<in>82389</in>
						<out>82481</out>
						<file id="file-1" />
						<link>
							<linkclipref>clipitem-726</linkclipref>
							<mediatype>video</mediatype>
							<trackindex>1</trackindex>
							<clipindex>726</clipindex>
						</link>
						<link>
							<linkclipref>clipitem-1761</linkclipref>
							<mediatype>audio</mediatype>
							<trackindex>1</trackindex>
							<clipindex>726</clipindex>
							<groupindex>1</groupindex>
						</link>
					</clipitem>
					<clipitem id="clipitem-727">
						<masterclipid>masterclip-2</masterclipid>
						<name>chandrika rocket equations</name>
						<start>49636</start>
						<end>49698</end>
						<in>82486</in>
						<out>82548</out>
						<file id="file-1" />
						<link>
							<linkclipref>clipitem-727</linkclipref>
							<mediatype>video</mediatype>
							<trackindex>1</trackindex>
							<clipindex>727</clipindex>
						</link>
						<link>
							<linkclipref>clipitem-1762</linkclipref>
							<mediatype>audio</mediatype>
							<trackindex>1</trackindex>
							<clipindex>727</clipindex>
							<groupindex>1</groupindex>
						</link>
					</clipitem>
					<clipitem id="clipitem-728">
						<masterclipid>masterclip-2</masterclipid>
						<name>chandrika rocket equations</name>
						<start>49698</start>
						<end>49721</end>
						<in>82555</in>
						<out>82578</out>
						<file id="file-1" />
						<link>
							<linkclipref>clipitem-728</linkclipref>
							<mediatype>video</mediatype>
							<trackindex>1</trackindex>
							<clipindex>728</clipindex>
						</link>
						<link>
							<linkclipref>clipitem-1763</linkclipref>
							<mediatype>audio</mediatype>
							<trackindex>1</trackindex>
							<clipindex>728</clipindex>
							<groupindex>1</groupindex>
						</link>
					</clipitem>
					<clipitem id="clipitem-729">
						<masterclipid>masterclip-2</masterclipid>
						<name>chandrika rocket equations</name>
						<start>49721</start>
						<end>49763</end>
						<in>82648</in>
						<out>82690</out>
						<file id="file-1" />
						<link>
							<linkclipref>clipitem-729</linkclipref>
							<mediatype>video</mediatype>
							<trackindex>1</trackindex>
							<clipindex>729</clipindex>
						</link>
						<link>
							<linkclipref>clipitem-1764</linkclipref>
							<mediatype>audio</mediatype>
							<trackindex>1</trackindex>
							<clipindex>729</clipindex>
							<groupindex>1</groupindex>
						</link>
					</clipitem>
					<clipitem id="clipitem-730">
						<masterclipid>masterclip-2</masterclipid>
						<name>chandrika rocket equations</name>
						<start>49763</start>
						<end>49816</end>
						<in>82731</in>
						<out>82784</out>
						<file id="file-1" />
						<link>
							<linkclipref>clipitem-730</linkclipref>
							<mediatype>video</mediatype>
							<trackindex>1</trackindex>
							<clipindex>730</clipindex>
						</link>
						<link>
							<linkclipref>clipitem-1765</linkclipref>
							<mediatype>audio</mediatype>
							<trackindex>1</trackindex>
							<clipindex>730</clipindex>
							<groupindex>1</groupindex>
						</link>
					</clipitem>
					<clipitem id="clipitem-731">
						<masterclipid>masterclip-2</masterclipid>
						<name>chandrika rocket equations</name>
						<start>49816</start>
						<end>49839</end>
						<in>82797</in>
						<out>82820</out>
						<file id="file-1" />
						<link>
							<linkclipref>clipitem-731</linkclipref>
							<mediatype>video</mediatype>
							<trackindex>1</trackindex>
							<clipindex>731</clipindex>
						</link>
						<link>
							<linkclipref>clipitem-1766</linkclipref>
							<mediatype>audio</mediatype>
							<trackindex>1</trackindex>
							<clipindex>731</clipindex>
							<groupindex>1</groupindex>
						</link>
					</clipitem>
					<clipitem id="clipitem-732">
						<masterclipid>masterclip-2</masterclipid>
						<name>chandrika rocket equations</name>
						<start>49839</start>
						<end>49860</end>
						<in>82828</in>
						<out>82849</out>
						<file id="file-1" />
						<link>
							<linkclipref>clipitem-732</linkclipref>
							<mediatype>video</mediatype>
							<trackindex>1</trackindex>
							<clipindex>732</clipindex>
						</link>
						<link>
							<linkclipref>clipitem-1767</linkclipref>
							<mediatype>audio</mediatype>
							<trackindex>1</trackindex>
							<clipindex>732</clipindex>
							<groupindex>1</groupindex>
						</link>
					</clipitem>
					<clipitem id="clipitem-733">
						<masterclipid>masterclip-2</masterclipid>
						<name>chandrika rocket equations</name>
						<start>49860</start>
						<end>49927</end>
						<in>82866</in>
						<out>82933</out>
						<file id="file-1" />
						<link>
							<linkclipref>clipitem-733</linkclipref>
							<mediatype>video</mediatype>
							<trackindex>1</trackindex>
							<clipindex>733</clipindex>
						</link>
						<link>
							<linkclipref>clipitem-1768</linkclipref>
							<mediatype>audio</mediatype>
							<trackindex>1</trackindex>
							<clipindex>733</clipindex>
							<groupindex>1</groupindex>
						</link>
					</clipitem>
					<clipitem id="clipitem-734">
						<masterclipid>masterclip-2</masterclipid>
						<name>chandrika rocket equations</name>
						<start>49927</start>
						<end>49969</end>
						<in>83040</in>
						<out>83082</out>
						<file id="file-1" />
						<link>
							<linkclipref>clipitem-734</linkclipref>
							<mediatype>video</mediatype>
							<trackindex>1</trackindex>
							<clipindex>734</clipindex>
						</link>
						<link>
							<linkclipref>clipitem-1769</linkclipref>
							<mediatype>audio</mediatype>
							<trackindex>1</trackindex>
							<clipindex>734</clipindex>
							<groupindex>1</groupindex>
						</link>
					</clipitem>
					<clipitem id="clipitem-735">
						<masterclipid>masterclip-2</masterclipid>
						<name>chandrika rocket equations</name>
						<start>49969</start>
						<end>50059</end>
						<in>83143</in>
						<out>83233</out>
						<file id="file-1" />
						<link>
							<linkclipref>clipitem-735</linkclipref>
							<mediatype>video</mediatype>
							<trackindex>1</trackindex>
							<clipindex>735</clipindex>
						</link>
						<link>
							<linkclipref>clipitem-1770</linkclipref>
							<mediatype>audio</mediatype>
							<trackindex>1</trackindex>
							<clipindex>735</clipindex>
							<groupindex>1</groupindex>
						</link>
					</clipitem>
					<clipitem id="clipitem-736">
						<masterclipid>masterclip-2</masterclipid>
						<name>chandrika rocket equations</name>
						<start>50059</start>
						<end>50167</end>
						<in>83262</in>
						<out>83370</out>
						<file id="file-1" />
						<link>
							<linkclipref>clipitem-736</linkclipref>
							<mediatype>video</mediatype>
							<trackindex>1</trackindex>
							<clipindex>736</clipindex>
						</link>
						<link>
							<linkclipref>clipitem-1771</linkclipref>
							<mediatype>audio</mediatype>
							<trackindex>1</trackindex>
							<clipindex>736</clipindex>
							<groupindex>1</groupindex>
						</link>
					</clipitem>
					<clipitem id="clipitem-737">
						<masterclipid>masterclip-2</masterclipid>
						<name>chandrika rocket equations</name>
						<start>50167</start>
						<end>50234</end>
						<in>83406</in>
						<out>83473</out>
						<file id="file-1" />
						<link>
							<linkclipref>clipitem-737</linkclipref>
							<mediatype>video</mediatype>
							<trackindex>1</trackindex>
							<clipindex>737</clipindex>
						</link>
						<link>
							<linkclipref>clipitem-1772</linkclipref>
							<mediatype>audio</mediatype>
							<trackindex>1</trackindex>
							<clipindex>737</clipindex>
							<groupindex>1</groupindex>
						</link>
					</clipitem>
					<clipitem id="clipitem-738">
						<masterclipid>masterclip-2</masterclipid>
						<name>chandrika rocket equations</name>
						<start>50234</start>
						<end>50252</end>
						<in>83540</in>
						<out>83558</out>
						<file id="file-1" />
						<link>
							<linkclipref>clipitem-738</linkclipref>
							<mediatype>video</mediatype>
							<trackindex>1</trackindex>
							<clipindex>738</clipindex>
						</link>
						<link>
							<linkclipref>clipitem-1773</linkclipref>
							<mediatype>audio</mediatype>
							<trackindex>1</trackindex>
							<clipindex>738</clipindex>
							<groupindex>1</groupindex>
						</link>
					</clipitem>
					<clipitem id="clipitem-739">
						<masterclipid>masterclip-2</masterclipid>
						<name>chandrika rocket equations</name>
						<start>50252</start>
						<end>50288</end>
						<in>83606</in>
						<out>83642</out>
						<file id="file-1" />
						<link>
							<linkclipref>clipitem-739</linkclipref>
							<mediatype>video</mediatype>
							<trackindex>1</trackindex>
							<clipindex>739</clipindex>
						</link>
						<link>
							<linkclipref>clipitem-1774</linkclipref>
							<mediatype>audio</mediatype>
							<trackindex>1</trackindex>
							<clipindex>739</clipindex>
							<groupindex>1</groupindex>
						</link>
					</clipitem>
					<clipitem id="clipitem-740">
						<masterclipid>masterclip-2</masterclipid>
						<name>chandrika rocket equations</name>
						<start>50288</start>
						<end>50305</end>
						<in>83665</in>
						<out>83682</out>
						<file id="file-1" />
						<link>
							<linkclipref>clipitem-740</linkclipref>
							<mediatype>video</mediatype>
							<trackindex>1</trackindex>
							<clipindex>740</clipindex>
						</link>
						<link>
							<linkclipref>clipitem-1775</linkclipref>
							<mediatype>audio</mediatype>
							<trackindex>1</trackindex>
							<clipindex>740</clipindex>
							<groupindex>1</groupindex>
						</link>
					</clipitem>
					<clipitem id="clipitem-741">
						<masterclipid>masterclip-2</masterclipid>
						<name>chandrika rocket equations</name>
						<start>50305</start>
						<end>50358</end>
						<in>83704</in>
						<out>83757</out>
						<file id="file-1" />
						<link>
							<linkclipref>clipitem-741</linkclipref>
							<mediatype>video</mediatype>
							<trackindex>1</trackindex>
							<clipindex>741</clipindex>
						</link>
						<link>
							<linkclipref>clipitem-1776</linkclipref>
							<mediatype>audio</mediatype>
							<trackindex>1</trackindex>
							<clipindex>741</clipindex>
							<groupindex>1</groupindex>
						</link>
					</clipitem>
					<clipitem id="clipitem-742">
						<masterclipid>masterclip-2</masterclipid>
						<name>chandrika rocket equations</name>
						<start>50358</start>
						<end>50399</end>
						<in>83928</in>
						<out>83969</out>
						<file id="file-1" />
						<link>
							<linkclipref>clipitem-742</linkclipref>
							<mediatype>video</mediatype>
							<trackindex>1</trackindex>
							<clipindex>742</clipindex>
						</link>
						<link>
							<linkclipref>clipitem-1777</linkclipref>
							<mediatype>audio</mediatype>
							<trackindex>1</trackindex>
							<clipindex>742</clipindex>
							<groupindex>1</groupindex>
						</link>
					</clipitem>
					<clipitem id="clipitem-743">
						<masterclipid>masterclip-2</masterclipid>
						<name>chandrika rocket equations</name>
						<start>50399</start>
						<end>50419</end>
						<in>83975</in>
						<out>83995</out>
						<file id="file-1" />
						<link>
							<linkclipref>clipitem-743</linkclipref>
							<mediatype>video</mediatype>
							<trackindex>1</trackindex>
							<clipindex>743</clipindex>
						</link>
						<link>
							<linkclipref>clipitem-1778</linkclipref>
							<mediatype>audio</mediatype>
							<trackindex>1</trackindex>
							<clipindex>743</clipindex>
							<groupindex>1</groupindex>
						</link>
					</clipitem>
					<clipitem id="clipitem-744">
						<masterclipid>masterclip-2</masterclipid>
						<name>chandrika rocket equations</name>
						<start>50419</start>
						<end>50545</end>
						<in>83998</in>
						<out>84124</out>
						<file id="file-1" />
						<link>
							<linkclipref>clipitem-744</linkclipref>
							<mediatype>video</mediatype>
							<trackindex>1</trackindex>
							<clipindex>744</clipindex>
						</link>
						<link>
							<linkclipref>clipitem-1779</linkclipref>
							<mediatype>audio</mediatype>
							<trackindex>1</trackindex>
							<clipindex>744</clipindex>
							<groupindex>1</groupindex>
						</link>
					</clipitem>
					<clipitem id="clipitem-745">
						<masterclipid>masterclip-2</masterclipid>
						<name>chandrika rocket equations</name>
						<start>50545</start>
						<end>50626</end>
						<in>84126</in>
						<out>84207</out>
						<file id="file-1" />
						<link>
							<linkclipref>clipitem-745</linkclipref>
							<mediatype>video</mediatype>
							<trackindex>1</trackindex>
							<clipindex>745</clipindex>
						</link>
						<link>
							<linkclipref>clipitem-1780</linkclipref>
							<mediatype>audio</mediatype>
							<trackindex>1</trackindex>
							<clipindex>745</clipindex>
							<groupindex>1</groupindex>
						</link>
					</clipitem>
					<clipitem id="clipitem-746">
						<masterclipid>masterclip-2</masterclipid>
						<name>chandrika rocket equations</name>
						<start>50626</start>
						<end>50646</end>
						<in>84253</in>
						<out>84273</out>
						<file id="file-1" />
						<link>
							<linkclipref>clipitem-746</linkclipref>
							<mediatype>video</mediatype>
							<trackindex>1</trackindex>
							<clipindex>746</clipindex>
						</link>
						<link>
							<linkclipref>clipitem-1781</linkclipref>
							<mediatype>audio</mediatype>
							<trackindex>1</trackindex>
							<clipindex>746</clipindex>
							<groupindex>1</groupindex>
						</link>
					</clipitem>
					<clipitem id="clipitem-747">
						<masterclipid>masterclip-2</masterclipid>
						<name>chandrika rocket equations</name>
						<start>50646</start>
						<end>50772</end>
						<in>84282</in>
						<out>84408</out>
						<file id="file-1" />
						<link>
							<linkclipref>clipitem-747</linkclipref>
							<mediatype>video</mediatype>
							<trackindex>1</trackindex>
							<clipindex>747</clipindex>
						</link>
						<link>
							<linkclipref>clipitem-1782</linkclipref>
							<mediatype>audio</mediatype>
							<trackindex>1</trackindex>
							<clipindex>747</clipindex>
							<groupindex>1</groupindex>
						</link>
					</clipitem>
					<clipitem id="clipitem-748">
						<masterclipid>masterclip-2</masterclipid>
						<name>chandrika rocket equations</name>
						<start>50772</start>
						<end>50805</end>
						<in>84439</in>
						<out>84472</out>
						<file id="file-1" />
						<link>
							<linkclipref>clipitem-748</linkclipref>
							<mediatype>video</mediatype>
							<trackindex>1</trackindex>
							<clipindex>748</clipindex>
						</link>
						<link>
							<linkclipref>clipitem-1783</linkclipref>
							<mediatype>audio</mediatype>
							<trackindex>1</trackindex>
							<clipindex>748</clipindex>
							<groupindex>1</groupindex>
						</link>
					</clipitem>
					<clipitem id="clipitem-749">
						<masterclipid>masterclip-2</masterclipid>
						<name>chandrika rocket equations</name>
						<start>50805</start>
						<end>50870</end>
						<in>84509</in>
						<out>84574</out>
						<file id="file-1" />
						<link>
							<linkclipref>clipitem-749</linkclipref>
							<mediatype>video</mediatype>
							<trackindex>1</trackindex>
							<clipindex>749</clipindex>
						</link>
						<link>
							<linkclipref>clipitem-1784</linkclipref>
							<mediatype>audio</mediatype>
							<trackindex>1</trackindex>
							<clipindex>749</clipindex>
							<groupindex>1</groupindex>
						</link>
					</clipitem>
					<clipitem id="clipitem-750">
						<masterclipid>masterclip-2</masterclipid>
						<name>chandrika rocket equations</name>
						<start>50870</start>
						<end>50911</end>
						<in>84711</in>
						<out>84752</out>
						<file id="file-1" />
						<link>
							<linkclipref>clipitem-750</linkclipref>
							<mediatype>video</mediatype>
							<trackindex>1</trackindex>
							<clipindex>750</clipindex>
						</link>
						<link>
							<linkclipref>clipitem-1785</linkclipref>
							<mediatype>audio</mediatype>
							<trackindex>1</trackindex>
							<clipindex>750</clipindex>
							<groupindex>1</groupindex>
						</link>
					</clipitem>
					<clipitem id="clipitem-751">
						<masterclipid>masterclip-2</masterclipid>
						<name>chandrika rocket equations</name>
						<start>50911</start>
						<end>50938</end>
						<in>84768</in>
						<out>84795</out>
						<file id="file-1" />
						<link>
							<linkclipref>clipitem-751</linkclipref>
							<mediatype>video</mediatype>
							<trackindex>1</trackindex>
							<clipindex>751</clipindex>
						</link>
						<link>
							<linkclipref>clipitem-1786</linkclipref>
							<mediatype>audio</mediatype>
							<trackindex>1</trackindex>
							<clipindex>751</clipindex>
							<groupindex>1</groupindex>
						</link>
					</clipitem>
					<clipitem id="clipitem-752">
						<masterclipid>masterclip-2</masterclipid>
						<name>chandrika rocket equations</name>
						<start>50938</start>
						<end>51042</end>
						<in>84912</in>
						<out>85016</out>
						<file id="file-1" />
						<link>
							<linkclipref>clipitem-752</linkclipref>
							<mediatype>video</mediatype>
							<trackindex>1</trackindex>
							<clipindex>752</clipindex>
						</link>
						<link>
							<linkclipref>clipitem-1787</linkclipref>
							<mediatype>audio</mediatype>
							<trackindex>1</trackindex>
							<clipindex>752</clipindex>
							<groupindex>1</groupindex>
						</link>
					</clipitem>
					<clipitem id="clipitem-753">
						<masterclipid>masterclip-2</masterclipid>
						<name>chandrika rocket equations</name>
						<start>51042</start>
						<end>51106</end>
						<in>85189</in>
						<out>85253</out>
						<file id="file-1" />
						<link>
							<linkclipref>clipitem-753</linkclipref>
							<mediatype>video</mediatype>
							<trackindex>1</trackindex>
							<clipindex>753</clipindex>
						</link>
						<link>
							<linkclipref>clipitem-1788</linkclipref>
							<mediatype>audio</mediatype>
							<trackindex>1</trackindex>
							<clipindex>753</clipindex>
							<groupindex>1</groupindex>
						</link>
					</clipitem>
					<clipitem id="clipitem-754">
						<masterclipid>masterclip-2</masterclipid>
						<name>chandrika rocket equations</name>
						<start>51106</start>
						<end>51128</end>
						<in>85276</in>
						<out>85298</out>
						<file id="file-1" />
						<link>
							<linkclipref>clipitem-754</linkclipref>
							<mediatype>video</mediatype>
							<trackindex>1</trackindex>
							<clipindex>754</clipindex>
						</link>
						<link>
							<linkclipref>clipitem-1789</linkclipref>
							<mediatype>audio</mediatype>
							<trackindex>1</trackindex>
							<clipindex>754</clipindex>
							<groupindex>1</groupindex>
						</link>
					</clipitem>
					<clipitem id="clipitem-755">
						<masterclipid>masterclip-2</masterclipid>
						<name>chandrika rocket equations</name>
						<start>51128</start>
						<end>51199</end>
						<in>85299</in>
						<out>85370</out>
						<file id="file-1" />
						<link>
							<linkclipref>clipitem-755</linkclipref>
							<mediatype>video</mediatype>
							<trackindex>1</trackindex>
							<clipindex>755</clipindex>
						</link>
						<link>
							<linkclipref>clipitem-1790</linkclipref>
							<mediatype>audio</mediatype>
							<trackindex>1</trackindex>
							<clipindex>755</clipindex>
							<groupindex>1</groupindex>
						</link>
					</clipitem>
					<clipitem id="clipitem-756">
						<masterclipid>masterclip-2</masterclipid>
						<name>chandrika rocket equations</name>
						<start>51199</start>
						<end>51248</end>
						<in>85380</in>
						<out>85429</out>
						<file id="file-1" />
						<link>
							<linkclipref>clipitem-756</linkclipref>
							<mediatype>video</mediatype>
							<trackindex>1</trackindex>
							<clipindex>756</clipindex>
						</link>
						<link>
							<linkclipref>clipitem-1791</linkclipref>
							<mediatype>audio</mediatype>
							<trackindex>1</trackindex>
							<clipindex>756</clipindex>
							<groupindex>1</groupindex>
						</link>
					</clipitem>
					<clipitem id="clipitem-757">
						<masterclipid>masterclip-2</masterclipid>
						<name>chandrika rocket equations</name>
						<start>51248</start>
						<end>51338</end>
						<in>85443</in>
						<out>85533</out>
						<file id="file-1" />
						<link>
							<linkclipref>clipitem-757</linkclipref>
							<mediatype>video</mediatype>
							<trackindex>1</trackindex>
							<clipindex>757</clipindex>
						</link>
						<link>
							<linkclipref>clipitem-1792</linkclipref>
							<mediatype>audio</mediatype>
							<trackindex>1</trackindex>
							<clipindex>757</clipindex>
							<groupindex>1</groupindex>
						</link>
					</clipitem>
					<clipitem id="clipitem-758">
						<masterclipid>masterclip-2</masterclipid>
						<name>chandrika rocket equations</name>
						<start>51338</start>
						<end>51385</end>
						<in>85710</in>
						<out>85757</out>
						<file id="file-1" />
						<link>
							<linkclipref>clipitem-758</linkclipref>
							<mediatype>video</mediatype>
							<trackindex>1</trackindex>
							<clipindex>758</clipindex>
						</link>
						<link>
							<linkclipref>clipitem-1793</linkclipref>
							<mediatype>audio</mediatype>
							<trackindex>1</trackindex>
							<clipindex>758</clipindex>
							<groupindex>1</groupindex>
						</link>
					</clipitem>
					<clipitem id="clipitem-759">
						<masterclipid>masterclip-2</masterclipid>
						<name>chandrika rocket equations</name>
						<start>51385</start>
						<end>51463</end>
						<in>85779</in>
						<out>85857</out>
						<file id="file-1" />
						<link>
							<linkclipref>clipitem-759</linkclipref>
							<mediatype>video</mediatype>
							<trackindex>1</trackindex>
							<clipindex>759</clipindex>
						</link>
						<link>
							<linkclipref>clipitem-1794</linkclipref>
							<mediatype>audio</mediatype>
							<trackindex>1</trackindex>
							<clipindex>759</clipindex>
							<groupindex>1</groupindex>
						</link>
					</clipitem>
					<clipitem id="clipitem-760">
						<masterclipid>masterclip-2</masterclipid>
						<name>chandrika rocket equations</name>
						<start>51463</start>
						<end>51513</end>
						<in>86130</in>
						<out>86180</out>
						<file id="file-1" />
						<link>
							<linkclipref>clipitem-760</linkclipref>
							<mediatype>video</mediatype>
							<trackindex>1</trackindex>
							<clipindex>760</clipindex>
						</link>
						<link>
							<linkclipref>clipitem-1795</linkclipref>
							<mediatype>audio</mediatype>
							<trackindex>1</trackindex>
							<clipindex>760</clipindex>
							<groupindex>1</groupindex>
						</link>
					</clipitem>
					<clipitem id="clipitem-761">
						<masterclipid>masterclip-2</masterclipid>
						<name>chandrika rocket equations</name>
						<start>51513</start>
						<end>51549</end>
						<in>86322</in>
						<out>86358</out>
						<file id="file-1" />
						<link>
							<linkclipref>clipitem-761</linkclipref>
							<mediatype>video</mediatype>
							<trackindex>1</trackindex>
							<clipindex>761</clipindex>
						</link>
						<link>
							<linkclipref>clipitem-1796</linkclipref>
							<mediatype>audio</mediatype>
							<trackindex>1</trackindex>
							<clipindex>761</clipindex>
							<groupindex>1</groupindex>
						</link>
					</clipitem>
					<clipitem id="clipitem-762">
						<masterclipid>masterclip-2</masterclipid>
						<name>chandrika rocket equations</name>
						<start>51549</start>
						<end>51640</end>
						<in>86375</in>
						<out>86466</out>
						<file id="file-1" />
						<link>
							<linkclipref>clipitem-762</linkclipref>
							<mediatype>video</mediatype>
							<trackindex>1</trackindex>
							<clipindex>762</clipindex>
						</link>
						<link>
							<linkclipref>clipitem-1797</linkclipref>
							<mediatype>audio</mediatype>
							<trackindex>1</trackindex>
							<clipindex>762</clipindex>
							<groupindex>1</groupindex>
						</link>
					</clipitem>
					<clipitem id="clipitem-763">
						<masterclipid>masterclip-2</masterclipid>
						<name>chandrika rocket equations</name>
						<start>51640</start>
						<end>51833</end>
						<in>86537</in>
						<out>86730</out>
						<file id="file-1" />
						<link>
							<linkclipref>clipitem-763</linkclipref>
							<mediatype>video</mediatype>
							<trackindex>1</trackindex>
							<clipindex>763</clipindex>
						</link>
						<link>
							<linkclipref>clipitem-1798</linkclipref>
							<mediatype>audio</mediatype>
							<trackindex>1</trackindex>
							<clipindex>763</clipindex>
							<groupindex>1</groupindex>
						</link>
					</clipitem>
					<clipitem id="clipitem-764">
						<masterclipid>masterclip-2</masterclipid>
						<name>chandrika rocket equations</name>
						<start>51833</start>
						<end>51937</end>
						<in>86757</in>
						<out>86861</out>
						<file id="file-1" />
						<link>
							<linkclipref>clipitem-764</linkclipref>
							<mediatype>video</mediatype>
							<trackindex>1</trackindex>
							<clipindex>764</clipindex>
						</link>
						<link>
							<linkclipref>clipitem-1799</linkclipref>
							<mediatype>audio</mediatype>
							<trackindex>1</trackindex>
							<clipindex>764</clipindex>
							<groupindex>1</groupindex>
						</link>
					</clipitem>
					<clipitem id="clipitem-765">
						<masterclipid>masterclip-2</masterclipid>
						<name>chandrika rocket equations</name>
						<start>51937</start>
						<end>51988</end>
						<in>86888</in>
						<out>86939</out>
						<file id="file-1" />
						<link>
							<linkclipref>clipitem-765</linkclipref>
							<mediatype>video</mediatype>
							<trackindex>1</trackindex>
							<clipindex>765</clipindex>
						</link>
						<link>
							<linkclipref>clipitem-1800</linkclipref>
							<mediatype>audio</mediatype>
							<trackindex>1</trackindex>
							<clipindex>765</clipindex>
							<groupindex>1</groupindex>
						</link>
					</clipitem>
					<clipitem id="clipitem-766">
						<masterclipid>masterclip-2</masterclipid>
						<name>chandrika rocket equations</name>
						<start>51988</start>
						<end>52038</end>
						<in>86975</in>
						<out>87025</out>
						<file id="file-1" />
						<link>
							<linkclipref>clipitem-766</linkclipref>
							<mediatype>video</mediatype>
							<trackindex>1</trackindex>
							<clipindex>766</clipindex>
						</link>
						<link>
							<linkclipref>clipitem-1801</linkclipref>
							<mediatype>audio</mediatype>
							<trackindex>1</trackindex>
							<clipindex>766</clipindex>
							<groupindex>1</groupindex>
						</link>
					</clipitem>
					<clipitem id="clipitem-767">
						<masterclipid>masterclip-2</masterclipid>
						<name>chandrika rocket equations</name>
						<start>52038</start>
						<end>52073</end>
						<in>87055</in>
						<out>87090</out>
						<file id="file-1" />
						<link>
							<linkclipref>clipitem-767</linkclipref>
							<mediatype>video</mediatype>
							<trackindex>1</trackindex>
							<clipindex>767</clipindex>
						</link>
						<link>
							<linkclipref>clipitem-1802</linkclipref>
							<mediatype>audio</mediatype>
							<trackindex>1</trackindex>
							<clipindex>767</clipindex>
							<groupindex>1</groupindex>
						</link>
					</clipitem>
					<clipitem id="clipitem-768">
						<masterclipid>masterclip-2</masterclipid>
						<name>chandrika rocket equations</name>
						<start>52073</start>
						<end>52157</end>
						<in>87192</in>
						<out>87276</out>
						<file id="file-1" />
						<link>
							<linkclipref>clipitem-768</linkclipref>
							<mediatype>video</mediatype>
							<trackindex>1</trackindex>
							<clipindex>768</clipindex>
						</link>
						<link>
							<linkclipref>clipitem-1803</linkclipref>
							<mediatype>audio</mediatype>
							<trackindex>1</trackindex>
							<clipindex>768</clipindex>
							<groupindex>1</groupindex>
						</link>
					</clipitem>
					<clipitem id="clipitem-769">
						<masterclipid>masterclip-2</masterclipid>
						<name>chandrika rocket equations</name>
						<start>52157</start>
						<end>52206</end>
						<in>87494</in>
						<out>87543</out>
						<file id="file-1" />
						<link>
							<linkclipref>clipitem-769</linkclipref>
							<mediatype>video</mediatype>
							<trackindex>1</trackindex>
							<clipindex>769</clipindex>
						</link>
						<link>
							<linkclipref>clipitem-1804</linkclipref>
							<mediatype>audio</mediatype>
							<trackindex>1</trackindex>
							<clipindex>769</clipindex>
							<groupindex>1</groupindex>
						</link>
					</clipitem>
					<clipitem id="clipitem-770">
						<masterclipid>masterclip-2</masterclipid>
						<name>chandrika rocket equations</name>
						<start>52206</start>
						<end>52246</end>
						<in>87611</in>
						<out>87651</out>
						<file id="file-1" />
						<link>
							<linkclipref>clipitem-770</linkclipref>
							<mediatype>video</mediatype>
							<trackindex>1</trackindex>
							<clipindex>770</clipindex>
						</link>
						<link>
							<linkclipref>clipitem-1805</linkclipref>
							<mediatype>audio</mediatype>
							<trackindex>1</trackindex>
							<clipindex>770</clipindex>
							<groupindex>1</groupindex>
						</link>
					</clipitem>
					<clipitem id="clipitem-771">
						<masterclipid>masterclip-2</masterclipid>
						<name>chandrika rocket equations</name>
						<start>52246</start>
						<end>52291</end>
						<in>87677</in>
						<out>87722</out>
						<file id="file-1" />
						<link>
							<linkclipref>clipitem-771</linkclipref>
							<mediatype>video</mediatype>
							<trackindex>1</trackindex>
							<clipindex>771</clipindex>
						</link>
						<link>
							<linkclipref>clipitem-1806</linkclipref>
							<mediatype>audio</mediatype>
							<trackindex>1</trackindex>
							<clipindex>771</clipindex>
							<groupindex>1</groupindex>
						</link>
					</clipitem>
					<clipitem id="clipitem-772">
						<masterclipid>masterclip-2</masterclipid>
						<name>chandrika rocket equations</name>
						<start>52291</start>
						<end>52334</end>
						<in>87845</in>
						<out>87888</out>
						<file id="file-1" />
						<link>
							<linkclipref>clipitem-772</linkclipref>
							<mediatype>video</mediatype>
							<trackindex>1</trackindex>
							<clipindex>772</clipindex>
						</link>
						<link>
							<linkclipref>clipitem-1807</linkclipref>
							<mediatype>audio</mediatype>
							<trackindex>1</trackindex>
							<clipindex>772</clipindex>
							<groupindex>1</groupindex>
						</link>
					</clipitem>
					<clipitem id="clipitem-773">
						<masterclipid>masterclip-2</masterclipid>
						<name>chandrika rocket equations</name>
						<start>52334</start>
						<end>52432</end>
						<in>88076</in>
						<out>88174</out>
						<file id="file-1" />
						<link>
							<linkclipref>clipitem-773</linkclipref>
							<mediatype>video</mediatype>
							<trackindex>1</trackindex>
							<clipindex>773</clipindex>
						</link>
						<link>
							<linkclipref>clipitem-1808</linkclipref>
							<mediatype>audio</mediatype>
							<trackindex>1</trackindex>
							<clipindex>773</clipindex>
							<groupindex>1</groupindex>
						</link>
					</clipitem>
					<clipitem id="clipitem-774">
						<masterclipid>masterclip-2</masterclipid>
						<name>chandrika rocket equations</name>
						<start>52432</start>
						<end>52458</end>
						<in>88204</in>
						<out>88230</out>
						<file id="file-1" />
						<link>
							<linkclipref>clipitem-774</linkclipref>
							<mediatype>video</mediatype>
							<trackindex>1</trackindex>
							<clipindex>774</clipindex>
						</link>
						<link>
							<linkclipref>clipitem-1809</linkclipref>
							<mediatype>audio</mediatype>
							<trackindex>1</trackindex>
							<clipindex>774</clipindex>
							<groupindex>1</groupindex>
						</link>
					</clipitem>
					<clipitem id="clipitem-775">
						<masterclipid>masterclip-2</masterclipid>
						<name>chandrika rocket equations</name>
						<start>52458</start>
						<end>52498</end>
						<in>88237</in>
						<out>88277</out>
						<file id="file-1" />
						<link>
							<linkclipref>clipitem-775</linkclipref>
							<mediatype>video</mediatype>
							<trackindex>1</trackindex>
							<clipindex>775</clipindex>
						</link>
						<link>
							<linkclipref>clipitem-1810</linkclipref>
							<mediatype>audio</mediatype>
							<trackindex>1</trackindex>
							<clipindex>775</clipindex>
							<groupindex>1</groupindex>
						</link>
					</clipitem>
					<clipitem id="clipitem-776">
						<masterclipid>masterclip-2</masterclipid>
						<name>chandrika rocket equations</name>
						<start>52498</start>
						<end>52524</end>
						<in>88287</in>
						<out>88313</out>
						<file id="file-1" />
						<link>
							<linkclipref>clipitem-776</linkclipref>
							<mediatype>video</mediatype>
							<trackindex>1</trackindex>
							<clipindex>776</clipindex>
						</link>
						<link>
							<linkclipref>clipitem-1811</linkclipref>
							<mediatype>audio</mediatype>
							<trackindex>1</trackindex>
							<clipindex>776</clipindex>
							<groupindex>1</groupindex>
						</link>
					</clipitem>
					<clipitem id="clipitem-777">
						<masterclipid>masterclip-2</masterclipid>
						<name>chandrika rocket equations</name>
						<start>52524</start>
						<end>52672</end>
						<in>88320</in>
						<out>88468</out>
						<file id="file-1" />
						<link>
							<linkclipref>clipitem-777</linkclipref>
							<mediatype>video</mediatype>
							<trackindex>1</trackindex>
							<clipindex>777</clipindex>
						</link>
						<link>
							<linkclipref>clipitem-1812</linkclipref>
							<mediatype>audio</mediatype>
							<trackindex>1</trackindex>
							<clipindex>777</clipindex>
							<groupindex>1</groupindex>
						</link>
					</clipitem>
					<clipitem id="clipitem-778">
						<masterclipid>masterclip-2</masterclipid>
						<name>chandrika rocket equations</name>
						<start>52672</start>
						<end>52731</end>
						<in>88553</in>
						<out>88612</out>
						<file id="file-1" />
						<link>
							<linkclipref>clipitem-778</linkclipref>
							<mediatype>video</mediatype>
							<trackindex>1</trackindex>
							<clipindex>778</clipindex>
						</link>
						<link>
							<linkclipref>clipitem-1813</linkclipref>
							<mediatype>audio</mediatype>
							<trackindex>1</trackindex>
							<clipindex>778</clipindex>
							<groupindex>1</groupindex>
						</link>
					</clipitem>
					<clipitem id="clipitem-779">
						<masterclipid>masterclip-2</masterclipid>
						<name>chandrika rocket equations</name>
						<start>52731</start>
						<end>52791</end>
						<in>88687</in>
						<out>88747</out>
						<file id="file-1" />
						<link>
							<linkclipref>clipitem-779</linkclipref>
							<mediatype>video</mediatype>
							<trackindex>1</trackindex>
							<clipindex>779</clipindex>
						</link>
						<link>
							<linkclipref>clipitem-1814</linkclipref>
							<mediatype>audio</mediatype>
							<trackindex>1</trackindex>
							<clipindex>779</clipindex>
							<groupindex>1</groupindex>
						</link>
					</clipitem>
					<clipitem id="clipitem-780">
						<masterclipid>masterclip-2</masterclipid>
						<name>chandrika rocket equations</name>
						<start>52791</start>
						<end>52882</end>
						<in>88768</in>
						<out>88859</out>
						<file id="file-1" />
						<link>
							<linkclipref>clipitem-780</linkclipref>
							<mediatype>video</mediatype>
							<trackindex>1</trackindex>
							<clipindex>780</clipindex>
						</link>
						<link>
							<linkclipref>clipitem-1815</linkclipref>
							<mediatype>audio</mediatype>
							<trackindex>1</trackindex>
							<clipindex>780</clipindex>
							<groupindex>1</groupindex>
						</link>
					</clipitem>
					<clipitem id="clipitem-781">
						<masterclipid>masterclip-2</masterclipid>
						<name>chandrika rocket equations</name>
						<start>52882</start>
						<end>52906</end>
						<in>88881</in>
						<out>88905</out>
						<file id="file-1" />
						<link>
							<linkclipref>clipitem-781</linkclipref>
							<mediatype>video</mediatype>
							<trackindex>1</trackindex>
							<clipindex>781</clipindex>
						</link>
						<link>
							<linkclipref>clipitem-1816</linkclipref>
							<mediatype>audio</mediatype>
							<trackindex>1</trackindex>
							<clipindex>781</clipindex>
							<groupindex>1</groupindex>
						</link>
					</clipitem>
					<clipitem id="clipitem-782">
						<masterclipid>masterclip-2</masterclipid>
						<name>chandrika rocket equations</name>
						<start>52906</start>
						<end>53027</end>
						<in>88919</in>
						<out>89040</out>
						<file id="file-1" />
						<link>
							<linkclipref>clipitem-782</linkclipref>
							<mediatype>video</mediatype>
							<trackindex>1</trackindex>
							<clipindex>782</clipindex>
						</link>
						<link>
							<linkclipref>clipitem-1817</linkclipref>
							<mediatype>audio</mediatype>
							<trackindex>1</trackindex>
							<clipindex>782</clipindex>
							<groupindex>1</groupindex>
						</link>
					</clipitem>
					<clipitem id="clipitem-783">
						<masterclipid>masterclip-2</masterclipid>
						<name>chandrika rocket equations</name>
						<start>53027</start>
						<end>53088</end>
						<in>89080</in>
						<out>89141</out>
						<file id="file-1" />
						<link>
							<linkclipref>clipitem-783</linkclipref>
							<mediatype>video</mediatype>
							<trackindex>1</trackindex>
							<clipindex>783</clipindex>
						</link>
						<link>
							<linkclipref>clipitem-1818</linkclipref>
							<mediatype>audio</mediatype>
							<trackindex>1</trackindex>
							<clipindex>783</clipindex>
							<groupindex>1</groupindex>
						</link>
					</clipitem>
					<clipitem id="clipitem-784">
						<masterclipid>masterclip-2</masterclipid>
						<name>chandrika rocket equations</name>
						<start>53088</start>
						<end>53103</end>
						<in>89142</in>
						<out>89157</out>
						<file id="file-1" />
						<link>
							<linkclipref>clipitem-784</linkclipref>
							<mediatype>video</mediatype>
							<trackindex>1</trackindex>
							<clipindex>784</clipindex>
						</link>
						<link>
							<linkclipref>clipitem-1819</linkclipref>
							<mediatype>audio</mediatype>
							<trackindex>1</trackindex>
							<clipindex>784</clipindex>
							<groupindex>1</groupindex>
						</link>
					</clipitem>
					<clipitem id="clipitem-785">
						<masterclipid>masterclip-2</masterclipid>
						<name>chandrika rocket equations</name>
						<start>53103</start>
						<end>53183</end>
						<in>89229</in>
						<out>89309</out>
						<file id="file-1" />
						<link>
							<linkclipref>clipitem-785</linkclipref>
							<mediatype>video</mediatype>
							<trackindex>1</trackindex>
							<clipindex>785</clipindex>
						</link>
						<link>
							<linkclipref>clipitem-1820</linkclipref>
							<mediatype>audio</mediatype>
							<trackindex>1</trackindex>
							<clipindex>785</clipindex>
							<groupindex>1</groupindex>
						</link>
					</clipitem>
					<clipitem id="clipitem-786">
						<masterclipid>masterclip-2</masterclipid>
						<name>chandrika rocket equations</name>
						<start>53183</start>
						<end>53221</end>
						<in>89321</in>
						<out>89359</out>
						<file id="file-1" />
						<link>
							<linkclipref>clipitem-786</linkclipref>
							<mediatype>video</mediatype>
							<trackindex>1</trackindex>
							<clipindex>786</clipindex>
						</link>
						<link>
							<linkclipref>clipitem-1821</linkclipref>
							<mediatype>audio</mediatype>
							<trackindex>1</trackindex>
							<clipindex>786</clipindex>
							<groupindex>1</groupindex>
						</link>
					</clipitem>
					<clipitem id="clipitem-787">
						<masterclipid>masterclip-2</masterclipid>
						<name>chandrika rocket equations</name>
						<start>53221</start>
						<end>53311</end>
						<in>89576</in>
						<out>89666</out>
						<file id="file-1" />
						<link>
							<linkclipref>clipitem-787</linkclipref>
							<mediatype>video</mediatype>
							<trackindex>1</trackindex>
							<clipindex>787</clipindex>
						</link>
						<link>
							<linkclipref>clipitem-1822</linkclipref>
							<mediatype>audio</mediatype>
							<trackindex>1</trackindex>
							<clipindex>787</clipindex>
							<groupindex>1</groupindex>
						</link>
					</clipitem>
					<clipitem id="clipitem-788">
						<masterclipid>masterclip-2</masterclipid>
						<name>chandrika rocket equations</name>
						<start>53311</start>
						<end>53367</end>
						<in>89672</in>
						<out>89728</out>
						<file id="file-1" />
						<link>
							<linkclipref>clipitem-788</linkclipref>
							<mediatype>video</mediatype>
							<trackindex>1</trackindex>
							<clipindex>788</clipindex>
						</link>
						<link>
							<linkclipref>clipitem-1823</linkclipref>
							<mediatype>audio</mediatype>
							<trackindex>1</trackindex>
							<clipindex>788</clipindex>
							<groupindex>1</groupindex>
						</link>
					</clipitem>
					<clipitem id="clipitem-789">
						<masterclipid>masterclip-2</masterclipid>
						<name>chandrika rocket equations</name>
						<start>53367</start>
						<end>53411</end>
						<in>89790</in>
						<out>89834</out>
						<file id="file-1" />
						<link>
							<linkclipref>clipitem-789</linkclipref>
							<mediatype>video</mediatype>
							<trackindex>1</trackindex>
							<clipindex>789</clipindex>
						</link>
						<link>
							<linkclipref>clipitem-1824</linkclipref>
							<mediatype>audio</mediatype>
							<trackindex>1</trackindex>
							<clipindex>789</clipindex>
							<groupindex>1</groupindex>
						</link>
					</clipitem>
					<clipitem id="clipitem-790">
						<masterclipid>masterclip-2</masterclipid>
						<name>chandrika rocket equations</name>
						<start>53411</start>
						<end>53468</end>
						<in>89884</in>
						<out>89941</out>
						<file id="file-1" />
						<link>
							<linkclipref>clipitem-790</linkclipref>
							<mediatype>video</mediatype>
							<trackindex>1</trackindex>
							<clipindex>790</clipindex>
						</link>
						<link>
							<linkclipref>clipitem-1825</linkclipref>
							<mediatype>audio</mediatype>
							<trackindex>1</trackindex>
							<clipindex>790</clipindex>
							<groupindex>1</groupindex>
						</link>
					</clipitem>
					<clipitem id="clipitem-791">
						<masterclipid>masterclip-2</masterclipid>
						<name>chandrika rocket equations</name>
						<start>53468</start>
						<end>53542</end>
						<in>90446</in>
						<out>90520</out>
						<file id="file-1" />
						<link>
							<linkclipref>clipitem-791</linkclipref>
							<mediatype>video</mediatype>
							<trackindex>1</trackindex>
							<clipindex>791</clipindex>
						</link>
						<link>
							<linkclipref>clipitem-1826</linkclipref>
							<mediatype>audio</mediatype>
							<trackindex>1</trackindex>
							<clipindex>791</clipindex>
							<groupindex>1</groupindex>
						</link>
					</clipitem>
					<clipitem id="clipitem-792">
						<masterclipid>masterclip-2</masterclipid>
						<name>chandrika rocket equations</name>
						<start>53542</start>
						<end>53606</end>
						<in>90817</in>
						<out>90881</out>
						<file id="file-1" />
						<link>
							<linkclipref>clipitem-792</linkclipref>
							<mediatype>video</mediatype>
							<trackindex>1</trackindex>
							<clipindex>792</clipindex>
						</link>
						<link>
							<linkclipref>clipitem-1827</linkclipref>
							<mediatype>audio</mediatype>
							<trackindex>1</trackindex>
							<clipindex>792</clipindex>
							<groupindex>1</groupindex>
						</link>
					</clipitem>
					<clipitem id="clipitem-793">
						<masterclipid>masterclip-2</masterclipid>
						<name>chandrika rocket equations</name>
						<start>53606</start>
						<end>53687</end>
						<in>90901</in>
						<out>90982</out>
						<file id="file-1" />
						<link>
							<linkclipref>clipitem-793</linkclipref>
							<mediatype>video</mediatype>
							<trackindex>1</trackindex>
							<clipindex>793</clipindex>
						</link>
						<link>
							<linkclipref>clipitem-1828</linkclipref>
							<mediatype>audio</mediatype>
							<trackindex>1</trackindex>
							<clipindex>793</clipindex>
							<groupindex>1</groupindex>
						</link>
					</clipitem>
					<clipitem id="clipitem-794">
						<masterclipid>masterclip-2</masterclipid>
						<name>chandrika rocket equations</name>
						<start>53687</start>
						<end>53738</end>
						<in>91366</in>
						<out>91417</out>
						<file id="file-1" />
						<link>
							<linkclipref>clipitem-794</linkclipref>
							<mediatype>video</mediatype>
							<trackindex>1</trackindex>
							<clipindex>794</clipindex>
						</link>
						<link>
							<linkclipref>clipitem-1829</linkclipref>
							<mediatype>audio</mediatype>
							<trackindex>1</trackindex>
							<clipindex>794</clipindex>
							<groupindex>1</groupindex>
						</link>
					</clipitem>
					<clipitem id="clipitem-795">
						<masterclipid>masterclip-2</masterclipid>
						<name>chandrika rocket equations</name>
						<start>53738</start>
						<end>53753</end>
						<in>91433</in>
						<out>91448</out>
						<file id="file-1" />
						<link>
							<linkclipref>clipitem-795</linkclipref>
							<mediatype>video</mediatype>
							<trackindex>1</trackindex>
							<clipindex>795</clipindex>
						</link>
						<link>
							<linkclipref>clipitem-1830</linkclipref>
							<mediatype>audio</mediatype>
							<trackindex>1</trackindex>
							<clipindex>795</clipindex>
							<groupindex>1</groupindex>
						</link>
					</clipitem>
					<clipitem id="clipitem-796">
						<masterclipid>masterclip-2</masterclipid>
						<name>chandrika rocket equations</name>
						<start>53753</start>
						<end>53841</end>
						<in>91639</in>
						<out>91727</out>
						<file id="file-1" />
						<link>
							<linkclipref>clipitem-796</linkclipref>
							<mediatype>video</mediatype>
							<trackindex>1</trackindex>
							<clipindex>796</clipindex>
						</link>
						<link>
							<linkclipref>clipitem-1831</linkclipref>
							<mediatype>audio</mediatype>
							<trackindex>1</trackindex>
							<clipindex>796</clipindex>
							<groupindex>1</groupindex>
						</link>
					</clipitem>
					<clipitem id="clipitem-797">
						<masterclipid>masterclip-2</masterclipid>
						<name>chandrika rocket equations</name>
						<start>53841</start>
						<end>53867</end>
						<in>92623</in>
						<out>92649</out>
						<file id="file-1" />
						<link>
							<linkclipref>clipitem-797</linkclipref>
							<mediatype>video</mediatype>
							<trackindex>1</trackindex>
							<clipindex>797</clipindex>
						</link>
						<link>
							<linkclipref>clipitem-1832</linkclipref>
							<mediatype>audio</mediatype>
							<trackindex>1</trackindex>
							<clipindex>797</clipindex>
							<groupindex>1</groupindex>
						</link>
					</clipitem>
					<clipitem id="clipitem-798">
						<masterclipid>masterclip-2</masterclipid>
						<name>chandrika rocket equations</name>
						<start>53867</start>
						<end>53894</end>
						<in>92654</in>
						<out>92681</out>
						<file id="file-1" />
						<link>
							<linkclipref>clipitem-798</linkclipref>
							<mediatype>video</mediatype>
							<trackindex>1</trackindex>
							<clipindex>798</clipindex>
						</link>
						<link>
							<linkclipref>clipitem-1833</linkclipref>
							<mediatype>audio</mediatype>
							<trackindex>1</trackindex>
							<clipindex>798</clipindex>
							<groupindex>1</groupindex>
						</link>
					</clipitem>
					<clipitem id="clipitem-799">
						<masterclipid>masterclip-2</masterclipid>
						<name>chandrika rocket equations</name>
						<start>53894</start>
						<end>53919</end>
						<in>92682</in>
						<out>92707</out>
						<file id="file-1" />
						<link>
							<linkclipref>clipitem-799</linkclipref>
							<mediatype>video</mediatype>
							<trackindex>1</trackindex>
							<clipindex>799</clipindex>
						</link>
						<link>
							<linkclipref>clipitem-1834</linkclipref>
							<mediatype>audio</mediatype>
							<trackindex>1</trackindex>
							<clipindex>799</clipindex>
							<groupindex>1</groupindex>
						</link>
					</clipitem>
					<clipitem id="clipitem-800">
						<masterclipid>masterclip-2</masterclipid>
						<name>chandrika rocket equations</name>
						<start>53919</start>
						<end>53959</end>
						<in>92720</in>
						<out>92760</out>
						<file id="file-1" />
						<link>
							<linkclipref>clipitem-800</linkclipref>
							<mediatype>video</mediatype>
							<trackindex>1</trackindex>
							<clipindex>800</clipindex>
						</link>
						<link>
							<linkclipref>clipitem-1835</linkclipref>
							<mediatype>audio</mediatype>
							<trackindex>1</trackindex>
							<clipindex>800</clipindex>
							<groupindex>1</groupindex>
						</link>
					</clipitem>
					<clipitem id="clipitem-801">
						<masterclipid>masterclip-2</masterclipid>
						<name>chandrika rocket equations</name>
						<start>53959</start>
						<end>53997</end>
						<in>92766</in>
						<out>92804</out>
						<file id="file-1" />
						<link>
							<linkclipref>clipitem-801</linkclipref>
							<mediatype>video</mediatype>
							<trackindex>1</trackindex>
							<clipindex>801</clipindex>
						</link>
						<link>
							<linkclipref>clipitem-1836</linkclipref>
							<mediatype>audio</mediatype>
							<trackindex>1</trackindex>
							<clipindex>801</clipindex>
							<groupindex>1</groupindex>
						</link>
					</clipitem>
					<clipitem id="clipitem-802">
						<masterclipid>masterclip-2</masterclipid>
						<name>chandrika rocket equations</name>
						<start>53997</start>
						<end>54039</end>
						<in>92816</in>
						<out>92858</out>
						<file id="file-1" />
						<link>
							<linkclipref>clipitem-802</linkclipref>
							<mediatype>video</mediatype>
							<trackindex>1</trackindex>
							<clipindex>802</clipindex>
						</link>
						<link>
							<linkclipref>clipitem-1837</linkclipref>
							<mediatype>audio</mediatype>
							<trackindex>1</trackindex>
							<clipindex>802</clipindex>
							<groupindex>1</groupindex>
						</link>
					</clipitem>
					<clipitem id="clipitem-803">
						<masterclipid>masterclip-2</masterclipid>
						<name>chandrika rocket equations</name>
						<start>54039</start>
						<end>54125</end>
						<in>92882</in>
						<out>92968</out>
						<file id="file-1" />
						<link>
							<linkclipref>clipitem-803</linkclipref>
							<mediatype>video</mediatype>
							<trackindex>1</trackindex>
							<clipindex>803</clipindex>
						</link>
						<link>
							<linkclipref>clipitem-1838</linkclipref>
							<mediatype>audio</mediatype>
							<trackindex>1</trackindex>
							<clipindex>803</clipindex>
							<groupindex>1</groupindex>
						</link>
					</clipitem>
					<clipitem id="clipitem-804">
						<masterclipid>masterclip-2</masterclipid>
						<name>chandrika rocket equations</name>
						<start>54125</start>
						<end>54190</end>
						<in>92990</in>
						<out>93055</out>
						<file id="file-1" />
						<link>
							<linkclipref>clipitem-804</linkclipref>
							<mediatype>video</mediatype>
							<trackindex>1</trackindex>
							<clipindex>804</clipindex>
						</link>
						<link>
							<linkclipref>clipitem-1839</linkclipref>
							<mediatype>audio</mediatype>
							<trackindex>1</trackindex>
							<clipindex>804</clipindex>
							<groupindex>1</groupindex>
						</link>
					</clipitem>
					<clipitem id="clipitem-805">
						<masterclipid>masterclip-2</masterclipid>
						<name>chandrika rocket equations</name>
						<start>54190</start>
						<end>54211</end>
						<in>93098</in>
						<out>93119</out>
						<file id="file-1" />
						<link>
							<linkclipref>clipitem-805</linkclipref>
							<mediatype>video</mediatype>
							<trackindex>1</trackindex>
							<clipindex>805</clipindex>
						</link>
						<link>
							<linkclipref>clipitem-1840</linkclipref>
							<mediatype>audio</mediatype>
							<trackindex>1</trackindex>
							<clipindex>805</clipindex>
							<groupindex>1</groupindex>
						</link>
					</clipitem>
					<clipitem id="clipitem-806">
						<masterclipid>masterclip-2</masterclipid>
						<name>chandrika rocket equations</name>
						<start>54211</start>
						<end>54257</end>
						<in>93131</in>
						<out>93177</out>
						<file id="file-1" />
						<link>
							<linkclipref>clipitem-806</linkclipref>
							<mediatype>video</mediatype>
							<trackindex>1</trackindex>
							<clipindex>806</clipindex>
						</link>
						<link>
							<linkclipref>clipitem-1841</linkclipref>
							<mediatype>audio</mediatype>
							<trackindex>1</trackindex>
							<clipindex>806</clipindex>
							<groupindex>1</groupindex>
						</link>
					</clipitem>
					<clipitem id="clipitem-807">
						<masterclipid>masterclip-2</masterclipid>
						<name>chandrika rocket equations</name>
						<start>54257</start>
						<end>54322</end>
						<in>93178</in>
						<out>93243</out>
						<file id="file-1" />
						<link>
							<linkclipref>clipitem-807</linkclipref>
							<mediatype>video</mediatype>
							<trackindex>1</trackindex>
							<clipindex>807</clipindex>
						</link>
						<link>
							<linkclipref>clipitem-1842</linkclipref>
							<mediatype>audio</mediatype>
							<trackindex>1</trackindex>
							<clipindex>807</clipindex>
							<groupindex>1</groupindex>
						</link>
					</clipitem>
					<clipitem id="clipitem-808">
						<masterclipid>masterclip-2</masterclipid>
						<name>chandrika rocket equations</name>
						<start>54322</start>
						<end>54381</end>
						<in>93251</in>
						<out>93310</out>
						<file id="file-1" />
						<link>
							<linkclipref>clipitem-808</linkclipref>
							<mediatype>video</mediatype>
							<trackindex>1</trackindex>
							<clipindex>808</clipindex>
						</link>
						<link>
							<linkclipref>clipitem-1843</linkclipref>
							<mediatype>audio</mediatype>
							<trackindex>1</trackindex>
							<clipindex>808</clipindex>
							<groupindex>1</groupindex>
						</link>
					</clipitem>
					<clipitem id="clipitem-809">
						<masterclipid>masterclip-2</masterclipid>
						<name>chandrika rocket equations</name>
						<start>54381</start>
						<end>54416</end>
						<in>93314</in>
						<out>93349</out>
						<file id="file-1" />
						<link>
							<linkclipref>clipitem-809</linkclipref>
							<mediatype>video</mediatype>
							<trackindex>1</trackindex>
							<clipindex>809</clipindex>
						</link>
						<link>
							<linkclipref>clipitem-1844</linkclipref>
							<mediatype>audio</mediatype>
							<trackindex>1</trackindex>
							<clipindex>809</clipindex>
							<groupindex>1</groupindex>
						</link>
					</clipitem>
					<clipitem id="clipitem-810">
						<masterclipid>masterclip-2</masterclipid>
						<name>chandrika rocket equations</name>
						<start>54416</start>
						<end>54483</end>
						<in>93351</in>
						<out>93418</out>
						<file id="file-1" />
						<link>
							<linkclipref>clipitem-810</linkclipref>
							<mediatype>video</mediatype>
							<trackindex>1</trackindex>
							<clipindex>810</clipindex>
						</link>
						<link>
							<linkclipref>clipitem-1845</linkclipref>
							<mediatype>audio</mediatype>
							<trackindex>1</trackindex>
							<clipindex>810</clipindex>
							<groupindex>1</groupindex>
						</link>
					</clipitem>
					<clipitem id="clipitem-811">
						<masterclipid>masterclip-2</masterclipid>
						<name>chandrika rocket equations</name>
						<start>54483</start>
						<end>54502</end>
						<in>93420</in>
						<out>93439</out>
						<file id="file-1" />
						<link>
							<linkclipref>clipitem-811</linkclipref>
							<mediatype>video</mediatype>
							<trackindex>1</trackindex>
							<clipindex>811</clipindex>
						</link>
						<link>
							<linkclipref>clipitem-1846</linkclipref>
							<mediatype>audio</mediatype>
							<trackindex>1</trackindex>
							<clipindex>811</clipindex>
							<groupindex>1</groupindex>
						</link>
					</clipitem>
					<clipitem id="clipitem-812">
						<masterclipid>masterclip-2</masterclipid>
						<name>chandrika rocket equations</name>
						<start>54502</start>
						<end>54571</end>
						<in>93485</in>
						<out>93554</out>
						<file id="file-1" />
						<link>
							<linkclipref>clipitem-812</linkclipref>
							<mediatype>video</mediatype>
							<trackindex>1</trackindex>
							<clipindex>812</clipindex>
						</link>
						<link>
							<linkclipref>clipitem-1847</linkclipref>
							<mediatype>audio</mediatype>
							<trackindex>1</trackindex>
							<clipindex>812</clipindex>
							<groupindex>1</groupindex>
						</link>
					</clipitem>
					<clipitem id="clipitem-813">
						<masterclipid>masterclip-2</masterclipid>
						<name>chandrika rocket equations</name>
						<start>54571</start>
						<end>54710</end>
						<in>93606</in>
						<out>93745</out>
						<file id="file-1" />
						<link>
							<linkclipref>clipitem-813</linkclipref>
							<mediatype>video</mediatype>
							<trackindex>1</trackindex>
							<clipindex>813</clipindex>
						</link>
						<link>
							<linkclipref>clipitem-1848</linkclipref>
							<mediatype>audio</mediatype>
							<trackindex>1</trackindex>
							<clipindex>813</clipindex>
							<groupindex>1</groupindex>
						</link>
					</clipitem>
					<clipitem id="clipitem-814">
						<masterclipid>masterclip-2</masterclipid>
						<name>chandrika rocket equations</name>
						<start>54710</start>
						<end>54726</end>
						<in>93753</in>
						<out>93769</out>
						<file id="file-1" />
						<link>
							<linkclipref>clipitem-814</linkclipref>
							<mediatype>video</mediatype>
							<trackindex>1</trackindex>
							<clipindex>814</clipindex>
						</link>
						<link>
							<linkclipref>clipitem-1849</linkclipref>
							<mediatype>audio</mediatype>
							<trackindex>1</trackindex>
							<clipindex>814</clipindex>
							<groupindex>1</groupindex>
						</link>
					</clipitem>
					<clipitem id="clipitem-815">
						<masterclipid>masterclip-2</masterclipid>
						<name>chandrika rocket equations</name>
						<start>54726</start>
						<end>54803</end>
						<in>93804</in>
						<out>93881</out>
						<file id="file-1" />
						<link>
							<linkclipref>clipitem-815</linkclipref>
							<mediatype>video</mediatype>
							<trackindex>1</trackindex>
							<clipindex>815</clipindex>
						</link>
						<link>
							<linkclipref>clipitem-1850</linkclipref>
							<mediatype>audio</mediatype>
							<trackindex>1</trackindex>
							<clipindex>815</clipindex>
							<groupindex>1</groupindex>
						</link>
					</clipitem>
					<clipitem id="clipitem-816">
						<masterclipid>masterclip-2</masterclipid>
						<name>chandrika rocket equations</name>
						<start>54803</start>
						<end>54874</end>
						<in>93965</in>
						<out>94036</out>
						<file id="file-1" />
						<link>
							<linkclipref>clipitem-816</linkclipref>
							<mediatype>video</mediatype>
							<trackindex>1</trackindex>
							<clipindex>816</clipindex>
						</link>
						<link>
							<linkclipref>clipitem-1851</linkclipref>
							<mediatype>audio</mediatype>
							<trackindex>1</trackindex>
							<clipindex>816</clipindex>
							<groupindex>1</groupindex>
						</link>
					</clipitem>
					<clipitem id="clipitem-817">
						<masterclipid>masterclip-2</masterclipid>
						<name>chandrika rocket equations</name>
						<start>54874</start>
						<end>54919</end>
						<in>94074</in>
						<out>94119</out>
						<file id="file-1" />
						<link>
							<linkclipref>clipitem-817</linkclipref>
							<mediatype>video</mediatype>
							<trackindex>1</trackindex>
							<clipindex>817</clipindex>
						</link>
						<link>
							<linkclipref>clipitem-1852</linkclipref>
							<mediatype>audio</mediatype>
							<trackindex>1</trackindex>
							<clipindex>817</clipindex>
							<groupindex>1</groupindex>
						</link>
					</clipitem>
					<clipitem id="clipitem-818">
						<masterclipid>masterclip-2</masterclipid>
						<name>chandrika rocket equations</name>
						<start>54919</start>
						<end>54987</end>
						<in>94174</in>
						<out>94242</out>
						<file id="file-1" />
						<link>
							<linkclipref>clipitem-818</linkclipref>
							<mediatype>video</mediatype>
							<trackindex>1</trackindex>
							<clipindex>818</clipindex>
						</link>
						<link>
							<linkclipref>clipitem-1853</linkclipref>
							<mediatype>audio</mediatype>
							<trackindex>1</trackindex>
							<clipindex>818</clipindex>
							<groupindex>1</groupindex>
						</link>
					</clipitem>
					<clipitem id="clipitem-819">
						<masterclipid>masterclip-2</masterclipid>
						<name>chandrika rocket equations</name>
						<start>54987</start>
						<end>55063</end>
						<in>94248</in>
						<out>94324</out>
						<file id="file-1" />
						<link>
							<linkclipref>clipitem-819</linkclipref>
							<mediatype>video</mediatype>
							<trackindex>1</trackindex>
							<clipindex>819</clipindex>
						</link>
						<link>
							<linkclipref>clipitem-1854</linkclipref>
							<mediatype>audio</mediatype>
							<trackindex>1</trackindex>
							<clipindex>819</clipindex>
							<groupindex>1</groupindex>
						</link>
					</clipitem>
					<clipitem id="clipitem-820">
						<masterclipid>masterclip-2</masterclipid>
						<name>chandrika rocket equations</name>
						<start>55063</start>
						<end>55102</end>
						<in>94335</in>
						<out>94374</out>
						<file id="file-1" />
						<link>
							<linkclipref>clipitem-820</linkclipref>
							<mediatype>video</mediatype>
							<trackindex>1</trackindex>
							<clipindex>820</clipindex>
						</link>
						<link>
							<linkclipref>clipitem-1855</linkclipref>
							<mediatype>audio</mediatype>
							<trackindex>1</trackindex>
							<clipindex>820</clipindex>
							<groupindex>1</groupindex>
						</link>
					</clipitem>
					<clipitem id="clipitem-821">
						<masterclipid>masterclip-2</masterclipid>
						<name>chandrika rocket equations</name>
						<start>55102</start>
						<end>55121</end>
						<in>94378</in>
						<out>94397</out>
						<file id="file-1" />
						<link>
							<linkclipref>clipitem-821</linkclipref>
							<mediatype>video</mediatype>
							<trackindex>1</trackindex>
							<clipindex>821</clipindex>
						</link>
						<link>
							<linkclipref>clipitem-1856</linkclipref>
							<mediatype>audio</mediatype>
							<trackindex>1</trackindex>
							<clipindex>821</clipindex>
							<groupindex>1</groupindex>
						</link>
					</clipitem>
					<clipitem id="clipitem-822">
						<masterclipid>masterclip-2</masterclipid>
						<name>chandrika rocket equations</name>
						<start>55121</start>
						<end>55155</end>
						<in>94410</in>
						<out>94444</out>
						<file id="file-1" />
						<link>
							<linkclipref>clipitem-822</linkclipref>
							<mediatype>video</mediatype>
							<trackindex>1</trackindex>
							<clipindex>822</clipindex>
						</link>
						<link>
							<linkclipref>clipitem-1857</linkclipref>
							<mediatype>audio</mediatype>
							<trackindex>1</trackindex>
							<clipindex>822</clipindex>
							<groupindex>1</groupindex>
						</link>
					</clipitem>
					<clipitem id="clipitem-823">
						<masterclipid>masterclip-2</masterclipid>
						<name>chandrika rocket equations</name>
						<start>55155</start>
						<end>55171</end>
						<in>94450</in>
						<out>94466</out>
						<file id="file-1" />
						<link>
							<linkclipref>clipitem-823</linkclipref>
							<mediatype>video</mediatype>
							<trackindex>1</trackindex>
							<clipindex>823</clipindex>
						</link>
						<link>
							<linkclipref>clipitem-1858</linkclipref>
							<mediatype>audio</mediatype>
							<trackindex>1</trackindex>
							<clipindex>823</clipindex>
							<groupindex>1</groupindex>
						</link>
					</clipitem>
					<clipitem id="clipitem-824">
						<masterclipid>masterclip-2</masterclipid>
						<name>chandrika rocket equations</name>
						<start>55171</start>
						<end>55293</end>
						<in>94472</in>
						<out>94594</out>
						<file id="file-1" />
						<link>
							<linkclipref>clipitem-824</linkclipref>
							<mediatype>video</mediatype>
							<trackindex>1</trackindex>
							<clipindex>824</clipindex>
						</link>
						<link>
							<linkclipref>clipitem-1859</linkclipref>
							<mediatype>audio</mediatype>
							<trackindex>1</trackindex>
							<clipindex>824</clipindex>
							<groupindex>1</groupindex>
						</link>
					</clipitem>
					<clipitem id="clipitem-825">
						<masterclipid>masterclip-2</masterclipid>
						<name>chandrika rocket equations</name>
						<start>55293</start>
						<end>55341</end>
						<in>94612</in>
						<out>94660</out>
						<file id="file-1" />
						<link>
							<linkclipref>clipitem-825</linkclipref>
							<mediatype>video</mediatype>
							<trackindex>1</trackindex>
							<clipindex>825</clipindex>
						</link>
						<link>
							<linkclipref>clipitem-1860</linkclipref>
							<mediatype>audio</mediatype>
							<trackindex>1</trackindex>
							<clipindex>825</clipindex>
							<groupindex>1</groupindex>
						</link>
					</clipitem>
					<clipitem id="clipitem-826">
						<masterclipid>masterclip-2</masterclipid>
						<name>chandrika rocket equations</name>
						<start>55341</start>
						<end>55477</end>
						<in>94702</in>
						<out>94838</out>
						<file id="file-1" />
						<link>
							<linkclipref>clipitem-826</linkclipref>
							<mediatype>video</mediatype>
							<trackindex>1</trackindex>
							<clipindex>826</clipindex>
						</link>
						<link>
							<linkclipref>clipitem-1861</linkclipref>
							<mediatype>audio</mediatype>
							<trackindex>1</trackindex>
							<clipindex>826</clipindex>
							<groupindex>1</groupindex>
						</link>
					</clipitem>
					<clipitem id="clipitem-827">
						<masterclipid>masterclip-2</masterclipid>
						<name>chandrika rocket equations</name>
						<start>55477</start>
						<end>55511</end>
						<in>94858</in>
						<out>94892</out>
						<file id="file-1" />
						<link>
							<linkclipref>clipitem-827</linkclipref>
							<mediatype>video</mediatype>
							<trackindex>1</trackindex>
							<clipindex>827</clipindex>
						</link>
						<link>
							<linkclipref>clipitem-1862</linkclipref>
							<mediatype>audio</mediatype>
							<trackindex>1</trackindex>
							<clipindex>827</clipindex>
							<groupindex>1</groupindex>
						</link>
					</clipitem>
					<clipitem id="clipitem-828">
						<masterclipid>masterclip-2</masterclipid>
						<name>chandrika rocket equations</name>
						<start>55511</start>
						<end>55639</end>
						<in>94949</in>
						<out>95077</out>
						<file id="file-1" />
						<link>
							<linkclipref>clipitem-828</linkclipref>
							<mediatype>video</mediatype>
							<trackindex>1</trackindex>
							<clipindex>828</clipindex>
						</link>
						<link>
							<linkclipref>clipitem-1863</linkclipref>
							<mediatype>audio</mediatype>
							<trackindex>1</trackindex>
							<clipindex>828</clipindex>
							<groupindex>1</groupindex>
						</link>
					</clipitem>
					<clipitem id="clipitem-829">
						<masterclipid>masterclip-2</masterclipid>
						<name>chandrika rocket equations</name>
						<start>55639</start>
						<end>55689</end>
						<in>95079</in>
						<out>95129</out>
						<file id="file-1" />
						<link>
							<linkclipref>clipitem-829</linkclipref>
							<mediatype>video</mediatype>
							<trackindex>1</trackindex>
							<clipindex>829</clipindex>
						</link>
						<link>
							<linkclipref>clipitem-1864</linkclipref>
							<mediatype>audio</mediatype>
							<trackindex>1</trackindex>
							<clipindex>829</clipindex>
							<groupindex>1</groupindex>
						</link>
					</clipitem>
					<clipitem id="clipitem-830">
						<masterclipid>masterclip-2</masterclipid>
						<name>chandrika rocket equations</name>
						<start>55689</start>
						<end>55728</end>
						<in>95168</in>
						<out>95207</out>
						<file id="file-1" />
						<link>
							<linkclipref>clipitem-830</linkclipref>
							<mediatype>video</mediatype>
							<trackindex>1</trackindex>
							<clipindex>830</clipindex>
						</link>
						<link>
							<linkclipref>clipitem-1865</linkclipref>
							<mediatype>audio</mediatype>
							<trackindex>1</trackindex>
							<clipindex>830</clipindex>
							<groupindex>1</groupindex>
						</link>
					</clipitem>
					<clipitem id="clipitem-831">
						<masterclipid>masterclip-2</masterclipid>
						<name>chandrika rocket equations</name>
						<start>55728</start>
						<end>55795</end>
						<in>95246</in>
						<out>95313</out>
						<file id="file-1" />
						<link>
							<linkclipref>clipitem-831</linkclipref>
							<mediatype>video</mediatype>
							<trackindex>1</trackindex>
							<clipindex>831</clipindex>
						</link>
						<link>
							<linkclipref>clipitem-1866</linkclipref>
							<mediatype>audio</mediatype>
							<trackindex>1</trackindex>
							<clipindex>831</clipindex>
							<groupindex>1</groupindex>
						</link>
					</clipitem>
					<clipitem id="clipitem-832">
						<masterclipid>masterclip-2</masterclipid>
						<name>chandrika rocket equations</name>
						<start>55795</start>
						<end>55819</end>
						<in>95353</in>
						<out>95377</out>
						<file id="file-1" />
						<link>
							<linkclipref>clipitem-832</linkclipref>
							<mediatype>video</mediatype>
							<trackindex>1</trackindex>
							<clipindex>832</clipindex>
						</link>
						<link>
							<linkclipref>clipitem-1867</linkclipref>
							<mediatype>audio</mediatype>
							<trackindex>1</trackindex>
							<clipindex>832</clipindex>
							<groupindex>1</groupindex>
						</link>
					</clipitem>
					<clipitem id="clipitem-833">
						<masterclipid>masterclip-2</masterclipid>
						<name>chandrika rocket equations</name>
						<start>55819</start>
						<end>55842</end>
						<in>95486</in>
						<out>95509</out>
						<file id="file-1" />
						<link>
							<linkclipref>clipitem-833</linkclipref>
							<mediatype>video</mediatype>
							<trackindex>1</trackindex>
							<clipindex>833</clipindex>
						</link>
						<link>
							<linkclipref>clipitem-1868</linkclipref>
							<mediatype>audio</mediatype>
							<trackindex>1</trackindex>
							<clipindex>833</clipindex>
							<groupindex>1</groupindex>
						</link>
					</clipitem>
					<clipitem id="clipitem-834">
						<masterclipid>masterclip-2</masterclipid>
						<name>chandrika rocket equations</name>
						<start>55842</start>
						<end>55876</end>
						<in>95560</in>
						<out>95594</out>
						<file id="file-1" />
						<link>
							<linkclipref>clipitem-834</linkclipref>
							<mediatype>video</mediatype>
							<trackindex>1</trackindex>
							<clipindex>834</clipindex>
						</link>
						<link>
							<linkclipref>clipitem-1869</linkclipref>
							<mediatype>audio</mediatype>
							<trackindex>1</trackindex>
							<clipindex>834</clipindex>
							<groupindex>1</groupindex>
						</link>
					</clipitem>
					<clipitem id="clipitem-835">
						<masterclipid>masterclip-2</masterclipid>
						<name>chandrika rocket equations</name>
						<start>55876</start>
						<end>55906</end>
						<in>95602</in>
						<out>95632</out>
						<file id="file-1" />
						<link>
							<linkclipref>clipitem-835</linkclipref>
							<mediatype>video</mediatype>
							<trackindex>1</trackindex>
							<clipindex>835</clipindex>
						</link>
						<link>
							<linkclipref>clipitem-1870</linkclipref>
							<mediatype>audio</mediatype>
							<trackindex>1</trackindex>
							<clipindex>835</clipindex>
							<groupindex>1</groupindex>
						</link>
					</clipitem>
					<clipitem id="clipitem-836">
						<masterclipid>masterclip-2</masterclipid>
						<name>chandrika rocket equations</name>
						<start>55906</start>
						<end>55921</end>
						<in>96106</in>
						<out>96121</out>
						<file id="file-1" />
						<link>
							<linkclipref>clipitem-836</linkclipref>
							<mediatype>video</mediatype>
							<trackindex>1</trackindex>
							<clipindex>836</clipindex>
						</link>
						<link>
							<linkclipref>clipitem-1871</linkclipref>
							<mediatype>audio</mediatype>
							<trackindex>1</trackindex>
							<clipindex>836</clipindex>
							<groupindex>1</groupindex>
						</link>
					</clipitem>
					<clipitem id="clipitem-837">
						<masterclipid>masterclip-2</masterclipid>
						<name>chandrika rocket equations</name>
						<start>55921</start>
						<end>56011</end>
						<in>96199</in>
						<out>96289</out>
						<file id="file-1" />
						<link>
							<linkclipref>clipitem-837</linkclipref>
							<mediatype>video</mediatype>
							<trackindex>1</trackindex>
							<clipindex>837</clipindex>
						</link>
						<link>
							<linkclipref>clipitem-1872</linkclipref>
							<mediatype>audio</mediatype>
							<trackindex>1</trackindex>
							<clipindex>837</clipindex>
							<groupindex>1</groupindex>
						</link>
					</clipitem>
					<clipitem id="clipitem-838">
						<masterclipid>masterclip-2</masterclipid>
						<name>chandrika rocket equations</name>
						<start>56011</start>
						<end>56027</end>
						<in>96299</in>
						<out>96315</out>
						<file id="file-1" />
						<link>
							<linkclipref>clipitem-838</linkclipref>
							<mediatype>video</mediatype>
							<trackindex>1</trackindex>
							<clipindex>838</clipindex>
						</link>
						<link>
							<linkclipref>clipitem-1873</linkclipref>
							<mediatype>audio</mediatype>
							<trackindex>1</trackindex>
							<clipindex>838</clipindex>
							<groupindex>1</groupindex>
						</link>
					</clipitem>
					<clipitem id="clipitem-839">
						<masterclipid>masterclip-2</masterclipid>
						<name>chandrika rocket equations</name>
						<start>56027</start>
						<end>56077</end>
						<in>96349</in>
						<out>96399</out>
						<file id="file-1" />
						<link>
							<linkclipref>clipitem-839</linkclipref>
							<mediatype>video</mediatype>
							<trackindex>1</trackindex>
							<clipindex>839</clipindex>
						</link>
						<link>
							<linkclipref>clipitem-1874</linkclipref>
							<mediatype>audio</mediatype>
							<trackindex>1</trackindex>
							<clipindex>839</clipindex>
							<groupindex>1</groupindex>
						</link>
					</clipitem>
					<clipitem id="clipitem-840">
						<masterclipid>masterclip-2</masterclipid>
						<name>chandrika rocket equations</name>
						<start>56077</start>
						<end>56092</end>
						<in>96405</in>
						<out>96420</out>
						<file id="file-1" />
						<link>
							<linkclipref>clipitem-840</linkclipref>
							<mediatype>video</mediatype>
							<trackindex>1</trackindex>
							<clipindex>840</clipindex>
						</link>
						<link>
							<linkclipref>clipitem-1875</linkclipref>
							<mediatype>audio</mediatype>
							<trackindex>1</trackindex>
							<clipindex>840</clipindex>
							<groupindex>1</groupindex>
						</link>
					</clipitem>
					<clipitem id="clipitem-841">
						<masterclipid>masterclip-2</masterclipid>
						<name>chandrika rocket equations</name>
						<start>56092</start>
						<end>56116</end>
						<in>96575</in>
						<out>96599</out>
						<file id="file-1" />
						<link>
							<linkclipref>clipitem-841</linkclipref>
							<mediatype>video</mediatype>
							<trackindex>1</trackindex>
							<clipindex>841</clipindex>
						</link>
						<link>
							<linkclipref>clipitem-1876</linkclipref>
							<mediatype>audio</mediatype>
							<trackindex>1</trackindex>
							<clipindex>841</clipindex>
							<groupindex>1</groupindex>
						</link>
					</clipitem>
					<clipitem id="clipitem-842">
						<masterclipid>masterclip-2</masterclipid>
						<name>chandrika rocket equations</name>
						<start>56116</start>
						<end>56137</end>
						<in>96687</in>
						<out>96708</out>
						<file id="file-1" />
						<link>
							<linkclipref>clipitem-842</linkclipref>
							<mediatype>video</mediatype>
							<trackindex>1</trackindex>
							<clipindex>842</clipindex>
						</link>
						<link>
							<linkclipref>clipitem-1877</linkclipref>
							<mediatype>audio</mediatype>
							<trackindex>1</trackindex>
							<clipindex>842</clipindex>
							<groupindex>1</groupindex>
						</link>
					</clipitem>
					<clipitem id="clipitem-843">
						<masterclipid>masterclip-2</masterclipid>
						<name>chandrika rocket equations</name>
						<start>56137</start>
						<end>56166</end>
						<in>96735</in>
						<out>96764</out>
						<file id="file-1" />
						<link>
							<linkclipref>clipitem-843</linkclipref>
							<mediatype>video</mediatype>
							<trackindex>1</trackindex>
							<clipindex>843</clipindex>
						</link>
						<link>
							<linkclipref>clipitem-1878</linkclipref>
							<mediatype>audio</mediatype>
							<trackindex>1</trackindex>
							<clipindex>843</clipindex>
							<groupindex>1</groupindex>
						</link>
					</clipitem>
					<clipitem id="clipitem-844">
						<masterclipid>masterclip-2</masterclipid>
						<name>chandrika rocket equations</name>
						<start>56166</start>
						<end>56194</end>
						<in>96771</in>
						<out>96799</out>
						<file id="file-1" />
						<link>
							<linkclipref>clipitem-844</linkclipref>
							<mediatype>video</mediatype>
							<trackindex>1</trackindex>
							<clipindex>844</clipindex>
						</link>
						<link>
							<linkclipref>clipitem-1879</linkclipref>
							<mediatype>audio</mediatype>
							<trackindex>1</trackindex>
							<clipindex>844</clipindex>
							<groupindex>1</groupindex>
						</link>
					</clipitem>
					<clipitem id="clipitem-845">
						<masterclipid>masterclip-2</masterclipid>
						<name>chandrika rocket equations</name>
						<start>56194</start>
						<end>56290</end>
						<in>96870</in>
						<out>96966</out>
						<file id="file-1" />
						<link>
							<linkclipref>clipitem-845</linkclipref>
							<mediatype>video</mediatype>
							<trackindex>1</trackindex>
							<clipindex>845</clipindex>
						</link>
						<link>
							<linkclipref>clipitem-1880</linkclipref>
							<mediatype>audio</mediatype>
							<trackindex>1</trackindex>
							<clipindex>845</clipindex>
							<groupindex>1</groupindex>
						</link>
					</clipitem>
					<clipitem id="clipitem-846">
						<masterclipid>masterclip-2</masterclipid>
						<name>chandrika rocket equations</name>
						<start>56290</start>
						<end>56319</end>
						<in>97004</in>
						<out>97033</out>
						<file id="file-1" />
						<link>
							<linkclipref>clipitem-846</linkclipref>
							<mediatype>video</mediatype>
							<trackindex>1</trackindex>
							<clipindex>846</clipindex>
						</link>
						<link>
							<linkclipref>clipitem-1881</linkclipref>
							<mediatype>audio</mediatype>
							<trackindex>1</trackindex>
							<clipindex>846</clipindex>
							<groupindex>1</groupindex>
						</link>
					</clipitem>
					<clipitem id="clipitem-847">
						<masterclipid>masterclip-2</masterclipid>
						<name>chandrika rocket equations</name>
						<start>56319</start>
						<end>56335</end>
						<in>97065</in>
						<out>97081</out>
						<file id="file-1" />
						<link>
							<linkclipref>clipitem-847</linkclipref>
							<mediatype>video</mediatype>
							<trackindex>1</trackindex>
							<clipindex>847</clipindex>
						</link>
						<link>
							<linkclipref>clipitem-1882</linkclipref>
							<mediatype>audio</mediatype>
							<trackindex>1</trackindex>
							<clipindex>847</clipindex>
							<groupindex>1</groupindex>
						</link>
					</clipitem>
					<clipitem id="clipitem-848">
						<masterclipid>masterclip-2</masterclipid>
						<name>chandrika rocket equations</name>
						<start>56335</start>
						<end>56352</end>
						<in>97084</in>
						<out>97101</out>
						<file id="file-1" />
						<link>
							<linkclipref>clipitem-848</linkclipref>
							<mediatype>video</mediatype>
							<trackindex>1</trackindex>
							<clipindex>848</clipindex>
						</link>
						<link>
							<linkclipref>clipitem-1883</linkclipref>
							<mediatype>audio</mediatype>
							<trackindex>1</trackindex>
							<clipindex>848</clipindex>
							<groupindex>1</groupindex>
						</link>
					</clipitem>
					<clipitem id="clipitem-849">
						<masterclipid>masterclip-2</masterclipid>
						<name>chandrika rocket equations</name>
						<start>56352</start>
						<end>56440</end>
						<in>97122</in>
						<out>97210</out>
						<file id="file-1" />
						<link>
							<linkclipref>clipitem-849</linkclipref>
							<mediatype>video</mediatype>
							<trackindex>1</trackindex>
							<clipindex>849</clipindex>
						</link>
						<link>
							<linkclipref>clipitem-1884</linkclipref>
							<mediatype>audio</mediatype>
							<trackindex>1</trackindex>
							<clipindex>849</clipindex>
							<groupindex>1</groupindex>
						</link>
					</clipitem>
					<clipitem id="clipitem-850">
						<masterclipid>masterclip-2</masterclipid>
						<name>chandrika rocket equations</name>
						<start>56440</start>
						<end>56520</end>
						<in>97221</in>
						<out>97301</out>
						<file id="file-1" />
						<link>
							<linkclipref>clipitem-850</linkclipref>
							<mediatype>video</mediatype>
							<trackindex>1</trackindex>
							<clipindex>850</clipindex>
						</link>
						<link>
							<linkclipref>clipitem-1885</linkclipref>
							<mediatype>audio</mediatype>
							<trackindex>1</trackindex>
							<clipindex>850</clipindex>
							<groupindex>1</groupindex>
						</link>
					</clipitem>
					<clipitem id="clipitem-851">
						<masterclipid>masterclip-2</masterclipid>
						<name>chandrika rocket equations</name>
						<start>56520</start>
						<end>56542</end>
						<in>97341</in>
						<out>97363</out>
						<file id="file-1" />
						<link>
							<linkclipref>clipitem-851</linkclipref>
							<mediatype>video</mediatype>
							<trackindex>1</trackindex>
							<clipindex>851</clipindex>
						</link>
						<link>
							<linkclipref>clipitem-1886</linkclipref>
							<mediatype>audio</mediatype>
							<trackindex>1</trackindex>
							<clipindex>851</clipindex>
							<groupindex>1</groupindex>
						</link>
					</clipitem>
					<clipitem id="clipitem-852">
						<masterclipid>masterclip-2</masterclipid>
						<name>chandrika rocket equations</name>
						<start>56542</start>
						<end>56603</end>
						<in>97370</in>
						<out>97431</out>
						<file id="file-1" />
						<link>
							<linkclipref>clipitem-852</linkclipref>
							<mediatype>video</mediatype>
							<trackindex>1</trackindex>
							<clipindex>852</clipindex>
						</link>
						<link>
							<linkclipref>clipitem-1887</linkclipref>
							<mediatype>audio</mediatype>
							<trackindex>1</trackindex>
							<clipindex>852</clipindex>
							<groupindex>1</groupindex>
						</link>
					</clipitem>
					<clipitem id="clipitem-853">
						<masterclipid>masterclip-2</masterclipid>
						<name>chandrika rocket equations</name>
						<start>56603</start>
						<end>56683</end>
						<in>97464</in>
						<out>97544</out>
						<file id="file-1" />
						<link>
							<linkclipref>clipitem-853</linkclipref>
							<mediatype>video</mediatype>
							<trackindex>1</trackindex>
							<clipindex>853</clipindex>
						</link>
						<link>
							<linkclipref>clipitem-1888</linkclipref>
							<mediatype>audio</mediatype>
							<trackindex>1</trackindex>
							<clipindex>853</clipindex>
							<groupindex>1</groupindex>
						</link>
					</clipitem>
					<clipitem id="clipitem-854">
						<masterclipid>masterclip-2</masterclipid>
						<name>chandrika rocket equations</name>
						<start>56683</start>
						<end>56705</end>
						<in>97612</in>
						<out>97634</out>
						<file id="file-1" />
						<link>
							<linkclipref>clipitem-854</linkclipref>
							<mediatype>video</mediatype>
							<trackindex>1</trackindex>
							<clipindex>854</clipindex>
						</link>
						<link>
							<linkclipref>clipitem-1889</linkclipref>
							<mediatype>audio</mediatype>
							<trackindex>1</trackindex>
							<clipindex>854</clipindex>
							<groupindex>1</groupindex>
						</link>
					</clipitem>
					<clipitem id="clipitem-855">
						<masterclipid>masterclip-2</masterclipid>
						<name>chandrika rocket equations</name>
						<start>56705</start>
						<end>56728</end>
						<in>97648</in>
						<out>97671</out>
						<file id="file-1" />
						<link>
							<linkclipref>clipitem-855</linkclipref>
							<mediatype>video</mediatype>
							<trackindex>1</trackindex>
							<clipindex>855</clipindex>
						</link>
						<link>
							<linkclipref>clipitem-1890</linkclipref>
							<mediatype>audio</mediatype>
							<trackindex>1</trackindex>
							<clipindex>855</clipindex>
							<groupindex>1</groupindex>
						</link>
					</clipitem>
					<clipitem id="clipitem-856">
						<masterclipid>masterclip-2</masterclipid>
						<name>chandrika rocket equations</name>
						<start>56728</start>
						<end>56836</end>
						<in>97762</in>
						<out>97870</out>
						<file id="file-1" />
						<link>
							<linkclipref>clipitem-856</linkclipref>
							<mediatype>video</mediatype>
							<trackindex>1</trackindex>
							<clipindex>856</clipindex>
						</link>
						<link>
							<linkclipref>clipitem-1891</linkclipref>
							<mediatype>audio</mediatype>
							<trackindex>1</trackindex>
							<clipindex>856</clipindex>
							<groupindex>1</groupindex>
						</link>
					</clipitem>
					<clipitem id="clipitem-857">
						<masterclipid>masterclip-2</masterclipid>
						<name>chandrika rocket equations</name>
						<start>56836</start>
						<end>57022</end>
						<in>97972</in>
						<out>98158</out>
						<file id="file-1" />
						<link>
							<linkclipref>clipitem-857</linkclipref>
							<mediatype>video</mediatype>
							<trackindex>1</trackindex>
							<clipindex>857</clipindex>
						</link>
						<link>
							<linkclipref>clipitem-1892</linkclipref>
							<mediatype>audio</mediatype>
							<trackindex>1</trackindex>
							<clipindex>857</clipindex>
							<groupindex>1</groupindex>
						</link>
					</clipitem>
					<clipitem id="clipitem-858">
						<masterclipid>masterclip-2</masterclipid>
						<name>chandrika rocket equations</name>
						<start>57022</start>
						<end>57067</end>
						<in>98183</in>
						<out>98228</out>
						<file id="file-1" />
						<link>
							<linkclipref>clipitem-858</linkclipref>
							<mediatype>video</mediatype>
							<trackindex>1</trackindex>
							<clipindex>858</clipindex>
						</link>
						<link>
							<linkclipref>clipitem-1893</linkclipref>
							<mediatype>audio</mediatype>
							<trackindex>1</trackindex>
							<clipindex>858</clipindex>
							<groupindex>1</groupindex>
						</link>
					</clipitem>
					<clipitem id="clipitem-859">
						<masterclipid>masterclip-2</masterclipid>
						<name>chandrika rocket equations</name>
						<start>57067</start>
						<end>57149</end>
						<in>98260</in>
						<out>98342</out>
						<file id="file-1" />
						<link>
							<linkclipref>clipitem-859</linkclipref>
							<mediatype>video</mediatype>
							<trackindex>1</trackindex>
							<clipindex>859</clipindex>
						</link>
						<link>
							<linkclipref>clipitem-1894</linkclipref>
							<mediatype>audio</mediatype>
							<trackindex>1</trackindex>
							<clipindex>859</clipindex>
							<groupindex>1</groupindex>
						</link>
					</clipitem>
					<clipitem id="clipitem-860">
						<masterclipid>masterclip-2</masterclipid>
						<name>chandrika rocket equations</name>
						<start>57149</start>
						<end>57304</end>
						<in>98450</in>
						<out>98605</out>
						<file id="file-1" />
						<link>
							<linkclipref>clipitem-860</linkclipref>
							<mediatype>video</mediatype>
							<trackindex>1</trackindex>
							<clipindex>860</clipindex>
						</link>
						<link>
							<linkclipref>clipitem-1895</linkclipref>
							<mediatype>audio</mediatype>
							<trackindex>1</trackindex>
							<clipindex>860</clipindex>
							<groupindex>1</groupindex>
						</link>
					</clipitem>
					<clipitem id="clipitem-861">
						<masterclipid>masterclip-2</masterclipid>
						<name>chandrika rocket equations</name>
						<start>57304</start>
						<end>57326</end>
						<in>98650</in>
						<out>98672</out>
						<file id="file-1" />
						<link>
							<linkclipref>clipitem-861</linkclipref>
							<mediatype>video</mediatype>
							<trackindex>1</trackindex>
							<clipindex>861</clipindex>
						</link>
						<link>
							<linkclipref>clipitem-1896</linkclipref>
							<mediatype>audio</mediatype>
							<trackindex>1</trackindex>
							<clipindex>861</clipindex>
							<groupindex>1</groupindex>
						</link>
					</clipitem>
					<clipitem id="clipitem-862">
						<masterclipid>masterclip-2</masterclipid>
						<name>chandrika rocket equations</name>
						<start>57326</start>
						<end>57409</end>
						<in>98709</in>
						<out>98792</out>
						<file id="file-1" />
						<link>
							<linkclipref>clipitem-862</linkclipref>
							<mediatype>video</mediatype>
							<trackindex>1</trackindex>
							<clipindex>862</clipindex>
						</link>
						<link>
							<linkclipref>clipitem-1897</linkclipref>
							<mediatype>audio</mediatype>
							<trackindex>1</trackindex>
							<clipindex>862</clipindex>
							<groupindex>1</groupindex>
						</link>
					</clipitem>
					<clipitem id="clipitem-863">
						<masterclipid>masterclip-2</masterclipid>
						<name>chandrika rocket equations</name>
						<start>57409</start>
						<end>57430</end>
						<in>98797</in>
						<out>98818</out>
						<file id="file-1" />
						<link>
							<linkclipref>clipitem-863</linkclipref>
							<mediatype>video</mediatype>
							<trackindex>1</trackindex>
							<clipindex>863</clipindex>
						</link>
						<link>
							<linkclipref>clipitem-1898</linkclipref>
							<mediatype>audio</mediatype>
							<trackindex>1</trackindex>
							<clipindex>863</clipindex>
							<groupindex>1</groupindex>
						</link>
					</clipitem>
					<clipitem id="clipitem-864">
						<masterclipid>masterclip-2</masterclipid>
						<name>chandrika rocket equations</name>
						<start>57430</start>
						<end>57445</end>
						<in>98819</in>
						<out>98834</out>
						<file id="file-1" />
						<link>
							<linkclipref>clipitem-864</linkclipref>
							<mediatype>video</mediatype>
							<trackindex>1</trackindex>
							<clipindex>864</clipindex>
						</link>
						<link>
							<linkclipref>clipitem-1899</linkclipref>
							<mediatype>audio</mediatype>
							<trackindex>1</trackindex>
							<clipindex>864</clipindex>
							<groupindex>1</groupindex>
						</link>
					</clipitem>
					<clipitem id="clipitem-865">
						<masterclipid>masterclip-2</masterclipid>
						<name>chandrika rocket equations</name>
						<start>57445</start>
						<end>57583</end>
						<in>98859</in>
						<out>98997</out>
						<file id="file-1" />
						<link>
							<linkclipref>clipitem-865</linkclipref>
							<mediatype>video</mediatype>
							<trackindex>1</trackindex>
							<clipindex>865</clipindex>
						</link>
						<link>
							<linkclipref>clipitem-1900</linkclipref>
							<mediatype>audio</mediatype>
							<trackindex>1</trackindex>
							<clipindex>865</clipindex>
							<groupindex>1</groupindex>
						</link>
					</clipitem>
					<clipitem id="clipitem-866">
						<masterclipid>masterclip-2</masterclipid>
						<name>chandrika rocket equations</name>
						<start>57583</start>
						<end>57600</end>
						<in>99002</in>
						<out>99019</out>
						<file id="file-1" />
						<link>
							<linkclipref>clipitem-866</linkclipref>
							<mediatype>video</mediatype>
							<trackindex>1</trackindex>
							<clipindex>866</clipindex>
						</link>
						<link>
							<linkclipref>clipitem-1901</linkclipref>
							<mediatype>audio</mediatype>
							<trackindex>1</trackindex>
							<clipindex>866</clipindex>
							<groupindex>1</groupindex>
						</link>
					</clipitem>
					<clipitem id="clipitem-867">
						<masterclipid>masterclip-2</masterclipid>
						<name>chandrika rocket equations</name>
						<start>57600</start>
						<end>57617</end>
						<in>99094</in>
						<out>99111</out>
						<file id="file-1" />
						<link>
							<linkclipref>clipitem-867</linkclipref>
							<mediatype>video</mediatype>
							<trackindex>1</trackindex>
							<clipindex>867</clipindex>
						</link>
						<link>
							<linkclipref>clipitem-1902</linkclipref>
							<mediatype>audio</mediatype>
							<trackindex>1</trackindex>
							<clipindex>867</clipindex>
							<groupindex>1</groupindex>
						</link>
					</clipitem>
					<clipitem id="clipitem-868">
						<masterclipid>masterclip-2</masterclipid>
						<name>chandrika rocket equations</name>
						<start>57617</start>
						<end>57694</end>
						<in>99145</in>
						<out>99222</out>
						<file id="file-1" />
						<link>
							<linkclipref>clipitem-868</linkclipref>
							<mediatype>video</mediatype>
							<trackindex>1</trackindex>
							<clipindex>868</clipindex>
						</link>
						<link>
							<linkclipref>clipitem-1903</linkclipref>
							<mediatype>audio</mediatype>
							<trackindex>1</trackindex>
							<clipindex>868</clipindex>
							<groupindex>1</groupindex>
						</link>
					</clipitem>
					<clipitem id="clipitem-869">
						<masterclipid>masterclip-2</masterclipid>
						<name>chandrika rocket equations</name>
						<start>57694</start>
						<end>57718</end>
						<in>99234</in>
						<out>99258</out>
						<file id="file-1" />
						<link>
							<linkclipref>clipitem-869</linkclipref>
							<mediatype>video</mediatype>
							<trackindex>1</trackindex>
							<clipindex>869</clipindex>
						</link>
						<link>
							<linkclipref>clipitem-1904</linkclipref>
							<mediatype>audio</mediatype>
							<trackindex>1</trackindex>
							<clipindex>869</clipindex>
							<groupindex>1</groupindex>
						</link>
					</clipitem>
					<clipitem id="clipitem-870">
						<masterclipid>masterclip-2</masterclipid>
						<name>chandrika rocket equations</name>
						<start>57718</start>
						<end>57904</end>
						<in>99306</in>
						<out>99492</out>
						<file id="file-1" />
						<link>
							<linkclipref>clipitem-870</linkclipref>
							<mediatype>video</mediatype>
							<trackindex>1</trackindex>
							<clipindex>870</clipindex>
						</link>
						<link>
							<linkclipref>clipitem-1905</linkclipref>
							<mediatype>audio</mediatype>
							<trackindex>1</trackindex>
							<clipindex>870</clipindex>
							<groupindex>1</groupindex>
						</link>
					</clipitem>
					<clipitem id="clipitem-871">
						<masterclipid>masterclip-2</masterclipid>
						<name>chandrika rocket equations</name>
						<start>57904</start>
						<end>57926</end>
						<in>99499</in>
						<out>99521</out>
						<file id="file-1" />
						<link>
							<linkclipref>clipitem-871</linkclipref>
							<mediatype>video</mediatype>
							<trackindex>1</trackindex>
							<clipindex>871</clipindex>
						</link>
						<link>
							<linkclipref>clipitem-1906</linkclipref>
							<mediatype>audio</mediatype>
							<trackindex>1</trackindex>
							<clipindex>871</clipindex>
							<groupindex>1</groupindex>
						</link>
					</clipitem>
					<clipitem id="clipitem-872">
						<masterclipid>masterclip-2</masterclipid>
						<name>chandrika rocket equations</name>
						<start>57926</start>
						<end>58096</end>
						<in>99550</in>
						<out>99720</out>
						<file id="file-1" />
						<link>
							<linkclipref>clipitem-872</linkclipref>
							<mediatype>video</mediatype>
							<trackindex>1</trackindex>
							<clipindex>872</clipindex>
						</link>
						<link>
							<linkclipref>clipitem-1907</linkclipref>
							<mediatype>audio</mediatype>
							<trackindex>1</trackindex>
							<clipindex>872</clipindex>
							<groupindex>1</groupindex>
						</link>
					</clipitem>
					<clipitem id="clipitem-873">
						<masterclipid>masterclip-2</masterclipid>
						<name>chandrika rocket equations</name>
						<start>58096</start>
						<end>58202</end>
						<in>99755</in>
						<out>99861</out>
						<file id="file-1" />
						<link>
							<linkclipref>clipitem-873</linkclipref>
							<mediatype>video</mediatype>
							<trackindex>1</trackindex>
							<clipindex>873</clipindex>
						</link>
						<link>
							<linkclipref>clipitem-1908</linkclipref>
							<mediatype>audio</mediatype>
							<trackindex>1</trackindex>
							<clipindex>873</clipindex>
							<groupindex>1</groupindex>
						</link>
					</clipitem>
					<clipitem id="clipitem-874">
						<masterclipid>masterclip-2</masterclipid>
						<name>chandrika rocket equations</name>
						<start>58202</start>
						<end>58282</end>
						<in>99917</in>
						<out>99997</out>
						<file id="file-1" />
						<link>
							<linkclipref>clipitem-874</linkclipref>
							<mediatype>video</mediatype>
							<trackindex>1</trackindex>
							<clipindex>874</clipindex>
						</link>
						<link>
							<linkclipref>clipitem-1909</linkclipref>
							<mediatype>audio</mediatype>
							<trackindex>1</trackindex>
							<clipindex>874</clipindex>
							<groupindex>1</groupindex>
						</link>
					</clipitem>
					<clipitem id="clipitem-875">
						<masterclipid>masterclip-2</masterclipid>
						<name>chandrika rocket equations</name>
						<start>58282</start>
						<end>58344</end>
						<in>100056</in>
						<out>100118</out>
						<file id="file-1" />
						<link>
							<linkclipref>clipitem-875</linkclipref>
							<mediatype>video</mediatype>
							<trackindex>1</trackindex>
							<clipindex>875</clipindex>
						</link>
						<link>
							<linkclipref>clipitem-1910</linkclipref>
							<mediatype>audio</mediatype>
							<trackindex>1</trackindex>
							<clipindex>875</clipindex>
							<groupindex>1</groupindex>
						</link>
					</clipitem>
					<clipitem id="clipitem-876">
						<masterclipid>masterclip-2</masterclipid>
						<name>chandrika rocket equations</name>
						<start>58344</start>
						<end>58360</end>
						<in>100195</in>
						<out>100211</out>
						<file id="file-1" />
						<link>
							<linkclipref>clipitem-876</linkclipref>
							<mediatype>video</mediatype>
							<trackindex>1</trackindex>
							<clipindex>876</clipindex>
						</link>
						<link>
							<linkclipref>clipitem-1911</linkclipref>
							<mediatype>audio</mediatype>
							<trackindex>1</trackindex>
							<clipindex>876</clipindex>
							<groupindex>1</groupindex>
						</link>
					</clipitem>
					<clipitem id="clipitem-877">
						<masterclipid>masterclip-2</masterclipid>
						<name>chandrika rocket equations</name>
						<start>58360</start>
						<end>58401</end>
						<in>100216</in>
						<out>100257</out>
						<file id="file-1" />
						<link>
							<linkclipref>clipitem-877</linkclipref>
							<mediatype>video</mediatype>
							<trackindex>1</trackindex>
							<clipindex>877</clipindex>
						</link>
						<link>
							<linkclipref>clipitem-1912</linkclipref>
							<mediatype>audio</mediatype>
							<trackindex>1</trackindex>
							<clipindex>877</clipindex>
							<groupindex>1</groupindex>
						</link>
					</clipitem>
					<clipitem id="clipitem-878">
						<masterclipid>masterclip-2</masterclipid>
						<name>chandrika rocket equations</name>
						<start>58401</start>
						<end>58465</end>
						<in>100276</in>
						<out>100340</out>
						<file id="file-1" />
						<link>
							<linkclipref>clipitem-878</linkclipref>
							<mediatype>video</mediatype>
							<trackindex>1</trackindex>
							<clipindex>878</clipindex>
						</link>
						<link>
							<linkclipref>clipitem-1913</linkclipref>
							<mediatype>audio</mediatype>
							<trackindex>1</trackindex>
							<clipindex>878</clipindex>
							<groupindex>1</groupindex>
						</link>
					</clipitem>
					<clipitem id="clipitem-879">
						<masterclipid>masterclip-2</masterclipid>
						<name>chandrika rocket equations</name>
						<start>58465</start>
						<end>58594</end>
						<in>100368</in>
						<out>100497</out>
						<file id="file-1" />
						<link>
							<linkclipref>clipitem-879</linkclipref>
							<mediatype>video</mediatype>
							<trackindex>1</trackindex>
							<clipindex>879</clipindex>
						</link>
						<link>
							<linkclipref>clipitem-1914</linkclipref>
							<mediatype>audio</mediatype>
							<trackindex>1</trackindex>
							<clipindex>879</clipindex>
							<groupindex>1</groupindex>
						</link>
					</clipitem>
					<clipitem id="clipitem-880">
						<masterclipid>masterclip-2</masterclipid>
						<name>chandrika rocket equations</name>
						<start>58594</start>
						<end>58787</end>
						<in>100614</in>
						<out>100807</out>
						<file id="file-1" />
						<link>
							<linkclipref>clipitem-880</linkclipref>
							<mediatype>video</mediatype>
							<trackindex>1</trackindex>
							<clipindex>880</clipindex>
						</link>
						<link>
							<linkclipref>clipitem-1915</linkclipref>
							<mediatype>audio</mediatype>
							<trackindex>1</trackindex>
							<clipindex>880</clipindex>
							<groupindex>1</groupindex>
						</link>
					</clipitem>
					<clipitem id="clipitem-881">
						<masterclipid>masterclip-2</masterclipid>
						<name>chandrika rocket equations</name>
						<start>58787</start>
						<end>58842</end>
						<in>100861</in>
						<out>100916</out>
						<file id="file-1" />
						<link>
							<linkclipref>clipitem-881</linkclipref>
							<mediatype>video</mediatype>
							<trackindex>1</trackindex>
							<clipindex>881</clipindex>
						</link>
						<link>
							<linkclipref>clipitem-1916</linkclipref>
							<mediatype>audio</mediatype>
							<trackindex>1</trackindex>
							<clipindex>881</clipindex>
							<groupindex>1</groupindex>
						</link>
					</clipitem>
					<clipitem id="clipitem-882">
						<masterclipid>masterclip-2</masterclipid>
						<name>chandrika rocket equations</name>
						<start>58842</start>
						<end>58898</end>
						<in>100956</in>
						<out>101012</out>
						<file id="file-1" />
						<link>
							<linkclipref>clipitem-882</linkclipref>
							<mediatype>video</mediatype>
							<trackindex>1</trackindex>
							<clipindex>882</clipindex>
						</link>
						<link>
							<linkclipref>clipitem-1917</linkclipref>
							<mediatype>audio</mediatype>
							<trackindex>1</trackindex>
							<clipindex>882</clipindex>
							<groupindex>1</groupindex>
						</link>
					</clipitem>
					<clipitem id="clipitem-883">
						<masterclipid>masterclip-2</masterclipid>
						<name>chandrika rocket equations</name>
						<start>58898</start>
						<end>58945</end>
						<in>101022</in>
						<out>101069</out>
						<file id="file-1" />
						<link>
							<linkclipref>clipitem-883</linkclipref>
							<mediatype>video</mediatype>
							<trackindex>1</trackindex>
							<clipindex>883</clipindex>
						</link>
						<link>
							<linkclipref>clipitem-1918</linkclipref>
							<mediatype>audio</mediatype>
							<trackindex>1</trackindex>
							<clipindex>883</clipindex>
							<groupindex>1</groupindex>
						</link>
					</clipitem>
					<clipitem id="clipitem-884">
						<masterclipid>masterclip-2</masterclipid>
						<name>chandrika rocket equations</name>
						<start>58945</start>
						<end>59082</end>
						<in>101114</in>
						<out>101251</out>
						<file id="file-1" />
						<link>
							<linkclipref>clipitem-884</linkclipref>
							<mediatype>video</mediatype>
							<trackindex>1</trackindex>
							<clipindex>884</clipindex>
						</link>
						<link>
							<linkclipref>clipitem-1919</linkclipref>
							<mediatype>audio</mediatype>
							<trackindex>1</trackindex>
							<clipindex>884</clipindex>
							<groupindex>1</groupindex>
						</link>
					</clipitem>
					<clipitem id="clipitem-885">
						<masterclipid>masterclip-2</masterclipid>
						<name>chandrika rocket equations</name>
						<start>59082</start>
						<end>59171</end>
						<in>101292</in>
						<out>101381</out>
						<file id="file-1" />
						<link>
							<linkclipref>clipitem-885</linkclipref>
							<mediatype>video</mediatype>
							<trackindex>1</trackindex>
							<clipindex>885</clipindex>
						</link>
						<link>
							<linkclipref>clipitem-1920</linkclipref>
							<mediatype>audio</mediatype>
							<trackindex>1</trackindex>
							<clipindex>885</clipindex>
							<groupindex>1</groupindex>
						</link>
					</clipitem>
					<clipitem id="clipitem-886">
						<masterclipid>masterclip-2</masterclipid>
						<name>chandrika rocket equations</name>
						<start>59171</start>
						<end>59198</end>
						<in>101386</in>
						<out>101413</out>
						<file id="file-1" />
						<link>
							<linkclipref>clipitem-886</linkclipref>
							<mediatype>video</mediatype>
							<trackindex>1</trackindex>
							<clipindex>886</clipindex>
						</link>
						<link>
							<linkclipref>clipitem-1921</linkclipref>
							<mediatype>audio</mediatype>
							<trackindex>1</trackindex>
							<clipindex>886</clipindex>
							<groupindex>1</groupindex>
						</link>
					</clipitem>
					<clipitem id="clipitem-887">
						<masterclipid>masterclip-2</masterclipid>
						<name>chandrika rocket equations</name>
						<start>59198</start>
						<end>59307</end>
						<in>101433</in>
						<out>101542</out>
						<file id="file-1" />
						<link>
							<linkclipref>clipitem-887</linkclipref>
							<mediatype>video</mediatype>
							<trackindex>1</trackindex>
							<clipindex>887</clipindex>
						</link>
						<link>
							<linkclipref>clipitem-1922</linkclipref>
							<mediatype>audio</mediatype>
							<trackindex>1</trackindex>
							<clipindex>887</clipindex>
							<groupindex>1</groupindex>
						</link>
					</clipitem>
					<clipitem id="clipitem-888">
						<masterclipid>masterclip-2</masterclipid>
						<name>chandrika rocket equations</name>
						<start>59307</start>
						<end>59484</end>
						<in>101547</in>
						<out>101724</out>
						<file id="file-1" />
						<link>
							<linkclipref>clipitem-888</linkclipref>
							<mediatype>video</mediatype>
							<trackindex>1</trackindex>
							<clipindex>888</clipindex>
						</link>
						<link>
							<linkclipref>clipitem-1923</linkclipref>
							<mediatype>audio</mediatype>
							<trackindex>1</trackindex>
							<clipindex>888</clipindex>
							<groupindex>1</groupindex>
						</link>
					</clipitem>
					<clipitem id="clipitem-889">
						<masterclipid>masterclip-2</masterclipid>
						<name>chandrika rocket equations</name>
						<start>59484</start>
						<end>59575</end>
						<in>101765</in>
						<out>101856</out>
						<file id="file-1" />
						<link>
							<linkclipref>clipitem-889</linkclipref>
							<mediatype>video</mediatype>
							<trackindex>1</trackindex>
							<clipindex>889</clipindex>
						</link>
						<link>
							<linkclipref>clipitem-1924</linkclipref>
							<mediatype>audio</mediatype>
							<trackindex>1</trackindex>
							<clipindex>889</clipindex>
							<groupindex>1</groupindex>
						</link>
					</clipitem>
					<clipitem id="clipitem-890">
						<masterclipid>masterclip-2</masterclipid>
						<name>chandrika rocket equations</name>
						<start>59575</start>
						<end>59598</end>
						<in>101874</in>
						<out>101897</out>
						<file id="file-1" />
						<link>
							<linkclipref>clipitem-890</linkclipref>
							<mediatype>video</mediatype>
							<trackindex>1</trackindex>
							<clipindex>890</clipindex>
						</link>
						<link>
							<linkclipref>clipitem-1925</linkclipref>
							<mediatype>audio</mediatype>
							<trackindex>1</trackindex>
							<clipindex>890</clipindex>
							<groupindex>1</groupindex>
						</link>
					</clipitem>
					<clipitem id="clipitem-891">
						<masterclipid>masterclip-2</masterclipid>
						<name>chandrika rocket equations</name>
						<start>59598</start>
						<end>59677</end>
						<in>101905</in>
						<out>101984</out>
						<file id="file-1" />
						<link>
							<linkclipref>clipitem-891</linkclipref>
							<mediatype>video</mediatype>
							<trackindex>1</trackindex>
							<clipindex>891</clipindex>
						</link>
						<link>
							<linkclipref>clipitem-1926</linkclipref>
							<mediatype>audio</mediatype>
							<trackindex>1</trackindex>
							<clipindex>891</clipindex>
							<groupindex>1</groupindex>
						</link>
					</clipitem>
					<clipitem id="clipitem-892">
						<masterclipid>masterclip-2</masterclipid>
						<name>chandrika rocket equations</name>
						<start>59677</start>
						<end>59714</end>
						<in>102021</in>
						<out>102058</out>
						<file id="file-1" />
						<link>
							<linkclipref>clipitem-892</linkclipref>
							<mediatype>video</mediatype>
							<trackindex>1</trackindex>
							<clipindex>892</clipindex>
						</link>
						<link>
							<linkclipref>clipitem-1927</linkclipref>
							<mediatype>audio</mediatype>
							<trackindex>1</trackindex>
							<clipindex>892</clipindex>
							<groupindex>1</groupindex>
						</link>
					</clipitem>
					<clipitem id="clipitem-893">
						<masterclipid>masterclip-2</masterclipid>
						<name>chandrika rocket equations</name>
						<start>59714</start>
						<end>59843</end>
						<in>102077</in>
						<out>102206</out>
						<file id="file-1" />
						<link>
							<linkclipref>clipitem-893</linkclipref>
							<mediatype>video</mediatype>
							<trackindex>1</trackindex>
							<clipindex>893</clipindex>
						</link>
						<link>
							<linkclipref>clipitem-1928</linkclipref>
							<mediatype>audio</mediatype>
							<trackindex>1</trackindex>
							<clipindex>893</clipindex>
							<groupindex>1</groupindex>
						</link>
					</clipitem>
					<clipitem id="clipitem-894">
						<masterclipid>masterclip-2</masterclipid>
						<name>chandrika rocket equations</name>
						<start>59843</start>
						<end>59911</end>
						<in>102234</in>
						<out>102302</out>
						<file id="file-1" />
						<link>
							<linkclipref>clipitem-894</linkclipref>
							<mediatype>video</mediatype>
							<trackindex>1</trackindex>
							<clipindex>894</clipindex>
						</link>
						<link>
							<linkclipref>clipitem-1929</linkclipref>
							<mediatype>audio</mediatype>
							<trackindex>1</trackindex>
							<clipindex>894</clipindex>
							<groupindex>1</groupindex>
						</link>
					</clipitem>
					<clipitem id="clipitem-895">
						<masterclipid>masterclip-2</masterclipid>
						<name>chandrika rocket equations</name>
						<start>59911</start>
						<end>59932</end>
						<in>102332</in>
						<out>102353</out>
						<file id="file-1" />
						<link>
							<linkclipref>clipitem-895</linkclipref>
							<mediatype>video</mediatype>
							<trackindex>1</trackindex>
							<clipindex>895</clipindex>
						</link>
						<link>
							<linkclipref>clipitem-1930</linkclipref>
							<mediatype>audio</mediatype>
							<trackindex>1</trackindex>
							<clipindex>895</clipindex>
							<groupindex>1</groupindex>
						</link>
					</clipitem>
					<clipitem id="clipitem-896">
						<masterclipid>masterclip-2</masterclipid>
						<name>chandrika rocket equations</name>
						<start>59932</start>
						<end>59990</end>
						<in>102365</in>
						<out>102423</out>
						<file id="file-1" />
						<link>
							<linkclipref>clipitem-896</linkclipref>
							<mediatype>video</mediatype>
							<trackindex>1</trackindex>
							<clipindex>896</clipindex>
						</link>
						<link>
							<linkclipref>clipitem-1931</linkclipref>
							<mediatype>audio</mediatype>
							<trackindex>1</trackindex>
							<clipindex>896</clipindex>
							<groupindex>1</groupindex>
						</link>
					</clipitem>
					<clipitem id="clipitem-897">
						<masterclipid>masterclip-2</masterclipid>
						<name>chandrika rocket equations</name>
						<start>59990</start>
						<end>60053</end>
						<in>102607</in>
						<out>102670</out>
						<file id="file-1" />
						<link>
							<linkclipref>clipitem-897</linkclipref>
							<mediatype>video</mediatype>
							<trackindex>1</trackindex>
							<clipindex>897</clipindex>
						</link>
						<link>
							<linkclipref>clipitem-1932</linkclipref>
							<mediatype>audio</mediatype>
							<trackindex>1</trackindex>
							<clipindex>897</clipindex>
							<groupindex>1</groupindex>
						</link>
					</clipitem>
					<clipitem id="clipitem-898">
						<masterclipid>masterclip-2</masterclipid>
						<name>chandrika rocket equations</name>
						<start>60053</start>
						<end>60237</end>
						<in>102836</in>
						<out>103020</out>
						<file id="file-1" />
						<link>
							<linkclipref>clipitem-898</linkclipref>
							<mediatype>video</mediatype>
							<trackindex>1</trackindex>
							<clipindex>898</clipindex>
						</link>
						<link>
							<linkclipref>clipitem-1933</linkclipref>
							<mediatype>audio</mediatype>
							<trackindex>1</trackindex>
							<clipindex>898</clipindex>
							<groupindex>1</groupindex>
						</link>
					</clipitem>
					<clipitem id="clipitem-899">
						<masterclipid>masterclip-2</masterclipid>
						<name>chandrika rocket equations</name>
						<start>60237</start>
						<end>60319</end>
						<in>103047</in>
						<out>103129</out>
						<file id="file-1" />
						<link>
							<linkclipref>clipitem-899</linkclipref>
							<mediatype>video</mediatype>
							<trackindex>1</trackindex>
							<clipindex>899</clipindex>
						</link>
						<link>
							<linkclipref>clipitem-1934</linkclipref>
							<mediatype>audio</mediatype>
							<trackindex>1</trackindex>
							<clipindex>899</clipindex>
							<groupindex>1</groupindex>
						</link>
					</clipitem>
					<clipitem id="clipitem-900">
						<masterclipid>masterclip-2</masterclipid>
						<name>chandrika rocket equations</name>
						<start>60319</start>
						<end>60370</end>
						<in>103157</in>
						<out>103208</out>
						<file id="file-1" />
						<link>
							<linkclipref>clipitem-900</linkclipref>
							<mediatype>video</mediatype>
							<trackindex>1</trackindex>
							<clipindex>900</clipindex>
						</link>
						<link>
							<linkclipref>clipitem-1935</linkclipref>
							<mediatype>audio</mediatype>
							<trackindex>1</trackindex>
							<clipindex>900</clipindex>
							<groupindex>1</groupindex>
						</link>
					</clipitem>
					<clipitem id="clipitem-901">
						<masterclipid>masterclip-2</masterclipid>
						<name>chandrika rocket equations</name>
						<start>60370</start>
						<end>60422</end>
						<in>103235</in>
						<out>103287</out>
						<file id="file-1" />
						<link>
							<linkclipref>clipitem-901</linkclipref>
							<mediatype>video</mediatype>
							<trackindex>1</trackindex>
							<clipindex>901</clipindex>
						</link>
						<link>
							<linkclipref>clipitem-1936</linkclipref>
							<mediatype>audio</mediatype>
							<trackindex>1</trackindex>
							<clipindex>901</clipindex>
							<groupindex>1</groupindex>
						</link>
					</clipitem>
					<clipitem id="clipitem-902">
						<masterclipid>masterclip-2</masterclipid>
						<name>chandrika rocket equations</name>
						<start>60422</start>
						<end>60550</end>
						<in>103310</in>
						<out>103438</out>
						<file id="file-1" />
						<link>
							<linkclipref>clipitem-902</linkclipref>
							<mediatype>video</mediatype>
							<trackindex>1</trackindex>
							<clipindex>902</clipindex>
						</link>
						<link>
							<linkclipref>clipitem-1937</linkclipref>
							<mediatype>audio</mediatype>
							<trackindex>1</trackindex>
							<clipindex>902</clipindex>
							<groupindex>1</groupindex>
						</link>
					</clipitem>
					<clipitem id="clipitem-903">
						<masterclipid>masterclip-2</masterclipid>
						<name>chandrika rocket equations</name>
						<start>60550</start>
						<end>60567</end>
						<in>103487</in>
						<out>103504</out>
						<file id="file-1" />
						<link>
							<linkclipref>clipitem-903</linkclipref>
							<mediatype>video</mediatype>
							<trackindex>1</trackindex>
							<clipindex>903</clipindex>
						</link>
						<link>
							<linkclipref>clipitem-1938</linkclipref>
							<mediatype>audio</mediatype>
							<trackindex>1</trackindex>
							<clipindex>903</clipindex>
							<groupindex>1</groupindex>
						</link>
					</clipitem>
					<clipitem id="clipitem-904">
						<masterclipid>masterclip-2</masterclipid>
						<name>chandrika rocket equations</name>
						<start>60567</start>
						<end>60697</end>
						<in>103548</in>
						<out>103678</out>
						<file id="file-1" />
						<link>
							<linkclipref>clipitem-904</linkclipref>
							<mediatype>video</mediatype>
							<trackindex>1</trackindex>
							<clipindex>904</clipindex>
						</link>
						<link>
							<linkclipref>clipitem-1939</linkclipref>
							<mediatype>audio</mediatype>
							<trackindex>1</trackindex>
							<clipindex>904</clipindex>
							<groupindex>1</groupindex>
						</link>
					</clipitem>
					<clipitem id="clipitem-905">
						<masterclipid>masterclip-2</masterclipid>
						<name>chandrika rocket equations</name>
						<start>60697</start>
						<end>60780</end>
						<in>103700</in>
						<out>103783</out>
						<file id="file-1" />
						<link>
							<linkclipref>clipitem-905</linkclipref>
							<mediatype>video</mediatype>
							<trackindex>1</trackindex>
							<clipindex>905</clipindex>
						</link>
						<link>
							<linkclipref>clipitem-1940</linkclipref>
							<mediatype>audio</mediatype>
							<trackindex>1</trackindex>
							<clipindex>905</clipindex>
							<groupindex>1</groupindex>
						</link>
					</clipitem>
					<clipitem id="clipitem-906">
						<masterclipid>masterclip-2</masterclipid>
						<name>chandrika rocket equations</name>
						<start>60780</start>
						<end>60838</end>
						<in>103813</in>
						<out>103871</out>
						<file id="file-1" />
						<link>
							<linkclipref>clipitem-906</linkclipref>
							<mediatype>video</mediatype>
							<trackindex>1</trackindex>
							<clipindex>906</clipindex>
						</link>
						<link>
							<linkclipref>clipitem-1941</linkclipref>
							<mediatype>audio</mediatype>
							<trackindex>1</trackindex>
							<clipindex>906</clipindex>
							<groupindex>1</groupindex>
						</link>
					</clipitem>
					<clipitem id="clipitem-907">
						<masterclipid>masterclip-2</masterclipid>
						<name>chandrika rocket equations</name>
						<start>60838</start>
						<end>60973</end>
						<in>103940</in>
						<out>104075</out>
						<file id="file-1" />
						<link>
							<linkclipref>clipitem-907</linkclipref>
							<mediatype>video</mediatype>
							<trackindex>1</trackindex>
							<clipindex>907</clipindex>
						</link>
						<link>
							<linkclipref>clipitem-1942</linkclipref>
							<mediatype>audio</mediatype>
							<trackindex>1</trackindex>
							<clipindex>907</clipindex>
							<groupindex>1</groupindex>
						</link>
					</clipitem>
					<clipitem id="clipitem-908">
						<masterclipid>masterclip-2</masterclipid>
						<name>chandrika rocket equations</name>
						<start>60973</start>
						<end>61039</end>
						<in>104109</in>
						<out>104175</out>
						<file id="file-1" />
						<link>
							<linkclipref>clipitem-908</linkclipref>
							<mediatype>video</mediatype>
							<trackindex>1</trackindex>
							<clipindex>908</clipindex>
						</link>
						<link>
							<linkclipref>clipitem-1943</linkclipref>
							<mediatype>audio</mediatype>
							<trackindex>1</trackindex>
							<clipindex>908</clipindex>
							<groupindex>1</groupindex>
						</link>
					</clipitem>
					<clipitem id="clipitem-909">
						<masterclipid>masterclip-2</masterclipid>
						<name>chandrika rocket equations</name>
						<start>61039</start>
						<end>61109</end>
						<in>104195</in>
						<out>104265</out>
						<file id="file-1" />
						<link>
							<linkclipref>clipitem-909</linkclipref>
							<mediatype>video</mediatype>
							<trackindex>1</trackindex>
							<clipindex>909</clipindex>
						</link>
						<link>
							<linkclipref>clipitem-1944</linkclipref>
							<mediatype>audio</mediatype>
							<trackindex>1</trackindex>
							<clipindex>909</clipindex>
							<groupindex>1</groupindex>
						</link>
					</clipitem>
					<clipitem id="clipitem-910">
						<masterclipid>masterclip-2</masterclipid>
						<name>chandrika rocket equations</name>
						<start>61109</start>
						<end>61185</end>
						<in>104269</in>
						<out>104345</out>
						<file id="file-1" />
						<link>
							<linkclipref>clipitem-910</linkclipref>
							<mediatype>video</mediatype>
							<trackindex>1</trackindex>
							<clipindex>910</clipindex>
						</link>
						<link>
							<linkclipref>clipitem-1945</linkclipref>
							<mediatype>audio</mediatype>
							<trackindex>1</trackindex>
							<clipindex>910</clipindex>
							<groupindex>1</groupindex>
						</link>
					</clipitem>
					<clipitem id="clipitem-911">
						<masterclipid>masterclip-2</masterclipid>
						<name>chandrika rocket equations</name>
						<start>61185</start>
						<end>61220</end>
						<in>104387</in>
						<out>104422</out>
						<file id="file-1" />
						<link>
							<linkclipref>clipitem-911</linkclipref>
							<mediatype>video</mediatype>
							<trackindex>1</trackindex>
							<clipindex>911</clipindex>
						</link>
						<link>
							<linkclipref>clipitem-1946</linkclipref>
							<mediatype>audio</mediatype>
							<trackindex>1</trackindex>
							<clipindex>911</clipindex>
							<groupindex>1</groupindex>
						</link>
					</clipitem>
					<clipitem id="clipitem-912">
						<masterclipid>masterclip-2</masterclipid>
						<name>chandrika rocket equations</name>
						<start>61220</start>
						<end>61263</end>
						<in>104463</in>
						<out>104506</out>
						<file id="file-1" />
						<link>
							<linkclipref>clipitem-912</linkclipref>
							<mediatype>video</mediatype>
							<trackindex>1</trackindex>
							<clipindex>912</clipindex>
						</link>
						<link>
							<linkclipref>clipitem-1947</linkclipref>
							<mediatype>audio</mediatype>
							<trackindex>1</trackindex>
							<clipindex>912</clipindex>
							<groupindex>1</groupindex>
						</link>
					</clipitem>
					<clipitem id="clipitem-913">
						<masterclipid>masterclip-2</masterclipid>
						<name>chandrika rocket equations</name>
						<start>61263</start>
						<end>61301</end>
						<in>104508</in>
						<out>104546</out>
						<file id="file-1" />
						<link>
							<linkclipref>clipitem-913</linkclipref>
							<mediatype>video</mediatype>
							<trackindex>1</trackindex>
							<clipindex>913</clipindex>
						</link>
						<link>
							<linkclipref>clipitem-1948</linkclipref>
							<mediatype>audio</mediatype>
							<trackindex>1</trackindex>
							<clipindex>913</clipindex>
							<groupindex>1</groupindex>
						</link>
					</clipitem>
					<clipitem id="clipitem-914">
						<masterclipid>masterclip-2</masterclipid>
						<name>chandrika rocket equations</name>
						<start>61301</start>
						<end>61359</end>
						<in>104549</in>
						<out>104607</out>
						<file id="file-1" />
						<link>
							<linkclipref>clipitem-914</linkclipref>
							<mediatype>video</mediatype>
							<trackindex>1</trackindex>
							<clipindex>914</clipindex>
						</link>
						<link>
							<linkclipref>clipitem-1949</linkclipref>
							<mediatype>audio</mediatype>
							<trackindex>1</trackindex>
							<clipindex>914</clipindex>
							<groupindex>1</groupindex>
						</link>
					</clipitem>
					<clipitem id="clipitem-915">
						<masterclipid>masterclip-2</masterclipid>
						<name>chandrika rocket equations</name>
						<start>61359</start>
						<end>61401</end>
						<in>104659</in>
						<out>104701</out>
						<file id="file-1" />
						<link>
							<linkclipref>clipitem-915</linkclipref>
							<mediatype>video</mediatype>
							<trackindex>1</trackindex>
							<clipindex>915</clipindex>
						</link>
						<link>
							<linkclipref>clipitem-1950</linkclipref>
							<mediatype>audio</mediatype>
							<trackindex>1</trackindex>
							<clipindex>915</clipindex>
							<groupindex>1</groupindex>
						</link>
					</clipitem>
					<clipitem id="clipitem-916">
						<masterclipid>masterclip-2</masterclipid>
						<name>chandrika rocket equations</name>
						<start>61401</start>
						<end>61499</end>
						<in>104722</in>
						<out>104820</out>
						<file id="file-1" />
						<link>
							<linkclipref>clipitem-916</linkclipref>
							<mediatype>video</mediatype>
							<trackindex>1</trackindex>
							<clipindex>916</clipindex>
						</link>
						<link>
							<linkclipref>clipitem-1951</linkclipref>
							<mediatype>audio</mediatype>
							<trackindex>1</trackindex>
							<clipindex>916</clipindex>
							<groupindex>1</groupindex>
						</link>
					</clipitem>
					<clipitem id="clipitem-917">
						<masterclipid>masterclip-2</masterclipid>
						<name>chandrika rocket equations</name>
						<start>61499</start>
						<end>61529</end>
						<in>104831</in>
						<out>104861</out>
						<file id="file-1" />
						<link>
							<linkclipref>clipitem-917</linkclipref>
							<mediatype>video</mediatype>
							<trackindex>1</trackindex>
							<clipindex>917</clipindex>
						</link>
						<link>
							<linkclipref>clipitem-1952</linkclipref>
							<mediatype>audio</mediatype>
							<trackindex>1</trackindex>
							<clipindex>917</clipindex>
							<groupindex>1</groupindex>
						</link>
					</clipitem>
					<clipitem id="clipitem-918">
						<masterclipid>masterclip-2</masterclipid>
						<name>chandrika rocket equations</name>
						<start>61529</start>
						<end>61680</end>
						<in>104974</in>
						<out>105125</out>
						<file id="file-1" />
						<link>
							<linkclipref>clipitem-918</linkclipref>
							<mediatype>video</mediatype>
							<trackindex>1</trackindex>
							<clipindex>918</clipindex>
						</link>
						<link>
							<linkclipref>clipitem-1953</linkclipref>
							<mediatype>audio</mediatype>
							<trackindex>1</trackindex>
							<clipindex>918</clipindex>
							<groupindex>1</groupindex>
						</link>
					</clipitem>
					<clipitem id="clipitem-919">
						<masterclipid>masterclip-2</masterclipid>
						<name>chandrika rocket equations</name>
						<start>61680</start>
						<end>61731</end>
						<in>105128</in>
						<out>105179</out>
						<file id="file-1" />
						<link>
							<linkclipref>clipitem-919</linkclipref>
							<mediatype>video</mediatype>
							<trackindex>1</trackindex>
							<clipindex>919</clipindex>
						</link>
						<link>
							<linkclipref>clipitem-1954</linkclipref>
							<mediatype>audio</mediatype>
							<trackindex>1</trackindex>
							<clipindex>919</clipindex>
							<groupindex>1</groupindex>
						</link>
					</clipitem>
					<clipitem id="clipitem-920">
						<masterclipid>masterclip-2</masterclipid>
						<name>chandrika rocket equations</name>
						<start>61731</start>
						<end>61786</end>
						<in>105222</in>
						<out>105277</out>
						<file id="file-1" />
						<link>
							<linkclipref>clipitem-920</linkclipref>
							<mediatype>video</mediatype>
							<trackindex>1</trackindex>
							<clipindex>920</clipindex>
						</link>
						<link>
							<linkclipref>clipitem-1955</linkclipref>
							<mediatype>audio</mediatype>
							<trackindex>1</trackindex>
							<clipindex>920</clipindex>
							<groupindex>1</groupindex>
						</link>
					</clipitem>
					<clipitem id="clipitem-921">
						<masterclipid>masterclip-2</masterclipid>
						<name>chandrika rocket equations</name>
						<start>61786</start>
						<end>61875</end>
						<in>105284</in>
						<out>105373</out>
						<file id="file-1" />
						<link>
							<linkclipref>clipitem-921</linkclipref>
							<mediatype>video</mediatype>
							<trackindex>1</trackindex>
							<clipindex>921</clipindex>
						</link>
						<link>
							<linkclipref>clipitem-1956</linkclipref>
							<mediatype>audio</mediatype>
							<trackindex>1</trackindex>
							<clipindex>921</clipindex>
							<groupindex>1</groupindex>
						</link>
					</clipitem>
					<clipitem id="clipitem-922">
						<masterclipid>masterclip-2</masterclipid>
						<name>chandrika rocket equations</name>
						<start>61875</start>
						<end>61894</end>
						<in>105444</in>
						<out>105463</out>
						<file id="file-1" />
						<link>
							<linkclipref>clipitem-922</linkclipref>
							<mediatype>video</mediatype>
							<trackindex>1</trackindex>
							<clipindex>922</clipindex>
						</link>
						<link>
							<linkclipref>clipitem-1957</linkclipref>
							<mediatype>audio</mediatype>
							<trackindex>1</trackindex>
							<clipindex>922</clipindex>
							<groupindex>1</groupindex>
						</link>
					</clipitem>
					<clipitem id="clipitem-923">
						<masterclipid>masterclip-2</masterclipid>
						<name>chandrika rocket equations</name>
						<start>61894</start>
						<end>61968</end>
						<in>105472</in>
						<out>105546</out>
						<file id="file-1" />
						<link>
							<linkclipref>clipitem-923</linkclipref>
							<mediatype>video</mediatype>
							<trackindex>1</trackindex>
							<clipindex>923</clipindex>
						</link>
						<link>
							<linkclipref>clipitem-1958</linkclipref>
							<mediatype>audio</mediatype>
							<trackindex>1</trackindex>
							<clipindex>923</clipindex>
							<groupindex>1</groupindex>
						</link>
					</clipitem>
					<clipitem id="clipitem-924">
						<masterclipid>masterclip-2</masterclipid>
						<name>chandrika rocket equations</name>
						<start>61968</start>
						<end>62101</end>
						<in>105570</in>
						<out>105703</out>
						<file id="file-1" />
						<link>
							<linkclipref>clipitem-924</linkclipref>
							<mediatype>video</mediatype>
							<trackindex>1</trackindex>
							<clipindex>924</clipindex>
						</link>
						<link>
							<linkclipref>clipitem-1959</linkclipref>
							<mediatype>audio</mediatype>
							<trackindex>1</trackindex>
							<clipindex>924</clipindex>
							<groupindex>1</groupindex>
						</link>
					</clipitem>
					<clipitem id="clipitem-925">
						<masterclipid>masterclip-2</masterclipid>
						<name>chandrika rocket equations</name>
						<start>62101</start>
						<end>62222</end>
						<in>105719</in>
						<out>105840</out>
						<file id="file-1" />
						<link>
							<linkclipref>clipitem-925</linkclipref>
							<mediatype>video</mediatype>
							<trackindex>1</trackindex>
							<clipindex>925</clipindex>
						</link>
						<link>
							<linkclipref>clipitem-1960</linkclipref>
							<mediatype>audio</mediatype>
							<trackindex>1</trackindex>
							<clipindex>925</clipindex>
							<groupindex>1</groupindex>
						</link>
					</clipitem>
					<clipitem id="clipitem-926">
						<masterclipid>masterclip-2</masterclipid>
						<name>chandrika rocket equations</name>
						<start>62222</start>
						<end>62260</end>
						<in>105850</in>
						<out>105888</out>
						<file id="file-1" />
						<link>
							<linkclipref>clipitem-926</linkclipref>
							<mediatype>video</mediatype>
							<trackindex>1</trackindex>
							<clipindex>926</clipindex>
						</link>
						<link>
							<linkclipref>clipitem-1961</linkclipref>
							<mediatype>audio</mediatype>
							<trackindex>1</trackindex>
							<clipindex>926</clipindex>
							<groupindex>1</groupindex>
						</link>
					</clipitem>
					<clipitem id="clipitem-927">
						<masterclipid>masterclip-2</masterclipid>
						<name>chandrika rocket equations</name>
						<start>62260</start>
						<end>62298</end>
						<in>105937</in>
						<out>105975</out>
						<file id="file-1" />
						<link>
							<linkclipref>clipitem-927</linkclipref>
							<mediatype>video</mediatype>
							<trackindex>1</trackindex>
							<clipindex>927</clipindex>
						</link>
						<link>
							<linkclipref>clipitem-1962</linkclipref>
							<mediatype>audio</mediatype>
							<trackindex>1</trackindex>
							<clipindex>927</clipindex>
							<groupindex>1</groupindex>
						</link>
					</clipitem>
					<clipitem id="clipitem-928">
						<masterclipid>masterclip-2</masterclipid>
						<name>chandrika rocket equations</name>
						<start>62298</start>
						<end>62410</end>
						<in>105986</in>
						<out>106098</out>
						<file id="file-1" />
						<link>
							<linkclipref>clipitem-928</linkclipref>
							<mediatype>video</mediatype>
							<trackindex>1</trackindex>
							<clipindex>928</clipindex>
						</link>
						<link>
							<linkclipref>clipitem-1963</linkclipref>
							<mediatype>audio</mediatype>
							<trackindex>1</trackindex>
							<clipindex>928</clipindex>
							<groupindex>1</groupindex>
						</link>
					</clipitem>
					<clipitem id="clipitem-929">
						<masterclipid>masterclip-2</masterclipid>
						<name>chandrika rocket equations</name>
						<start>62410</start>
						<end>62590</end>
						<in>106140</in>
						<out>106320</out>
						<file id="file-1" />
						<link>
							<linkclipref>clipitem-929</linkclipref>
							<mediatype>video</mediatype>
							<trackindex>1</trackindex>
							<clipindex>929</clipindex>
						</link>
						<link>
							<linkclipref>clipitem-1964</linkclipref>
							<mediatype>audio</mediatype>
							<trackindex>1</trackindex>
							<clipindex>929</clipindex>
							<groupindex>1</groupindex>
						</link>
					</clipitem>
					<clipitem id="clipitem-930">
						<masterclipid>masterclip-2</masterclipid>
						<name>chandrika rocket equations</name>
						<start>62590</start>
						<end>62606</end>
						<in>106449</in>
						<out>106465</out>
						<file id="file-1" />
						<link>
							<linkclipref>clipitem-930</linkclipref>
							<mediatype>video</mediatype>
							<trackindex>1</trackindex>
							<clipindex>930</clipindex>
						</link>
						<link>
							<linkclipref>clipitem-1965</linkclipref>
							<mediatype>audio</mediatype>
							<trackindex>1</trackindex>
							<clipindex>930</clipindex>
							<groupindex>1</groupindex>
						</link>
					</clipitem>
					<clipitem id="clipitem-931">
						<masterclipid>masterclip-2</masterclipid>
						<name>chandrika rocket equations</name>
						<start>62606</start>
						<end>62696</end>
						<in>106525</in>
						<out>106615</out>
						<file id="file-1" />
						<link>
							<linkclipref>clipitem-931</linkclipref>
							<mediatype>video</mediatype>
							<trackindex>1</trackindex>
							<clipindex>931</clipindex>
						</link>
						<link>
							<linkclipref>clipitem-1966</linkclipref>
							<mediatype>audio</mediatype>
							<trackindex>1</trackindex>
							<clipindex>931</clipindex>
							<groupindex>1</groupindex>
						</link>
					</clipitem>
					<clipitem id="clipitem-932">
						<masterclipid>masterclip-2</masterclipid>
						<name>chandrika rocket equations</name>
						<start>62696</start>
						<end>62851</end>
						<in>106621</in>
						<out>106776</out>
						<file id="file-1" />
						<link>
							<linkclipref>clipitem-932</linkclipref>
							<mediatype>video</mediatype>
							<trackindex>1</trackindex>
							<clipindex>932</clipindex>
						</link>
						<link>
							<linkclipref>clipitem-1967</linkclipref>
							<mediatype>audio</mediatype>
							<trackindex>1</trackindex>
							<clipindex>932</clipindex>
							<groupindex>1</groupindex>
						</link>
					</clipitem>
					<clipitem id="clipitem-933">
						<masterclipid>masterclip-2</masterclipid>
						<name>chandrika rocket equations</name>
						<start>62851</start>
						<end>62870</end>
						<in>106824</in>
						<out>106843</out>
						<file id="file-1" />
						<link>
							<linkclipref>clipitem-933</linkclipref>
							<mediatype>video</mediatype>
							<trackindex>1</trackindex>
							<clipindex>933</clipindex>
						</link>
						<link>
							<linkclipref>clipitem-1968</linkclipref>
							<mediatype>audio</mediatype>
							<trackindex>1</trackindex>
							<clipindex>933</clipindex>
							<groupindex>1</groupindex>
						</link>
					</clipitem>
					<clipitem id="clipitem-934">
						<masterclipid>masterclip-2</masterclipid>
						<name>chandrika rocket equations</name>
						<start>62870</start>
						<end>62907</end>
						<in>106908</in>
						<out>106945</out>
						<file id="file-1" />
						<link>
							<linkclipref>clipitem-934</linkclipref>
							<mediatype>video</mediatype>
							<trackindex>1</trackindex>
							<clipindex>934</clipindex>
						</link>
						<link>
							<linkclipref>clipitem-1969</linkclipref>
							<mediatype>audio</mediatype>
							<trackindex>1</trackindex>
							<clipindex>934</clipindex>
							<groupindex>1</groupindex>
						</link>
					</clipitem>
					<clipitem id="clipitem-935">
						<masterclipid>masterclip-2</masterclipid>
						<name>chandrika rocket equations</name>
						<start>62907</start>
						<end>63031</end>
						<in>106981</in>
						<out>107105</out>
						<file id="file-1" />
						<link>
							<linkclipref>clipitem-935</linkclipref>
							<mediatype>video</mediatype>
							<trackindex>1</trackindex>
							<clipindex>935</clipindex>
						</link>
						<link>
							<linkclipref>clipitem-1970</linkclipref>
							<mediatype>audio</mediatype>
							<trackindex>1</trackindex>
							<clipindex>935</clipindex>
							<groupindex>1</groupindex>
						</link>
					</clipitem>
					<clipitem id="clipitem-936">
						<masterclipid>masterclip-2</masterclipid>
						<name>chandrika rocket equations</name>
						<start>63031</start>
						<end>63074</end>
						<in>107150</in>
						<out>107193</out>
						<file id="file-1" />
						<link>
							<linkclipref>clipitem-936</linkclipref>
							<mediatype>video</mediatype>
							<trackindex>1</trackindex>
							<clipindex>936</clipindex>
						</link>
						<link>
							<linkclipref>clipitem-1971</linkclipref>
							<mediatype>audio</mediatype>
							<trackindex>1</trackindex>
							<clipindex>936</clipindex>
							<groupindex>1</groupindex>
						</link>
					</clipitem>
					<clipitem id="clipitem-937">
						<masterclipid>masterclip-2</masterclipid>
						<name>chandrika rocket equations</name>
						<start>63074</start>
						<end>63125</end>
						<in>107199</in>
						<out>107250</out>
						<file id="file-1" />
						<link>
							<linkclipref>clipitem-937</linkclipref>
							<mediatype>video</mediatype>
							<trackindex>1</trackindex>
							<clipindex>937</clipindex>
						</link>
						<link>
							<linkclipref>clipitem-1972</linkclipref>
							<mediatype>audio</mediatype>
							<trackindex>1</trackindex>
							<clipindex>937</clipindex>
							<groupindex>1</groupindex>
						</link>
					</clipitem>
					<clipitem id="clipitem-938">
						<masterclipid>masterclip-2</masterclipid>
						<name>chandrika rocket equations</name>
						<start>63125</start>
						<end>63244</end>
						<in>107259</in>
						<out>107378</out>
						<file id="file-1" />
						<link>
							<linkclipref>clipitem-938</linkclipref>
							<mediatype>video</mediatype>
							<trackindex>1</trackindex>
							<clipindex>938</clipindex>
						</link>
						<link>
							<linkclipref>clipitem-1973</linkclipref>
							<mediatype>audio</mediatype>
							<trackindex>1</trackindex>
							<clipindex>938</clipindex>
							<groupindex>1</groupindex>
						</link>
					</clipitem>
					<clipitem id="clipitem-939">
						<masterclipid>masterclip-2</masterclipid>
						<name>chandrika rocket equations</name>
						<start>63244</start>
						<end>63311</end>
						<in>107384</in>
						<out>107451</out>
						<file id="file-1" />
						<link>
							<linkclipref>clipitem-939</linkclipref>
							<mediatype>video</mediatype>
							<trackindex>1</trackindex>
							<clipindex>939</clipindex>
						</link>
						<link>
							<linkclipref>clipitem-1974</linkclipref>
							<mediatype>audio</mediatype>
							<trackindex>1</trackindex>
							<clipindex>939</clipindex>
							<groupindex>1</groupindex>
						</link>
					</clipitem>
					<clipitem id="clipitem-940">
						<masterclipid>masterclip-2</masterclipid>
						<name>chandrika rocket equations</name>
						<start>63311</start>
						<end>63336</end>
						<in>107454</in>
						<out>107479</out>
						<file id="file-1" />
						<link>
							<linkclipref>clipitem-940</linkclipref>
							<mediatype>video</mediatype>
							<trackindex>1</trackindex>
							<clipindex>940</clipindex>
						</link>
						<link>
							<linkclipref>clipitem-1975</linkclipref>
							<mediatype>audio</mediatype>
							<trackindex>1</trackindex>
							<clipindex>940</clipindex>
							<groupindex>1</groupindex>
						</link>
					</clipitem>
					<clipitem id="clipitem-941">
						<masterclipid>masterclip-2</masterclipid>
						<name>chandrika rocket equations</name>
						<start>63336</start>
						<end>63362</end>
						<in>107486</in>
						<out>107512</out>
						<file id="file-1" />
						<link>
							<linkclipref>clipitem-941</linkclipref>
							<mediatype>video</mediatype>
							<trackindex>1</trackindex>
							<clipindex>941</clipindex>
						</link>
						<link>
							<linkclipref>clipitem-1976</linkclipref>
							<mediatype>audio</mediatype>
							<trackindex>1</trackindex>
							<clipindex>941</clipindex>
							<groupindex>1</groupindex>
						</link>
					</clipitem>
					<clipitem id="clipitem-942">
						<masterclipid>masterclip-2</masterclipid>
						<name>chandrika rocket equations</name>
						<start>63362</start>
						<end>63477</end>
						<in>107539</in>
						<out>107654</out>
						<file id="file-1" />
						<link>
							<linkclipref>clipitem-942</linkclipref>
							<mediatype>video</mediatype>
							<trackindex>1</trackindex>
							<clipindex>942</clipindex>
						</link>
						<link>
							<linkclipref>clipitem-1977</linkclipref>
							<mediatype>audio</mediatype>
							<trackindex>1</trackindex>
							<clipindex>942</clipindex>
							<groupindex>1</groupindex>
						</link>
					</clipitem>
					<clipitem id="clipitem-943">
						<masterclipid>masterclip-2</masterclipid>
						<name>chandrika rocket equations</name>
						<start>63477</start>
						<end>63588</end>
						<in>107660</in>
						<out>107771</out>
						<file id="file-1" />
						<link>
							<linkclipref>clipitem-943</linkclipref>
							<mediatype>video</mediatype>
							<trackindex>1</trackindex>
							<clipindex>943</clipindex>
						</link>
						<link>
							<linkclipref>clipitem-1978</linkclipref>
							<mediatype>audio</mediatype>
							<trackindex>1</trackindex>
							<clipindex>943</clipindex>
							<groupindex>1</groupindex>
						</link>
					</clipitem>
					<clipitem id="clipitem-944">
						<masterclipid>masterclip-2</masterclipid>
						<name>chandrika rocket equations</name>
						<start>63588</start>
						<end>63614</end>
						<in>107774</in>
						<out>107800</out>
						<file id="file-1" />
						<link>
							<linkclipref>clipitem-944</linkclipref>
							<mediatype>video</mediatype>
							<trackindex>1</trackindex>
							<clipindex>944</clipindex>
						</link>
						<link>
							<linkclipref>clipitem-1979</linkclipref>
							<mediatype>audio</mediatype>
							<trackindex>1</trackindex>
							<clipindex>944</clipindex>
							<groupindex>1</groupindex>
						</link>
					</clipitem>
					<clipitem id="clipitem-945">
						<masterclipid>masterclip-2</masterclipid>
						<name>chandrika rocket equations</name>
						<start>63614</start>
						<end>63657</end>
						<in>107814</in>
						<out>107857</out>
						<file id="file-1" />
						<link>
							<linkclipref>clipitem-945</linkclipref>
							<mediatype>video</mediatype>
							<trackindex>1</trackindex>
							<clipindex>945</clipindex>
						</link>
						<link>
							<linkclipref>clipitem-1980</linkclipref>
							<mediatype>audio</mediatype>
							<trackindex>1</trackindex>
							<clipindex>945</clipindex>
							<groupindex>1</groupindex>
						</link>
					</clipitem>
					<clipitem id="clipitem-946">
						<masterclipid>masterclip-2</masterclipid>
						<name>chandrika rocket equations</name>
						<start>63657</start>
						<end>63767</end>
						<in>107901</in>
						<out>108011</out>
						<file id="file-1" />
						<link>
							<linkclipref>clipitem-946</linkclipref>
							<mediatype>video</mediatype>
							<trackindex>1</trackindex>
							<clipindex>946</clipindex>
						</link>
						<link>
							<linkclipref>clipitem-1981</linkclipref>
							<mediatype>audio</mediatype>
							<trackindex>1</trackindex>
							<clipindex>946</clipindex>
							<groupindex>1</groupindex>
						</link>
					</clipitem>
					<clipitem id="clipitem-947">
						<masterclipid>masterclip-2</masterclipid>
						<name>chandrika rocket equations</name>
						<start>63767</start>
						<end>63841</end>
						<in>108055</in>
						<out>108129</out>
						<file id="file-1" />
						<link>
							<linkclipref>clipitem-947</linkclipref>
							<mediatype>video</mediatype>
							<trackindex>1</trackindex>
							<clipindex>947</clipindex>
						</link>
						<link>
							<linkclipref>clipitem-1982</linkclipref>
							<mediatype>audio</mediatype>
							<trackindex>1</trackindex>
							<clipindex>947</clipindex>
							<groupindex>1</groupindex>
						</link>
					</clipitem>
					<clipitem id="clipitem-948">
						<masterclipid>masterclip-2</masterclipid>
						<name>chandrika rocket equations</name>
						<start>63841</start>
						<end>63864</end>
						<in>108149</in>
						<out>108172</out>
						<file id="file-1" />
						<link>
							<linkclipref>clipitem-948</linkclipref>
							<mediatype>video</mediatype>
							<trackindex>1</trackindex>
							<clipindex>948</clipindex>
						</link>
						<link>
							<linkclipref>clipitem-1983</linkclipref>
							<mediatype>audio</mediatype>
							<trackindex>1</trackindex>
							<clipindex>948</clipindex>
							<groupindex>1</groupindex>
						</link>
					</clipitem>
					<clipitem id="clipitem-949">
						<masterclipid>masterclip-2</masterclipid>
						<name>chandrika rocket equations</name>
						<start>63864</start>
						<end>63941</end>
						<in>108330</in>
						<out>108407</out>
						<file id="file-1" />
						<link>
							<linkclipref>clipitem-949</linkclipref>
							<mediatype>video</mediatype>
							<trackindex>1</trackindex>
							<clipindex>949</clipindex>
						</link>
						<link>
							<linkclipref>clipitem-1984</linkclipref>
							<mediatype>audio</mediatype>
							<trackindex>1</trackindex>
							<clipindex>949</clipindex>
							<groupindex>1</groupindex>
						</link>
					</clipitem>
					<clipitem id="clipitem-950">
						<masterclipid>masterclip-2</masterclipid>
						<name>chandrika rocket equations</name>
						<start>63941</start>
						<end>64013</end>
						<in>108451</in>
						<out>108523</out>
						<file id="file-1" />
						<link>
							<linkclipref>clipitem-950</linkclipref>
							<mediatype>video</mediatype>
							<trackindex>1</trackindex>
							<clipindex>950</clipindex>
						</link>
						<link>
							<linkclipref>clipitem-1985</linkclipref>
							<mediatype>audio</mediatype>
							<trackindex>1</trackindex>
							<clipindex>950</clipindex>
							<groupindex>1</groupindex>
						</link>
					</clipitem>
					<clipitem id="clipitem-951">
						<masterclipid>masterclip-2</masterclipid>
						<name>chandrika rocket equations</name>
						<start>64013</start>
						<end>64131</end>
						<in>108533</in>
						<out>108651</out>
						<file id="file-1" />
						<link>
							<linkclipref>clipitem-951</linkclipref>
							<mediatype>video</mediatype>
							<trackindex>1</trackindex>
							<clipindex>951</clipindex>
						</link>
						<link>
							<linkclipref>clipitem-1986</linkclipref>
							<mediatype>audio</mediatype>
							<trackindex>1</trackindex>
							<clipindex>951</clipindex>
							<groupindex>1</groupindex>
						</link>
					</clipitem>
					<clipitem id="clipitem-952">
						<masterclipid>masterclip-2</masterclipid>
						<name>chandrika rocket equations</name>
						<start>64131</start>
						<end>64228</end>
						<in>108740</in>
						<out>108837</out>
						<file id="file-1" />
						<link>
							<linkclipref>clipitem-952</linkclipref>
							<mediatype>video</mediatype>
							<trackindex>1</trackindex>
							<clipindex>952</clipindex>
						</link>
						<link>
							<linkclipref>clipitem-1987</linkclipref>
							<mediatype>audio</mediatype>
							<trackindex>1</trackindex>
							<clipindex>952</clipindex>
							<groupindex>1</groupindex>
						</link>
					</clipitem>
					<clipitem id="clipitem-953">
						<masterclipid>masterclip-2</masterclipid>
						<name>chandrika rocket equations</name>
						<start>64228</start>
						<end>64251</end>
						<in>108857</in>
						<out>108880</out>
						<file id="file-1" />
						<link>
							<linkclipref>clipitem-953</linkclipref>
							<mediatype>video</mediatype>
							<trackindex>1</trackindex>
							<clipindex>953</clipindex>
						</link>
						<link>
							<linkclipref>clipitem-1988</linkclipref>
							<mediatype>audio</mediatype>
							<trackindex>1</trackindex>
							<clipindex>953</clipindex>
							<groupindex>1</groupindex>
						</link>
					</clipitem>
					<clipitem id="clipitem-954">
						<masterclipid>masterclip-2</masterclipid>
						<name>chandrika rocket equations</name>
						<start>64251</start>
						<end>64282</end>
						<in>108894</in>
						<out>108925</out>
						<file id="file-1" />
						<link>
							<linkclipref>clipitem-954</linkclipref>
							<mediatype>video</mediatype>
							<trackindex>1</trackindex>
							<clipindex>954</clipindex>
						</link>
						<link>
							<linkclipref>clipitem-1989</linkclipref>
							<mediatype>audio</mediatype>
							<trackindex>1</trackindex>
							<clipindex>954</clipindex>
							<groupindex>1</groupindex>
						</link>
					</clipitem>
					<clipitem id="clipitem-955">
						<masterclipid>masterclip-2</masterclipid>
						<name>chandrika rocket equations</name>
						<start>64282</start>
						<end>64321</end>
						<in>108968</in>
						<out>109007</out>
						<file id="file-1" />
						<link>
							<linkclipref>clipitem-955</linkclipref>
							<mediatype>video</mediatype>
							<trackindex>1</trackindex>
							<clipindex>955</clipindex>
						</link>
						<link>
							<linkclipref>clipitem-1990</linkclipref>
							<mediatype>audio</mediatype>
							<trackindex>1</trackindex>
							<clipindex>955</clipindex>
							<groupindex>1</groupindex>
						</link>
					</clipitem>
					<clipitem id="clipitem-956">
						<masterclipid>masterclip-2</masterclipid>
						<name>chandrika rocket equations</name>
						<start>64321</start>
						<end>64420</end>
						<in>109044</in>
						<out>109143</out>
						<file id="file-1" />
						<link>
							<linkclipref>clipitem-956</linkclipref>
							<mediatype>video</mediatype>
							<trackindex>1</trackindex>
							<clipindex>956</clipindex>
						</link>
						<link>
							<linkclipref>clipitem-1991</linkclipref>
							<mediatype>audio</mediatype>
							<trackindex>1</trackindex>
							<clipindex>956</clipindex>
							<groupindex>1</groupindex>
						</link>
					</clipitem>
					<clipitem id="clipitem-957">
						<masterclipid>masterclip-2</masterclipid>
						<name>chandrika rocket equations</name>
						<start>64420</start>
						<end>64490</end>
						<in>109166</in>
						<out>109236</out>
						<file id="file-1" />
						<link>
							<linkclipref>clipitem-957</linkclipref>
							<mediatype>video</mediatype>
							<trackindex>1</trackindex>
							<clipindex>957</clipindex>
						</link>
						<link>
							<linkclipref>clipitem-1992</linkclipref>
							<mediatype>audio</mediatype>
							<trackindex>1</trackindex>
							<clipindex>957</clipindex>
							<groupindex>1</groupindex>
						</link>
					</clipitem>
					<clipitem id="clipitem-958">
						<masterclipid>masterclip-2</masterclipid>
						<name>chandrika rocket equations</name>
						<start>64490</start>
						<end>64527</end>
						<in>109252</in>
						<out>109289</out>
						<file id="file-1" />
						<link>
							<linkclipref>clipitem-958</linkclipref>
							<mediatype>video</mediatype>
							<trackindex>1</trackindex>
							<clipindex>958</clipindex>
						</link>
						<link>
							<linkclipref>clipitem-1993</linkclipref>
							<mediatype>audio</mediatype>
							<trackindex>1</trackindex>
							<clipindex>958</clipindex>
							<groupindex>1</groupindex>
						</link>
					</clipitem>
					<clipitem id="clipitem-959">
						<masterclipid>masterclip-2</masterclipid>
						<name>chandrika rocket equations</name>
						<start>64527</start>
						<end>64581</end>
						<in>109291</in>
						<out>109345</out>
						<file id="file-1" />
						<link>
							<linkclipref>clipitem-959</linkclipref>
							<mediatype>video</mediatype>
							<trackindex>1</trackindex>
							<clipindex>959</clipindex>
						</link>
						<link>
							<linkclipref>clipitem-1994</linkclipref>
							<mediatype>audio</mediatype>
							<trackindex>1</trackindex>
							<clipindex>959</clipindex>
							<groupindex>1</groupindex>
						</link>
					</clipitem>
					<clipitem id="clipitem-960">
						<masterclipid>masterclip-2</masterclipid>
						<name>chandrika rocket equations</name>
						<start>64581</start>
						<end>64645</end>
						<in>109350</in>
						<out>109414</out>
						<file id="file-1" />
						<link>
							<linkclipref>clipitem-960</linkclipref>
							<mediatype>video</mediatype>
							<trackindex>1</trackindex>
							<clipindex>960</clipindex>
						</link>
						<link>
							<linkclipref>clipitem-1995</linkclipref>
							<mediatype>audio</mediatype>
							<trackindex>1</trackindex>
							<clipindex>960</clipindex>
							<groupindex>1</groupindex>
						</link>
					</clipitem>
					<clipitem id="clipitem-961">
						<masterclipid>masterclip-2</masterclipid>
						<name>chandrika rocket equations</name>
						<start>64645</start>
						<end>64712</end>
						<in>109417</in>
						<out>109484</out>
						<file id="file-1" />
						<link>
							<linkclipref>clipitem-961</linkclipref>
							<mediatype>video</mediatype>
							<trackindex>1</trackindex>
							<clipindex>961</clipindex>
						</link>
						<link>
							<linkclipref>clipitem-1996</linkclipref>
							<mediatype>audio</mediatype>
							<trackindex>1</trackindex>
							<clipindex>961</clipindex>
							<groupindex>1</groupindex>
						</link>
					</clipitem>
					<clipitem id="clipitem-962">
						<masterclipid>masterclip-2</masterclipid>
						<name>chandrika rocket equations</name>
						<start>64712</start>
						<end>64822</end>
						<in>109498</in>
						<out>109608</out>
						<file id="file-1" />
						<link>
							<linkclipref>clipitem-962</linkclipref>
							<mediatype>video</mediatype>
							<trackindex>1</trackindex>
							<clipindex>962</clipindex>
						</link>
						<link>
							<linkclipref>clipitem-1997</linkclipref>
							<mediatype>audio</mediatype>
							<trackindex>1</trackindex>
							<clipindex>962</clipindex>
							<groupindex>1</groupindex>
						</link>
					</clipitem>
					<clipitem id="clipitem-963">
						<masterclipid>masterclip-2</masterclipid>
						<name>chandrika rocket equations</name>
						<start>64822</start>
						<end>64975</end>
						<in>109609</in>
						<out>109762</out>
						<file id="file-1" />
						<link>
							<linkclipref>clipitem-963</linkclipref>
							<mediatype>video</mediatype>
							<trackindex>1</trackindex>
							<clipindex>963</clipindex>
						</link>
						<link>
							<linkclipref>clipitem-1998</linkclipref>
							<mediatype>audio</mediatype>
							<trackindex>1</trackindex>
							<clipindex>963</clipindex>
							<groupindex>1</groupindex>
						</link>
					</clipitem>
					<clipitem id="clipitem-964">
						<masterclipid>masterclip-2</masterclipid>
						<name>chandrika rocket equations</name>
						<start>64975</start>
						<end>65077</end>
						<in>109767</in>
						<out>109869</out>
						<file id="file-1" />
						<link>
							<linkclipref>clipitem-964</linkclipref>
							<mediatype>video</mediatype>
							<trackindex>1</trackindex>
							<clipindex>964</clipindex>
						</link>
						<link>
							<linkclipref>clipitem-1999</linkclipref>
							<mediatype>audio</mediatype>
							<trackindex>1</trackindex>
							<clipindex>964</clipindex>
							<groupindex>1</groupindex>
						</link>
					</clipitem>
					<clipitem id="clipitem-965">
						<masterclipid>masterclip-2</masterclipid>
						<name>chandrika rocket equations</name>
						<start>65077</start>
						<end>65110</end>
						<in>109884</in>
						<out>109917</out>
						<file id="file-1" />
						<link>
							<linkclipref>clipitem-965</linkclipref>
							<mediatype>video</mediatype>
							<trackindex>1</trackindex>
							<clipindex>965</clipindex>
						</link>
						<link>
							<linkclipref>clipitem-2000</linkclipref>
							<mediatype>audio</mediatype>
							<trackindex>1</trackindex>
							<clipindex>965</clipindex>
							<groupindex>1</groupindex>
						</link>
					</clipitem>
					<clipitem id="clipitem-966">
						<masterclipid>masterclip-2</masterclipid>
						<name>chandrika rocket equations</name>
						<start>65110</start>
						<end>65168</end>
						<in>110253</in>
						<out>110311</out>
						<file id="file-1" />
						<link>
							<linkclipref>clipitem-966</linkclipref>
							<mediatype>video</mediatype>
							<trackindex>1</trackindex>
							<clipindex>966</clipindex>
						</link>
						<link>
							<linkclipref>clipitem-2001</linkclipref>
							<mediatype>audio</mediatype>
							<trackindex>1</trackindex>
							<clipindex>966</clipindex>
							<groupindex>1</groupindex>
						</link>
					</clipitem>
					<clipitem id="clipitem-967">
						<masterclipid>masterclip-2</masterclipid>
						<name>chandrika rocket equations</name>
						<start>65168</start>
						<end>65310</end>
						<in>110342</in>
						<out>110484</out>
						<file id="file-1" />
						<link>
							<linkclipref>clipitem-967</linkclipref>
							<mediatype>video</mediatype>
							<trackindex>1</trackindex>
							<clipindex>967</clipindex>
						</link>
						<link>
							<linkclipref>clipitem-2002</linkclipref>
							<mediatype>audio</mediatype>
							<trackindex>1</trackindex>
							<clipindex>967</clipindex>
							<groupindex>1</groupindex>
						</link>
					</clipitem>
					<clipitem id="clipitem-968">
						<masterclipid>masterclip-2</masterclipid>
						<name>chandrika rocket equations</name>
						<start>65310</start>
						<end>65369</end>
						<in>110527</in>
						<out>110586</out>
						<file id="file-1" />
						<link>
							<linkclipref>clipitem-968</linkclipref>
							<mediatype>video</mediatype>
							<trackindex>1</trackindex>
							<clipindex>968</clipindex>
						</link>
						<link>
							<linkclipref>clipitem-2003</linkclipref>
							<mediatype>audio</mediatype>
							<trackindex>1</trackindex>
							<clipindex>968</clipindex>
							<groupindex>1</groupindex>
						</link>
					</clipitem>
					<clipitem id="clipitem-969">
						<masterclipid>masterclip-2</masterclipid>
						<name>chandrika rocket equations</name>
						<start>65369</start>
						<end>65384</end>
						<in>110590</in>
						<out>110605</out>
						<file id="file-1" />
						<link>
							<linkclipref>clipitem-969</linkclipref>
							<mediatype>video</mediatype>
							<trackindex>1</trackindex>
							<clipindex>969</clipindex>
						</link>
						<link>
							<linkclipref>clipitem-2004</linkclipref>
							<mediatype>audio</mediatype>
							<trackindex>1</trackindex>
							<clipindex>969</clipindex>
							<groupindex>1</groupindex>
						</link>
					</clipitem>
					<clipitem id="clipitem-970">
						<masterclipid>masterclip-2</masterclipid>
						<name>chandrika rocket equations</name>
						<start>65384</start>
						<end>65402</end>
						<in>110611</in>
						<out>110629</out>
						<file id="file-1" />
						<link>
							<linkclipref>clipitem-970</linkclipref>
							<mediatype>video</mediatype>
							<trackindex>1</trackindex>
							<clipindex>970</clipindex>
						</link>
						<link>
							<linkclipref>clipitem-2005</linkclipref>
							<mediatype>audio</mediatype>
							<trackindex>1</trackindex>
							<clipindex>970</clipindex>
							<groupindex>1</groupindex>
						</link>
					</clipitem>
					<clipitem id="clipitem-971">
						<masterclipid>masterclip-2</masterclipid>
						<name>chandrika rocket equations</name>
						<start>65402</start>
						<end>65417</end>
						<in>110636</in>
						<out>110651</out>
						<file id="file-1" />
						<link>
							<linkclipref>clipitem-971</linkclipref>
							<mediatype>video</mediatype>
							<trackindex>1</trackindex>
							<clipindex>971</clipindex>
						</link>
						<link>
							<linkclipref>clipitem-2006</linkclipref>
							<mediatype>audio</mediatype>
							<trackindex>1</trackindex>
							<clipindex>971</clipindex>
							<groupindex>1</groupindex>
						</link>
					</clipitem>
					<clipitem id="clipitem-972">
						<masterclipid>masterclip-2</masterclipid>
						<name>chandrika rocket equations</name>
						<start>65417</start>
						<end>65432</end>
						<in>110671</in>
						<out>110686</out>
						<file id="file-1" />
						<link>
							<linkclipref>clipitem-972</linkclipref>
							<mediatype>video</mediatype>
							<trackindex>1</trackindex>
							<clipindex>972</clipindex>
						</link>
						<link>
							<linkclipref>clipitem-2007</linkclipref>
							<mediatype>audio</mediatype>
							<trackindex>1</trackindex>
							<clipindex>972</clipindex>
							<groupindex>1</groupindex>
						</link>
					</clipitem>
					<clipitem id="clipitem-973">
						<masterclipid>masterclip-2</masterclipid>
						<name>chandrika rocket equations</name>
						<start>65432</start>
						<end>65447</end>
						<in>110697</in>
						<out>110712</out>
						<file id="file-1" />
						<link>
							<linkclipref>clipitem-973</linkclipref>
							<mediatype>video</mediatype>
							<trackindex>1</trackindex>
							<clipindex>973</clipindex>
						</link>
						<link>
							<linkclipref>clipitem-2008</linkclipref>
							<mediatype>audio</mediatype>
							<trackindex>1</trackindex>
							<clipindex>973</clipindex>
							<groupindex>1</groupindex>
						</link>
					</clipitem>
					<clipitem id="clipitem-974">
						<masterclipid>masterclip-2</masterclipid>
						<name>chandrika rocket equations</name>
						<start>65447</start>
						<end>65492</end>
						<in>110751</in>
						<out>110796</out>
						<file id="file-1" />
						<link>
							<linkclipref>clipitem-974</linkclipref>
							<mediatype>video</mediatype>
							<trackindex>1</trackindex>
							<clipindex>974</clipindex>
						</link>
						<link>
							<linkclipref>clipitem-2009</linkclipref>
							<mediatype>audio</mediatype>
							<trackindex>1</trackindex>
							<clipindex>974</clipindex>
							<groupindex>1</groupindex>
						</link>
					</clipitem>
					<clipitem id="clipitem-975">
						<masterclipid>masterclip-2</masterclipid>
						<name>chandrika rocket equations</name>
						<start>65492</start>
						<end>65522</end>
						<in>110800</in>
						<out>110830</out>
						<file id="file-1" />
						<link>
							<linkclipref>clipitem-975</linkclipref>
							<mediatype>video</mediatype>
							<trackindex>1</trackindex>
							<clipindex>975</clipindex>
						</link>
						<link>
							<linkclipref>clipitem-2010</linkclipref>
							<mediatype>audio</mediatype>
							<trackindex>1</trackindex>
							<clipindex>975</clipindex>
							<groupindex>1</groupindex>
						</link>
					</clipitem>
					<clipitem id="clipitem-976">
						<masterclipid>masterclip-2</masterclipid>
						<name>chandrika rocket equations</name>
						<start>65522</start>
						<end>65543</end>
						<in>110850</in>
						<out>110871</out>
						<file id="file-1" />
						<link>
							<linkclipref>clipitem-976</linkclipref>
							<mediatype>video</mediatype>
							<trackindex>1</trackindex>
							<clipindex>976</clipindex>
						</link>
						<link>
							<linkclipref>clipitem-2011</linkclipref>
							<mediatype>audio</mediatype>
							<trackindex>1</trackindex>
							<clipindex>976</clipindex>
							<groupindex>1</groupindex>
						</link>
					</clipitem>
					<clipitem id="clipitem-977">
						<masterclipid>masterclip-2</masterclipid>
						<name>chandrika rocket equations</name>
						<start>65543</start>
						<end>65569</end>
						<in>110872</in>
						<out>110898</out>
						<file id="file-1" />
						<link>
							<linkclipref>clipitem-977</linkclipref>
							<mediatype>video</mediatype>
							<trackindex>1</trackindex>
							<clipindex>977</clipindex>
						</link>
						<link>
							<linkclipref>clipitem-2012</linkclipref>
							<mediatype>audio</mediatype>
							<trackindex>1</trackindex>
							<clipindex>977</clipindex>
							<groupindex>1</groupindex>
						</link>
					</clipitem>
					<clipitem id="clipitem-978">
						<masterclipid>masterclip-2</masterclipid>
						<name>chandrika rocket equations</name>
						<start>65569</start>
						<end>65676</end>
						<in>110911</in>
						<out>111018</out>
						<file id="file-1" />
						<link>
							<linkclipref>clipitem-978</linkclipref>
							<mediatype>video</mediatype>
							<trackindex>1</trackindex>
							<clipindex>978</clipindex>
						</link>
						<link>
							<linkclipref>clipitem-2013</linkclipref>
							<mediatype>audio</mediatype>
							<trackindex>1</trackindex>
							<clipindex>978</clipindex>
							<groupindex>1</groupindex>
						</link>
					</clipitem>
					<clipitem id="clipitem-979">
						<masterclipid>masterclip-2</masterclipid>
						<name>chandrika rocket equations</name>
						<start>65676</start>
						<end>65717</end>
						<in>111100</in>
						<out>111141</out>
						<file id="file-1" />
						<link>
							<linkclipref>clipitem-979</linkclipref>
							<mediatype>video</mediatype>
							<trackindex>1</trackindex>
							<clipindex>979</clipindex>
						</link>
						<link>
							<linkclipref>clipitem-2014</linkclipref>
							<mediatype>audio</mediatype>
							<trackindex>1</trackindex>
							<clipindex>979</clipindex>
							<groupindex>1</groupindex>
						</link>
					</clipitem>
					<clipitem id="clipitem-980">
						<masterclipid>masterclip-2</masterclipid>
						<name>chandrika rocket equations</name>
						<start>65717</start>
						<end>65893</end>
						<in>111230</in>
						<out>111406</out>
						<file id="file-1" />
						<link>
							<linkclipref>clipitem-980</linkclipref>
							<mediatype>video</mediatype>
							<trackindex>1</trackindex>
							<clipindex>980</clipindex>
						</link>
						<link>
							<linkclipref>clipitem-2015</linkclipref>
							<mediatype>audio</mediatype>
							<trackindex>1</trackindex>
							<clipindex>980</clipindex>
							<groupindex>1</groupindex>
						</link>
					</clipitem>
					<clipitem id="clipitem-981">
						<masterclipid>masterclip-2</masterclipid>
						<name>chandrika rocket equations</name>
						<start>65893</start>
						<end>65921</end>
						<in>111417</in>
						<out>111445</out>
						<file id="file-1" />
						<link>
							<linkclipref>clipitem-981</linkclipref>
							<mediatype>video</mediatype>
							<trackindex>1</trackindex>
							<clipindex>981</clipindex>
						</link>
						<link>
							<linkclipref>clipitem-2016</linkclipref>
							<mediatype>audio</mediatype>
							<trackindex>1</trackindex>
							<clipindex>981</clipindex>
							<groupindex>1</groupindex>
						</link>
					</clipitem>
					<clipitem id="clipitem-982">
						<masterclipid>masterclip-2</masterclipid>
						<name>chandrika rocket equations</name>
						<start>65921</start>
						<end>65962</end>
						<in>111466</in>
						<out>111507</out>
						<file id="file-1" />
						<link>
							<linkclipref>clipitem-982</linkclipref>
							<mediatype>video</mediatype>
							<trackindex>1</trackindex>
							<clipindex>982</clipindex>
						</link>
						<link>
							<linkclipref>clipitem-2017</linkclipref>
							<mediatype>audio</mediatype>
							<trackindex>1</trackindex>
							<clipindex>982</clipindex>
							<groupindex>1</groupindex>
						</link>
					</clipitem>
					<clipitem id="clipitem-983">
						<masterclipid>masterclip-2</masterclipid>
						<name>chandrika rocket equations</name>
						<start>65962</start>
						<end>65991</end>
						<in>111545</in>
						<out>111574</out>
						<file id="file-1" />
						<link>
							<linkclipref>clipitem-983</linkclipref>
							<mediatype>video</mediatype>
							<trackindex>1</trackindex>
							<clipindex>983</clipindex>
						</link>
						<link>
							<linkclipref>clipitem-2018</linkclipref>
							<mediatype>audio</mediatype>
							<trackindex>1</trackindex>
							<clipindex>983</clipindex>
							<groupindex>1</groupindex>
						</link>
					</clipitem>
					<clipitem id="clipitem-984">
						<masterclipid>masterclip-2</masterclipid>
						<name>chandrika rocket equations</name>
						<start>65991</start>
						<end>66047</end>
						<in>111575</in>
						<out>111631</out>
						<file id="file-1" />
						<link>
							<linkclipref>clipitem-984</linkclipref>
							<mediatype>video</mediatype>
							<trackindex>1</trackindex>
							<clipindex>984</clipindex>
						</link>
						<link>
							<linkclipref>clipitem-2019</linkclipref>
							<mediatype>audio</mediatype>
							<trackindex>1</trackindex>
							<clipindex>984</clipindex>
							<groupindex>1</groupindex>
						</link>
					</clipitem>
					<clipitem id="clipitem-985">
						<masterclipid>masterclip-2</masterclipid>
						<name>chandrika rocket equations</name>
						<start>66047</start>
						<end>66066</end>
						<in>111637</in>
						<out>111656</out>
						<file id="file-1" />
						<link>
							<linkclipref>clipitem-985</linkclipref>
							<mediatype>video</mediatype>
							<trackindex>1</trackindex>
							<clipindex>985</clipindex>
						</link>
						<link>
							<linkclipref>clipitem-2020</linkclipref>
							<mediatype>audio</mediatype>
							<trackindex>1</trackindex>
							<clipindex>985</clipindex>
							<groupindex>1</groupindex>
						</link>
					</clipitem>
					<clipitem id="clipitem-986">
						<masterclipid>masterclip-2</masterclipid>
						<name>chandrika rocket equations</name>
						<start>66066</start>
						<end>66089</end>
						<in>111668</in>
						<out>111691</out>
						<file id="file-1" />
						<link>
							<linkclipref>clipitem-986</linkclipref>
							<mediatype>video</mediatype>
							<trackindex>1</trackindex>
							<clipindex>986</clipindex>
						</link>
						<link>
							<linkclipref>clipitem-2021</linkclipref>
							<mediatype>audio</mediatype>
							<trackindex>1</trackindex>
							<clipindex>986</clipindex>
							<groupindex>1</groupindex>
						</link>
					</clipitem>
					<clipitem id="clipitem-987">
						<masterclipid>masterclip-2</masterclipid>
						<name>chandrika rocket equations</name>
						<start>66089</start>
						<end>66162</end>
						<in>111692</in>
						<out>111765</out>
						<file id="file-1" />
						<link>
							<linkclipref>clipitem-987</linkclipref>
							<mediatype>video</mediatype>
							<trackindex>1</trackindex>
							<clipindex>987</clipindex>
						</link>
						<link>
							<linkclipref>clipitem-2022</linkclipref>
							<mediatype>audio</mediatype>
							<trackindex>1</trackindex>
							<clipindex>987</clipindex>
							<groupindex>1</groupindex>
						</link>
					</clipitem>
					<clipitem id="clipitem-988">
						<masterclipid>masterclip-2</masterclipid>
						<name>chandrika rocket equations</name>
						<start>66162</start>
						<end>66177</end>
						<in>111769</in>
						<out>111784</out>
						<file id="file-1" />
						<link>
							<linkclipref>clipitem-988</linkclipref>
							<mediatype>video</mediatype>
							<trackindex>1</trackindex>
							<clipindex>988</clipindex>
						</link>
						<link>
							<linkclipref>clipitem-2023</linkclipref>
							<mediatype>audio</mediatype>
							<trackindex>1</trackindex>
							<clipindex>988</clipindex>
							<groupindex>1</groupindex>
						</link>
					</clipitem>
					<clipitem id="clipitem-989">
						<masterclipid>masterclip-2</masterclipid>
						<name>chandrika rocket equations</name>
						<start>66177</start>
						<end>66236</end>
						<in>111800</in>
						<out>111859</out>
						<file id="file-1" />
						<link>
							<linkclipref>clipitem-989</linkclipref>
							<mediatype>video</mediatype>
							<trackindex>1</trackindex>
							<clipindex>989</clipindex>
						</link>
						<link>
							<linkclipref>clipitem-2024</linkclipref>
							<mediatype>audio</mediatype>
							<trackindex>1</trackindex>
							<clipindex>989</clipindex>
							<groupindex>1</groupindex>
						</link>
					</clipitem>
					<clipitem id="clipitem-990">
						<masterclipid>masterclip-2</masterclipid>
						<name>chandrika rocket equations</name>
						<start>66236</start>
						<end>66321</end>
						<in>111894</in>
						<out>111979</out>
						<file id="file-1" />
						<link>
							<linkclipref>clipitem-990</linkclipref>
							<mediatype>video</mediatype>
							<trackindex>1</trackindex>
							<clipindex>990</clipindex>
						</link>
						<link>
							<linkclipref>clipitem-2025</linkclipref>
							<mediatype>audio</mediatype>
							<trackindex>1</trackindex>
							<clipindex>990</clipindex>
							<groupindex>1</groupindex>
						</link>
					</clipitem>
					<clipitem id="clipitem-991">
						<masterclipid>masterclip-2</masterclipid>
						<name>chandrika rocket equations</name>
						<start>66321</start>
						<end>66338</end>
						<in>111991</in>
						<out>112008</out>
						<file id="file-1" />
						<link>
							<linkclipref>clipitem-991</linkclipref>
							<mediatype>video</mediatype>
							<trackindex>1</trackindex>
							<clipindex>991</clipindex>
						</link>
						<link>
							<linkclipref>clipitem-2026</linkclipref>
							<mediatype>audio</mediatype>
							<trackindex>1</trackindex>
							<clipindex>991</clipindex>
							<groupindex>1</groupindex>
						</link>
					</clipitem>
					<clipitem id="clipitem-992">
						<masterclipid>masterclip-2</masterclipid>
						<name>chandrika rocket equations</name>
						<start>66338</start>
						<end>66438</end>
						<in>112015</in>
						<out>112115</out>
						<file id="file-1" />
						<link>
							<linkclipref>clipitem-992</linkclipref>
							<mediatype>video</mediatype>
							<trackindex>1</trackindex>
							<clipindex>992</clipindex>
						</link>
						<link>
							<linkclipref>clipitem-2027</linkclipref>
							<mediatype>audio</mediatype>
							<trackindex>1</trackindex>
							<clipindex>992</clipindex>
							<groupindex>1</groupindex>
						</link>
					</clipitem>
					<clipitem id="clipitem-993">
						<masterclipid>masterclip-2</masterclipid>
						<name>chandrika rocket equations</name>
						<start>66438</start>
						<end>66483</end>
						<in>112134</in>
						<out>112179</out>
						<file id="file-1" />
						<link>
							<linkclipref>clipitem-993</linkclipref>
							<mediatype>video</mediatype>
							<trackindex>1</trackindex>
							<clipindex>993</clipindex>
						</link>
						<link>
							<linkclipref>clipitem-2028</linkclipref>
							<mediatype>audio</mediatype>
							<trackindex>1</trackindex>
							<clipindex>993</clipindex>
							<groupindex>1</groupindex>
						</link>
					</clipitem>
					<clipitem id="clipitem-994">
						<masterclipid>masterclip-2</masterclipid>
						<name>chandrika rocket equations</name>
						<start>66483</start>
						<end>66500</end>
						<in>112192</in>
						<out>112209</out>
						<file id="file-1" />
						<link>
							<linkclipref>clipitem-994</linkclipref>
							<mediatype>video</mediatype>
							<trackindex>1</trackindex>
							<clipindex>994</clipindex>
						</link>
						<link>
							<linkclipref>clipitem-2029</linkclipref>
							<mediatype>audio</mediatype>
							<trackindex>1</trackindex>
							<clipindex>994</clipindex>
							<groupindex>1</groupindex>
						</link>
					</clipitem>
					<clipitem id="clipitem-995">
						<masterclipid>masterclip-2</masterclipid>
						<name>chandrika rocket equations</name>
						<start>66500</start>
						<end>66531</end>
						<in>112212</in>
						<out>112243</out>
						<file id="file-1" />
						<link>
							<linkclipref>clipitem-995</linkclipref>
							<mediatype>video</mediatype>
							<trackindex>1</trackindex>
							<clipindex>995</clipindex>
						</link>
						<link>
							<linkclipref>clipitem-2030</linkclipref>
							<mediatype>audio</mediatype>
							<trackindex>1</trackindex>
							<clipindex>995</clipindex>
							<groupindex>1</groupindex>
						</link>
					</clipitem>
					<clipitem id="clipitem-996">
						<masterclipid>masterclip-2</masterclipid>
						<name>chandrika rocket equations</name>
						<start>66531</start>
						<end>66578</end>
						<in>112274</in>
						<out>112321</out>
						<file id="file-1" />
						<link>
							<linkclipref>clipitem-996</linkclipref>
							<mediatype>video</mediatype>
							<trackindex>1</trackindex>
							<clipindex>996</clipindex>
						</link>
						<link>
							<linkclipref>clipitem-2031</linkclipref>
							<mediatype>audio</mediatype>
							<trackindex>1</trackindex>
							<clipindex>996</clipindex>
							<groupindex>1</groupindex>
						</link>
					</clipitem>
					<clipitem id="clipitem-997">
						<masterclipid>masterclip-2</masterclipid>
						<name>chandrika rocket equations</name>
						<start>66578</start>
						<end>66654</end>
						<in>112352</in>
						<out>112428</out>
						<file id="file-1" />
						<link>
							<linkclipref>clipitem-997</linkclipref>
							<mediatype>video</mediatype>
							<trackindex>1</trackindex>
							<clipindex>997</clipindex>
						</link>
						<link>
							<linkclipref>clipitem-2032</linkclipref>
							<mediatype>audio</mediatype>
							<trackindex>1</trackindex>
							<clipindex>997</clipindex>
							<groupindex>1</groupindex>
						</link>
					</clipitem>
					<clipitem id="clipitem-998">
						<masterclipid>masterclip-2</masterclipid>
						<name>chandrika rocket equations</name>
						<start>66654</start>
						<end>66703</end>
						<in>112431</in>
						<out>112480</out>
						<file id="file-1" />
						<link>
							<linkclipref>clipitem-998</linkclipref>
							<mediatype>video</mediatype>
							<trackindex>1</trackindex>
							<clipindex>998</clipindex>
						</link>
						<link>
							<linkclipref>clipitem-2033</linkclipref>
							<mediatype>audio</mediatype>
							<trackindex>1</trackindex>
							<clipindex>998</clipindex>
							<groupindex>1</groupindex>
						</link>
					</clipitem>
					<clipitem id="clipitem-999">
						<masterclipid>masterclip-2</masterclipid>
						<name>chandrika rocket equations</name>
						<start>66703</start>
						<end>66845</end>
						<in>112513</in>
						<out>112655</out>
						<file id="file-1" />
						<link>
							<linkclipref>clipitem-999</linkclipref>
							<mediatype>video</mediatype>
							<trackindex>1</trackindex>
							<clipindex>999</clipindex>
						</link>
						<link>
							<linkclipref>clipitem-2034</linkclipref>
							<mediatype>audio</mediatype>
							<trackindex>1</trackindex>
							<clipindex>999</clipindex>
							<groupindex>1</groupindex>
						</link>
					</clipitem>
					<clipitem id="clipitem-1000">
						<masterclipid>masterclip-2</masterclipid>
						<name>chandrika rocket equations</name>
						<start>66845</start>
						<end>66940</end>
						<in>112737</in>
						<out>112832</out>
						<file id="file-1" />
						<link>
							<linkclipref>clipitem-1000</linkclipref>
							<mediatype>video</mediatype>
							<trackindex>1</trackindex>
							<clipindex>1000</clipindex>
						</link>
						<link>
							<linkclipref>clipitem-2035</linkclipref>
							<mediatype>audio</mediatype>
							<trackindex>1</trackindex>
							<clipindex>1000</clipindex>
							<groupindex>1</groupindex>
						</link>
					</clipitem>
					<clipitem id="clipitem-1001">
						<masterclipid>masterclip-2</masterclipid>
						<name>chandrika rocket equations</name>
						<start>66940</start>
						<end>66969</end>
						<in>112833</in>
						<out>112862</out>
						<file id="file-1" />
						<link>
							<linkclipref>clipitem-1001</linkclipref>
							<mediatype>video</mediatype>
							<trackindex>1</trackindex>
							<clipindex>1001</clipindex>
						</link>
						<link>
							<linkclipref>clipitem-2036</linkclipref>
							<mediatype>audio</mediatype>
							<trackindex>1</trackindex>
							<clipindex>1001</clipindex>
							<groupindex>1</groupindex>
						</link>
					</clipitem>
					<clipitem id="clipitem-1002">
						<masterclipid>masterclip-2</masterclipid>
						<name>chandrika rocket equations</name>
						<start>66969</start>
						<end>67105</end>
						<in>112885</in>
						<out>113021</out>
						<file id="file-1" />
						<link>
							<linkclipref>clipitem-1002</linkclipref>
							<mediatype>video</mediatype>
							<trackindex>1</trackindex>
							<clipindex>1002</clipindex>
						</link>
						<link>
							<linkclipref>clipitem-2037</linkclipref>
							<mediatype>audio</mediatype>
							<trackindex>1</trackindex>
							<clipindex>1002</clipindex>
							<groupindex>1</groupindex>
						</link>
					</clipitem>
					<clipitem id="clipitem-1003">
						<masterclipid>masterclip-2</masterclipid>
						<name>chandrika rocket equations</name>
						<start>67105</start>
						<end>67124</end>
						<in>113026</in>
						<out>113045</out>
						<file id="file-1" />
						<link>
							<linkclipref>clipitem-1003</linkclipref>
							<mediatype>video</mediatype>
							<trackindex>1</trackindex>
							<clipindex>1003</clipindex>
						</link>
						<link>
							<linkclipref>clipitem-2038</linkclipref>
							<mediatype>audio</mediatype>
							<trackindex>1</trackindex>
							<clipindex>1003</clipindex>
							<groupindex>1</groupindex>
						</link>
					</clipitem>
					<clipitem id="clipitem-1004">
						<masterclipid>masterclip-2</masterclipid>
						<name>chandrika rocket equations</name>
						<start>67124</start>
						<end>67145</end>
						<in>113066</in>
						<out>113087</out>
						<file id="file-1" />
						<link>
							<linkclipref>clipitem-1004</linkclipref>
							<mediatype>video</mediatype>
							<trackindex>1</trackindex>
							<clipindex>1004</clipindex>
						</link>
						<link>
							<linkclipref>clipitem-2039</linkclipref>
							<mediatype>audio</mediatype>
							<trackindex>1</trackindex>
							<clipindex>1004</clipindex>
							<groupindex>1</groupindex>
						</link>
					</clipitem>
					<clipitem id="clipitem-1005">
						<masterclipid>masterclip-2</masterclipid>
						<name>chandrika rocket equations</name>
						<start>67145</start>
						<end>67201</end>
						<in>113088</in>
						<out>113144</out>
						<file id="file-1" />
						<link>
							<linkclipref>clipitem-1005</linkclipref>
							<mediatype>video</mediatype>
							<trackindex>1</trackindex>
							<clipindex>1005</clipindex>
						</link>
						<link>
							<linkclipref>clipitem-2040</linkclipref>
							<mediatype>audio</mediatype>
							<trackindex>1</trackindex>
							<clipindex>1005</clipindex>
							<groupindex>1</groupindex>
						</link>
					</clipitem>
					<clipitem id="clipitem-1006">
						<masterclipid>masterclip-2</masterclipid>
						<name>chandrika rocket equations</name>
						<start>67201</start>
						<end>67218</end>
						<in>113151</in>
						<out>113168</out>
						<file id="file-1" />
						<link>
							<linkclipref>clipitem-1006</linkclipref>
							<mediatype>video</mediatype>
							<trackindex>1</trackindex>
							<clipindex>1006</clipindex>
						</link>
						<link>
							<linkclipref>clipitem-2041</linkclipref>
							<mediatype>audio</mediatype>
							<trackindex>1</trackindex>
							<clipindex>1006</clipindex>
							<groupindex>1</groupindex>
						</link>
					</clipitem>
					<clipitem id="clipitem-1007">
						<masterclipid>masterclip-2</masterclipid>
						<name>chandrika rocket equations</name>
						<start>67218</start>
						<end>67263</end>
						<in>113279</in>
						<out>113324</out>
						<file id="file-1" />
						<link>
							<linkclipref>clipitem-1007</linkclipref>
							<mediatype>video</mediatype>
							<trackindex>1</trackindex>
							<clipindex>1007</clipindex>
						</link>
						<link>
							<linkclipref>clipitem-2042</linkclipref>
							<mediatype>audio</mediatype>
							<trackindex>1</trackindex>
							<clipindex>1007</clipindex>
							<groupindex>1</groupindex>
						</link>
					</clipitem>
					<clipitem id="clipitem-1008">
						<masterclipid>masterclip-2</masterclipid>
						<name>chandrika rocket equations</name>
						<start>67263</start>
						<end>67292</end>
						<in>113371</in>
						<out>113400</out>
						<file id="file-1" />
						<link>
							<linkclipref>clipitem-1008</linkclipref>
							<mediatype>video</mediatype>
							<trackindex>1</trackindex>
							<clipindex>1008</clipindex>
						</link>
						<link>
							<linkclipref>clipitem-2043</linkclipref>
							<mediatype>audio</mediatype>
							<trackindex>1</trackindex>
							<clipindex>1008</clipindex>
							<groupindex>1</groupindex>
						</link>
					</clipitem>
					<clipitem id="clipitem-1009">
						<masterclipid>masterclip-2</masterclipid>
						<name>chandrika rocket equations</name>
						<start>67292</start>
						<end>67524</end>
						<in>113468</in>
						<out>113700</out>
						<file id="file-1" />
						<link>
							<linkclipref>clipitem-1009</linkclipref>
							<mediatype>video</mediatype>
							<trackindex>1</trackindex>
							<clipindex>1009</clipindex>
						</link>
						<link>
							<linkclipref>clipitem-2044</linkclipref>
							<mediatype>audio</mediatype>
							<trackindex>1</trackindex>
							<clipindex>1009</clipindex>
							<groupindex>1</groupindex>
						</link>
					</clipitem>
					<clipitem id="clipitem-1010">
						<masterclipid>masterclip-2</masterclipid>
						<name>chandrika rocket equations</name>
						<start>67524</start>
						<end>67594</end>
						<in>113707</in>
						<out>113777</out>
						<file id="file-1" />
						<link>
							<linkclipref>clipitem-1010</linkclipref>
							<mediatype>video</mediatype>
							<trackindex>1</trackindex>
							<clipindex>1010</clipindex>
						</link>
						<link>
							<linkclipref>clipitem-2045</linkclipref>
							<mediatype>audio</mediatype>
							<trackindex>1</trackindex>
							<clipindex>1010</clipindex>
							<groupindex>1</groupindex>
						</link>
					</clipitem>
					<clipitem id="clipitem-1011">
						<masterclipid>masterclip-2</masterclipid>
						<name>chandrika rocket equations</name>
						<start>67594</start>
						<end>67815</end>
						<in>113826</in>
						<out>114047</out>
						<file id="file-1" />
						<link>
							<linkclipref>clipitem-1011</linkclipref>
							<mediatype>video</mediatype>
							<trackindex>1</trackindex>
							<clipindex>1011</clipindex>
						</link>
						<link>
							<linkclipref>clipitem-2046</linkclipref>
							<mediatype>audio</mediatype>
							<trackindex>1</trackindex>
							<clipindex>1011</clipindex>
							<groupindex>1</groupindex>
						</link>
					</clipitem>
					<clipitem id="clipitem-1012">
						<masterclipid>masterclip-2</masterclipid>
						<name>chandrika rocket equations</name>
						<start>67815</start>
						<end>68003</end>
						<in>114057</in>
						<out>114245</out>
						<file id="file-1" />
						<link>
							<linkclipref>clipitem-1012</linkclipref>
							<mediatype>video</mediatype>
							<trackindex>1</trackindex>
							<clipindex>1012</clipindex>
						</link>
						<link>
							<linkclipref>clipitem-2047</linkclipref>
							<mediatype>audio</mediatype>
							<trackindex>1</trackindex>
							<clipindex>1012</clipindex>
							<groupindex>1</groupindex>
						</link>
					</clipitem>
					<clipitem id="clipitem-1013">
						<masterclipid>masterclip-2</masterclipid>
						<name>chandrika rocket equations</name>
						<start>68003</start>
						<end>68026</end>
						<in>114247</in>
						<out>114270</out>
						<file id="file-1" />
						<link>
							<linkclipref>clipitem-1013</linkclipref>
							<mediatype>video</mediatype>
							<trackindex>1</trackindex>
							<clipindex>1013</clipindex>
						</link>
						<link>
							<linkclipref>clipitem-2048</linkclipref>
							<mediatype>audio</mediatype>
							<trackindex>1</trackindex>
							<clipindex>1013</clipindex>
							<groupindex>1</groupindex>
						</link>
					</clipitem>
					<clipitem id="clipitem-1014">
						<masterclipid>masterclip-2</masterclipid>
						<name>chandrika rocket equations</name>
						<start>68026</start>
						<end>68089</end>
						<in>114286</in>
						<out>114349</out>
						<file id="file-1" />
						<link>
							<linkclipref>clipitem-1014</linkclipref>
							<mediatype>video</mediatype>
							<trackindex>1</trackindex>
							<clipindex>1014</clipindex>
						</link>
						<link>
							<linkclipref>clipitem-2049</linkclipref>
							<mediatype>audio</mediatype>
							<trackindex>1</trackindex>
							<clipindex>1014</clipindex>
							<groupindex>1</groupindex>
						</link>
					</clipitem>
					<clipitem id="clipitem-1015">
						<masterclipid>masterclip-2</masterclipid>
						<name>chandrika rocket equations</name>
						<start>68089</start>
						<end>68106</end>
						<in>114351</in>
						<out>114368</out>
						<file id="file-1" />
						<link>
							<linkclipref>clipitem-1015</linkclipref>
							<mediatype>video</mediatype>
							<trackindex>1</trackindex>
							<clipindex>1015</clipindex>
						</link>
						<link>
							<linkclipref>clipitem-2050</linkclipref>
							<mediatype>audio</mediatype>
							<trackindex>1</trackindex>
							<clipindex>1015</clipindex>
							<groupindex>1</groupindex>
						</link>
					</clipitem>
					<clipitem id="clipitem-1016">
						<masterclipid>masterclip-2</masterclipid>
						<name>chandrika rocket equations</name>
						<start>68106</start>
						<end>68312</end>
						<in>114375</in>
						<out>114581</out>
						<file id="file-1" />
						<link>
							<linkclipref>clipitem-1016</linkclipref>
							<mediatype>video</mediatype>
							<trackindex>1</trackindex>
							<clipindex>1016</clipindex>
						</link>
						<link>
							<linkclipref>clipitem-2051</linkclipref>
							<mediatype>audio</mediatype>
							<trackindex>1</trackindex>
							<clipindex>1016</clipindex>
							<groupindex>1</groupindex>
						</link>
					</clipitem>
					<clipitem id="clipitem-1017">
						<masterclipid>masterclip-2</masterclipid>
						<name>chandrika rocket equations</name>
						<start>68312</start>
						<end>68534</end>
						<in>114584</in>
						<out>114806</out>
						<file id="file-1" />
						<link>
							<linkclipref>clipitem-1017</linkclipref>
							<mediatype>video</mediatype>
							<trackindex>1</trackindex>
							<clipindex>1017</clipindex>
						</link>
						<link>
							<linkclipref>clipitem-2052</linkclipref>
							<mediatype>audio</mediatype>
							<trackindex>1</trackindex>
							<clipindex>1017</clipindex>
							<groupindex>1</groupindex>
						</link>
					</clipitem>
					<clipitem id="clipitem-1018">
						<masterclipid>masterclip-2</masterclipid>
						<name>chandrika rocket equations</name>
						<start>68534</start>
						<end>68608</end>
						<in>114813</in>
						<out>114887</out>
						<file id="file-1" />
						<link>
							<linkclipref>clipitem-1018</linkclipref>
							<mediatype>video</mediatype>
							<trackindex>1</trackindex>
							<clipindex>1018</clipindex>
						</link>
						<link>
							<linkclipref>clipitem-2053</linkclipref>
							<mediatype>audio</mediatype>
							<trackindex>1</trackindex>
							<clipindex>1018</clipindex>
							<groupindex>1</groupindex>
						</link>
					</clipitem>
					<clipitem id="clipitem-1019">
						<masterclipid>masterclip-2</masterclipid>
						<name>chandrika rocket equations</name>
						<start>68608</start>
						<end>68631</end>
						<in>114951</in>
						<out>114974</out>
						<file id="file-1" />
						<link>
							<linkclipref>clipitem-1019</linkclipref>
							<mediatype>video</mediatype>
							<trackindex>1</trackindex>
							<clipindex>1019</clipindex>
						</link>
						<link>
							<linkclipref>clipitem-2054</linkclipref>
							<mediatype>audio</mediatype>
							<trackindex>1</trackindex>
							<clipindex>1019</clipindex>
							<groupindex>1</groupindex>
						</link>
					</clipitem>
					<clipitem id="clipitem-1020">
						<masterclipid>masterclip-2</masterclipid>
						<name>chandrika rocket equations</name>
						<start>68631</start>
						<end>68654</end>
						<in>114996</in>
						<out>115019</out>
						<file id="file-1" />
						<link>
							<linkclipref>clipitem-1020</linkclipref>
							<mediatype>video</mediatype>
							<trackindex>1</trackindex>
							<clipindex>1020</clipindex>
						</link>
						<link>
							<linkclipref>clipitem-2055</linkclipref>
							<mediatype>audio</mediatype>
							<trackindex>1</trackindex>
							<clipindex>1020</clipindex>
							<groupindex>1</groupindex>
						</link>
					</clipitem>
					<clipitem id="clipitem-1021">
						<masterclipid>masterclip-2</masterclipid>
						<name>chandrika rocket equations</name>
						<start>68654</start>
						<end>68673</end>
						<in>115030</in>
						<out>115049</out>
						<file id="file-1" />
						<link>
							<linkclipref>clipitem-1021</linkclipref>
							<mediatype>video</mediatype>
							<trackindex>1</trackindex>
							<clipindex>1021</clipindex>
						</link>
						<link>
							<linkclipref>clipitem-2056</linkclipref>
							<mediatype>audio</mediatype>
							<trackindex>1</trackindex>
							<clipindex>1021</clipindex>
							<groupindex>1</groupindex>
						</link>
					</clipitem>
					<clipitem id="clipitem-1022">
						<masterclipid>masterclip-2</masterclipid>
						<name>chandrika rocket equations</name>
						<start>68673</start>
						<end>68689</end>
						<in>115066</in>
						<out>115082</out>
						<file id="file-1" />
						<link>
							<linkclipref>clipitem-1022</linkclipref>
							<mediatype>video</mediatype>
							<trackindex>1</trackindex>
							<clipindex>1022</clipindex>
						</link>
						<link>
							<linkclipref>clipitem-2057</linkclipref>
							<mediatype>audio</mediatype>
							<trackindex>1</trackindex>
							<clipindex>1022</clipindex>
							<groupindex>1</groupindex>
						</link>
					</clipitem>
					<clipitem id="clipitem-1023">
						<masterclipid>masterclip-2</masterclipid>
						<name>chandrika rocket equations</name>
						<start>68689</start>
						<end>68767</end>
						<in>115121</in>
						<out>115199</out>
						<file id="file-1" />
						<link>
							<linkclipref>clipitem-1023</linkclipref>
							<mediatype>video</mediatype>
							<trackindex>1</trackindex>
							<clipindex>1023</clipindex>
						</link>
						<link>
							<linkclipref>clipitem-2058</linkclipref>
							<mediatype>audio</mediatype>
							<trackindex>1</trackindex>
							<clipindex>1023</clipindex>
							<groupindex>1</groupindex>
						</link>
					</clipitem>
					<clipitem id="clipitem-1024">
						<masterclipid>masterclip-2</masterclipid>
						<name>chandrika rocket equations</name>
						<start>68767</start>
						<end>68891</end>
						<in>115201</in>
						<out>115325</out>
						<file id="file-1" />
						<link>
							<linkclipref>clipitem-1024</linkclipref>
							<mediatype>video</mediatype>
							<trackindex>1</trackindex>
							<clipindex>1024</clipindex>
						</link>
						<link>
							<linkclipref>clipitem-2059</linkclipref>
							<mediatype>audio</mediatype>
							<trackindex>1</trackindex>
							<clipindex>1024</clipindex>
							<groupindex>1</groupindex>
						</link>
					</clipitem>
					<clipitem id="clipitem-1025">
						<masterclipid>masterclip-2</masterclipid>
						<name>chandrika rocket equations</name>
						<start>68891</start>
						<end>68982</end>
						<in>115327</in>
						<out>115418</out>
						<file id="file-1" />
						<link>
							<linkclipref>clipitem-1025</linkclipref>
							<mediatype>video</mediatype>
							<trackindex>1</trackindex>
							<clipindex>1025</clipindex>
						</link>
						<link>
							<linkclipref>clipitem-2060</linkclipref>
							<mediatype>audio</mediatype>
							<trackindex>1</trackindex>
							<clipindex>1025</clipindex>
							<groupindex>1</groupindex>
						</link>
					</clipitem>
					<clipitem id="clipitem-1026">
						<masterclipid>masterclip-2</masterclipid>
						<name>chandrika rocket equations</name>
						<start>68982</start>
						<end>69029</end>
						<in>115422</in>
						<out>115469</out>
						<file id="file-1" />
						<link>
							<linkclipref>clipitem-1026</linkclipref>
							<mediatype>video</mediatype>
							<trackindex>1</trackindex>
							<clipindex>1026</clipindex>
						</link>
						<link>
							<linkclipref>clipitem-2061</linkclipref>
							<mediatype>audio</mediatype>
							<trackindex>1</trackindex>
							<clipindex>1026</clipindex>
							<groupindex>1</groupindex>
						</link>
					</clipitem>
					<clipitem id="clipitem-1027">
						<masterclipid>masterclip-2</masterclipid>
						<name>chandrika rocket equations</name>
						<start>69029</start>
						<end>69216</end>
						<in>115485</in>
						<out>115672</out>
						<file id="file-1" />
						<link>
							<linkclipref>clipitem-1027</linkclipref>
							<mediatype>video</mediatype>
							<trackindex>1</trackindex>
							<clipindex>1027</clipindex>
						</link>
						<link>
							<linkclipref>clipitem-2062</linkclipref>
							<mediatype>audio</mediatype>
							<trackindex>1</trackindex>
							<clipindex>1027</clipindex>
							<groupindex>1</groupindex>
						</link>
					</clipitem>
					<clipitem id="clipitem-1028">
						<masterclipid>masterclip-2</masterclipid>
						<name>chandrika rocket equations</name>
						<start>69216</start>
						<end>69257</end>
						<in>115675</in>
						<out>115716</out>
						<file id="file-1" />
						<link>
							<linkclipref>clipitem-1028</linkclipref>
							<mediatype>video</mediatype>
							<trackindex>1</trackindex>
							<clipindex>1028</clipindex>
						</link>
						<link>
							<linkclipref>clipitem-2063</linkclipref>
							<mediatype>audio</mediatype>
							<trackindex>1</trackindex>
							<clipindex>1028</clipindex>
							<groupindex>1</groupindex>
						</link>
					</clipitem>
					<clipitem id="clipitem-1029">
						<masterclipid>masterclip-2</masterclipid>
						<name>chandrika rocket equations</name>
						<start>69257</start>
						<end>69293</end>
						<in>115734</in>
						<out>115770</out>
						<file id="file-1" />
						<link>
							<linkclipref>clipitem-1029</linkclipref>
							<mediatype>video</mediatype>
							<trackindex>1</trackindex>
							<clipindex>1029</clipindex>
						</link>
						<link>
							<linkclipref>clipitem-2064</linkclipref>
							<mediatype>audio</mediatype>
							<trackindex>1</trackindex>
							<clipindex>1029</clipindex>
							<groupindex>1</groupindex>
						</link>
					</clipitem>
					<clipitem id="clipitem-1030">
						<masterclipid>masterclip-2</masterclipid>
						<name>chandrika rocket equations</name>
						<start>69293</start>
						<end>69308</end>
						<in>115866</in>
						<out>115881</out>
						<file id="file-1" />
						<link>
							<linkclipref>clipitem-1030</linkclipref>
							<mediatype>video</mediatype>
							<trackindex>1</trackindex>
							<clipindex>1030</clipindex>
						</link>
						<link>
							<linkclipref>clipitem-2065</linkclipref>
							<mediatype>audio</mediatype>
							<trackindex>1</trackindex>
							<clipindex>1030</clipindex>
							<groupindex>1</groupindex>
						</link>
					</clipitem>
					<clipitem id="clipitem-1031">
						<masterclipid>masterclip-2</masterclipid>
						<name>chandrika rocket equations</name>
						<start>69308</start>
						<end>69404</end>
						<in>115898</in>
						<out>115994</out>
						<file id="file-1" />
						<link>
							<linkclipref>clipitem-1031</linkclipref>
							<mediatype>video</mediatype>
							<trackindex>1</trackindex>
							<clipindex>1031</clipindex>
						</link>
						<link>
							<linkclipref>clipitem-2066</linkclipref>
							<mediatype>audio</mediatype>
							<trackindex>1</trackindex>
							<clipindex>1031</clipindex>
							<groupindex>1</groupindex>
						</link>
					</clipitem>
					<clipitem id="clipitem-1032">
						<masterclipid>masterclip-2</masterclipid>
						<name>chandrika rocket equations</name>
						<start>69404</start>
						<end>69421</end>
						<in>115999</in>
						<out>116016</out>
						<file id="file-1" />
						<link>
							<linkclipref>clipitem-1032</linkclipref>
							<mediatype>video</mediatype>
							<trackindex>1</trackindex>
							<clipindex>1032</clipindex>
						</link>
						<link>
							<linkclipref>clipitem-2067</linkclipref>
							<mediatype>audio</mediatype>
							<trackindex>1</trackindex>
							<clipindex>1032</clipindex>
							<groupindex>1</groupindex>
						</link>
					</clipitem>
					<clipitem id="clipitem-1033">
						<masterclipid>masterclip-2</masterclipid>
						<name>chandrika rocket equations</name>
						<start>69421</start>
						<end>69482</end>
						<in>116042</in>
						<out>116103</out>
						<file id="file-1" />
						<link>
							<linkclipref>clipitem-1033</linkclipref>
							<mediatype>video</mediatype>
							<trackindex>1</trackindex>
							<clipindex>1033</clipindex>
						</link>
						<link>
							<linkclipref>clipitem-2068</linkclipref>
							<mediatype>audio</mediatype>
							<trackindex>1</trackindex>
							<clipindex>1033</clipindex>
							<groupindex>1</groupindex>
						</link>
					</clipitem>
					<clipitem id="clipitem-1034">
						<masterclipid>masterclip-2</masterclipid>
						<name>chandrika rocket equations</name>
						<start>69482</start>
						<end>69568</end>
						<in>116204</in>
						<out>116290</out>
						<file id="file-1" />
						<link>
							<linkclipref>clipitem-1034</linkclipref>
							<mediatype>video</mediatype>
							<trackindex>1</trackindex>
							<clipindex>1034</clipindex>
						</link>
						<link>
							<linkclipref>clipitem-2069</linkclipref>
							<mediatype>audio</mediatype>
							<trackindex>1</trackindex>
							<clipindex>1034</clipindex>
							<groupindex>1</groupindex>
						</link>
					</clipitem>
					<clipitem id="clipitem-1035">
						<masterclipid>masterclip-2</masterclipid>
						<name>chandrika rocket equations</name>
						<start>69568</start>
						<end>69583</end>
						<in>116294</in>
						<out>116309</out>
						<file id="file-1" />
						<link>
							<linkclipref>clipitem-1035</linkclipref>
							<mediatype>video</mediatype>
							<trackindex>1</trackindex>
							<clipindex>1035</clipindex>
						</link>
						<link>
							<linkclipref>clipitem-2070</linkclipref>
							<mediatype>audio</mediatype>
							<trackindex>1</trackindex>
							<clipindex>1035</clipindex>
							<groupindex>1</groupindex>
						</link>
					</clipitem>
				</track>
			</video>
			<audio>
				<numOutputChannels>2</numOutputChannels>
				<format>
					<samplecharacteristics>
						<depth>16</depth>
						<samplerate>48000</samplerate>
					</samplecharacteristics>
				</format>
				<track currentExplodedTrackIndex="0" premiereTrackType="Stereo">
					<clipitem id="clipitem-1036" premiereChannelType="stereo">
						<masterclipid>masterclip-2</masterclipid>
						<name>chandrika rocket equations</name>
						<start>0</start>
						<end>34</end>
						<in>34</in>
						<out>68</out>
						<file id="file-1" />
						<sourcetrack>
							<mediatype>audio</mediatype>
							<trackindex>1</trackindex>
						</sourcetrack>
						<labels>
							<label2>Iris</label2>
						</labels>
						<outputchannelindex>1</outputchannelindex>
					</clipitem>
					<clipitem id="clipitem-1037" premiereChannelType="stereo">
						<masterclipid>masterclip-2</masterclipid>
						<name>chandrika rocket equations</name>
						<start>34</start>
						<end>60</end>
						<in>85</in>
						<out>111</out>
						<file id="file-1" />
						<sourcetrack>
							<mediatype>audio</mediatype>
							<trackindex>1</trackindex>
						</sourcetrack>
						<labels>
							<label2>Iris</label2>
						</labels>
						<outputchannelindex>1</outputchannelindex>
					</clipitem>
					<clipitem id="clipitem-1038" premiereChannelType="stereo">
						<masterclipid>masterclip-2</masterclipid>
						<name>chandrika rocket equations</name>
						<start>60</start>
						<end>111</end>
						<in>166</in>
						<out>217</out>
						<file id="file-1" />
						<sourcetrack>
							<mediatype>audio</mediatype>
							<trackindex>1</trackindex>
						</sourcetrack>
						<labels>
							<label2>Iris</label2>
						</labels>
						<outputchannelindex>1</outputchannelindex>
					</clipitem>
					<clipitem id="clipitem-1039" premiereChannelType="stereo">
						<masterclipid>masterclip-2</masterclipid>
						<name>chandrika rocket equations</name>
						<start>111</start>
						<end>265</end>
						<in>236</in>
						<out>390</out>
						<file id="file-1" />
						<sourcetrack>
							<mediatype>audio</mediatype>
							<trackindex>1</trackindex>
						</sourcetrack>
						<labels>
							<label2>Iris</label2>
						</labels>
						<outputchannelindex>1</outputchannelindex>
					</clipitem>
					<clipitem id="clipitem-1040" premiereChannelType="stereo">
						<masterclipid>masterclip-2</masterclipid>
						<name>chandrika rocket equations</name>
						<start>265</start>
						<end>321</end>
						<in>396</in>
						<out>452</out>
						<file id="file-1" />
						<sourcetrack>
							<mediatype>audio</mediatype>
							<trackindex>1</trackindex>
						</sourcetrack>
						<labels>
							<label2>Iris</label2>
						</labels>
						<outputchannelindex>1</outputchannelindex>
					</clipitem>
					<clipitem id="clipitem-1041" premiereChannelType="stereo">
						<masterclipid>masterclip-2</masterclipid>
						<name>chandrika rocket equations</name>
						<start>321</start>
						<end>382</end>
						<in>463</in>
						<out>524</out>
						<file id="file-1" />
						<sourcetrack>
							<mediatype>audio</mediatype>
							<trackindex>1</trackindex>
						</sourcetrack>
						<labels>
							<label2>Iris</label2>
						</labels>
						<outputchannelindex>1</outputchannelindex>
					</clipitem>
					<clipitem id="clipitem-1042" premiereChannelType="stereo">
						<masterclipid>masterclip-2</masterclipid>
						<name>chandrika rocket equations</name>
						<start>382</start>
						<end>529</end>
						<in>533</in>
						<out>680</out>
						<file id="file-1" />
						<sourcetrack>
							<mediatype>audio</mediatype>
							<trackindex>1</trackindex>
						</sourcetrack>
						<labels>
							<label2>Iris</label2>
						</labels>
						<outputchannelindex>1</outputchannelindex>
					</clipitem>
					<clipitem id="clipitem-1043" premiereChannelType="stereo">
						<masterclipid>masterclip-2</masterclipid>
						<name>chandrika rocket equations</name>
						<start>529</start>
						<end>716</end>
						<in>741</in>
						<out>928</out>
						<file id="file-1" />
						<sourcetrack>
							<mediatype>audio</mediatype>
							<trackindex>1</trackindex>
						</sourcetrack>
						<labels>
							<label2>Iris</label2>
						</labels>
						<outputchannelindex>1</outputchannelindex>
					</clipitem>
					<clipitem id="clipitem-1044" premiereChannelType="stereo">
						<masterclipid>masterclip-2</masterclipid>
						<name>chandrika rocket equations</name>
						<start>716</start>
						<end>765</end>
						<in>941</in>
						<out>990</out>
						<file id="file-1" />
						<sourcetrack>
							<mediatype>audio</mediatype>
							<trackindex>1</trackindex>
						</sourcetrack>
						<labels>
							<label2>Iris</label2>
						</labels>
						<outputchannelindex>1</outputchannelindex>
					</clipitem>
					<clipitem id="clipitem-1045" premiereChannelType="stereo">
						<masterclipid>masterclip-2</masterclipid>
						<name>chandrika rocket equations</name>
						<start>765</start>
						<end>801</end>
						<in>1034</in>
						<out>1070</out>
						<file id="file-1" />
						<sourcetrack>
							<mediatype>audio</mediatype>
							<trackindex>1</trackindex>
						</sourcetrack>
						<labels>
							<label2>Iris</label2>
						</labels>
						<outputchannelindex>1</outputchannelindex>
					</clipitem>
					<clipitem id="clipitem-1046" premiereChannelType="stereo">
						<masterclipid>masterclip-2</masterclipid>
						<name>chandrika rocket equations</name>
						<start>801</start>
						<end>832</end>
						<in>1121</in>
						<out>1152</out>
						<file id="file-1" />
						<sourcetrack>
							<mediatype>audio</mediatype>
							<trackindex>1</trackindex>
						</sourcetrack>
						<labels>
							<label2>Iris</label2>
						</labels>
						<outputchannelindex>1</outputchannelindex>
					</clipitem>
					<clipitem id="clipitem-1047" premiereChannelType="stereo">
						<masterclipid>masterclip-2</masterclipid>
						<name>chandrika rocket equations</name>
						<start>832</start>
						<end>941</end>
						<in>1252</in>
						<out>1361</out>
						<file id="file-1" />
						<sourcetrack>
							<mediatype>audio</mediatype>
							<trackindex>1</trackindex>
						</sourcetrack>
						<labels>
							<label2>Iris</label2>
						</labels>
						<outputchannelindex>1</outputchannelindex>
					</clipitem>
					<clipitem id="clipitem-1048" premiereChannelType="stereo">
						<masterclipid>masterclip-2</masterclipid>
						<name>chandrika rocket equations</name>
						<start>941</start>
						<end>1014</end>
						<in>1407</in>
						<out>1480</out>
						<file id="file-1" />
						<sourcetrack>
							<mediatype>audio</mediatype>
							<trackindex>1</trackindex>
						</sourcetrack>
						<labels>
							<label2>Iris</label2>
						</labels>
						<outputchannelindex>1</outputchannelindex>
					</clipitem>
					<clipitem id="clipitem-1049" premiereChannelType="stereo">
						<masterclipid>masterclip-2</masterclipid>
						<name>chandrika rocket equations</name>
						<start>1014</start>
						<end>1087</end>
						<in>1559</in>
						<out>1632</out>
						<file id="file-1" />
						<sourcetrack>
							<mediatype>audio</mediatype>
							<trackindex>1</trackindex>
						</sourcetrack>
						<labels>
							<label2>Iris</label2>
						</labels>
						<outputchannelindex>1</outputchannelindex>
					</clipitem>
					<clipitem id="clipitem-1050" premiereChannelType="stereo">
						<masterclipid>masterclip-2</masterclipid>
						<name>chandrika rocket equations</name>
						<start>1087</start>
						<end>1186</end>
						<in>1692</in>
						<out>1791</out>
						<file id="file-1" />
						<sourcetrack>
							<mediatype>audio</mediatype>
							<trackindex>1</trackindex>
						</sourcetrack>
						<labels>
							<label2>Iris</label2>
						</labels>
						<outputchannelindex>1</outputchannelindex>
					</clipitem>
					<clipitem id="clipitem-1051" premiereChannelType="stereo">
						<masterclipid>masterclip-2</masterclipid>
						<name>chandrika rocket equations</name>
						<start>1186</start>
						<end>1378</end>
						<in>1799</in>
						<out>1991</out>
						<file id="file-1" />
						<sourcetrack>
							<mediatype>audio</mediatype>
							<trackindex>1</trackindex>
						</sourcetrack>
						<labels>
							<label2>Iris</label2>
						</labels>
						<outputchannelindex>1</outputchannelindex>
					</clipitem>
					<clipitem id="clipitem-1052" premiereChannelType="stereo">
						<masterclipid>masterclip-2</masterclipid>
						<name>chandrika rocket equations</name>
						<start>1378</start>
						<end>1438</end>
						<in>2061</in>
						<out>2121</out>
						<file id="file-1" />
						<sourcetrack>
							<mediatype>audio</mediatype>
							<trackindex>1</trackindex>
						</sourcetrack>
						<labels>
							<label2>Iris</label2>
						</labels>
						<outputchannelindex>1</outputchannelindex>
					</clipitem>
					<clipitem id="clipitem-1053" premiereChannelType="stereo">
						<masterclipid>masterclip-2</masterclipid>
						<name>chandrika rocket equations</name>
						<start>1438</start>
						<end>1457</end>
						<in>2165</in>
						<out>2184</out>
						<file id="file-1" />
						<sourcetrack>
							<mediatype>audio</mediatype>
							<trackindex>1</trackindex>
						</sourcetrack>
						<labels>
							<label2>Iris</label2>
						</labels>
						<outputchannelindex>1</outputchannelindex>
					</clipitem>
					<clipitem id="clipitem-1054" premiereChannelType="stereo">
						<masterclipid>masterclip-2</masterclipid>
						<name>chandrika rocket equations</name>
						<start>1457</start>
						<end>1626</end>
						<in>2190</in>
						<out>2359</out>
						<file id="file-1" />
						<sourcetrack>
							<mediatype>audio</mediatype>
							<trackindex>1</trackindex>
						</sourcetrack>
						<labels>
							<label2>Iris</label2>
						</labels>
						<outputchannelindex>1</outputchannelindex>
					</clipitem>
					<clipitem id="clipitem-1055" premiereChannelType="stereo">
						<masterclipid>masterclip-2</masterclipid>
						<name>chandrika rocket equations</name>
						<start>1626</start>
						<end>1752</end>
						<in>2375</in>
						<out>2501</out>
						<file id="file-1" />
						<sourcetrack>
							<mediatype>audio</mediatype>
							<trackindex>1</trackindex>
						</sourcetrack>
						<labels>
							<label2>Iris</label2>
						</labels>
						<outputchannelindex>1</outputchannelindex>
					</clipitem>
					<clipitem id="clipitem-1056" premiereChannelType="stereo">
						<masterclipid>masterclip-2</masterclipid>
						<name>chandrika rocket equations</name>
						<start>1752</start>
						<end>1808</end>
						<in>2510</in>
						<out>2566</out>
						<file id="file-1" />
						<sourcetrack>
							<mediatype>audio</mediatype>
							<trackindex>1</trackindex>
						</sourcetrack>
						<labels>
							<label2>Iris</label2>
						</labels>
						<outputchannelindex>1</outputchannelindex>
					</clipitem>
					<clipitem id="clipitem-1057" premiereChannelType="stereo">
						<masterclipid>masterclip-2</masterclipid>
						<name>chandrika rocket equations</name>
						<start>1808</start>
						<end>1828</end>
						<in>2593</in>
						<out>2613</out>
						<file id="file-1" />
						<sourcetrack>
							<mediatype>audio</mediatype>
							<trackindex>1</trackindex>
						</sourcetrack>
						<labels>
							<label2>Iris</label2>
						</labels>
						<outputchannelindex>1</outputchannelindex>
					</clipitem>
					<clipitem id="clipitem-1058" premiereChannelType="stereo">
						<masterclipid>masterclip-2</masterclipid>
						<name>chandrika rocket equations</name>
						<start>1828</start>
						<end>1914</end>
						<in>2616</in>
						<out>2702</out>
						<file id="file-1" />
						<sourcetrack>
							<mediatype>audio</mediatype>
							<trackindex>1</trackindex>
						</sourcetrack>
						<labels>
							<label2>Iris</label2>
						</labels>
						<outputchannelindex>1</outputchannelindex>
					</clipitem>
					<clipitem id="clipitem-1059" premiereChannelType="stereo">
						<masterclipid>masterclip-2</masterclipid>
						<name>chandrika rocket equations</name>
						<start>1914</start>
						<end>2046</end>
						<in>2726</in>
						<out>2858</out>
						<file id="file-1" />
						<sourcetrack>
							<mediatype>audio</mediatype>
							<trackindex>1</trackindex>
						</sourcetrack>
						<labels>
							<label2>Iris</label2>
						</labels>
						<outputchannelindex>1</outputchannelindex>
					</clipitem>
					<clipitem id="clipitem-1060" premiereChannelType="stereo">
						<masterclipid>masterclip-2</masterclipid>
						<name>chandrika rocket equations</name>
						<start>2046</start>
						<end>2117</end>
						<in>2898</in>
						<out>2969</out>
						<file id="file-1" />
						<sourcetrack>
							<mediatype>audio</mediatype>
							<trackindex>1</trackindex>
						</sourcetrack>
						<labels>
							<label2>Iris</label2>
						</labels>
						<outputchannelindex>1</outputchannelindex>
					</clipitem>
					<clipitem id="clipitem-1061" premiereChannelType="stereo">
						<masterclipid>masterclip-2</masterclipid>
						<name>chandrika rocket equations</name>
						<start>2117</start>
						<end>2159</end>
						<in>3027</in>
						<out>3069</out>
						<file id="file-1" />
						<sourcetrack>
							<mediatype>audio</mediatype>
							<trackindex>1</trackindex>
						</sourcetrack>
						<labels>
							<label2>Iris</label2>
						</labels>
						<outputchannelindex>1</outputchannelindex>
					</clipitem>
					<clipitem id="clipitem-1062" premiereChannelType="stereo">
						<masterclipid>masterclip-2</masterclipid>
						<name>chandrika rocket equations</name>
						<start>2159</start>
						<end>2216</end>
						<in>3144</in>
						<out>3201</out>
						<file id="file-1" />
						<sourcetrack>
							<mediatype>audio</mediatype>
							<trackindex>1</trackindex>
						</sourcetrack>
						<labels>
							<label2>Iris</label2>
						</labels>
						<outputchannelindex>1</outputchannelindex>
					</clipitem>
					<clipitem id="clipitem-1063" premiereChannelType="stereo">
						<masterclipid>masterclip-2</masterclipid>
						<name>chandrika rocket equations</name>
						<start>2216</start>
						<end>2342</end>
						<in>3204</in>
						<out>3330</out>
						<file id="file-1" />
						<sourcetrack>
							<mediatype>audio</mediatype>
							<trackindex>1</trackindex>
						</sourcetrack>
						<labels>
							<label2>Iris</label2>
						</labels>
						<outputchannelindex>1</outputchannelindex>
					</clipitem>
					<clipitem id="clipitem-1064" premiereChannelType="stereo">
						<masterclipid>masterclip-2</masterclipid>
						<name>chandrika rocket equations</name>
						<start>2342</start>
						<end>2367</end>
						<in>3395</in>
						<out>3420</out>
						<file id="file-1" />
						<sourcetrack>
							<mediatype>audio</mediatype>
							<trackindex>1</trackindex>
						</sourcetrack>
						<labels>
							<label2>Iris</label2>
						</labels>
						<outputchannelindex>1</outputchannelindex>
					</clipitem>
					<clipitem id="clipitem-1065" premiereChannelType="stereo">
						<masterclipid>masterclip-2</masterclipid>
						<name>chandrika rocket equations</name>
						<start>2367</start>
						<end>2402</end>
						<in>3498</in>
						<out>3533</out>
						<file id="file-1" />
						<sourcetrack>
							<mediatype>audio</mediatype>
							<trackindex>1</trackindex>
						</sourcetrack>
						<labels>
							<label2>Iris</label2>
						</labels>
						<outputchannelindex>1</outputchannelindex>
					</clipitem>
					<clipitem id="clipitem-1066" premiereChannelType="stereo">
						<masterclipid>masterclip-2</masterclipid>
						<name>chandrika rocket equations</name>
						<start>2402</start>
						<end>2427</end>
						<in>3535</in>
						<out>3560</out>
						<file id="file-1" />
						<sourcetrack>
							<mediatype>audio</mediatype>
							<trackindex>1</trackindex>
						</sourcetrack>
						<labels>
							<label2>Iris</label2>
						</labels>
						<outputchannelindex>1</outputchannelindex>
					</clipitem>
					<clipitem id="clipitem-1067" premiereChannelType="stereo">
						<masterclipid>masterclip-2</masterclipid>
						<name>chandrika rocket equations</name>
						<start>2427</start>
						<end>2516</end>
						<in>3665</in>
						<out>3754</out>
						<file id="file-1" />
						<sourcetrack>
							<mediatype>audio</mediatype>
							<trackindex>1</trackindex>
						</sourcetrack>
						<labels>
							<label2>Iris</label2>
						</labels>
						<outputchannelindex>1</outputchannelindex>
					</clipitem>
					<clipitem id="clipitem-1068" premiereChannelType="stereo">
						<masterclipid>masterclip-2</masterclipid>
						<name>chandrika rocket equations</name>
						<start>2516</start>
						<end>2551</end>
						<in>3772</in>
						<out>3807</out>
						<file id="file-1" />
						<sourcetrack>
							<mediatype>audio</mediatype>
							<trackindex>1</trackindex>
						</sourcetrack>
						<labels>
							<label2>Iris</label2>
						</labels>
						<outputchannelindex>1</outputchannelindex>
					</clipitem>
					<clipitem id="clipitem-1069" premiereChannelType="stereo">
						<masterclipid>masterclip-2</masterclipid>
						<name>chandrika rocket equations</name>
						<start>2551</start>
						<end>2577</end>
						<in>3924</in>
						<out>3950</out>
						<file id="file-1" />
						<sourcetrack>
							<mediatype>audio</mediatype>
							<trackindex>1</trackindex>
						</sourcetrack>
						<labels>
							<label2>Iris</label2>
						</labels>
						<outputchannelindex>1</outputchannelindex>
					</clipitem>
					<clipitem id="clipitem-1070" premiereChannelType="stereo">
						<masterclipid>masterclip-2</masterclipid>
						<name>chandrika rocket equations</name>
						<start>2577</start>
						<end>2593</end>
						<in>4078</in>
						<out>4094</out>
						<file id="file-1" />
						<sourcetrack>
							<mediatype>audio</mediatype>
							<trackindex>1</trackindex>
						</sourcetrack>
						<labels>
							<label2>Iris</label2>
						</labels>
						<outputchannelindex>1</outputchannelindex>
					</clipitem>
					<clipitem id="clipitem-1071" premiereChannelType="stereo">
						<masterclipid>masterclip-2</masterclipid>
						<name>chandrika rocket equations</name>
						<start>2593</start>
						<end>2645</end>
						<in>4176</in>
						<out>4228</out>
						<file id="file-1" />
						<sourcetrack>
							<mediatype>audio</mediatype>
							<trackindex>1</trackindex>
						</sourcetrack>
						<labels>
							<label2>Iris</label2>
						</labels>
						<outputchannelindex>1</outputchannelindex>
					</clipitem>
					<clipitem id="clipitem-1072" premiereChannelType="stereo">
						<masterclipid>masterclip-2</masterclipid>
						<name>chandrika rocket equations</name>
						<start>2645</start>
						<end>2670</end>
						<in>4239</in>
						<out>4264</out>
						<file id="file-1" />
						<sourcetrack>
							<mediatype>audio</mediatype>
							<trackindex>1</trackindex>
						</sourcetrack>
						<labels>
							<label2>Iris</label2>
						</labels>
						<outputchannelindex>1</outputchannelindex>
					</clipitem>
					<clipitem id="clipitem-1073" premiereChannelType="stereo">
						<masterclipid>masterclip-2</masterclipid>
						<name>chandrika rocket equations</name>
						<start>2670</start>
						<end>2695</end>
						<in>4267</in>
						<out>4292</out>
						<file id="file-1" />
						<sourcetrack>
							<mediatype>audio</mediatype>
							<trackindex>1</trackindex>
						</sourcetrack>
						<labels>
							<label2>Iris</label2>
						</labels>
						<outputchannelindex>1</outputchannelindex>
					</clipitem>
					<clipitem id="clipitem-1074" premiereChannelType="stereo">
						<masterclipid>masterclip-2</masterclipid>
						<name>chandrika rocket equations</name>
						<start>2695</start>
						<end>2770</end>
						<in>4315</in>
						<out>4390</out>
						<file id="file-1" />
						<sourcetrack>
							<mediatype>audio</mediatype>
							<trackindex>1</trackindex>
						</sourcetrack>
						<labels>
							<label2>Iris</label2>
						</labels>
						<outputchannelindex>1</outputchannelindex>
					</clipitem>
					<clipitem id="clipitem-1075" premiereChannelType="stereo">
						<masterclipid>masterclip-2</masterclipid>
						<name>chandrika rocket equations</name>
						<start>2770</start>
						<end>2792</end>
						<in>4395</in>
						<out>4417</out>
						<file id="file-1" />
						<sourcetrack>
							<mediatype>audio</mediatype>
							<trackindex>1</trackindex>
						</sourcetrack>
						<labels>
							<label2>Iris</label2>
						</labels>
						<outputchannelindex>1</outputchannelindex>
					</clipitem>
					<clipitem id="clipitem-1076" premiereChannelType="stereo">
						<masterclipid>masterclip-2</masterclipid>
						<name>chandrika rocket equations</name>
						<start>2792</start>
						<end>2919</end>
						<in>4421</in>
						<out>4548</out>
						<file id="file-1" />
						<sourcetrack>
							<mediatype>audio</mediatype>
							<trackindex>1</trackindex>
						</sourcetrack>
						<labels>
							<label2>Iris</label2>
						</labels>
						<outputchannelindex>1</outputchannelindex>
					</clipitem>
					<clipitem id="clipitem-1077" premiereChannelType="stereo">
						<masterclipid>masterclip-2</masterclipid>
						<name>chandrika rocket equations</name>
						<start>2919</start>
						<end>2958</end>
						<in>4574</in>
						<out>4613</out>
						<file id="file-1" />
						<sourcetrack>
							<mediatype>audio</mediatype>
							<trackindex>1</trackindex>
						</sourcetrack>
						<labels>
							<label2>Iris</label2>
						</labels>
						<outputchannelindex>1</outputchannelindex>
					</clipitem>
					<clipitem id="clipitem-1078" premiereChannelType="stereo">
						<masterclipid>masterclip-2</masterclipid>
						<name>chandrika rocket equations</name>
						<start>2958</start>
						<end>3105</end>
						<in>4622</in>
						<out>4769</out>
						<file id="file-1" />
						<sourcetrack>
							<mediatype>audio</mediatype>
							<trackindex>1</trackindex>
						</sourcetrack>
						<labels>
							<label2>Iris</label2>
						</labels>
						<outputchannelindex>1</outputchannelindex>
					</clipitem>
					<clipitem id="clipitem-1079" premiereChannelType="stereo">
						<masterclipid>masterclip-2</masterclipid>
						<name>chandrika rocket equations</name>
						<start>3105</start>
						<end>3123</end>
						<in>4776</in>
						<out>4794</out>
						<file id="file-1" />
						<sourcetrack>
							<mediatype>audio</mediatype>
							<trackindex>1</trackindex>
						</sourcetrack>
						<labels>
							<label2>Iris</label2>
						</labels>
						<outputchannelindex>1</outputchannelindex>
					</clipitem>
					<clipitem id="clipitem-1080" premiereChannelType="stereo">
						<masterclipid>masterclip-2</masterclipid>
						<name>chandrika rocket equations</name>
						<start>3123</start>
						<end>3210</end>
						<in>4802</in>
						<out>4889</out>
						<file id="file-1" />
						<sourcetrack>
							<mediatype>audio</mediatype>
							<trackindex>1</trackindex>
						</sourcetrack>
						<labels>
							<label2>Iris</label2>
						</labels>
						<outputchannelindex>1</outputchannelindex>
					</clipitem>
					<clipitem id="clipitem-1081" premiereChannelType="stereo">
						<masterclipid>masterclip-2</masterclipid>
						<name>chandrika rocket equations</name>
						<start>3210</start>
						<end>3257</end>
						<in>4905</in>
						<out>4952</out>
						<file id="file-1" />
						<sourcetrack>
							<mediatype>audio</mediatype>
							<trackindex>1</trackindex>
						</sourcetrack>
						<labels>
							<label2>Iris</label2>
						</labels>
						<outputchannelindex>1</outputchannelindex>
					</clipitem>
					<clipitem id="clipitem-1082" premiereChannelType="stereo">
						<masterclipid>masterclip-2</masterclipid>
						<name>chandrika rocket equations</name>
						<start>3257</start>
						<end>3347</end>
						<in>4954</in>
						<out>5044</out>
						<file id="file-1" />
						<sourcetrack>
							<mediatype>audio</mediatype>
							<trackindex>1</trackindex>
						</sourcetrack>
						<labels>
							<label2>Iris</label2>
						</labels>
						<outputchannelindex>1</outputchannelindex>
					</clipitem>
					<clipitem id="clipitem-1083" premiereChannelType="stereo">
						<masterclipid>masterclip-2</masterclipid>
						<name>chandrika rocket equations</name>
						<start>3347</start>
						<end>3367</end>
						<in>5047</in>
						<out>5067</out>
						<file id="file-1" />
						<sourcetrack>
							<mediatype>audio</mediatype>
							<trackindex>1</trackindex>
						</sourcetrack>
						<labels>
							<label2>Iris</label2>
						</labels>
						<outputchannelindex>1</outputchannelindex>
					</clipitem>
					<clipitem id="clipitem-1084" premiereChannelType="stereo">
						<masterclipid>masterclip-2</masterclipid>
						<name>chandrika rocket equations</name>
						<start>3367</start>
						<end>3479</end>
						<in>5082</in>
						<out>5194</out>
						<file id="file-1" />
						<sourcetrack>
							<mediatype>audio</mediatype>
							<trackindex>1</trackindex>
						</sourcetrack>
						<labels>
							<label2>Iris</label2>
						</labels>
						<outputchannelindex>1</outputchannelindex>
					</clipitem>
					<clipitem id="clipitem-1085" premiereChannelType="stereo">
						<masterclipid>masterclip-2</masterclipid>
						<name>chandrika rocket equations</name>
						<start>3479</start>
						<end>3622</end>
						<in>5237</in>
						<out>5380</out>
						<file id="file-1" />
						<sourcetrack>
							<mediatype>audio</mediatype>
							<trackindex>1</trackindex>
						</sourcetrack>
						<labels>
							<label2>Iris</label2>
						</labels>
						<outputchannelindex>1</outputchannelindex>
					</clipitem>
					<clipitem id="clipitem-1086" premiereChannelType="stereo">
						<masterclipid>masterclip-2</masterclipid>
						<name>chandrika rocket equations</name>
						<start>3622</start>
						<end>3736</end>
						<in>5392</in>
						<out>5506</out>
						<file id="file-1" />
						<sourcetrack>
							<mediatype>audio</mediatype>
							<trackindex>1</trackindex>
						</sourcetrack>
						<labels>
							<label2>Iris</label2>
						</labels>
						<outputchannelindex>1</outputchannelindex>
					</clipitem>
					<clipitem id="clipitem-1087" premiereChannelType="stereo">
						<masterclipid>masterclip-2</masterclipid>
						<name>chandrika rocket equations</name>
						<start>3736</start>
						<end>3762</end>
						<in>5515</in>
						<out>5541</out>
						<file id="file-1" />
						<sourcetrack>
							<mediatype>audio</mediatype>
							<trackindex>1</trackindex>
						</sourcetrack>
						<labels>
							<label2>Iris</label2>
						</labels>
						<outputchannelindex>1</outputchannelindex>
					</clipitem>
					<clipitem id="clipitem-1088" premiereChannelType="stereo">
						<masterclipid>masterclip-2</masterclipid>
						<name>chandrika rocket equations</name>
						<start>3762</start>
						<end>3798</end>
						<in>5559</in>
						<out>5595</out>
						<file id="file-1" />
						<sourcetrack>
							<mediatype>audio</mediatype>
							<trackindex>1</trackindex>
						</sourcetrack>
						<labels>
							<label2>Iris</label2>
						</labels>
						<outputchannelindex>1</outputchannelindex>
					</clipitem>
					<clipitem id="clipitem-1089" premiereChannelType="stereo">
						<masterclipid>masterclip-2</masterclipid>
						<name>chandrika rocket equations</name>
						<start>3798</start>
						<end>4109</end>
						<in>5621</in>
						<out>5932</out>
						<file id="file-1" />
						<sourcetrack>
							<mediatype>audio</mediatype>
							<trackindex>1</trackindex>
						</sourcetrack>
						<labels>
							<label2>Iris</label2>
						</labels>
						<outputchannelindex>1</outputchannelindex>
					</clipitem>
					<clipitem id="clipitem-1090" premiereChannelType="stereo">
						<masterclipid>masterclip-2</masterclipid>
						<name>chandrika rocket equations</name>
						<start>4109</start>
						<end>4126</end>
						<in>5934</in>
						<out>5951</out>
						<file id="file-1" />
						<sourcetrack>
							<mediatype>audio</mediatype>
							<trackindex>1</trackindex>
						</sourcetrack>
						<labels>
							<label2>Iris</label2>
						</labels>
						<outputchannelindex>1</outputchannelindex>
					</clipitem>
					<clipitem id="clipitem-1091" premiereChannelType="stereo">
						<masterclipid>masterclip-2</masterclipid>
						<name>chandrika rocket equations</name>
						<start>4126</start>
						<end>4290</end>
						<in>5973</in>
						<out>6137</out>
						<file id="file-1" />
						<sourcetrack>
							<mediatype>audio</mediatype>
							<trackindex>1</trackindex>
						</sourcetrack>
						<labels>
							<label2>Iris</label2>
						</labels>
						<outputchannelindex>1</outputchannelindex>
					</clipitem>
					<clipitem id="clipitem-1092" premiereChannelType="stereo">
						<masterclipid>masterclip-2</masterclipid>
						<name>chandrika rocket equations</name>
						<start>4290</start>
						<end>4497</end>
						<in>6148</in>
						<out>6355</out>
						<file id="file-1" />
						<sourcetrack>
							<mediatype>audio</mediatype>
							<trackindex>1</trackindex>
						</sourcetrack>
						<labels>
							<label2>Iris</label2>
						</labels>
						<outputchannelindex>1</outputchannelindex>
					</clipitem>
					<clipitem id="clipitem-1093" premiereChannelType="stereo">
						<masterclipid>masterclip-2</masterclipid>
						<name>chandrika rocket equations</name>
						<start>4497</start>
						<end>4538</end>
						<in>6363</in>
						<out>6404</out>
						<file id="file-1" />
						<sourcetrack>
							<mediatype>audio</mediatype>
							<trackindex>1</trackindex>
						</sourcetrack>
						<labels>
							<label2>Iris</label2>
						</labels>
						<outputchannelindex>1</outputchannelindex>
					</clipitem>
					<clipitem id="clipitem-1094" premiereChannelType="stereo">
						<masterclipid>masterclip-2</masterclipid>
						<name>chandrika rocket equations</name>
						<start>4538</start>
						<end>4608</end>
						<in>6409</in>
						<out>6479</out>
						<file id="file-1" />
						<sourcetrack>
							<mediatype>audio</mediatype>
							<trackindex>1</trackindex>
						</sourcetrack>
						<labels>
							<label2>Iris</label2>
						</labels>
						<outputchannelindex>1</outputchannelindex>
					</clipitem>
					<clipitem id="clipitem-1095" premiereChannelType="stereo">
						<masterclipid>masterclip-2</masterclipid>
						<name>chandrika rocket equations</name>
						<start>4608</start>
						<end>4642</end>
						<in>6481</in>
						<out>6515</out>
						<file id="file-1" />
						<sourcetrack>
							<mediatype>audio</mediatype>
							<trackindex>1</trackindex>
						</sourcetrack>
						<labels>
							<label2>Iris</label2>
						</labels>
						<outputchannelindex>1</outputchannelindex>
					</clipitem>
					<clipitem id="clipitem-1096" premiereChannelType="stereo">
						<masterclipid>masterclip-2</masterclipid>
						<name>chandrika rocket equations</name>
						<start>4642</start>
						<end>4684</end>
						<in>6535</in>
						<out>6577</out>
						<file id="file-1" />
						<sourcetrack>
							<mediatype>audio</mediatype>
							<trackindex>1</trackindex>
						</sourcetrack>
						<labels>
							<label2>Iris</label2>
						</labels>
						<outputchannelindex>1</outputchannelindex>
					</clipitem>
					<clipitem id="clipitem-1097" premiereChannelType="stereo">
						<masterclipid>masterclip-2</masterclipid>
						<name>chandrika rocket equations</name>
						<start>4684</start>
						<end>4784</end>
						<in>6594</in>
						<out>6694</out>
						<file id="file-1" />
						<sourcetrack>
							<mediatype>audio</mediatype>
							<trackindex>1</trackindex>
						</sourcetrack>
						<labels>
							<label2>Iris</label2>
						</labels>
						<outputchannelindex>1</outputchannelindex>
					</clipitem>
					<clipitem id="clipitem-1098" premiereChannelType="stereo">
						<masterclipid>masterclip-2</masterclipid>
						<name>chandrika rocket equations</name>
						<start>4784</start>
						<end>4939</end>
						<in>6695</in>
						<out>6850</out>
						<file id="file-1" />
						<sourcetrack>
							<mediatype>audio</mediatype>
							<trackindex>1</trackindex>
						</sourcetrack>
						<labels>
							<label2>Iris</label2>
						</labels>
						<outputchannelindex>1</outputchannelindex>
					</clipitem>
					<clipitem id="clipitem-1099" premiereChannelType="stereo">
						<masterclipid>masterclip-2</masterclipid>
						<name>chandrika rocket equations</name>
						<start>4939</start>
						<end>5151</end>
						<in>6856</in>
						<out>7068</out>
						<file id="file-1" />
						<sourcetrack>
							<mediatype>audio</mediatype>
							<trackindex>1</trackindex>
						</sourcetrack>
						<labels>
							<label2>Iris</label2>
						</labels>
						<outputchannelindex>1</outputchannelindex>
					</clipitem>
					<clipitem id="clipitem-1100" premiereChannelType="stereo">
						<masterclipid>masterclip-2</masterclipid>
						<name>chandrika rocket equations</name>
						<start>5151</start>
						<end>5223</end>
						<in>7071</in>
						<out>7143</out>
						<file id="file-1" />
						<sourcetrack>
							<mediatype>audio</mediatype>
							<trackindex>1</trackindex>
						</sourcetrack>
						<labels>
							<label2>Iris</label2>
						</labels>
						<outputchannelindex>1</outputchannelindex>
					</clipitem>
					<clipitem id="clipitem-1101" premiereChannelType="stereo">
						<masterclipid>masterclip-2</masterclipid>
						<name>chandrika rocket equations</name>
						<start>5223</start>
						<end>5329</end>
						<in>7151</in>
						<out>7257</out>
						<file id="file-1" />
						<sourcetrack>
							<mediatype>audio</mediatype>
							<trackindex>1</trackindex>
						</sourcetrack>
						<labels>
							<label2>Iris</label2>
						</labels>
						<outputchannelindex>1</outputchannelindex>
					</clipitem>
					<clipitem id="clipitem-1102" premiereChannelType="stereo">
						<masterclipid>masterclip-2</masterclipid>
						<name>chandrika rocket equations</name>
						<start>5329</start>
						<end>5365</end>
						<in>7258</in>
						<out>7294</out>
						<file id="file-1" />
						<sourcetrack>
							<mediatype>audio</mediatype>
							<trackindex>1</trackindex>
						</sourcetrack>
						<labels>
							<label2>Iris</label2>
						</labels>
						<outputchannelindex>1</outputchannelindex>
					</clipitem>
					<clipitem id="clipitem-1103" premiereChannelType="stereo">
						<masterclipid>masterclip-2</masterclipid>
						<name>chandrika rocket equations</name>
						<start>5365</start>
						<end>5572</end>
						<in>7325</in>
						<out>7532</out>
						<file id="file-1" />
						<sourcetrack>
							<mediatype>audio</mediatype>
							<trackindex>1</trackindex>
						</sourcetrack>
						<labels>
							<label2>Iris</label2>
						</labels>
						<outputchannelindex>1</outputchannelindex>
					</clipitem>
					<clipitem id="clipitem-1104" premiereChannelType="stereo">
						<masterclipid>masterclip-2</masterclipid>
						<name>chandrika rocket equations</name>
						<start>5572</start>
						<end>5693</end>
						<in>7553</in>
						<out>7674</out>
						<file id="file-1" />
						<sourcetrack>
							<mediatype>audio</mediatype>
							<trackindex>1</trackindex>
						</sourcetrack>
						<labels>
							<label2>Iris</label2>
						</labels>
						<outputchannelindex>1</outputchannelindex>
					</clipitem>
					<clipitem id="clipitem-1105" premiereChannelType="stereo">
						<masterclipid>masterclip-2</masterclipid>
						<name>chandrika rocket equations</name>
						<start>5693</start>
						<end>5780</end>
						<in>7705</in>
						<out>7792</out>
						<file id="file-1" />
						<sourcetrack>
							<mediatype>audio</mediatype>
							<trackindex>1</trackindex>
						</sourcetrack>
						<labels>
							<label2>Iris</label2>
						</labels>
						<outputchannelindex>1</outputchannelindex>
					</clipitem>
					<clipitem id="clipitem-1106" premiereChannelType="stereo">
						<masterclipid>masterclip-2</masterclipid>
						<name>chandrika rocket equations</name>
						<start>5780</start>
						<end>5860</end>
						<in>7822</in>
						<out>7902</out>
						<file id="file-1" />
						<sourcetrack>
							<mediatype>audio</mediatype>
							<trackindex>1</trackindex>
						</sourcetrack>
						<labels>
							<label2>Iris</label2>
						</labels>
						<outputchannelindex>1</outputchannelindex>
					</clipitem>
					<clipitem id="clipitem-1107" premiereChannelType="stereo">
						<masterclipid>masterclip-2</masterclipid>
						<name>chandrika rocket equations</name>
						<start>5860</start>
						<end>5975</end>
						<in>7929</in>
						<out>8044</out>
						<file id="file-1" />
						<sourcetrack>
							<mediatype>audio</mediatype>
							<trackindex>1</trackindex>
						</sourcetrack>
						<labels>
							<label2>Iris</label2>
						</labels>
						<outputchannelindex>1</outputchannelindex>
					</clipitem>
					<clipitem id="clipitem-1108" premiereChannelType="stereo">
						<masterclipid>masterclip-2</masterclipid>
						<name>chandrika rocket equations</name>
						<start>5975</start>
						<end>6049</end>
						<in>8071</in>
						<out>8145</out>
						<file id="file-1" />
						<sourcetrack>
							<mediatype>audio</mediatype>
							<trackindex>1</trackindex>
						</sourcetrack>
						<labels>
							<label2>Iris</label2>
						</labels>
						<outputchannelindex>1</outputchannelindex>
					</clipitem>
					<clipitem id="clipitem-1109" premiereChannelType="stereo">
						<masterclipid>masterclip-2</masterclipid>
						<name>chandrika rocket equations</name>
						<start>6049</start>
						<end>6065</end>
						<in>8164</in>
						<out>8180</out>
						<file id="file-1" />
						<sourcetrack>
							<mediatype>audio</mediatype>
							<trackindex>1</trackindex>
						</sourcetrack>
						<labels>
							<label2>Iris</label2>
						</labels>
						<outputchannelindex>1</outputchannelindex>
					</clipitem>
					<clipitem id="clipitem-1110" premiereChannelType="stereo">
						<masterclipid>masterclip-2</masterclipid>
						<name>chandrika rocket equations</name>
						<start>6065</start>
						<end>6134</end>
						<in>8186</in>
						<out>8255</out>
						<file id="file-1" />
						<sourcetrack>
							<mediatype>audio</mediatype>
							<trackindex>1</trackindex>
						</sourcetrack>
						<labels>
							<label2>Iris</label2>
						</labels>
						<outputchannelindex>1</outputchannelindex>
					</clipitem>
					<clipitem id="clipitem-1111" premiereChannelType="stereo">
						<masterclipid>masterclip-2</masterclipid>
						<name>chandrika rocket equations</name>
						<start>6134</start>
						<end>6255</end>
						<in>8274</in>
						<out>8395</out>
						<file id="file-1" />
						<sourcetrack>
							<mediatype>audio</mediatype>
							<trackindex>1</trackindex>
						</sourcetrack>
						<labels>
							<label2>Iris</label2>
						</labels>
						<outputchannelindex>1</outputchannelindex>
					</clipitem>
					<clipitem id="clipitem-1112" premiereChannelType="stereo">
						<masterclipid>masterclip-2</masterclipid>
						<name>chandrika rocket equations</name>
						<start>6255</start>
						<end>6533</end>
						<in>8415</in>
						<out>8693</out>
						<file id="file-1" />
						<sourcetrack>
							<mediatype>audio</mediatype>
							<trackindex>1</trackindex>
						</sourcetrack>
						<labels>
							<label2>Iris</label2>
						</labels>
						<outputchannelindex>1</outputchannelindex>
					</clipitem>
					<clipitem id="clipitem-1113" premiereChannelType="stereo">
						<masterclipid>masterclip-2</masterclipid>
						<name>chandrika rocket equations</name>
						<start>6533</start>
						<end>6559</end>
						<in>8729</in>
						<out>8755</out>
						<file id="file-1" />
						<sourcetrack>
							<mediatype>audio</mediatype>
							<trackindex>1</trackindex>
						</sourcetrack>
						<labels>
							<label2>Iris</label2>
						</labels>
						<outputchannelindex>1</outputchannelindex>
					</clipitem>
					<clipitem id="clipitem-1114" premiereChannelType="stereo">
						<masterclipid>masterclip-2</masterclipid>
						<name>chandrika rocket equations</name>
						<start>6559</start>
						<end>6728</end>
						<in>8760</in>
						<out>8929</out>
						<file id="file-1" />
						<sourcetrack>
							<mediatype>audio</mediatype>
							<trackindex>1</trackindex>
						</sourcetrack>
						<labels>
							<label2>Iris</label2>
						</labels>
						<outputchannelindex>1</outputchannelindex>
					</clipitem>
					<clipitem id="clipitem-1115" premiereChannelType="stereo">
						<masterclipid>masterclip-2</masterclipid>
						<name>chandrika rocket equations</name>
						<start>6728</start>
						<end>6830</end>
						<in>8942</in>
						<out>9044</out>
						<file id="file-1" />
						<sourcetrack>
							<mediatype>audio</mediatype>
							<trackindex>1</trackindex>
						</sourcetrack>
						<labels>
							<label2>Iris</label2>
						</labels>
						<outputchannelindex>1</outputchannelindex>
					</clipitem>
					<clipitem id="clipitem-1116" premiereChannelType="stereo">
						<masterclipid>masterclip-2</masterclipid>
						<name>chandrika rocket equations</name>
						<start>6830</start>
						<end>6845</end>
						<in>9076</in>
						<out>9091</out>
						<file id="file-1" />
						<sourcetrack>
							<mediatype>audio</mediatype>
							<trackindex>1</trackindex>
						</sourcetrack>
						<labels>
							<label2>Iris</label2>
						</labels>
						<outputchannelindex>1</outputchannelindex>
					</clipitem>
					<clipitem id="clipitem-1117" premiereChannelType="stereo">
						<masterclipid>masterclip-2</masterclipid>
						<name>chandrika rocket equations</name>
						<start>6845</start>
						<end>6902</end>
						<in>9110</in>
						<out>9167</out>
						<file id="file-1" />
						<sourcetrack>
							<mediatype>audio</mediatype>
							<trackindex>1</trackindex>
						</sourcetrack>
						<labels>
							<label2>Iris</label2>
						</labels>
						<outputchannelindex>1</outputchannelindex>
					</clipitem>
					<clipitem id="clipitem-1118" premiereChannelType="stereo">
						<masterclipid>masterclip-2</masterclipid>
						<name>chandrika rocket equations</name>
						<start>6902</start>
						<end>7011</end>
						<in>9201</in>
						<out>9310</out>
						<file id="file-1" />
						<sourcetrack>
							<mediatype>audio</mediatype>
							<trackindex>1</trackindex>
						</sourcetrack>
						<labels>
							<label2>Iris</label2>
						</labels>
						<outputchannelindex>1</outputchannelindex>
					</clipitem>
					<clipitem id="clipitem-1119" premiereChannelType="stereo">
						<masterclipid>masterclip-2</masterclipid>
						<name>chandrika rocket equations</name>
						<start>7011</start>
						<end>7032</end>
						<in>9346</in>
						<out>9367</out>
						<file id="file-1" />
						<sourcetrack>
							<mediatype>audio</mediatype>
							<trackindex>1</trackindex>
						</sourcetrack>
						<labels>
							<label2>Iris</label2>
						</labels>
						<outputchannelindex>1</outputchannelindex>
					</clipitem>
					<clipitem id="clipitem-1120" premiereChannelType="stereo">
						<masterclipid>masterclip-2</masterclipid>
						<name>chandrika rocket equations</name>
						<start>7032</start>
						<end>7061</end>
						<in>9385</in>
						<out>9414</out>
						<file id="file-1" />
						<sourcetrack>
							<mediatype>audio</mediatype>
							<trackindex>1</trackindex>
						</sourcetrack>
						<labels>
							<label2>Iris</label2>
						</labels>
						<outputchannelindex>1</outputchannelindex>
					</clipitem>
					<clipitem id="clipitem-1121" premiereChannelType="stereo">
						<masterclipid>masterclip-2</masterclipid>
						<name>chandrika rocket equations</name>
						<start>7061</start>
						<end>7161</end>
						<in>9432</in>
						<out>9532</out>
						<file id="file-1" />
						<sourcetrack>
							<mediatype>audio</mediatype>
							<trackindex>1</trackindex>
						</sourcetrack>
						<labels>
							<label2>Iris</label2>
						</labels>
						<outputchannelindex>1</outputchannelindex>
					</clipitem>
					<clipitem id="clipitem-1122" premiereChannelType="stereo">
						<masterclipid>masterclip-2</masterclipid>
						<name>chandrika rocket equations</name>
						<start>7161</start>
						<end>7488</end>
						<in>9559</in>
						<out>9886</out>
						<file id="file-1" />
						<sourcetrack>
							<mediatype>audio</mediatype>
							<trackindex>1</trackindex>
						</sourcetrack>
						<labels>
							<label2>Iris</label2>
						</labels>
						<outputchannelindex>1</outputchannelindex>
					</clipitem>
					<clipitem id="clipitem-1123" premiereChannelType="stereo">
						<masterclipid>masterclip-2</masterclipid>
						<name>chandrika rocket equations</name>
						<start>7488</start>
						<end>7503</end>
						<in>9903</in>
						<out>9918</out>
						<file id="file-1" />
						<sourcetrack>
							<mediatype>audio</mediatype>
							<trackindex>1</trackindex>
						</sourcetrack>
						<labels>
							<label2>Iris</label2>
						</labels>
						<outputchannelindex>1</outputchannelindex>
					</clipitem>
					<clipitem id="clipitem-1124" premiereChannelType="stereo">
						<masterclipid>masterclip-2</masterclipid>
						<name>chandrika rocket equations</name>
						<start>7503</start>
						<end>7546</end>
						<in>9934</in>
						<out>9977</out>
						<file id="file-1" />
						<sourcetrack>
							<mediatype>audio</mediatype>
							<trackindex>1</trackindex>
						</sourcetrack>
						<labels>
							<label2>Iris</label2>
						</labels>
						<outputchannelindex>1</outputchannelindex>
					</clipitem>
					<clipitem id="clipitem-1125" premiereChannelType="stereo">
						<masterclipid>masterclip-2</masterclipid>
						<name>chandrika rocket equations</name>
						<start>7546</start>
						<end>7843</end>
						<in>9988</in>
						<out>10285</out>
						<file id="file-1" />
						<sourcetrack>
							<mediatype>audio</mediatype>
							<trackindex>1</trackindex>
						</sourcetrack>
						<labels>
							<label2>Iris</label2>
						</labels>
						<outputchannelindex>1</outputchannelindex>
					</clipitem>
					<clipitem id="clipitem-1126" premiereChannelType="stereo">
						<masterclipid>masterclip-2</masterclipid>
						<name>chandrika rocket equations</name>
						<start>7843</start>
						<end>7929</end>
						<in>10292</in>
						<out>10378</out>
						<file id="file-1" />
						<sourcetrack>
							<mediatype>audio</mediatype>
							<trackindex>1</trackindex>
						</sourcetrack>
						<labels>
							<label2>Iris</label2>
						</labels>
						<outputchannelindex>1</outputchannelindex>
					</clipitem>
					<clipitem id="clipitem-1127" premiereChannelType="stereo">
						<masterclipid>masterclip-2</masterclipid>
						<name>chandrika rocket equations</name>
						<start>7929</start>
						<end>7987</end>
						<in>10385</in>
						<out>10443</out>
						<file id="file-1" />
						<sourcetrack>
							<mediatype>audio</mediatype>
							<trackindex>1</trackindex>
						</sourcetrack>
						<labels>
							<label2>Iris</label2>
						</labels>
						<outputchannelindex>1</outputchannelindex>
					</clipitem>
					<clipitem id="clipitem-1128" premiereChannelType="stereo">
						<masterclipid>masterclip-2</masterclipid>
						<name>chandrika rocket equations</name>
						<start>7987</start>
						<end>8163</end>
						<in>10460</in>
						<out>10636</out>
						<file id="file-1" />
						<sourcetrack>
							<mediatype>audio</mediatype>
							<trackindex>1</trackindex>
						</sourcetrack>
						<labels>
							<label2>Iris</label2>
						</labels>
						<outputchannelindex>1</outputchannelindex>
					</clipitem>
					<clipitem id="clipitem-1129" premiereChannelType="stereo">
						<masterclipid>masterclip-2</masterclipid>
						<name>chandrika rocket equations</name>
						<start>8163</start>
						<end>8407</end>
						<in>10638</in>
						<out>10882</out>
						<file id="file-1" />
						<sourcetrack>
							<mediatype>audio</mediatype>
							<trackindex>1</trackindex>
						</sourcetrack>
						<labels>
							<label2>Iris</label2>
						</labels>
						<outputchannelindex>1</outputchannelindex>
					</clipitem>
					<clipitem id="clipitem-1130" premiereChannelType="stereo">
						<masterclipid>masterclip-2</masterclipid>
						<name>chandrika rocket equations</name>
						<start>8407</start>
						<end>8493</end>
						<in>10892</in>
						<out>10978</out>
						<file id="file-1" />
						<sourcetrack>
							<mediatype>audio</mediatype>
							<trackindex>1</trackindex>
						</sourcetrack>
						<labels>
							<label2>Iris</label2>
						</labels>
						<outputchannelindex>1</outputchannelindex>
					</clipitem>
					<clipitem id="clipitem-1131" premiereChannelType="stereo">
						<masterclipid>masterclip-2</masterclipid>
						<name>chandrika rocket equations</name>
						<start>8493</start>
						<end>8599</end>
						<in>10984</in>
						<out>11090</out>
						<file id="file-1" />
						<sourcetrack>
							<mediatype>audio</mediatype>
							<trackindex>1</trackindex>
						</sourcetrack>
						<labels>
							<label2>Iris</label2>
						</labels>
						<outputchannelindex>1</outputchannelindex>
					</clipitem>
					<clipitem id="clipitem-1132" premiereChannelType="stereo">
						<masterclipid>masterclip-2</masterclipid>
						<name>chandrika rocket equations</name>
						<start>8599</start>
						<end>8710</end>
						<in>11099</in>
						<out>11210</out>
						<file id="file-1" />
						<sourcetrack>
							<mediatype>audio</mediatype>
							<trackindex>1</trackindex>
						</sourcetrack>
						<labels>
							<label2>Iris</label2>
						</labels>
						<outputchannelindex>1</outputchannelindex>
					</clipitem>
					<clipitem id="clipitem-1133" premiereChannelType="stereo">
						<masterclipid>masterclip-2</masterclipid>
						<name>chandrika rocket equations</name>
						<start>8710</start>
						<end>8894</end>
						<in>11226</in>
						<out>11410</out>
						<file id="file-1" />
						<sourcetrack>
							<mediatype>audio</mediatype>
							<trackindex>1</trackindex>
						</sourcetrack>
						<labels>
							<label2>Iris</label2>
						</labels>
						<outputchannelindex>1</outputchannelindex>
					</clipitem>
					<clipitem id="clipitem-1134" premiereChannelType="stereo">
						<masterclipid>masterclip-2</masterclipid>
						<name>chandrika rocket equations</name>
						<start>8894</start>
						<end>8914</end>
						<in>11412</in>
						<out>11432</out>
						<file id="file-1" />
						<sourcetrack>
							<mediatype>audio</mediatype>
							<trackindex>1</trackindex>
						</sourcetrack>
						<labels>
							<label2>Iris</label2>
						</labels>
						<outputchannelindex>1</outputchannelindex>
					</clipitem>
					<clipitem id="clipitem-1135" premiereChannelType="stereo">
						<masterclipid>masterclip-2</masterclipid>
						<name>chandrika rocket equations</name>
						<start>8914</start>
						<end>8960</end>
						<in>11447</in>
						<out>11493</out>
						<file id="file-1" />
						<sourcetrack>
							<mediatype>audio</mediatype>
							<trackindex>1</trackindex>
						</sourcetrack>
						<labels>
							<label2>Iris</label2>
						</labels>
						<outputchannelindex>1</outputchannelindex>
					</clipitem>
					<clipitem id="clipitem-1136" premiereChannelType="stereo">
						<masterclipid>masterclip-2</masterclipid>
						<name>chandrika rocket equations</name>
						<start>8960</start>
						<end>9335</end>
						<in>11503</in>
						<out>11878</out>
						<file id="file-1" />
						<sourcetrack>
							<mediatype>audio</mediatype>
							<trackindex>1</trackindex>
						</sourcetrack>
						<labels>
							<label2>Iris</label2>
						</labels>
						<outputchannelindex>1</outputchannelindex>
					</clipitem>
					<clipitem id="clipitem-1137" premiereChannelType="stereo">
						<masterclipid>masterclip-2</masterclipid>
						<name>chandrika rocket equations</name>
						<start>9335</start>
						<end>9350</end>
						<in>11883</in>
						<out>11898</out>
						<file id="file-1" />
						<sourcetrack>
							<mediatype>audio</mediatype>
							<trackindex>1</trackindex>
						</sourcetrack>
						<labels>
							<label2>Iris</label2>
						</labels>
						<outputchannelindex>1</outputchannelindex>
					</clipitem>
					<clipitem id="clipitem-1138" premiereChannelType="stereo">
						<masterclipid>masterclip-2</masterclipid>
						<name>chandrika rocket equations</name>
						<start>9350</start>
						<end>9558</end>
						<in>11937</in>
						<out>12145</out>
						<file id="file-1" />
						<sourcetrack>
							<mediatype>audio</mediatype>
							<trackindex>1</trackindex>
						</sourcetrack>
						<labels>
							<label2>Iris</label2>
						</labels>
						<outputchannelindex>1</outputchannelindex>
					</clipitem>
					<clipitem id="clipitem-1139" premiereChannelType="stereo">
						<masterclipid>masterclip-2</masterclipid>
						<name>chandrika rocket equations</name>
						<start>9558</start>
						<end>9616</end>
						<in>12197</in>
						<out>12255</out>
						<file id="file-1" />
						<sourcetrack>
							<mediatype>audio</mediatype>
							<trackindex>1</trackindex>
						</sourcetrack>
						<labels>
							<label2>Iris</label2>
						</labels>
						<outputchannelindex>1</outputchannelindex>
					</clipitem>
					<clipitem id="clipitem-1140" premiereChannelType="stereo">
						<masterclipid>masterclip-2</masterclipid>
						<name>chandrika rocket equations</name>
						<start>9616</start>
						<end>9660</end>
						<in>12332</in>
						<out>12376</out>
						<file id="file-1" />
						<sourcetrack>
							<mediatype>audio</mediatype>
							<trackindex>1</trackindex>
						</sourcetrack>
						<labels>
							<label2>Iris</label2>
						</labels>
						<outputchannelindex>1</outputchannelindex>
					</clipitem>
					<clipitem id="clipitem-1141" premiereChannelType="stereo">
						<masterclipid>masterclip-2</masterclipid>
						<name>chandrika rocket equations</name>
						<start>9660</start>
						<end>9732</end>
						<in>12386</in>
						<out>12458</out>
						<file id="file-1" />
						<sourcetrack>
							<mediatype>audio</mediatype>
							<trackindex>1</trackindex>
						</sourcetrack>
						<labels>
							<label2>Iris</label2>
						</labels>
						<outputchannelindex>1</outputchannelindex>
					</clipitem>
					<clipitem id="clipitem-1142" premiereChannelType="stereo">
						<masterclipid>masterclip-2</masterclipid>
						<name>chandrika rocket equations</name>
						<start>9732</start>
						<end>9950</end>
						<in>12462</in>
						<out>12680</out>
						<file id="file-1" />
						<sourcetrack>
							<mediatype>audio</mediatype>
							<trackindex>1</trackindex>
						</sourcetrack>
						<labels>
							<label2>Iris</label2>
						</labels>
						<outputchannelindex>1</outputchannelindex>
					</clipitem>
					<clipitem id="clipitem-1143" premiereChannelType="stereo">
						<masterclipid>masterclip-2</masterclipid>
						<name>chandrika rocket equations</name>
						<start>9950</start>
						<end>9998</end>
						<in>12744</in>
						<out>12792</out>
						<file id="file-1" />
						<sourcetrack>
							<mediatype>audio</mediatype>
							<trackindex>1</trackindex>
						</sourcetrack>
						<labels>
							<label2>Iris</label2>
						</labels>
						<outputchannelindex>1</outputchannelindex>
					</clipitem>
					<clipitem id="clipitem-1144" premiereChannelType="stereo">
						<masterclipid>masterclip-2</masterclipid>
						<name>chandrika rocket equations</name>
						<start>9998</start>
						<end>10068</end>
						<in>12794</in>
						<out>12864</out>
						<file id="file-1" />
						<sourcetrack>
							<mediatype>audio</mediatype>
							<trackindex>1</trackindex>
						</sourcetrack>
						<labels>
							<label2>Iris</label2>
						</labels>
						<outputchannelindex>1</outputchannelindex>
					</clipitem>
					<clipitem id="clipitem-1145" premiereChannelType="stereo">
						<masterclipid>masterclip-2</masterclipid>
						<name>chandrika rocket equations</name>
						<start>10068</start>
						<end>10110</end>
						<in>12983</in>
						<out>13025</out>
						<file id="file-1" />
						<sourcetrack>
							<mediatype>audio</mediatype>
							<trackindex>1</trackindex>
						</sourcetrack>
						<labels>
							<label2>Iris</label2>
						</labels>
						<outputchannelindex>1</outputchannelindex>
					</clipitem>
					<clipitem id="clipitem-1146" premiereChannelType="stereo">
						<masterclipid>masterclip-2</masterclipid>
						<name>chandrika rocket equations</name>
						<start>10110</start>
						<end>10158</end>
						<in>13042</in>
						<out>13090</out>
						<file id="file-1" />
						<sourcetrack>
							<mediatype>audio</mediatype>
							<trackindex>1</trackindex>
						</sourcetrack>
						<labels>
							<label2>Iris</label2>
						</labels>
						<outputchannelindex>1</outputchannelindex>
					</clipitem>
					<clipitem id="clipitem-1147" premiereChannelType="stereo">
						<masterclipid>masterclip-2</masterclipid>
						<name>chandrika rocket equations</name>
						<start>10158</start>
						<end>10198</end>
						<in>13102</in>
						<out>13142</out>
						<file id="file-1" />
						<sourcetrack>
							<mediatype>audio</mediatype>
							<trackindex>1</trackindex>
						</sourcetrack>
						<labels>
							<label2>Iris</label2>
						</labels>
						<outputchannelindex>1</outputchannelindex>
					</clipitem>
					<clipitem id="clipitem-1148" premiereChannelType="stereo">
						<masterclipid>masterclip-2</masterclipid>
						<name>chandrika rocket equations</name>
						<start>10198</start>
						<end>10242</end>
						<in>13186</in>
						<out>13230</out>
						<file id="file-1" />
						<sourcetrack>
							<mediatype>audio</mediatype>
							<trackindex>1</trackindex>
						</sourcetrack>
						<labels>
							<label2>Iris</label2>
						</labels>
						<outputchannelindex>1</outputchannelindex>
					</clipitem>
					<clipitem id="clipitem-1149" premiereChannelType="stereo">
						<masterclipid>masterclip-2</masterclipid>
						<name>chandrika rocket equations</name>
						<start>10242</start>
						<end>10349</end>
						<in>13335</in>
						<out>13442</out>
						<file id="file-1" />
						<sourcetrack>
							<mediatype>audio</mediatype>
							<trackindex>1</trackindex>
						</sourcetrack>
						<labels>
							<label2>Iris</label2>
						</labels>
						<outputchannelindex>1</outputchannelindex>
					</clipitem>
					<clipitem id="clipitem-1150" premiereChannelType="stereo">
						<masterclipid>masterclip-2</masterclipid>
						<name>chandrika rocket equations</name>
						<start>10349</start>
						<end>10403</end>
						<in>13455</in>
						<out>13509</out>
						<file id="file-1" />
						<sourcetrack>
							<mediatype>audio</mediatype>
							<trackindex>1</trackindex>
						</sourcetrack>
						<labels>
							<label2>Iris</label2>
						</labels>
						<outputchannelindex>1</outputchannelindex>
					</clipitem>
					<clipitem id="clipitem-1151" premiereChannelType="stereo">
						<masterclipid>masterclip-2</masterclipid>
						<name>chandrika rocket equations</name>
						<start>10403</start>
						<end>10544</end>
						<in>13517</in>
						<out>13658</out>
						<file id="file-1" />
						<sourcetrack>
							<mediatype>audio</mediatype>
							<trackindex>1</trackindex>
						</sourcetrack>
						<labels>
							<label2>Iris</label2>
						</labels>
						<outputchannelindex>1</outputchannelindex>
					</clipitem>
					<clipitem id="clipitem-1152" premiereChannelType="stereo">
						<masterclipid>masterclip-2</masterclipid>
						<name>chandrika rocket equations</name>
						<start>10544</start>
						<end>10705</end>
						<in>13751</in>
						<out>13912</out>
						<file id="file-1" />
						<sourcetrack>
							<mediatype>audio</mediatype>
							<trackindex>1</trackindex>
						</sourcetrack>
						<labels>
							<label2>Iris</label2>
						</labels>
						<outputchannelindex>1</outputchannelindex>
					</clipitem>
					<clipitem id="clipitem-1153" premiereChannelType="stereo">
						<masterclipid>masterclip-2</masterclipid>
						<name>chandrika rocket equations</name>
						<start>10705</start>
						<end>10796</end>
						<in>13935</in>
						<out>14026</out>
						<file id="file-1" />
						<sourcetrack>
							<mediatype>audio</mediatype>
							<trackindex>1</trackindex>
						</sourcetrack>
						<labels>
							<label2>Iris</label2>
						</labels>
						<outputchannelindex>1</outputchannelindex>
					</clipitem>
					<clipitem id="clipitem-1154" premiereChannelType="stereo">
						<masterclipid>masterclip-2</masterclipid>
						<name>chandrika rocket equations</name>
						<start>10796</start>
						<end>10892</end>
						<in>14032</in>
						<out>14128</out>
						<file id="file-1" />
						<sourcetrack>
							<mediatype>audio</mediatype>
							<trackindex>1</trackindex>
						</sourcetrack>
						<labels>
							<label2>Iris</label2>
						</labels>
						<outputchannelindex>1</outputchannelindex>
					</clipitem>
					<clipitem id="clipitem-1155" premiereChannelType="stereo">
						<masterclipid>masterclip-2</masterclipid>
						<name>chandrika rocket equations</name>
						<start>10892</start>
						<end>10964</end>
						<in>14206</in>
						<out>14278</out>
						<file id="file-1" />
						<sourcetrack>
							<mediatype>audio</mediatype>
							<trackindex>1</trackindex>
						</sourcetrack>
						<labels>
							<label2>Iris</label2>
						</labels>
						<outputchannelindex>1</outputchannelindex>
					</clipitem>
					<clipitem id="clipitem-1156" premiereChannelType="stereo">
						<masterclipid>masterclip-2</masterclipid>
						<name>chandrika rocket equations</name>
						<start>10964</start>
						<end>11032</end>
						<in>14294</in>
						<out>14362</out>
						<file id="file-1" />
						<sourcetrack>
							<mediatype>audio</mediatype>
							<trackindex>1</trackindex>
						</sourcetrack>
						<labels>
							<label2>Iris</label2>
						</labels>
						<outputchannelindex>1</outputchannelindex>
					</clipitem>
					<clipitem id="clipitem-1157" premiereChannelType="stereo">
						<masterclipid>masterclip-2</masterclipid>
						<name>chandrika rocket equations</name>
						<start>11032</start>
						<end>11073</end>
						<in>14364</in>
						<out>14405</out>
						<file id="file-1" />
						<sourcetrack>
							<mediatype>audio</mediatype>
							<trackindex>1</trackindex>
						</sourcetrack>
						<labels>
							<label2>Iris</label2>
						</labels>
						<outputchannelindex>1</outputchannelindex>
					</clipitem>
					<clipitem id="clipitem-1158" premiereChannelType="stereo">
						<masterclipid>masterclip-2</masterclipid>
						<name>chandrika rocket equations</name>
						<start>11073</start>
						<end>11151</end>
						<in>14406</in>
						<out>14484</out>
						<file id="file-1" />
						<sourcetrack>
							<mediatype>audio</mediatype>
							<trackindex>1</trackindex>
						</sourcetrack>
						<labels>
							<label2>Iris</label2>
						</labels>
						<outputchannelindex>1</outputchannelindex>
					</clipitem>
					<clipitem id="clipitem-1159" premiereChannelType="stereo">
						<masterclipid>masterclip-2</masterclipid>
						<name>chandrika rocket equations</name>
						<start>11151</start>
						<end>11166</end>
						<in>14486</in>
						<out>14501</out>
						<file id="file-1" />
						<sourcetrack>
							<mediatype>audio</mediatype>
							<trackindex>1</trackindex>
						</sourcetrack>
						<labels>
							<label2>Iris</label2>
						</labels>
						<outputchannelindex>1</outputchannelindex>
					</clipitem>
					<clipitem id="clipitem-1160" premiereChannelType="stereo">
						<masterclipid>masterclip-2</masterclipid>
						<name>chandrika rocket equations</name>
						<start>11166</start>
						<end>11251</end>
						<in>14553</in>
						<out>14638</out>
						<file id="file-1" />
						<sourcetrack>
							<mediatype>audio</mediatype>
							<trackindex>1</trackindex>
						</sourcetrack>
						<labels>
							<label2>Iris</label2>
						</labels>
						<outputchannelindex>1</outputchannelindex>
					</clipitem>
					<clipitem id="clipitem-1161" premiereChannelType="stereo">
						<masterclipid>masterclip-2</masterclipid>
						<name>chandrika rocket equations</name>
						<start>11251</start>
						<end>11378</end>
						<in>14672</in>
						<out>14799</out>
						<file id="file-1" />
						<sourcetrack>
							<mediatype>audio</mediatype>
							<trackindex>1</trackindex>
						</sourcetrack>
						<labels>
							<label2>Iris</label2>
						</labels>
						<outputchannelindex>1</outputchannelindex>
					</clipitem>
					<clipitem id="clipitem-1162" premiereChannelType="stereo">
						<masterclipid>masterclip-2</masterclipid>
						<name>chandrika rocket equations</name>
						<start>11378</start>
						<end>11719</end>
						<in>14829</in>
						<out>15170</out>
						<file id="file-1" />
						<sourcetrack>
							<mediatype>audio</mediatype>
							<trackindex>1</trackindex>
						</sourcetrack>
						<labels>
							<label2>Iris</label2>
						</labels>
						<outputchannelindex>1</outputchannelindex>
					</clipitem>
					<clipitem id="clipitem-1163" premiereChannelType="stereo">
						<masterclipid>masterclip-2</masterclipid>
						<name>chandrika rocket equations</name>
						<start>11719</start>
						<end>11935</end>
						<in>15192</in>
						<out>15408</out>
						<file id="file-1" />
						<sourcetrack>
							<mediatype>audio</mediatype>
							<trackindex>1</trackindex>
						</sourcetrack>
						<labels>
							<label2>Iris</label2>
						</labels>
						<outputchannelindex>1</outputchannelindex>
					</clipitem>
					<clipitem id="clipitem-1164" premiereChannelType="stereo">
						<masterclipid>masterclip-2</masterclipid>
						<name>chandrika rocket equations</name>
						<start>11935</start>
						<end>12004</end>
						<in>15445</in>
						<out>15514</out>
						<file id="file-1" />
						<sourcetrack>
							<mediatype>audio</mediatype>
							<trackindex>1</trackindex>
						</sourcetrack>
						<labels>
							<label2>Iris</label2>
						</labels>
						<outputchannelindex>1</outputchannelindex>
					</clipitem>
					<clipitem id="clipitem-1165" premiereChannelType="stereo">
						<masterclipid>masterclip-2</masterclipid>
						<name>chandrika rocket equations</name>
						<start>12004</start>
						<end>12038</end>
						<in>15528</in>
						<out>15562</out>
						<file id="file-1" />
						<sourcetrack>
							<mediatype>audio</mediatype>
							<trackindex>1</trackindex>
						</sourcetrack>
						<labels>
							<label2>Iris</label2>
						</labels>
						<outputchannelindex>1</outputchannelindex>
					</clipitem>
					<clipitem id="clipitem-1166" premiereChannelType="stereo">
						<masterclipid>masterclip-2</masterclipid>
						<name>chandrika rocket equations</name>
						<start>12038</start>
						<end>12126</end>
						<in>15569</in>
						<out>15657</out>
						<file id="file-1" />
						<sourcetrack>
							<mediatype>audio</mediatype>
							<trackindex>1</trackindex>
						</sourcetrack>
						<labels>
							<label2>Iris</label2>
						</labels>
						<outputchannelindex>1</outputchannelindex>
					</clipitem>
					<clipitem id="clipitem-1167" premiereChannelType="stereo">
						<masterclipid>masterclip-2</masterclipid>
						<name>chandrika rocket equations</name>
						<start>12126</start>
						<end>12272</end>
						<in>15659</in>
						<out>15805</out>
						<file id="file-1" />
						<sourcetrack>
							<mediatype>audio</mediatype>
							<trackindex>1</trackindex>
						</sourcetrack>
						<labels>
							<label2>Iris</label2>
						</labels>
						<outputchannelindex>1</outputchannelindex>
					</clipitem>
					<clipitem id="clipitem-1168" premiereChannelType="stereo">
						<masterclipid>masterclip-2</masterclipid>
						<name>chandrika rocket equations</name>
						<start>12272</start>
						<end>12626</end>
						<in>15816</in>
						<out>16170</out>
						<file id="file-1" />
						<sourcetrack>
							<mediatype>audio</mediatype>
							<trackindex>1</trackindex>
						</sourcetrack>
						<labels>
							<label2>Iris</label2>
						</labels>
						<outputchannelindex>1</outputchannelindex>
					</clipitem>
					<clipitem id="clipitem-1169" premiereChannelType="stereo">
						<masterclipid>masterclip-2</masterclipid>
						<name>chandrika rocket equations</name>
						<start>12626</start>
						<end>12671</end>
						<in>16180</in>
						<out>16225</out>
						<file id="file-1" />
						<sourcetrack>
							<mediatype>audio</mediatype>
							<trackindex>1</trackindex>
						</sourcetrack>
						<labels>
							<label2>Iris</label2>
						</labels>
						<outputchannelindex>1</outputchannelindex>
					</clipitem>
					<clipitem id="clipitem-1170" premiereChannelType="stereo">
						<masterclipid>masterclip-2</masterclipid>
						<name>chandrika rocket equations</name>
						<start>12671</start>
						<end>12861</end>
						<in>16230</in>
						<out>16420</out>
						<file id="file-1" />
						<sourcetrack>
							<mediatype>audio</mediatype>
							<trackindex>1</trackindex>
						</sourcetrack>
						<labels>
							<label2>Iris</label2>
						</labels>
						<outputchannelindex>1</outputchannelindex>
					</clipitem>
					<clipitem id="clipitem-1171" premiereChannelType="stereo">
						<masterclipid>masterclip-2</masterclipid>
						<name>chandrika rocket equations</name>
						<start>12861</start>
						<end>12911</end>
						<in>16475</in>
						<out>16525</out>
						<file id="file-1" />
						<sourcetrack>
							<mediatype>audio</mediatype>
							<trackindex>1</trackindex>
						</sourcetrack>
						<labels>
							<label2>Iris</label2>
						</labels>
						<outputchannelindex>1</outputchannelindex>
					</clipitem>
					<clipitem id="clipitem-1172" premiereChannelType="stereo">
						<masterclipid>masterclip-2</masterclipid>
						<name>chandrika rocket equations</name>
						<start>12911</start>
						<end>13097</end>
						<in>16529</in>
						<out>16715</out>
						<file id="file-1" />
						<sourcetrack>
							<mediatype>audio</mediatype>
							<trackindex>1</trackindex>
						</sourcetrack>
						<labels>
							<label2>Iris</label2>
						</labels>
						<outputchannelindex>1</outputchannelindex>
					</clipitem>
					<clipitem id="clipitem-1173" premiereChannelType="stereo">
						<masterclipid>masterclip-2</masterclipid>
						<name>chandrika rocket equations</name>
						<start>13097</start>
						<end>13112</end>
						<in>16807</in>
						<out>16822</out>
						<file id="file-1" />
						<sourcetrack>
							<mediatype>audio</mediatype>
							<trackindex>1</trackindex>
						</sourcetrack>
						<labels>
							<label2>Iris</label2>
						</labels>
						<outputchannelindex>1</outputchannelindex>
					</clipitem>
					<clipitem id="clipitem-1174" premiereChannelType="stereo">
						<masterclipid>masterclip-2</masterclipid>
						<name>chandrika rocket equations</name>
						<start>13112</start>
						<end>13207</end>
						<in>16970</in>
						<out>17065</out>
						<file id="file-1" />
						<sourcetrack>
							<mediatype>audio</mediatype>
							<trackindex>1</trackindex>
						</sourcetrack>
						<labels>
							<label2>Iris</label2>
						</labels>
						<outputchannelindex>1</outputchannelindex>
					</clipitem>
					<clipitem id="clipitem-1175" premiereChannelType="stereo">
						<masterclipid>masterclip-2</masterclipid>
						<name>chandrika rocket equations</name>
						<start>13207</start>
						<end>13295</end>
						<in>17110</in>
						<out>17198</out>
						<file id="file-1" />
						<sourcetrack>
							<mediatype>audio</mediatype>
							<trackindex>1</trackindex>
						</sourcetrack>
						<labels>
							<label2>Iris</label2>
						</labels>
						<outputchannelindex>1</outputchannelindex>
					</clipitem>
					<clipitem id="clipitem-1176" premiereChannelType="stereo">
						<masterclipid>masterclip-2</masterclipid>
						<name>chandrika rocket equations</name>
						<start>13295</start>
						<end>13731</end>
						<in>17289</in>
						<out>17725</out>
						<file id="file-1" />
						<sourcetrack>
							<mediatype>audio</mediatype>
							<trackindex>1</trackindex>
						</sourcetrack>
						<labels>
							<label2>Iris</label2>
						</labels>
						<outputchannelindex>1</outputchannelindex>
					</clipitem>
					<clipitem id="clipitem-1177" premiereChannelType="stereo">
						<masterclipid>masterclip-2</masterclipid>
						<name>chandrika rocket equations</name>
						<start>13731</start>
						<end>13815</end>
						<in>17761</in>
						<out>17845</out>
						<file id="file-1" />
						<sourcetrack>
							<mediatype>audio</mediatype>
							<trackindex>1</trackindex>
						</sourcetrack>
						<labels>
							<label2>Iris</label2>
						</labels>
						<outputchannelindex>1</outputchannelindex>
					</clipitem>
					<clipitem id="clipitem-1178" premiereChannelType="stereo">
						<masterclipid>masterclip-2</masterclipid>
						<name>chandrika rocket equations</name>
						<start>13815</start>
						<end>13893</end>
						<in>17850</in>
						<out>17928</out>
						<file id="file-1" />
						<sourcetrack>
							<mediatype>audio</mediatype>
							<trackindex>1</trackindex>
						</sourcetrack>
						<labels>
							<label2>Iris</label2>
						</labels>
						<outputchannelindex>1</outputchannelindex>
					</clipitem>
					<clipitem id="clipitem-1179" premiereChannelType="stereo">
						<masterclipid>masterclip-2</masterclipid>
						<name>chandrika rocket equations</name>
						<start>13893</start>
						<end>14023</end>
						<in>17959</in>
						<out>18089</out>
						<file id="file-1" />
						<sourcetrack>
							<mediatype>audio</mediatype>
							<trackindex>1</trackindex>
						</sourcetrack>
						<labels>
							<label2>Iris</label2>
						</labels>
						<outputchannelindex>1</outputchannelindex>
					</clipitem>
					<clipitem id="clipitem-1180" premiereChannelType="stereo">
						<masterclipid>masterclip-2</masterclipid>
						<name>chandrika rocket equations</name>
						<start>14023</start>
						<end>14066</end>
						<in>18222</in>
						<out>18265</out>
						<file id="file-1" />
						<sourcetrack>
							<mediatype>audio</mediatype>
							<trackindex>1</trackindex>
						</sourcetrack>
						<labels>
							<label2>Iris</label2>
						</labels>
						<outputchannelindex>1</outputchannelindex>
					</clipitem>
					<clipitem id="clipitem-1181" premiereChannelType="stereo">
						<masterclipid>masterclip-2</masterclipid>
						<name>chandrika rocket equations</name>
						<start>14066</start>
						<end>14112</end>
						<in>18290</in>
						<out>18336</out>
						<file id="file-1" />
						<sourcetrack>
							<mediatype>audio</mediatype>
							<trackindex>1</trackindex>
						</sourcetrack>
						<labels>
							<label2>Iris</label2>
						</labels>
						<outputchannelindex>1</outputchannelindex>
					</clipitem>
					<clipitem id="clipitem-1182" premiereChannelType="stereo">
						<masterclipid>masterclip-2</masterclipid>
						<name>chandrika rocket equations</name>
						<start>14112</start>
						<end>14192</end>
						<in>18361</in>
						<out>18441</out>
						<file id="file-1" />
						<sourcetrack>
							<mediatype>audio</mediatype>
							<trackindex>1</trackindex>
						</sourcetrack>
						<labels>
							<label2>Iris</label2>
						</labels>
						<outputchannelindex>1</outputchannelindex>
					</clipitem>
					<clipitem id="clipitem-1183" premiereChannelType="stereo">
						<masterclipid>masterclip-2</masterclipid>
						<name>chandrika rocket equations</name>
						<start>14192</start>
						<end>14539</end>
						<in>18446</in>
						<out>18793</out>
						<file id="file-1" />
						<sourcetrack>
							<mediatype>audio</mediatype>
							<trackindex>1</trackindex>
						</sourcetrack>
						<labels>
							<label2>Iris</label2>
						</labels>
						<outputchannelindex>1</outputchannelindex>
					</clipitem>
					<clipitem id="clipitem-1184" premiereChannelType="stereo">
						<masterclipid>masterclip-2</masterclipid>
						<name>chandrika rocket equations</name>
						<start>14539</start>
						<end>14593</end>
						<in>18797</in>
						<out>18851</out>
						<file id="file-1" />
						<sourcetrack>
							<mediatype>audio</mediatype>
							<trackindex>1</trackindex>
						</sourcetrack>
						<labels>
							<label2>Iris</label2>
						</labels>
						<outputchannelindex>1</outputchannelindex>
					</clipitem>
					<clipitem id="clipitem-1185" premiereChannelType="stereo">
						<masterclipid>masterclip-2</masterclipid>
						<name>chandrika rocket equations</name>
						<start>14593</start>
						<end>14776</end>
						<in>18884</in>
						<out>19067</out>
						<file id="file-1" />
						<sourcetrack>
							<mediatype>audio</mediatype>
							<trackindex>1</trackindex>
						</sourcetrack>
						<labels>
							<label2>Iris</label2>
						</labels>
						<outputchannelindex>1</outputchannelindex>
					</clipitem>
					<clipitem id="clipitem-1186" premiereChannelType="stereo">
						<masterclipid>masterclip-2</masterclipid>
						<name>chandrika rocket equations</name>
						<start>14776</start>
						<end>15037</end>
						<in>19092</in>
						<out>19353</out>
						<file id="file-1" />
						<sourcetrack>
							<mediatype>audio</mediatype>
							<trackindex>1</trackindex>
						</sourcetrack>
						<labels>
							<label2>Iris</label2>
						</labels>
						<outputchannelindex>1</outputchannelindex>
					</clipitem>
					<clipitem id="clipitem-1187" premiereChannelType="stereo">
						<masterclipid>masterclip-2</masterclipid>
						<name>chandrika rocket equations</name>
						<start>15037</start>
						<end>15163</end>
						<in>19394</in>
						<out>19520</out>
						<file id="file-1" />
						<sourcetrack>
							<mediatype>audio</mediatype>
							<trackindex>1</trackindex>
						</sourcetrack>
						<labels>
							<label2>Iris</label2>
						</labels>
						<outputchannelindex>1</outputchannelindex>
					</clipitem>
					<clipitem id="clipitem-1188" premiereChannelType="stereo">
						<masterclipid>masterclip-2</masterclipid>
						<name>chandrika rocket equations</name>
						<start>15163</start>
						<end>15323</end>
						<in>19532</in>
						<out>19692</out>
						<file id="file-1" />
						<sourcetrack>
							<mediatype>audio</mediatype>
							<trackindex>1</trackindex>
						</sourcetrack>
						<labels>
							<label2>Iris</label2>
						</labels>
						<outputchannelindex>1</outputchannelindex>
					</clipitem>
					<clipitem id="clipitem-1189" premiereChannelType="stereo">
						<masterclipid>masterclip-2</masterclipid>
						<name>chandrika rocket equations</name>
						<start>15323</start>
						<end>15440</end>
						<in>19718</in>
						<out>19835</out>
						<file id="file-1" />
						<sourcetrack>
							<mediatype>audio</mediatype>
							<trackindex>1</trackindex>
						</sourcetrack>
						<labels>
							<label2>Iris</label2>
						</labels>
						<outputchannelindex>1</outputchannelindex>
					</clipitem>
					<clipitem id="clipitem-1190" premiereChannelType="stereo">
						<masterclipid>masterclip-2</masterclipid>
						<name>chandrika rocket equations</name>
						<start>15440</start>
						<end>15523</end>
						<in>19865</in>
						<out>19948</out>
						<file id="file-1" />
						<sourcetrack>
							<mediatype>audio</mediatype>
							<trackindex>1</trackindex>
						</sourcetrack>
						<labels>
							<label2>Iris</label2>
						</labels>
						<outputchannelindex>1</outputchannelindex>
					</clipitem>
					<clipitem id="clipitem-1191" premiereChannelType="stereo">
						<masterclipid>masterclip-2</masterclipid>
						<name>chandrika rocket equations</name>
						<start>15523</start>
						<end>15544</end>
						<in>19983</in>
						<out>20004</out>
						<file id="file-1" />
						<sourcetrack>
							<mediatype>audio</mediatype>
							<trackindex>1</trackindex>
						</sourcetrack>
						<labels>
							<label2>Iris</label2>
						</labels>
						<outputchannelindex>1</outputchannelindex>
					</clipitem>
					<clipitem id="clipitem-1192" premiereChannelType="stereo">
						<masterclipid>masterclip-2</masterclipid>
						<name>chandrika rocket equations</name>
						<start>15544</start>
						<end>15617</end>
						<in>20075</in>
						<out>20148</out>
						<file id="file-1" />
						<sourcetrack>
							<mediatype>audio</mediatype>
							<trackindex>1</trackindex>
						</sourcetrack>
						<labels>
							<label2>Iris</label2>
						</labels>
						<outputchannelindex>1</outputchannelindex>
					</clipitem>
					<clipitem id="clipitem-1193" premiereChannelType="stereo">
						<masterclipid>masterclip-2</masterclipid>
						<name>chandrika rocket equations</name>
						<start>15617</start>
						<end>15632</end>
						<in>20183</in>
						<out>20198</out>
						<file id="file-1" />
						<sourcetrack>
							<mediatype>audio</mediatype>
							<trackindex>1</trackindex>
						</sourcetrack>
						<labels>
							<label2>Iris</label2>
						</labels>
						<outputchannelindex>1</outputchannelindex>
					</clipitem>
					<clipitem id="clipitem-1194" premiereChannelType="stereo">
						<masterclipid>masterclip-2</masterclipid>
						<name>chandrika rocket equations</name>
						<start>15632</start>
						<end>15670</end>
						<in>20294</in>
						<out>20332</out>
						<file id="file-1" />
						<sourcetrack>
							<mediatype>audio</mediatype>
							<trackindex>1</trackindex>
						</sourcetrack>
						<labels>
							<label2>Iris</label2>
						</labels>
						<outputchannelindex>1</outputchannelindex>
					</clipitem>
					<clipitem id="clipitem-1195" premiereChannelType="stereo">
						<masterclipid>masterclip-2</masterclipid>
						<name>chandrika rocket equations</name>
						<start>15670</start>
						<end>15723</end>
						<in>20357</in>
						<out>20410</out>
						<file id="file-1" />
						<sourcetrack>
							<mediatype>audio</mediatype>
							<trackindex>1</trackindex>
						</sourcetrack>
						<labels>
							<label2>Iris</label2>
						</labels>
						<outputchannelindex>1</outputchannelindex>
					</clipitem>
					<clipitem id="clipitem-1196" premiereChannelType="stereo">
						<masterclipid>masterclip-2</masterclipid>
						<name>chandrika rocket equations</name>
						<start>15723</start>
						<end>15763</end>
						<in>20443</in>
						<out>20483</out>
						<file id="file-1" />
						<sourcetrack>
							<mediatype>audio</mediatype>
							<trackindex>1</trackindex>
						</sourcetrack>
						<labels>
							<label2>Iris</label2>
						</labels>
						<outputchannelindex>1</outputchannelindex>
					</clipitem>
					<clipitem id="clipitem-1197" premiereChannelType="stereo">
						<masterclipid>masterclip-2</masterclipid>
						<name>chandrika rocket equations</name>
						<start>15763</start>
						<end>15794</end>
						<in>20489</in>
						<out>20520</out>
						<file id="file-1" />
						<sourcetrack>
							<mediatype>audio</mediatype>
							<trackindex>1</trackindex>
						</sourcetrack>
						<labels>
							<label2>Iris</label2>
						</labels>
						<outputchannelindex>1</outputchannelindex>
					</clipitem>
					<clipitem id="clipitem-1198" premiereChannelType="stereo">
						<masterclipid>masterclip-2</masterclipid>
						<name>chandrika rocket equations</name>
						<start>15794</start>
						<end>15810</end>
						<in>20525</in>
						<out>20541</out>
						<file id="file-1" />
						<sourcetrack>
							<mediatype>audio</mediatype>
							<trackindex>1</trackindex>
						</sourcetrack>
						<labels>
							<label2>Iris</label2>
						</labels>
						<outputchannelindex>1</outputchannelindex>
					</clipitem>
					<clipitem id="clipitem-1199" premiereChannelType="stereo">
						<masterclipid>masterclip-2</masterclipid>
						<name>chandrika rocket equations</name>
						<start>15810</start>
						<end>15936</end>
						<in>20574</in>
						<out>20700</out>
						<file id="file-1" />
						<sourcetrack>
							<mediatype>audio</mediatype>
							<trackindex>1</trackindex>
						</sourcetrack>
						<labels>
							<label2>Iris</label2>
						</labels>
						<outputchannelindex>1</outputchannelindex>
					</clipitem>
					<clipitem id="clipitem-1200" premiereChannelType="stereo">
						<masterclipid>masterclip-2</masterclipid>
						<name>chandrika rocket equations</name>
						<start>15936</start>
						<end>15970</end>
						<in>20738</in>
						<out>20772</out>
						<file id="file-1" />
						<sourcetrack>
							<mediatype>audio</mediatype>
							<trackindex>1</trackindex>
						</sourcetrack>
						<labels>
							<label2>Iris</label2>
						</labels>
						<outputchannelindex>1</outputchannelindex>
					</clipitem>
					<clipitem id="clipitem-1201" premiereChannelType="stereo">
						<masterclipid>masterclip-2</masterclipid>
						<name>chandrika rocket equations</name>
						<start>15970</start>
						<end>16014</end>
						<in>20944</in>
						<out>20988</out>
						<file id="file-1" />
						<sourcetrack>
							<mediatype>audio</mediatype>
							<trackindex>1</trackindex>
						</sourcetrack>
						<labels>
							<label2>Iris</label2>
						</labels>
						<outputchannelindex>1</outputchannelindex>
					</clipitem>
					<clipitem id="clipitem-1202" premiereChannelType="stereo">
						<masterclipid>masterclip-2</masterclipid>
						<name>chandrika rocket equations</name>
						<start>16014</start>
						<end>16070</end>
						<in>21375</in>
						<out>21431</out>
						<file id="file-1" />
						<sourcetrack>
							<mediatype>audio</mediatype>
							<trackindex>1</trackindex>
						</sourcetrack>
						<labels>
							<label2>Iris</label2>
						</labels>
						<outputchannelindex>1</outputchannelindex>
					</clipitem>
					<clipitem id="clipitem-1203" premiereChannelType="stereo">
						<masterclipid>masterclip-2</masterclipid>
						<name>chandrika rocket equations</name>
						<start>16070</start>
						<end>16118</end>
						<in>21522</in>
						<out>21570</out>
						<file id="file-1" />
						<sourcetrack>
							<mediatype>audio</mediatype>
							<trackindex>1</trackindex>
						</sourcetrack>
						<labels>
							<label2>Iris</label2>
						</labels>
						<outputchannelindex>1</outputchannelindex>
					</clipitem>
					<clipitem id="clipitem-1204" premiereChannelType="stereo">
						<masterclipid>masterclip-2</masterclipid>
						<name>chandrika rocket equations</name>
						<start>16118</start>
						<end>16223</end>
						<in>21626</in>
						<out>21731</out>
						<file id="file-1" />
						<sourcetrack>
							<mediatype>audio</mediatype>
							<trackindex>1</trackindex>
						</sourcetrack>
						<labels>
							<label2>Iris</label2>
						</labels>
						<outputchannelindex>1</outputchannelindex>
					</clipitem>
					<clipitem id="clipitem-1205" premiereChannelType="stereo">
						<masterclipid>masterclip-2</masterclipid>
						<name>chandrika rocket equations</name>
						<start>16223</start>
						<end>16282</end>
						<in>21825</in>
						<out>21884</out>
						<file id="file-1" />
						<sourcetrack>
							<mediatype>audio</mediatype>
							<trackindex>1</trackindex>
						</sourcetrack>
						<labels>
							<label2>Iris</label2>
						</labels>
						<outputchannelindex>1</outputchannelindex>
					</clipitem>
					<clipitem id="clipitem-1206" premiereChannelType="stereo">
						<masterclipid>masterclip-2</masterclipid>
						<name>chandrika rocket equations</name>
						<start>16282</start>
						<end>16389</end>
						<in>22014</in>
						<out>22121</out>
						<file id="file-1" />
						<sourcetrack>
							<mediatype>audio</mediatype>
							<trackindex>1</trackindex>
						</sourcetrack>
						<labels>
							<label2>Iris</label2>
						</labels>
						<outputchannelindex>1</outputchannelindex>
					</clipitem>
					<clipitem id="clipitem-1207" premiereChannelType="stereo">
						<masterclipid>masterclip-2</masterclipid>
						<name>chandrika rocket equations</name>
						<start>16389</start>
						<end>16423</end>
						<in>22251</in>
						<out>22285</out>
						<file id="file-1" />
						<sourcetrack>
							<mediatype>audio</mediatype>
							<trackindex>1</trackindex>
						</sourcetrack>
						<labels>
							<label2>Iris</label2>
						</labels>
						<outputchannelindex>1</outputchannelindex>
					</clipitem>
					<clipitem id="clipitem-1208" premiereChannelType="stereo">
						<masterclipid>masterclip-2</masterclipid>
						<name>chandrika rocket equations</name>
						<start>16423</start>
						<end>16527</end>
						<in>22362</in>
						<out>22466</out>
						<file id="file-1" />
						<sourcetrack>
							<mediatype>audio</mediatype>
							<trackindex>1</trackindex>
						</sourcetrack>
						<labels>
							<label2>Iris</label2>
						</labels>
						<outputchannelindex>1</outputchannelindex>
					</clipitem>
					<clipitem id="clipitem-1209" premiereChannelType="stereo">
						<masterclipid>masterclip-2</masterclipid>
						<name>chandrika rocket equations</name>
						<start>16527</start>
						<end>16567</end>
						<in>22705</in>
						<out>22745</out>
						<file id="file-1" />
						<sourcetrack>
							<mediatype>audio</mediatype>
							<trackindex>1</trackindex>
						</sourcetrack>
						<labels>
							<label2>Iris</label2>
						</labels>
						<outputchannelindex>1</outputchannelindex>
					</clipitem>
					<clipitem id="clipitem-1210" premiereChannelType="stereo">
						<masterclipid>masterclip-2</masterclipid>
						<name>chandrika rocket equations</name>
						<start>16567</start>
						<end>16633</end>
						<in>22785</in>
						<out>22851</out>
						<file id="file-1" />
						<sourcetrack>
							<mediatype>audio</mediatype>
							<trackindex>1</trackindex>
						</sourcetrack>
						<labels>
							<label2>Iris</label2>
						</labels>
						<outputchannelindex>1</outputchannelindex>
					</clipitem>
					<clipitem id="clipitem-1211" premiereChannelType="stereo">
						<masterclipid>masterclip-2</masterclipid>
						<name>chandrika rocket equations</name>
						<start>16633</start>
						<end>16660</end>
						<in>22926</in>
						<out>22953</out>
						<file id="file-1" />
						<sourcetrack>
							<mediatype>audio</mediatype>
							<trackindex>1</trackindex>
						</sourcetrack>
						<labels>
							<label2>Iris</label2>
						</labels>
						<outputchannelindex>1</outputchannelindex>
					</clipitem>
					<clipitem id="clipitem-1212" premiereChannelType="stereo">
						<masterclipid>masterclip-2</masterclipid>
						<name>chandrika rocket equations</name>
						<start>16660</start>
						<end>16717</end>
						<in>23051</in>
						<out>23108</out>
						<file id="file-1" />
						<sourcetrack>
							<mediatype>audio</mediatype>
							<trackindex>1</trackindex>
						</sourcetrack>
						<labels>
							<label2>Iris</label2>
						</labels>
						<outputchannelindex>1</outputchannelindex>
					</clipitem>
					<clipitem id="clipitem-1213" premiereChannelType="stereo">
						<masterclipid>masterclip-2</masterclipid>
						<name>chandrika rocket equations</name>
						<start>16717</start>
						<end>16877</end>
						<in>23158</in>
						<out>23318</out>
						<file id="file-1" />
						<sourcetrack>
							<mediatype>audio</mediatype>
							<trackindex>1</trackindex>
						</sourcetrack>
						<labels>
							<label2>Iris</label2>
						</labels>
						<outputchannelindex>1</outputchannelindex>
					</clipitem>
					<clipitem id="clipitem-1214" premiereChannelType="stereo">
						<masterclipid>masterclip-2</masterclipid>
						<name>chandrika rocket equations</name>
						<start>16877</start>
						<end>16893</end>
						<in>23321</in>
						<out>23337</out>
						<file id="file-1" />
						<sourcetrack>
							<mediatype>audio</mediatype>
							<trackindex>1</trackindex>
						</sourcetrack>
						<labels>
							<label2>Iris</label2>
						</labels>
						<outputchannelindex>1</outputchannelindex>
					</clipitem>
					<clipitem id="clipitem-1215" premiereChannelType="stereo">
						<masterclipid>masterclip-2</masterclipid>
						<name>chandrika rocket equations</name>
						<start>16893</start>
						<end>16969</end>
						<in>23410</in>
						<out>23486</out>
						<file id="file-1" />
						<sourcetrack>
							<mediatype>audio</mediatype>
							<trackindex>1</trackindex>
						</sourcetrack>
						<labels>
							<label2>Iris</label2>
						</labels>
						<outputchannelindex>1</outputchannelindex>
					</clipitem>
					<clipitem id="clipitem-1216" premiereChannelType="stereo">
						<masterclipid>masterclip-2</masterclipid>
						<name>chandrika rocket equations</name>
						<start>16969</start>
						<end>17015</end>
						<in>23519</in>
						<out>23565</out>
						<file id="file-1" />
						<sourcetrack>
							<mediatype>audio</mediatype>
							<trackindex>1</trackindex>
						</sourcetrack>
						<labels>
							<label2>Iris</label2>
						</labels>
						<outputchannelindex>1</outputchannelindex>
					</clipitem>
					<clipitem id="clipitem-1217" premiereChannelType="stereo">
						<masterclipid>masterclip-2</masterclipid>
						<name>chandrika rocket equations</name>
						<start>17015</start>
						<end>17107</end>
						<in>23587</in>
						<out>23679</out>
						<file id="file-1" />
						<sourcetrack>
							<mediatype>audio</mediatype>
							<trackindex>1</trackindex>
						</sourcetrack>
						<labels>
							<label2>Iris</label2>
						</labels>
						<outputchannelindex>1</outputchannelindex>
					</clipitem>
					<clipitem id="clipitem-1218" premiereChannelType="stereo">
						<masterclipid>masterclip-2</masterclipid>
						<name>chandrika rocket equations</name>
						<start>17107</start>
						<end>17179</end>
						<in>23721</in>
						<out>23793</out>
						<file id="file-1" />
						<sourcetrack>
							<mediatype>audio</mediatype>
							<trackindex>1</trackindex>
						</sourcetrack>
						<labels>
							<label2>Iris</label2>
						</labels>
						<outputchannelindex>1</outputchannelindex>
					</clipitem>
					<clipitem id="clipitem-1219" premiereChannelType="stereo">
						<masterclipid>masterclip-2</masterclipid>
						<name>chandrika rocket equations</name>
						<start>17179</start>
						<end>17199</end>
						<in>23853</in>
						<out>23873</out>
						<file id="file-1" />
						<sourcetrack>
							<mediatype>audio</mediatype>
							<trackindex>1</trackindex>
						</sourcetrack>
						<labels>
							<label2>Iris</label2>
						</labels>
						<outputchannelindex>1</outputchannelindex>
					</clipitem>
					<clipitem id="clipitem-1220" premiereChannelType="stereo">
						<masterclipid>masterclip-2</masterclipid>
						<name>chandrika rocket equations</name>
						<start>17199</start>
						<end>17245</end>
						<in>23955</in>
						<out>24001</out>
						<file id="file-1" />
						<sourcetrack>
							<mediatype>audio</mediatype>
							<trackindex>1</trackindex>
						</sourcetrack>
						<labels>
							<label2>Iris</label2>
						</labels>
						<outputchannelindex>1</outputchannelindex>
					</clipitem>
					<clipitem id="clipitem-1221" premiereChannelType="stereo">
						<masterclipid>masterclip-2</masterclipid>
						<name>chandrika rocket equations</name>
						<start>17245</start>
						<end>17344</end>
						<in>24320</in>
						<out>24419</out>
						<file id="file-1" />
						<sourcetrack>
							<mediatype>audio</mediatype>
							<trackindex>1</trackindex>
						</sourcetrack>
						<labels>
							<label2>Iris</label2>
						</labels>
						<outputchannelindex>1</outputchannelindex>
					</clipitem>
					<clipitem id="clipitem-1222" premiereChannelType="stereo">
						<masterclipid>masterclip-2</masterclipid>
						<name>chandrika rocket equations</name>
						<start>17344</start>
						<end>17392</end>
						<in>24472</in>
						<out>24520</out>
						<file id="file-1" />
						<sourcetrack>
							<mediatype>audio</mediatype>
							<trackindex>1</trackindex>
						</sourcetrack>
						<labels>
							<label2>Iris</label2>
						</labels>
						<outputchannelindex>1</outputchannelindex>
					</clipitem>
					<clipitem id="clipitem-1223" premiereChannelType="stereo">
						<masterclipid>masterclip-2</masterclipid>
						<name>chandrika rocket equations</name>
						<start>17392</start>
						<end>17447</end>
						<in>24689</in>
						<out>24744</out>
						<file id="file-1" />
						<sourcetrack>
							<mediatype>audio</mediatype>
							<trackindex>1</trackindex>
						</sourcetrack>
						<labels>
							<label2>Iris</label2>
						</labels>
						<outputchannelindex>1</outputchannelindex>
					</clipitem>
					<clipitem id="clipitem-1224" premiereChannelType="stereo">
						<masterclipid>masterclip-2</masterclipid>
						<name>chandrika rocket equations</name>
						<start>17447</start>
						<end>17501</end>
						<in>24954</in>
						<out>25008</out>
						<file id="file-1" />
						<sourcetrack>
							<mediatype>audio</mediatype>
							<trackindex>1</trackindex>
						</sourcetrack>
						<labels>
							<label2>Iris</label2>
						</labels>
						<outputchannelindex>1</outputchannelindex>
					</clipitem>
					<clipitem id="clipitem-1225" premiereChannelType="stereo">
						<masterclipid>masterclip-2</masterclipid>
						<name>chandrika rocket equations</name>
						<start>17501</start>
						<end>17555</end>
						<in>25096</in>
						<out>25150</out>
						<file id="file-1" />
						<sourcetrack>
							<mediatype>audio</mediatype>
							<trackindex>1</trackindex>
						</sourcetrack>
						<labels>
							<label2>Iris</label2>
						</labels>
						<outputchannelindex>1</outputchannelindex>
					</clipitem>
					<clipitem id="clipitem-1226" premiereChannelType="stereo">
						<masterclipid>masterclip-2</masterclipid>
						<name>chandrika rocket equations</name>
						<start>17555</start>
						<end>17605</end>
						<in>25497</in>
						<out>25547</out>
						<file id="file-1" />
						<sourcetrack>
							<mediatype>audio</mediatype>
							<trackindex>1</trackindex>
						</sourcetrack>
						<labels>
							<label2>Iris</label2>
						</labels>
						<outputchannelindex>1</outputchannelindex>
					</clipitem>
					<clipitem id="clipitem-1227" premiereChannelType="stereo">
						<masterclipid>masterclip-2</masterclipid>
						<name>chandrika rocket equations</name>
						<start>17605</start>
						<end>17622</end>
						<in>25711</in>
						<out>25728</out>
						<file id="file-1" />
						<sourcetrack>
							<mediatype>audio</mediatype>
							<trackindex>1</trackindex>
						</sourcetrack>
						<labels>
							<label2>Iris</label2>
						</labels>
						<outputchannelindex>1</outputchannelindex>
					</clipitem>
					<clipitem id="clipitem-1228" premiereChannelType="stereo">
						<masterclipid>masterclip-2</masterclipid>
						<name>chandrika rocket equations</name>
						<start>17622</start>
						<end>17637</end>
						<in>25735</in>
						<out>25750</out>
						<file id="file-1" />
						<sourcetrack>
							<mediatype>audio</mediatype>
							<trackindex>1</trackindex>
						</sourcetrack>
						<labels>
							<label2>Iris</label2>
						</labels>
						<outputchannelindex>1</outputchannelindex>
					</clipitem>
					<clipitem id="clipitem-1229" premiereChannelType="stereo">
						<masterclipid>masterclip-2</masterclipid>
						<name>chandrika rocket equations</name>
						<start>17637</start>
						<end>17717</end>
						<in>25801</in>
						<out>25881</out>
						<file id="file-1" />
						<sourcetrack>
							<mediatype>audio</mediatype>
							<trackindex>1</trackindex>
						</sourcetrack>
						<labels>
							<label2>Iris</label2>
						</labels>
						<outputchannelindex>1</outputchannelindex>
					</clipitem>
					<clipitem id="clipitem-1230" premiereChannelType="stereo">
						<masterclipid>masterclip-2</masterclipid>
						<name>chandrika rocket equations</name>
						<start>17717</start>
						<end>17756</end>
						<in>25887</in>
						<out>25926</out>
						<file id="file-1" />
						<sourcetrack>
							<mediatype>audio</mediatype>
							<trackindex>1</trackindex>
						</sourcetrack>
						<labels>
							<label2>Iris</label2>
						</labels>
						<outputchannelindex>1</outputchannelindex>
					</clipitem>
					<clipitem id="clipitem-1231" premiereChannelType="stereo">
						<masterclipid>masterclip-2</masterclipid>
						<name>chandrika rocket equations</name>
						<start>17756</start>
						<end>17805</end>
						<in>26347</in>
						<out>26396</out>
						<file id="file-1" />
						<sourcetrack>
							<mediatype>audio</mediatype>
							<trackindex>1</trackindex>
						</sourcetrack>
						<labels>
							<label2>Iris</label2>
						</labels>
						<outputchannelindex>1</outputchannelindex>
					</clipitem>
					<clipitem id="clipitem-1232" premiereChannelType="stereo">
						<masterclipid>masterclip-2</masterclipid>
						<name>chandrika rocket equations</name>
						<start>17805</start>
						<end>17881</end>
						<in>26399</in>
						<out>26475</out>
						<file id="file-1" />
						<sourcetrack>
							<mediatype>audio</mediatype>
							<trackindex>1</trackindex>
						</sourcetrack>
						<labels>
							<label2>Iris</label2>
						</labels>
						<outputchannelindex>1</outputchannelindex>
					</clipitem>
					<clipitem id="clipitem-1233" premiereChannelType="stereo">
						<masterclipid>masterclip-2</masterclipid>
						<name>chandrika rocket equations</name>
						<start>17881</start>
						<end>17903</end>
						<in>26504</in>
						<out>26526</out>
						<file id="file-1" />
						<sourcetrack>
							<mediatype>audio</mediatype>
							<trackindex>1</trackindex>
						</sourcetrack>
						<labels>
							<label2>Iris</label2>
						</labels>
						<outputchannelindex>1</outputchannelindex>
					</clipitem>
					<clipitem id="clipitem-1234" premiereChannelType="stereo">
						<masterclipid>masterclip-2</masterclipid>
						<name>chandrika rocket equations</name>
						<start>17903</start>
						<end>17924</end>
						<in>26549</in>
						<out>26570</out>
						<file id="file-1" />
						<sourcetrack>
							<mediatype>audio</mediatype>
							<trackindex>1</trackindex>
						</sourcetrack>
						<labels>
							<label2>Iris</label2>
						</labels>
						<outputchannelindex>1</outputchannelindex>
					</clipitem>
					<clipitem id="clipitem-1235" premiereChannelType="stereo">
						<masterclipid>masterclip-2</masterclipid>
						<name>chandrika rocket equations</name>
						<start>17924</start>
						<end>17992</end>
						<in>26597</in>
						<out>26665</out>
						<file id="file-1" />
						<sourcetrack>
							<mediatype>audio</mediatype>
							<trackindex>1</trackindex>
						</sourcetrack>
						<labels>
							<label2>Iris</label2>
						</labels>
						<outputchannelindex>1</outputchannelindex>
					</clipitem>
					<clipitem id="clipitem-1236" premiereChannelType="stereo">
						<masterclipid>masterclip-2</masterclipid>
						<name>chandrika rocket equations</name>
						<start>17992</start>
						<end>18167</end>
						<in>26686</in>
						<out>26861</out>
						<file id="file-1" />
						<sourcetrack>
							<mediatype>audio</mediatype>
							<trackindex>1</trackindex>
						</sourcetrack>
						<labels>
							<label2>Iris</label2>
						</labels>
						<outputchannelindex>1</outputchannelindex>
					</clipitem>
					<clipitem id="clipitem-1237" premiereChannelType="stereo">
						<masterclipid>masterclip-2</masterclipid>
						<name>chandrika rocket equations</name>
						<start>18167</start>
						<end>18207</end>
						<in>26868</in>
						<out>26908</out>
						<file id="file-1" />
						<sourcetrack>
							<mediatype>audio</mediatype>
							<trackindex>1</trackindex>
						</sourcetrack>
						<labels>
							<label2>Iris</label2>
						</labels>
						<outputchannelindex>1</outputchannelindex>
					</clipitem>
					<clipitem id="clipitem-1238" premiereChannelType="stereo">
						<masterclipid>masterclip-2</masterclipid>
						<name>chandrika rocket equations</name>
						<start>18207</start>
						<end>18292</end>
						<in>26921</in>
						<out>27006</out>
						<file id="file-1" />
						<sourcetrack>
							<mediatype>audio</mediatype>
							<trackindex>1</trackindex>
						</sourcetrack>
						<labels>
							<label2>Iris</label2>
						</labels>
						<outputchannelindex>1</outputchannelindex>
					</clipitem>
					<clipitem id="clipitem-1239" premiereChannelType="stereo">
						<masterclipid>masterclip-2</masterclipid>
						<name>chandrika rocket equations</name>
						<start>18292</start>
						<end>18333</end>
						<in>27018</in>
						<out>27059</out>
						<file id="file-1" />
						<sourcetrack>
							<mediatype>audio</mediatype>
							<trackindex>1</trackindex>
						</sourcetrack>
						<labels>
							<label2>Iris</label2>
						</labels>
						<outputchannelindex>1</outputchannelindex>
					</clipitem>
					<clipitem id="clipitem-1240" premiereChannelType="stereo">
						<masterclipid>masterclip-2</masterclipid>
						<name>chandrika rocket equations</name>
						<start>18333</start>
						<end>18354</end>
						<in>27071</in>
						<out>27092</out>
						<file id="file-1" />
						<sourcetrack>
							<mediatype>audio</mediatype>
							<trackindex>1</trackindex>
						</sourcetrack>
						<labels>
							<label2>Iris</label2>
						</labels>
						<outputchannelindex>1</outputchannelindex>
					</clipitem>
					<clipitem id="clipitem-1241" premiereChannelType="stereo">
						<masterclipid>masterclip-2</masterclipid>
						<name>chandrika rocket equations</name>
						<start>18354</start>
						<end>18411</end>
						<in>27120</in>
						<out>27177</out>
						<file id="file-1" />
						<sourcetrack>
							<mediatype>audio</mediatype>
							<trackindex>1</trackindex>
						</sourcetrack>
						<labels>
							<label2>Iris</label2>
						</labels>
						<outputchannelindex>1</outputchannelindex>
					</clipitem>
					<clipitem id="clipitem-1242" premiereChannelType="stereo">
						<masterclipid>masterclip-2</masterclipid>
						<name>chandrika rocket equations</name>
						<start>18411</start>
						<end>18486</end>
						<in>27205</in>
						<out>27280</out>
						<file id="file-1" />
						<sourcetrack>
							<mediatype>audio</mediatype>
							<trackindex>1</trackindex>
						</sourcetrack>
						<labels>
							<label2>Iris</label2>
						</labels>
						<outputchannelindex>1</outputchannelindex>
					</clipitem>
					<clipitem id="clipitem-1243" premiereChannelType="stereo">
						<masterclipid>masterclip-2</masterclipid>
						<name>chandrika rocket equations</name>
						<start>18486</start>
						<end>18511</end>
						<in>27329</in>
						<out>27354</out>
						<file id="file-1" />
						<sourcetrack>
							<mediatype>audio</mediatype>
							<trackindex>1</trackindex>
						</sourcetrack>
						<labels>
							<label2>Iris</label2>
						</labels>
						<outputchannelindex>1</outputchannelindex>
					</clipitem>
					<clipitem id="clipitem-1244" premiereChannelType="stereo">
						<masterclipid>masterclip-2</masterclipid>
						<name>chandrika rocket equations</name>
						<start>18511</start>
						<end>18556</end>
						<in>27391</in>
						<out>27436</out>
						<file id="file-1" />
						<sourcetrack>
							<mediatype>audio</mediatype>
							<trackindex>1</trackindex>
						</sourcetrack>
						<labels>
							<label2>Iris</label2>
						</labels>
						<outputchannelindex>1</outputchannelindex>
					</clipitem>
					<clipitem id="clipitem-1245" premiereChannelType="stereo">
						<masterclipid>masterclip-2</masterclipid>
						<name>chandrika rocket equations</name>
						<start>18556</start>
						<end>18720</end>
						<in>27697</in>
						<out>27861</out>
						<file id="file-1" />
						<sourcetrack>
							<mediatype>audio</mediatype>
							<trackindex>1</trackindex>
						</sourcetrack>
						<labels>
							<label2>Iris</label2>
						</labels>
						<outputchannelindex>1</outputchannelindex>
					</clipitem>
					<clipitem id="clipitem-1246" premiereChannelType="stereo">
						<masterclipid>masterclip-2</masterclipid>
						<name>chandrika rocket equations</name>
						<start>18720</start>
						<end>18779</end>
						<in>27894</in>
						<out>27953</out>
						<file id="file-1" />
						<sourcetrack>
							<mediatype>audio</mediatype>
							<trackindex>1</trackindex>
						</sourcetrack>
						<labels>
							<label2>Iris</label2>
						</labels>
						<outputchannelindex>1</outputchannelindex>
					</clipitem>
					<clipitem id="clipitem-1247" premiereChannelType="stereo">
						<masterclipid>masterclip-2</masterclipid>
						<name>chandrika rocket equations</name>
						<start>18779</start>
						<end>18825</end>
						<in>27962</in>
						<out>28008</out>
						<file id="file-1" />
						<sourcetrack>
							<mediatype>audio</mediatype>
							<trackindex>1</trackindex>
						</sourcetrack>
						<labels>
							<label2>Iris</label2>
						</labels>
						<outputchannelindex>1</outputchannelindex>
					</clipitem>
					<clipitem id="clipitem-1248" premiereChannelType="stereo">
						<masterclipid>masterclip-2</masterclipid>
						<name>chandrika rocket equations</name>
						<start>18825</start>
						<end>18896</end>
						<in>28141</in>
						<out>28212</out>
						<file id="file-1" />
						<sourcetrack>
							<mediatype>audio</mediatype>
							<trackindex>1</trackindex>
						</sourcetrack>
						<labels>
							<label2>Iris</label2>
						</labels>
						<outputchannelindex>1</outputchannelindex>
					</clipitem>
					<clipitem id="clipitem-1249" premiereChannelType="stereo">
						<masterclipid>masterclip-2</masterclipid>
						<name>chandrika rocket equations</name>
						<start>18896</start>
						<end>18926</end>
						<in>28873</in>
						<out>28903</out>
						<file id="file-1" />
						<sourcetrack>
							<mediatype>audio</mediatype>
							<trackindex>1</trackindex>
						</sourcetrack>
						<labels>
							<label2>Iris</label2>
						</labels>
						<outputchannelindex>1</outputchannelindex>
					</clipitem>
					<clipitem id="clipitem-1250" premiereChannelType="stereo">
						<masterclipid>masterclip-2</masterclipid>
						<name>chandrika rocket equations</name>
						<start>18926</start>
						<end>18966</end>
						<in>29034</in>
						<out>29074</out>
						<file id="file-1" />
						<sourcetrack>
							<mediatype>audio</mediatype>
							<trackindex>1</trackindex>
						</sourcetrack>
						<labels>
							<label2>Iris</label2>
						</labels>
						<outputchannelindex>1</outputchannelindex>
					</clipitem>
					<clipitem id="clipitem-1251" premiereChannelType="stereo">
						<masterclipid>masterclip-2</masterclipid>
						<name>chandrika rocket equations</name>
						<start>18966</start>
						<end>19019</end>
						<in>29077</in>
						<out>29130</out>
						<file id="file-1" />
						<sourcetrack>
							<mediatype>audio</mediatype>
							<trackindex>1</trackindex>
						</sourcetrack>
						<labels>
							<label2>Iris</label2>
						</labels>
						<outputchannelindex>1</outputchannelindex>
					</clipitem>
					<clipitem id="clipitem-1252" premiereChannelType="stereo">
						<masterclipid>masterclip-2</masterclipid>
						<name>chandrika rocket equations</name>
						<start>19019</start>
						<end>19034</end>
						<in>29133</in>
						<out>29148</out>
						<file id="file-1" />
						<sourcetrack>
							<mediatype>audio</mediatype>
							<trackindex>1</trackindex>
						</sourcetrack>
						<labels>
							<label2>Iris</label2>
						</labels>
						<outputchannelindex>1</outputchannelindex>
					</clipitem>
					<clipitem id="clipitem-1253" premiereChannelType="stereo">
						<masterclipid>masterclip-2</masterclipid>
						<name>chandrika rocket equations</name>
						<start>19034</start>
						<end>19065</end>
						<in>29192</in>
						<out>29223</out>
						<file id="file-1" />
						<sourcetrack>
							<mediatype>audio</mediatype>
							<trackindex>1</trackindex>
						</sourcetrack>
						<labels>
							<label2>Iris</label2>
						</labels>
						<outputchannelindex>1</outputchannelindex>
					</clipitem>
					<clipitem id="clipitem-1254" premiereChannelType="stereo">
						<masterclipid>masterclip-2</masterclipid>
						<name>chandrika rocket equations</name>
						<start>19065</start>
						<end>19080</end>
						<in>29228</in>
						<out>29243</out>
						<file id="file-1" />
						<sourcetrack>
							<mediatype>audio</mediatype>
							<trackindex>1</trackindex>
						</sourcetrack>
						<labels>
							<label2>Iris</label2>
						</labels>
						<outputchannelindex>1</outputchannelindex>
					</clipitem>
					<clipitem id="clipitem-1255" premiereChannelType="stereo">
						<masterclipid>masterclip-2</masterclipid>
						<name>chandrika rocket equations</name>
						<start>19080</start>
						<end>19095</end>
						<in>29254</in>
						<out>29269</out>
						<file id="file-1" />
						<sourcetrack>
							<mediatype>audio</mediatype>
							<trackindex>1</trackindex>
						</sourcetrack>
						<labels>
							<label2>Iris</label2>
						</labels>
						<outputchannelindex>1</outputchannelindex>
					</clipitem>
					<clipitem id="clipitem-1256" premiereChannelType="stereo">
						<masterclipid>masterclip-2</masterclipid>
						<name>chandrika rocket equations</name>
						<start>19095</start>
						<end>19114</end>
						<in>29330</in>
						<out>29349</out>
						<file id="file-1" />
						<sourcetrack>
							<mediatype>audio</mediatype>
							<trackindex>1</trackindex>
						</sourcetrack>
						<labels>
							<label2>Iris</label2>
						</labels>
						<outputchannelindex>1</outputchannelindex>
					</clipitem>
					<clipitem id="clipitem-1257" premiereChannelType="stereo">
						<masterclipid>masterclip-2</masterclipid>
						<name>chandrika rocket equations</name>
						<start>19114</start>
						<end>19165</end>
						<in>29488</in>
						<out>29539</out>
						<file id="file-1" />
						<sourcetrack>
							<mediatype>audio</mediatype>
							<trackindex>1</trackindex>
						</sourcetrack>
						<labels>
							<label2>Iris</label2>
						</labels>
						<outputchannelindex>1</outputchannelindex>
					</clipitem>
					<clipitem id="clipitem-1258" premiereChannelType="stereo">
						<masterclipid>masterclip-2</masterclipid>
						<name>chandrika rocket equations</name>
						<start>19165</start>
						<end>19180</end>
						<in>29547</in>
						<out>29562</out>
						<file id="file-1" />
						<sourcetrack>
							<mediatype>audio</mediatype>
							<trackindex>1</trackindex>
						</sourcetrack>
						<labels>
							<label2>Iris</label2>
						</labels>
						<outputchannelindex>1</outputchannelindex>
					</clipitem>
					<clipitem id="clipitem-1259" premiereChannelType="stereo">
						<masterclipid>masterclip-2</masterclipid>
						<name>chandrika rocket equations</name>
						<start>19180</start>
						<end>19195</end>
						<in>29597</in>
						<out>29612</out>
						<file id="file-1" />
						<sourcetrack>
							<mediatype>audio</mediatype>
							<trackindex>1</trackindex>
						</sourcetrack>
						<labels>
							<label2>Iris</label2>
						</labels>
						<outputchannelindex>1</outputchannelindex>
					</clipitem>
					<clipitem id="clipitem-1260" premiereChannelType="stereo">
						<masterclipid>masterclip-2</masterclipid>
						<name>chandrika rocket equations</name>
						<start>19195</start>
						<end>19242</end>
						<in>29627</in>
						<out>29674</out>
						<file id="file-1" />
						<sourcetrack>
							<mediatype>audio</mediatype>
							<trackindex>1</trackindex>
						</sourcetrack>
						<labels>
							<label2>Iris</label2>
						</labels>
						<outputchannelindex>1</outputchannelindex>
					</clipitem>
					<clipitem id="clipitem-1261" premiereChannelType="stereo">
						<masterclipid>masterclip-2</masterclipid>
						<name>chandrika rocket equations</name>
						<start>19242</start>
						<end>19340</end>
						<in>29910</in>
						<out>30008</out>
						<file id="file-1" />
						<sourcetrack>
							<mediatype>audio</mediatype>
							<trackindex>1</trackindex>
						</sourcetrack>
						<labels>
							<label2>Iris</label2>
						</labels>
						<outputchannelindex>1</outputchannelindex>
					</clipitem>
					<clipitem id="clipitem-1262" premiereChannelType="stereo">
						<masterclipid>masterclip-2</masterclipid>
						<name>chandrika rocket equations</name>
						<start>19340</start>
						<end>19409</end>
						<in>30031</in>
						<out>30100</out>
						<file id="file-1" />
						<sourcetrack>
							<mediatype>audio</mediatype>
							<trackindex>1</trackindex>
						</sourcetrack>
						<labels>
							<label2>Iris</label2>
						</labels>
						<outputchannelindex>1</outputchannelindex>
					</clipitem>
					<clipitem id="clipitem-1263" premiereChannelType="stereo">
						<masterclipid>masterclip-2</masterclipid>
						<name>chandrika rocket equations</name>
						<start>19409</start>
						<end>19427</end>
						<in>31358</in>
						<out>31376</out>
						<file id="file-1" />
						<sourcetrack>
							<mediatype>audio</mediatype>
							<trackindex>1</trackindex>
						</sourcetrack>
						<labels>
							<label2>Iris</label2>
						</labels>
						<outputchannelindex>1</outputchannelindex>
					</clipitem>
					<clipitem id="clipitem-1264" premiereChannelType="stereo">
						<masterclipid>masterclip-2</masterclipid>
						<name>chandrika rocket equations</name>
						<start>19427</start>
						<end>19512</end>
						<in>31396</in>
						<out>31481</out>
						<file id="file-1" />
						<sourcetrack>
							<mediatype>audio</mediatype>
							<trackindex>1</trackindex>
						</sourcetrack>
						<labels>
							<label2>Iris</label2>
						</labels>
						<outputchannelindex>1</outputchannelindex>
					</clipitem>
					<clipitem id="clipitem-1265" premiereChannelType="stereo">
						<masterclipid>masterclip-2</masterclipid>
						<name>chandrika rocket equations</name>
						<start>19512</start>
						<end>19560</end>
						<in>31515</in>
						<out>31563</out>
						<file id="file-1" />
						<sourcetrack>
							<mediatype>audio</mediatype>
							<trackindex>1</trackindex>
						</sourcetrack>
						<labels>
							<label2>Iris</label2>
						</labels>
						<outputchannelindex>1</outputchannelindex>
					</clipitem>
					<clipitem id="clipitem-1266" premiereChannelType="stereo">
						<masterclipid>masterclip-2</masterclipid>
						<name>chandrika rocket equations</name>
						<start>19560</start>
						<end>19576</end>
						<in>31692</in>
						<out>31708</out>
						<file id="file-1" />
						<sourcetrack>
							<mediatype>audio</mediatype>
							<trackindex>1</trackindex>
						</sourcetrack>
						<labels>
							<label2>Iris</label2>
						</labels>
						<outputchannelindex>1</outputchannelindex>
					</clipitem>
					<clipitem id="clipitem-1267" premiereChannelType="stereo">
						<masterclipid>masterclip-2</masterclipid>
						<name>chandrika rocket equations</name>
						<start>19576</start>
						<end>19597</end>
						<in>31791</in>
						<out>31812</out>
						<file id="file-1" />
						<sourcetrack>
							<mediatype>audio</mediatype>
							<trackindex>1</trackindex>
						</sourcetrack>
						<labels>
							<label2>Iris</label2>
						</labels>
						<outputchannelindex>1</outputchannelindex>
					</clipitem>
					<clipitem id="clipitem-1268" premiereChannelType="stereo">
						<masterclipid>masterclip-2</masterclipid>
						<name>chandrika rocket equations</name>
						<start>19597</start>
						<end>19612</end>
						<in>31836</in>
						<out>31851</out>
						<file id="file-1" />
						<sourcetrack>
							<mediatype>audio</mediatype>
							<trackindex>1</trackindex>
						</sourcetrack>
						<labels>
							<label2>Iris</label2>
						</labels>
						<outputchannelindex>1</outputchannelindex>
					</clipitem>
					<clipitem id="clipitem-1269" premiereChannelType="stereo">
						<masterclipid>masterclip-2</masterclipid>
						<name>chandrika rocket equations</name>
						<start>19612</start>
						<end>19662</end>
						<in>31969</in>
						<out>32019</out>
						<file id="file-1" />
						<sourcetrack>
							<mediatype>audio</mediatype>
							<trackindex>1</trackindex>
						</sourcetrack>
						<labels>
							<label2>Iris</label2>
						</labels>
						<outputchannelindex>1</outputchannelindex>
					</clipitem>
					<clipitem id="clipitem-1270" premiereChannelType="stereo">
						<masterclipid>masterclip-2</masterclipid>
						<name>chandrika rocket equations</name>
						<start>19662</start>
						<end>19677</end>
						<in>32029</in>
						<out>32044</out>
						<file id="file-1" />
						<sourcetrack>
							<mediatype>audio</mediatype>
							<trackindex>1</trackindex>
						</sourcetrack>
						<labels>
							<label2>Iris</label2>
						</labels>
						<outputchannelindex>1</outputchannelindex>
					</clipitem>
					<clipitem id="clipitem-1271" premiereChannelType="stereo">
						<masterclipid>masterclip-2</masterclipid>
						<name>chandrika rocket equations</name>
						<start>19677</start>
						<end>19698</end>
						<in>32110</in>
						<out>32131</out>
						<file id="file-1" />
						<sourcetrack>
							<mediatype>audio</mediatype>
							<trackindex>1</trackindex>
						</sourcetrack>
						<labels>
							<label2>Iris</label2>
						</labels>
						<outputchannelindex>1</outputchannelindex>
					</clipitem>
					<clipitem id="clipitem-1272" premiereChannelType="stereo">
						<masterclipid>masterclip-2</masterclipid>
						<name>chandrika rocket equations</name>
						<start>19698</start>
						<end>19713</end>
						<in>32142</in>
						<out>32157</out>
						<file id="file-1" />
						<sourcetrack>
							<mediatype>audio</mediatype>
							<trackindex>1</trackindex>
						</sourcetrack>
						<labels>
							<label2>Iris</label2>
						</labels>
						<outputchannelindex>1</outputchannelindex>
					</clipitem>
					<clipitem id="clipitem-1273" premiereChannelType="stereo">
						<masterclipid>masterclip-2</masterclipid>
						<name>chandrika rocket equations</name>
						<start>19713</start>
						<end>19789</end>
						<in>32233</in>
						<out>32309</out>
						<file id="file-1" />
						<sourcetrack>
							<mediatype>audio</mediatype>
							<trackindex>1</trackindex>
						</sourcetrack>
						<labels>
							<label2>Iris</label2>
						</labels>
						<outputchannelindex>1</outputchannelindex>
					</clipitem>
					<clipitem id="clipitem-1274" premiereChannelType="stereo">
						<masterclipid>masterclip-2</masterclipid>
						<name>chandrika rocket equations</name>
						<start>19789</start>
						<end>19845</end>
						<in>32351</in>
						<out>32407</out>
						<file id="file-1" />
						<sourcetrack>
							<mediatype>audio</mediatype>
							<trackindex>1</trackindex>
						</sourcetrack>
						<labels>
							<label2>Iris</label2>
						</labels>
						<outputchannelindex>1</outputchannelindex>
					</clipitem>
					<clipitem id="clipitem-1275" premiereChannelType="stereo">
						<masterclipid>masterclip-2</masterclipid>
						<name>chandrika rocket equations</name>
						<start>19845</start>
						<end>19890</end>
						<in>32718</in>
						<out>32763</out>
						<file id="file-1" />
						<sourcetrack>
							<mediatype>audio</mediatype>
							<trackindex>1</trackindex>
						</sourcetrack>
						<labels>
							<label2>Iris</label2>
						</labels>
						<outputchannelindex>1</outputchannelindex>
					</clipitem>
					<clipitem id="clipitem-1276" premiereChannelType="stereo">
						<masterclipid>masterclip-2</masterclipid>
						<name>chandrika rocket equations</name>
						<start>19890</start>
						<end>19930</end>
						<in>32965</in>
						<out>33005</out>
						<file id="file-1" />
						<sourcetrack>
							<mediatype>audio</mediatype>
							<trackindex>1</trackindex>
						</sourcetrack>
						<labels>
							<label2>Iris</label2>
						</labels>
						<outputchannelindex>1</outputchannelindex>
					</clipitem>
					<clipitem id="clipitem-1277" premiereChannelType="stereo">
						<masterclipid>masterclip-2</masterclipid>
						<name>chandrika rocket equations</name>
						<start>19930</start>
						<end>19953</end>
						<in>33149</in>
						<out>33172</out>
						<file id="file-1" />
						<sourcetrack>
							<mediatype>audio</mediatype>
							<trackindex>1</trackindex>
						</sourcetrack>
						<labels>
							<label2>Iris</label2>
						</labels>
						<outputchannelindex>1</outputchannelindex>
					</clipitem>
					<clipitem id="clipitem-1278" premiereChannelType="stereo">
						<masterclipid>masterclip-2</masterclipid>
						<name>chandrika rocket equations</name>
						<start>19953</start>
						<end>19999</end>
						<in>33409</in>
						<out>33455</out>
						<file id="file-1" />
						<sourcetrack>
							<mediatype>audio</mediatype>
							<trackindex>1</trackindex>
						</sourcetrack>
						<labels>
							<label2>Iris</label2>
						</labels>
						<outputchannelindex>1</outputchannelindex>
					</clipitem>
					<clipitem id="clipitem-1279" premiereChannelType="stereo">
						<masterclipid>masterclip-2</masterclipid>
						<name>chandrika rocket equations</name>
						<start>19999</start>
						<end>20068</end>
						<in>33686</in>
						<out>33755</out>
						<file id="file-1" />
						<sourcetrack>
							<mediatype>audio</mediatype>
							<trackindex>1</trackindex>
						</sourcetrack>
						<labels>
							<label2>Iris</label2>
						</labels>
						<outputchannelindex>1</outputchannelindex>
					</clipitem>
					<clipitem id="clipitem-1280" premiereChannelType="stereo">
						<masterclipid>masterclip-2</masterclipid>
						<name>chandrika rocket equations</name>
						<start>20068</start>
						<end>20088</end>
						<in>33914</in>
						<out>33934</out>
						<file id="file-1" />
						<sourcetrack>
							<mediatype>audio</mediatype>
							<trackindex>1</trackindex>
						</sourcetrack>
						<labels>
							<label2>Iris</label2>
						</labels>
						<outputchannelindex>1</outputchannelindex>
					</clipitem>
					<clipitem id="clipitem-1281" premiereChannelType="stereo">
						<masterclipid>masterclip-2</masterclipid>
						<name>chandrika rocket equations</name>
						<start>20088</start>
						<end>20151</end>
						<in>33946</in>
						<out>34009</out>
						<file id="file-1" />
						<sourcetrack>
							<mediatype>audio</mediatype>
							<trackindex>1</trackindex>
						</sourcetrack>
						<labels>
							<label2>Iris</label2>
						</labels>
						<outputchannelindex>1</outputchannelindex>
					</clipitem>
					<clipitem id="clipitem-1282" premiereChannelType="stereo">
						<masterclipid>masterclip-2</masterclipid>
						<name>chandrika rocket equations</name>
						<start>20151</start>
						<end>20183</end>
						<in>34026</in>
						<out>34058</out>
						<file id="file-1" />
						<sourcetrack>
							<mediatype>audio</mediatype>
							<trackindex>1</trackindex>
						</sourcetrack>
						<labels>
							<label2>Iris</label2>
						</labels>
						<outputchannelindex>1</outputchannelindex>
					</clipitem>
					<clipitem id="clipitem-1283" premiereChannelType="stereo">
						<masterclipid>masterclip-2</masterclipid>
						<name>chandrika rocket equations</name>
						<start>20183</start>
						<end>20218</end>
						<in>34181</in>
						<out>34216</out>
						<file id="file-1" />
						<sourcetrack>
							<mediatype>audio</mediatype>
							<trackindex>1</trackindex>
						</sourcetrack>
						<labels>
							<label2>Iris</label2>
						</labels>
						<outputchannelindex>1</outputchannelindex>
					</clipitem>
					<clipitem id="clipitem-1284" premiereChannelType="stereo">
						<masterclipid>masterclip-2</masterclipid>
						<name>chandrika rocket equations</name>
						<start>20218</start>
						<end>20234</end>
						<in>34262</in>
						<out>34278</out>
						<file id="file-1" />
						<sourcetrack>
							<mediatype>audio</mediatype>
							<trackindex>1</trackindex>
						</sourcetrack>
						<labels>
							<label2>Iris</label2>
						</labels>
						<outputchannelindex>1</outputchannelindex>
					</clipitem>
					<clipitem id="clipitem-1285" premiereChannelType="stereo">
						<masterclipid>masterclip-2</masterclipid>
						<name>chandrika rocket equations</name>
						<start>20234</start>
						<end>20297</end>
						<in>34500</in>
						<out>34563</out>
						<file id="file-1" />
						<sourcetrack>
							<mediatype>audio</mediatype>
							<trackindex>1</trackindex>
						</sourcetrack>
						<labels>
							<label2>Iris</label2>
						</labels>
						<outputchannelindex>1</outputchannelindex>
					</clipitem>
					<clipitem id="clipitem-1286" premiereChannelType="stereo">
						<masterclipid>masterclip-2</masterclipid>
						<name>chandrika rocket equations</name>
						<start>20297</start>
						<end>20329</end>
						<in>34569</in>
						<out>34601</out>
						<file id="file-1" />
						<sourcetrack>
							<mediatype>audio</mediatype>
							<trackindex>1</trackindex>
						</sourcetrack>
						<labels>
							<label2>Iris</label2>
						</labels>
						<outputchannelindex>1</outputchannelindex>
					</clipitem>
					<clipitem id="clipitem-1287" premiereChannelType="stereo">
						<masterclipid>masterclip-2</masterclipid>
						<name>chandrika rocket equations</name>
						<start>20329</start>
						<end>20378</end>
						<in>34603</in>
						<out>34652</out>
						<file id="file-1" />
						<sourcetrack>
							<mediatype>audio</mediatype>
							<trackindex>1</trackindex>
						</sourcetrack>
						<labels>
							<label2>Iris</label2>
						</labels>
						<outputchannelindex>1</outputchannelindex>
					</clipitem>
					<clipitem id="clipitem-1288" premiereChannelType="stereo">
						<masterclipid>masterclip-2</masterclipid>
						<name>chandrika rocket equations</name>
						<start>20378</start>
						<end>20394</end>
						<in>34666</in>
						<out>34682</out>
						<file id="file-1" />
						<sourcetrack>
							<mediatype>audio</mediatype>
							<trackindex>1</trackindex>
						</sourcetrack>
						<labels>
							<label2>Iris</label2>
						</labels>
						<outputchannelindex>1</outputchannelindex>
					</clipitem>
					<clipitem id="clipitem-1289" premiereChannelType="stereo">
						<masterclipid>masterclip-2</masterclipid>
						<name>chandrika rocket equations</name>
						<start>20394</start>
						<end>20474</end>
						<in>34707</in>
						<out>34787</out>
						<file id="file-1" />
						<sourcetrack>
							<mediatype>audio</mediatype>
							<trackindex>1</trackindex>
						</sourcetrack>
						<labels>
							<label2>Iris</label2>
						</labels>
						<outputchannelindex>1</outputchannelindex>
					</clipitem>
					<clipitem id="clipitem-1290" premiereChannelType="stereo">
						<masterclipid>masterclip-2</masterclipid>
						<name>chandrika rocket equations</name>
						<start>20474</start>
						<end>20594</end>
						<in>34792</in>
						<out>34912</out>
						<file id="file-1" />
						<sourcetrack>
							<mediatype>audio</mediatype>
							<trackindex>1</trackindex>
						</sourcetrack>
						<labels>
							<label2>Iris</label2>
						</labels>
						<outputchannelindex>1</outputchannelindex>
					</clipitem>
					<clipitem id="clipitem-1291" premiereChannelType="stereo">
						<masterclipid>masterclip-2</masterclipid>
						<name>chandrika rocket equations</name>
						<start>20594</start>
						<end>20743</end>
						<in>34927</in>
						<out>35076</out>
						<file id="file-1" />
						<sourcetrack>
							<mediatype>audio</mediatype>
							<trackindex>1</trackindex>
						</sourcetrack>
						<labels>
							<label2>Iris</label2>
						</labels>
						<outputchannelindex>1</outputchannelindex>
					</clipitem>
					<clipitem id="clipitem-1292" premiereChannelType="stereo">
						<masterclipid>masterclip-2</masterclipid>
						<name>chandrika rocket equations</name>
						<start>20743</start>
						<end>20765</end>
						<in>35082</in>
						<out>35104</out>
						<file id="file-1" />
						<sourcetrack>
							<mediatype>audio</mediatype>
							<trackindex>1</trackindex>
						</sourcetrack>
						<labels>
							<label2>Iris</label2>
						</labels>
						<outputchannelindex>1</outputchannelindex>
					</clipitem>
					<clipitem id="clipitem-1293" premiereChannelType="stereo">
						<masterclipid>masterclip-2</masterclipid>
						<name>chandrika rocket equations</name>
						<start>20765</start>
						<end>20858</end>
						<in>35110</in>
						<out>35203</out>
						<file id="file-1" />
						<sourcetrack>
							<mediatype>audio</mediatype>
							<trackindex>1</trackindex>
						</sourcetrack>
						<labels>
							<label2>Iris</label2>
						</labels>
						<outputchannelindex>1</outputchannelindex>
					</clipitem>
					<clipitem id="clipitem-1294" premiereChannelType="stereo">
						<masterclipid>masterclip-2</masterclipid>
						<name>chandrika rocket equations</name>
						<start>20858</start>
						<end>20888</end>
						<in>35237</in>
						<out>35267</out>
						<file id="file-1" />
						<sourcetrack>
							<mediatype>audio</mediatype>
							<trackindex>1</trackindex>
						</sourcetrack>
						<labels>
							<label2>Iris</label2>
						</labels>
						<outputchannelindex>1</outputchannelindex>
					</clipitem>
					<clipitem id="clipitem-1295" premiereChannelType="stereo">
						<masterclipid>masterclip-2</masterclipid>
						<name>chandrika rocket equations</name>
						<start>20888</start>
						<end>21040</end>
						<in>35288</in>
						<out>35440</out>
						<file id="file-1" />
						<sourcetrack>
							<mediatype>audio</mediatype>
							<trackindex>1</trackindex>
						</sourcetrack>
						<labels>
							<label2>Iris</label2>
						</labels>
						<outputchannelindex>1</outputchannelindex>
					</clipitem>
					<clipitem id="clipitem-1296" premiereChannelType="stereo">
						<masterclipid>masterclip-2</masterclipid>
						<name>chandrika rocket equations</name>
						<start>21040</start>
						<end>21151</end>
						<in>35445</in>
						<out>35556</out>
						<file id="file-1" />
						<sourcetrack>
							<mediatype>audio</mediatype>
							<trackindex>1</trackindex>
						</sourcetrack>
						<labels>
							<label2>Iris</label2>
						</labels>
						<outputchannelindex>1</outputchannelindex>
					</clipitem>
					<clipitem id="clipitem-1297" premiereChannelType="stereo">
						<masterclipid>masterclip-2</masterclipid>
						<name>chandrika rocket equations</name>
						<start>21151</start>
						<end>21192</end>
						<in>35570</in>
						<out>35611</out>
						<file id="file-1" />
						<sourcetrack>
							<mediatype>audio</mediatype>
							<trackindex>1</trackindex>
						</sourcetrack>
						<labels>
							<label2>Iris</label2>
						</labels>
						<outputchannelindex>1</outputchannelindex>
					</clipitem>
					<clipitem id="clipitem-1298" premiereChannelType="stereo">
						<masterclipid>masterclip-2</masterclipid>
						<name>chandrika rocket equations</name>
						<start>21192</start>
						<end>21231</end>
						<in>35686</in>
						<out>35725</out>
						<file id="file-1" />
						<sourcetrack>
							<mediatype>audio</mediatype>
							<trackindex>1</trackindex>
						</sourcetrack>
						<labels>
							<label2>Iris</label2>
						</labels>
						<outputchannelindex>1</outputchannelindex>
					</clipitem>
					<clipitem id="clipitem-1299" premiereChannelType="stereo">
						<masterclipid>masterclip-2</masterclipid>
						<name>chandrika rocket equations</name>
						<start>21231</start>
						<end>21261</end>
						<in>35766</in>
						<out>35796</out>
						<file id="file-1" />
						<sourcetrack>
							<mediatype>audio</mediatype>
							<trackindex>1</trackindex>
						</sourcetrack>
						<labels>
							<label2>Iris</label2>
						</labels>
						<outputchannelindex>1</outputchannelindex>
					</clipitem>
					<clipitem id="clipitem-1300" premiereChannelType="stereo">
						<masterclipid>masterclip-2</masterclipid>
						<name>chandrika rocket equations</name>
						<start>21261</start>
						<end>21288</end>
						<in>35818</in>
						<out>35845</out>
						<file id="file-1" />
						<sourcetrack>
							<mediatype>audio</mediatype>
							<trackindex>1</trackindex>
						</sourcetrack>
						<labels>
							<label2>Iris</label2>
						</labels>
						<outputchannelindex>1</outputchannelindex>
					</clipitem>
					<clipitem id="clipitem-1301" premiereChannelType="stereo">
						<masterclipid>masterclip-2</masterclipid>
						<name>chandrika rocket equations</name>
						<start>21288</start>
						<end>21326</end>
						<in>35923</in>
						<out>35961</out>
						<file id="file-1" />
						<sourcetrack>
							<mediatype>audio</mediatype>
							<trackindex>1</trackindex>
						</sourcetrack>
						<labels>
							<label2>Iris</label2>
						</labels>
						<outputchannelindex>1</outputchannelindex>
					</clipitem>
					<clipitem id="clipitem-1302" premiereChannelType="stereo">
						<masterclipid>masterclip-2</masterclipid>
						<name>chandrika rocket equations</name>
						<start>21326</start>
						<end>21354</end>
						<in>36078</in>
						<out>36106</out>
						<file id="file-1" />
						<sourcetrack>
							<mediatype>audio</mediatype>
							<trackindex>1</trackindex>
						</sourcetrack>
						<labels>
							<label2>Iris</label2>
						</labels>
						<outputchannelindex>1</outputchannelindex>
					</clipitem>
					<clipitem id="clipitem-1303" premiereChannelType="stereo">
						<masterclipid>masterclip-2</masterclipid>
						<name>chandrika rocket equations</name>
						<start>21354</start>
						<end>21433</end>
						<in>36142</in>
						<out>36221</out>
						<file id="file-1" />
						<sourcetrack>
							<mediatype>audio</mediatype>
							<trackindex>1</trackindex>
						</sourcetrack>
						<labels>
							<label2>Iris</label2>
						</labels>
						<outputchannelindex>1</outputchannelindex>
					</clipitem>
					<clipitem id="clipitem-1304" premiereChannelType="stereo">
						<masterclipid>masterclip-2</masterclipid>
						<name>chandrika rocket equations</name>
						<start>21433</start>
						<end>21481</end>
						<in>36317</in>
						<out>36365</out>
						<file id="file-1" />
						<sourcetrack>
							<mediatype>audio</mediatype>
							<trackindex>1</trackindex>
						</sourcetrack>
						<labels>
							<label2>Iris</label2>
						</labels>
						<outputchannelindex>1</outputchannelindex>
					</clipitem>
					<clipitem id="clipitem-1305" premiereChannelType="stereo">
						<masterclipid>masterclip-2</masterclipid>
						<name>chandrika rocket equations</name>
						<start>21481</start>
						<end>21508</end>
						<in>36494</in>
						<out>36521</out>
						<file id="file-1" />
						<sourcetrack>
							<mediatype>audio</mediatype>
							<trackindex>1</trackindex>
						</sourcetrack>
						<labels>
							<label2>Iris</label2>
						</labels>
						<outputchannelindex>1</outputchannelindex>
					</clipitem>
					<clipitem id="clipitem-1306" premiereChannelType="stereo">
						<masterclipid>masterclip-2</masterclipid>
						<name>chandrika rocket equations</name>
						<start>21508</start>
						<end>21612</end>
						<in>36659</in>
						<out>36763</out>
						<file id="file-1" />
						<sourcetrack>
							<mediatype>audio</mediatype>
							<trackindex>1</trackindex>
						</sourcetrack>
						<labels>
							<label2>Iris</label2>
						</labels>
						<outputchannelindex>1</outputchannelindex>
					</clipitem>
					<clipitem id="clipitem-1307" premiereChannelType="stereo">
						<masterclipid>masterclip-2</masterclipid>
						<name>chandrika rocket equations</name>
						<start>21612</start>
						<end>21646</end>
						<in>36801</in>
						<out>36835</out>
						<file id="file-1" />
						<sourcetrack>
							<mediatype>audio</mediatype>
							<trackindex>1</trackindex>
						</sourcetrack>
						<labels>
							<label2>Iris</label2>
						</labels>
						<outputchannelindex>1</outputchannelindex>
					</clipitem>
					<clipitem id="clipitem-1308" premiereChannelType="stereo">
						<masterclipid>masterclip-2</masterclipid>
						<name>chandrika rocket equations</name>
						<start>21646</start>
						<end>21682</end>
						<in>36919</in>
						<out>36955</out>
						<file id="file-1" />
						<sourcetrack>
							<mediatype>audio</mediatype>
							<trackindex>1</trackindex>
						</sourcetrack>
						<labels>
							<label2>Iris</label2>
						</labels>
						<outputchannelindex>1</outputchannelindex>
					</clipitem>
					<clipitem id="clipitem-1309" premiereChannelType="stereo">
						<masterclipid>masterclip-2</masterclipid>
						<name>chandrika rocket equations</name>
						<start>21682</start>
						<end>21766</end>
						<in>36982</in>
						<out>37066</out>
						<file id="file-1" />
						<sourcetrack>
							<mediatype>audio</mediatype>
							<trackindex>1</trackindex>
						</sourcetrack>
						<labels>
							<label2>Iris</label2>
						</labels>
						<outputchannelindex>1</outputchannelindex>
					</clipitem>
					<clipitem id="clipitem-1310" premiereChannelType="stereo">
						<masterclipid>masterclip-2</masterclipid>
						<name>chandrika rocket equations</name>
						<start>21766</start>
						<end>21865</end>
						<in>37098</in>
						<out>37197</out>
						<file id="file-1" />
						<sourcetrack>
							<mediatype>audio</mediatype>
							<trackindex>1</trackindex>
						</sourcetrack>
						<labels>
							<label2>Iris</label2>
						</labels>
						<outputchannelindex>1</outputchannelindex>
					</clipitem>
					<clipitem id="clipitem-1311" premiereChannelType="stereo">
						<masterclipid>masterclip-2</masterclipid>
						<name>chandrika rocket equations</name>
						<start>21865</start>
						<end>21882</end>
						<in>37220</in>
						<out>37237</out>
						<file id="file-1" />
						<sourcetrack>
							<mediatype>audio</mediatype>
							<trackindex>1</trackindex>
						</sourcetrack>
						<labels>
							<label2>Iris</label2>
						</labels>
						<outputchannelindex>1</outputchannelindex>
					</clipitem>
					<clipitem id="clipitem-1312" premiereChannelType="stereo">
						<masterclipid>masterclip-2</masterclipid>
						<name>chandrika rocket equations</name>
						<start>21882</start>
						<end>21979</end>
						<in>37242</in>
						<out>37339</out>
						<file id="file-1" />
						<sourcetrack>
							<mediatype>audio</mediatype>
							<trackindex>1</trackindex>
						</sourcetrack>
						<labels>
							<label2>Iris</label2>
						</labels>
						<outputchannelindex>1</outputchannelindex>
					</clipitem>
					<clipitem id="clipitem-1313" premiereChannelType="stereo">
						<masterclipid>masterclip-2</masterclipid>
						<name>chandrika rocket equations</name>
						<start>21979</start>
						<end>22060</end>
						<in>37356</in>
						<out>37437</out>
						<file id="file-1" />
						<sourcetrack>
							<mediatype>audio</mediatype>
							<trackindex>1</trackindex>
						</sourcetrack>
						<labels>
							<label2>Iris</label2>
						</labels>
						<outputchannelindex>1</outputchannelindex>
					</clipitem>
					<clipitem id="clipitem-1314" premiereChannelType="stereo">
						<masterclipid>masterclip-2</masterclipid>
						<name>chandrika rocket equations</name>
						<start>22060</start>
						<end>22172</end>
						<in>37459</in>
						<out>37571</out>
						<file id="file-1" />
						<sourcetrack>
							<mediatype>audio</mediatype>
							<trackindex>1</trackindex>
						</sourcetrack>
						<labels>
							<label2>Iris</label2>
						</labels>
						<outputchannelindex>1</outputchannelindex>
					</clipitem>
					<clipitem id="clipitem-1315" premiereChannelType="stereo">
						<masterclipid>masterclip-2</masterclipid>
						<name>chandrika rocket equations</name>
						<start>22172</start>
						<end>22197</end>
						<in>37577</in>
						<out>37602</out>
						<file id="file-1" />
						<sourcetrack>
							<mediatype>audio</mediatype>
							<trackindex>1</trackindex>
						</sourcetrack>
						<labels>
							<label2>Iris</label2>
						</labels>
						<outputchannelindex>1</outputchannelindex>
					</clipitem>
					<clipitem id="clipitem-1316" premiereChannelType="stereo">
						<masterclipid>masterclip-2</masterclipid>
						<name>chandrika rocket equations</name>
						<start>22197</start>
						<end>22239</end>
						<in>37612</in>
						<out>37654</out>
						<file id="file-1" />
						<sourcetrack>
							<mediatype>audio</mediatype>
							<trackindex>1</trackindex>
						</sourcetrack>
						<labels>
							<label2>Iris</label2>
						</labels>
						<outputchannelindex>1</outputchannelindex>
					</clipitem>
					<clipitem id="clipitem-1317" premiereChannelType="stereo">
						<masterclipid>masterclip-2</masterclipid>
						<name>chandrika rocket equations</name>
						<start>22239</start>
						<end>22254</end>
						<in>37715</in>
						<out>37730</out>
						<file id="file-1" />
						<sourcetrack>
							<mediatype>audio</mediatype>
							<trackindex>1</trackindex>
						</sourcetrack>
						<labels>
							<label2>Iris</label2>
						</labels>
						<outputchannelindex>1</outputchannelindex>
					</clipitem>
					<clipitem id="clipitem-1318" premiereChannelType="stereo">
						<masterclipid>masterclip-2</masterclipid>
						<name>chandrika rocket equations</name>
						<start>22254</start>
						<end>22289</end>
						<in>37753</in>
						<out>37788</out>
						<file id="file-1" />
						<sourcetrack>
							<mediatype>audio</mediatype>
							<trackindex>1</trackindex>
						</sourcetrack>
						<labels>
							<label2>Iris</label2>
						</labels>
						<outputchannelindex>1</outputchannelindex>
					</clipitem>
					<clipitem id="clipitem-1319" premiereChannelType="stereo">
						<masterclipid>masterclip-2</masterclipid>
						<name>chandrika rocket equations</name>
						<start>22289</start>
						<end>22385</end>
						<in>37816</in>
						<out>37912</out>
						<file id="file-1" />
						<sourcetrack>
							<mediatype>audio</mediatype>
							<trackindex>1</trackindex>
						</sourcetrack>
						<labels>
							<label2>Iris</label2>
						</labels>
						<outputchannelindex>1</outputchannelindex>
					</clipitem>
					<clipitem id="clipitem-1320" premiereChannelType="stereo">
						<masterclipid>masterclip-2</masterclipid>
						<name>chandrika rocket equations</name>
						<start>22385</start>
						<end>22429</end>
						<in>37921</in>
						<out>37965</out>
						<file id="file-1" />
						<sourcetrack>
							<mediatype>audio</mediatype>
							<trackindex>1</trackindex>
						</sourcetrack>
						<labels>
							<label2>Iris</label2>
						</labels>
						<outputchannelindex>1</outputchannelindex>
					</clipitem>
					<clipitem id="clipitem-1321" premiereChannelType="stereo">
						<masterclipid>masterclip-2</masterclipid>
						<name>chandrika rocket equations</name>
						<start>22429</start>
						<end>22446</end>
						<in>37968</in>
						<out>37985</out>
						<file id="file-1" />
						<sourcetrack>
							<mediatype>audio</mediatype>
							<trackindex>1</trackindex>
						</sourcetrack>
						<labels>
							<label2>Iris</label2>
						</labels>
						<outputchannelindex>1</outputchannelindex>
					</clipitem>
					<clipitem id="clipitem-1322" premiereChannelType="stereo">
						<masterclipid>masterclip-2</masterclipid>
						<name>chandrika rocket equations</name>
						<start>22446</start>
						<end>22467</end>
						<in>38013</in>
						<out>38034</out>
						<file id="file-1" />
						<sourcetrack>
							<mediatype>audio</mediatype>
							<trackindex>1</trackindex>
						</sourcetrack>
						<labels>
							<label2>Iris</label2>
						</labels>
						<outputchannelindex>1</outputchannelindex>
					</clipitem>
					<clipitem id="clipitem-1323" premiereChannelType="stereo">
						<masterclipid>masterclip-2</masterclipid>
						<name>chandrika rocket equations</name>
						<start>22467</start>
						<end>22508</end>
						<in>38073</in>
						<out>38114</out>
						<file id="file-1" />
						<sourcetrack>
							<mediatype>audio</mediatype>
							<trackindex>1</trackindex>
						</sourcetrack>
						<labels>
							<label2>Iris</label2>
						</labels>
						<outputchannelindex>1</outputchannelindex>
					</clipitem>
					<clipitem id="clipitem-1324" premiereChannelType="stereo">
						<masterclipid>masterclip-2</masterclipid>
						<name>chandrika rocket equations</name>
						<start>22508</start>
						<end>22634</end>
						<in>38149</in>
						<out>38275</out>
						<file id="file-1" />
						<sourcetrack>
							<mediatype>audio</mediatype>
							<trackindex>1</trackindex>
						</sourcetrack>
						<labels>
							<label2>Iris</label2>
						</labels>
						<outputchannelindex>1</outputchannelindex>
					</clipitem>
					<clipitem id="clipitem-1325" premiereChannelType="stereo">
						<masterclipid>masterclip-2</masterclipid>
						<name>chandrika rocket equations</name>
						<start>22634</start>
						<end>22678</end>
						<in>38307</in>
						<out>38351</out>
						<file id="file-1" />
						<sourcetrack>
							<mediatype>audio</mediatype>
							<trackindex>1</trackindex>
						</sourcetrack>
						<labels>
							<label2>Iris</label2>
						</labels>
						<outputchannelindex>1</outputchannelindex>
					</clipitem>
					<clipitem id="clipitem-1326" premiereChannelType="stereo">
						<masterclipid>masterclip-2</masterclipid>
						<name>chandrika rocket equations</name>
						<start>22678</start>
						<end>22739</end>
						<in>38386</in>
						<out>38447</out>
						<file id="file-1" />
						<sourcetrack>
							<mediatype>audio</mediatype>
							<trackindex>1</trackindex>
						</sourcetrack>
						<labels>
							<label2>Iris</label2>
						</labels>
						<outputchannelindex>1</outputchannelindex>
					</clipitem>
					<clipitem id="clipitem-1327" premiereChannelType="stereo">
						<masterclipid>masterclip-2</masterclipid>
						<name>chandrika rocket equations</name>
						<start>22739</start>
						<end>22770</end>
						<in>38471</in>
						<out>38502</out>
						<file id="file-1" />
						<sourcetrack>
							<mediatype>audio</mediatype>
							<trackindex>1</trackindex>
						</sourcetrack>
						<labels>
							<label2>Iris</label2>
						</labels>
						<outputchannelindex>1</outputchannelindex>
					</clipitem>
					<clipitem id="clipitem-1328" premiereChannelType="stereo">
						<masterclipid>masterclip-2</masterclipid>
						<name>chandrika rocket equations</name>
						<start>22770</start>
						<end>22804</end>
						<in>38538</in>
						<out>38572</out>
						<file id="file-1" />
						<sourcetrack>
							<mediatype>audio</mediatype>
							<trackindex>1</trackindex>
						</sourcetrack>
						<labels>
							<label2>Iris</label2>
						</labels>
						<outputchannelindex>1</outputchannelindex>
					</clipitem>
					<clipitem id="clipitem-1329" premiereChannelType="stereo">
						<masterclipid>masterclip-2</masterclipid>
						<name>chandrika rocket equations</name>
						<start>22804</start>
						<end>22892</end>
						<in>38585</in>
						<out>38673</out>
						<file id="file-1" />
						<sourcetrack>
							<mediatype>audio</mediatype>
							<trackindex>1</trackindex>
						</sourcetrack>
						<labels>
							<label2>Iris</label2>
						</labels>
						<outputchannelindex>1</outputchannelindex>
					</clipitem>
					<clipitem id="clipitem-1330" premiereChannelType="stereo">
						<masterclipid>masterclip-2</masterclipid>
						<name>chandrika rocket equations</name>
						<start>22892</start>
						<end>22993</end>
						<in>38677</in>
						<out>38778</out>
						<file id="file-1" />
						<sourcetrack>
							<mediatype>audio</mediatype>
							<trackindex>1</trackindex>
						</sourcetrack>
						<labels>
							<label2>Iris</label2>
						</labels>
						<outputchannelindex>1</outputchannelindex>
					</clipitem>
					<clipitem id="clipitem-1331" premiereChannelType="stereo">
						<masterclipid>masterclip-2</masterclipid>
						<name>chandrika rocket equations</name>
						<start>22993</start>
						<end>23046</end>
						<in>38850</in>
						<out>38903</out>
						<file id="file-1" />
						<sourcetrack>
							<mediatype>audio</mediatype>
							<trackindex>1</trackindex>
						</sourcetrack>
						<labels>
							<label2>Iris</label2>
						</labels>
						<outputchannelindex>1</outputchannelindex>
					</clipitem>
					<clipitem id="clipitem-1332" premiereChannelType="stereo">
						<masterclipid>masterclip-2</masterclipid>
						<name>chandrika rocket equations</name>
						<start>23046</start>
						<end>23088</end>
						<in>38939</in>
						<out>38981</out>
						<file id="file-1" />
						<sourcetrack>
							<mediatype>audio</mediatype>
							<trackindex>1</trackindex>
						</sourcetrack>
						<labels>
							<label2>Iris</label2>
						</labels>
						<outputchannelindex>1</outputchannelindex>
					</clipitem>
					<clipitem id="clipitem-1333" premiereChannelType="stereo">
						<masterclipid>masterclip-2</masterclipid>
						<name>chandrika rocket equations</name>
						<start>23088</start>
						<end>23124</end>
						<in>39095</in>
						<out>39131</out>
						<file id="file-1" />
						<sourcetrack>
							<mediatype>audio</mediatype>
							<trackindex>1</trackindex>
						</sourcetrack>
						<labels>
							<label2>Iris</label2>
						</labels>
						<outputchannelindex>1</outputchannelindex>
					</clipitem>
					<clipitem id="clipitem-1334" premiereChannelType="stereo">
						<masterclipid>masterclip-2</masterclipid>
						<name>chandrika rocket equations</name>
						<start>23124</start>
						<end>23160</end>
						<in>39132</in>
						<out>39168</out>
						<file id="file-1" />
						<sourcetrack>
							<mediatype>audio</mediatype>
							<trackindex>1</trackindex>
						</sourcetrack>
						<labels>
							<label2>Iris</label2>
						</labels>
						<outputchannelindex>1</outputchannelindex>
					</clipitem>
					<clipitem id="clipitem-1335" premiereChannelType="stereo">
						<masterclipid>masterclip-2</masterclipid>
						<name>chandrika rocket equations</name>
						<start>23160</start>
						<end>23188</end>
						<in>39200</in>
						<out>39228</out>
						<file id="file-1" />
						<sourcetrack>
							<mediatype>audio</mediatype>
							<trackindex>1</trackindex>
						</sourcetrack>
						<labels>
							<label2>Iris</label2>
						</labels>
						<outputchannelindex>1</outputchannelindex>
					</clipitem>
					<clipitem id="clipitem-1336" premiereChannelType="stereo">
						<masterclipid>masterclip-2</masterclipid>
						<name>chandrika rocket equations</name>
						<start>23188</start>
						<end>23233</end>
						<in>39255</in>
						<out>39300</out>
						<file id="file-1" />
						<sourcetrack>
							<mediatype>audio</mediatype>
							<trackindex>1</trackindex>
						</sourcetrack>
						<labels>
							<label2>Iris</label2>
						</labels>
						<outputchannelindex>1</outputchannelindex>
					</clipitem>
					<clipitem id="clipitem-1337" premiereChannelType="stereo">
						<masterclipid>masterclip-2</masterclipid>
						<name>chandrika rocket equations</name>
						<start>23233</start>
						<end>23301</end>
						<in>39374</in>
						<out>39442</out>
						<file id="file-1" />
						<sourcetrack>
							<mediatype>audio</mediatype>
							<trackindex>1</trackindex>
						</sourcetrack>
						<labels>
							<label2>Iris</label2>
						</labels>
						<outputchannelindex>1</outputchannelindex>
					</clipitem>
					<clipitem id="clipitem-1338" premiereChannelType="stereo">
						<masterclipid>masterclip-2</masterclipid>
						<name>chandrika rocket equations</name>
						<start>23301</start>
						<end>23385</end>
						<in>39698</in>
						<out>39782</out>
						<file id="file-1" />
						<sourcetrack>
							<mediatype>audio</mediatype>
							<trackindex>1</trackindex>
						</sourcetrack>
						<labels>
							<label2>Iris</label2>
						</labels>
						<outputchannelindex>1</outputchannelindex>
					</clipitem>
					<clipitem id="clipitem-1339" premiereChannelType="stereo">
						<masterclipid>masterclip-2</masterclipid>
						<name>chandrika rocket equations</name>
						<start>23385</start>
						<end>23515</end>
						<in>39801</in>
						<out>39931</out>
						<file id="file-1" />
						<sourcetrack>
							<mediatype>audio</mediatype>
							<trackindex>1</trackindex>
						</sourcetrack>
						<labels>
							<label2>Iris</label2>
						</labels>
						<outputchannelindex>1</outputchannelindex>
					</clipitem>
					<clipitem id="clipitem-1340" premiereChannelType="stereo">
						<masterclipid>masterclip-2</masterclipid>
						<name>chandrika rocket equations</name>
						<start>23515</start>
						<end>23532</end>
						<in>39939</in>
						<out>39956</out>
						<file id="file-1" />
						<sourcetrack>
							<mediatype>audio</mediatype>
							<trackindex>1</trackindex>
						</sourcetrack>
						<labels>
							<label2>Iris</label2>
						</labels>
						<outputchannelindex>1</outputchannelindex>
					</clipitem>
					<clipitem id="clipitem-1341" premiereChannelType="stereo">
						<masterclipid>masterclip-2</masterclipid>
						<name>chandrika rocket equations</name>
						<start>23532</start>
						<end>23597</end>
						<in>39958</in>
						<out>40023</out>
						<file id="file-1" />
						<sourcetrack>
							<mediatype>audio</mediatype>
							<trackindex>1</trackindex>
						</sourcetrack>
						<labels>
							<label2>Iris</label2>
						</labels>
						<outputchannelindex>1</outputchannelindex>
					</clipitem>
					<clipitem id="clipitem-1342" premiereChannelType="stereo">
						<masterclipid>masterclip-2</masterclipid>
						<name>chandrika rocket equations</name>
						<start>23597</start>
						<end>23693</end>
						<in>40033</in>
						<out>40129</out>
						<file id="file-1" />
						<sourcetrack>
							<mediatype>audio</mediatype>
							<trackindex>1</trackindex>
						</sourcetrack>
						<labels>
							<label2>Iris</label2>
						</labels>
						<outputchannelindex>1</outputchannelindex>
					</clipitem>
					<clipitem id="clipitem-1343" premiereChannelType="stereo">
						<masterclipid>masterclip-2</masterclipid>
						<name>chandrika rocket equations</name>
						<start>23693</start>
						<end>23728</end>
						<in>40139</in>
						<out>40174</out>
						<file id="file-1" />
						<sourcetrack>
							<mediatype>audio</mediatype>
							<trackindex>1</trackindex>
						</sourcetrack>
						<labels>
							<label2>Iris</label2>
						</labels>
						<outputchannelindex>1</outputchannelindex>
					</clipitem>
					<clipitem id="clipitem-1344" premiereChannelType="stereo">
						<masterclipid>masterclip-2</masterclipid>
						<name>chandrika rocket equations</name>
						<start>23728</start>
						<end>23766</end>
						<in>40183</in>
						<out>40221</out>
						<file id="file-1" />
						<sourcetrack>
							<mediatype>audio</mediatype>
							<trackindex>1</trackindex>
						</sourcetrack>
						<labels>
							<label2>Iris</label2>
						</labels>
						<outputchannelindex>1</outputchannelindex>
					</clipitem>
					<clipitem id="clipitem-1345" premiereChannelType="stereo">
						<masterclipid>masterclip-2</masterclipid>
						<name>chandrika rocket equations</name>
						<start>23766</start>
						<end>23792</end>
						<in>40229</in>
						<out>40255</out>
						<file id="file-1" />
						<sourcetrack>
							<mediatype>audio</mediatype>
							<trackindex>1</trackindex>
						</sourcetrack>
						<labels>
							<label2>Iris</label2>
						</labels>
						<outputchannelindex>1</outputchannelindex>
					</clipitem>
					<clipitem id="clipitem-1346" premiereChannelType="stereo">
						<masterclipid>masterclip-2</masterclipid>
						<name>chandrika rocket equations</name>
						<start>23792</start>
						<end>23923</end>
						<in>40267</in>
						<out>40398</out>
						<file id="file-1" />
						<sourcetrack>
							<mediatype>audio</mediatype>
							<trackindex>1</trackindex>
						</sourcetrack>
						<labels>
							<label2>Iris</label2>
						</labels>
						<outputchannelindex>1</outputchannelindex>
					</clipitem>
					<clipitem id="clipitem-1347" premiereChannelType="stereo">
						<masterclipid>masterclip-2</masterclipid>
						<name>chandrika rocket equations</name>
						<start>23923</start>
						<end>24096</end>
						<in>40415</in>
						<out>40588</out>
						<file id="file-1" />
						<sourcetrack>
							<mediatype>audio</mediatype>
							<trackindex>1</trackindex>
						</sourcetrack>
						<labels>
							<label2>Iris</label2>
						</labels>
						<outputchannelindex>1</outputchannelindex>
					</clipitem>
					<clipitem id="clipitem-1348" premiereChannelType="stereo">
						<masterclipid>masterclip-2</masterclipid>
						<name>chandrika rocket equations</name>
						<start>24096</start>
						<end>24124</end>
						<in>40606</in>
						<out>40634</out>
						<file id="file-1" />
						<sourcetrack>
							<mediatype>audio</mediatype>
							<trackindex>1</trackindex>
						</sourcetrack>
						<labels>
							<label2>Iris</label2>
						</labels>
						<outputchannelindex>1</outputchannelindex>
					</clipitem>
					<clipitem id="clipitem-1349" premiereChannelType="stereo">
						<masterclipid>masterclip-2</masterclipid>
						<name>chandrika rocket equations</name>
						<start>24124</start>
						<end>24181</end>
						<in>40646</in>
						<out>40703</out>
						<file id="file-1" />
						<sourcetrack>
							<mediatype>audio</mediatype>
							<trackindex>1</trackindex>
						</sourcetrack>
						<labels>
							<label2>Iris</label2>
						</labels>
						<outputchannelindex>1</outputchannelindex>
					</clipitem>
					<clipitem id="clipitem-1350" premiereChannelType="stereo">
						<masterclipid>masterclip-2</masterclipid>
						<name>chandrika rocket equations</name>
						<start>24181</start>
						<end>24350</end>
						<in>40710</in>
						<out>40879</out>
						<file id="file-1" />
						<sourcetrack>
							<mediatype>audio</mediatype>
							<trackindex>1</trackindex>
						</sourcetrack>
						<labels>
							<label2>Iris</label2>
						</labels>
						<outputchannelindex>1</outputchannelindex>
					</clipitem>
					<clipitem id="clipitem-1351" premiereChannelType="stereo">
						<masterclipid>masterclip-2</masterclipid>
						<name>chandrika rocket equations</name>
						<start>24350</start>
						<end>24372</end>
						<in>40908</in>
						<out>40930</out>
						<file id="file-1" />
						<sourcetrack>
							<mediatype>audio</mediatype>
							<trackindex>1</trackindex>
						</sourcetrack>
						<labels>
							<label2>Iris</label2>
						</labels>
						<outputchannelindex>1</outputchannelindex>
					</clipitem>
					<clipitem id="clipitem-1352" premiereChannelType="stereo">
						<masterclipid>masterclip-2</masterclipid>
						<name>chandrika rocket equations</name>
						<start>24372</start>
						<end>24526</end>
						<in>40941</in>
						<out>41095</out>
						<file id="file-1" />
						<sourcetrack>
							<mediatype>audio</mediatype>
							<trackindex>1</trackindex>
						</sourcetrack>
						<labels>
							<label2>Iris</label2>
						</labels>
						<outputchannelindex>1</outputchannelindex>
					</clipitem>
					<clipitem id="clipitem-1353" premiereChannelType="stereo">
						<masterclipid>masterclip-2</masterclipid>
						<name>chandrika rocket equations</name>
						<start>24526</start>
						<end>24552</end>
						<in>41112</in>
						<out>41138</out>
						<file id="file-1" />
						<sourcetrack>
							<mediatype>audio</mediatype>
							<trackindex>1</trackindex>
						</sourcetrack>
						<labels>
							<label2>Iris</label2>
						</labels>
						<outputchannelindex>1</outputchannelindex>
					</clipitem>
					<clipitem id="clipitem-1354" premiereChannelType="stereo">
						<masterclipid>masterclip-2</masterclipid>
						<name>chandrika rocket equations</name>
						<start>24552</start>
						<end>24671</end>
						<in>41140</in>
						<out>41259</out>
						<file id="file-1" />
						<sourcetrack>
							<mediatype>audio</mediatype>
							<trackindex>1</trackindex>
						</sourcetrack>
						<labels>
							<label2>Iris</label2>
						</labels>
						<outputchannelindex>1</outputchannelindex>
					</clipitem>
					<clipitem id="clipitem-1355" premiereChannelType="stereo">
						<masterclipid>masterclip-2</masterclipid>
						<name>chandrika rocket equations</name>
						<start>24671</start>
						<end>24820</end>
						<in>41305</in>
						<out>41454</out>
						<file id="file-1" />
						<sourcetrack>
							<mediatype>audio</mediatype>
							<trackindex>1</trackindex>
						</sourcetrack>
						<labels>
							<label2>Iris</label2>
						</labels>
						<outputchannelindex>1</outputchannelindex>
					</clipitem>
					<clipitem id="clipitem-1356" premiereChannelType="stereo">
						<masterclipid>masterclip-2</masterclipid>
						<name>chandrika rocket equations</name>
						<start>24820</start>
						<end>24856</end>
						<in>41465</in>
						<out>41501</out>
						<file id="file-1" />
						<sourcetrack>
							<mediatype>audio</mediatype>
							<trackindex>1</trackindex>
						</sourcetrack>
						<labels>
							<label2>Iris</label2>
						</labels>
						<outputchannelindex>1</outputchannelindex>
					</clipitem>
					<clipitem id="clipitem-1357" premiereChannelType="stereo">
						<masterclipid>masterclip-2</masterclipid>
						<name>chandrika rocket equations</name>
						<start>24856</start>
						<end>24913</end>
						<in>41519</in>
						<out>41576</out>
						<file id="file-1" />
						<sourcetrack>
							<mediatype>audio</mediatype>
							<trackindex>1</trackindex>
						</sourcetrack>
						<labels>
							<label2>Iris</label2>
						</labels>
						<outputchannelindex>1</outputchannelindex>
					</clipitem>
					<clipitem id="clipitem-1358" premiereChannelType="stereo">
						<masterclipid>masterclip-2</masterclipid>
						<name>chandrika rocket equations</name>
						<start>24913</start>
						<end>24944</end>
						<in>41581</in>
						<out>41612</out>
						<file id="file-1" />
						<sourcetrack>
							<mediatype>audio</mediatype>
							<trackindex>1</trackindex>
						</sourcetrack>
						<labels>
							<label2>Iris</label2>
						</labels>
						<outputchannelindex>1</outputchannelindex>
					</clipitem>
					<clipitem id="clipitem-1359" premiereChannelType="stereo">
						<masterclipid>masterclip-2</masterclipid>
						<name>chandrika rocket equations</name>
						<start>24944</start>
						<end>24965</end>
						<in>41629</in>
						<out>41650</out>
						<file id="file-1" />
						<sourcetrack>
							<mediatype>audio</mediatype>
							<trackindex>1</trackindex>
						</sourcetrack>
						<labels>
							<label2>Iris</label2>
						</labels>
						<outputchannelindex>1</outputchannelindex>
					</clipitem>
					<clipitem id="clipitem-1360" premiereChannelType="stereo">
						<masterclipid>masterclip-2</masterclipid>
						<name>chandrika rocket equations</name>
						<start>24965</start>
						<end>24998</end>
						<in>41662</in>
						<out>41695</out>
						<file id="file-1" />
						<sourcetrack>
							<mediatype>audio</mediatype>
							<trackindex>1</trackindex>
						</sourcetrack>
						<labels>
							<label2>Iris</label2>
						</labels>
						<outputchannelindex>1</outputchannelindex>
					</clipitem>
					<clipitem id="clipitem-1361" premiereChannelType="stereo">
						<masterclipid>masterclip-2</masterclipid>
						<name>chandrika rocket equations</name>
						<start>24998</start>
						<end>25046</end>
						<in>41699</in>
						<out>41747</out>
						<file id="file-1" />
						<sourcetrack>
							<mediatype>audio</mediatype>
							<trackindex>1</trackindex>
						</sourcetrack>
						<labels>
							<label2>Iris</label2>
						</labels>
						<outputchannelindex>1</outputchannelindex>
					</clipitem>
					<clipitem id="clipitem-1362" premiereChannelType="stereo">
						<masterclipid>masterclip-2</masterclipid>
						<name>chandrika rocket equations</name>
						<start>25046</start>
						<end>25126</end>
						<in>41761</in>
						<out>41841</out>
						<file id="file-1" />
						<sourcetrack>
							<mediatype>audio</mediatype>
							<trackindex>1</trackindex>
						</sourcetrack>
						<labels>
							<label2>Iris</label2>
						</labels>
						<outputchannelindex>1</outputchannelindex>
					</clipitem>
					<clipitem id="clipitem-1363" premiereChannelType="stereo">
						<masterclipid>masterclip-2</masterclipid>
						<name>chandrika rocket equations</name>
						<start>25126</start>
						<end>25157</end>
						<in>41848</in>
						<out>41879</out>
						<file id="file-1" />
						<sourcetrack>
							<mediatype>audio</mediatype>
							<trackindex>1</trackindex>
						</sourcetrack>
						<labels>
							<label2>Iris</label2>
						</labels>
						<outputchannelindex>1</outputchannelindex>
					</clipitem>
					<clipitem id="clipitem-1364" premiereChannelType="stereo">
						<masterclipid>masterclip-2</masterclipid>
						<name>chandrika rocket equations</name>
						<start>25157</start>
						<end>25244</end>
						<in>41905</in>
						<out>41992</out>
						<file id="file-1" />
						<sourcetrack>
							<mediatype>audio</mediatype>
							<trackindex>1</trackindex>
						</sourcetrack>
						<labels>
							<label2>Iris</label2>
						</labels>
						<outputchannelindex>1</outputchannelindex>
					</clipitem>
					<clipitem id="clipitem-1365" premiereChannelType="stereo">
						<masterclipid>masterclip-2</masterclipid>
						<name>chandrika rocket equations</name>
						<start>25244</start>
						<end>25386</end>
						<in>42039</in>
						<out>42181</out>
						<file id="file-1" />
						<sourcetrack>
							<mediatype>audio</mediatype>
							<trackindex>1</trackindex>
						</sourcetrack>
						<labels>
							<label2>Iris</label2>
						</labels>
						<outputchannelindex>1</outputchannelindex>
					</clipitem>
					<clipitem id="clipitem-1366" premiereChannelType="stereo">
						<masterclipid>masterclip-2</masterclipid>
						<name>chandrika rocket equations</name>
						<start>25386</start>
						<end>25426</end>
						<in>42198</in>
						<out>42238</out>
						<file id="file-1" />
						<sourcetrack>
							<mediatype>audio</mediatype>
							<trackindex>1</trackindex>
						</sourcetrack>
						<labels>
							<label2>Iris</label2>
						</labels>
						<outputchannelindex>1</outputchannelindex>
					</clipitem>
					<clipitem id="clipitem-1367" premiereChannelType="stereo">
						<masterclipid>masterclip-2</masterclipid>
						<name>chandrika rocket equations</name>
						<start>25426</start>
						<end>25469</end>
						<in>42293</in>
						<out>42336</out>
						<file id="file-1" />
						<sourcetrack>
							<mediatype>audio</mediatype>
							<trackindex>1</trackindex>
						</sourcetrack>
						<labels>
							<label2>Iris</label2>
						</labels>
						<outputchannelindex>1</outputchannelindex>
					</clipitem>
					<clipitem id="clipitem-1368" premiereChannelType="stereo">
						<masterclipid>masterclip-2</masterclipid>
						<name>chandrika rocket equations</name>
						<start>25469</start>
						<end>25500</end>
						<in>42383</in>
						<out>42414</out>
						<file id="file-1" />
						<sourcetrack>
							<mediatype>audio</mediatype>
							<trackindex>1</trackindex>
						</sourcetrack>
						<labels>
							<label2>Iris</label2>
						</labels>
						<outputchannelindex>1</outputchannelindex>
					</clipitem>
					<clipitem id="clipitem-1369" premiereChannelType="stereo">
						<masterclipid>masterclip-2</masterclipid>
						<name>chandrika rocket equations</name>
						<start>25500</start>
						<end>25548</end>
						<in>42541</in>
						<out>42589</out>
						<file id="file-1" />
						<sourcetrack>
							<mediatype>audio</mediatype>
							<trackindex>1</trackindex>
						</sourcetrack>
						<labels>
							<label2>Iris</label2>
						</labels>
						<outputchannelindex>1</outputchannelindex>
					</clipitem>
					<clipitem id="clipitem-1370" premiereChannelType="stereo">
						<masterclipid>masterclip-2</masterclipid>
						<name>chandrika rocket equations</name>
						<start>25548</start>
						<end>25672</end>
						<in>42617</in>
						<out>42741</out>
						<file id="file-1" />
						<sourcetrack>
							<mediatype>audio</mediatype>
							<trackindex>1</trackindex>
						</sourcetrack>
						<labels>
							<label2>Iris</label2>
						</labels>
						<outputchannelindex>1</outputchannelindex>
					</clipitem>
					<clipitem id="clipitem-1371" premiereChannelType="stereo">
						<masterclipid>masterclip-2</masterclipid>
						<name>chandrika rocket equations</name>
						<start>25672</start>
						<end>25727</end>
						<in>42754</in>
						<out>42809</out>
						<file id="file-1" />
						<sourcetrack>
							<mediatype>audio</mediatype>
							<trackindex>1</trackindex>
						</sourcetrack>
						<labels>
							<label2>Iris</label2>
						</labels>
						<outputchannelindex>1</outputchannelindex>
					</clipitem>
					<clipitem id="clipitem-1372" premiereChannelType="stereo">
						<masterclipid>masterclip-2</masterclipid>
						<name>chandrika rocket equations</name>
						<start>25727</start>
						<end>25752</end>
						<in>42849</in>
						<out>42874</out>
						<file id="file-1" />
						<sourcetrack>
							<mediatype>audio</mediatype>
							<trackindex>1</trackindex>
						</sourcetrack>
						<labels>
							<label2>Iris</label2>
						</labels>
						<outputchannelindex>1</outputchannelindex>
					</clipitem>
					<clipitem id="clipitem-1373" premiereChannelType="stereo">
						<masterclipid>masterclip-2</masterclipid>
						<name>chandrika rocket equations</name>
						<start>25752</start>
						<end>25773</end>
						<in>42886</in>
						<out>42907</out>
						<file id="file-1" />
						<sourcetrack>
							<mediatype>audio</mediatype>
							<trackindex>1</trackindex>
						</sourcetrack>
						<labels>
							<label2>Iris</label2>
						</labels>
						<outputchannelindex>1</outputchannelindex>
					</clipitem>
					<clipitem id="clipitem-1374" premiereChannelType="stereo">
						<masterclipid>masterclip-2</masterclipid>
						<name>chandrika rocket equations</name>
						<start>25773</start>
						<end>25956</end>
						<in>42946</in>
						<out>43129</out>
						<file id="file-1" />
						<sourcetrack>
							<mediatype>audio</mediatype>
							<trackindex>1</trackindex>
						</sourcetrack>
						<labels>
							<label2>Iris</label2>
						</labels>
						<outputchannelindex>1</outputchannelindex>
					</clipitem>
					<clipitem id="clipitem-1375" premiereChannelType="stereo">
						<masterclipid>masterclip-2</masterclipid>
						<name>chandrika rocket equations</name>
						<start>25956</start>
						<end>25991</end>
						<in>43137</in>
						<out>43172</out>
						<file id="file-1" />
						<sourcetrack>
							<mediatype>audio</mediatype>
							<trackindex>1</trackindex>
						</sourcetrack>
						<labels>
							<label2>Iris</label2>
						</labels>
						<outputchannelindex>1</outputchannelindex>
					</clipitem>
					<clipitem id="clipitem-1376" premiereChannelType="stereo">
						<masterclipid>masterclip-2</masterclipid>
						<name>chandrika rocket equations</name>
						<start>25991</start>
						<end>26028</end>
						<in>43194</in>
						<out>43231</out>
						<file id="file-1" />
						<sourcetrack>
							<mediatype>audio</mediatype>
							<trackindex>1</trackindex>
						</sourcetrack>
						<labels>
							<label2>Iris</label2>
						</labels>
						<outputchannelindex>1</outputchannelindex>
					</clipitem>
					<clipitem id="clipitem-1377" premiereChannelType="stereo">
						<masterclipid>masterclip-2</masterclipid>
						<name>chandrika rocket equations</name>
						<start>26028</start>
						<end>26063</end>
						<in>43255</in>
						<out>43290</out>
						<file id="file-1" />
						<sourcetrack>
							<mediatype>audio</mediatype>
							<trackindex>1</trackindex>
						</sourcetrack>
						<labels>
							<label2>Iris</label2>
						</labels>
						<outputchannelindex>1</outputchannelindex>
					</clipitem>
					<clipitem id="clipitem-1378" premiereChannelType="stereo">
						<masterclipid>masterclip-2</masterclipid>
						<name>chandrika rocket equations</name>
						<start>26063</start>
						<end>26099</end>
						<in>43352</in>
						<out>43388</out>
						<file id="file-1" />
						<sourcetrack>
							<mediatype>audio</mediatype>
							<trackindex>1</trackindex>
						</sourcetrack>
						<labels>
							<label2>Iris</label2>
						</labels>
						<outputchannelindex>1</outputchannelindex>
					</clipitem>
					<clipitem id="clipitem-1379" premiereChannelType="stereo">
						<masterclipid>masterclip-2</masterclipid>
						<name>chandrika rocket equations</name>
						<start>26099</start>
						<end>26156</end>
						<in>43425</in>
						<out>43482</out>
						<file id="file-1" />
						<sourcetrack>
							<mediatype>audio</mediatype>
							<trackindex>1</trackindex>
						</sourcetrack>
						<labels>
							<label2>Iris</label2>
						</labels>
						<outputchannelindex>1</outputchannelindex>
					</clipitem>
					<clipitem id="clipitem-1380" premiereChannelType="stereo">
						<masterclipid>masterclip-2</masterclipid>
						<name>chandrika rocket equations</name>
						<start>26156</start>
						<end>26179</end>
						<in>43613</in>
						<out>43636</out>
						<file id="file-1" />
						<sourcetrack>
							<mediatype>audio</mediatype>
							<trackindex>1</trackindex>
						</sourcetrack>
						<labels>
							<label2>Iris</label2>
						</labels>
						<outputchannelindex>1</outputchannelindex>
					</clipitem>
					<clipitem id="clipitem-1381" premiereChannelType="stereo">
						<masterclipid>masterclip-2</masterclipid>
						<name>chandrika rocket equations</name>
						<start>26179</start>
						<end>26220</end>
						<in>43697</in>
						<out>43738</out>
						<file id="file-1" />
						<sourcetrack>
							<mediatype>audio</mediatype>
							<trackindex>1</trackindex>
						</sourcetrack>
						<labels>
							<label2>Iris</label2>
						</labels>
						<outputchannelindex>1</outputchannelindex>
					</clipitem>
					<clipitem id="clipitem-1382" premiereChannelType="stereo">
						<masterclipid>masterclip-2</masterclipid>
						<name>chandrika rocket equations</name>
						<start>26220</start>
						<end>26283</end>
						<in>43752</in>
						<out>43815</out>
						<file id="file-1" />
						<sourcetrack>
							<mediatype>audio</mediatype>
							<trackindex>1</trackindex>
						</sourcetrack>
						<labels>
							<label2>Iris</label2>
						</labels>
						<outputchannelindex>1</outputchannelindex>
					</clipitem>
					<clipitem id="clipitem-1383" premiereChannelType="stereo">
						<masterclipid>masterclip-2</masterclipid>
						<name>chandrika rocket equations</name>
						<start>26283</start>
						<end>26333</end>
						<in>43860</in>
						<out>43910</out>
						<file id="file-1" />
						<sourcetrack>
							<mediatype>audio</mediatype>
							<trackindex>1</trackindex>
						</sourcetrack>
						<labels>
							<label2>Iris</label2>
						</labels>
						<outputchannelindex>1</outputchannelindex>
					</clipitem>
					<clipitem id="clipitem-1384" premiereChannelType="stereo">
						<masterclipid>masterclip-2</masterclipid>
						<name>chandrika rocket equations</name>
						<start>26333</start>
						<end>26399</end>
						<in>44035</in>
						<out>44101</out>
						<file id="file-1" />
						<sourcetrack>
							<mediatype>audio</mediatype>
							<trackindex>1</trackindex>
						</sourcetrack>
						<labels>
							<label2>Iris</label2>
						</labels>
						<outputchannelindex>1</outputchannelindex>
					</clipitem>
					<clipitem id="clipitem-1385" premiereChannelType="stereo">
						<masterclipid>masterclip-2</masterclipid>
						<name>chandrika rocket equations</name>
						<start>26399</start>
						<end>26439</end>
						<in>44124</in>
						<out>44164</out>
						<file id="file-1" />
						<sourcetrack>
							<mediatype>audio</mediatype>
							<trackindex>1</trackindex>
						</sourcetrack>
						<labels>
							<label2>Iris</label2>
						</labels>
						<outputchannelindex>1</outputchannelindex>
					</clipitem>
					<clipitem id="clipitem-1386" premiereChannelType="stereo">
						<masterclipid>masterclip-2</masterclipid>
						<name>chandrika rocket equations</name>
						<start>26439</start>
						<end>26454</end>
						<in>44166</in>
						<out>44181</out>
						<file id="file-1" />
						<sourcetrack>
							<mediatype>audio</mediatype>
							<trackindex>1</trackindex>
						</sourcetrack>
						<labels>
							<label2>Iris</label2>
						</labels>
						<outputchannelindex>1</outputchannelindex>
					</clipitem>
					<clipitem id="clipitem-1387" premiereChannelType="stereo">
						<masterclipid>masterclip-2</masterclipid>
						<name>chandrika rocket equations</name>
						<start>26454</start>
						<end>26477</end>
						<in>44194</in>
						<out>44217</out>
						<file id="file-1" />
						<sourcetrack>
							<mediatype>audio</mediatype>
							<trackindex>1</trackindex>
						</sourcetrack>
						<labels>
							<label2>Iris</label2>
						</labels>
						<outputchannelindex>1</outputchannelindex>
					</clipitem>
					<clipitem id="clipitem-1388" premiereChannelType="stereo">
						<masterclipid>masterclip-2</masterclipid>
						<name>chandrika rocket equations</name>
						<start>26477</start>
						<end>26541</end>
						<in>44239</in>
						<out>44303</out>
						<file id="file-1" />
						<sourcetrack>
							<mediatype>audio</mediatype>
							<trackindex>1</trackindex>
						</sourcetrack>
						<labels>
							<label2>Iris</label2>
						</labels>
						<outputchannelindex>1</outputchannelindex>
					</clipitem>
					<clipitem id="clipitem-1389" premiereChannelType="stereo">
						<masterclipid>masterclip-2</masterclipid>
						<name>chandrika rocket equations</name>
						<start>26541</start>
						<end>26561</end>
						<in>44416</in>
						<out>44436</out>
						<file id="file-1" />
						<sourcetrack>
							<mediatype>audio</mediatype>
							<trackindex>1</trackindex>
						</sourcetrack>
						<labels>
							<label2>Iris</label2>
						</labels>
						<outputchannelindex>1</outputchannelindex>
					</clipitem>
					<clipitem id="clipitem-1390" premiereChannelType="stereo">
						<masterclipid>masterclip-2</masterclipid>
						<name>chandrika rocket equations</name>
						<start>26561</start>
						<end>26580</end>
						<in>44442</in>
						<out>44461</out>
						<file id="file-1" />
						<sourcetrack>
							<mediatype>audio</mediatype>
							<trackindex>1</trackindex>
						</sourcetrack>
						<labels>
							<label2>Iris</label2>
						</labels>
						<outputchannelindex>1</outputchannelindex>
					</clipitem>
					<clipitem id="clipitem-1391" premiereChannelType="stereo">
						<masterclipid>masterclip-2</masterclipid>
						<name>chandrika rocket equations</name>
						<start>26580</start>
						<end>26632</end>
						<in>44544</in>
						<out>44596</out>
						<file id="file-1" />
						<sourcetrack>
							<mediatype>audio</mediatype>
							<trackindex>1</trackindex>
						</sourcetrack>
						<labels>
							<label2>Iris</label2>
						</labels>
						<outputchannelindex>1</outputchannelindex>
					</clipitem>
					<clipitem id="clipitem-1392" premiereChannelType="stereo">
						<masterclipid>masterclip-2</masterclipid>
						<name>chandrika rocket equations</name>
						<start>26632</start>
						<end>26724</end>
						<in>44619</in>
						<out>44711</out>
						<file id="file-1" />
						<sourcetrack>
							<mediatype>audio</mediatype>
							<trackindex>1</trackindex>
						</sourcetrack>
						<labels>
							<label2>Iris</label2>
						</labels>
						<outputchannelindex>1</outputchannelindex>
					</clipitem>
					<clipitem id="clipitem-1393" premiereChannelType="stereo">
						<masterclipid>masterclip-2</masterclipid>
						<name>chandrika rocket equations</name>
						<start>26724</start>
						<end>26764</end>
						<in>44730</in>
						<out>44770</out>
						<file id="file-1" />
						<sourcetrack>
							<mediatype>audio</mediatype>
							<trackindex>1</trackindex>
						</sourcetrack>
						<labels>
							<label2>Iris</label2>
						</labels>
						<outputchannelindex>1</outputchannelindex>
					</clipitem>
					<clipitem id="clipitem-1394" premiereChannelType="stereo">
						<masterclipid>masterclip-2</masterclipid>
						<name>chandrika rocket equations</name>
						<start>26764</start>
						<end>26780</end>
						<in>44792</in>
						<out>44808</out>
						<file id="file-1" />
						<sourcetrack>
							<mediatype>audio</mediatype>
							<trackindex>1</trackindex>
						</sourcetrack>
						<labels>
							<label2>Iris</label2>
						</labels>
						<outputchannelindex>1</outputchannelindex>
					</clipitem>
					<clipitem id="clipitem-1395" premiereChannelType="stereo">
						<masterclipid>masterclip-2</masterclipid>
						<name>chandrika rocket equations</name>
						<start>26780</start>
						<end>26865</end>
						<in>44827</in>
						<out>44912</out>
						<file id="file-1" />
						<sourcetrack>
							<mediatype>audio</mediatype>
							<trackindex>1</trackindex>
						</sourcetrack>
						<labels>
							<label2>Iris</label2>
						</labels>
						<outputchannelindex>1</outputchannelindex>
					</clipitem>
					<clipitem id="clipitem-1396" premiereChannelType="stereo">
						<masterclipid>masterclip-2</masterclipid>
						<name>chandrika rocket equations</name>
						<start>26865</start>
						<end>26983</end>
						<in>44921</in>
						<out>45039</out>
						<file id="file-1" />
						<sourcetrack>
							<mediatype>audio</mediatype>
							<trackindex>1</trackindex>
						</sourcetrack>
						<labels>
							<label2>Iris</label2>
						</labels>
						<outputchannelindex>1</outputchannelindex>
					</clipitem>
					<clipitem id="clipitem-1397" premiereChannelType="stereo">
						<masterclipid>masterclip-2</masterclipid>
						<name>chandrika rocket equations</name>
						<start>26983</start>
						<end>27013</end>
						<in>45044</in>
						<out>45074</out>
						<file id="file-1" />
						<sourcetrack>
							<mediatype>audio</mediatype>
							<trackindex>1</trackindex>
						</sourcetrack>
						<labels>
							<label2>Iris</label2>
						</labels>
						<outputchannelindex>1</outputchannelindex>
					</clipitem>
					<clipitem id="clipitem-1398" premiereChannelType="stereo">
						<masterclipid>masterclip-2</masterclipid>
						<name>chandrika rocket equations</name>
						<start>27013</start>
						<end>27035</end>
						<in>45084</in>
						<out>45106</out>
						<file id="file-1" />
						<sourcetrack>
							<mediatype>audio</mediatype>
							<trackindex>1</trackindex>
						</sourcetrack>
						<labels>
							<label2>Iris</label2>
						</labels>
						<outputchannelindex>1</outputchannelindex>
					</clipitem>
					<clipitem id="clipitem-1399" premiereChannelType="stereo">
						<masterclipid>masterclip-2</masterclipid>
						<name>chandrika rocket equations</name>
						<start>27035</start>
						<end>27069</end>
						<in>45113</in>
						<out>45147</out>
						<file id="file-1" />
						<sourcetrack>
							<mediatype>audio</mediatype>
							<trackindex>1</trackindex>
						</sourcetrack>
						<labels>
							<label2>Iris</label2>
						</labels>
						<outputchannelindex>1</outputchannelindex>
					</clipitem>
					<clipitem id="clipitem-1400" premiereChannelType="stereo">
						<masterclipid>masterclip-2</masterclipid>
						<name>chandrika rocket equations</name>
						<start>27069</start>
						<end>27086</end>
						<in>45175</in>
						<out>45192</out>
						<file id="file-1" />
						<sourcetrack>
							<mediatype>audio</mediatype>
							<trackindex>1</trackindex>
						</sourcetrack>
						<labels>
							<label2>Iris</label2>
						</labels>
						<outputchannelindex>1</outputchannelindex>
					</clipitem>
					<clipitem id="clipitem-1401" premiereChannelType="stereo">
						<masterclipid>masterclip-2</masterclipid>
						<name>chandrika rocket equations</name>
						<start>27086</start>
						<end>27122</end>
						<in>45208</in>
						<out>45244</out>
						<file id="file-1" />
						<sourcetrack>
							<mediatype>audio</mediatype>
							<trackindex>1</trackindex>
						</sourcetrack>
						<labels>
							<label2>Iris</label2>
						</labels>
						<outputchannelindex>1</outputchannelindex>
					</clipitem>
					<clipitem id="clipitem-1402" premiereChannelType="stereo">
						<masterclipid>masterclip-2</masterclipid>
						<name>chandrika rocket equations</name>
						<start>27122</start>
						<end>27159</end>
						<in>45248</in>
						<out>45285</out>
						<file id="file-1" />
						<sourcetrack>
							<mediatype>audio</mediatype>
							<trackindex>1</trackindex>
						</sourcetrack>
						<labels>
							<label2>Iris</label2>
						</labels>
						<outputchannelindex>1</outputchannelindex>
					</clipitem>
					<clipitem id="clipitem-1403" premiereChannelType="stereo">
						<masterclipid>masterclip-2</masterclipid>
						<name>chandrika rocket equations</name>
						<start>27159</start>
						<end>27255</end>
						<in>45328</in>
						<out>45424</out>
						<file id="file-1" />
						<sourcetrack>
							<mediatype>audio</mediatype>
							<trackindex>1</trackindex>
						</sourcetrack>
						<labels>
							<label2>Iris</label2>
						</labels>
						<outputchannelindex>1</outputchannelindex>
					</clipitem>
					<clipitem id="clipitem-1404" premiereChannelType="stereo">
						<masterclipid>masterclip-2</masterclipid>
						<name>chandrika rocket equations</name>
						<start>27255</start>
						<end>27296</end>
						<in>45434</in>
						<out>45475</out>
						<file id="file-1" />
						<sourcetrack>
							<mediatype>audio</mediatype>
							<trackindex>1</trackindex>
						</sourcetrack>
						<labels>
							<label2>Iris</label2>
						</labels>
						<outputchannelindex>1</outputchannelindex>
					</clipitem>
					<clipitem id="clipitem-1405" premiereChannelType="stereo">
						<masterclipid>masterclip-2</masterclipid>
						<name>chandrika rocket equations</name>
						<start>27296</start>
						<end>27338</end>
						<in>45514</in>
						<out>45556</out>
						<file id="file-1" />
						<sourcetrack>
							<mediatype>audio</mediatype>
							<trackindex>1</trackindex>
						</sourcetrack>
						<labels>
							<label2>Iris</label2>
						</labels>
						<outputchannelindex>1</outputchannelindex>
					</clipitem>
					<clipitem id="clipitem-1406" premiereChannelType="stereo">
						<masterclipid>masterclip-2</masterclipid>
						<name>chandrika rocket equations</name>
						<start>27338</start>
						<end>27361</end>
						<in>45605</in>
						<out>45628</out>
						<file id="file-1" />
						<sourcetrack>
							<mediatype>audio</mediatype>
							<trackindex>1</trackindex>
						</sourcetrack>
						<labels>
							<label2>Iris</label2>
						</labels>
						<outputchannelindex>1</outputchannelindex>
					</clipitem>
					<clipitem id="clipitem-1407" premiereChannelType="stereo">
						<masterclipid>masterclip-2</masterclipid>
						<name>chandrika rocket equations</name>
						<start>27361</start>
						<end>27549</end>
						<in>45631</in>
						<out>45819</out>
						<file id="file-1" />
						<sourcetrack>
							<mediatype>audio</mediatype>
							<trackindex>1</trackindex>
						</sourcetrack>
						<labels>
							<label2>Iris</label2>
						</labels>
						<outputchannelindex>1</outputchannelindex>
					</clipitem>
					<clipitem id="clipitem-1408" premiereChannelType="stereo">
						<masterclipid>masterclip-2</masterclipid>
						<name>chandrika rocket equations</name>
						<start>27549</start>
						<end>27599</end>
						<in>45834</in>
						<out>45884</out>
						<file id="file-1" />
						<sourcetrack>
							<mediatype>audio</mediatype>
							<trackindex>1</trackindex>
						</sourcetrack>
						<labels>
							<label2>Iris</label2>
						</labels>
						<outputchannelindex>1</outputchannelindex>
					</clipitem>
					<clipitem id="clipitem-1409" premiereChannelType="stereo">
						<masterclipid>masterclip-2</masterclipid>
						<name>chandrika rocket equations</name>
						<start>27599</start>
						<end>27629</end>
						<in>45890</in>
						<out>45920</out>
						<file id="file-1" />
						<sourcetrack>
							<mediatype>audio</mediatype>
							<trackindex>1</trackindex>
						</sourcetrack>
						<labels>
							<label2>Iris</label2>
						</labels>
						<outputchannelindex>1</outputchannelindex>
					</clipitem>
					<clipitem id="clipitem-1410" premiereChannelType="stereo">
						<masterclipid>masterclip-2</masterclipid>
						<name>chandrika rocket equations</name>
						<start>27629</start>
						<end>27680</end>
						<in>45929</in>
						<out>45980</out>
						<file id="file-1" />
						<sourcetrack>
							<mediatype>audio</mediatype>
							<trackindex>1</trackindex>
						</sourcetrack>
						<labels>
							<label2>Iris</label2>
						</labels>
						<outputchannelindex>1</outputchannelindex>
					</clipitem>
					<clipitem id="clipitem-1411" premiereChannelType="stereo">
						<masterclipid>masterclip-2</masterclipid>
						<name>chandrika rocket equations</name>
						<start>27680</start>
						<end>27695</end>
						<in>45993</in>
						<out>46008</out>
						<file id="file-1" />
						<sourcetrack>
							<mediatype>audio</mediatype>
							<trackindex>1</trackindex>
						</sourcetrack>
						<labels>
							<label2>Iris</label2>
						</labels>
						<outputchannelindex>1</outputchannelindex>
					</clipitem>
					<clipitem id="clipitem-1412" premiereChannelType="stereo">
						<masterclipid>masterclip-2</masterclipid>
						<name>chandrika rocket equations</name>
						<start>27695</start>
						<end>27711</end>
						<in>46032</in>
						<out>46048</out>
						<file id="file-1" />
						<sourcetrack>
							<mediatype>audio</mediatype>
							<trackindex>1</trackindex>
						</sourcetrack>
						<labels>
							<label2>Iris</label2>
						</labels>
						<outputchannelindex>1</outputchannelindex>
					</clipitem>
					<clipitem id="clipitem-1413" premiereChannelType="stereo">
						<masterclipid>masterclip-2</masterclipid>
						<name>chandrika rocket equations</name>
						<start>27711</start>
						<end>27727</end>
						<in>46055</in>
						<out>46071</out>
						<file id="file-1" />
						<sourcetrack>
							<mediatype>audio</mediatype>
							<trackindex>1</trackindex>
						</sourcetrack>
						<labels>
							<label2>Iris</label2>
						</labels>
						<outputchannelindex>1</outputchannelindex>
					</clipitem>
					<clipitem id="clipitem-1414" premiereChannelType="stereo">
						<masterclipid>masterclip-2</masterclipid>
						<name>chandrika rocket equations</name>
						<start>27727</start>
						<end>27783</end>
						<in>46098</in>
						<out>46154</out>
						<file id="file-1" />
						<sourcetrack>
							<mediatype>audio</mediatype>
							<trackindex>1</trackindex>
						</sourcetrack>
						<labels>
							<label2>Iris</label2>
						</labels>
						<outputchannelindex>1</outputchannelindex>
					</clipitem>
					<clipitem id="clipitem-1415" premiereChannelType="stereo">
						<masterclipid>masterclip-2</masterclipid>
						<name>chandrika rocket equations</name>
						<start>27783</start>
						<end>27839</end>
						<in>46159</in>
						<out>46215</out>
						<file id="file-1" />
						<sourcetrack>
							<mediatype>audio</mediatype>
							<trackindex>1</trackindex>
						</sourcetrack>
						<labels>
							<label2>Iris</label2>
						</labels>
						<outputchannelindex>1</outputchannelindex>
					</clipitem>
					<clipitem id="clipitem-1416" premiereChannelType="stereo">
						<masterclipid>masterclip-2</masterclipid>
						<name>chandrika rocket equations</name>
						<start>27839</start>
						<end>27854</end>
						<in>46230</in>
						<out>46245</out>
						<file id="file-1" />
						<sourcetrack>
							<mediatype>audio</mediatype>
							<trackindex>1</trackindex>
						</sourcetrack>
						<labels>
							<label2>Iris</label2>
						</labels>
						<outputchannelindex>1</outputchannelindex>
					</clipitem>
					<clipitem id="clipitem-1417" premiereChannelType="stereo">
						<masterclipid>masterclip-2</masterclipid>
						<name>chandrika rocket equations</name>
						<start>27854</start>
						<end>27908</end>
						<in>46279</in>
						<out>46333</out>
						<file id="file-1" />
						<sourcetrack>
							<mediatype>audio</mediatype>
							<trackindex>1</trackindex>
						</sourcetrack>
						<labels>
							<label2>Iris</label2>
						</labels>
						<outputchannelindex>1</outputchannelindex>
					</clipitem>
					<clipitem id="clipitem-1418" premiereChannelType="stereo">
						<masterclipid>masterclip-2</masterclipid>
						<name>chandrika rocket equations</name>
						<start>27908</start>
						<end>28069</end>
						<in>46387</in>
						<out>46548</out>
						<file id="file-1" />
						<sourcetrack>
							<mediatype>audio</mediatype>
							<trackindex>1</trackindex>
						</sourcetrack>
						<labels>
							<label2>Iris</label2>
						</labels>
						<outputchannelindex>1</outputchannelindex>
					</clipitem>
					<clipitem id="clipitem-1419" premiereChannelType="stereo">
						<masterclipid>masterclip-2</masterclipid>
						<name>chandrika rocket equations</name>
						<start>28069</start>
						<end>28085</end>
						<in>46564</in>
						<out>46580</out>
						<file id="file-1" />
						<sourcetrack>
							<mediatype>audio</mediatype>
							<trackindex>1</trackindex>
						</sourcetrack>
						<labels>
							<label2>Iris</label2>
						</labels>
						<outputchannelindex>1</outputchannelindex>
					</clipitem>
					<clipitem id="clipitem-1420" premiereChannelType="stereo">
						<masterclipid>masterclip-2</masterclipid>
						<name>chandrika rocket equations</name>
						<start>28085</start>
						<end>28117</end>
						<in>46583</in>
						<out>46615</out>
						<file id="file-1" />
						<sourcetrack>
							<mediatype>audio</mediatype>
							<trackindex>1</trackindex>
						</sourcetrack>
						<labels>
							<label2>Iris</label2>
						</labels>
						<outputchannelindex>1</outputchannelindex>
					</clipitem>
					<clipitem id="clipitem-1421" premiereChannelType="stereo">
						<masterclipid>masterclip-2</masterclipid>
						<name>chandrika rocket equations</name>
						<start>28117</start>
						<end>28211</end>
						<in>46663</in>
						<out>46757</out>
						<file id="file-1" />
						<sourcetrack>
							<mediatype>audio</mediatype>
							<trackindex>1</trackindex>
						</sourcetrack>
						<labels>
							<label2>Iris</label2>
						</labels>
						<outputchannelindex>1</outputchannelindex>
					</clipitem>
					<clipitem id="clipitem-1422" premiereChannelType="stereo">
						<masterclipid>masterclip-2</masterclipid>
						<name>chandrika rocket equations</name>
						<start>28211</start>
						<end>28229</end>
						<in>46767</in>
						<out>46785</out>
						<file id="file-1" />
						<sourcetrack>
							<mediatype>audio</mediatype>
							<trackindex>1</trackindex>
						</sourcetrack>
						<labels>
							<label2>Iris</label2>
						</labels>
						<outputchannelindex>1</outputchannelindex>
					</clipitem>
					<clipitem id="clipitem-1423" premiereChannelType="stereo">
						<masterclipid>masterclip-2</masterclipid>
						<name>chandrika rocket equations</name>
						<start>28229</start>
						<end>28305</end>
						<in>46788</in>
						<out>46864</out>
						<file id="file-1" />
						<sourcetrack>
							<mediatype>audio</mediatype>
							<trackindex>1</trackindex>
						</sourcetrack>
						<labels>
							<label2>Iris</label2>
						</labels>
						<outputchannelindex>1</outputchannelindex>
					</clipitem>
					<clipitem id="clipitem-1424" premiereChannelType="stereo">
						<masterclipid>masterclip-2</masterclipid>
						<name>chandrika rocket equations</name>
						<start>28305</start>
						<end>28364</end>
						<in>46868</in>
						<out>46927</out>
						<file id="file-1" />
						<sourcetrack>
							<mediatype>audio</mediatype>
							<trackindex>1</trackindex>
						</sourcetrack>
						<labels>
							<label2>Iris</label2>
						</labels>
						<outputchannelindex>1</outputchannelindex>
					</clipitem>
					<clipitem id="clipitem-1425" premiereChannelType="stereo">
						<masterclipid>masterclip-2</masterclipid>
						<name>chandrika rocket equations</name>
						<start>28364</start>
						<end>28406</end>
						<in>46937</in>
						<out>46979</out>
						<file id="file-1" />
						<sourcetrack>
							<mediatype>audio</mediatype>
							<trackindex>1</trackindex>
						</sourcetrack>
						<labels>
							<label2>Iris</label2>
						</labels>
						<outputchannelindex>1</outputchannelindex>
					</clipitem>
					<clipitem id="clipitem-1426" premiereChannelType="stereo">
						<masterclipid>masterclip-2</masterclipid>
						<name>chandrika rocket equations</name>
						<start>28406</start>
						<end>28519</end>
						<in>46993</in>
						<out>47106</out>
						<file id="file-1" />
						<sourcetrack>
							<mediatype>audio</mediatype>
							<trackindex>1</trackindex>
						</sourcetrack>
						<labels>
							<label2>Iris</label2>
						</labels>
						<outputchannelindex>1</outputchannelindex>
					</clipitem>
					<clipitem id="clipitem-1427" premiereChannelType="stereo">
						<masterclipid>masterclip-2</masterclipid>
						<name>chandrika rocket equations</name>
						<start>28519</start>
						<end>28584</end>
						<in>47113</in>
						<out>47178</out>
						<file id="file-1" />
						<sourcetrack>
							<mediatype>audio</mediatype>
							<trackindex>1</trackindex>
						</sourcetrack>
						<labels>
							<label2>Iris</label2>
						</labels>
						<outputchannelindex>1</outputchannelindex>
					</clipitem>
					<clipitem id="clipitem-1428" premiereChannelType="stereo">
						<masterclipid>masterclip-2</masterclipid>
						<name>chandrika rocket equations</name>
						<start>28584</start>
						<end>28622</end>
						<in>47268</in>
						<out>47306</out>
						<file id="file-1" />
						<sourcetrack>
							<mediatype>audio</mediatype>
							<trackindex>1</trackindex>
						</sourcetrack>
						<labels>
							<label2>Iris</label2>
						</labels>
						<outputchannelindex>1</outputchannelindex>
					</clipitem>
					<clipitem id="clipitem-1429" premiereChannelType="stereo">
						<masterclipid>masterclip-2</masterclipid>
						<name>chandrika rocket equations</name>
						<start>28622</start>
						<end>28640</end>
						<in>47333</in>
						<out>47351</out>
						<file id="file-1" />
						<sourcetrack>
							<mediatype>audio</mediatype>
							<trackindex>1</trackindex>
						</sourcetrack>
						<labels>
							<label2>Iris</label2>
						</labels>
						<outputchannelindex>1</outputchannelindex>
					</clipitem>
					<clipitem id="clipitem-1430" premiereChannelType="stereo">
						<masterclipid>masterclip-2</masterclipid>
						<name>chandrika rocket equations</name>
						<start>28640</start>
						<end>28663</end>
						<in>47481</in>
						<out>47504</out>
						<file id="file-1" />
						<sourcetrack>
							<mediatype>audio</mediatype>
							<trackindex>1</trackindex>
						</sourcetrack>
						<labels>
							<label2>Iris</label2>
						</labels>
						<outputchannelindex>1</outputchannelindex>
					</clipitem>
					<clipitem id="clipitem-1431" premiereChannelType="stereo">
						<masterclipid>masterclip-2</masterclipid>
						<name>chandrika rocket equations</name>
						<start>28663</start>
						<end>28704</end>
						<in>47606</in>
						<out>47647</out>
						<file id="file-1" />
						<sourcetrack>
							<mediatype>audio</mediatype>
							<trackindex>1</trackindex>
						</sourcetrack>
						<labels>
							<label2>Iris</label2>
						</labels>
						<outputchannelindex>1</outputchannelindex>
					</clipitem>
					<clipitem id="clipitem-1432" premiereChannelType="stereo">
						<masterclipid>masterclip-2</masterclipid>
						<name>chandrika rocket equations</name>
						<start>28704</start>
						<end>28764</end>
						<in>47666</in>
						<out>47726</out>
						<file id="file-1" />
						<sourcetrack>
							<mediatype>audio</mediatype>
							<trackindex>1</trackindex>
						</sourcetrack>
						<labels>
							<label2>Iris</label2>
						</labels>
						<outputchannelindex>1</outputchannelindex>
					</clipitem>
					<clipitem id="clipitem-1433" premiereChannelType="stereo">
						<masterclipid>masterclip-2</masterclipid>
						<name>chandrika rocket equations</name>
						<start>28764</start>
						<end>28783</end>
						<in>47813</in>
						<out>47832</out>
						<file id="file-1" />
						<sourcetrack>
							<mediatype>audio</mediatype>
							<trackindex>1</trackindex>
						</sourcetrack>
						<labels>
							<label2>Iris</label2>
						</labels>
						<outputchannelindex>1</outputchannelindex>
					</clipitem>
					<clipitem id="clipitem-1434" premiereChannelType="stereo">
						<masterclipid>masterclip-2</masterclipid>
						<name>chandrika rocket equations</name>
						<start>28783</start>
						<end>28867</end>
						<in>47902</in>
						<out>47986</out>
						<file id="file-1" />
						<sourcetrack>
							<mediatype>audio</mediatype>
							<trackindex>1</trackindex>
						</sourcetrack>
						<labels>
							<label2>Iris</label2>
						</labels>
						<outputchannelindex>1</outputchannelindex>
					</clipitem>
					<clipitem id="clipitem-1435" premiereChannelType="stereo">
						<masterclipid>masterclip-2</masterclipid>
						<name>chandrika rocket equations</name>
						<start>28867</start>
						<end>28887</end>
						<in>48461</in>
						<out>48481</out>
						<file id="file-1" />
						<sourcetrack>
							<mediatype>audio</mediatype>
							<trackindex>1</trackindex>
						</sourcetrack>
						<labels>
							<label2>Iris</label2>
						</labels>
						<outputchannelindex>1</outputchannelindex>
					</clipitem>
					<clipitem id="clipitem-1436" premiereChannelType="stereo">
						<masterclipid>masterclip-2</masterclipid>
						<name>chandrika rocket equations</name>
						<start>28887</start>
						<end>28910</end>
						<in>48499</in>
						<out>48522</out>
						<file id="file-1" />
						<sourcetrack>
							<mediatype>audio</mediatype>
							<trackindex>1</trackindex>
						</sourcetrack>
						<labels>
							<label2>Iris</label2>
						</labels>
						<outputchannelindex>1</outputchannelindex>
					</clipitem>
					<clipitem id="clipitem-1437" premiereChannelType="stereo">
						<masterclipid>masterclip-2</masterclipid>
						<name>chandrika rocket equations</name>
						<start>28910</start>
						<end>29041</end>
						<in>49059</in>
						<out>49190</out>
						<file id="file-1" />
						<sourcetrack>
							<mediatype>audio</mediatype>
							<trackindex>1</trackindex>
						</sourcetrack>
						<labels>
							<label2>Iris</label2>
						</labels>
						<outputchannelindex>1</outputchannelindex>
					</clipitem>
					<clipitem id="clipitem-1438" premiereChannelType="stereo">
						<masterclipid>masterclip-2</masterclipid>
						<name>chandrika rocket equations</name>
						<start>29041</start>
						<end>29095</end>
						<in>49237</in>
						<out>49291</out>
						<file id="file-1" />
						<sourcetrack>
							<mediatype>audio</mediatype>
							<trackindex>1</trackindex>
						</sourcetrack>
						<labels>
							<label2>Iris</label2>
						</labels>
						<outputchannelindex>1</outputchannelindex>
					</clipitem>
					<clipitem id="clipitem-1439" premiereChannelType="stereo">
						<masterclipid>masterclip-2</masterclipid>
						<name>chandrika rocket equations</name>
						<start>29095</start>
						<end>29135</end>
						<in>49383</in>
						<out>49423</out>
						<file id="file-1" />
						<sourcetrack>
							<mediatype>audio</mediatype>
							<trackindex>1</trackindex>
						</sourcetrack>
						<labels>
							<label2>Iris</label2>
						</labels>
						<outputchannelindex>1</outputchannelindex>
					</clipitem>
					<clipitem id="clipitem-1440" premiereChannelType="stereo">
						<masterclipid>masterclip-2</masterclipid>
						<name>chandrika rocket equations</name>
						<start>29135</start>
						<end>29193</end>
						<in>50318</in>
						<out>50376</out>
						<file id="file-1" />
						<sourcetrack>
							<mediatype>audio</mediatype>
							<trackindex>1</trackindex>
						</sourcetrack>
						<labels>
							<label2>Iris</label2>
						</labels>
						<outputchannelindex>1</outputchannelindex>
					</clipitem>
					<clipitem id="clipitem-1441" premiereChannelType="stereo">
						<masterclipid>masterclip-2</masterclipid>
						<name>chandrika rocket equations</name>
						<start>29193</start>
						<end>29236</end>
						<in>50388</in>
						<out>50431</out>
						<file id="file-1" />
						<sourcetrack>
							<mediatype>audio</mediatype>
							<trackindex>1</trackindex>
						</sourcetrack>
						<labels>
							<label2>Iris</label2>
						</labels>
						<outputchannelindex>1</outputchannelindex>
					</clipitem>
					<clipitem id="clipitem-1442" premiereChannelType="stereo">
						<masterclipid>masterclip-2</masterclipid>
						<name>chandrika rocket equations</name>
						<start>29236</start>
						<end>29257</end>
						<in>50779</in>
						<out>50800</out>
						<file id="file-1" />
						<sourcetrack>
							<mediatype>audio</mediatype>
							<trackindex>1</trackindex>
						</sourcetrack>
						<labels>
							<label2>Iris</label2>
						</labels>
						<outputchannelindex>1</outputchannelindex>
					</clipitem>
					<clipitem id="clipitem-1443" premiereChannelType="stereo">
						<masterclipid>masterclip-2</masterclipid>
						<name>chandrika rocket equations</name>
						<start>29257</start>
						<end>29325</end>
						<in>50806</in>
						<out>50874</out>
						<file id="file-1" />
						<sourcetrack>
							<mediatype>audio</mediatype>
							<trackindex>1</trackindex>
						</sourcetrack>
						<labels>
							<label2>Iris</label2>
						</labels>
						<outputchannelindex>1</outputchannelindex>
					</clipitem>
					<clipitem id="clipitem-1444" premiereChannelType="stereo">
						<masterclipid>masterclip-2</masterclipid>
						<name>chandrika rocket equations</name>
						<start>29325</start>
						<end>29405</end>
						<in>51193</in>
						<out>51273</out>
						<file id="file-1" />
						<sourcetrack>
							<mediatype>audio</mediatype>
							<trackindex>1</trackindex>
						</sourcetrack>
						<labels>
							<label2>Iris</label2>
						</labels>
						<outputchannelindex>1</outputchannelindex>
					</clipitem>
					<clipitem id="clipitem-1445" premiereChannelType="stereo">
						<masterclipid>masterclip-2</masterclipid>
						<name>chandrika rocket equations</name>
						<start>29405</start>
						<end>29436</end>
						<in>51286</in>
						<out>51317</out>
						<file id="file-1" />
						<sourcetrack>
							<mediatype>audio</mediatype>
							<trackindex>1</trackindex>
						</sourcetrack>
						<labels>
							<label2>Iris</label2>
						</labels>
						<outputchannelindex>1</outputchannelindex>
					</clipitem>
					<clipitem id="clipitem-1446" premiereChannelType="stereo">
						<masterclipid>masterclip-2</masterclipid>
						<name>chandrika rocket equations</name>
						<start>29436</start>
						<end>29457</end>
						<in>51321</in>
						<out>51342</out>
						<file id="file-1" />
						<sourcetrack>
							<mediatype>audio</mediatype>
							<trackindex>1</trackindex>
						</sourcetrack>
						<labels>
							<label2>Iris</label2>
						</labels>
						<outputchannelindex>1</outputchannelindex>
					</clipitem>
					<clipitem id="clipitem-1447" premiereChannelType="stereo">
						<masterclipid>masterclip-2</masterclipid>
						<name>chandrika rocket equations</name>
						<start>29457</start>
						<end>29472</end>
						<in>51344</in>
						<out>51359</out>
						<file id="file-1" />
						<sourcetrack>
							<mediatype>audio</mediatype>
							<trackindex>1</trackindex>
						</sourcetrack>
						<labels>
							<label2>Iris</label2>
						</labels>
						<outputchannelindex>1</outputchannelindex>
					</clipitem>
					<clipitem id="clipitem-1448" premiereChannelType="stereo">
						<masterclipid>masterclip-2</masterclipid>
						<name>chandrika rocket equations</name>
						<start>29472</start>
						<end>29490</end>
						<in>51384</in>
						<out>51402</out>
						<file id="file-1" />
						<sourcetrack>
							<mediatype>audio</mediatype>
							<trackindex>1</trackindex>
						</sourcetrack>
						<labels>
							<label2>Iris</label2>
						</labels>
						<outputchannelindex>1</outputchannelindex>
					</clipitem>
					<clipitem id="clipitem-1449" premiereChannelType="stereo">
						<masterclipid>masterclip-2</masterclipid>
						<name>chandrika rocket equations</name>
						<start>29490</start>
						<end>29545</end>
						<in>51407</in>
						<out>51462</out>
						<file id="file-1" />
						<sourcetrack>
							<mediatype>audio</mediatype>
							<trackindex>1</trackindex>
						</sourcetrack>
						<labels>
							<label2>Iris</label2>
						</labels>
						<outputchannelindex>1</outputchannelindex>
					</clipitem>
					<clipitem id="clipitem-1450" premiereChannelType="stereo">
						<masterclipid>masterclip-2</masterclipid>
						<name>chandrika rocket equations</name>
						<start>29545</start>
						<end>29599</end>
						<in>51562</in>
						<out>51616</out>
						<file id="file-1" />
						<sourcetrack>
							<mediatype>audio</mediatype>
							<trackindex>1</trackindex>
						</sourcetrack>
						<labels>
							<label2>Iris</label2>
						</labels>
						<outputchannelindex>1</outputchannelindex>
					</clipitem>
					<clipitem id="clipitem-1451" premiereChannelType="stereo">
						<masterclipid>masterclip-2</masterclipid>
						<name>chandrika rocket equations</name>
						<start>29599</start>
						<end>29675</end>
						<in>51680</in>
						<out>51756</out>
						<file id="file-1" />
						<sourcetrack>
							<mediatype>audio</mediatype>
							<trackindex>1</trackindex>
						</sourcetrack>
						<labels>
							<label2>Iris</label2>
						</labels>
						<outputchannelindex>1</outputchannelindex>
					</clipitem>
					<clipitem id="clipitem-1452" premiereChannelType="stereo">
						<masterclipid>masterclip-2</masterclipid>
						<name>chandrika rocket equations</name>
						<start>29675</start>
						<end>29692</end>
						<in>51826</in>
						<out>51843</out>
						<file id="file-1" />
						<sourcetrack>
							<mediatype>audio</mediatype>
							<trackindex>1</trackindex>
						</sourcetrack>
						<labels>
							<label2>Iris</label2>
						</labels>
						<outputchannelindex>1</outputchannelindex>
					</clipitem>
					<clipitem id="clipitem-1453" premiereChannelType="stereo">
						<masterclipid>masterclip-2</masterclipid>
						<name>chandrika rocket equations</name>
						<start>29692</start>
						<end>29736</end>
						<in>51947</in>
						<out>51991</out>
						<file id="file-1" />
						<sourcetrack>
							<mediatype>audio</mediatype>
							<trackindex>1</trackindex>
						</sourcetrack>
						<labels>
							<label2>Iris</label2>
						</labels>
						<outputchannelindex>1</outputchannelindex>
					</clipitem>
					<clipitem id="clipitem-1454" premiereChannelType="stereo">
						<masterclipid>masterclip-2</masterclipid>
						<name>chandrika rocket equations</name>
						<start>29736</start>
						<end>29759</end>
						<in>52133</in>
						<out>52156</out>
						<file id="file-1" />
						<sourcetrack>
							<mediatype>audio</mediatype>
							<trackindex>1</trackindex>
						</sourcetrack>
						<labels>
							<label2>Iris</label2>
						</labels>
						<outputchannelindex>1</outputchannelindex>
					</clipitem>
					<clipitem id="clipitem-1455" premiereChannelType="stereo">
						<masterclipid>masterclip-2</masterclipid>
						<name>chandrika rocket equations</name>
						<start>29759</start>
						<end>29806</end>
						<in>52246</in>
						<out>52293</out>
						<file id="file-1" />
						<sourcetrack>
							<mediatype>audio</mediatype>
							<trackindex>1</trackindex>
						</sourcetrack>
						<labels>
							<label2>Iris</label2>
						</labels>
						<outputchannelindex>1</outputchannelindex>
					</clipitem>
					<clipitem id="clipitem-1456" premiereChannelType="stereo">
						<masterclipid>masterclip-2</masterclipid>
						<name>chandrika rocket equations</name>
						<start>29806</start>
						<end>29856</end>
						<in>52384</in>
						<out>52434</out>
						<file id="file-1" />
						<sourcetrack>
							<mediatype>audio</mediatype>
							<trackindex>1</trackindex>
						</sourcetrack>
						<labels>
							<label2>Iris</label2>
						</labels>
						<outputchannelindex>1</outputchannelindex>
					</clipitem>
					<clipitem id="clipitem-1457" premiereChannelType="stereo">
						<masterclipid>masterclip-2</masterclipid>
						<name>chandrika rocket equations</name>
						<start>29856</start>
						<end>29957</end>
						<in>52953</in>
						<out>53054</out>
						<file id="file-1" />
						<sourcetrack>
							<mediatype>audio</mediatype>
							<trackindex>1</trackindex>
						</sourcetrack>
						<labels>
							<label2>Iris</label2>
						</labels>
						<outputchannelindex>1</outputchannelindex>
					</clipitem>
					<clipitem id="clipitem-1458" premiereChannelType="stereo">
						<masterclipid>masterclip-2</masterclipid>
						<name>chandrika rocket equations</name>
						<start>29957</start>
						<end>29995</end>
						<in>53095</in>
						<out>53133</out>
						<file id="file-1" />
						<sourcetrack>
							<mediatype>audio</mediatype>
							<trackindex>1</trackindex>
						</sourcetrack>
						<labels>
							<label2>Iris</label2>
						</labels>
						<outputchannelindex>1</outputchannelindex>
					</clipitem>
					<clipitem id="clipitem-1459" premiereChannelType="stereo">
						<masterclipid>masterclip-2</masterclipid>
						<name>chandrika rocket equations</name>
						<start>29995</start>
						<end>30116</end>
						<in>53183</in>
						<out>53304</out>
						<file id="file-1" />
						<sourcetrack>
							<mediatype>audio</mediatype>
							<trackindex>1</trackindex>
						</sourcetrack>
						<labels>
							<label2>Iris</label2>
						</labels>
						<outputchannelindex>1</outputchannelindex>
					</clipitem>
					<clipitem id="clipitem-1460" premiereChannelType="stereo">
						<masterclipid>masterclip-2</masterclipid>
						<name>chandrika rocket equations</name>
						<start>30116</start>
						<end>30156</end>
						<in>53347</in>
						<out>53387</out>
						<file id="file-1" />
						<sourcetrack>
							<mediatype>audio</mediatype>
							<trackindex>1</trackindex>
						</sourcetrack>
						<labels>
							<label2>Iris</label2>
						</labels>
						<outputchannelindex>1</outputchannelindex>
					</clipitem>
					<clipitem id="clipitem-1461" premiereChannelType="stereo">
						<masterclipid>masterclip-2</masterclipid>
						<name>chandrika rocket equations</name>
						<start>30156</start>
						<end>30291</end>
						<in>53485</in>
						<out>53620</out>
						<file id="file-1" />
						<sourcetrack>
							<mediatype>audio</mediatype>
							<trackindex>1</trackindex>
						</sourcetrack>
						<labels>
							<label2>Iris</label2>
						</labels>
						<outputchannelindex>1</outputchannelindex>
					</clipitem>
					<clipitem id="clipitem-1462" premiereChannelType="stereo">
						<masterclipid>masterclip-2</masterclipid>
						<name>chandrika rocket equations</name>
						<start>30291</start>
						<end>30328</end>
						<in>53629</in>
						<out>53666</out>
						<file id="file-1" />
						<sourcetrack>
							<mediatype>audio</mediatype>
							<trackindex>1</trackindex>
						</sourcetrack>
						<labels>
							<label2>Iris</label2>
						</labels>
						<outputchannelindex>1</outputchannelindex>
					</clipitem>
					<clipitem id="clipitem-1463" premiereChannelType="stereo">
						<masterclipid>masterclip-2</masterclipid>
						<name>chandrika rocket equations</name>
						<start>30328</start>
						<end>30450</end>
						<in>53680</in>
						<out>53802</out>
						<file id="file-1" />
						<sourcetrack>
							<mediatype>audio</mediatype>
							<trackindex>1</trackindex>
						</sourcetrack>
						<labels>
							<label2>Iris</label2>
						</labels>
						<outputchannelindex>1</outputchannelindex>
					</clipitem>
					<clipitem id="clipitem-1464" premiereChannelType="stereo">
						<masterclipid>masterclip-2</masterclipid>
						<name>chandrika rocket equations</name>
						<start>30450</start>
						<end>30660</end>
						<in>53831</in>
						<out>54041</out>
						<file id="file-1" />
						<sourcetrack>
							<mediatype>audio</mediatype>
							<trackindex>1</trackindex>
						</sourcetrack>
						<labels>
							<label2>Iris</label2>
						</labels>
						<outputchannelindex>1</outputchannelindex>
					</clipitem>
					<clipitem id="clipitem-1465" premiereChannelType="stereo">
						<masterclipid>masterclip-2</masterclipid>
						<name>chandrika rocket equations</name>
						<start>30660</start>
						<end>30870</end>
						<in>54052</in>
						<out>54262</out>
						<file id="file-1" />
						<sourcetrack>
							<mediatype>audio</mediatype>
							<trackindex>1</trackindex>
						</sourcetrack>
						<labels>
							<label2>Iris</label2>
						</labels>
						<outputchannelindex>1</outputchannelindex>
					</clipitem>
					<clipitem id="clipitem-1466" premiereChannelType="stereo">
						<masterclipid>masterclip-2</masterclipid>
						<name>chandrika rocket equations</name>
						<start>30870</start>
						<end>30972</end>
						<in>54328</in>
						<out>54430</out>
						<file id="file-1" />
						<sourcetrack>
							<mediatype>audio</mediatype>
							<trackindex>1</trackindex>
						</sourcetrack>
						<labels>
							<label2>Iris</label2>
						</labels>
						<outputchannelindex>1</outputchannelindex>
					</clipitem>
					<clipitem id="clipitem-1467" premiereChannelType="stereo">
						<masterclipid>masterclip-2</masterclipid>
						<name>chandrika rocket equations</name>
						<start>30972</start>
						<end>31089</end>
						<in>54440</in>
						<out>54557</out>
						<file id="file-1" />
						<sourcetrack>
							<mediatype>audio</mediatype>
							<trackindex>1</trackindex>
						</sourcetrack>
						<labels>
							<label2>Iris</label2>
						</labels>
						<outputchannelindex>1</outputchannelindex>
					</clipitem>
					<clipitem id="clipitem-1468" premiereChannelType="stereo">
						<masterclipid>masterclip-2</masterclipid>
						<name>chandrika rocket equations</name>
						<start>31089</start>
						<end>31158</end>
						<in>54560</in>
						<out>54629</out>
						<file id="file-1" />
						<sourcetrack>
							<mediatype>audio</mediatype>
							<trackindex>1</trackindex>
						</sourcetrack>
						<labels>
							<label2>Iris</label2>
						</labels>
						<outputchannelindex>1</outputchannelindex>
					</clipitem>
					<clipitem id="clipitem-1469" premiereChannelType="stereo">
						<masterclipid>masterclip-2</masterclipid>
						<name>chandrika rocket equations</name>
						<start>31158</start>
						<end>31183</end>
						<in>54681</in>
						<out>54706</out>
						<file id="file-1" />
						<sourcetrack>
							<mediatype>audio</mediatype>
							<trackindex>1</trackindex>
						</sourcetrack>
						<labels>
							<label2>Iris</label2>
						</labels>
						<outputchannelindex>1</outputchannelindex>
					</clipitem>
					<clipitem id="clipitem-1470" premiereChannelType="stereo">
						<masterclipid>masterclip-2</masterclipid>
						<name>chandrika rocket equations</name>
						<start>31183</start>
						<end>31326</end>
						<in>54750</in>
						<out>54893</out>
						<file id="file-1" />
						<sourcetrack>
							<mediatype>audio</mediatype>
							<trackindex>1</trackindex>
						</sourcetrack>
						<labels>
							<label2>Iris</label2>
						</labels>
						<outputchannelindex>1</outputchannelindex>
					</clipitem>
					<clipitem id="clipitem-1471" premiereChannelType="stereo">
						<masterclipid>masterclip-2</masterclipid>
						<name>chandrika rocket equations</name>
						<start>31326</start>
						<end>31478</end>
						<in>54898</in>
						<out>55050</out>
						<file id="file-1" />
						<sourcetrack>
							<mediatype>audio</mediatype>
							<trackindex>1</trackindex>
						</sourcetrack>
						<labels>
							<label2>Iris</label2>
						</labels>
						<outputchannelindex>1</outputchannelindex>
					</clipitem>
					<clipitem id="clipitem-1472" premiereChannelType="stereo">
						<masterclipid>masterclip-2</masterclipid>
						<name>chandrika rocket equations</name>
						<start>31478</start>
						<end>31518</end>
						<in>55052</in>
						<out>55092</out>
						<file id="file-1" />
						<sourcetrack>
							<mediatype>audio</mediatype>
							<trackindex>1</trackindex>
						</sourcetrack>
						<labels>
							<label2>Iris</label2>
						</labels>
						<outputchannelindex>1</outputchannelindex>
					</clipitem>
					<clipitem id="clipitem-1473" premiereChannelType="stereo">
						<masterclipid>masterclip-2</masterclipid>
						<name>chandrika rocket equations</name>
						<start>31518</start>
						<end>31558</end>
						<in>55105</in>
						<out>55145</out>
						<file id="file-1" />
						<sourcetrack>
							<mediatype>audio</mediatype>
							<trackindex>1</trackindex>
						</sourcetrack>
						<labels>
							<label2>Iris</label2>
						</labels>
						<outputchannelindex>1</outputchannelindex>
					</clipitem>
					<clipitem id="clipitem-1474" premiereChannelType="stereo">
						<masterclipid>masterclip-2</masterclipid>
						<name>chandrika rocket equations</name>
						<start>31558</start>
						<end>31634</end>
						<in>55149</in>
						<out>55225</out>
						<file id="file-1" />
						<sourcetrack>
							<mediatype>audio</mediatype>
							<trackindex>1</trackindex>
						</sourcetrack>
						<labels>
							<label2>Iris</label2>
						</labels>
						<outputchannelindex>1</outputchannelindex>
					</clipitem>
					<clipitem id="clipitem-1475" premiereChannelType="stereo">
						<masterclipid>masterclip-2</masterclipid>
						<name>chandrika rocket equations</name>
						<start>31634</start>
						<end>31685</end>
						<in>55254</in>
						<out>55305</out>
						<file id="file-1" />
						<sourcetrack>
							<mediatype>audio</mediatype>
							<trackindex>1</trackindex>
						</sourcetrack>
						<labels>
							<label2>Iris</label2>
						</labels>
						<outputchannelindex>1</outputchannelindex>
					</clipitem>
					<clipitem id="clipitem-1476" premiereChannelType="stereo">
						<masterclipid>masterclip-2</masterclipid>
						<name>chandrika rocket equations</name>
						<start>31685</start>
						<end>31701</end>
						<in>55314</in>
						<out>55330</out>
						<file id="file-1" />
						<sourcetrack>
							<mediatype>audio</mediatype>
							<trackindex>1</trackindex>
						</sourcetrack>
						<labels>
							<label2>Iris</label2>
						</labels>
						<outputchannelindex>1</outputchannelindex>
					</clipitem>
					<clipitem id="clipitem-1477" premiereChannelType="stereo">
						<masterclipid>masterclip-2</masterclipid>
						<name>chandrika rocket equations</name>
						<start>31701</start>
						<end>31717</end>
						<in>55336</in>
						<out>55352</out>
						<file id="file-1" />
						<sourcetrack>
							<mediatype>audio</mediatype>
							<trackindex>1</trackindex>
						</sourcetrack>
						<labels>
							<label2>Iris</label2>
						</labels>
						<outputchannelindex>1</outputchannelindex>
					</clipitem>
					<clipitem id="clipitem-1478" premiereChannelType="stereo">
						<masterclipid>masterclip-2</masterclipid>
						<name>chandrika rocket equations</name>
						<start>31717</start>
						<end>31739</end>
						<in>55366</in>
						<out>55388</out>
						<file id="file-1" />
						<sourcetrack>
							<mediatype>audio</mediatype>
							<trackindex>1</trackindex>
						</sourcetrack>
						<labels>
							<label2>Iris</label2>
						</labels>
						<outputchannelindex>1</outputchannelindex>
					</clipitem>
					<clipitem id="clipitem-1479" premiereChannelType="stereo">
						<masterclipid>masterclip-2</masterclipid>
						<name>chandrika rocket equations</name>
						<start>31739</start>
						<end>31805</end>
						<in>55414</in>
						<out>55480</out>
						<file id="file-1" />
						<sourcetrack>
							<mediatype>audio</mediatype>
							<trackindex>1</trackindex>
						</sourcetrack>
						<labels>
							<label2>Iris</label2>
						</labels>
						<outputchannelindex>1</outputchannelindex>
					</clipitem>
					<clipitem id="clipitem-1480" premiereChannelType="stereo">
						<masterclipid>masterclip-2</masterclipid>
						<name>chandrika rocket equations</name>
						<start>31805</start>
						<end>31930</end>
						<in>55504</in>
						<out>55629</out>
						<file id="file-1" />
						<sourcetrack>
							<mediatype>audio</mediatype>
							<trackindex>1</trackindex>
						</sourcetrack>
						<labels>
							<label2>Iris</label2>
						</labels>
						<outputchannelindex>1</outputchannelindex>
					</clipitem>
					<clipitem id="clipitem-1481" premiereChannelType="stereo">
						<masterclipid>masterclip-2</masterclipid>
						<name>chandrika rocket equations</name>
						<start>31930</start>
						<end>31994</end>
						<in>55630</in>
						<out>55694</out>
						<file id="file-1" />
						<sourcetrack>
							<mediatype>audio</mediatype>
							<trackindex>1</trackindex>
						</sourcetrack>
						<labels>
							<label2>Iris</label2>
						</labels>
						<outputchannelindex>1</outputchannelindex>
					</clipitem>
					<clipitem id="clipitem-1482" premiereChannelType="stereo">
						<masterclipid>masterclip-2</masterclipid>
						<name>chandrika rocket equations</name>
						<start>31994</start>
						<end>32016</end>
						<in>55701</in>
						<out>55723</out>
						<file id="file-1" />
						<sourcetrack>
							<mediatype>audio</mediatype>
							<trackindex>1</trackindex>
						</sourcetrack>
						<labels>
							<label2>Iris</label2>
						</labels>
						<outputchannelindex>1</outputchannelindex>
					</clipitem>
					<clipitem id="clipitem-1483" premiereChannelType="stereo">
						<masterclipid>masterclip-2</masterclipid>
						<name>chandrika rocket equations</name>
						<start>32016</start>
						<end>32094</end>
						<in>55725</in>
						<out>55803</out>
						<file id="file-1" />
						<sourcetrack>
							<mediatype>audio</mediatype>
							<trackindex>1</trackindex>
						</sourcetrack>
						<labels>
							<label2>Iris</label2>
						</labels>
						<outputchannelindex>1</outputchannelindex>
					</clipitem>
					<clipitem id="clipitem-1484" premiereChannelType="stereo">
						<masterclipid>masterclip-2</masterclipid>
						<name>chandrika rocket equations</name>
						<start>32094</start>
						<end>32277</end>
						<in>55808</in>
						<out>55991</out>
						<file id="file-1" />
						<sourcetrack>
							<mediatype>audio</mediatype>
							<trackindex>1</trackindex>
						</sourcetrack>
						<labels>
							<label2>Iris</label2>
						</labels>
						<outputchannelindex>1</outputchannelindex>
					</clipitem>
					<clipitem id="clipitem-1485" premiereChannelType="stereo">
						<masterclipid>masterclip-2</masterclipid>
						<name>chandrika rocket equations</name>
						<start>32277</start>
						<end>32307</end>
						<in>55993</in>
						<out>56023</out>
						<file id="file-1" />
						<sourcetrack>
							<mediatype>audio</mediatype>
							<trackindex>1</trackindex>
						</sourcetrack>
						<labels>
							<label2>Iris</label2>
						</labels>
						<outputchannelindex>1</outputchannelindex>
					</clipitem>
					<clipitem id="clipitem-1486" premiereChannelType="stereo">
						<masterclipid>masterclip-2</masterclipid>
						<name>chandrika rocket equations</name>
						<start>32307</start>
						<end>32476</end>
						<in>56032</in>
						<out>56201</out>
						<file id="file-1" />
						<sourcetrack>
							<mediatype>audio</mediatype>
							<trackindex>1</trackindex>
						</sourcetrack>
						<labels>
							<label2>Iris</label2>
						</labels>
						<outputchannelindex>1</outputchannelindex>
					</clipitem>
					<clipitem id="clipitem-1487" premiereChannelType="stereo">
						<masterclipid>masterclip-2</masterclipid>
						<name>chandrika rocket equations</name>
						<start>32476</start>
						<end>32537</end>
						<in>56262</in>
						<out>56323</out>
						<file id="file-1" />
						<sourcetrack>
							<mediatype>audio</mediatype>
							<trackindex>1</trackindex>
						</sourcetrack>
						<labels>
							<label2>Iris</label2>
						</labels>
						<outputchannelindex>1</outputchannelindex>
					</clipitem>
					<clipitem id="clipitem-1488" premiereChannelType="stereo">
						<masterclipid>masterclip-2</masterclipid>
						<name>chandrika rocket equations</name>
						<start>32537</start>
						<end>32564</end>
						<in>56327</in>
						<out>56354</out>
						<file id="file-1" />
						<sourcetrack>
							<mediatype>audio</mediatype>
							<trackindex>1</trackindex>
						</sourcetrack>
						<labels>
							<label2>Iris</label2>
						</labels>
						<outputchannelindex>1</outputchannelindex>
					</clipitem>
					<clipitem id="clipitem-1489" premiereChannelType="stereo">
						<masterclipid>masterclip-2</masterclipid>
						<name>chandrika rocket equations</name>
						<start>32564</start>
						<end>32631</end>
						<in>56417</in>
						<out>56484</out>
						<file id="file-1" />
						<sourcetrack>
							<mediatype>audio</mediatype>
							<trackindex>1</trackindex>
						</sourcetrack>
						<labels>
							<label2>Iris</label2>
						</labels>
						<outputchannelindex>1</outputchannelindex>
					</clipitem>
					<clipitem id="clipitem-1490" premiereChannelType="stereo">
						<masterclipid>masterclip-2</masterclipid>
						<name>chandrika rocket equations</name>
						<start>32631</start>
						<end>32661</end>
						<in>56527</in>
						<out>56557</out>
						<file id="file-1" />
						<sourcetrack>
							<mediatype>audio</mediatype>
							<trackindex>1</trackindex>
						</sourcetrack>
						<labels>
							<label2>Iris</label2>
						</labels>
						<outputchannelindex>1</outputchannelindex>
					</clipitem>
					<clipitem id="clipitem-1491" premiereChannelType="stereo">
						<masterclipid>masterclip-2</masterclipid>
						<name>chandrika rocket equations</name>
						<start>32661</start>
						<end>32782</end>
						<in>56577</in>
						<out>56698</out>
						<file id="file-1" />
						<sourcetrack>
							<mediatype>audio</mediatype>
							<trackindex>1</trackindex>
						</sourcetrack>
						<labels>
							<label2>Iris</label2>
						</labels>
						<outputchannelindex>1</outputchannelindex>
					</clipitem>
					<clipitem id="clipitem-1492" premiereChannelType="stereo">
						<masterclipid>masterclip-2</masterclipid>
						<name>chandrika rocket equations</name>
						<start>32782</start>
						<end>32810</end>
						<in>56718</in>
						<out>56746</out>
						<file id="file-1" />
						<sourcetrack>
							<mediatype>audio</mediatype>
							<trackindex>1</trackindex>
						</sourcetrack>
						<labels>
							<label2>Iris</label2>
						</labels>
						<outputchannelindex>1</outputchannelindex>
					</clipitem>
					<clipitem id="clipitem-1493" premiereChannelType="stereo">
						<masterclipid>masterclip-2</masterclipid>
						<name>chandrika rocket equations</name>
						<start>32810</start>
						<end>32863</end>
						<in>56791</in>
						<out>56844</out>
						<file id="file-1" />
						<sourcetrack>
							<mediatype>audio</mediatype>
							<trackindex>1</trackindex>
						</sourcetrack>
						<labels>
							<label2>Iris</label2>
						</labels>
						<outputchannelindex>1</outputchannelindex>
					</clipitem>
					<clipitem id="clipitem-1494" premiereChannelType="stereo">
						<masterclipid>masterclip-2</masterclipid>
						<name>chandrika rocket equations</name>
						<start>32863</start>
						<end>32903</end>
						<in>56855</in>
						<out>56895</out>
						<file id="file-1" />
						<sourcetrack>
							<mediatype>audio</mediatype>
							<trackindex>1</trackindex>
						</sourcetrack>
						<labels>
							<label2>Iris</label2>
						</labels>
						<outputchannelindex>1</outputchannelindex>
					</clipitem>
					<clipitem id="clipitem-1495" premiereChannelType="stereo">
						<masterclipid>masterclip-2</masterclipid>
						<name>chandrika rocket equations</name>
						<start>32903</start>
						<end>33023</end>
						<in>56898</in>
						<out>57018</out>
						<file id="file-1" />
						<sourcetrack>
							<mediatype>audio</mediatype>
							<trackindex>1</trackindex>
						</sourcetrack>
						<labels>
							<label2>Iris</label2>
						</labels>
						<outputchannelindex>1</outputchannelindex>
					</clipitem>
					<clipitem id="clipitem-1496" premiereChannelType="stereo">
						<masterclipid>masterclip-2</masterclipid>
						<name>chandrika rocket equations</name>
						<start>33023</start>
						<end>33173</end>
						<in>57039</in>
						<out>57189</out>
						<file id="file-1" />
						<sourcetrack>
							<mediatype>audio</mediatype>
							<trackindex>1</trackindex>
						</sourcetrack>
						<labels>
							<label2>Iris</label2>
						</labels>
						<outputchannelindex>1</outputchannelindex>
					</clipitem>
					<clipitem id="clipitem-1497" premiereChannelType="stereo">
						<masterclipid>masterclip-2</masterclipid>
						<name>chandrika rocket equations</name>
						<start>33173</start>
						<end>33246</end>
						<in>57215</in>
						<out>57288</out>
						<file id="file-1" />
						<sourcetrack>
							<mediatype>audio</mediatype>
							<trackindex>1</trackindex>
						</sourcetrack>
						<labels>
							<label2>Iris</label2>
						</labels>
						<outputchannelindex>1</outputchannelindex>
					</clipitem>
					<clipitem id="clipitem-1498" premiereChannelType="stereo">
						<masterclipid>masterclip-2</masterclipid>
						<name>chandrika rocket equations</name>
						<start>33246</start>
						<end>33353</end>
						<in>57311</in>
						<out>57418</out>
						<file id="file-1" />
						<sourcetrack>
							<mediatype>audio</mediatype>
							<trackindex>1</trackindex>
						</sourcetrack>
						<labels>
							<label2>Iris</label2>
						</labels>
						<outputchannelindex>1</outputchannelindex>
					</clipitem>
					<clipitem id="clipitem-1499" premiereChannelType="stereo">
						<masterclipid>masterclip-2</masterclipid>
						<name>chandrika rocket equations</name>
						<start>33353</start>
						<end>33379</end>
						<in>57435</in>
						<out>57461</out>
						<file id="file-1" />
						<sourcetrack>
							<mediatype>audio</mediatype>
							<trackindex>1</trackindex>
						</sourcetrack>
						<labels>
							<label2>Iris</label2>
						</labels>
						<outputchannelindex>1</outputchannelindex>
					</clipitem>
					<clipitem id="clipitem-1500" premiereChannelType="stereo">
						<masterclipid>masterclip-2</masterclipid>
						<name>chandrika rocket equations</name>
						<start>33379</start>
						<end>33460</end>
						<in>57482</in>
						<out>57563</out>
						<file id="file-1" />
						<sourcetrack>
							<mediatype>audio</mediatype>
							<trackindex>1</trackindex>
						</sourcetrack>
						<labels>
							<label2>Iris</label2>
						</labels>
						<outputchannelindex>1</outputchannelindex>
					</clipitem>
					<clipitem id="clipitem-1501" premiereChannelType="stereo">
						<masterclipid>masterclip-2</masterclipid>
						<name>chandrika rocket equations</name>
						<start>33460</start>
						<end>33529</end>
						<in>57598</in>
						<out>57667</out>
						<file id="file-1" />
						<sourcetrack>
							<mediatype>audio</mediatype>
							<trackindex>1</trackindex>
						</sourcetrack>
						<labels>
							<label2>Iris</label2>
						</labels>
						<outputchannelindex>1</outputchannelindex>
					</clipitem>
					<clipitem id="clipitem-1502" premiereChannelType="stereo">
						<masterclipid>masterclip-2</masterclipid>
						<name>chandrika rocket equations</name>
						<start>33529</start>
						<end>33617</end>
						<in>57677</in>
						<out>57765</out>
						<file id="file-1" />
						<sourcetrack>
							<mediatype>audio</mediatype>
							<trackindex>1</trackindex>
						</sourcetrack>
						<labels>
							<label2>Iris</label2>
						</labels>
						<outputchannelindex>1</outputchannelindex>
					</clipitem>
					<clipitem id="clipitem-1503" premiereChannelType="stereo">
						<masterclipid>masterclip-2</masterclipid>
						<name>chandrika rocket equations</name>
						<start>33617</start>
						<end>33644</end>
						<in>57815</in>
						<out>57842</out>
						<file id="file-1" />
						<sourcetrack>
							<mediatype>audio</mediatype>
							<trackindex>1</trackindex>
						</sourcetrack>
						<labels>
							<label2>Iris</label2>
						</labels>
						<outputchannelindex>1</outputchannelindex>
					</clipitem>
					<clipitem id="clipitem-1504" premiereChannelType="stereo">
						<masterclipid>masterclip-2</masterclipid>
						<name>chandrika rocket equations</name>
						<start>33644</start>
						<end>33680</end>
						<in>57869</in>
						<out>57905</out>
						<file id="file-1" />
						<sourcetrack>
							<mediatype>audio</mediatype>
							<trackindex>1</trackindex>
						</sourcetrack>
						<labels>
							<label2>Iris</label2>
						</labels>
						<outputchannelindex>1</outputchannelindex>
					</clipitem>
					<clipitem id="clipitem-1505" premiereChannelType="stereo">
						<masterclipid>masterclip-2</masterclipid>
						<name>chandrika rocket equations</name>
						<start>33680</start>
						<end>33713</end>
						<in>57935</in>
						<out>57968</out>
						<file id="file-1" />
						<sourcetrack>
							<mediatype>audio</mediatype>
							<trackindex>1</trackindex>
						</sourcetrack>
						<labels>
							<label2>Iris</label2>
						</labels>
						<outputchannelindex>1</outputchannelindex>
					</clipitem>
					<clipitem id="clipitem-1506" premiereChannelType="stereo">
						<masterclipid>masterclip-2</masterclipid>
						<name>chandrika rocket equations</name>
						<start>33713</start>
						<end>33738</end>
						<in>57992</in>
						<out>58017</out>
						<file id="file-1" />
						<sourcetrack>
							<mediatype>audio</mediatype>
							<trackindex>1</trackindex>
						</sourcetrack>
						<labels>
							<label2>Iris</label2>
						</labels>
						<outputchannelindex>1</outputchannelindex>
					</clipitem>
					<clipitem id="clipitem-1507" premiereChannelType="stereo">
						<masterclipid>masterclip-2</masterclipid>
						<name>chandrika rocket equations</name>
						<start>33738</start>
						<end>33819</end>
						<in>58023</in>
						<out>58104</out>
						<file id="file-1" />
						<sourcetrack>
							<mediatype>audio</mediatype>
							<trackindex>1</trackindex>
						</sourcetrack>
						<labels>
							<label2>Iris</label2>
						</labels>
						<outputchannelindex>1</outputchannelindex>
					</clipitem>
					<clipitem id="clipitem-1508" premiereChannelType="stereo">
						<masterclipid>masterclip-2</masterclipid>
						<name>chandrika rocket equations</name>
						<start>33819</start>
						<end>33875</end>
						<in>58110</in>
						<out>58166</out>
						<file id="file-1" />
						<sourcetrack>
							<mediatype>audio</mediatype>
							<trackindex>1</trackindex>
						</sourcetrack>
						<labels>
							<label2>Iris</label2>
						</labels>
						<outputchannelindex>1</outputchannelindex>
					</clipitem>
					<clipitem id="clipitem-1509" premiereChannelType="stereo">
						<masterclipid>masterclip-2</masterclipid>
						<name>chandrika rocket equations</name>
						<start>33875</start>
						<end>33916</end>
						<in>58230</in>
						<out>58271</out>
						<file id="file-1" />
						<sourcetrack>
							<mediatype>audio</mediatype>
							<trackindex>1</trackindex>
						</sourcetrack>
						<labels>
							<label2>Iris</label2>
						</labels>
						<outputchannelindex>1</outputchannelindex>
					</clipitem>
					<clipitem id="clipitem-1510" premiereChannelType="stereo">
						<masterclipid>masterclip-2</masterclipid>
						<name>chandrika rocket equations</name>
						<start>33916</start>
						<end>34002</end>
						<in>58312</in>
						<out>58398</out>
						<file id="file-1" />
						<sourcetrack>
							<mediatype>audio</mediatype>
							<trackindex>1</trackindex>
						</sourcetrack>
						<labels>
							<label2>Iris</label2>
						</labels>
						<outputchannelindex>1</outputchannelindex>
					</clipitem>
					<clipitem id="clipitem-1511" premiereChannelType="stereo">
						<masterclipid>masterclip-2</masterclipid>
						<name>chandrika rocket equations</name>
						<start>34002</start>
						<end>34021</end>
						<in>58421</in>
						<out>58440</out>
						<file id="file-1" />
						<sourcetrack>
							<mediatype>audio</mediatype>
							<trackindex>1</trackindex>
						</sourcetrack>
						<labels>
							<label2>Iris</label2>
						</labels>
						<outputchannelindex>1</outputchannelindex>
					</clipitem>
					<clipitem id="clipitem-1512" premiereChannelType="stereo">
						<masterclipid>masterclip-2</masterclipid>
						<name>chandrika rocket equations</name>
						<start>34021</start>
						<end>34037</end>
						<in>58475</in>
						<out>58491</out>
						<file id="file-1" />
						<sourcetrack>
							<mediatype>audio</mediatype>
							<trackindex>1</trackindex>
						</sourcetrack>
						<labels>
							<label2>Iris</label2>
						</labels>
						<outputchannelindex>1</outputchannelindex>
					</clipitem>
					<clipitem id="clipitem-1513" premiereChannelType="stereo">
						<masterclipid>masterclip-2</masterclipid>
						<name>chandrika rocket equations</name>
						<start>34037</start>
						<end>34059</end>
						<in>58493</in>
						<out>58515</out>
						<file id="file-1" />
						<sourcetrack>
							<mediatype>audio</mediatype>
							<trackindex>1</trackindex>
						</sourcetrack>
						<labels>
							<label2>Iris</label2>
						</labels>
						<outputchannelindex>1</outputchannelindex>
					</clipitem>
					<clipitem id="clipitem-1514" premiereChannelType="stereo">
						<masterclipid>masterclip-2</masterclipid>
						<name>chandrika rocket equations</name>
						<start>34059</start>
						<end>34105</end>
						<in>58530</in>
						<out>58576</out>
						<file id="file-1" />
						<sourcetrack>
							<mediatype>audio</mediatype>
							<trackindex>1</trackindex>
						</sourcetrack>
						<labels>
							<label2>Iris</label2>
						</labels>
						<outputchannelindex>1</outputchannelindex>
					</clipitem>
					<clipitem id="clipitem-1515" premiereChannelType="stereo">
						<masterclipid>masterclip-2</masterclipid>
						<name>chandrika rocket equations</name>
						<start>34105</start>
						<end>34142</end>
						<in>58608</in>
						<out>58645</out>
						<file id="file-1" />
						<sourcetrack>
							<mediatype>audio</mediatype>
							<trackindex>1</trackindex>
						</sourcetrack>
						<labels>
							<label2>Iris</label2>
						</labels>
						<outputchannelindex>1</outputchannelindex>
					</clipitem>
					<clipitem id="clipitem-1516" premiereChannelType="stereo">
						<masterclipid>masterclip-2</masterclipid>
						<name>chandrika rocket equations</name>
						<start>34142</start>
						<end>34165</end>
						<in>58646</in>
						<out>58669</out>
						<file id="file-1" />
						<sourcetrack>
							<mediatype>audio</mediatype>
							<trackindex>1</trackindex>
						</sourcetrack>
						<labels>
							<label2>Iris</label2>
						</labels>
						<outputchannelindex>1</outputchannelindex>
					</clipitem>
					<clipitem id="clipitem-1517" premiereChannelType="stereo">
						<masterclipid>masterclip-2</masterclipid>
						<name>chandrika rocket equations</name>
						<start>34165</start>
						<end>34180</end>
						<in>58671</in>
						<out>58686</out>
						<file id="file-1" />
						<sourcetrack>
							<mediatype>audio</mediatype>
							<trackindex>1</trackindex>
						</sourcetrack>
						<labels>
							<label2>Iris</label2>
						</labels>
						<outputchannelindex>1</outputchannelindex>
					</clipitem>
					<clipitem id="clipitem-1518" premiereChannelType="stereo">
						<masterclipid>masterclip-2</masterclipid>
						<name>chandrika rocket equations</name>
						<start>34180</start>
						<end>34195</end>
						<in>58703</in>
						<out>58718</out>
						<file id="file-1" />
						<sourcetrack>
							<mediatype>audio</mediatype>
							<trackindex>1</trackindex>
						</sourcetrack>
						<labels>
							<label2>Iris</label2>
						</labels>
						<outputchannelindex>1</outputchannelindex>
					</clipitem>
					<clipitem id="clipitem-1519" premiereChannelType="stereo">
						<masterclipid>masterclip-2</masterclipid>
						<name>chandrika rocket equations</name>
						<start>34195</start>
						<end>34266</end>
						<in>58730</in>
						<out>58801</out>
						<file id="file-1" />
						<sourcetrack>
							<mediatype>audio</mediatype>
							<trackindex>1</trackindex>
						</sourcetrack>
						<labels>
							<label2>Iris</label2>
						</labels>
						<outputchannelindex>1</outputchannelindex>
					</clipitem>
					<clipitem id="clipitem-1520" premiereChannelType="stereo">
						<masterclipid>masterclip-2</masterclipid>
						<name>chandrika rocket equations</name>
						<start>34266</start>
						<end>34319</end>
						<in>58830</in>
						<out>58883</out>
						<file id="file-1" />
						<sourcetrack>
							<mediatype>audio</mediatype>
							<trackindex>1</trackindex>
						</sourcetrack>
						<labels>
							<label2>Iris</label2>
						</labels>
						<outputchannelindex>1</outputchannelindex>
					</clipitem>
					<clipitem id="clipitem-1521" premiereChannelType="stereo">
						<masterclipid>masterclip-2</masterclipid>
						<name>chandrika rocket equations</name>
						<start>34319</start>
						<end>34354</end>
						<in>58950</in>
						<out>58985</out>
						<file id="file-1" />
						<sourcetrack>
							<mediatype>audio</mediatype>
							<trackindex>1</trackindex>
						</sourcetrack>
						<labels>
							<label2>Iris</label2>
						</labels>
						<outputchannelindex>1</outputchannelindex>
					</clipitem>
					<clipitem id="clipitem-1522" premiereChannelType="stereo">
						<masterclipid>masterclip-2</masterclipid>
						<name>chandrika rocket equations</name>
						<start>34354</start>
						<end>34401</end>
						<in>59057</in>
						<out>59104</out>
						<file id="file-1" />
						<sourcetrack>
							<mediatype>audio</mediatype>
							<trackindex>1</trackindex>
						</sourcetrack>
						<labels>
							<label2>Iris</label2>
						</labels>
						<outputchannelindex>1</outputchannelindex>
					</clipitem>
					<clipitem id="clipitem-1523" premiereChannelType="stereo">
						<masterclipid>masterclip-2</masterclipid>
						<name>chandrika rocket equations</name>
						<start>34401</start>
						<end>34473</end>
						<in>59157</in>
						<out>59229</out>
						<file id="file-1" />
						<sourcetrack>
							<mediatype>audio</mediatype>
							<trackindex>1</trackindex>
						</sourcetrack>
						<labels>
							<label2>Iris</label2>
						</labels>
						<outputchannelindex>1</outputchannelindex>
					</clipitem>
					<clipitem id="clipitem-1524" premiereChannelType="stereo">
						<masterclipid>masterclip-2</masterclipid>
						<name>chandrika rocket equations</name>
						<start>34473</start>
						<end>34621</end>
						<in>59230</in>
						<out>59378</out>
						<file id="file-1" />
						<sourcetrack>
							<mediatype>audio</mediatype>
							<trackindex>1</trackindex>
						</sourcetrack>
						<labels>
							<label2>Iris</label2>
						</labels>
						<outputchannelindex>1</outputchannelindex>
					</clipitem>
					<clipitem id="clipitem-1525" premiereChannelType="stereo">
						<masterclipid>masterclip-2</masterclipid>
						<name>chandrika rocket equations</name>
						<start>34621</start>
						<end>34665</end>
						<in>59384</in>
						<out>59428</out>
						<file id="file-1" />
						<sourcetrack>
							<mediatype>audio</mediatype>
							<trackindex>1</trackindex>
						</sourcetrack>
						<labels>
							<label2>Iris</label2>
						</labels>
						<outputchannelindex>1</outputchannelindex>
					</clipitem>
					<clipitem id="clipitem-1526" premiereChannelType="stereo">
						<masterclipid>masterclip-2</masterclipid>
						<name>chandrika rocket equations</name>
						<start>34665</start>
						<end>34714</end>
						<in>59432</in>
						<out>59481</out>
						<file id="file-1" />
						<sourcetrack>
							<mediatype>audio</mediatype>
							<trackindex>1</trackindex>
						</sourcetrack>
						<labels>
							<label2>Iris</label2>
						</labels>
						<outputchannelindex>1</outputchannelindex>
					</clipitem>
					<clipitem id="clipitem-1527" premiereChannelType="stereo">
						<masterclipid>masterclip-2</masterclipid>
						<name>chandrika rocket equations</name>
						<start>34714</start>
						<end>34884</end>
						<in>59489</in>
						<out>59659</out>
						<file id="file-1" />
						<sourcetrack>
							<mediatype>audio</mediatype>
							<trackindex>1</trackindex>
						</sourcetrack>
						<labels>
							<label2>Iris</label2>
						</labels>
						<outputchannelindex>1</outputchannelindex>
					</clipitem>
					<clipitem id="clipitem-1528" premiereChannelType="stereo">
						<masterclipid>masterclip-2</masterclipid>
						<name>chandrika rocket equations</name>
						<start>34884</start>
						<end>34900</end>
						<in>59678</in>
						<out>59694</out>
						<file id="file-1" />
						<sourcetrack>
							<mediatype>audio</mediatype>
							<trackindex>1</trackindex>
						</sourcetrack>
						<labels>
							<label2>Iris</label2>
						</labels>
						<outputchannelindex>1</outputchannelindex>
					</clipitem>
					<clipitem id="clipitem-1529" premiereChannelType="stereo">
						<masterclipid>masterclip-2</masterclipid>
						<name>chandrika rocket equations</name>
						<start>34900</start>
						<end>35047</end>
						<in>59729</in>
						<out>59876</out>
						<file id="file-1" />
						<sourcetrack>
							<mediatype>audio</mediatype>
							<trackindex>1</trackindex>
						</sourcetrack>
						<labels>
							<label2>Iris</label2>
						</labels>
						<outputchannelindex>1</outputchannelindex>
					</clipitem>
					<clipitem id="clipitem-1530" premiereChannelType="stereo">
						<masterclipid>masterclip-2</masterclipid>
						<name>chandrika rocket equations</name>
						<start>35047</start>
						<end>35071</end>
						<in>59898</in>
						<out>59922</out>
						<file id="file-1" />
						<sourcetrack>
							<mediatype>audio</mediatype>
							<trackindex>1</trackindex>
						</sourcetrack>
						<labels>
							<label2>Iris</label2>
						</labels>
						<outputchannelindex>1</outputchannelindex>
					</clipitem>
					<clipitem id="clipitem-1531" premiereChannelType="stereo">
						<masterclipid>masterclip-2</masterclipid>
						<name>chandrika rocket equations</name>
						<start>35071</start>
						<end>35183</end>
						<in>60008</in>
						<out>60120</out>
						<file id="file-1" />
						<sourcetrack>
							<mediatype>audio</mediatype>
							<trackindex>1</trackindex>
						</sourcetrack>
						<labels>
							<label2>Iris</label2>
						</labels>
						<outputchannelindex>1</outputchannelindex>
					</clipitem>
					<clipitem id="clipitem-1532" premiereChannelType="stereo">
						<masterclipid>masterclip-2</masterclipid>
						<name>chandrika rocket equations</name>
						<start>35183</start>
						<end>35331</end>
						<in>60176</in>
						<out>60324</out>
						<file id="file-1" />
						<sourcetrack>
							<mediatype>audio</mediatype>
							<trackindex>1</trackindex>
						</sourcetrack>
						<labels>
							<label2>Iris</label2>
						</labels>
						<outputchannelindex>1</outputchannelindex>
					</clipitem>
					<clipitem id="clipitem-1533" premiereChannelType="stereo">
						<masterclipid>masterclip-2</masterclipid>
						<name>chandrika rocket equations</name>
						<start>35331</start>
						<end>35388</end>
						<in>60328</in>
						<out>60385</out>
						<file id="file-1" />
						<sourcetrack>
							<mediatype>audio</mediatype>
							<trackindex>1</trackindex>
						</sourcetrack>
						<labels>
							<label2>Iris</label2>
						</labels>
						<outputchannelindex>1</outputchannelindex>
					</clipitem>
					<clipitem id="clipitem-1534" premiereChannelType="stereo">
						<masterclipid>masterclip-2</masterclipid>
						<name>chandrika rocket equations</name>
						<start>35388</start>
						<end>35457</end>
						<in>60397</in>
						<out>60466</out>
						<file id="file-1" />
						<sourcetrack>
							<mediatype>audio</mediatype>
							<trackindex>1</trackindex>
						</sourcetrack>
						<labels>
							<label2>Iris</label2>
						</labels>
						<outputchannelindex>1</outputchannelindex>
					</clipitem>
					<clipitem id="clipitem-1535" premiereChannelType="stereo">
						<masterclipid>masterclip-2</masterclipid>
						<name>chandrika rocket equations</name>
						<start>35457</start>
						<end>35482</end>
						<in>60539</in>
						<out>60564</out>
						<file id="file-1" />
						<sourcetrack>
							<mediatype>audio</mediatype>
							<trackindex>1</trackindex>
						</sourcetrack>
						<labels>
							<label2>Iris</label2>
						</labels>
						<outputchannelindex>1</outputchannelindex>
					</clipitem>
					<clipitem id="clipitem-1536" premiereChannelType="stereo">
						<masterclipid>masterclip-2</masterclipid>
						<name>chandrika rocket equations</name>
						<start>35482</start>
						<end>35511</end>
						<in>60598</in>
						<out>60627</out>
						<file id="file-1" />
						<sourcetrack>
							<mediatype>audio</mediatype>
							<trackindex>1</trackindex>
						</sourcetrack>
						<labels>
							<label2>Iris</label2>
						</labels>
						<outputchannelindex>1</outputchannelindex>
					</clipitem>
					<clipitem id="clipitem-1537" premiereChannelType="stereo">
						<masterclipid>masterclip-2</masterclipid>
						<name>chandrika rocket equations</name>
						<start>35511</start>
						<end>35581</end>
						<in>60639</in>
						<out>60709</out>
						<file id="file-1" />
						<sourcetrack>
							<mediatype>audio</mediatype>
							<trackindex>1</trackindex>
						</sourcetrack>
						<labels>
							<label2>Iris</label2>
						</labels>
						<outputchannelindex>1</outputchannelindex>
					</clipitem>
					<clipitem id="clipitem-1538" premiereChannelType="stereo">
						<masterclipid>masterclip-2</masterclipid>
						<name>chandrika rocket equations</name>
						<start>35581</start>
						<end>35612</end>
						<in>60734</in>
						<out>60765</out>
						<file id="file-1" />
						<sourcetrack>
							<mediatype>audio</mediatype>
							<trackindex>1</trackindex>
						</sourcetrack>
						<labels>
							<label2>Iris</label2>
						</labels>
						<outputchannelindex>1</outputchannelindex>
					</clipitem>
					<clipitem id="clipitem-1539" premiereChannelType="stereo">
						<masterclipid>masterclip-2</masterclipid>
						<name>chandrika rocket equations</name>
						<start>35612</start>
						<end>35640</end>
						<in>60766</in>
						<out>60794</out>
						<file id="file-1" />
						<sourcetrack>
							<mediatype>audio</mediatype>
							<trackindex>1</trackindex>
						</sourcetrack>
						<labels>
							<label2>Iris</label2>
						</labels>
						<outputchannelindex>1</outputchannelindex>
					</clipitem>
					<clipitem id="clipitem-1540" premiereChannelType="stereo">
						<masterclipid>masterclip-2</masterclipid>
						<name>chandrika rocket equations</name>
						<start>35640</start>
						<end>35716</end>
						<in>60803</in>
						<out>60879</out>
						<file id="file-1" />
						<sourcetrack>
							<mediatype>audio</mediatype>
							<trackindex>1</trackindex>
						</sourcetrack>
						<labels>
							<label2>Iris</label2>
						</labels>
						<outputchannelindex>1</outputchannelindex>
					</clipitem>
					<clipitem id="clipitem-1541" premiereChannelType="stereo">
						<masterclipid>masterclip-2</masterclipid>
						<name>chandrika rocket equations</name>
						<start>35716</start>
						<end>35795</end>
						<in>60881</in>
						<out>60960</out>
						<file id="file-1" />
						<sourcetrack>
							<mediatype>audio</mediatype>
							<trackindex>1</trackindex>
						</sourcetrack>
						<labels>
							<label2>Iris</label2>
						</labels>
						<outputchannelindex>1</outputchannelindex>
					</clipitem>
					<clipitem id="clipitem-1542" premiereChannelType="stereo">
						<masterclipid>masterclip-2</masterclipid>
						<name>chandrika rocket equations</name>
						<start>35795</start>
						<end>35826</end>
						<in>60964</in>
						<out>60995</out>
						<file id="file-1" />
						<sourcetrack>
							<mediatype>audio</mediatype>
							<trackindex>1</trackindex>
						</sourcetrack>
						<labels>
							<label2>Iris</label2>
						</labels>
						<outputchannelindex>1</outputchannelindex>
					</clipitem>
					<clipitem id="clipitem-1543" premiereChannelType="stereo">
						<masterclipid>masterclip-2</masterclipid>
						<name>chandrika rocket equations</name>
						<start>35826</start>
						<end>35862</end>
						<in>61036</in>
						<out>61072</out>
						<file id="file-1" />
						<sourcetrack>
							<mediatype>audio</mediatype>
							<trackindex>1</trackindex>
						</sourcetrack>
						<labels>
							<label2>Iris</label2>
						</labels>
						<outputchannelindex>1</outputchannelindex>
					</clipitem>
					<clipitem id="clipitem-1544" premiereChannelType="stereo">
						<masterclipid>masterclip-2</masterclipid>
						<name>chandrika rocket equations</name>
						<start>35862</start>
						<end>35897</end>
						<in>61099</in>
						<out>61134</out>
						<file id="file-1" />
						<sourcetrack>
							<mediatype>audio</mediatype>
							<trackindex>1</trackindex>
						</sourcetrack>
						<labels>
							<label2>Iris</label2>
						</labels>
						<outputchannelindex>1</outputchannelindex>
					</clipitem>
					<clipitem id="clipitem-1545" premiereChannelType="stereo">
						<masterclipid>masterclip-2</masterclipid>
						<name>chandrika rocket equations</name>
						<start>35897</start>
						<end>35936</end>
						<in>61150</in>
						<out>61189</out>
						<file id="file-1" />
						<sourcetrack>
							<mediatype>audio</mediatype>
							<trackindex>1</trackindex>
						</sourcetrack>
						<labels>
							<label2>Iris</label2>
						</labels>
						<outputchannelindex>1</outputchannelindex>
					</clipitem>
					<clipitem id="clipitem-1546" premiereChannelType="stereo">
						<masterclipid>masterclip-2</masterclipid>
						<name>chandrika rocket equations</name>
						<start>35936</start>
						<end>35954</end>
						<in>61206</in>
						<out>61224</out>
						<file id="file-1" />
						<sourcetrack>
							<mediatype>audio</mediatype>
							<trackindex>1</trackindex>
						</sourcetrack>
						<labels>
							<label2>Iris</label2>
						</labels>
						<outputchannelindex>1</outputchannelindex>
					</clipitem>
					<clipitem id="clipitem-1547" premiereChannelType="stereo">
						<masterclipid>masterclip-2</masterclipid>
						<name>chandrika rocket equations</name>
						<start>35954</start>
						<end>36003</end>
						<in>61238</in>
						<out>61287</out>
						<file id="file-1" />
						<sourcetrack>
							<mediatype>audio</mediatype>
							<trackindex>1</trackindex>
						</sourcetrack>
						<labels>
							<label2>Iris</label2>
						</labels>
						<outputchannelindex>1</outputchannelindex>
					</clipitem>
					<clipitem id="clipitem-1548" premiereChannelType="stereo">
						<masterclipid>masterclip-2</masterclipid>
						<name>chandrika rocket equations</name>
						<start>36003</start>
						<end>36032</end>
						<in>61337</in>
						<out>61366</out>
						<file id="file-1" />
						<sourcetrack>
							<mediatype>audio</mediatype>
							<trackindex>1</trackindex>
						</sourcetrack>
						<labels>
							<label2>Iris</label2>
						</labels>
						<outputchannelindex>1</outputchannelindex>
					</clipitem>
					<clipitem id="clipitem-1549" premiereChannelType="stereo">
						<masterclipid>masterclip-2</masterclipid>
						<name>chandrika rocket equations</name>
						<start>36032</start>
						<end>36059</end>
						<in>61378</in>
						<out>61405</out>
						<file id="file-1" />
						<sourcetrack>
							<mediatype>audio</mediatype>
							<trackindex>1</trackindex>
						</sourcetrack>
						<labels>
							<label2>Iris</label2>
						</labels>
						<outputchannelindex>1</outputchannelindex>
					</clipitem>
					<clipitem id="clipitem-1550" premiereChannelType="stereo">
						<masterclipid>masterclip-2</masterclipid>
						<name>chandrika rocket equations</name>
						<start>36059</start>
						<end>36088</end>
						<in>61422</in>
						<out>61451</out>
						<file id="file-1" />
						<sourcetrack>
							<mediatype>audio</mediatype>
							<trackindex>1</trackindex>
						</sourcetrack>
						<labels>
							<label2>Iris</label2>
						</labels>
						<outputchannelindex>1</outputchannelindex>
					</clipitem>
					<clipitem id="clipitem-1551" premiereChannelType="stereo">
						<masterclipid>masterclip-2</masterclipid>
						<name>chandrika rocket equations</name>
						<start>36088</start>
						<end>36114</end>
						<in>61459</in>
						<out>61485</out>
						<file id="file-1" />
						<sourcetrack>
							<mediatype>audio</mediatype>
							<trackindex>1</trackindex>
						</sourcetrack>
						<labels>
							<label2>Iris</label2>
						</labels>
						<outputchannelindex>1</outputchannelindex>
					</clipitem>
					<clipitem id="clipitem-1552" premiereChannelType="stereo">
						<masterclipid>masterclip-2</masterclipid>
						<name>chandrika rocket equations</name>
						<start>36114</start>
						<end>36314</end>
						<in>61541</in>
						<out>61741</out>
						<file id="file-1" />
						<sourcetrack>
							<mediatype>audio</mediatype>
							<trackindex>1</trackindex>
						</sourcetrack>
						<labels>
							<label2>Iris</label2>
						</labels>
						<outputchannelindex>1</outputchannelindex>
					</clipitem>
					<clipitem id="clipitem-1553" premiereChannelType="stereo">
						<masterclipid>masterclip-2</masterclipid>
						<name>chandrika rocket equations</name>
						<start>36314</start>
						<end>36354</end>
						<in>61803</in>
						<out>61843</out>
						<file id="file-1" />
						<sourcetrack>
							<mediatype>audio</mediatype>
							<trackindex>1</trackindex>
						</sourcetrack>
						<labels>
							<label2>Iris</label2>
						</labels>
						<outputchannelindex>1</outputchannelindex>
					</clipitem>
					<clipitem id="clipitem-1554" premiereChannelType="stereo">
						<masterclipid>masterclip-2</masterclipid>
						<name>chandrika rocket equations</name>
						<start>36354</start>
						<end>36411</end>
						<in>61846</in>
						<out>61903</out>
						<file id="file-1" />
						<sourcetrack>
							<mediatype>audio</mediatype>
							<trackindex>1</trackindex>
						</sourcetrack>
						<labels>
							<label2>Iris</label2>
						</labels>
						<outputchannelindex>1</outputchannelindex>
					</clipitem>
					<clipitem id="clipitem-1555" premiereChannelType="stereo">
						<masterclipid>masterclip-2</masterclipid>
						<name>chandrika rocket equations</name>
						<start>36411</start>
						<end>36465</end>
						<in>61916</in>
						<out>61970</out>
						<file id="file-1" />
						<sourcetrack>
							<mediatype>audio</mediatype>
							<trackindex>1</trackindex>
						</sourcetrack>
						<labels>
							<label2>Iris</label2>
						</labels>
						<outputchannelindex>1</outputchannelindex>
					</clipitem>
					<clipitem id="clipitem-1556" premiereChannelType="stereo">
						<masterclipid>masterclip-2</masterclipid>
						<name>chandrika rocket equations</name>
						<start>36465</start>
						<end>36492</end>
						<in>61993</in>
						<out>62020</out>
						<file id="file-1" />
						<sourcetrack>
							<mediatype>audio</mediatype>
							<trackindex>1</trackindex>
						</sourcetrack>
						<labels>
							<label2>Iris</label2>
						</labels>
						<outputchannelindex>1</outputchannelindex>
					</clipitem>
					<clipitem id="clipitem-1557" premiereChannelType="stereo">
						<masterclipid>masterclip-2</masterclipid>
						<name>chandrika rocket equations</name>
						<start>36492</start>
						<end>36507</end>
						<in>62024</in>
						<out>62039</out>
						<file id="file-1" />
						<sourcetrack>
							<mediatype>audio</mediatype>
							<trackindex>1</trackindex>
						</sourcetrack>
						<labels>
							<label2>Iris</label2>
						</labels>
						<outputchannelindex>1</outputchannelindex>
					</clipitem>
					<clipitem id="clipitem-1558" premiereChannelType="stereo">
						<masterclipid>masterclip-2</masterclipid>
						<name>chandrika rocket equations</name>
						<start>36507</start>
						<end>36547</end>
						<in>62047</in>
						<out>62087</out>
						<file id="file-1" />
						<sourcetrack>
							<mediatype>audio</mediatype>
							<trackindex>1</trackindex>
						</sourcetrack>
						<labels>
							<label2>Iris</label2>
						</labels>
						<outputchannelindex>1</outputchannelindex>
					</clipitem>
					<clipitem id="clipitem-1559" premiereChannelType="stereo">
						<masterclipid>masterclip-2</masterclipid>
						<name>chandrika rocket equations</name>
						<start>36547</start>
						<end>36575</end>
						<in>62088</in>
						<out>62116</out>
						<file id="file-1" />
						<sourcetrack>
							<mediatype>audio</mediatype>
							<trackindex>1</trackindex>
						</sourcetrack>
						<labels>
							<label2>Iris</label2>
						</labels>
						<outputchannelindex>1</outputchannelindex>
					</clipitem>
					<clipitem id="clipitem-1560" premiereChannelType="stereo">
						<masterclipid>masterclip-2</masterclipid>
						<name>chandrika rocket equations</name>
						<start>36575</start>
						<end>36600</end>
						<in>62127</in>
						<out>62152</out>
						<file id="file-1" />
						<sourcetrack>
							<mediatype>audio</mediatype>
							<trackindex>1</trackindex>
						</sourcetrack>
						<labels>
							<label2>Iris</label2>
						</labels>
						<outputchannelindex>1</outputchannelindex>
					</clipitem>
					<clipitem id="clipitem-1561" premiereChannelType="stereo">
						<masterclipid>masterclip-2</masterclipid>
						<name>chandrika rocket equations</name>
						<start>36600</start>
						<end>36640</end>
						<in>62163</in>
						<out>62203</out>
						<file id="file-1" />
						<sourcetrack>
							<mediatype>audio</mediatype>
							<trackindex>1</trackindex>
						</sourcetrack>
						<labels>
							<label2>Iris</label2>
						</labels>
						<outputchannelindex>1</outputchannelindex>
					</clipitem>
					<clipitem id="clipitem-1562" premiereChannelType="stereo">
						<masterclipid>masterclip-2</masterclipid>
						<name>chandrika rocket equations</name>
						<start>36640</start>
						<end>36765</end>
						<in>62220</in>
						<out>62345</out>
						<file id="file-1" />
						<sourcetrack>
							<mediatype>audio</mediatype>
							<trackindex>1</trackindex>
						</sourcetrack>
						<labels>
							<label2>Iris</label2>
						</labels>
						<outputchannelindex>1</outputchannelindex>
					</clipitem>
					<clipitem id="clipitem-1563" premiereChannelType="stereo">
						<masterclipid>masterclip-2</masterclipid>
						<name>chandrika rocket equations</name>
						<start>36765</start>
						<end>36796</end>
						<in>62348</in>
						<out>62379</out>
						<file id="file-1" />
						<sourcetrack>
							<mediatype>audio</mediatype>
							<trackindex>1</trackindex>
						</sourcetrack>
						<labels>
							<label2>Iris</label2>
						</labels>
						<outputchannelindex>1</outputchannelindex>
					</clipitem>
					<clipitem id="clipitem-1564" premiereChannelType="stereo">
						<masterclipid>masterclip-2</masterclipid>
						<name>chandrika rocket equations</name>
						<start>36796</start>
						<end>36889</end>
						<in>62397</in>
						<out>62490</out>
						<file id="file-1" />
						<sourcetrack>
							<mediatype>audio</mediatype>
							<trackindex>1</trackindex>
						</sourcetrack>
						<labels>
							<label2>Iris</label2>
						</labels>
						<outputchannelindex>1</outputchannelindex>
					</clipitem>
					<clipitem id="clipitem-1565" premiereChannelType="stereo">
						<masterclipid>masterclip-2</masterclipid>
						<name>chandrika rocket equations</name>
						<start>36889</start>
						<end>36976</end>
						<in>62503</in>
						<out>62590</out>
						<file id="file-1" />
						<sourcetrack>
							<mediatype>audio</mediatype>
							<trackindex>1</trackindex>
						</sourcetrack>
						<labels>
							<label2>Iris</label2>
						</labels>
						<outputchannelindex>1</outputchannelindex>
					</clipitem>
					<clipitem id="clipitem-1566" premiereChannelType="stereo">
						<masterclipid>masterclip-2</masterclipid>
						<name>chandrika rocket equations</name>
						<start>36976</start>
						<end>37353</end>
						<in>62593</in>
						<out>62970</out>
						<file id="file-1" />
						<sourcetrack>
							<mediatype>audio</mediatype>
							<trackindex>1</trackindex>
						</sourcetrack>
						<labels>
							<label2>Iris</label2>
						</labels>
						<outputchannelindex>1</outputchannelindex>
					</clipitem>
					<clipitem id="clipitem-1567" premiereChannelType="stereo">
						<masterclipid>masterclip-2</masterclipid>
						<name>chandrika rocket equations</name>
						<start>37353</start>
						<end>37419</end>
						<in>62973</in>
						<out>63039</out>
						<file id="file-1" />
						<sourcetrack>
							<mediatype>audio</mediatype>
							<trackindex>1</trackindex>
						</sourcetrack>
						<labels>
							<label2>Iris</label2>
						</labels>
						<outputchannelindex>1</outputchannelindex>
					</clipitem>
					<clipitem id="clipitem-1568" premiereChannelType="stereo">
						<masterclipid>masterclip-2</masterclipid>
						<name>chandrika rocket equations</name>
						<start>37419</start>
						<end>37451</end>
						<in>63134</in>
						<out>63166</out>
						<file id="file-1" />
						<sourcetrack>
							<mediatype>audio</mediatype>
							<trackindex>1</trackindex>
						</sourcetrack>
						<labels>
							<label2>Iris</label2>
						</labels>
						<outputchannelindex>1</outputchannelindex>
					</clipitem>
					<clipitem id="clipitem-1569" premiereChannelType="stereo">
						<masterclipid>masterclip-2</masterclipid>
						<name>chandrika rocket equations</name>
						<start>37451</start>
						<end>37506</end>
						<in>63183</in>
						<out>63238</out>
						<file id="file-1" />
						<sourcetrack>
							<mediatype>audio</mediatype>
							<trackindex>1</trackindex>
						</sourcetrack>
						<labels>
							<label2>Iris</label2>
						</labels>
						<outputchannelindex>1</outputchannelindex>
					</clipitem>
					<clipitem id="clipitem-1570" premiereChannelType="stereo">
						<masterclipid>masterclip-2</masterclipid>
						<name>chandrika rocket equations</name>
						<start>37506</start>
						<end>37629</end>
						<in>63270</in>
						<out>63393</out>
						<file id="file-1" />
						<sourcetrack>
							<mediatype>audio</mediatype>
							<trackindex>1</trackindex>
						</sourcetrack>
						<labels>
							<label2>Iris</label2>
						</labels>
						<outputchannelindex>1</outputchannelindex>
					</clipitem>
					<clipitem id="clipitem-1571" premiereChannelType="stereo">
						<masterclipid>masterclip-2</masterclipid>
						<name>chandrika rocket equations</name>
						<start>37629</start>
						<end>37743</end>
						<in>63402</in>
						<out>63516</out>
						<file id="file-1" />
						<sourcetrack>
							<mediatype>audio</mediatype>
							<trackindex>1</trackindex>
						</sourcetrack>
						<labels>
							<label2>Iris</label2>
						</labels>
						<outputchannelindex>1</outputchannelindex>
					</clipitem>
					<clipitem id="clipitem-1572" premiereChannelType="stereo">
						<masterclipid>masterclip-2</masterclipid>
						<name>chandrika rocket equations</name>
						<start>37743</start>
						<end>37806</end>
						<in>63518</in>
						<out>63581</out>
						<file id="file-1" />
						<sourcetrack>
							<mediatype>audio</mediatype>
							<trackindex>1</trackindex>
						</sourcetrack>
						<labels>
							<label2>Iris</label2>
						</labels>
						<outputchannelindex>1</outputchannelindex>
					</clipitem>
					<clipitem id="clipitem-1573" premiereChannelType="stereo">
						<masterclipid>masterclip-2</masterclipid>
						<name>chandrika rocket equations</name>
						<start>37806</start>
						<end>37863</end>
						<in>63812</in>
						<out>63869</out>
						<file id="file-1" />
						<sourcetrack>
							<mediatype>audio</mediatype>
							<trackindex>1</trackindex>
						</sourcetrack>
						<labels>
							<label2>Iris</label2>
						</labels>
						<outputchannelindex>1</outputchannelindex>
					</clipitem>
					<clipitem id="clipitem-1574" premiereChannelType="stereo">
						<masterclipid>masterclip-2</masterclipid>
						<name>chandrika rocket equations</name>
						<start>37863</start>
						<end>37992</end>
						<in>63888</in>
						<out>64017</out>
						<file id="file-1" />
						<sourcetrack>
							<mediatype>audio</mediatype>
							<trackindex>1</trackindex>
						</sourcetrack>
						<labels>
							<label2>Iris</label2>
						</labels>
						<outputchannelindex>1</outputchannelindex>
					</clipitem>
					<clipitem id="clipitem-1575" premiereChannelType="stereo">
						<masterclipid>masterclip-2</masterclipid>
						<name>chandrika rocket equations</name>
						<start>37992</start>
						<end>38091</end>
						<in>64022</in>
						<out>64121</out>
						<file id="file-1" />
						<sourcetrack>
							<mediatype>audio</mediatype>
							<trackindex>1</trackindex>
						</sourcetrack>
						<labels>
							<label2>Iris</label2>
						</labels>
						<outputchannelindex>1</outputchannelindex>
					</clipitem>
					<clipitem id="clipitem-1576" premiereChannelType="stereo">
						<masterclipid>masterclip-2</masterclipid>
						<name>chandrika rocket equations</name>
						<start>38091</start>
						<end>38237</end>
						<in>64177</in>
						<out>64323</out>
						<file id="file-1" />
						<sourcetrack>
							<mediatype>audio</mediatype>
							<trackindex>1</trackindex>
						</sourcetrack>
						<labels>
							<label2>Iris</label2>
						</labels>
						<outputchannelindex>1</outputchannelindex>
					</clipitem>
					<clipitem id="clipitem-1577" premiereChannelType="stereo">
						<masterclipid>masterclip-2</masterclipid>
						<name>chandrika rocket equations</name>
						<start>38237</start>
						<end>38337</end>
						<in>64329</in>
						<out>64429</out>
						<file id="file-1" />
						<sourcetrack>
							<mediatype>audio</mediatype>
							<trackindex>1</trackindex>
						</sourcetrack>
						<labels>
							<label2>Iris</label2>
						</labels>
						<outputchannelindex>1</outputchannelindex>
					</clipitem>
					<clipitem id="clipitem-1578" premiereChannelType="stereo">
						<masterclipid>masterclip-2</masterclipid>
						<name>chandrika rocket equations</name>
						<start>38337</start>
						<end>38435</end>
						<in>64491</in>
						<out>64589</out>
						<file id="file-1" />
						<sourcetrack>
							<mediatype>audio</mediatype>
							<trackindex>1</trackindex>
						</sourcetrack>
						<labels>
							<label2>Iris</label2>
						</labels>
						<outputchannelindex>1</outputchannelindex>
					</clipitem>
					<clipitem id="clipitem-1579" premiereChannelType="stereo">
						<masterclipid>masterclip-2</masterclipid>
						<name>chandrika rocket equations</name>
						<start>38435</start>
						<end>38565</end>
						<in>64593</in>
						<out>64723</out>
						<file id="file-1" />
						<sourcetrack>
							<mediatype>audio</mediatype>
							<trackindex>1</trackindex>
						</sourcetrack>
						<labels>
							<label2>Iris</label2>
						</labels>
						<outputchannelindex>1</outputchannelindex>
					</clipitem>
					<clipitem id="clipitem-1580" premiereChannelType="stereo">
						<masterclipid>masterclip-2</masterclipid>
						<name>chandrika rocket equations</name>
						<start>38565</start>
						<end>38586</end>
						<in>64810</in>
						<out>64831</out>
						<file id="file-1" />
						<sourcetrack>
							<mediatype>audio</mediatype>
							<trackindex>1</trackindex>
						</sourcetrack>
						<labels>
							<label2>Iris</label2>
						</labels>
						<outputchannelindex>1</outputchannelindex>
					</clipitem>
					<clipitem id="clipitem-1581" premiereChannelType="stereo">
						<masterclipid>masterclip-2</masterclipid>
						<name>chandrika rocket equations</name>
						<start>38586</start>
						<end>38705</end>
						<in>64834</in>
						<out>64953</out>
						<file id="file-1" />
						<sourcetrack>
							<mediatype>audio</mediatype>
							<trackindex>1</trackindex>
						</sourcetrack>
						<labels>
							<label2>Iris</label2>
						</labels>
						<outputchannelindex>1</outputchannelindex>
					</clipitem>
					<clipitem id="clipitem-1582" premiereChannelType="stereo">
						<masterclipid>masterclip-2</masterclipid>
						<name>chandrika rocket equations</name>
						<start>38705</start>
						<end>38730</end>
						<in>64970</in>
						<out>64995</out>
						<file id="file-1" />
						<sourcetrack>
							<mediatype>audio</mediatype>
							<trackindex>1</trackindex>
						</sourcetrack>
						<labels>
							<label2>Iris</label2>
						</labels>
						<outputchannelindex>1</outputchannelindex>
					</clipitem>
					<clipitem id="clipitem-1583" premiereChannelType="stereo">
						<masterclipid>masterclip-2</masterclipid>
						<name>chandrika rocket equations</name>
						<start>38730</start>
						<end>38925</end>
						<in>64998</in>
						<out>65193</out>
						<file id="file-1" />
						<sourcetrack>
							<mediatype>audio</mediatype>
							<trackindex>1</trackindex>
						</sourcetrack>
						<labels>
							<label2>Iris</label2>
						</labels>
						<outputchannelindex>1</outputchannelindex>
					</clipitem>
					<clipitem id="clipitem-1584" premiereChannelType="stereo">
						<masterclipid>masterclip-2</masterclipid>
						<name>chandrika rocket equations</name>
						<start>38925</start>
						<end>38957</end>
						<in>65214</in>
						<out>65246</out>
						<file id="file-1" />
						<sourcetrack>
							<mediatype>audio</mediatype>
							<trackindex>1</trackindex>
						</sourcetrack>
						<labels>
							<label2>Iris</label2>
						</labels>
						<outputchannelindex>1</outputchannelindex>
					</clipitem>
					<clipitem id="clipitem-1585" premiereChannelType="stereo">
						<masterclipid>masterclip-2</masterclipid>
						<name>chandrika rocket equations</name>
						<start>38957</start>
						<end>39021</end>
						<in>65334</in>
						<out>65398</out>
						<file id="file-1" />
						<sourcetrack>
							<mediatype>audio</mediatype>
							<trackindex>1</trackindex>
						</sourcetrack>
						<labels>
							<label2>Iris</label2>
						</labels>
						<outputchannelindex>1</outputchannelindex>
					</clipitem>
					<clipitem id="clipitem-1586" premiereChannelType="stereo">
						<masterclipid>masterclip-2</masterclipid>
						<name>chandrika rocket equations</name>
						<start>39021</start>
						<end>39051</end>
						<in>65488</in>
						<out>65518</out>
						<file id="file-1" />
						<sourcetrack>
							<mediatype>audio</mediatype>
							<trackindex>1</trackindex>
						</sourcetrack>
						<labels>
							<label2>Iris</label2>
						</labels>
						<outputchannelindex>1</outputchannelindex>
					</clipitem>
					<clipitem id="clipitem-1587" premiereChannelType="stereo">
						<masterclipid>masterclip-2</masterclipid>
						<name>chandrika rocket equations</name>
						<start>39051</start>
						<end>39087</end>
						<in>65603</in>
						<out>65639</out>
						<file id="file-1" />
						<sourcetrack>
							<mediatype>audio</mediatype>
							<trackindex>1</trackindex>
						</sourcetrack>
						<labels>
							<label2>Iris</label2>
						</labels>
						<outputchannelindex>1</outputchannelindex>
					</clipitem>
					<clipitem id="clipitem-1588" premiereChannelType="stereo">
						<masterclipid>masterclip-2</masterclipid>
						<name>chandrika rocket equations</name>
						<start>39087</start>
						<end>39108</end>
						<in>65658</in>
						<out>65679</out>
						<file id="file-1" />
						<sourcetrack>
							<mediatype>audio</mediatype>
							<trackindex>1</trackindex>
						</sourcetrack>
						<labels>
							<label2>Iris</label2>
						</labels>
						<outputchannelindex>1</outputchannelindex>
					</clipitem>
					<clipitem id="clipitem-1589" premiereChannelType="stereo">
						<masterclipid>masterclip-2</masterclipid>
						<name>chandrika rocket equations</name>
						<start>39108</start>
						<end>39129</end>
						<in>65689</in>
						<out>65710</out>
						<file id="file-1" />
						<sourcetrack>
							<mediatype>audio</mediatype>
							<trackindex>1</trackindex>
						</sourcetrack>
						<labels>
							<label2>Iris</label2>
						</labels>
						<outputchannelindex>1</outputchannelindex>
					</clipitem>
					<clipitem id="clipitem-1590" premiereChannelType="stereo">
						<masterclipid>masterclip-2</masterclipid>
						<name>chandrika rocket equations</name>
						<start>39129</start>
						<end>39158</end>
						<in>65787</in>
						<out>65816</out>
						<file id="file-1" />
						<sourcetrack>
							<mediatype>audio</mediatype>
							<trackindex>1</trackindex>
						</sourcetrack>
						<labels>
							<label2>Iris</label2>
						</labels>
						<outputchannelindex>1</outputchannelindex>
					</clipitem>
					<clipitem id="clipitem-1591" premiereChannelType="stereo">
						<masterclipid>masterclip-2</masterclipid>
						<name>chandrika rocket equations</name>
						<start>39158</start>
						<end>39200</end>
						<in>65837</in>
						<out>65879</out>
						<file id="file-1" />
						<sourcetrack>
							<mediatype>audio</mediatype>
							<trackindex>1</trackindex>
						</sourcetrack>
						<labels>
							<label2>Iris</label2>
						</labels>
						<outputchannelindex>1</outputchannelindex>
					</clipitem>
					<clipitem id="clipitem-1592" premiereChannelType="stereo">
						<masterclipid>masterclip-2</masterclipid>
						<name>chandrika rocket equations</name>
						<start>39200</start>
						<end>39401</end>
						<in>65920</in>
						<out>66121</out>
						<file id="file-1" />
						<sourcetrack>
							<mediatype>audio</mediatype>
							<trackindex>1</trackindex>
						</sourcetrack>
						<labels>
							<label2>Iris</label2>
						</labels>
						<outputchannelindex>1</outputchannelindex>
					</clipitem>
					<clipitem id="clipitem-1593" premiereChannelType="stereo">
						<masterclipid>masterclip-2</masterclipid>
						<name>chandrika rocket equations</name>
						<start>39401</start>
						<end>39492</end>
						<in>66187</in>
						<out>66278</out>
						<file id="file-1" />
						<sourcetrack>
							<mediatype>audio</mediatype>
							<trackindex>1</trackindex>
						</sourcetrack>
						<labels>
							<label2>Iris</label2>
						</labels>
						<outputchannelindex>1</outputchannelindex>
					</clipitem>
					<clipitem id="clipitem-1594" premiereChannelType="stereo">
						<masterclipid>masterclip-2</masterclipid>
						<name>chandrika rocket equations</name>
						<start>39492</start>
						<end>39525</end>
						<in>66302</in>
						<out>66335</out>
						<file id="file-1" />
						<sourcetrack>
							<mediatype>audio</mediatype>
							<trackindex>1</trackindex>
						</sourcetrack>
						<labels>
							<label2>Iris</label2>
						</labels>
						<outputchannelindex>1</outputchannelindex>
					</clipitem>
					<clipitem id="clipitem-1595" premiereChannelType="stereo">
						<masterclipid>masterclip-2</masterclipid>
						<name>chandrika rocket equations</name>
						<start>39525</start>
						<end>39550</end>
						<in>66396</in>
						<out>66421</out>
						<file id="file-1" />
						<sourcetrack>
							<mediatype>audio</mediatype>
							<trackindex>1</trackindex>
						</sourcetrack>
						<labels>
							<label2>Iris</label2>
						</labels>
						<outputchannelindex>1</outputchannelindex>
					</clipitem>
					<clipitem id="clipitem-1596" premiereChannelType="stereo">
						<masterclipid>masterclip-2</masterclipid>
						<name>chandrika rocket equations</name>
						<start>39550</start>
						<end>39589</end>
						<in>66444</in>
						<out>66483</out>
						<file id="file-1" />
						<sourcetrack>
							<mediatype>audio</mediatype>
							<trackindex>1</trackindex>
						</sourcetrack>
						<labels>
							<label2>Iris</label2>
						</labels>
						<outputchannelindex>1</outputchannelindex>
					</clipitem>
					<clipitem id="clipitem-1597" premiereChannelType="stereo">
						<masterclipid>masterclip-2</masterclipid>
						<name>chandrika rocket equations</name>
						<start>39589</start>
						<end>39607</end>
						<in>66580</in>
						<out>66598</out>
						<file id="file-1" />
						<sourcetrack>
							<mediatype>audio</mediatype>
							<trackindex>1</trackindex>
						</sourcetrack>
						<labels>
							<label2>Iris</label2>
						</labels>
						<outputchannelindex>1</outputchannelindex>
					</clipitem>
					<clipitem id="clipitem-1598" premiereChannelType="stereo">
						<masterclipid>masterclip-2</masterclipid>
						<name>chandrika rocket equations</name>
						<start>39607</start>
						<end>39627</end>
						<in>66647</in>
						<out>66667</out>
						<file id="file-1" />
						<sourcetrack>
							<mediatype>audio</mediatype>
							<trackindex>1</trackindex>
						</sourcetrack>
						<labels>
							<label2>Iris</label2>
						</labels>
						<outputchannelindex>1</outputchannelindex>
					</clipitem>
					<clipitem id="clipitem-1599" premiereChannelType="stereo">
						<masterclipid>masterclip-2</masterclipid>
						<name>chandrika rocket equations</name>
						<start>39627</start>
						<end>39646</end>
						<in>66704</in>
						<out>66723</out>
						<file id="file-1" />
						<sourcetrack>
							<mediatype>audio</mediatype>
							<trackindex>1</trackindex>
						</sourcetrack>
						<labels>
							<label2>Iris</label2>
						</labels>
						<outputchannelindex>1</outputchannelindex>
					</clipitem>
					<clipitem id="clipitem-1600" premiereChannelType="stereo">
						<masterclipid>masterclip-2</masterclipid>
						<name>chandrika rocket equations</name>
						<start>39646</start>
						<end>39668</end>
						<in>66776</in>
						<out>66798</out>
						<file id="file-1" />
						<sourcetrack>
							<mediatype>audio</mediatype>
							<trackindex>1</trackindex>
						</sourcetrack>
						<labels>
							<label2>Iris</label2>
						</labels>
						<outputchannelindex>1</outputchannelindex>
					</clipitem>
					<clipitem id="clipitem-1601" premiereChannelType="stereo">
						<masterclipid>masterclip-2</masterclipid>
						<name>chandrika rocket equations</name>
						<start>39668</start>
						<end>39687</end>
						<in>66885</in>
						<out>66904</out>
						<file id="file-1" />
						<sourcetrack>
							<mediatype>audio</mediatype>
							<trackindex>1</trackindex>
						</sourcetrack>
						<labels>
							<label2>Iris</label2>
						</labels>
						<outputchannelindex>1</outputchannelindex>
					</clipitem>
					<clipitem id="clipitem-1602" premiereChannelType="stereo">
						<masterclipid>masterclip-2</masterclipid>
						<name>chandrika rocket equations</name>
						<start>39687</start>
						<end>39769</end>
						<in>66964</in>
						<out>67046</out>
						<file id="file-1" />
						<sourcetrack>
							<mediatype>audio</mediatype>
							<trackindex>1</trackindex>
						</sourcetrack>
						<labels>
							<label2>Iris</label2>
						</labels>
						<outputchannelindex>1</outputchannelindex>
					</clipitem>
					<clipitem id="clipitem-1603" premiereChannelType="stereo">
						<masterclipid>masterclip-2</masterclipid>
						<name>chandrika rocket equations</name>
						<start>39769</start>
						<end>39818</end>
						<in>67116</in>
						<out>67165</out>
						<file id="file-1" />
						<sourcetrack>
							<mediatype>audio</mediatype>
							<trackindex>1</trackindex>
						</sourcetrack>
						<labels>
							<label2>Iris</label2>
						</labels>
						<outputchannelindex>1</outputchannelindex>
					</clipitem>
					<clipitem id="clipitem-1604" premiereChannelType="stereo">
						<masterclipid>masterclip-2</masterclipid>
						<name>chandrika rocket equations</name>
						<start>39818</start>
						<end>39915</end>
						<in>67272</in>
						<out>67369</out>
						<file id="file-1" />
						<sourcetrack>
							<mediatype>audio</mediatype>
							<trackindex>1</trackindex>
						</sourcetrack>
						<labels>
							<label2>Iris</label2>
						</labels>
						<outputchannelindex>1</outputchannelindex>
					</clipitem>
					<clipitem id="clipitem-1605" premiereChannelType="stereo">
						<masterclipid>masterclip-2</masterclipid>
						<name>chandrika rocket equations</name>
						<start>39915</start>
						<end>39958</end>
						<in>67395</in>
						<out>67438</out>
						<file id="file-1" />
						<sourcetrack>
							<mediatype>audio</mediatype>
							<trackindex>1</trackindex>
						</sourcetrack>
						<labels>
							<label2>Iris</label2>
						</labels>
						<outputchannelindex>1</outputchannelindex>
					</clipitem>
					<clipitem id="clipitem-1606" premiereChannelType="stereo">
						<masterclipid>masterclip-2</masterclipid>
						<name>chandrika rocket equations</name>
						<start>39958</start>
						<end>39993</end>
						<in>67462</in>
						<out>67497</out>
						<file id="file-1" />
						<sourcetrack>
							<mediatype>audio</mediatype>
							<trackindex>1</trackindex>
						</sourcetrack>
						<labels>
							<label2>Iris</label2>
						</labels>
						<outputchannelindex>1</outputchannelindex>
					</clipitem>
					<clipitem id="clipitem-1607" premiereChannelType="stereo">
						<masterclipid>masterclip-2</masterclipid>
						<name>chandrika rocket equations</name>
						<start>39993</start>
						<end>40129</end>
						<in>67560</in>
						<out>67696</out>
						<file id="file-1" />
						<sourcetrack>
							<mediatype>audio</mediatype>
							<trackindex>1</trackindex>
						</sourcetrack>
						<labels>
							<label2>Iris</label2>
						</labels>
						<outputchannelindex>1</outputchannelindex>
					</clipitem>
					<clipitem id="clipitem-1608" premiereChannelType="stereo">
						<masterclipid>masterclip-2</masterclipid>
						<name>chandrika rocket equations</name>
						<start>40129</start>
						<end>40171</end>
						<in>67823</in>
						<out>67865</out>
						<file id="file-1" />
						<sourcetrack>
							<mediatype>audio</mediatype>
							<trackindex>1</trackindex>
						</sourcetrack>
						<labels>
							<label2>Iris</label2>
						</labels>
						<outputchannelindex>1</outputchannelindex>
					</clipitem>
					<clipitem id="clipitem-1609" premiereChannelType="stereo">
						<masterclipid>masterclip-2</masterclipid>
						<name>chandrika rocket equations</name>
						<start>40171</start>
						<end>40199</end>
						<in>67931</in>
						<out>67959</out>
						<file id="file-1" />
						<sourcetrack>
							<mediatype>audio</mediatype>
							<trackindex>1</trackindex>
						</sourcetrack>
						<labels>
							<label2>Iris</label2>
						</labels>
						<outputchannelindex>1</outputchannelindex>
					</clipitem>
					<clipitem id="clipitem-1610" premiereChannelType="stereo">
						<masterclipid>masterclip-2</masterclipid>
						<name>chandrika rocket equations</name>
						<start>40199</start>
						<end>40290</end>
						<in>67984</in>
						<out>68075</out>
						<file id="file-1" />
						<sourcetrack>
							<mediatype>audio</mediatype>
							<trackindex>1</trackindex>
						</sourcetrack>
						<labels>
							<label2>Iris</label2>
						</labels>
						<outputchannelindex>1</outputchannelindex>
					</clipitem>
					<clipitem id="clipitem-1611" premiereChannelType="stereo">
						<masterclipid>masterclip-2</masterclipid>
						<name>chandrika rocket equations</name>
						<start>40290</start>
						<end>40320</end>
						<in>68098</in>
						<out>68128</out>
						<file id="file-1" />
						<sourcetrack>
							<mediatype>audio</mediatype>
							<trackindex>1</trackindex>
						</sourcetrack>
						<labels>
							<label2>Iris</label2>
						</labels>
						<outputchannelindex>1</outputchannelindex>
					</clipitem>
					<clipitem id="clipitem-1612" premiereChannelType="stereo">
						<masterclipid>masterclip-2</masterclipid>
						<name>chandrika rocket equations</name>
						<start>40320</start>
						<end>40343</end>
						<in>68319</in>
						<out>68342</out>
						<file id="file-1" />
						<sourcetrack>
							<mediatype>audio</mediatype>
							<trackindex>1</trackindex>
						</sourcetrack>
						<labels>
							<label2>Iris</label2>
						</labels>
						<outputchannelindex>1</outputchannelindex>
					</clipitem>
					<clipitem id="clipitem-1613" premiereChannelType="stereo">
						<masterclipid>masterclip-2</masterclipid>
						<name>chandrika rocket equations</name>
						<start>40343</start>
						<end>40406</end>
						<in>68361</in>
						<out>68424</out>
						<file id="file-1" />
						<sourcetrack>
							<mediatype>audio</mediatype>
							<trackindex>1</trackindex>
						</sourcetrack>
						<labels>
							<label2>Iris</label2>
						</labels>
						<outputchannelindex>1</outputchannelindex>
					</clipitem>
					<clipitem id="clipitem-1614" premiereChannelType="stereo">
						<masterclipid>masterclip-2</masterclipid>
						<name>chandrika rocket equations</name>
						<start>40406</start>
						<end>40577</end>
						<in>68529</in>
						<out>68700</out>
						<file id="file-1" />
						<sourcetrack>
							<mediatype>audio</mediatype>
							<trackindex>1</trackindex>
						</sourcetrack>
						<labels>
							<label2>Iris</label2>
						</labels>
						<outputchannelindex>1</outputchannelindex>
					</clipitem>
					<clipitem id="clipitem-1615" premiereChannelType="stereo">
						<masterclipid>masterclip-2</masterclipid>
						<name>chandrika rocket equations</name>
						<start>40577</start>
						<end>40614</end>
						<in>68722</in>
						<out>68759</out>
						<file id="file-1" />
						<sourcetrack>
							<mediatype>audio</mediatype>
							<trackindex>1</trackindex>
						</sourcetrack>
						<labels>
							<label2>Iris</label2>
						</labels>
						<outputchannelindex>1</outputchannelindex>
					</clipitem>
					<clipitem id="clipitem-1616" premiereChannelType="stereo">
						<masterclipid>masterclip-2</masterclipid>
						<name>chandrika rocket equations</name>
						<start>40614</start>
						<end>40665</end>
						<in>68806</in>
						<out>68857</out>
						<file id="file-1" />
						<sourcetrack>
							<mediatype>audio</mediatype>
							<trackindex>1</trackindex>
						</sourcetrack>
						<labels>
							<label2>Iris</label2>
						</labels>
						<outputchannelindex>1</outputchannelindex>
					</clipitem>
					<clipitem id="clipitem-1617" premiereChannelType="stereo">
						<masterclipid>masterclip-2</masterclipid>
						<name>chandrika rocket equations</name>
						<start>40665</start>
						<end>40689</end>
						<in>68927</in>
						<out>68951</out>
						<file id="file-1" />
						<sourcetrack>
							<mediatype>audio</mediatype>
							<trackindex>1</trackindex>
						</sourcetrack>
						<labels>
							<label2>Iris</label2>
						</labels>
						<outputchannelindex>1</outputchannelindex>
					</clipitem>
					<clipitem id="clipitem-1618" premiereChannelType="stereo">
						<masterclipid>masterclip-2</masterclipid>
						<name>chandrika rocket equations</name>
						<start>40689</start>
						<end>40750</end>
						<in>69017</in>
						<out>69078</out>
						<file id="file-1" />
						<sourcetrack>
							<mediatype>audio</mediatype>
							<trackindex>1</trackindex>
						</sourcetrack>
						<labels>
							<label2>Iris</label2>
						</labels>
						<outputchannelindex>1</outputchannelindex>
					</clipitem>
					<clipitem id="clipitem-1619" premiereChannelType="stereo">
						<masterclipid>masterclip-2</masterclipid>
						<name>chandrika rocket equations</name>
						<start>40750</start>
						<end>40824</end>
						<in>69108</in>
						<out>69182</out>
						<file id="file-1" />
						<sourcetrack>
							<mediatype>audio</mediatype>
							<trackindex>1</trackindex>
						</sourcetrack>
						<labels>
							<label2>Iris</label2>
						</labels>
						<outputchannelindex>1</outputchannelindex>
					</clipitem>
					<clipitem id="clipitem-1620" premiereChannelType="stereo">
						<masterclipid>masterclip-2</masterclipid>
						<name>chandrika rocket equations</name>
						<start>40824</start>
						<end>40968</end>
						<in>69228</in>
						<out>69372</out>
						<file id="file-1" />
						<sourcetrack>
							<mediatype>audio</mediatype>
							<trackindex>1</trackindex>
						</sourcetrack>
						<labels>
							<label2>Iris</label2>
						</labels>
						<outputchannelindex>1</outputchannelindex>
					</clipitem>
					<clipitem id="clipitem-1621" premiereChannelType="stereo">
						<masterclipid>masterclip-2</masterclipid>
						<name>chandrika rocket equations</name>
						<start>40968</start>
						<end>41065</end>
						<in>69392</in>
						<out>69489</out>
						<file id="file-1" />
						<sourcetrack>
							<mediatype>audio</mediatype>
							<trackindex>1</trackindex>
						</sourcetrack>
						<labels>
							<label2>Iris</label2>
						</labels>
						<outputchannelindex>1</outputchannelindex>
					</clipitem>
					<clipitem id="clipitem-1622" premiereChannelType="stereo">
						<masterclipid>masterclip-2</masterclipid>
						<name>chandrika rocket equations</name>
						<start>41065</start>
						<end>41102</end>
						<in>69537</in>
						<out>69574</out>
						<file id="file-1" />
						<sourcetrack>
							<mediatype>audio</mediatype>
							<trackindex>1</trackindex>
						</sourcetrack>
						<labels>
							<label2>Iris</label2>
						</labels>
						<outputchannelindex>1</outputchannelindex>
					</clipitem>
					<clipitem id="clipitem-1623" premiereChannelType="stereo">
						<masterclipid>masterclip-2</masterclipid>
						<name>chandrika rocket equations</name>
						<start>41102</start>
						<end>41150</end>
						<in>69591</in>
						<out>69639</out>
						<file id="file-1" />
						<sourcetrack>
							<mediatype>audio</mediatype>
							<trackindex>1</trackindex>
						</sourcetrack>
						<labels>
							<label2>Iris</label2>
						</labels>
						<outputchannelindex>1</outputchannelindex>
					</clipitem>
					<clipitem id="clipitem-1624" premiereChannelType="stereo">
						<masterclipid>masterclip-2</masterclipid>
						<name>chandrika rocket equations</name>
						<start>41150</start>
						<end>41312</end>
						<in>69662</in>
						<out>69824</out>
						<file id="file-1" />
						<sourcetrack>
							<mediatype>audio</mediatype>
							<trackindex>1</trackindex>
						</sourcetrack>
						<labels>
							<label2>Iris</label2>
						</labels>
						<outputchannelindex>1</outputchannelindex>
					</clipitem>
					<clipitem id="clipitem-1625" premiereChannelType="stereo">
						<masterclipid>masterclip-2</masterclipid>
						<name>chandrika rocket equations</name>
						<start>41312</start>
						<end>41402</end>
						<in>69825</in>
						<out>69915</out>
						<file id="file-1" />
						<sourcetrack>
							<mediatype>audio</mediatype>
							<trackindex>1</trackindex>
						</sourcetrack>
						<labels>
							<label2>Iris</label2>
						</labels>
						<outputchannelindex>1</outputchannelindex>
					</clipitem>
					<clipitem id="clipitem-1626" premiereChannelType="stereo">
						<masterclipid>masterclip-2</masterclipid>
						<name>chandrika rocket equations</name>
						<start>41402</start>
						<end>41471</end>
						<in>69945</in>
						<out>70014</out>
						<file id="file-1" />
						<sourcetrack>
							<mediatype>audio</mediatype>
							<trackindex>1</trackindex>
						</sourcetrack>
						<labels>
							<label2>Iris</label2>
						</labels>
						<outputchannelindex>1</outputchannelindex>
					</clipitem>
					<clipitem id="clipitem-1627" premiereChannelType="stereo">
						<masterclipid>masterclip-2</masterclipid>
						<name>chandrika rocket equations</name>
						<start>41471</start>
						<end>41505</end>
						<in>70031</in>
						<out>70065</out>
						<file id="file-1" />
						<sourcetrack>
							<mediatype>audio</mediatype>
							<trackindex>1</trackindex>
						</sourcetrack>
						<labels>
							<label2>Iris</label2>
						</labels>
						<outputchannelindex>1</outputchannelindex>
					</clipitem>
					<clipitem id="clipitem-1628" premiereChannelType="stereo">
						<masterclipid>masterclip-2</masterclipid>
						<name>chandrika rocket equations</name>
						<start>41505</start>
						<end>41531</end>
						<in>70125</in>
						<out>70151</out>
						<file id="file-1" />
						<sourcetrack>
							<mediatype>audio</mediatype>
							<trackindex>1</trackindex>
						</sourcetrack>
						<labels>
							<label2>Iris</label2>
						</labels>
						<outputchannelindex>1</outputchannelindex>
					</clipitem>
					<clipitem id="clipitem-1629" premiereChannelType="stereo">
						<masterclipid>masterclip-2</masterclipid>
						<name>chandrika rocket equations</name>
						<start>41531</start>
						<end>41643</end>
						<in>70175</in>
						<out>70287</out>
						<file id="file-1" />
						<sourcetrack>
							<mediatype>audio</mediatype>
							<trackindex>1</trackindex>
						</sourcetrack>
						<labels>
							<label2>Iris</label2>
						</labels>
						<outputchannelindex>1</outputchannelindex>
					</clipitem>
					<clipitem id="clipitem-1630" premiereChannelType="stereo">
						<masterclipid>masterclip-2</masterclipid>
						<name>chandrika rocket equations</name>
						<start>41643</start>
						<end>41698</end>
						<in>70327</in>
						<out>70382</out>
						<file id="file-1" />
						<sourcetrack>
							<mediatype>audio</mediatype>
							<trackindex>1</trackindex>
						</sourcetrack>
						<labels>
							<label2>Iris</label2>
						</labels>
						<outputchannelindex>1</outputchannelindex>
					</clipitem>
					<clipitem id="clipitem-1631" premiereChannelType="stereo">
						<masterclipid>masterclip-2</masterclipid>
						<name>chandrika rocket equations</name>
						<start>41698</start>
						<end>41763</end>
						<in>70403</in>
						<out>70468</out>
						<file id="file-1" />
						<sourcetrack>
							<mediatype>audio</mediatype>
							<trackindex>1</trackindex>
						</sourcetrack>
						<labels>
							<label2>Iris</label2>
						</labels>
						<outputchannelindex>1</outputchannelindex>
					</clipitem>
					<clipitem id="clipitem-1632" premiereChannelType="stereo">
						<masterclipid>masterclip-2</masterclipid>
						<name>chandrika rocket equations</name>
						<start>41763</start>
						<end>41811</end>
						<in>70575</in>
						<out>70623</out>
						<file id="file-1" />
						<sourcetrack>
							<mediatype>audio</mediatype>
							<trackindex>1</trackindex>
						</sourcetrack>
						<labels>
							<label2>Iris</label2>
						</labels>
						<outputchannelindex>1</outputchannelindex>
					</clipitem>
					<clipitem id="clipitem-1633" premiereChannelType="stereo">
						<masterclipid>masterclip-2</masterclipid>
						<name>chandrika rocket equations</name>
						<start>41811</start>
						<end>41827</end>
						<in>70634</in>
						<out>70650</out>
						<file id="file-1" />
						<sourcetrack>
							<mediatype>audio</mediatype>
							<trackindex>1</trackindex>
						</sourcetrack>
						<labels>
							<label2>Iris</label2>
						</labels>
						<outputchannelindex>1</outputchannelindex>
					</clipitem>
					<clipitem id="clipitem-1634" premiereChannelType="stereo">
						<masterclipid>masterclip-2</masterclipid>
						<name>chandrika rocket equations</name>
						<start>41827</start>
						<end>41843</end>
						<in>70755</in>
						<out>70771</out>
						<file id="file-1" />
						<sourcetrack>
							<mediatype>audio</mediatype>
							<trackindex>1</trackindex>
						</sourcetrack>
						<labels>
							<label2>Iris</label2>
						</labels>
						<outputchannelindex>1</outputchannelindex>
					</clipitem>
					<clipitem id="clipitem-1635" premiereChannelType="stereo">
						<masterclipid>masterclip-2</masterclipid>
						<name>chandrika rocket equations</name>
						<start>41843</start>
						<end>41865</end>
						<in>70827</in>
						<out>70849</out>
						<file id="file-1" />
						<sourcetrack>
							<mediatype>audio</mediatype>
							<trackindex>1</trackindex>
						</sourcetrack>
						<labels>
							<label2>Iris</label2>
						</labels>
						<outputchannelindex>1</outputchannelindex>
					</clipitem>
					<clipitem id="clipitem-1636" premiereChannelType="stereo">
						<masterclipid>masterclip-2</masterclipid>
						<name>chandrika rocket equations</name>
						<start>41865</start>
						<end>41928</end>
						<in>71030</in>
						<out>71093</out>
						<file id="file-1" />
						<sourcetrack>
							<mediatype>audio</mediatype>
							<trackindex>1</trackindex>
						</sourcetrack>
						<labels>
							<label2>Iris</label2>
						</labels>
						<outputchannelindex>1</outputchannelindex>
					</clipitem>
					<clipitem id="clipitem-1637" premiereChannelType="stereo">
						<masterclipid>masterclip-2</masterclipid>
						<name>chandrika rocket equations</name>
						<start>41928</start>
						<end>42038</end>
						<in>71132</in>
						<out>71242</out>
						<file id="file-1" />
						<sourcetrack>
							<mediatype>audio</mediatype>
							<trackindex>1</trackindex>
						</sourcetrack>
						<labels>
							<label2>Iris</label2>
						</labels>
						<outputchannelindex>1</outputchannelindex>
					</clipitem>
					<clipitem id="clipitem-1638" premiereChannelType="stereo">
						<masterclipid>masterclip-2</masterclipid>
						<name>chandrika rocket equations</name>
						<start>42038</start>
						<end>42094</end>
						<in>71256</in>
						<out>71312</out>
						<file id="file-1" />
						<sourcetrack>
							<mediatype>audio</mediatype>
							<trackindex>1</trackindex>
						</sourcetrack>
						<labels>
							<label2>Iris</label2>
						</labels>
						<outputchannelindex>1</outputchannelindex>
					</clipitem>
					<clipitem id="clipitem-1639" premiereChannelType="stereo">
						<masterclipid>masterclip-2</masterclipid>
						<name>chandrika rocket equations</name>
						<start>42094</start>
						<end>42127</end>
						<in>71353</in>
						<out>71386</out>
						<file id="file-1" />
						<sourcetrack>
							<mediatype>audio</mediatype>
							<trackindex>1</trackindex>
						</sourcetrack>
						<labels>
							<label2>Iris</label2>
						</labels>
						<outputchannelindex>1</outputchannelindex>
					</clipitem>
					<clipitem id="clipitem-1640" premiereChannelType="stereo">
						<masterclipid>masterclip-2</masterclipid>
						<name>chandrika rocket equations</name>
						<start>42127</start>
						<end>42153</end>
						<in>71389</in>
						<out>71415</out>
						<file id="file-1" />
						<sourcetrack>
							<mediatype>audio</mediatype>
							<trackindex>1</trackindex>
						</sourcetrack>
						<labels>
							<label2>Iris</label2>
						</labels>
						<outputchannelindex>1</outputchannelindex>
					</clipitem>
					<clipitem id="clipitem-1641" premiereChannelType="stereo">
						<masterclipid>masterclip-2</masterclipid>
						<name>chandrika rocket equations</name>
						<start>42153</start>
						<end>42179</end>
						<in>71440</in>
						<out>71466</out>
						<file id="file-1" />
						<sourcetrack>
							<mediatype>audio</mediatype>
							<trackindex>1</trackindex>
						</sourcetrack>
						<labels>
							<label2>Iris</label2>
						</labels>
						<outputchannelindex>1</outputchannelindex>
					</clipitem>
					<clipitem id="clipitem-1642" premiereChannelType="stereo">
						<masterclipid>masterclip-2</masterclipid>
						<name>chandrika rocket equations</name>
						<start>42179</start>
						<end>42194</end>
						<in>71472</in>
						<out>71487</out>
						<file id="file-1" />
						<sourcetrack>
							<mediatype>audio</mediatype>
							<trackindex>1</trackindex>
						</sourcetrack>
						<labels>
							<label2>Iris</label2>
						</labels>
						<outputchannelindex>1</outputchannelindex>
					</clipitem>
					<clipitem id="clipitem-1643" premiereChannelType="stereo">
						<masterclipid>masterclip-2</masterclipid>
						<name>chandrika rocket equations</name>
						<start>42194</start>
						<end>42225</end>
						<in>71528</in>
						<out>71559</out>
						<file id="file-1" />
						<sourcetrack>
							<mediatype>audio</mediatype>
							<trackindex>1</trackindex>
						</sourcetrack>
						<labels>
							<label2>Iris</label2>
						</labels>
						<outputchannelindex>1</outputchannelindex>
					</clipitem>
					<clipitem id="clipitem-1644" premiereChannelType="stereo">
						<masterclipid>masterclip-2</masterclipid>
						<name>chandrika rocket equations</name>
						<start>42225</start>
						<end>42316</end>
						<in>71565</in>
						<out>71656</out>
						<file id="file-1" />
						<sourcetrack>
							<mediatype>audio</mediatype>
							<trackindex>1</trackindex>
						</sourcetrack>
						<labels>
							<label2>Iris</label2>
						</labels>
						<outputchannelindex>1</outputchannelindex>
					</clipitem>
					<clipitem id="clipitem-1645" premiereChannelType="stereo">
						<masterclipid>masterclip-2</masterclipid>
						<name>chandrika rocket equations</name>
						<start>42316</start>
						<end>42348</end>
						<in>71659</in>
						<out>71691</out>
						<file id="file-1" />
						<sourcetrack>
							<mediatype>audio</mediatype>
							<trackindex>1</trackindex>
						</sourcetrack>
						<labels>
							<label2>Iris</label2>
						</labels>
						<outputchannelindex>1</outputchannelindex>
					</clipitem>
					<clipitem id="clipitem-1646" premiereChannelType="stereo">
						<masterclipid>masterclip-2</masterclipid>
						<name>chandrika rocket equations</name>
						<start>42348</start>
						<end>42434</end>
						<in>71698</in>
						<out>71784</out>
						<file id="file-1" />
						<sourcetrack>
							<mediatype>audio</mediatype>
							<trackindex>1</trackindex>
						</sourcetrack>
						<labels>
							<label2>Iris</label2>
						</labels>
						<outputchannelindex>1</outputchannelindex>
					</clipitem>
					<clipitem id="clipitem-1647" premiereChannelType="stereo">
						<masterclipid>masterclip-2</masterclipid>
						<name>chandrika rocket equations</name>
						<start>42434</start>
						<end>42451</end>
						<in>71817</in>
						<out>71834</out>
						<file id="file-1" />
						<sourcetrack>
							<mediatype>audio</mediatype>
							<trackindex>1</trackindex>
						</sourcetrack>
						<labels>
							<label2>Iris</label2>
						</labels>
						<outputchannelindex>1</outputchannelindex>
					</clipitem>
					<clipitem id="clipitem-1648" premiereChannelType="stereo">
						<masterclipid>masterclip-2</masterclipid>
						<name>chandrika rocket equations</name>
						<start>42451</start>
						<end>42483</end>
						<in>71844</in>
						<out>71876</out>
						<file id="file-1" />
						<sourcetrack>
							<mediatype>audio</mediatype>
							<trackindex>1</trackindex>
						</sourcetrack>
						<labels>
							<label2>Iris</label2>
						</labels>
						<outputchannelindex>1</outputchannelindex>
					</clipitem>
					<clipitem id="clipitem-1649" premiereChannelType="stereo">
						<masterclipid>masterclip-2</masterclipid>
						<name>chandrika rocket equations</name>
						<start>42483</start>
						<end>42509</end>
						<in>71883</in>
						<out>71909</out>
						<file id="file-1" />
						<sourcetrack>
							<mediatype>audio</mediatype>
							<trackindex>1</trackindex>
						</sourcetrack>
						<labels>
							<label2>Iris</label2>
						</labels>
						<outputchannelindex>1</outputchannelindex>
					</clipitem>
					<clipitem id="clipitem-1650" premiereChannelType="stereo">
						<masterclipid>masterclip-2</masterclipid>
						<name>chandrika rocket equations</name>
						<start>42509</start>
						<end>42526</end>
						<in>71923</in>
						<out>71940</out>
						<file id="file-1" />
						<sourcetrack>
							<mediatype>audio</mediatype>
							<trackindex>1</trackindex>
						</sourcetrack>
						<labels>
							<label2>Iris</label2>
						</labels>
						<outputchannelindex>1</outputchannelindex>
					</clipitem>
					<clipitem id="clipitem-1651" premiereChannelType="stereo">
						<masterclipid>masterclip-2</masterclipid>
						<name>chandrika rocket equations</name>
						<start>42526</start>
						<end>42564</end>
						<in>71946</in>
						<out>71984</out>
						<file id="file-1" />
						<sourcetrack>
							<mediatype>audio</mediatype>
							<trackindex>1</trackindex>
						</sourcetrack>
						<labels>
							<label2>Iris</label2>
						</labels>
						<outputchannelindex>1</outputchannelindex>
					</clipitem>
					<clipitem id="clipitem-1652" premiereChannelType="stereo">
						<masterclipid>masterclip-2</masterclipid>
						<name>chandrika rocket equations</name>
						<start>42564</start>
						<end>42756</end>
						<in>71991</in>
						<out>72183</out>
						<file id="file-1" />
						<sourcetrack>
							<mediatype>audio</mediatype>
							<trackindex>1</trackindex>
						</sourcetrack>
						<labels>
							<label2>Iris</label2>
						</labels>
						<outputchannelindex>1</outputchannelindex>
					</clipitem>
					<clipitem id="clipitem-1653" premiereChannelType="stereo">
						<masterclipid>masterclip-2</masterclipid>
						<name>chandrika rocket equations</name>
						<start>42756</start>
						<end>42939</end>
						<in>72184</in>
						<out>72367</out>
						<file id="file-1" />
						<sourcetrack>
							<mediatype>audio</mediatype>
							<trackindex>1</trackindex>
						</sourcetrack>
						<labels>
							<label2>Iris</label2>
						</labels>
						<outputchannelindex>1</outputchannelindex>
					</clipitem>
					<clipitem id="clipitem-1654" premiereChannelType="stereo">
						<masterclipid>masterclip-2</masterclipid>
						<name>chandrika rocket equations</name>
						<start>42939</start>
						<end>42984</end>
						<in>72399</in>
						<out>72444</out>
						<file id="file-1" />
						<sourcetrack>
							<mediatype>audio</mediatype>
							<trackindex>1</trackindex>
						</sourcetrack>
						<labels>
							<label2>Iris</label2>
						</labels>
						<outputchannelindex>1</outputchannelindex>
					</clipitem>
					<clipitem id="clipitem-1655" premiereChannelType="stereo">
						<masterclipid>masterclip-2</masterclipid>
						<name>chandrika rocket equations</name>
						<start>42984</start>
						<end>43028</end>
						<in>72453</in>
						<out>72497</out>
						<file id="file-1" />
						<sourcetrack>
							<mediatype>audio</mediatype>
							<trackindex>1</trackindex>
						</sourcetrack>
						<labels>
							<label2>Iris</label2>
						</labels>
						<outputchannelindex>1</outputchannelindex>
					</clipitem>
					<clipitem id="clipitem-1656" premiereChannelType="stereo">
						<masterclipid>masterclip-2</masterclipid>
						<name>chandrika rocket equations</name>
						<start>43028</start>
						<end>43078</end>
						<in>72499</in>
						<out>72549</out>
						<file id="file-1" />
						<sourcetrack>
							<mediatype>audio</mediatype>
							<trackindex>1</trackindex>
						</sourcetrack>
						<labels>
							<label2>Iris</label2>
						</labels>
						<outputchannelindex>1</outputchannelindex>
					</clipitem>
					<clipitem id="clipitem-1657" premiereChannelType="stereo">
						<masterclipid>masterclip-2</masterclipid>
						<name>chandrika rocket equations</name>
						<start>43078</start>
						<end>43113</end>
						<in>72569</in>
						<out>72604</out>
						<file id="file-1" />
						<sourcetrack>
							<mediatype>audio</mediatype>
							<trackindex>1</trackindex>
						</sourcetrack>
						<labels>
							<label2>Iris</label2>
						</labels>
						<outputchannelindex>1</outputchannelindex>
					</clipitem>
					<clipitem id="clipitem-1658" premiereChannelType="stereo">
						<masterclipid>masterclip-2</masterclipid>
						<name>chandrika rocket equations</name>
						<start>43113</start>
						<end>43129</end>
						<in>72606</in>
						<out>72622</out>
						<file id="file-1" />
						<sourcetrack>
							<mediatype>audio</mediatype>
							<trackindex>1</trackindex>
						</sourcetrack>
						<labels>
							<label2>Iris</label2>
						</labels>
						<outputchannelindex>1</outputchannelindex>
					</clipitem>
					<clipitem id="clipitem-1659" premiereChannelType="stereo">
						<masterclipid>masterclip-2</masterclipid>
						<name>chandrika rocket equations</name>
						<start>43129</start>
						<end>43305</end>
						<in>72711</in>
						<out>72887</out>
						<file id="file-1" />
						<sourcetrack>
							<mediatype>audio</mediatype>
							<trackindex>1</trackindex>
						</sourcetrack>
						<labels>
							<label2>Iris</label2>
						</labels>
						<outputchannelindex>1</outputchannelindex>
					</clipitem>
					<clipitem id="clipitem-1660" premiereChannelType="stereo">
						<masterclipid>masterclip-2</masterclipid>
						<name>chandrika rocket equations</name>
						<start>43305</start>
						<end>43324</end>
						<in>72897</in>
						<out>72916</out>
						<file id="file-1" />
						<sourcetrack>
							<mediatype>audio</mediatype>
							<trackindex>1</trackindex>
						</sourcetrack>
						<labels>
							<label2>Iris</label2>
						</labels>
						<outputchannelindex>1</outputchannelindex>
					</clipitem>
					<clipitem id="clipitem-1661" premiereChannelType="stereo">
						<masterclipid>masterclip-2</masterclipid>
						<name>chandrika rocket equations</name>
						<start>43324</start>
						<end>43435</end>
						<in>72932</in>
						<out>73043</out>
						<file id="file-1" />
						<sourcetrack>
							<mediatype>audio</mediatype>
							<trackindex>1</trackindex>
						</sourcetrack>
						<labels>
							<label2>Iris</label2>
						</labels>
						<outputchannelindex>1</outputchannelindex>
					</clipitem>
					<clipitem id="clipitem-1662" premiereChannelType="stereo">
						<masterclipid>masterclip-2</masterclipid>
						<name>chandrika rocket equations</name>
						<start>43435</start>
						<end>43472</end>
						<in>73053</in>
						<out>73090</out>
						<file id="file-1" />
						<sourcetrack>
							<mediatype>audio</mediatype>
							<trackindex>1</trackindex>
						</sourcetrack>
						<labels>
							<label2>Iris</label2>
						</labels>
						<outputchannelindex>1</outputchannelindex>
					</clipitem>
					<clipitem id="clipitem-1663" premiereChannelType="stereo">
						<masterclipid>masterclip-2</masterclipid>
						<name>chandrika rocket equations</name>
						<start>43472</start>
						<end>43521</end>
						<in>73102</in>
						<out>73151</out>
						<file id="file-1" />
						<sourcetrack>
							<mediatype>audio</mediatype>
							<trackindex>1</trackindex>
						</sourcetrack>
						<labels>
							<label2>Iris</label2>
						</labels>
						<outputchannelindex>1</outputchannelindex>
					</clipitem>
					<clipitem id="clipitem-1664" premiereChannelType="stereo">
						<masterclipid>masterclip-2</masterclipid>
						<name>chandrika rocket equations</name>
						<start>43521</start>
						<end>43705</end>
						<in>73203</in>
						<out>73387</out>
						<file id="file-1" />
						<sourcetrack>
							<mediatype>audio</mediatype>
							<trackindex>1</trackindex>
						</sourcetrack>
						<labels>
							<label2>Iris</label2>
						</labels>
						<outputchannelindex>1</outputchannelindex>
					</clipitem>
					<clipitem id="clipitem-1665" premiereChannelType="stereo">
						<masterclipid>masterclip-2</masterclipid>
						<name>chandrika rocket equations</name>
						<start>43705</start>
						<end>43739</end>
						<in>73400</in>
						<out>73434</out>
						<file id="file-1" />
						<sourcetrack>
							<mediatype>audio</mediatype>
							<trackindex>1</trackindex>
						</sourcetrack>
						<labels>
							<label2>Iris</label2>
						</labels>
						<outputchannelindex>1</outputchannelindex>
					</clipitem>
					<clipitem id="clipitem-1666" premiereChannelType="stereo">
						<masterclipid>masterclip-2</masterclipid>
						<name>chandrika rocket equations</name>
						<start>43739</start>
						<end>43870</end>
						<in>73454</in>
						<out>73585</out>
						<file id="file-1" />
						<sourcetrack>
							<mediatype>audio</mediatype>
							<trackindex>1</trackindex>
						</sourcetrack>
						<labels>
							<label2>Iris</label2>
						</labels>
						<outputchannelindex>1</outputchannelindex>
					</clipitem>
					<clipitem id="clipitem-1667" premiereChannelType="stereo">
						<masterclipid>masterclip-2</masterclipid>
						<name>chandrika rocket equations</name>
						<start>43870</start>
						<end>43920</end>
						<in>73597</in>
						<out>73647</out>
						<file id="file-1" />
						<sourcetrack>
							<mediatype>audio</mediatype>
							<trackindex>1</trackindex>
						</sourcetrack>
						<labels>
							<label2>Iris</label2>
						</labels>
						<outputchannelindex>1</outputchannelindex>
					</clipitem>
					<clipitem id="clipitem-1668" premiereChannelType="stereo">
						<masterclipid>masterclip-2</masterclipid>
						<name>chandrika rocket equations</name>
						<start>43920</start>
						<end>43998</end>
						<in>73652</in>
						<out>73730</out>
						<file id="file-1" />
						<sourcetrack>
							<mediatype>audio</mediatype>
							<trackindex>1</trackindex>
						</sourcetrack>
						<labels>
							<label2>Iris</label2>
						</labels>
						<outputchannelindex>1</outputchannelindex>
					</clipitem>
					<clipitem id="clipitem-1669" premiereChannelType="stereo">
						<masterclipid>masterclip-2</masterclipid>
						<name>chandrika rocket equations</name>
						<start>43998</start>
						<end>44128</end>
						<in>73746</in>
						<out>73876</out>
						<file id="file-1" />
						<sourcetrack>
							<mediatype>audio</mediatype>
							<trackindex>1</trackindex>
						</sourcetrack>
						<labels>
							<label2>Iris</label2>
						</labels>
						<outputchannelindex>1</outputchannelindex>
					</clipitem>
					<clipitem id="clipitem-1670" premiereChannelType="stereo">
						<masterclipid>masterclip-2</masterclipid>
						<name>chandrika rocket equations</name>
						<start>44128</start>
						<end>44198</end>
						<in>73888</in>
						<out>73958</out>
						<file id="file-1" />
						<sourcetrack>
							<mediatype>audio</mediatype>
							<trackindex>1</trackindex>
						</sourcetrack>
						<labels>
							<label2>Iris</label2>
						</labels>
						<outputchannelindex>1</outputchannelindex>
					</clipitem>
					<clipitem id="clipitem-1671" premiereChannelType="stereo">
						<masterclipid>masterclip-2</masterclipid>
						<name>chandrika rocket equations</name>
						<start>44198</start>
						<end>44375</end>
						<in>74097</in>
						<out>74274</out>
						<file id="file-1" />
						<sourcetrack>
							<mediatype>audio</mediatype>
							<trackindex>1</trackindex>
						</sourcetrack>
						<labels>
							<label2>Iris</label2>
						</labels>
						<outputchannelindex>1</outputchannelindex>
					</clipitem>
					<clipitem id="clipitem-1672" premiereChannelType="stereo">
						<masterclipid>masterclip-2</masterclipid>
						<name>chandrika rocket equations</name>
						<start>44375</start>
						<end>44480</end>
						<in>74286</in>
						<out>74391</out>
						<file id="file-1" />
						<sourcetrack>
							<mediatype>audio</mediatype>
							<trackindex>1</trackindex>
						</sourcetrack>
						<labels>
							<label2>Iris</label2>
						</labels>
						<outputchannelindex>1</outputchannelindex>
					</clipitem>
					<clipitem id="clipitem-1673" premiereChannelType="stereo">
						<masterclipid>masterclip-2</masterclipid>
						<name>chandrika rocket equations</name>
						<start>44480</start>
						<end>44553</end>
						<in>74435</in>
						<out>74508</out>
						<file id="file-1" />
						<sourcetrack>
							<mediatype>audio</mediatype>
							<trackindex>1</trackindex>
						</sourcetrack>
						<labels>
							<label2>Iris</label2>
						</labels>
						<outputchannelindex>1</outputchannelindex>
					</clipitem>
					<clipitem id="clipitem-1674" premiereChannelType="stereo">
						<masterclipid>masterclip-2</masterclipid>
						<name>chandrika rocket equations</name>
						<start>44553</start>
						<end>44619</end>
						<in>74527</in>
						<out>74593</out>
						<file id="file-1" />
						<sourcetrack>
							<mediatype>audio</mediatype>
							<trackindex>1</trackindex>
						</sourcetrack>
						<labels>
							<label2>Iris</label2>
						</labels>
						<outputchannelindex>1</outputchannelindex>
					</clipitem>
					<clipitem id="clipitem-1675" premiereChannelType="stereo">
						<masterclipid>masterclip-2</masterclipid>
						<name>chandrika rocket equations</name>
						<start>44619</start>
						<end>44702</end>
						<in>74597</in>
						<out>74680</out>
						<file id="file-1" />
						<sourcetrack>
							<mediatype>audio</mediatype>
							<trackindex>1</trackindex>
						</sourcetrack>
						<labels>
							<label2>Iris</label2>
						</labels>
						<outputchannelindex>1</outputchannelindex>
					</clipitem>
					<clipitem id="clipitem-1676" premiereChannelType="stereo">
						<masterclipid>masterclip-2</masterclipid>
						<name>chandrika rocket equations</name>
						<start>44702</start>
						<end>44797</end>
						<in>74697</in>
						<out>74792</out>
						<file id="file-1" />
						<sourcetrack>
							<mediatype>audio</mediatype>
							<trackindex>1</trackindex>
						</sourcetrack>
						<labels>
							<label2>Iris</label2>
						</labels>
						<outputchannelindex>1</outputchannelindex>
					</clipitem>
					<clipitem id="clipitem-1677" premiereChannelType="stereo">
						<masterclipid>masterclip-2</masterclipid>
						<name>chandrika rocket equations</name>
						<start>44797</start>
						<end>44862</end>
						<in>74817</in>
						<out>74882</out>
						<file id="file-1" />
						<sourcetrack>
							<mediatype>audio</mediatype>
							<trackindex>1</trackindex>
						</sourcetrack>
						<labels>
							<label2>Iris</label2>
						</labels>
						<outputchannelindex>1</outputchannelindex>
					</clipitem>
					<clipitem id="clipitem-1678" premiereChannelType="stereo">
						<masterclipid>masterclip-2</masterclipid>
						<name>chandrika rocket equations</name>
						<start>44862</start>
						<end>44914</end>
						<in>74894</in>
						<out>74946</out>
						<file id="file-1" />
						<sourcetrack>
							<mediatype>audio</mediatype>
							<trackindex>1</trackindex>
						</sourcetrack>
						<labels>
							<label2>Iris</label2>
						</labels>
						<outputchannelindex>1</outputchannelindex>
					</clipitem>
					<clipitem id="clipitem-1679" premiereChannelType="stereo">
						<masterclipid>masterclip-2</masterclipid>
						<name>chandrika rocket equations</name>
						<start>44914</start>
						<end>44935</end>
						<in>74992</in>
						<out>75013</out>
						<file id="file-1" />
						<sourcetrack>
							<mediatype>audio</mediatype>
							<trackindex>1</trackindex>
						</sourcetrack>
						<labels>
							<label2>Iris</label2>
						</labels>
						<outputchannelindex>1</outputchannelindex>
					</clipitem>
					<clipitem id="clipitem-1680" premiereChannelType="stereo">
						<masterclipid>masterclip-2</masterclipid>
						<name>chandrika rocket equations</name>
						<start>44935</start>
						<end>45025</end>
						<in>75065</in>
						<out>75155</out>
						<file id="file-1" />
						<sourcetrack>
							<mediatype>audio</mediatype>
							<trackindex>1</trackindex>
						</sourcetrack>
						<labels>
							<label2>Iris</label2>
						</labels>
						<outputchannelindex>1</outputchannelindex>
					</clipitem>
					<clipitem id="clipitem-1681" premiereChannelType="stereo">
						<masterclipid>masterclip-2</masterclipid>
						<name>chandrika rocket equations</name>
						<start>45025</start>
						<end>45150</end>
						<in>75181</in>
						<out>75306</out>
						<file id="file-1" />
						<sourcetrack>
							<mediatype>audio</mediatype>
							<trackindex>1</trackindex>
						</sourcetrack>
						<labels>
							<label2>Iris</label2>
						</labels>
						<outputchannelindex>1</outputchannelindex>
					</clipitem>
					<clipitem id="clipitem-1682" premiereChannelType="stereo">
						<masterclipid>masterclip-2</masterclipid>
						<name>chandrika rocket equations</name>
						<start>45150</start>
						<end>45185</end>
						<in>75321</in>
						<out>75356</out>
						<file id="file-1" />
						<sourcetrack>
							<mediatype>audio</mediatype>
							<trackindex>1</trackindex>
						</sourcetrack>
						<labels>
							<label2>Iris</label2>
						</labels>
						<outputchannelindex>1</outputchannelindex>
					</clipitem>
					<clipitem id="clipitem-1683" premiereChannelType="stereo">
						<masterclipid>masterclip-2</masterclipid>
						<name>chandrika rocket equations</name>
						<start>45185</start>
						<end>45207</end>
						<in>75359</in>
						<out>75381</out>
						<file id="file-1" />
						<sourcetrack>
							<mediatype>audio</mediatype>
							<trackindex>1</trackindex>
						</sourcetrack>
						<labels>
							<label2>Iris</label2>
						</labels>
						<outputchannelindex>1</outputchannelindex>
					</clipitem>
					<clipitem id="clipitem-1684" premiereChannelType="stereo">
						<masterclipid>masterclip-2</masterclipid>
						<name>chandrika rocket equations</name>
						<start>45207</start>
						<end>45288</end>
						<in>75450</in>
						<out>75531</out>
						<file id="file-1" />
						<sourcetrack>
							<mediatype>audio</mediatype>
							<trackindex>1</trackindex>
						</sourcetrack>
						<labels>
							<label2>Iris</label2>
						</labels>
						<outputchannelindex>1</outputchannelindex>
					</clipitem>
					<clipitem id="clipitem-1685" premiereChannelType="stereo">
						<masterclipid>masterclip-2</masterclipid>
						<name>chandrika rocket equations</name>
						<start>45288</start>
						<end>45327</end>
						<in>75544</in>
						<out>75583</out>
						<file id="file-1" />
						<sourcetrack>
							<mediatype>audio</mediatype>
							<trackindex>1</trackindex>
						</sourcetrack>
						<labels>
							<label2>Iris</label2>
						</labels>
						<outputchannelindex>1</outputchannelindex>
					</clipitem>
					<clipitem id="clipitem-1686" premiereChannelType="stereo">
						<masterclipid>masterclip-2</masterclipid>
						<name>chandrika rocket equations</name>
						<start>45327</start>
						<end>45360</end>
						<in>75626</in>
						<out>75659</out>
						<file id="file-1" />
						<sourcetrack>
							<mediatype>audio</mediatype>
							<trackindex>1</trackindex>
						</sourcetrack>
						<labels>
							<label2>Iris</label2>
						</labels>
						<outputchannelindex>1</outputchannelindex>
					</clipitem>
					<clipitem id="clipitem-1687" premiereChannelType="stereo">
						<masterclipid>masterclip-2</masterclipid>
						<name>chandrika rocket equations</name>
						<start>45360</start>
						<end>45442</end>
						<in>75705</in>
						<out>75787</out>
						<file id="file-1" />
						<sourcetrack>
							<mediatype>audio</mediatype>
							<trackindex>1</trackindex>
						</sourcetrack>
						<labels>
							<label2>Iris</label2>
						</labels>
						<outputchannelindex>1</outputchannelindex>
					</clipitem>
					<clipitem id="clipitem-1688" premiereChannelType="stereo">
						<masterclipid>masterclip-2</masterclipid>
						<name>chandrika rocket equations</name>
						<start>45442</start>
						<end>45515</end>
						<in>75831</in>
						<out>75904</out>
						<file id="file-1" />
						<sourcetrack>
							<mediatype>audio</mediatype>
							<trackindex>1</trackindex>
						</sourcetrack>
						<labels>
							<label2>Iris</label2>
						</labels>
						<outputchannelindex>1</outputchannelindex>
					</clipitem>
					<clipitem id="clipitem-1689" premiereChannelType="stereo">
						<masterclipid>masterclip-2</masterclipid>
						<name>chandrika rocket equations</name>
						<start>45515</start>
						<end>45553</end>
						<in>75939</in>
						<out>75977</out>
						<file id="file-1" />
						<sourcetrack>
							<mediatype>audio</mediatype>
							<trackindex>1</trackindex>
						</sourcetrack>
						<labels>
							<label2>Iris</label2>
						</labels>
						<outputchannelindex>1</outputchannelindex>
					</clipitem>
					<clipitem id="clipitem-1690" premiereChannelType="stereo">
						<masterclipid>masterclip-2</masterclipid>
						<name>chandrika rocket equations</name>
						<start>45553</start>
						<end>45599</end>
						<in>76010</in>
						<out>76056</out>
						<file id="file-1" />
						<sourcetrack>
							<mediatype>audio</mediatype>
							<trackindex>1</trackindex>
						</sourcetrack>
						<labels>
							<label2>Iris</label2>
						</labels>
						<outputchannelindex>1</outputchannelindex>
					</clipitem>
					<clipitem id="clipitem-1691" premiereChannelType="stereo">
						<masterclipid>masterclip-2</masterclipid>
						<name>chandrika rocket equations</name>
						<start>45599</start>
						<end>45684</end>
						<in>76071</in>
						<out>76156</out>
						<file id="file-1" />
						<sourcetrack>
							<mediatype>audio</mediatype>
							<trackindex>1</trackindex>
						</sourcetrack>
						<labels>
							<label2>Iris</label2>
						</labels>
						<outputchannelindex>1</outputchannelindex>
					</clipitem>
					<clipitem id="clipitem-1692" premiereChannelType="stereo">
						<masterclipid>masterclip-2</masterclipid>
						<name>chandrika rocket equations</name>
						<start>45684</start>
						<end>45713</end>
						<in>76223</in>
						<out>76252</out>
						<file id="file-1" />
						<sourcetrack>
							<mediatype>audio</mediatype>
							<trackindex>1</trackindex>
						</sourcetrack>
						<labels>
							<label2>Iris</label2>
						</labels>
						<outputchannelindex>1</outputchannelindex>
					</clipitem>
					<clipitem id="clipitem-1693" premiereChannelType="stereo">
						<masterclipid>masterclip-2</masterclipid>
						<name>chandrika rocket equations</name>
						<start>45713</start>
						<end>45742</end>
						<in>76300</in>
						<out>76329</out>
						<file id="file-1" />
						<sourcetrack>
							<mediatype>audio</mediatype>
							<trackindex>1</trackindex>
						</sourcetrack>
						<labels>
							<label2>Iris</label2>
						</labels>
						<outputchannelindex>1</outputchannelindex>
					</clipitem>
					<clipitem id="clipitem-1694" premiereChannelType="stereo">
						<masterclipid>masterclip-2</masterclipid>
						<name>chandrika rocket equations</name>
						<start>45742</start>
						<end>45773</end>
						<in>76346</in>
						<out>76377</out>
						<file id="file-1" />
						<sourcetrack>
							<mediatype>audio</mediatype>
							<trackindex>1</trackindex>
						</sourcetrack>
						<labels>
							<label2>Iris</label2>
						</labels>
						<outputchannelindex>1</outputchannelindex>
					</clipitem>
					<clipitem id="clipitem-1695" premiereChannelType="stereo">
						<masterclipid>masterclip-2</masterclipid>
						<name>chandrika rocket equations</name>
						<start>45773</start>
						<end>45799</end>
						<in>76430</in>
						<out>76456</out>
						<file id="file-1" />
						<sourcetrack>
							<mediatype>audio</mediatype>
							<trackindex>1</trackindex>
						</sourcetrack>
						<labels>
							<label2>Iris</label2>
						</labels>
						<outputchannelindex>1</outputchannelindex>
					</clipitem>
					<clipitem id="clipitem-1696" premiereChannelType="stereo">
						<masterclipid>masterclip-2</masterclipid>
						<name>chandrika rocket equations</name>
						<start>45799</start>
						<end>45833</end>
						<in>76460</in>
						<out>76494</out>
						<file id="file-1" />
						<sourcetrack>
							<mediatype>audio</mediatype>
							<trackindex>1</trackindex>
						</sourcetrack>
						<labels>
							<label2>Iris</label2>
						</labels>
						<outputchannelindex>1</outputchannelindex>
					</clipitem>
					<clipitem id="clipitem-1697" premiereChannelType="stereo">
						<masterclipid>masterclip-2</masterclipid>
						<name>chandrika rocket equations</name>
						<start>45833</start>
						<end>45869</end>
						<in>76592</in>
						<out>76628</out>
						<file id="file-1" />
						<sourcetrack>
							<mediatype>audio</mediatype>
							<trackindex>1</trackindex>
						</sourcetrack>
						<labels>
							<label2>Iris</label2>
						</labels>
						<outputchannelindex>1</outputchannelindex>
					</clipitem>
					<clipitem id="clipitem-1698" premiereChannelType="stereo">
						<masterclipid>masterclip-2</masterclipid>
						<name>chandrika rocket equations</name>
						<start>45869</start>
						<end>45905</end>
						<in>76659</in>
						<out>76695</out>
						<file id="file-1" />
						<sourcetrack>
							<mediatype>audio</mediatype>
							<trackindex>1</trackindex>
						</sourcetrack>
						<labels>
							<label2>Iris</label2>
						</labels>
						<outputchannelindex>1</outputchannelindex>
					</clipitem>
					<clipitem id="clipitem-1699" premiereChannelType="stereo">
						<masterclipid>masterclip-2</masterclipid>
						<name>chandrika rocket equations</name>
						<start>45905</start>
						<end>45941</end>
						<in>76727</in>
						<out>76763</out>
						<file id="file-1" />
						<sourcetrack>
							<mediatype>audio</mediatype>
							<trackindex>1</trackindex>
						</sourcetrack>
						<labels>
							<label2>Iris</label2>
						</labels>
						<outputchannelindex>1</outputchannelindex>
					</clipitem>
					<clipitem id="clipitem-1700" premiereChannelType="stereo">
						<masterclipid>masterclip-2</masterclipid>
						<name>chandrika rocket equations</name>
						<start>45941</start>
						<end>45964</end>
						<in>76783</in>
						<out>76806</out>
						<file id="file-1" />
						<sourcetrack>
							<mediatype>audio</mediatype>
							<trackindex>1</trackindex>
						</sourcetrack>
						<labels>
							<label2>Iris</label2>
						</labels>
						<outputchannelindex>1</outputchannelindex>
					</clipitem>
					<clipitem id="clipitem-1701" premiereChannelType="stereo">
						<masterclipid>masterclip-2</masterclipid>
						<name>chandrika rocket equations</name>
						<start>45964</start>
						<end>46109</end>
						<in>76942</in>
						<out>77087</out>
						<file id="file-1" />
						<sourcetrack>
							<mediatype>audio</mediatype>
							<trackindex>1</trackindex>
						</sourcetrack>
						<labels>
							<label2>Iris</label2>
						</labels>
						<outputchannelindex>1</outputchannelindex>
					</clipitem>
					<clipitem id="clipitem-1702" premiereChannelType="stereo">
						<masterclipid>masterclip-2</masterclipid>
						<name>chandrika rocket equations</name>
						<start>46109</start>
						<end>46167</end>
						<in>77097</in>
						<out>77155</out>
						<file id="file-1" />
						<sourcetrack>
							<mediatype>audio</mediatype>
							<trackindex>1</trackindex>
						</sourcetrack>
						<labels>
							<label2>Iris</label2>
						</labels>
						<outputchannelindex>1</outputchannelindex>
					</clipitem>
					<clipitem id="clipitem-1703" premiereChannelType="stereo">
						<masterclipid>masterclip-2</masterclipid>
						<name>chandrika rocket equations</name>
						<start>46167</start>
						<end>46274</end>
						<in>77160</in>
						<out>77267</out>
						<file id="file-1" />
						<sourcetrack>
							<mediatype>audio</mediatype>
							<trackindex>1</trackindex>
						</sourcetrack>
						<labels>
							<label2>Iris</label2>
						</labels>
						<outputchannelindex>1</outputchannelindex>
					</clipitem>
					<clipitem id="clipitem-1704" premiereChannelType="stereo">
						<masterclipid>masterclip-2</masterclipid>
						<name>chandrika rocket equations</name>
						<start>46274</start>
						<end>46312</end>
						<in>77295</in>
						<out>77333</out>
						<file id="file-1" />
						<sourcetrack>
							<mediatype>audio</mediatype>
							<trackindex>1</trackindex>
						</sourcetrack>
						<labels>
							<label2>Iris</label2>
						</labels>
						<outputchannelindex>1</outputchannelindex>
					</clipitem>
					<clipitem id="clipitem-1705" premiereChannelType="stereo">
						<masterclipid>masterclip-2</masterclipid>
						<name>chandrika rocket equations</name>
						<start>46312</start>
						<end>46390</end>
						<in>77334</in>
						<out>77412</out>
						<file id="file-1" />
						<sourcetrack>
							<mediatype>audio</mediatype>
							<trackindex>1</trackindex>
						</sourcetrack>
						<labels>
							<label2>Iris</label2>
						</labels>
						<outputchannelindex>1</outputchannelindex>
					</clipitem>
					<clipitem id="clipitem-1706" premiereChannelType="stereo">
						<masterclipid>masterclip-2</masterclipid>
						<name>chandrika rocket equations</name>
						<start>46390</start>
						<end>46413</end>
						<in>77437</in>
						<out>77460</out>
						<file id="file-1" />
						<sourcetrack>
							<mediatype>audio</mediatype>
							<trackindex>1</trackindex>
						</sourcetrack>
						<labels>
							<label2>Iris</label2>
						</labels>
						<outputchannelindex>1</outputchannelindex>
					</clipitem>
					<clipitem id="clipitem-1707" premiereChannelType="stereo">
						<masterclipid>masterclip-2</masterclipid>
						<name>chandrika rocket equations</name>
						<start>46413</start>
						<end>46471</end>
						<in>77474</in>
						<out>77532</out>
						<file id="file-1" />
						<sourcetrack>
							<mediatype>audio</mediatype>
							<trackindex>1</trackindex>
						</sourcetrack>
						<labels>
							<label2>Iris</label2>
						</labels>
						<outputchannelindex>1</outputchannelindex>
					</clipitem>
					<clipitem id="clipitem-1708" premiereChannelType="stereo">
						<masterclipid>masterclip-2</masterclipid>
						<name>chandrika rocket equations</name>
						<start>46471</start>
						<end>46516</end>
						<in>77552</in>
						<out>77597</out>
						<file id="file-1" />
						<sourcetrack>
							<mediatype>audio</mediatype>
							<trackindex>1</trackindex>
						</sourcetrack>
						<labels>
							<label2>Iris</label2>
						</labels>
						<outputchannelindex>1</outputchannelindex>
					</clipitem>
					<clipitem id="clipitem-1709" premiereChannelType="stereo">
						<masterclipid>masterclip-2</masterclipid>
						<name>chandrika rocket equations</name>
						<start>46516</start>
						<end>46567</end>
						<in>77636</in>
						<out>77687</out>
						<file id="file-1" />
						<sourcetrack>
							<mediatype>audio</mediatype>
							<trackindex>1</trackindex>
						</sourcetrack>
						<labels>
							<label2>Iris</label2>
						</labels>
						<outputchannelindex>1</outputchannelindex>
					</clipitem>
					<clipitem id="clipitem-1710" premiereChannelType="stereo">
						<masterclipid>masterclip-2</masterclipid>
						<name>chandrika rocket equations</name>
						<start>46567</start>
						<end>46588</end>
						<in>77747</in>
						<out>77768</out>
						<file id="file-1" />
						<sourcetrack>
							<mediatype>audio</mediatype>
							<trackindex>1</trackindex>
						</sourcetrack>
						<labels>
							<label2>Iris</label2>
						</labels>
						<outputchannelindex>1</outputchannelindex>
					</clipitem>
					<clipitem id="clipitem-1711" premiereChannelType="stereo">
						<masterclipid>masterclip-2</masterclipid>
						<name>chandrika rocket equations</name>
						<start>46588</start>
						<end>46619</end>
						<in>77827</in>
						<out>77858</out>
						<file id="file-1" />
						<sourcetrack>
							<mediatype>audio</mediatype>
							<trackindex>1</trackindex>
						</sourcetrack>
						<labels>
							<label2>Iris</label2>
						</labels>
						<outputchannelindex>1</outputchannelindex>
					</clipitem>
					<clipitem id="clipitem-1712" premiereChannelType="stereo">
						<masterclipid>masterclip-2</masterclipid>
						<name>chandrika rocket equations</name>
						<start>46619</start>
						<end>46706</end>
						<in>77889</in>
						<out>77976</out>
						<file id="file-1" />
						<sourcetrack>
							<mediatype>audio</mediatype>
							<trackindex>1</trackindex>
						</sourcetrack>
						<labels>
							<label2>Iris</label2>
						</labels>
						<outputchannelindex>1</outputchannelindex>
					</clipitem>
					<clipitem id="clipitem-1713" premiereChannelType="stereo">
						<masterclipid>masterclip-2</masterclipid>
						<name>chandrika rocket equations</name>
						<start>46706</start>
						<end>46847</end>
						<in>78030</in>
						<out>78171</out>
						<file id="file-1" />
						<sourcetrack>
							<mediatype>audio</mediatype>
							<trackindex>1</trackindex>
						</sourcetrack>
						<labels>
							<label2>Iris</label2>
						</labels>
						<outputchannelindex>1</outputchannelindex>
					</clipitem>
					<clipitem id="clipitem-1714" premiereChannelType="stereo">
						<masterclipid>masterclip-2</masterclipid>
						<name>chandrika rocket equations</name>
						<start>46847</start>
						<end>46862</end>
						<in>78174</in>
						<out>78189</out>
						<file id="file-1" />
						<sourcetrack>
							<mediatype>audio</mediatype>
							<trackindex>1</trackindex>
						</sourcetrack>
						<labels>
							<label2>Iris</label2>
						</labels>
						<outputchannelindex>1</outputchannelindex>
					</clipitem>
					<clipitem id="clipitem-1715" premiereChannelType="stereo">
						<masterclipid>masterclip-2</masterclipid>
						<name>chandrika rocket equations</name>
						<start>46862</start>
						<end>46883</end>
						<in>78225</in>
						<out>78246</out>
						<file id="file-1" />
						<sourcetrack>
							<mediatype>audio</mediatype>
							<trackindex>1</trackindex>
						</sourcetrack>
						<labels>
							<label2>Iris</label2>
						</labels>
						<outputchannelindex>1</outputchannelindex>
					</clipitem>
					<clipitem id="clipitem-1716" premiereChannelType="stereo">
						<masterclipid>masterclip-2</masterclipid>
						<name>chandrika rocket equations</name>
						<start>46883</start>
						<end>46932</end>
						<in>78300</in>
						<out>78349</out>
						<file id="file-1" />
						<sourcetrack>
							<mediatype>audio</mediatype>
							<trackindex>1</trackindex>
						</sourcetrack>
						<labels>
							<label2>Iris</label2>
						</labels>
						<outputchannelindex>1</outputchannelindex>
					</clipitem>
					<clipitem id="clipitem-1717" premiereChannelType="stereo">
						<masterclipid>masterclip-2</masterclipid>
						<name>chandrika rocket equations</name>
						<start>46932</start>
						<end>46979</end>
						<in>78374</in>
						<out>78421</out>
						<file id="file-1" />
						<sourcetrack>
							<mediatype>audio</mediatype>
							<trackindex>1</trackindex>
						</sourcetrack>
						<labels>
							<label2>Iris</label2>
						</labels>
						<outputchannelindex>1</outputchannelindex>
					</clipitem>
					<clipitem id="clipitem-1718" premiereChannelType="stereo">
						<masterclipid>masterclip-2</masterclipid>
						<name>chandrika rocket equations</name>
						<start>46979</start>
						<end>47054</end>
						<in>78456</in>
						<out>78531</out>
						<file id="file-1" />
						<sourcetrack>
							<mediatype>audio</mediatype>
							<trackindex>1</trackindex>
						</sourcetrack>
						<labels>
							<label2>Iris</label2>
						</labels>
						<outputchannelindex>1</outputchannelindex>
					</clipitem>
					<clipitem id="clipitem-1719" premiereChannelType="stereo">
						<masterclipid>masterclip-2</masterclipid>
						<name>chandrika rocket equations</name>
						<start>47054</start>
						<end>47083</end>
						<in>78584</in>
						<out>78613</out>
						<file id="file-1" />
						<sourcetrack>
							<mediatype>audio</mediatype>
							<trackindex>1</trackindex>
						</sourcetrack>
						<labels>
							<label2>Iris</label2>
						</labels>
						<outputchannelindex>1</outputchannelindex>
					</clipitem>
					<clipitem id="clipitem-1720" premiereChannelType="stereo">
						<masterclipid>masterclip-2</masterclipid>
						<name>chandrika rocket equations</name>
						<start>47083</start>
						<end>47112</end>
						<in>78703</in>
						<out>78732</out>
						<file id="file-1" />
						<sourcetrack>
							<mediatype>audio</mediatype>
							<trackindex>1</trackindex>
						</sourcetrack>
						<labels>
							<label2>Iris</label2>
						</labels>
						<outputchannelindex>1</outputchannelindex>
					</clipitem>
					<clipitem id="clipitem-1721" premiereChannelType="stereo">
						<masterclipid>masterclip-2</masterclipid>
						<name>chandrika rocket equations</name>
						<start>47112</start>
						<end>47154</end>
						<in>78941</in>
						<out>78983</out>
						<file id="file-1" />
						<sourcetrack>
							<mediatype>audio</mediatype>
							<trackindex>1</trackindex>
						</sourcetrack>
						<labels>
							<label2>Iris</label2>
						</labels>
						<outputchannelindex>1</outputchannelindex>
					</clipitem>
					<clipitem id="clipitem-1722" premiereChannelType="stereo">
						<masterclipid>masterclip-2</masterclipid>
						<name>chandrika rocket equations</name>
						<start>47154</start>
						<end>47198</end>
						<in>79013</in>
						<out>79057</out>
						<file id="file-1" />
						<sourcetrack>
							<mediatype>audio</mediatype>
							<trackindex>1</trackindex>
						</sourcetrack>
						<labels>
							<label2>Iris</label2>
						</labels>
						<outputchannelindex>1</outputchannelindex>
					</clipitem>
					<clipitem id="clipitem-1723" premiereChannelType="stereo">
						<masterclipid>masterclip-2</masterclipid>
						<name>chandrika rocket equations</name>
						<start>47198</start>
						<end>47271</end>
						<in>79137</in>
						<out>79210</out>
						<file id="file-1" />
						<sourcetrack>
							<mediatype>audio</mediatype>
							<trackindex>1</trackindex>
						</sourcetrack>
						<labels>
							<label2>Iris</label2>
						</labels>
						<outputchannelindex>1</outputchannelindex>
					</clipitem>
					<clipitem id="clipitem-1724" premiereChannelType="stereo">
						<masterclipid>masterclip-2</masterclipid>
						<name>chandrika rocket equations</name>
						<start>47271</start>
						<end>47394</end>
						<in>79237</in>
						<out>79360</out>
						<file id="file-1" />
						<sourcetrack>
							<mediatype>audio</mediatype>
							<trackindex>1</trackindex>
						</sourcetrack>
						<labels>
							<label2>Iris</label2>
						</labels>
						<outputchannelindex>1</outputchannelindex>
					</clipitem>
					<clipitem id="clipitem-1725" premiereChannelType="stereo">
						<masterclipid>masterclip-2</masterclipid>
						<name>chandrika rocket equations</name>
						<start>47394</start>
						<end>47483</end>
						<in>79420</in>
						<out>79509</out>
						<file id="file-1" />
						<sourcetrack>
							<mediatype>audio</mediatype>
							<trackindex>1</trackindex>
						</sourcetrack>
						<labels>
							<label2>Iris</label2>
						</labels>
						<outputchannelindex>1</outputchannelindex>
					</clipitem>
					<clipitem id="clipitem-1726" premiereChannelType="stereo">
						<masterclipid>masterclip-2</masterclipid>
						<name>chandrika rocket equations</name>
						<start>47483</start>
						<end>47500</end>
						<in>79510</in>
						<out>79527</out>
						<file id="file-1" />
						<sourcetrack>
							<mediatype>audio</mediatype>
							<trackindex>1</trackindex>
						</sourcetrack>
						<labels>
							<label2>Iris</label2>
						</labels>
						<outputchannelindex>1</outputchannelindex>
					</clipitem>
					<clipitem id="clipitem-1727" premiereChannelType="stereo">
						<masterclipid>masterclip-2</masterclipid>
						<name>chandrika rocket equations</name>
						<start>47500</start>
						<end>47522</end>
						<in>79553</in>
						<out>79575</out>
						<file id="file-1" />
						<sourcetrack>
							<mediatype>audio</mediatype>
							<trackindex>1</trackindex>
						</sourcetrack>
						<labels>
							<label2>Iris</label2>
						</labels>
						<outputchannelindex>1</outputchannelindex>
					</clipitem>
					<clipitem id="clipitem-1728" premiereChannelType="stereo">
						<masterclipid>masterclip-2</masterclipid>
						<name>chandrika rocket equations</name>
						<start>47522</start>
						<end>47566</end>
						<in>79605</in>
						<out>79649</out>
						<file id="file-1" />
						<sourcetrack>
							<mediatype>audio</mediatype>
							<trackindex>1</trackindex>
						</sourcetrack>
						<labels>
							<label2>Iris</label2>
						</labels>
						<outputchannelindex>1</outputchannelindex>
					</clipitem>
					<clipitem id="clipitem-1729" premiereChannelType="stereo">
						<masterclipid>masterclip-2</masterclipid>
						<name>chandrika rocket equations</name>
						<start>47566</start>
						<end>47795</end>
						<in>79655</in>
						<out>79884</out>
						<file id="file-1" />
						<sourcetrack>
							<mediatype>audio</mediatype>
							<trackindex>1</trackindex>
						</sourcetrack>
						<labels>
							<label2>Iris</label2>
						</labels>
						<outputchannelindex>1</outputchannelindex>
					</clipitem>
					<clipitem id="clipitem-1730" premiereChannelType="stereo">
						<masterclipid>masterclip-2</masterclipid>
						<name>chandrika rocket equations</name>
						<start>47795</start>
						<end>47815</end>
						<in>79903</in>
						<out>79923</out>
						<file id="file-1" />
						<sourcetrack>
							<mediatype>audio</mediatype>
							<trackindex>1</trackindex>
						</sourcetrack>
						<labels>
							<label2>Iris</label2>
						</labels>
						<outputchannelindex>1</outputchannelindex>
					</clipitem>
					<clipitem id="clipitem-1731" premiereChannelType="stereo">
						<masterclipid>masterclip-2</masterclipid>
						<name>chandrika rocket equations</name>
						<start>47815</start>
						<end>47861</end>
						<in>80023</in>
						<out>80069</out>
						<file id="file-1" />
						<sourcetrack>
							<mediatype>audio</mediatype>
							<trackindex>1</trackindex>
						</sourcetrack>
						<labels>
							<label2>Iris</label2>
						</labels>
						<outputchannelindex>1</outputchannelindex>
					</clipitem>
					<clipitem id="clipitem-1732" premiereChannelType="stereo">
						<masterclipid>masterclip-2</masterclipid>
						<name>chandrika rocket equations</name>
						<start>47861</start>
						<end>47943</end>
						<in>80131</in>
						<out>80213</out>
						<file id="file-1" />
						<sourcetrack>
							<mediatype>audio</mediatype>
							<trackindex>1</trackindex>
						</sourcetrack>
						<labels>
							<label2>Iris</label2>
						</labels>
						<outputchannelindex>1</outputchannelindex>
					</clipitem>
					<clipitem id="clipitem-1733" premiereChannelType="stereo">
						<masterclipid>masterclip-2</masterclipid>
						<name>chandrika rocket equations</name>
						<start>47943</start>
						<end>47971</end>
						<in>80338</in>
						<out>80366</out>
						<file id="file-1" />
						<sourcetrack>
							<mediatype>audio</mediatype>
							<trackindex>1</trackindex>
						</sourcetrack>
						<labels>
							<label2>Iris</label2>
						</labels>
						<outputchannelindex>1</outputchannelindex>
					</clipitem>
					<clipitem id="clipitem-1734" premiereChannelType="stereo">
						<masterclipid>masterclip-2</masterclipid>
						<name>chandrika rocket equations</name>
						<start>47971</start>
						<end>48011</end>
						<in>80385</in>
						<out>80425</out>
						<file id="file-1" />
						<sourcetrack>
							<mediatype>audio</mediatype>
							<trackindex>1</trackindex>
						</sourcetrack>
						<labels>
							<label2>Iris</label2>
						</labels>
						<outputchannelindex>1</outputchannelindex>
					</clipitem>
					<clipitem id="clipitem-1735" premiereChannelType="stereo">
						<masterclipid>masterclip-2</masterclipid>
						<name>chandrika rocket equations</name>
						<start>48011</start>
						<end>48067</end>
						<in>80428</in>
						<out>80484</out>
						<file id="file-1" />
						<sourcetrack>
							<mediatype>audio</mediatype>
							<trackindex>1</trackindex>
						</sourcetrack>
						<labels>
							<label2>Iris</label2>
						</labels>
						<outputchannelindex>1</outputchannelindex>
					</clipitem>
					<clipitem id="clipitem-1736" premiereChannelType="stereo">
						<masterclipid>masterclip-2</masterclipid>
						<name>chandrika rocket equations</name>
						<start>48067</start>
						<end>48118</end>
						<in>80505</in>
						<out>80556</out>
						<file id="file-1" />
						<sourcetrack>
							<mediatype>audio</mediatype>
							<trackindex>1</trackindex>
						</sourcetrack>
						<labels>
							<label2>Iris</label2>
						</labels>
						<outputchannelindex>1</outputchannelindex>
					</clipitem>
					<clipitem id="clipitem-1737" premiereChannelType="stereo">
						<masterclipid>masterclip-2</masterclipid>
						<name>chandrika rocket equations</name>
						<start>48118</start>
						<end>48161</end>
						<in>80628</in>
						<out>80671</out>
						<file id="file-1" />
						<sourcetrack>
							<mediatype>audio</mediatype>
							<trackindex>1</trackindex>
						</sourcetrack>
						<labels>
							<label2>Iris</label2>
						</labels>
						<outputchannelindex>1</outputchannelindex>
					</clipitem>
					<clipitem id="clipitem-1738" premiereChannelType="stereo">
						<masterclipid>masterclip-2</masterclipid>
						<name>chandrika rocket equations</name>
						<start>48161</start>
						<end>48236</end>
						<in>80676</in>
						<out>80751</out>
						<file id="file-1" />
						<sourcetrack>
							<mediatype>audio</mediatype>
							<trackindex>1</trackindex>
						</sourcetrack>
						<labels>
							<label2>Iris</label2>
						</labels>
						<outputchannelindex>1</outputchannelindex>
					</clipitem>
					<clipitem id="clipitem-1739" premiereChannelType="stereo">
						<masterclipid>masterclip-2</masterclipid>
						<name>chandrika rocket equations</name>
						<start>48236</start>
						<end>48285</end>
						<in>80759</in>
						<out>80808</out>
						<file id="file-1" />
						<sourcetrack>
							<mediatype>audio</mediatype>
							<trackindex>1</trackindex>
						</sourcetrack>
						<labels>
							<label2>Iris</label2>
						</labels>
						<outputchannelindex>1</outputchannelindex>
					</clipitem>
					<clipitem id="clipitem-1740" premiereChannelType="stereo">
						<masterclipid>masterclip-2</masterclipid>
						<name>chandrika rocket equations</name>
						<start>48285</start>
						<end>48337</end>
						<in>80818</in>
						<out>80870</out>
						<file id="file-1" />
						<sourcetrack>
							<mediatype>audio</mediatype>
							<trackindex>1</trackindex>
						</sourcetrack>
						<labels>
							<label2>Iris</label2>
						</labels>
						<outputchannelindex>1</outputchannelindex>
					</clipitem>
					<clipitem id="clipitem-1741" premiereChannelType="stereo">
						<masterclipid>masterclip-2</masterclipid>
						<name>chandrika rocket equations</name>
						<start>48337</start>
						<end>48380</end>
						<in>80871</in>
						<out>80914</out>
						<file id="file-1" />
						<sourcetrack>
							<mediatype>audio</mediatype>
							<trackindex>1</trackindex>
						</sourcetrack>
						<labels>
							<label2>Iris</label2>
						</labels>
						<outputchannelindex>1</outputchannelindex>
					</clipitem>
					<clipitem id="clipitem-1742" premiereChannelType="stereo">
						<masterclipid>masterclip-2</masterclipid>
						<name>chandrika rocket equations</name>
						<start>48380</start>
						<end>48397</end>
						<in>80927</in>
						<out>80944</out>
						<file id="file-1" />
						<sourcetrack>
							<mediatype>audio</mediatype>
							<trackindex>1</trackindex>
						</sourcetrack>
						<labels>
							<label2>Iris</label2>
						</labels>
						<outputchannelindex>1</outputchannelindex>
					</clipitem>
					<clipitem id="clipitem-1743" premiereChannelType="stereo">
						<masterclipid>masterclip-2</masterclipid>
						<name>chandrika rocket equations</name>
						<start>48397</start>
						<end>48451</end>
						<in>80968</in>
						<out>81022</out>
						<file id="file-1" />
						<sourcetrack>
							<mediatype>audio</mediatype>
							<trackindex>1</trackindex>
						</sourcetrack>
						<labels>
							<label2>Iris</label2>
						</labels>
						<outputchannelindex>1</outputchannelindex>
					</clipitem>
					<clipitem id="clipitem-1744" premiereChannelType="stereo">
						<masterclipid>masterclip-2</masterclipid>
						<name>chandrika rocket equations</name>
						<start>48451</start>
						<end>48599</end>
						<in>81045</in>
						<out>81193</out>
						<file id="file-1" />
						<sourcetrack>
							<mediatype>audio</mediatype>
							<trackindex>1</trackindex>
						</sourcetrack>
						<labels>
							<label2>Iris</label2>
						</labels>
						<outputchannelindex>1</outputchannelindex>
					</clipitem>
					<clipitem id="clipitem-1745" premiereChannelType="stereo">
						<masterclipid>masterclip-2</masterclipid>
						<name>chandrika rocket equations</name>
						<start>48599</start>
						<end>48647</end>
						<in>81246</in>
						<out>81294</out>
						<file id="file-1" />
						<sourcetrack>
							<mediatype>audio</mediatype>
							<trackindex>1</trackindex>
						</sourcetrack>
						<labels>
							<label2>Iris</label2>
						</labels>
						<outputchannelindex>1</outputchannelindex>
					</clipitem>
					<clipitem id="clipitem-1746" premiereChannelType="stereo">
						<masterclipid>masterclip-2</masterclipid>
						<name>chandrika rocket equations</name>
						<start>48647</start>
						<end>48726</end>
						<in>81301</in>
						<out>81380</out>
						<file id="file-1" />
						<sourcetrack>
							<mediatype>audio</mediatype>
							<trackindex>1</trackindex>
						</sourcetrack>
						<labels>
							<label2>Iris</label2>
						</labels>
						<outputchannelindex>1</outputchannelindex>
					</clipitem>
					<clipitem id="clipitem-1747" premiereChannelType="stereo">
						<masterclipid>masterclip-2</masterclipid>
						<name>chandrika rocket equations</name>
						<start>48726</start>
						<end>48796</end>
						<in>81391</in>
						<out>81461</out>
						<file id="file-1" />
						<sourcetrack>
							<mediatype>audio</mediatype>
							<trackindex>1</trackindex>
						</sourcetrack>
						<labels>
							<label2>Iris</label2>
						</labels>
						<outputchannelindex>1</outputchannelindex>
					</clipitem>
					<clipitem id="clipitem-1748" premiereChannelType="stereo">
						<masterclipid>masterclip-2</masterclipid>
						<name>chandrika rocket equations</name>
						<start>48796</start>
						<end>48849</end>
						<in>81510</in>
						<out>81563</out>
						<file id="file-1" />
						<sourcetrack>
							<mediatype>audio</mediatype>
							<trackindex>1</trackindex>
						</sourcetrack>
						<labels>
							<label2>Iris</label2>
						</labels>
						<outputchannelindex>1</outputchannelindex>
					</clipitem>
					<clipitem id="clipitem-1749" premiereChannelType="stereo">
						<masterclipid>masterclip-2</masterclipid>
						<name>chandrika rocket equations</name>
						<start>48849</start>
						<end>48894</end>
						<in>81571</in>
						<out>81616</out>
						<file id="file-1" />
						<sourcetrack>
							<mediatype>audio</mediatype>
							<trackindex>1</trackindex>
						</sourcetrack>
						<labels>
							<label2>Iris</label2>
						</labels>
						<outputchannelindex>1</outputchannelindex>
					</clipitem>
					<clipitem id="clipitem-1750" premiereChannelType="stereo">
						<masterclipid>masterclip-2</masterclipid>
						<name>chandrika rocket equations</name>
						<start>48894</start>
						<end>48946</end>
						<in>81649</in>
						<out>81701</out>
						<file id="file-1" />
						<sourcetrack>
							<mediatype>audio</mediatype>
							<trackindex>1</trackindex>
						</sourcetrack>
						<labels>
							<label2>Iris</label2>
						</labels>
						<outputchannelindex>1</outputchannelindex>
					</clipitem>
					<clipitem id="clipitem-1751" premiereChannelType="stereo">
						<masterclipid>masterclip-2</masterclipid>
						<name>chandrika rocket equations</name>
						<start>48946</start>
						<end>49062</end>
						<in>81710</in>
						<out>81826</out>
						<file id="file-1" />
						<sourcetrack>
							<mediatype>audio</mediatype>
							<trackindex>1</trackindex>
						</sourcetrack>
						<labels>
							<label2>Iris</label2>
						</labels>
						<outputchannelindex>1</outputchannelindex>
					</clipitem>
					<clipitem id="clipitem-1752" premiereChannelType="stereo">
						<masterclipid>masterclip-2</masterclipid>
						<name>chandrika rocket equations</name>
						<start>49062</start>
						<end>49289</end>
						<in>81841</in>
						<out>82068</out>
						<file id="file-1" />
						<sourcetrack>
							<mediatype>audio</mediatype>
							<trackindex>1</trackindex>
						</sourcetrack>
						<labels>
							<label2>Iris</label2>
						</labels>
						<outputchannelindex>1</outputchannelindex>
					</clipitem>
					<clipitem id="clipitem-1753" premiereChannelType="stereo">
						<masterclipid>masterclip-2</masterclipid>
						<name>chandrika rocket equations</name>
						<start>49289</start>
						<end>49305</end>
						<in>82073</in>
						<out>82089</out>
						<file id="file-1" />
						<sourcetrack>
							<mediatype>audio</mediatype>
							<trackindex>1</trackindex>
						</sourcetrack>
						<labels>
							<label2>Iris</label2>
						</labels>
						<outputchannelindex>1</outputchannelindex>
					</clipitem>
					<clipitem id="clipitem-1754" premiereChannelType="stereo">
						<masterclipid>masterclip-2</masterclipid>
						<name>chandrika rocket equations</name>
						<start>49305</start>
						<end>49321</end>
						<in>82094</in>
						<out>82110</out>
						<file id="file-1" />
						<sourcetrack>
							<mediatype>audio</mediatype>
							<trackindex>1</trackindex>
						</sourcetrack>
						<labels>
							<label2>Iris</label2>
						</labels>
						<outputchannelindex>1</outputchannelindex>
					</clipitem>
					<clipitem id="clipitem-1755" premiereChannelType="stereo">
						<masterclipid>masterclip-2</masterclipid>
						<name>chandrika rocket equations</name>
						<start>49321</start>
						<end>49362</end>
						<in>82120</in>
						<out>82161</out>
						<file id="file-1" />
						<sourcetrack>
							<mediatype>audio</mediatype>
							<trackindex>1</trackindex>
						</sourcetrack>
						<labels>
							<label2>Iris</label2>
						</labels>
						<outputchannelindex>1</outputchannelindex>
					</clipitem>
					<clipitem id="clipitem-1756" premiereChannelType="stereo">
						<masterclipid>masterclip-2</masterclipid>
						<name>chandrika rocket equations</name>
						<start>49362</start>
						<end>49415</end>
						<in>82164</in>
						<out>82217</out>
						<file id="file-1" />
						<sourcetrack>
							<mediatype>audio</mediatype>
							<trackindex>1</trackindex>
						</sourcetrack>
						<labels>
							<label2>Iris</label2>
						</labels>
						<outputchannelindex>1</outputchannelindex>
					</clipitem>
					<clipitem id="clipitem-1757" premiereChannelType="stereo">
						<masterclipid>masterclip-2</masterclipid>
						<name>chandrika rocket equations</name>
						<start>49415</start>
						<end>49450</end>
						<in>82237</in>
						<out>82272</out>
						<file id="file-1" />
						<sourcetrack>
							<mediatype>audio</mediatype>
							<trackindex>1</trackindex>
						</sourcetrack>
						<labels>
							<label2>Iris</label2>
						</labels>
						<outputchannelindex>1</outputchannelindex>
					</clipitem>
					<clipitem id="clipitem-1758" premiereChannelType="stereo">
						<masterclipid>masterclip-2</masterclipid>
						<name>chandrika rocket equations</name>
						<start>49450</start>
						<end>49488</end>
						<in>82283</in>
						<out>82321</out>
						<file id="file-1" />
						<sourcetrack>
							<mediatype>audio</mediatype>
							<trackindex>1</trackindex>
						</sourcetrack>
						<labels>
							<label2>Iris</label2>
						</labels>
						<outputchannelindex>1</outputchannelindex>
					</clipitem>
					<clipitem id="clipitem-1759" premiereChannelType="stereo">
						<masterclipid>masterclip-2</masterclipid>
						<name>chandrika rocket equations</name>
						<start>49488</start>
						<end>49512</end>
						<in>82323</in>
						<out>82347</out>
						<file id="file-1" />
						<sourcetrack>
							<mediatype>audio</mediatype>
							<trackindex>1</trackindex>
						</sourcetrack>
						<labels>
							<label2>Iris</label2>
						</labels>
						<outputchannelindex>1</outputchannelindex>
					</clipitem>
					<clipitem id="clipitem-1760" premiereChannelType="stereo">
						<masterclipid>masterclip-2</masterclipid>
						<name>chandrika rocket equations</name>
						<start>49512</start>
						<end>49544</end>
						<in>82349</in>
						<out>82381</out>
						<file id="file-1" />
						<sourcetrack>
							<mediatype>audio</mediatype>
							<trackindex>1</trackindex>
						</sourcetrack>
						<labels>
							<label2>Iris</label2>
						</labels>
						<outputchannelindex>1</outputchannelindex>
					</clipitem>
					<clipitem id="clipitem-1761" premiereChannelType="stereo">
						<masterclipid>masterclip-2</masterclipid>
						<name>chandrika rocket equations</name>
						<start>49544</start>
						<end>49636</end>
						<in>82389</in>
						<out>82481</out>
						<file id="file-1" />
						<sourcetrack>
							<mediatype>audio</mediatype>
							<trackindex>1</trackindex>
						</sourcetrack>
						<labels>
							<label2>Iris</label2>
						</labels>
						<outputchannelindex>1</outputchannelindex>
					</clipitem>
					<clipitem id="clipitem-1762" premiereChannelType="stereo">
						<masterclipid>masterclip-2</masterclipid>
						<name>chandrika rocket equations</name>
						<start>49636</start>
						<end>49698</end>
						<in>82486</in>
						<out>82548</out>
						<file id="file-1" />
						<sourcetrack>
							<mediatype>audio</mediatype>
							<trackindex>1</trackindex>
						</sourcetrack>
						<labels>
							<label2>Iris</label2>
						</labels>
						<outputchannelindex>1</outputchannelindex>
					</clipitem>
					<clipitem id="clipitem-1763" premiereChannelType="stereo">
						<masterclipid>masterclip-2</masterclipid>
						<name>chandrika rocket equations</name>
						<start>49698</start>
						<end>49721</end>
						<in>82555</in>
						<out>82578</out>
						<file id="file-1" />
						<sourcetrack>
							<mediatype>audio</mediatype>
							<trackindex>1</trackindex>
						</sourcetrack>
						<labels>
							<label2>Iris</label2>
						</labels>
						<outputchannelindex>1</outputchannelindex>
					</clipitem>
					<clipitem id="clipitem-1764" premiereChannelType="stereo">
						<masterclipid>masterclip-2</masterclipid>
						<name>chandrika rocket equations</name>
						<start>49721</start>
						<end>49763</end>
						<in>82648</in>
						<out>82690</out>
						<file id="file-1" />
						<sourcetrack>
							<mediatype>audio</mediatype>
							<trackindex>1</trackindex>
						</sourcetrack>
						<labels>
							<label2>Iris</label2>
						</labels>
						<outputchannelindex>1</outputchannelindex>
					</clipitem>
					<clipitem id="clipitem-1765" premiereChannelType="stereo">
						<masterclipid>masterclip-2</masterclipid>
						<name>chandrika rocket equations</name>
						<start>49763</start>
						<end>49816</end>
						<in>82731</in>
						<out>82784</out>
						<file id="file-1" />
						<sourcetrack>
							<mediatype>audio</mediatype>
							<trackindex>1</trackindex>
						</sourcetrack>
						<labels>
							<label2>Iris</label2>
						</labels>
						<outputchannelindex>1</outputchannelindex>
					</clipitem>
					<clipitem id="clipitem-1766" premiereChannelType="stereo">
						<masterclipid>masterclip-2</masterclipid>
						<name>chandrika rocket equations</name>
						<start>49816</start>
						<end>49839</end>
						<in>82797</in>
						<out>82820</out>
						<file id="file-1" />
						<sourcetrack>
							<mediatype>audio</mediatype>
							<trackindex>1</trackindex>
						</sourcetrack>
						<labels>
							<label2>Iris</label2>
						</labels>
						<outputchannelindex>1</outputchannelindex>
					</clipitem>
					<clipitem id="clipitem-1767" premiereChannelType="stereo">
						<masterclipid>masterclip-2</masterclipid>
						<name>chandrika rocket equations</name>
						<start>49839</start>
						<end>49860</end>
						<in>82828</in>
						<out>82849</out>
						<file id="file-1" />
						<sourcetrack>
							<mediatype>audio</mediatype>
							<trackindex>1</trackindex>
						</sourcetrack>
						<labels>
							<label2>Iris</label2>
						</labels>
						<outputchannelindex>1</outputchannelindex>
					</clipitem>
					<clipitem id="clipitem-1768" premiereChannelType="stereo">
						<masterclipid>masterclip-2</masterclipid>
						<name>chandrika rocket equations</name>
						<start>49860</start>
						<end>49927</end>
						<in>82866</in>
						<out>82933</out>
						<file id="file-1" />
						<sourcetrack>
							<mediatype>audio</mediatype>
							<trackindex>1</trackindex>
						</sourcetrack>
						<labels>
							<label2>Iris</label2>
						</labels>
						<outputchannelindex>1</outputchannelindex>
					</clipitem>
					<clipitem id="clipitem-1769" premiereChannelType="stereo">
						<masterclipid>masterclip-2</masterclipid>
						<name>chandrika rocket equations</name>
						<start>49927</start>
						<end>49969</end>
						<in>83040</in>
						<out>83082</out>
						<file id="file-1" />
						<sourcetrack>
							<mediatype>audio</mediatype>
							<trackindex>1</trackindex>
						</sourcetrack>
						<labels>
							<label2>Iris</label2>
						</labels>
						<outputchannelindex>1</outputchannelindex>
					</clipitem>
					<clipitem id="clipitem-1770" premiereChannelType="stereo">
						<masterclipid>masterclip-2</masterclipid>
						<name>chandrika rocket equations</name>
						<start>49969</start>
						<end>50059</end>
						<in>83143</in>
						<out>83233</out>
						<file id="file-1" />
						<sourcetrack>
							<mediatype>audio</mediatype>
							<trackindex>1</trackindex>
						</sourcetrack>
						<labels>
							<label2>Iris</label2>
						</labels>
						<outputchannelindex>1</outputchannelindex>
					</clipitem>
					<clipitem id="clipitem-1771" premiereChannelType="stereo">
						<masterclipid>masterclip-2</masterclipid>
						<name>chandrika rocket equations</name>
						<start>50059</start>
						<end>50167</end>
						<in>83262</in>
						<out>83370</out>
						<file id="file-1" />
						<sourcetrack>
							<mediatype>audio</mediatype>
							<trackindex>1</trackindex>
						</sourcetrack>
						<labels>
							<label2>Iris</label2>
						</labels>
						<outputchannelindex>1</outputchannelindex>
					</clipitem>
					<clipitem id="clipitem-1772" premiereChannelType="stereo">
						<masterclipid>masterclip-2</masterclipid>
						<name>chandrika rocket equations</name>
						<start>50167</start>
						<end>50234</end>
						<in>83406</in>
						<out>83473</out>
						<file id="file-1" />
						<sourcetrack>
							<mediatype>audio</mediatype>
							<trackindex>1</trackindex>
						</sourcetrack>
						<labels>
							<label2>Iris</label2>
						</labels>
						<outputchannelindex>1</outputchannelindex>
					</clipitem>
					<clipitem id="clipitem-1773" premiereChannelType="stereo">
						<masterclipid>masterclip-2</masterclipid>
						<name>chandrika rocket equations</name>
						<start>50234</start>
						<end>50252</end>
						<in>83540</in>
						<out>83558</out>
						<file id="file-1" />
						<sourcetrack>
							<mediatype>audio</mediatype>
							<trackindex>1</trackindex>
						</sourcetrack>
						<labels>
							<label2>Iris</label2>
						</labels>
						<outputchannelindex>1</outputchannelindex>
					</clipitem>
					<clipitem id="clipitem-1774" premiereChannelType="stereo">
						<masterclipid>masterclip-2</masterclipid>
						<name>chandrika rocket equations</name>
						<start>50252</start>
						<end>50288</end>
						<in>83606</in>
						<out>83642</out>
						<file id="file-1" />
						<sourcetrack>
							<mediatype>audio</mediatype>
							<trackindex>1</trackindex>
						</sourcetrack>
						<labels>
							<label2>Iris</label2>
						</labels>
						<outputchannelindex>1</outputchannelindex>
					</clipitem>
					<clipitem id="clipitem-1775" premiereChannelType="stereo">
						<masterclipid>masterclip-2</masterclipid>
						<name>chandrika rocket equations</name>
						<start>50288</start>
						<end>50305</end>
						<in>83665</in>
						<out>83682</out>
						<file id="file-1" />
						<sourcetrack>
							<mediatype>audio</mediatype>
							<trackindex>1</trackindex>
						</sourcetrack>
						<labels>
							<label2>Iris</label2>
						</labels>
						<outputchannelindex>1</outputchannelindex>
					</clipitem>
					<clipitem id="clipitem-1776" premiereChannelType="stereo">
						<masterclipid>masterclip-2</masterclipid>
						<name>chandrika rocket equations</name>
						<start>50305</start>
						<end>50358</end>
						<in>83704</in>
						<out>83757</out>
						<file id="file-1" />
						<sourcetrack>
							<mediatype>audio</mediatype>
							<trackindex>1</trackindex>
						</sourcetrack>
						<labels>
							<label2>Iris</label2>
						</labels>
						<outputchannelindex>1</outputchannelindex>
					</clipitem>
					<clipitem id="clipitem-1777" premiereChannelType="stereo">
						<masterclipid>masterclip-2</masterclipid>
						<name>chandrika rocket equations</name>
						<start>50358</start>
						<end>50399</end>
						<in>83928</in>
						<out>83969</out>
						<file id="file-1" />
						<sourcetrack>
							<mediatype>audio</mediatype>
							<trackindex>1</trackindex>
						</sourcetrack>
						<labels>
							<label2>Iris</label2>
						</labels>
						<outputchannelindex>1</outputchannelindex>
					</clipitem>
					<clipitem id="clipitem-1778" premiereChannelType="stereo">
						<masterclipid>masterclip-2</masterclipid>
						<name>chandrika rocket equations</name>
						<start>50399</start>
						<end>50419</end>
						<in>83975</in>
						<out>83995</out>
						<file id="file-1" />
						<sourcetrack>
							<mediatype>audio</mediatype>
							<trackindex>1</trackindex>
						</sourcetrack>
						<labels>
							<label2>Iris</label2>
						</labels>
						<outputchannelindex>1</outputchannelindex>
					</clipitem>
					<clipitem id="clipitem-1779" premiereChannelType="stereo">
						<masterclipid>masterclip-2</masterclipid>
						<name>chandrika rocket equations</name>
						<start>50419</start>
						<end>50545</end>
						<in>83998</in>
						<out>84124</out>
						<file id="file-1" />
						<sourcetrack>
							<mediatype>audio</mediatype>
							<trackindex>1</trackindex>
						</sourcetrack>
						<labels>
							<label2>Iris</label2>
						</labels>
						<outputchannelindex>1</outputchannelindex>
					</clipitem>
					<clipitem id="clipitem-1780" premiereChannelType="stereo">
						<masterclipid>masterclip-2</masterclipid>
						<name>chandrika rocket equations</name>
						<start>50545</start>
						<end>50626</end>
						<in>84126</in>
						<out>84207</out>
						<file id="file-1" />
						<sourcetrack>
							<mediatype>audio</mediatype>
							<trackindex>1</trackindex>
						</sourcetrack>
						<labels>
							<label2>Iris</label2>
						</labels>
						<outputchannelindex>1</outputchannelindex>
					</clipitem>
					<clipitem id="clipitem-1781" premiereChannelType="stereo">
						<masterclipid>masterclip-2</masterclipid>
						<name>chandrika rocket equations</name>
						<start>50626</start>
						<end>50646</end>
						<in>84253</in>
						<out>84273</out>
						<file id="file-1" />
						<sourcetrack>
							<mediatype>audio</mediatype>
							<trackindex>1</trackindex>
						</sourcetrack>
						<labels>
							<label2>Iris</label2>
						</labels>
						<outputchannelindex>1</outputchannelindex>
					</clipitem>
					<clipitem id="clipitem-1782" premiereChannelType="stereo">
						<masterclipid>masterclip-2</masterclipid>
						<name>chandrika rocket equations</name>
						<start>50646</start>
						<end>50772</end>
						<in>84282</in>
						<out>84408</out>
						<file id="file-1" />
						<sourcetrack>
							<mediatype>audio</mediatype>
							<trackindex>1</trackindex>
						</sourcetrack>
						<labels>
							<label2>Iris</label2>
						</labels>
						<outputchannelindex>1</outputchannelindex>
					</clipitem>
					<clipitem id="clipitem-1783" premiereChannelType="stereo">
						<masterclipid>masterclip-2</masterclipid>
						<name>chandrika rocket equations</name>
						<start>50772</start>
						<end>50805</end>
						<in>84439</in>
						<out>84472</out>
						<file id="file-1" />
						<sourcetrack>
							<mediatype>audio</mediatype>
							<trackindex>1</trackindex>
						</sourcetrack>
						<labels>
							<label2>Iris</label2>
						</labels>
						<outputchannelindex>1</outputchannelindex>
					</clipitem>
					<clipitem id="clipitem-1784" premiereChannelType="stereo">
						<masterclipid>masterclip-2</masterclipid>
						<name>chandrika rocket equations</name>
						<start>50805</start>
						<end>50870</end>
						<in>84509</in>
						<out>84574</out>
						<file id="file-1" />
						<sourcetrack>
							<mediatype>audio</mediatype>
							<trackindex>1</trackindex>
						</sourcetrack>
						<labels>
							<label2>Iris</label2>
						</labels>
						<outputchannelindex>1</outputchannelindex>
					</clipitem>
					<clipitem id="clipitem-1785" premiereChannelType="stereo">
						<masterclipid>masterclip-2</masterclipid>
						<name>chandrika rocket equations</name>
						<start>50870</start>
						<end>50911</end>
						<in>84711</in>
						<out>84752</out>
						<file id="file-1" />
						<sourcetrack>
							<mediatype>audio</mediatype>
							<trackindex>1</trackindex>
						</sourcetrack>
						<labels>
							<label2>Iris</label2>
						</labels>
						<outputchannelindex>1</outputchannelindex>
					</clipitem>
					<clipitem id="clipitem-1786" premiereChannelType="stereo">
						<masterclipid>masterclip-2</masterclipid>
						<name>chandrika rocket equations</name>
						<start>50911</start>
						<end>50938</end>
						<in>84768</in>
						<out>84795</out>
						<file id="file-1" />
						<sourcetrack>
							<mediatype>audio</mediatype>
							<trackindex>1</trackindex>
						</sourcetrack>
						<labels>
							<label2>Iris</label2>
						</labels>
						<outputchannelindex>1</outputchannelindex>
					</clipitem>
					<clipitem id="clipitem-1787" premiereChannelType="stereo">
						<masterclipid>masterclip-2</masterclipid>
						<name>chandrika rocket equations</name>
						<start>50938</start>
						<end>51042</end>
						<in>84912</in>
						<out>85016</out>
						<file id="file-1" />
						<sourcetrack>
							<mediatype>audio</mediatype>
							<trackindex>1</trackindex>
						</sourcetrack>
						<labels>
							<label2>Iris</label2>
						</labels>
						<outputchannelindex>1</outputchannelindex>
					</clipitem>
					<clipitem id="clipitem-1788" premiereChannelType="stereo">
						<masterclipid>masterclip-2</masterclipid>
						<name>chandrika rocket equations</name>
						<start>51042</start>
						<end>51106</end>
						<in>85189</in>
						<out>85253</out>
						<file id="file-1" />
						<sourcetrack>
							<mediatype>audio</mediatype>
							<trackindex>1</trackindex>
						</sourcetrack>
						<labels>
							<label2>Iris</label2>
						</labels>
						<outputchannelindex>1</outputchannelindex>
					</clipitem>
					<clipitem id="clipitem-1789" premiereChannelType="stereo">
						<masterclipid>masterclip-2</masterclipid>
						<name>chandrika rocket equations</name>
						<start>51106</start>
						<end>51128</end>
						<in>85276</in>
						<out>85298</out>
						<file id="file-1" />
						<sourcetrack>
							<mediatype>audio</mediatype>
							<trackindex>1</trackindex>
						</sourcetrack>
						<labels>
							<label2>Iris</label2>
						</labels>
						<outputchannelindex>1</outputchannelindex>
					</clipitem>
					<clipitem id="clipitem-1790" premiereChannelType="stereo">
						<masterclipid>masterclip-2</masterclipid>
						<name>chandrika rocket equations</name>
						<start>51128</start>
						<end>51199</end>
						<in>85299</in>
						<out>85370</out>
						<file id="file-1" />
						<sourcetrack>
							<mediatype>audio</mediatype>
							<trackindex>1</trackindex>
						</sourcetrack>
						<labels>
							<label2>Iris</label2>
						</labels>
						<outputchannelindex>1</outputchannelindex>
					</clipitem>
					<clipitem id="clipitem-1791" premiereChannelType="stereo">
						<masterclipid>masterclip-2</masterclipid>
						<name>chandrika rocket equations</name>
						<start>51199</start>
						<end>51248</end>
						<in>85380</in>
						<out>85429</out>
						<file id="file-1" />
						<sourcetrack>
							<mediatype>audio</mediatype>
							<trackindex>1</trackindex>
						</sourcetrack>
						<labels>
							<label2>Iris</label2>
						</labels>
						<outputchannelindex>1</outputchannelindex>
					</clipitem>
					<clipitem id="clipitem-1792" premiereChannelType="stereo">
						<masterclipid>masterclip-2</masterclipid>
						<name>chandrika rocket equations</name>
						<start>51248</start>
						<end>51338</end>
						<in>85443</in>
						<out>85533</out>
						<file id="file-1" />
						<sourcetrack>
							<mediatype>audio</mediatype>
							<trackindex>1</trackindex>
						</sourcetrack>
						<labels>
							<label2>Iris</label2>
						</labels>
						<outputchannelindex>1</outputchannelindex>
					</clipitem>
					<clipitem id="clipitem-1793" premiereChannelType="stereo">
						<masterclipid>masterclip-2</masterclipid>
						<name>chandrika rocket equations</name>
						<start>51338</start>
						<end>51385</end>
						<in>85710</in>
						<out>85757</out>
						<file id="file-1" />
						<sourcetrack>
							<mediatype>audio</mediatype>
							<trackindex>1</trackindex>
						</sourcetrack>
						<labels>
							<label2>Iris</label2>
						</labels>
						<outputchannelindex>1</outputchannelindex>
					</clipitem>
					<clipitem id="clipitem-1794" premiereChannelType="stereo">
						<masterclipid>masterclip-2</masterclipid>
						<name>chandrika rocket equations</name>
						<start>51385</start>
						<end>51463</end>
						<in>85779</in>
						<out>85857</out>
						<file id="file-1" />
						<sourcetrack>
							<mediatype>audio</mediatype>
							<trackindex>1</trackindex>
						</sourcetrack>
						<labels>
							<label2>Iris</label2>
						</labels>
						<outputchannelindex>1</outputchannelindex>
					</clipitem>
					<clipitem id="clipitem-1795" premiereChannelType="stereo">
						<masterclipid>masterclip-2</masterclipid>
						<name>chandrika rocket equations</name>
						<start>51463</start>
						<end>51513</end>
						<in>86130</in>
						<out>86180</out>
						<file id="file-1" />
						<sourcetrack>
							<mediatype>audio</mediatype>
							<trackindex>1</trackindex>
						</sourcetrack>
						<labels>
							<label2>Iris</label2>
						</labels>
						<outputchannelindex>1</outputchannelindex>
					</clipitem>
					<clipitem id="clipitem-1796" premiereChannelType="stereo">
						<masterclipid>masterclip-2</masterclipid>
						<name>chandrika rocket equations</name>
						<start>51513</start>
						<end>51549</end>
						<in>86322</in>
						<out>86358</out>
						<file id="file-1" />
						<sourcetrack>
							<mediatype>audio</mediatype>
							<trackindex>1</trackindex>
						</sourcetrack>
						<labels>
							<label2>Iris</label2>
						</labels>
						<outputchannelindex>1</outputchannelindex>
					</clipitem>
					<clipitem id="clipitem-1797" premiereChannelType="stereo">
						<masterclipid>masterclip-2</masterclipid>
						<name>chandrika rocket equations</name>
						<start>51549</start>
						<end>51640</end>
						<in>86375</in>
						<out>86466</out>
						<file id="file-1" />
						<sourcetrack>
							<mediatype>audio</mediatype>
							<trackindex>1</trackindex>
						</sourcetrack>
						<labels>
							<label2>Iris</label2>
						</labels>
						<outputchannelindex>1</outputchannelindex>
					</clipitem>
					<clipitem id="clipitem-1798" premiereChannelType="stereo">
						<masterclipid>masterclip-2</masterclipid>
						<name>chandrika rocket equations</name>
						<start>51640</start>
						<end>51833</end>
						<in>86537</in>
						<out>86730</out>
						<file id="file-1" />
						<sourcetrack>
							<mediatype>audio</mediatype>
							<trackindex>1</trackindex>
						</sourcetrack>
						<labels>
							<label2>Iris</label2>
						</labels>
						<outputchannelindex>1</outputchannelindex>
					</clipitem>
					<clipitem id="clipitem-1799" premiereChannelType="stereo">
						<masterclipid>masterclip-2</masterclipid>
						<name>chandrika rocket equations</name>
						<start>51833</start>
						<end>51937</end>
						<in>86757</in>
						<out>86861</out>
						<file id="file-1" />
						<sourcetrack>
							<mediatype>audio</mediatype>
							<trackindex>1</trackindex>
						</sourcetrack>
						<labels>
							<label2>Iris</label2>
						</labels>
						<outputchannelindex>1</outputchannelindex>
					</clipitem>
					<clipitem id="clipitem-1800" premiereChannelType="stereo">
						<masterclipid>masterclip-2</masterclipid>
						<name>chandrika rocket equations</name>
						<start>51937</start>
						<end>51988</end>
						<in>86888</in>
						<out>86939</out>
						<file id="file-1" />
						<sourcetrack>
							<mediatype>audio</mediatype>
							<trackindex>1</trackindex>
						</sourcetrack>
						<labels>
							<label2>Iris</label2>
						</labels>
						<outputchannelindex>1</outputchannelindex>
					</clipitem>
					<clipitem id="clipitem-1801" premiereChannelType="stereo">
						<masterclipid>masterclip-2</masterclipid>
						<name>chandrika rocket equations</name>
						<start>51988</start>
						<end>52038</end>
						<in>86975</in>
						<out>87025</out>
						<file id="file-1" />
						<sourcetrack>
							<mediatype>audio</mediatype>
							<trackindex>1</trackindex>
						</sourcetrack>
						<labels>
							<label2>Iris</label2>
						</labels>
						<outputchannelindex>1</outputchannelindex>
					</clipitem>
					<clipitem id="clipitem-1802" premiereChannelType="stereo">
						<masterclipid>masterclip-2</masterclipid>
						<name>chandrika rocket equations</name>
						<start>52038</start>
						<end>52073</end>
						<in>87055</in>
						<out>87090</out>
						<file id="file-1" />
						<sourcetrack>
							<mediatype>audio</mediatype>
							<trackindex>1</trackindex>
						</sourcetrack>
						<labels>
							<label2>Iris</label2>
						</labels>
						<outputchannelindex>1</outputchannelindex>
					</clipitem>
					<clipitem id="clipitem-1803" premiereChannelType="stereo">
						<masterclipid>masterclip-2</masterclipid>
						<name>chandrika rocket equations</name>
						<start>52073</start>
						<end>52157</end>
						<in>87192</in>
						<out>87276</out>
						<file id="file-1" />
						<sourcetrack>
							<mediatype>audio</mediatype>
							<trackindex>1</trackindex>
						</sourcetrack>
						<labels>
							<label2>Iris</label2>
						</labels>
						<outputchannelindex>1</outputchannelindex>
					</clipitem>
					<clipitem id="clipitem-1804" premiereChannelType="stereo">
						<masterclipid>masterclip-2</masterclipid>
						<name>chandrika rocket equations</name>
						<start>52157</start>
						<end>52206</end>
						<in>87494</in>
						<out>87543</out>
						<file id="file-1" />
						<sourcetrack>
							<mediatype>audio</mediatype>
							<trackindex>1</trackindex>
						</sourcetrack>
						<labels>
							<label2>Iris</label2>
						</labels>
						<outputchannelindex>1</outputchannelindex>
					</clipitem>
					<clipitem id="clipitem-1805" premiereChannelType="stereo">
						<masterclipid>masterclip-2</masterclipid>
						<name>chandrika rocket equations</name>
						<start>52206</start>
						<end>52246</end>
						<in>87611</in>
						<out>87651</out>
						<file id="file-1" />
						<sourcetrack>
							<mediatype>audio</mediatype>
							<trackindex>1</trackindex>
						</sourcetrack>
						<labels>
							<label2>Iris</label2>
						</labels>
						<outputchannelindex>1</outputchannelindex>
					</clipitem>
					<clipitem id="clipitem-1806" premiereChannelType="stereo">
						<masterclipid>masterclip-2</masterclipid>
						<name>chandrika rocket equations</name>
						<start>52246</start>
						<end>52291</end>
						<in>87677</in>
						<out>87722</out>
						<file id="file-1" />
						<sourcetrack>
							<mediatype>audio</mediatype>
							<trackindex>1</trackindex>
						</sourcetrack>
						<labels>
							<label2>Iris</label2>
						</labels>
						<outputchannelindex>1</outputchannelindex>
					</clipitem>
					<clipitem id="clipitem-1807" premiereChannelType="stereo">
						<masterclipid>masterclip-2</masterclipid>
						<name>chandrika rocket equations</name>
						<start>52291</start>
						<end>52334</end>
						<in>87845</in>
						<out>87888</out>
						<file id="file-1" />
						<sourcetrack>
							<mediatype>audio</mediatype>
							<trackindex>1</trackindex>
						</sourcetrack>
						<labels>
							<label2>Iris</label2>
						</labels>
						<outputchannelindex>1</outputchannelindex>
					</clipitem>
					<clipitem id="clipitem-1808" premiereChannelType="stereo">
						<masterclipid>masterclip-2</masterclipid>
						<name>chandrika rocket equations</name>
						<start>52334</start>
						<end>52432</end>
						<in>88076</in>
						<out>88174</out>
						<file id="file-1" />
						<sourcetrack>
							<mediatype>audio</mediatype>
							<trackindex>1</trackindex>
						</sourcetrack>
						<labels>
							<label2>Iris</label2>
						</labels>
						<outputchannelindex>1</outputchannelindex>
					</clipitem>
					<clipitem id="clipitem-1809" premiereChannelType="stereo">
						<masterclipid>masterclip-2</masterclipid>
						<name>chandrika rocket equations</name>
						<start>52432</start>
						<end>52458</end>
						<in>88204</in>
						<out>88230</out>
						<file id="file-1" />
						<sourcetrack>
							<mediatype>audio</mediatype>
							<trackindex>1</trackindex>
						</sourcetrack>
						<labels>
							<label2>Iris</label2>
						</labels>
						<outputchannelindex>1</outputchannelindex>
					</clipitem>
					<clipitem id="clipitem-1810" premiereChannelType="stereo">
						<masterclipid>masterclip-2</masterclipid>
						<name>chandrika rocket equations</name>
						<start>52458</start>
						<end>52498</end>
						<in>88237</in>
						<out>88277</out>
						<file id="file-1" />
						<sourcetrack>
							<mediatype>audio</mediatype>
							<trackindex>1</trackindex>
						</sourcetrack>
						<labels>
							<label2>Iris</label2>
						</labels>
						<outputchannelindex>1</outputchannelindex>
					</clipitem>
					<clipitem id="clipitem-1811" premiereChannelType="stereo">
						<masterclipid>masterclip-2</masterclipid>
						<name>chandrika rocket equations</name>
						<start>52498</start>
						<end>52524</end>
						<in>88287</in>
						<out>88313</out>
						<file id="file-1" />
						<sourcetrack>
							<mediatype>audio</mediatype>
							<trackindex>1</trackindex>
						</sourcetrack>
						<labels>
							<label2>Iris</label2>
						</labels>
						<outputchannelindex>1</outputchannelindex>
					</clipitem>
					<clipitem id="clipitem-1812" premiereChannelType="stereo">
						<masterclipid>masterclip-2</masterclipid>
						<name>chandrika rocket equations</name>
						<start>52524</start>
						<end>52672</end>
						<in>88320</in>
						<out>88468</out>
						<file id="file-1" />
						<sourcetrack>
							<mediatype>audio</mediatype>
							<trackindex>1</trackindex>
						</sourcetrack>
						<labels>
							<label2>Iris</label2>
						</labels>
						<outputchannelindex>1</outputchannelindex>
					</clipitem>
					<clipitem id="clipitem-1813" premiereChannelType="stereo">
						<masterclipid>masterclip-2</masterclipid>
						<name>chandrika rocket equations</name>
						<start>52672</start>
						<end>52731</end>
						<in>88553</in>
						<out>88612</out>
						<file id="file-1" />
						<sourcetrack>
							<mediatype>audio</mediatype>
							<trackindex>1</trackindex>
						</sourcetrack>
						<labels>
							<label2>Iris</label2>
						</labels>
						<outputchannelindex>1</outputchannelindex>
					</clipitem>
					<clipitem id="clipitem-1814" premiereChannelType="stereo">
						<masterclipid>masterclip-2</masterclipid>
						<name>chandrika rocket equations</name>
						<start>52731</start>
						<end>52791</end>
						<in>88687</in>
						<out>88747</out>
						<file id="file-1" />
						<sourcetrack>
							<mediatype>audio</mediatype>
							<trackindex>1</trackindex>
						</sourcetrack>
						<labels>
							<label2>Iris</label2>
						</labels>
						<outputchannelindex>1</outputchannelindex>
					</clipitem>
					<clipitem id="clipitem-1815" premiereChannelType="stereo">
						<masterclipid>masterclip-2</masterclipid>
						<name>chandrika rocket equations</name>
						<start>52791</start>
						<end>52882</end>
						<in>88768</in>
						<out>88859</out>
						<file id="file-1" />
						<sourcetrack>
							<mediatype>audio</mediatype>
							<trackindex>1</trackindex>
						</sourcetrack>
						<labels>
							<label2>Iris</label2>
						</labels>
						<outputchannelindex>1</outputchannelindex>
					</clipitem>
					<clipitem id="clipitem-1816" premiereChannelType="stereo">
						<masterclipid>masterclip-2</masterclipid>
						<name>chandrika rocket equations</name>
						<start>52882</start>
						<end>52906</end>
						<in>88881</in>
						<out>88905</out>
						<file id="file-1" />
						<sourcetrack>
							<mediatype>audio</mediatype>
							<trackindex>1</trackindex>
						</sourcetrack>
						<labels>
							<label2>Iris</label2>
						</labels>
						<outputchannelindex>1</outputchannelindex>
					</clipitem>
					<clipitem id="clipitem-1817" premiereChannelType="stereo">
						<masterclipid>masterclip-2</masterclipid>
						<name>chandrika rocket equations</name>
						<start>52906</start>
						<end>53027</end>
						<in>88919</in>
						<out>89040</out>
						<file id="file-1" />
						<sourcetrack>
							<mediatype>audio</mediatype>
							<trackindex>1</trackindex>
						</sourcetrack>
						<labels>
							<label2>Iris</label2>
						</labels>
						<outputchannelindex>1</outputchannelindex>
					</clipitem>
					<clipitem id="clipitem-1818" premiereChannelType="stereo">
						<masterclipid>masterclip-2</masterclipid>
						<name>chandrika rocket equations</name>
						<start>53027</start>
						<end>53088</end>
						<in>89080</in>
						<out>89141</out>
						<file id="file-1" />
						<sourcetrack>
							<mediatype>audio</mediatype>
							<trackindex>1</trackindex>
						</sourcetrack>
						<labels>
							<label2>Iris</label2>
						</labels>
						<outputchannelindex>1</outputchannelindex>
					</clipitem>
					<clipitem id="clipitem-1819" premiereChannelType="stereo">
						<masterclipid>masterclip-2</masterclipid>
						<name>chandrika rocket equations</name>
						<start>53088</start>
						<end>53103</end>
						<in>89142</in>
						<out>89157</out>
						<file id="file-1" />
						<sourcetrack>
							<mediatype>audio</mediatype>
							<trackindex>1</trackindex>
						</sourcetrack>
						<labels>
							<label2>Iris</label2>
						</labels>
						<outputchannelindex>1</outputchannelindex>
					</clipitem>
					<clipitem id="clipitem-1820" premiereChannelType="stereo">
						<masterclipid>masterclip-2</masterclipid>
						<name>chandrika rocket equations</name>
						<start>53103</start>
						<end>53183</end>
						<in>89229</in>
						<out>89309</out>
						<file id="file-1" />
						<sourcetrack>
							<mediatype>audio</mediatype>
							<trackindex>1</trackindex>
						</sourcetrack>
						<labels>
							<label2>Iris</label2>
						</labels>
						<outputchannelindex>1</outputchannelindex>
					</clipitem>
					<clipitem id="clipitem-1821" premiereChannelType="stereo">
						<masterclipid>masterclip-2</masterclipid>
						<name>chandrika rocket equations</name>
						<start>53183</start>
						<end>53221</end>
						<in>89321</in>
						<out>89359</out>
						<file id="file-1" />
						<sourcetrack>
							<mediatype>audio</mediatype>
							<trackindex>1</trackindex>
						</sourcetrack>
						<labels>
							<label2>Iris</label2>
						</labels>
						<outputchannelindex>1</outputchannelindex>
					</clipitem>
					<clipitem id="clipitem-1822" premiereChannelType="stereo">
						<masterclipid>masterclip-2</masterclipid>
						<name>chandrika rocket equations</name>
						<start>53221</start>
						<end>53311</end>
						<in>89576</in>
						<out>89666</out>
						<file id="file-1" />
						<sourcetrack>
							<mediatype>audio</mediatype>
							<trackindex>1</trackindex>
						</sourcetrack>
						<labels>
							<label2>Iris</label2>
						</labels>
						<outputchannelindex>1</outputchannelindex>
					</clipitem>
					<clipitem id="clipitem-1823" premiereChannelType="stereo">
						<masterclipid>masterclip-2</masterclipid>
						<name>chandrika rocket equations</name>
						<start>53311</start>
						<end>53367</end>
						<in>89672</in>
						<out>89728</out>
						<file id="file-1" />
						<sourcetrack>
							<mediatype>audio</mediatype>
							<trackindex>1</trackindex>
						</sourcetrack>
						<labels>
							<label2>Iris</label2>
						</labels>
						<outputchannelindex>1</outputchannelindex>
					</clipitem>
					<clipitem id="clipitem-1824" premiereChannelType="stereo">
						<masterclipid>masterclip-2</masterclipid>
						<name>chandrika rocket equations</name>
						<start>53367</start>
						<end>53411</end>
						<in>89790</in>
						<out>89834</out>
						<file id="file-1" />
						<sourcetrack>
							<mediatype>audio</mediatype>
							<trackindex>1</trackindex>
						</sourcetrack>
						<labels>
							<label2>Iris</label2>
						</labels>
						<outputchannelindex>1</outputchannelindex>
					</clipitem>
					<clipitem id="clipitem-1825" premiereChannelType="stereo">
						<masterclipid>masterclip-2</masterclipid>
						<name>chandrika rocket equations</name>
						<start>53411</start>
						<end>53468</end>
						<in>89884</in>
						<out>89941</out>
						<file id="file-1" />
						<sourcetrack>
							<mediatype>audio</mediatype>
							<trackindex>1</trackindex>
						</sourcetrack>
						<labels>
							<label2>Iris</label2>
						</labels>
						<outputchannelindex>1</outputchannelindex>
					</clipitem>
					<clipitem id="clipitem-1826" premiereChannelType="stereo">
						<masterclipid>masterclip-2</masterclipid>
						<name>chandrika rocket equations</name>
						<start>53468</start>
						<end>53542</end>
						<in>90446</in>
						<out>90520</out>
						<file id="file-1" />
						<sourcetrack>
							<mediatype>audio</mediatype>
							<trackindex>1</trackindex>
						</sourcetrack>
						<labels>
							<label2>Iris</label2>
						</labels>
						<outputchannelindex>1</outputchannelindex>
					</clipitem>
					<clipitem id="clipitem-1827" premiereChannelType="stereo">
						<masterclipid>masterclip-2</masterclipid>
						<name>chandrika rocket equations</name>
						<start>53542</start>
						<end>53606</end>
						<in>90817</in>
						<out>90881</out>
						<file id="file-1" />
						<sourcetrack>
							<mediatype>audio</mediatype>
							<trackindex>1</trackindex>
						</sourcetrack>
						<labels>
							<label2>Iris</label2>
						</labels>
						<outputchannelindex>1</outputchannelindex>
					</clipitem>
					<clipitem id="clipitem-1828" premiereChannelType="stereo">
						<masterclipid>masterclip-2</masterclipid>
						<name>chandrika rocket equations</name>
						<start>53606</start>
						<end>53687</end>
						<in>90901</in>
						<out>90982</out>
						<file id="file-1" />
						<sourcetrack>
							<mediatype>audio</mediatype>
							<trackindex>1</trackindex>
						</sourcetrack>
						<labels>
							<label2>Iris</label2>
						</labels>
						<outputchannelindex>1</outputchannelindex>
					</clipitem>
					<clipitem id="clipitem-1829" premiereChannelType="stereo">
						<masterclipid>masterclip-2</masterclipid>
						<name>chandrika rocket equations</name>
						<start>53687</start>
						<end>53738</end>
						<in>91366</in>
						<out>91417</out>
						<file id="file-1" />
						<sourcetrack>
							<mediatype>audio</mediatype>
							<trackindex>1</trackindex>
						</sourcetrack>
						<labels>
							<label2>Iris</label2>
						</labels>
						<outputchannelindex>1</outputchannelindex>
					</clipitem>
					<clipitem id="clipitem-1830" premiereChannelType="stereo">
						<masterclipid>masterclip-2</masterclipid>
						<name>chandrika rocket equations</name>
						<start>53738</start>
						<end>53753</end>
						<in>91433</in>
						<out>91448</out>
						<file id="file-1" />
						<sourcetrack>
							<mediatype>audio</mediatype>
							<trackindex>1</trackindex>
						</sourcetrack>
						<labels>
							<label2>Iris</label2>
						</labels>
						<outputchannelindex>1</outputchannelindex>
					</clipitem>
					<clipitem id="clipitem-1831" premiereChannelType="stereo">
						<masterclipid>masterclip-2</masterclipid>
						<name>chandrika rocket equations</name>
						<start>53753</start>
						<end>53841</end>
						<in>91639</in>
						<out>91727</out>
						<file id="file-1" />
						<sourcetrack>
							<mediatype>audio</mediatype>
							<trackindex>1</trackindex>
						</sourcetrack>
						<labels>
							<label2>Iris</label2>
						</labels>
						<outputchannelindex>1</outputchannelindex>
					</clipitem>
					<clipitem id="clipitem-1832" premiereChannelType="stereo">
						<masterclipid>masterclip-2</masterclipid>
						<name>chandrika rocket equations</name>
						<start>53841</start>
						<end>53867</end>
						<in>92623</in>
						<out>92649</out>
						<file id="file-1" />
						<sourcetrack>
							<mediatype>audio</mediatype>
							<trackindex>1</trackindex>
						</sourcetrack>
						<labels>
							<label2>Iris</label2>
						</labels>
						<outputchannelindex>1</outputchannelindex>
					</clipitem>
					<clipitem id="clipitem-1833" premiereChannelType="stereo">
						<masterclipid>masterclip-2</masterclipid>
						<name>chandrika rocket equations</name>
						<start>53867</start>
						<end>53894</end>
						<in>92654</in>
						<out>92681</out>
						<file id="file-1" />
						<sourcetrack>
							<mediatype>audio</mediatype>
							<trackindex>1</trackindex>
						</sourcetrack>
						<labels>
							<label2>Iris</label2>
						</labels>
						<outputchannelindex>1</outputchannelindex>
					</clipitem>
					<clipitem id="clipitem-1834" premiereChannelType="stereo">
						<masterclipid>masterclip-2</masterclipid>
						<name>chandrika rocket equations</name>
						<start>53894</start>
						<end>53919</end>
						<in>92682</in>
						<out>92707</out>
						<file id="file-1" />
						<sourcetrack>
							<mediatype>audio</mediatype>
							<trackindex>1</trackindex>
						</sourcetrack>
						<labels>
							<label2>Iris</label2>
						</labels>
						<outputchannelindex>1</outputchannelindex>
					</clipitem>
					<clipitem id="clipitem-1835" premiereChannelType="stereo">
						<masterclipid>masterclip-2</masterclipid>
						<name>chandrika rocket equations</name>
						<start>53919</start>
						<end>53959</end>
						<in>92720</in>
						<out>92760</out>
						<file id="file-1" />
						<sourcetrack>
							<mediatype>audio</mediatype>
							<trackindex>1</trackindex>
						</sourcetrack>
						<labels>
							<label2>Iris</label2>
						</labels>
						<outputchannelindex>1</outputchannelindex>
					</clipitem>
					<clipitem id="clipitem-1836" premiereChannelType="stereo">
						<masterclipid>masterclip-2</masterclipid>
						<name>chandrika rocket equations</name>
						<start>53959</start>
						<end>53997</end>
						<in>92766</in>
						<out>92804</out>
						<file id="file-1" />
						<sourcetrack>
							<mediatype>audio</mediatype>
							<trackindex>1</trackindex>
						</sourcetrack>
						<labels>
							<label2>Iris</label2>
						</labels>
						<outputchannelindex>1</outputchannelindex>
					</clipitem>
					<clipitem id="clipitem-1837" premiereChannelType="stereo">
						<masterclipid>masterclip-2</masterclipid>
						<name>chandrika rocket equations</name>
						<start>53997</start>
						<end>54039</end>
						<in>92816</in>
						<out>92858</out>
						<file id="file-1" />
						<sourcetrack>
							<mediatype>audio</mediatype>
							<trackindex>1</trackindex>
						</sourcetrack>
						<labels>
							<label2>Iris</label2>
						</labels>
						<outputchannelindex>1</outputchannelindex>
					</clipitem>
					<clipitem id="clipitem-1838" premiereChannelType="stereo">
						<masterclipid>masterclip-2</masterclipid>
						<name>chandrika rocket equations</name>
						<start>54039</start>
						<end>54125</end>
						<in>92882</in>
						<out>92968</out>
						<file id="file-1" />
						<sourcetrack>
							<mediatype>audio</mediatype>
							<trackindex>1</trackindex>
						</sourcetrack>
						<labels>
							<label2>Iris</label2>
						</labels>
						<outputchannelindex>1</outputchannelindex>
					</clipitem>
					<clipitem id="clipitem-1839" premiereChannelType="stereo">
						<masterclipid>masterclip-2</masterclipid>
						<name>chandrika rocket equations</name>
						<start>54125</start>
						<end>54190</end>
						<in>92990</in>
						<out>93055</out>
						<file id="file-1" />
						<sourcetrack>
							<mediatype>audio</mediatype>
							<trackindex>1</trackindex>
						</sourcetrack>
						<labels>
							<label2>Iris</label2>
						</labels>
						<outputchannelindex>1</outputchannelindex>
					</clipitem>
					<clipitem id="clipitem-1840" premiereChannelType="stereo">
						<masterclipid>masterclip-2</masterclipid>
						<name>chandrika rocket equations</name>
						<start>54190</start>
						<end>54211</end>
						<in>93098</in>
						<out>93119</out>
						<file id="file-1" />
						<sourcetrack>
							<mediatype>audio</mediatype>
							<trackindex>1</trackindex>
						</sourcetrack>
						<labels>
							<label2>Iris</label2>
						</labels>
						<outputchannelindex>1</outputchannelindex>
					</clipitem>
					<clipitem id="clipitem-1841" premiereChannelType="stereo">
						<masterclipid>masterclip-2</masterclipid>
						<name>chandrika rocket equations</name>
						<start>54211</start>
						<end>54257</end>
						<in>93131</in>
						<out>93177</out>
						<file id="file-1" />
						<sourcetrack>
							<mediatype>audio</mediatype>
							<trackindex>1</trackindex>
						</sourcetrack>
						<labels>
							<label2>Iris</label2>
						</labels>
						<outputchannelindex>1</outputchannelindex>
					</clipitem>
					<clipitem id="clipitem-1842" premiereChannelType="stereo">
						<masterclipid>masterclip-2</masterclipid>
						<name>chandrika rocket equations</name>
						<start>54257</start>
						<end>54322</end>
						<in>93178</in>
						<out>93243</out>
						<file id="file-1" />
						<sourcetrack>
							<mediatype>audio</mediatype>
							<trackindex>1</trackindex>
						</sourcetrack>
						<labels>
							<label2>Iris</label2>
						</labels>
						<outputchannelindex>1</outputchannelindex>
					</clipitem>
					<clipitem id="clipitem-1843" premiereChannelType="stereo">
						<masterclipid>masterclip-2</masterclipid>
						<name>chandrika rocket equations</name>
						<start>54322</start>
						<end>54381</end>
						<in>93251</in>
						<out>93310</out>
						<file id="file-1" />
						<sourcetrack>
							<mediatype>audio</mediatype>
							<trackindex>1</trackindex>
						</sourcetrack>
						<labels>
							<label2>Iris</label2>
						</labels>
						<outputchannelindex>1</outputchannelindex>
					</clipitem>
					<clipitem id="clipitem-1844" premiereChannelType="stereo">
						<masterclipid>masterclip-2</masterclipid>
						<name>chandrika rocket equations</name>
						<start>54381</start>
						<end>54416</end>
						<in>93314</in>
						<out>93349</out>
						<file id="file-1" />
						<sourcetrack>
							<mediatype>audio</mediatype>
							<trackindex>1</trackindex>
						</sourcetrack>
						<labels>
							<label2>Iris</label2>
						</labels>
						<outputchannelindex>1</outputchannelindex>
					</clipitem>
					<clipitem id="clipitem-1845" premiereChannelType="stereo">
						<masterclipid>masterclip-2</masterclipid>
						<name>chandrika rocket equations</name>
						<start>54416</start>
						<end>54483</end>
						<in>93351</in>
						<out>93418</out>
						<file id="file-1" />
						<sourcetrack>
							<mediatype>audio</mediatype>
							<trackindex>1</trackindex>
						</sourcetrack>
						<labels>
							<label2>Iris</label2>
						</labels>
						<outputchannelindex>1</outputchannelindex>
					</clipitem>
					<clipitem id="clipitem-1846" premiereChannelType="stereo">
						<masterclipid>masterclip-2</masterclipid>
						<name>chandrika rocket equations</name>
						<start>54483</start>
						<end>54502</end>
						<in>93420</in>
						<out>93439</out>
						<file id="file-1" />
						<sourcetrack>
							<mediatype>audio</mediatype>
							<trackindex>1</trackindex>
						</sourcetrack>
						<labels>
							<label2>Iris</label2>
						</labels>
						<outputchannelindex>1</outputchannelindex>
					</clipitem>
					<clipitem id="clipitem-1847" premiereChannelType="stereo">
						<masterclipid>masterclip-2</masterclipid>
						<name>chandrika rocket equations</name>
						<start>54502</start>
						<end>54571</end>
						<in>93485</in>
						<out>93554</out>
						<file id="file-1" />
						<sourcetrack>
							<mediatype>audio</mediatype>
							<trackindex>1</trackindex>
						</sourcetrack>
						<labels>
							<label2>Iris</label2>
						</labels>
						<outputchannelindex>1</outputchannelindex>
					</clipitem>
					<clipitem id="clipitem-1848" premiereChannelType="stereo">
						<masterclipid>masterclip-2</masterclipid>
						<name>chandrika rocket equations</name>
						<start>54571</start>
						<end>54710</end>
						<in>93606</in>
						<out>93745</out>
						<file id="file-1" />
						<sourcetrack>
							<mediatype>audio</mediatype>
							<trackindex>1</trackindex>
						</sourcetrack>
						<labels>
							<label2>Iris</label2>
						</labels>
						<outputchannelindex>1</outputchannelindex>
					</clipitem>
					<clipitem id="clipitem-1849" premiereChannelType="stereo">
						<masterclipid>masterclip-2</masterclipid>
						<name>chandrika rocket equations</name>
						<start>54710</start>
						<end>54726</end>
						<in>93753</in>
						<out>93769</out>
						<file id="file-1" />
						<sourcetrack>
							<mediatype>audio</mediatype>
							<trackindex>1</trackindex>
						</sourcetrack>
						<labels>
							<label2>Iris</label2>
						</labels>
						<outputchannelindex>1</outputchannelindex>
					</clipitem>
					<clipitem id="clipitem-1850" premiereChannelType="stereo">
						<masterclipid>masterclip-2</masterclipid>
						<name>chandrika rocket equations</name>
						<start>54726</start>
						<end>54803</end>
						<in>93804</in>
						<out>93881</out>
						<file id="file-1" />
						<sourcetrack>
							<mediatype>audio</mediatype>
							<trackindex>1</trackindex>
						</sourcetrack>
						<labels>
							<label2>Iris</label2>
						</labels>
						<outputchannelindex>1</outputchannelindex>
					</clipitem>
					<clipitem id="clipitem-1851" premiereChannelType="stereo">
						<masterclipid>masterclip-2</masterclipid>
						<name>chandrika rocket equations</name>
						<start>54803</start>
						<end>54874</end>
						<in>93965</in>
						<out>94036</out>
						<file id="file-1" />
						<sourcetrack>
							<mediatype>audio</mediatype>
							<trackindex>1</trackindex>
						</sourcetrack>
						<labels>
							<label2>Iris</label2>
						</labels>
						<outputchannelindex>1</outputchannelindex>
					</clipitem>
					<clipitem id="clipitem-1852" premiereChannelType="stereo">
						<masterclipid>masterclip-2</masterclipid>
						<name>chandrika rocket equations</name>
						<start>54874</start>
						<end>54919</end>
						<in>94074</in>
						<out>94119</out>
						<file id="file-1" />
						<sourcetrack>
							<mediatype>audio</mediatype>
							<trackindex>1</trackindex>
						</sourcetrack>
						<labels>
							<label2>Iris</label2>
						</labels>
						<outputchannelindex>1</outputchannelindex>
					</clipitem>
					<clipitem id="clipitem-1853" premiereChannelType="stereo">
						<masterclipid>masterclip-2</masterclipid>
						<name>chandrika rocket equations</name>
						<start>54919</start>
						<end>54987</end>
						<in>94174</in>
						<out>94242</out>
						<file id="file-1" />
						<sourcetrack>
							<mediatype>audio</mediatype>
							<trackindex>1</trackindex>
						</sourcetrack>
						<labels>
							<label2>Iris</label2>
						</labels>
						<outputchannelindex>1</outputchannelindex>
					</clipitem>
					<clipitem id="clipitem-1854" premiereChannelType="stereo">
						<masterclipid>masterclip-2</masterclipid>
						<name>chandrika rocket equations</name>
						<start>54987</start>
						<end>55063</end>
						<in>94248</in>
						<out>94324</out>
						<file id="file-1" />
						<sourcetrack>
							<mediatype>audio</mediatype>
							<trackindex>1</trackindex>
						</sourcetrack>
						<labels>
							<label2>Iris</label2>
						</labels>
						<outputchannelindex>1</outputchannelindex>
					</clipitem>
					<clipitem id="clipitem-1855" premiereChannelType="stereo">
						<masterclipid>masterclip-2</masterclipid>
						<name>chandrika rocket equations</name>
						<start>55063</start>
						<end>55102</end>
						<in>94335</in>
						<out>94374</out>
						<file id="file-1" />
						<sourcetrack>
							<mediatype>audio</mediatype>
							<trackindex>1</trackindex>
						</sourcetrack>
						<labels>
							<label2>Iris</label2>
						</labels>
						<outputchannelindex>1</outputchannelindex>
					</clipitem>
					<clipitem id="clipitem-1856" premiereChannelType="stereo">
						<masterclipid>masterclip-2</masterclipid>
						<name>chandrika rocket equations</name>
						<start>55102</start>
						<end>55121</end>
						<in>94378</in>
						<out>94397</out>
						<file id="file-1" />
						<sourcetrack>
							<mediatype>audio</mediatype>
							<trackindex>1</trackindex>
						</sourcetrack>
						<labels>
							<label2>Iris</label2>
						</labels>
						<outputchannelindex>1</outputchannelindex>
					</clipitem>
					<clipitem id="clipitem-1857" premiereChannelType="stereo">
						<masterclipid>masterclip-2</masterclipid>
						<name>chandrika rocket equations</name>
						<start>55121</start>
						<end>55155</end>
						<in>94410</in>
						<out>94444</out>
						<file id="file-1" />
						<sourcetrack>
							<mediatype>audio</mediatype>
							<trackindex>1</trackindex>
						</sourcetrack>
						<labels>
							<label2>Iris</label2>
						</labels>
						<outputchannelindex>1</outputchannelindex>
					</clipitem>
					<clipitem id="clipitem-1858" premiereChannelType="stereo">
						<masterclipid>masterclip-2</masterclipid>
						<name>chandrika rocket equations</name>
						<start>55155</start>
						<end>55171</end>
						<in>94450</in>
						<out>94466</out>
						<file id="file-1" />
						<sourcetrack>
							<mediatype>audio</mediatype>
							<trackindex>1</trackindex>
						</sourcetrack>
						<labels>
							<label2>Iris</label2>
						</labels>
						<outputchannelindex>1</outputchannelindex>
					</clipitem>
					<clipitem id="clipitem-1859" premiereChannelType="stereo">
						<masterclipid>masterclip-2</masterclipid>
						<name>chandrika rocket equations</name>
						<start>55171</start>
						<end>55293</end>
						<in>94472</in>
						<out>94594</out>
						<file id="file-1" />
						<sourcetrack>
							<mediatype>audio</mediatype>
							<trackindex>1</trackindex>
						</sourcetrack>
						<labels>
							<label2>Iris</label2>
						</labels>
						<outputchannelindex>1</outputchannelindex>
					</clipitem>
					<clipitem id="clipitem-1860" premiereChannelType="stereo">
						<masterclipid>masterclip-2</masterclipid>
						<name>chandrika rocket equations</name>
						<start>55293</start>
						<end>55341</end>
						<in>94612</in>
						<out>94660</out>
						<file id="file-1" />
						<sourcetrack>
							<mediatype>audio</mediatype>
							<trackindex>1</trackindex>
						</sourcetrack>
						<labels>
							<label2>Iris</label2>
						</labels>
						<outputchannelindex>1</outputchannelindex>
					</clipitem>
					<clipitem id="clipitem-1861" premiereChannelType="stereo">
						<masterclipid>masterclip-2</masterclipid>
						<name>chandrika rocket equations</name>
						<start>55341</start>
						<end>55477</end>
						<in>94702</in>
						<out>94838</out>
						<file id="file-1" />
						<sourcetrack>
							<mediatype>audio</mediatype>
							<trackindex>1</trackindex>
						</sourcetrack>
						<labels>
							<label2>Iris</label2>
						</labels>
						<outputchannelindex>1</outputchannelindex>
					</clipitem>
					<clipitem id="clipitem-1862" premiereChannelType="stereo">
						<masterclipid>masterclip-2</masterclipid>
						<name>chandrika rocket equations</name>
						<start>55477</start>
						<end>55511</end>
						<in>94858</in>
						<out>94892</out>
						<file id="file-1" />
						<sourcetrack>
							<mediatype>audio</mediatype>
							<trackindex>1</trackindex>
						</sourcetrack>
						<labels>
							<label2>Iris</label2>
						</labels>
						<outputchannelindex>1</outputchannelindex>
					</clipitem>
					<clipitem id="clipitem-1863" premiereChannelType="stereo">
						<masterclipid>masterclip-2</masterclipid>
						<name>chandrika rocket equations</name>
						<start>55511</start>
						<end>55639</end>
						<in>94949</in>
						<out>95077</out>
						<file id="file-1" />
						<sourcetrack>
							<mediatype>audio</mediatype>
							<trackindex>1</trackindex>
						</sourcetrack>
						<labels>
							<label2>Iris</label2>
						</labels>
						<outputchannelindex>1</outputchannelindex>
					</clipitem>
					<clipitem id="clipitem-1864" premiereChannelType="stereo">
						<masterclipid>masterclip-2</masterclipid>
						<name>chandrika rocket equations</name>
						<start>55639</start>
						<end>55689</end>
						<in>95079</in>
						<out>95129</out>
						<file id="file-1" />
						<sourcetrack>
							<mediatype>audio</mediatype>
							<trackindex>1</trackindex>
						</sourcetrack>
						<labels>
							<label2>Iris</label2>
						</labels>
						<outputchannelindex>1</outputchannelindex>
					</clipitem>
					<clipitem id="clipitem-1865" premiereChannelType="stereo">
						<masterclipid>masterclip-2</masterclipid>
						<name>chandrika rocket equations</name>
						<start>55689</start>
						<end>55728</end>
						<in>95168</in>
						<out>95207</out>
						<file id="file-1" />
						<sourcetrack>
							<mediatype>audio</mediatype>
							<trackindex>1</trackindex>
						</sourcetrack>
						<labels>
							<label2>Iris</label2>
						</labels>
						<outputchannelindex>1</outputchannelindex>
					</clipitem>
					<clipitem id="clipitem-1866" premiereChannelType="stereo">
						<masterclipid>masterclip-2</masterclipid>
						<name>chandrika rocket equations</name>
						<start>55728</start>
						<end>55795</end>
						<in>95246</in>
						<out>95313</out>
						<file id="file-1" />
						<sourcetrack>
							<mediatype>audio</mediatype>
							<trackindex>1</trackindex>
						</sourcetrack>
						<labels>
							<label2>Iris</label2>
						</labels>
						<outputchannelindex>1</outputchannelindex>
					</clipitem>
					<clipitem id="clipitem-1867" premiereChannelType="stereo">
						<masterclipid>masterclip-2</masterclipid>
						<name>chandrika rocket equations</name>
						<start>55795</start>
						<end>55819</end>
						<in>95353</in>
						<out>95377</out>
						<file id="file-1" />
						<sourcetrack>
							<mediatype>audio</mediatype>
							<trackindex>1</trackindex>
						</sourcetrack>
						<labels>
							<label2>Iris</label2>
						</labels>
						<outputchannelindex>1</outputchannelindex>
					</clipitem>
					<clipitem id="clipitem-1868" premiereChannelType="stereo">
						<masterclipid>masterclip-2</masterclipid>
						<name>chandrika rocket equations</name>
						<start>55819</start>
						<end>55842</end>
						<in>95486</in>
						<out>95509</out>
						<file id="file-1" />
						<sourcetrack>
							<mediatype>audio</mediatype>
							<trackindex>1</trackindex>
						</sourcetrack>
						<labels>
							<label2>Iris</label2>
						</labels>
						<outputchannelindex>1</outputchannelindex>
					</clipitem>
					<clipitem id="clipitem-1869" premiereChannelType="stereo">
						<masterclipid>masterclip-2</masterclipid>
						<name>chandrika rocket equations</name>
						<start>55842</start>
						<end>55876</end>
						<in>95560</in>
						<out>95594</out>
						<file id="file-1" />
						<sourcetrack>
							<mediatype>audio</mediatype>
							<trackindex>1</trackindex>
						</sourcetrack>
						<labels>
							<label2>Iris</label2>
						</labels>
						<outputchannelindex>1</outputchannelindex>
					</clipitem>
					<clipitem id="clipitem-1870" premiereChannelType="stereo">
						<masterclipid>masterclip-2</masterclipid>
						<name>chandrika rocket equations</name>
						<start>55876</start>
						<end>55906</end>
						<in>95602</in>
						<out>95632</out>
						<file id="file-1" />
						<sourcetrack>
							<mediatype>audio</mediatype>
							<trackindex>1</trackindex>
						</sourcetrack>
						<labels>
							<label2>Iris</label2>
						</labels>
						<outputchannelindex>1</outputchannelindex>
					</clipitem>
					<clipitem id="clipitem-1871" premiereChannelType="stereo">
						<masterclipid>masterclip-2</masterclipid>
						<name>chandrika rocket equations</name>
						<start>55906</start>
						<end>55921</end>
						<in>96106</in>
						<out>96121</out>
						<file id="file-1" />
						<sourcetrack>
							<mediatype>audio</mediatype>
							<trackindex>1</trackindex>
						</sourcetrack>
						<labels>
							<label2>Iris</label2>
						</labels>
						<outputchannelindex>1</outputchannelindex>
					</clipitem>
					<clipitem id="clipitem-1872" premiereChannelType="stereo">
						<masterclipid>masterclip-2</masterclipid>
						<name>chandrika rocket equations</name>
						<start>55921</start>
						<end>56011</end>
						<in>96199</in>
						<out>96289</out>
						<file id="file-1" />
						<sourcetrack>
							<mediatype>audio</mediatype>
							<trackindex>1</trackindex>
						</sourcetrack>
						<labels>
							<label2>Iris</label2>
						</labels>
						<outputchannelindex>1</outputchannelindex>
					</clipitem>
					<clipitem id="clipitem-1873" premiereChannelType="stereo">
						<masterclipid>masterclip-2</masterclipid>
						<name>chandrika rocket equations</name>
						<start>56011</start>
						<end>56027</end>
						<in>96299</in>
						<out>96315</out>
						<file id="file-1" />
						<sourcetrack>
							<mediatype>audio</mediatype>
							<trackindex>1</trackindex>
						</sourcetrack>
						<labels>
							<label2>Iris</label2>
						</labels>
						<outputchannelindex>1</outputchannelindex>
					</clipitem>
					<clipitem id="clipitem-1874" premiereChannelType="stereo">
						<masterclipid>masterclip-2</masterclipid>
						<name>chandrika rocket equations</name>
						<start>56027</start>
						<end>56077</end>
						<in>96349</in>
						<out>96399</out>
						<file id="file-1" />
						<sourcetrack>
							<mediatype>audio</mediatype>
							<trackindex>1</trackindex>
						</sourcetrack>
						<labels>
							<label2>Iris</label2>
						</labels>
						<outputchannelindex>1</outputchannelindex>
					</clipitem>
					<clipitem id="clipitem-1875" premiereChannelType="stereo">
						<masterclipid>masterclip-2</masterclipid>
						<name>chandrika rocket equations</name>
						<start>56077</start>
						<end>56092</end>
						<in>96405</in>
						<out>96420</out>
						<file id="file-1" />
						<sourcetrack>
							<mediatype>audio</mediatype>
							<trackindex>1</trackindex>
						</sourcetrack>
						<labels>
							<label2>Iris</label2>
						</labels>
						<outputchannelindex>1</outputchannelindex>
					</clipitem>
					<clipitem id="clipitem-1876" premiereChannelType="stereo">
						<masterclipid>masterclip-2</masterclipid>
						<name>chandrika rocket equations</name>
						<start>56092</start>
						<end>56116</end>
						<in>96575</in>
						<out>96599</out>
						<file id="file-1" />
						<sourcetrack>
							<mediatype>audio</mediatype>
							<trackindex>1</trackindex>
						</sourcetrack>
						<labels>
							<label2>Iris</label2>
						</labels>
						<outputchannelindex>1</outputchannelindex>
					</clipitem>
					<clipitem id="clipitem-1877" premiereChannelType="stereo">
						<masterclipid>masterclip-2</masterclipid>
						<name>chandrika rocket equations</name>
						<start>56116</start>
						<end>56137</end>
						<in>96687</in>
						<out>96708</out>
						<file id="file-1" />
						<sourcetrack>
							<mediatype>audio</mediatype>
							<trackindex>1</trackindex>
						</sourcetrack>
						<labels>
							<label2>Iris</label2>
						</labels>
						<outputchannelindex>1</outputchannelindex>
					</clipitem>
					<clipitem id="clipitem-1878" premiereChannelType="stereo">
						<masterclipid>masterclip-2</masterclipid>
						<name>chandrika rocket equations</name>
						<start>56137</start>
						<end>56166</end>
						<in>96735</in>
						<out>96764</out>
						<file id="file-1" />
						<sourcetrack>
							<mediatype>audio</mediatype>
							<trackindex>1</trackindex>
						</sourcetrack>
						<labels>
							<label2>Iris</label2>
						</labels>
						<outputchannelindex>1</outputchannelindex>
					</clipitem>
					<clipitem id="clipitem-1879" premiereChannelType="stereo">
						<masterclipid>masterclip-2</masterclipid>
						<name>chandrika rocket equations</name>
						<start>56166</start>
						<end>56194</end>
						<in>96771</in>
						<out>96799</out>
						<file id="file-1" />
						<sourcetrack>
							<mediatype>audio</mediatype>
							<trackindex>1</trackindex>
						</sourcetrack>
						<labels>
							<label2>Iris</label2>
						</labels>
						<outputchannelindex>1</outputchannelindex>
					</clipitem>
					<clipitem id="clipitem-1880" premiereChannelType="stereo">
						<masterclipid>masterclip-2</masterclipid>
						<name>chandrika rocket equations</name>
						<start>56194</start>
						<end>56290</end>
						<in>96870</in>
						<out>96966</out>
						<file id="file-1" />
						<sourcetrack>
							<mediatype>audio</mediatype>
							<trackindex>1</trackindex>
						</sourcetrack>
						<labels>
							<label2>Iris</label2>
						</labels>
						<outputchannelindex>1</outputchannelindex>
					</clipitem>
					<clipitem id="clipitem-1881" premiereChannelType="stereo">
						<masterclipid>masterclip-2</masterclipid>
						<name>chandrika rocket equations</name>
						<start>56290</start>
						<end>56319</end>
						<in>97004</in>
						<out>97033</out>
						<file id="file-1" />
						<sourcetrack>
							<mediatype>audio</mediatype>
							<trackindex>1</trackindex>
						</sourcetrack>
						<labels>
							<label2>Iris</label2>
						</labels>
						<outputchannelindex>1</outputchannelindex>
					</clipitem>
					<clipitem id="clipitem-1882" premiereChannelType="stereo">
						<masterclipid>masterclip-2</masterclipid>
						<name>chandrika rocket equations</name>
						<start>56319</start>
						<end>56335</end>
						<in>97065</in>
						<out>97081</out>
						<file id="file-1" />
						<sourcetrack>
							<mediatype>audio</mediatype>
							<trackindex>1</trackindex>
						</sourcetrack>
						<labels>
							<label2>Iris</label2>
						</labels>
						<outputchannelindex>1</outputchannelindex>
					</clipitem>
					<clipitem id="clipitem-1883" premiereChannelType="stereo">
						<masterclipid>masterclip-2</masterclipid>
						<name>chandrika rocket equations</name>
						<start>56335</start>
						<end>56352</end>
						<in>97084</in>
						<out>97101</out>
						<file id="file-1" />
						<sourcetrack>
							<mediatype>audio</mediatype>
							<trackindex>1</trackindex>
						</sourcetrack>
						<labels>
							<label2>Iris</label2>
						</labels>
						<outputchannelindex>1</outputchannelindex>
					</clipitem>
					<clipitem id="clipitem-1884" premiereChannelType="stereo">
						<masterclipid>masterclip-2</masterclipid>
						<name>chandrika rocket equations</name>
						<start>56352</start>
						<end>56440</end>
						<in>97122</in>
						<out>97210</out>
						<file id="file-1" />
						<sourcetrack>
							<mediatype>audio</mediatype>
							<trackindex>1</trackindex>
						</sourcetrack>
						<labels>
							<label2>Iris</label2>
						</labels>
						<outputchannelindex>1</outputchannelindex>
					</clipitem>
					<clipitem id="clipitem-1885" premiereChannelType="stereo">
						<masterclipid>masterclip-2</masterclipid>
						<name>chandrika rocket equations</name>
						<start>56440</start>
						<end>56520</end>
						<in>97221</in>
						<out>97301</out>
						<file id="file-1" />
						<sourcetrack>
							<mediatype>audio</mediatype>
							<trackindex>1</trackindex>
						</sourcetrack>
						<labels>
							<label2>Iris</label2>
						</labels>
						<outputchannelindex>1</outputchannelindex>
					</clipitem>
					<clipitem id="clipitem-1886" premiereChannelType="stereo">
						<masterclipid>masterclip-2</masterclipid>
						<name>chandrika rocket equations</name>
						<start>56520</start>
						<end>56542</end>
						<in>97341</in>
						<out>97363</out>
						<file id="file-1" />
						<sourcetrack>
							<mediatype>audio</mediatype>
							<trackindex>1</trackindex>
						</sourcetrack>
						<labels>
							<label2>Iris</label2>
						</labels>
						<outputchannelindex>1</outputchannelindex>
					</clipitem>
					<clipitem id="clipitem-1887" premiereChannelType="stereo">
						<masterclipid>masterclip-2</masterclipid>
						<name>chandrika rocket equations</name>
						<start>56542</start>
						<end>56603</end>
						<in>97370</in>
						<out>97431</out>
						<file id="file-1" />
						<sourcetrack>
							<mediatype>audio</mediatype>
							<trackindex>1</trackindex>
						</sourcetrack>
						<labels>
							<label2>Iris</label2>
						</labels>
						<outputchannelindex>1</outputchannelindex>
					</clipitem>
					<clipitem id="clipitem-1888" premiereChannelType="stereo">
						<masterclipid>masterclip-2</masterclipid>
						<name>chandrika rocket equations</name>
						<start>56603</start>
						<end>56683</end>
						<in>97464</in>
						<out>97544</out>
						<file id="file-1" />
						<sourcetrack>
							<mediatype>audio</mediatype>
							<trackindex>1</trackindex>
						</sourcetrack>
						<labels>
							<label2>Iris</label2>
						</labels>
						<outputchannelindex>1</outputchannelindex>
					</clipitem>
					<clipitem id="clipitem-1889" premiereChannelType="stereo">
						<masterclipid>masterclip-2</masterclipid>
						<name>chandrika rocket equations</name>
						<start>56683</start>
						<end>56705</end>
						<in>97612</in>
						<out>97634</out>
						<file id="file-1" />
						<sourcetrack>
							<mediatype>audio</mediatype>
							<trackindex>1</trackindex>
						</sourcetrack>
						<labels>
							<label2>Iris</label2>
						</labels>
						<outputchannelindex>1</outputchannelindex>
					</clipitem>
					<clipitem id="clipitem-1890" premiereChannelType="stereo">
						<masterclipid>masterclip-2</masterclipid>
						<name>chandrika rocket equations</name>
						<start>56705</start>
						<end>56728</end>
						<in>97648</in>
						<out>97671</out>
						<file id="file-1" />
						<sourcetrack>
							<mediatype>audio</mediatype>
							<trackindex>1</trackindex>
						</sourcetrack>
						<labels>
							<label2>Iris</label2>
						</labels>
						<outputchannelindex>1</outputchannelindex>
					</clipitem>
					<clipitem id="clipitem-1891" premiereChannelType="stereo">
						<masterclipid>masterclip-2</masterclipid>
						<name>chandrika rocket equations</name>
						<start>56728</start>
						<end>56836</end>
						<in>97762</in>
						<out>97870</out>
						<file id="file-1" />
						<sourcetrack>
							<mediatype>audio</mediatype>
							<trackindex>1</trackindex>
						</sourcetrack>
						<labels>
							<label2>Iris</label2>
						</labels>
						<outputchannelindex>1</outputchannelindex>
					</clipitem>
					<clipitem id="clipitem-1892" premiereChannelType="stereo">
						<masterclipid>masterclip-2</masterclipid>
						<name>chandrika rocket equations</name>
						<start>56836</start>
						<end>57022</end>
						<in>97972</in>
						<out>98158</out>
						<file id="file-1" />
						<sourcetrack>
							<mediatype>audio</mediatype>
							<trackindex>1</trackindex>
						</sourcetrack>
						<labels>
							<label2>Iris</label2>
						</labels>
						<outputchannelindex>1</outputchannelindex>
					</clipitem>
					<clipitem id="clipitem-1893" premiereChannelType="stereo">
						<masterclipid>masterclip-2</masterclipid>
						<name>chandrika rocket equations</name>
						<start>57022</start>
						<end>57067</end>
						<in>98183</in>
						<out>98228</out>
						<file id="file-1" />
						<sourcetrack>
							<mediatype>audio</mediatype>
							<trackindex>1</trackindex>
						</sourcetrack>
						<labels>
							<label2>Iris</label2>
						</labels>
						<outputchannelindex>1</outputchannelindex>
					</clipitem>
					<clipitem id="clipitem-1894" premiereChannelType="stereo">
						<masterclipid>masterclip-2</masterclipid>
						<name>chandrika rocket equations</name>
						<start>57067</start>
						<end>57149</end>
						<in>98260</in>
						<out>98342</out>
						<file id="file-1" />
						<sourcetrack>
							<mediatype>audio</mediatype>
							<trackindex>1</trackindex>
						</sourcetrack>
						<labels>
							<label2>Iris</label2>
						</labels>
						<outputchannelindex>1</outputchannelindex>
					</clipitem>
					<clipitem id="clipitem-1895" premiereChannelType="stereo">
						<masterclipid>masterclip-2</masterclipid>
						<name>chandrika rocket equations</name>
						<start>57149</start>
						<end>57304</end>
						<in>98450</in>
						<out>98605</out>
						<file id="file-1" />
						<sourcetrack>
							<mediatype>audio</mediatype>
							<trackindex>1</trackindex>
						</sourcetrack>
						<labels>
							<label2>Iris</label2>
						</labels>
						<outputchannelindex>1</outputchannelindex>
					</clipitem>
					<clipitem id="clipitem-1896" premiereChannelType="stereo">
						<masterclipid>masterclip-2</masterclipid>
						<name>chandrika rocket equations</name>
						<start>57304</start>
						<end>57326</end>
						<in>98650</in>
						<out>98672</out>
						<file id="file-1" />
						<sourcetrack>
							<mediatype>audio</mediatype>
							<trackindex>1</trackindex>
						</sourcetrack>
						<labels>
							<label2>Iris</label2>
						</labels>
						<outputchannelindex>1</outputchannelindex>
					</clipitem>
					<clipitem id="clipitem-1897" premiereChannelType="stereo">
						<masterclipid>masterclip-2</masterclipid>
						<name>chandrika rocket equations</name>
						<start>57326</start>
						<end>57409</end>
						<in>98709</in>
						<out>98792</out>
						<file id="file-1" />
						<sourcetrack>
							<mediatype>audio</mediatype>
							<trackindex>1</trackindex>
						</sourcetrack>
						<labels>
							<label2>Iris</label2>
						</labels>
						<outputchannelindex>1</outputchannelindex>
					</clipitem>
					<clipitem id="clipitem-1898" premiereChannelType="stereo">
						<masterclipid>masterclip-2</masterclipid>
						<name>chandrika rocket equations</name>
						<start>57409</start>
						<end>57430</end>
						<in>98797</in>
						<out>98818</out>
						<file id="file-1" />
						<sourcetrack>
							<mediatype>audio</mediatype>
							<trackindex>1</trackindex>
						</sourcetrack>
						<labels>
							<label2>Iris</label2>
						</labels>
						<outputchannelindex>1</outputchannelindex>
					</clipitem>
					<clipitem id="clipitem-1899" premiereChannelType="stereo">
						<masterclipid>masterclip-2</masterclipid>
						<name>chandrika rocket equations</name>
						<start>57430</start>
						<end>57445</end>
						<in>98819</in>
						<out>98834</out>
						<file id="file-1" />
						<sourcetrack>
							<mediatype>audio</mediatype>
							<trackindex>1</trackindex>
						</sourcetrack>
						<labels>
							<label2>Iris</label2>
						</labels>
						<outputchannelindex>1</outputchannelindex>
					</clipitem>
					<clipitem id="clipitem-1900" premiereChannelType="stereo">
						<masterclipid>masterclip-2</masterclipid>
						<name>chandrika rocket equations</name>
						<start>57445</start>
						<end>57583</end>
						<in>98859</in>
						<out>98997</out>
						<file id="file-1" />
						<sourcetrack>
							<mediatype>audio</mediatype>
							<trackindex>1</trackindex>
						</sourcetrack>
						<labels>
							<label2>Iris</label2>
						</labels>
						<outputchannelindex>1</outputchannelindex>
					</clipitem>
					<clipitem id="clipitem-1901" premiereChannelType="stereo">
						<masterclipid>masterclip-2</masterclipid>
						<name>chandrika rocket equations</name>
						<start>57583</start>
						<end>57600</end>
						<in>99002</in>
						<out>99019</out>
						<file id="file-1" />
						<sourcetrack>
							<mediatype>audio</mediatype>
							<trackindex>1</trackindex>
						</sourcetrack>
						<labels>
							<label2>Iris</label2>
						</labels>
						<outputchannelindex>1</outputchannelindex>
					</clipitem>
					<clipitem id="clipitem-1902" premiereChannelType="stereo">
						<masterclipid>masterclip-2</masterclipid>
						<name>chandrika rocket equations</name>
						<start>57600</start>
						<end>57617</end>
						<in>99094</in>
						<out>99111</out>
						<file id="file-1" />
						<sourcetrack>
							<mediatype>audio</mediatype>
							<trackindex>1</trackindex>
						</sourcetrack>
						<labels>
							<label2>Iris</label2>
						</labels>
						<outputchannelindex>1</outputchannelindex>
					</clipitem>
					<clipitem id="clipitem-1903" premiereChannelType="stereo">
						<masterclipid>masterclip-2</masterclipid>
						<name>chandrika rocket equations</name>
						<start>57617</start>
						<end>57694</end>
						<in>99145</in>
						<out>99222</out>
						<file id="file-1" />
						<sourcetrack>
							<mediatype>audio</mediatype>
							<trackindex>1</trackindex>
						</sourcetrack>
						<labels>
							<label2>Iris</label2>
						</labels>
						<outputchannelindex>1</outputchannelindex>
					</clipitem>
					<clipitem id="clipitem-1904" premiereChannelType="stereo">
						<masterclipid>masterclip-2</masterclipid>
						<name>chandrika rocket equations</name>
						<start>57694</start>
						<end>57718</end>
						<in>99234</in>
						<out>99258</out>
						<file id="file-1" />
						<sourcetrack>
							<mediatype>audio</mediatype>
							<trackindex>1</trackindex>
						</sourcetrack>
						<labels>
							<label2>Iris</label2>
						</labels>
						<outputchannelindex>1</outputchannelindex>
					</clipitem>
					<clipitem id="clipitem-1905" premiereChannelType="stereo">
						<masterclipid>masterclip-2</masterclipid>
						<name>chandrika rocket equations</name>
						<start>57718</start>
						<end>57904</end>
						<in>99306</in>
						<out>99492</out>
						<file id="file-1" />
						<sourcetrack>
							<mediatype>audio</mediatype>
							<trackindex>1</trackindex>
						</sourcetrack>
						<labels>
							<label2>Iris</label2>
						</labels>
						<outputchannelindex>1</outputchannelindex>
					</clipitem>
					<clipitem id="clipitem-1906" premiereChannelType="stereo">
						<masterclipid>masterclip-2</masterclipid>
						<name>chandrika rocket equations</name>
						<start>57904</start>
						<end>57926</end>
						<in>99499</in>
						<out>99521</out>
						<file id="file-1" />
						<sourcetrack>
							<mediatype>audio</mediatype>
							<trackindex>1</trackindex>
						</sourcetrack>
						<labels>
							<label2>Iris</label2>
						</labels>
						<outputchannelindex>1</outputchannelindex>
					</clipitem>
					<clipitem id="clipitem-1907" premiereChannelType="stereo">
						<masterclipid>masterclip-2</masterclipid>
						<name>chandrika rocket equations</name>
						<start>57926</start>
						<end>58096</end>
						<in>99550</in>
						<out>99720</out>
						<file id="file-1" />
						<sourcetrack>
							<mediatype>audio</mediatype>
							<trackindex>1</trackindex>
						</sourcetrack>
						<labels>
							<label2>Iris</label2>
						</labels>
						<outputchannelindex>1</outputchannelindex>
					</clipitem>
					<clipitem id="clipitem-1908" premiereChannelType="stereo">
						<masterclipid>masterclip-2</masterclipid>
						<name>chandrika rocket equations</name>
						<start>58096</start>
						<end>58202</end>
						<in>99755</in>
						<out>99861</out>
						<file id="file-1" />
						<sourcetrack>
							<mediatype>audio</mediatype>
							<trackindex>1</trackindex>
						</sourcetrack>
						<labels>
							<label2>Iris</label2>
						</labels>
						<outputchannelindex>1</outputchannelindex>
					</clipitem>
					<clipitem id="clipitem-1909" premiereChannelType="stereo">
						<masterclipid>masterclip-2</masterclipid>
						<name>chandrika rocket equations</name>
						<start>58202</start>
						<end>58282</end>
						<in>99917</in>
						<out>99997</out>
						<file id="file-1" />
						<sourcetrack>
							<mediatype>audio</mediatype>
							<trackindex>1</trackindex>
						</sourcetrack>
						<labels>
							<label2>Iris</label2>
						</labels>
						<outputchannelindex>1</outputchannelindex>
					</clipitem>
					<clipitem id="clipitem-1910" premiereChannelType="stereo">
						<masterclipid>masterclip-2</masterclipid>
						<name>chandrika rocket equations</name>
						<start>58282</start>
						<end>58344</end>
						<in>100056</in>
						<out>100118</out>
						<file id="file-1" />
						<sourcetrack>
							<mediatype>audio</mediatype>
							<trackindex>1</trackindex>
						</sourcetrack>
						<labels>
							<label2>Iris</label2>
						</labels>
						<outputchannelindex>1</outputchannelindex>
					</clipitem>
					<clipitem id="clipitem-1911" premiereChannelType="stereo">
						<masterclipid>masterclip-2</masterclipid>
						<name>chandrika rocket equations</name>
						<start>58344</start>
						<end>58360</end>
						<in>100195</in>
						<out>100211</out>
						<file id="file-1" />
						<sourcetrack>
							<mediatype>audio</mediatype>
							<trackindex>1</trackindex>
						</sourcetrack>
						<labels>
							<label2>Iris</label2>
						</labels>
						<outputchannelindex>1</outputchannelindex>
					</clipitem>
					<clipitem id="clipitem-1912" premiereChannelType="stereo">
						<masterclipid>masterclip-2</masterclipid>
						<name>chandrika rocket equations</name>
						<start>58360</start>
						<end>58401</end>
						<in>100216</in>
						<out>100257</out>
						<file id="file-1" />
						<sourcetrack>
							<mediatype>audio</mediatype>
							<trackindex>1</trackindex>
						</sourcetrack>
						<labels>
							<label2>Iris</label2>
						</labels>
						<outputchannelindex>1</outputchannelindex>
					</clipitem>
					<clipitem id="clipitem-1913" premiereChannelType="stereo">
						<masterclipid>masterclip-2</masterclipid>
						<name>chandrika rocket equations</name>
						<start>58401</start>
						<end>58465</end>
						<in>100276</in>
						<out>100340</out>
						<file id="file-1" />
						<sourcetrack>
							<mediatype>audio</mediatype>
							<trackindex>1</trackindex>
						</sourcetrack>
						<labels>
							<label2>Iris</label2>
						</labels>
						<outputchannelindex>1</outputchannelindex>
					</clipitem>
					<clipitem id="clipitem-1914" premiereChannelType="stereo">
						<masterclipid>masterclip-2</masterclipid>
						<name>chandrika rocket equations</name>
						<start>58465</start>
						<end>58594</end>
						<in>100368</in>
						<out>100497</out>
						<file id="file-1" />
						<sourcetrack>
							<mediatype>audio</mediatype>
							<trackindex>1</trackindex>
						</sourcetrack>
						<labels>
							<label2>Iris</label2>
						</labels>
						<outputchannelindex>1</outputchannelindex>
					</clipitem>
					<clipitem id="clipitem-1915" premiereChannelType="stereo">
						<masterclipid>masterclip-2</masterclipid>
						<name>chandrika rocket equations</name>
						<start>58594</start>
						<end>58787</end>
						<in>100614</in>
						<out>100807</out>
						<file id="file-1" />
						<sourcetrack>
							<mediatype>audio</mediatype>
							<trackindex>1</trackindex>
						</sourcetrack>
						<labels>
							<label2>Iris</label2>
						</labels>
						<outputchannelindex>1</outputchannelindex>
					</clipitem>
					<clipitem id="clipitem-1916" premiereChannelType="stereo">
						<masterclipid>masterclip-2</masterclipid>
						<name>chandrika rocket equations</name>
						<start>58787</start>
						<end>58842</end>
						<in>100861</in>
						<out>100916</out>
						<file id="file-1" />
						<sourcetrack>
							<mediatype>audio</mediatype>
							<trackindex>1</trackindex>
						</sourcetrack>
						<labels>
							<label2>Iris</label2>
						</labels>
						<outputchannelindex>1</outputchannelindex>
					</clipitem>
					<clipitem id="clipitem-1917" premiereChannelType="stereo">
						<masterclipid>masterclip-2</masterclipid>
						<name>chandrika rocket equations</name>
						<start>58842</start>
						<end>58898</end>
						<in>100956</in>
						<out>101012</out>
						<file id="file-1" />
						<sourcetrack>
							<mediatype>audio</mediatype>
							<trackindex>1</trackindex>
						</sourcetrack>
						<labels>
							<label2>Iris</label2>
						</labels>
						<outputchannelindex>1</outputchannelindex>
					</clipitem>
					<clipitem id="clipitem-1918" premiereChannelType="stereo">
						<masterclipid>masterclip-2</masterclipid>
						<name>chandrika rocket equations</name>
						<start>58898</start>
						<end>58945</end>
						<in>101022</in>
						<out>101069</out>
						<file id="file-1" />
						<sourcetrack>
							<mediatype>audio</mediatype>
							<trackindex>1</trackindex>
						</sourcetrack>
						<labels>
							<label2>Iris</label2>
						</labels>
						<outputchannelindex>1</outputchannelindex>
					</clipitem>
					<clipitem id="clipitem-1919" premiereChannelType="stereo">
						<masterclipid>masterclip-2</masterclipid>
						<name>chandrika rocket equations</name>
						<start>58945</start>
						<end>59082</end>
						<in>101114</in>
						<out>101251</out>
						<file id="file-1" />
						<sourcetrack>
							<mediatype>audio</mediatype>
							<trackindex>1</trackindex>
						</sourcetrack>
						<labels>
							<label2>Iris</label2>
						</labels>
						<outputchannelindex>1</outputchannelindex>
					</clipitem>
					<clipitem id="clipitem-1920" premiereChannelType="stereo">
						<masterclipid>masterclip-2</masterclipid>
						<name>chandrika rocket equations</name>
						<start>59082</start>
						<end>59171</end>
						<in>101292</in>
						<out>101381</out>
						<file id="file-1" />
						<sourcetrack>
							<mediatype>audio</mediatype>
							<trackindex>1</trackindex>
						</sourcetrack>
						<labels>
							<label2>Iris</label2>
						</labels>
						<outputchannelindex>1</outputchannelindex>
					</clipitem>
					<clipitem id="clipitem-1921" premiereChannelType="stereo">
						<masterclipid>masterclip-2</masterclipid>
						<name>chandrika rocket equations</name>
						<start>59171</start>
						<end>59198</end>
						<in>101386</in>
						<out>101413</out>
						<file id="file-1" />
						<sourcetrack>
							<mediatype>audio</mediatype>
							<trackindex>1</trackindex>
						</sourcetrack>
						<labels>
							<label2>Iris</label2>
						</labels>
						<outputchannelindex>1</outputchannelindex>
					</clipitem>
					<clipitem id="clipitem-1922" premiereChannelType="stereo">
						<masterclipid>masterclip-2</masterclipid>
						<name>chandrika rocket equations</name>
						<start>59198</start>
						<end>59307</end>
						<in>101433</in>
						<out>101542</out>
						<file id="file-1" />
						<sourcetrack>
							<mediatype>audio</mediatype>
							<trackindex>1</trackindex>
						</sourcetrack>
						<labels>
							<label2>Iris</label2>
						</labels>
						<outputchannelindex>1</outputchannelindex>
					</clipitem>
					<clipitem id="clipitem-1923" premiereChannelType="stereo">
						<masterclipid>masterclip-2</masterclipid>
						<name>chandrika rocket equations</name>
						<start>59307</start>
						<end>59484</end>
						<in>101547</in>
						<out>101724</out>
						<file id="file-1" />
						<sourcetrack>
							<mediatype>audio</mediatype>
							<trackindex>1</trackindex>
						</sourcetrack>
						<labels>
							<label2>Iris</label2>
						</labels>
						<outputchannelindex>1</outputchannelindex>
					</clipitem>
					<clipitem id="clipitem-1924" premiereChannelType="stereo">
						<masterclipid>masterclip-2</masterclipid>
						<name>chandrika rocket equations</name>
						<start>59484</start>
						<end>59575</end>
						<in>101765</in>
						<out>101856</out>
						<file id="file-1" />
						<sourcetrack>
							<mediatype>audio</mediatype>
							<trackindex>1</trackindex>
						</sourcetrack>
						<labels>
							<label2>Iris</label2>
						</labels>
						<outputchannelindex>1</outputchannelindex>
					</clipitem>
					<clipitem id="clipitem-1925" premiereChannelType="stereo">
						<masterclipid>masterclip-2</masterclipid>
						<name>chandrika rocket equations</name>
						<start>59575</start>
						<end>59598</end>
						<in>101874</in>
						<out>101897</out>
						<file id="file-1" />
						<sourcetrack>
							<mediatype>audio</mediatype>
							<trackindex>1</trackindex>
						</sourcetrack>
						<labels>
							<label2>Iris</label2>
						</labels>
						<outputchannelindex>1</outputchannelindex>
					</clipitem>
					<clipitem id="clipitem-1926" premiereChannelType="stereo">
						<masterclipid>masterclip-2</masterclipid>
						<name>chandrika rocket equations</name>
						<start>59598</start>
						<end>59677</end>
						<in>101905</in>
						<out>101984</out>
						<file id="file-1" />
						<sourcetrack>
							<mediatype>audio</mediatype>
							<trackindex>1</trackindex>
						</sourcetrack>
						<labels>
							<label2>Iris</label2>
						</labels>
						<outputchannelindex>1</outputchannelindex>
					</clipitem>
					<clipitem id="clipitem-1927" premiereChannelType="stereo">
						<masterclipid>masterclip-2</masterclipid>
						<name>chandrika rocket equations</name>
						<start>59677</start>
						<end>59714</end>
						<in>102021</in>
						<out>102058</out>
						<file id="file-1" />
						<sourcetrack>
							<mediatype>audio</mediatype>
							<trackindex>1</trackindex>
						</sourcetrack>
						<labels>
							<label2>Iris</label2>
						</labels>
						<outputchannelindex>1</outputchannelindex>
					</clipitem>
					<clipitem id="clipitem-1928" premiereChannelType="stereo">
						<masterclipid>masterclip-2</masterclipid>
						<name>chandrika rocket equations</name>
						<start>59714</start>
						<end>59843</end>
						<in>102077</in>
						<out>102206</out>
						<file id="file-1" />
						<sourcetrack>
							<mediatype>audio</mediatype>
							<trackindex>1</trackindex>
						</sourcetrack>
						<labels>
							<label2>Iris</label2>
						</labels>
						<outputchannelindex>1</outputchannelindex>
					</clipitem>
					<clipitem id="clipitem-1929" premiereChannelType="stereo">
						<masterclipid>masterclip-2</masterclipid>
						<name>chandrika rocket equations</name>
						<start>59843</start>
						<end>59911</end>
						<in>102234</in>
						<out>102302</out>
						<file id="file-1" />
						<sourcetrack>
							<mediatype>audio</mediatype>
							<trackindex>1</trackindex>
						</sourcetrack>
						<labels>
							<label2>Iris</label2>
						</labels>
						<outputchannelindex>1</outputchannelindex>
					</clipitem>
					<clipitem id="clipitem-1930" premiereChannelType="stereo">
						<masterclipid>masterclip-2</masterclipid>
						<name>chandrika rocket equations</name>
						<start>59911</start>
						<end>59932</end>
						<in>102332</in>
						<out>102353</out>
						<file id="file-1" />
						<sourcetrack>
							<mediatype>audio</mediatype>
							<trackindex>1</trackindex>
						</sourcetrack>
						<labels>
							<label2>Iris</label2>
						</labels>
						<outputchannelindex>1</outputchannelindex>
					</clipitem>
					<clipitem id="clipitem-1931" premiereChannelType="stereo">
						<masterclipid>masterclip-2</masterclipid>
						<name>chandrika rocket equations</name>
						<start>59932</start>
						<end>59990</end>
						<in>102365</in>
						<out>102423</out>
						<file id="file-1" />
						<sourcetrack>
							<mediatype>audio</mediatype>
							<trackindex>1</trackindex>
						</sourcetrack>
						<labels>
							<label2>Iris</label2>
						</labels>
						<outputchannelindex>1</outputchannelindex>
					</clipitem>
					<clipitem id="clipitem-1932" premiereChannelType="stereo">
						<masterclipid>masterclip-2</masterclipid>
						<name>chandrika rocket equations</name>
						<start>59990</start>
						<end>60053</end>
						<in>102607</in>
						<out>102670</out>
						<file id="file-1" />
						<sourcetrack>
							<mediatype>audio</mediatype>
							<trackindex>1</trackindex>
						</sourcetrack>
						<labels>
							<label2>Iris</label2>
						</labels>
						<outputchannelindex>1</outputchannelindex>
					</clipitem>
					<clipitem id="clipitem-1933" premiereChannelType="stereo">
						<masterclipid>masterclip-2</masterclipid>
						<name>chandrika rocket equations</name>
						<start>60053</start>
						<end>60237</end>
						<in>102836</in>
						<out>103020</out>
						<file id="file-1" />
						<sourcetrack>
							<mediatype>audio</mediatype>
							<trackindex>1</trackindex>
						</sourcetrack>
						<labels>
							<label2>Iris</label2>
						</labels>
						<outputchannelindex>1</outputchannelindex>
					</clipitem>
					<clipitem id="clipitem-1934" premiereChannelType="stereo">
						<masterclipid>masterclip-2</masterclipid>
						<name>chandrika rocket equations</name>
						<start>60237</start>
						<end>60319</end>
						<in>103047</in>
						<out>103129</out>
						<file id="file-1" />
						<sourcetrack>
							<mediatype>audio</mediatype>
							<trackindex>1</trackindex>
						</sourcetrack>
						<labels>
							<label2>Iris</label2>
						</labels>
						<outputchannelindex>1</outputchannelindex>
					</clipitem>
					<clipitem id="clipitem-1935" premiereChannelType="stereo">
						<masterclipid>masterclip-2</masterclipid>
						<name>chandrika rocket equations</name>
						<start>60319</start>
						<end>60370</end>
						<in>103157</in>
						<out>103208</out>
						<file id="file-1" />
						<sourcetrack>
							<mediatype>audio</mediatype>
							<trackindex>1</trackindex>
						</sourcetrack>
						<labels>
							<label2>Iris</label2>
						</labels>
						<outputchannelindex>1</outputchannelindex>
					</clipitem>
					<clipitem id="clipitem-1936" premiereChannelType="stereo">
						<masterclipid>masterclip-2</masterclipid>
						<name>chandrika rocket equations</name>
						<start>60370</start>
						<end>60422</end>
						<in>103235</in>
						<out>103287</out>
						<file id="file-1" />
						<sourcetrack>
							<mediatype>audio</mediatype>
							<trackindex>1</trackindex>
						</sourcetrack>
						<labels>
							<label2>Iris</label2>
						</labels>
						<outputchannelindex>1</outputchannelindex>
					</clipitem>
					<clipitem id="clipitem-1937" premiereChannelType="stereo">
						<masterclipid>masterclip-2</masterclipid>
						<name>chandrika rocket equations</name>
						<start>60422</start>
						<end>60550</end>
						<in>103310</in>
						<out>103438</out>
						<file id="file-1" />
						<sourcetrack>
							<mediatype>audio</mediatype>
							<trackindex>1</trackindex>
						</sourcetrack>
						<labels>
							<label2>Iris</label2>
						</labels>
						<outputchannelindex>1</outputchannelindex>
					</clipitem>
					<clipitem id="clipitem-1938" premiereChannelType="stereo">
						<masterclipid>masterclip-2</masterclipid>
						<name>chandrika rocket equations</name>
						<start>60550</start>
						<end>60567</end>
						<in>103487</in>
						<out>103504</out>
						<file id="file-1" />
						<sourcetrack>
							<mediatype>audio</mediatype>
							<trackindex>1</trackindex>
						</sourcetrack>
						<labels>
							<label2>Iris</label2>
						</labels>
						<outputchannelindex>1</outputchannelindex>
					</clipitem>
					<clipitem id="clipitem-1939" premiereChannelType="stereo">
						<masterclipid>masterclip-2</masterclipid>
						<name>chandrika rocket equations</name>
						<start>60567</start>
						<end>60697</end>
						<in>103548</in>
						<out>103678</out>
						<file id="file-1" />
						<sourcetrack>
							<mediatype>audio</mediatype>
							<trackindex>1</trackindex>
						</sourcetrack>
						<labels>
							<label2>Iris</label2>
						</labels>
						<outputchannelindex>1</outputchannelindex>
					</clipitem>
					<clipitem id="clipitem-1940" premiereChannelType="stereo">
						<masterclipid>masterclip-2</masterclipid>
						<name>chandrika rocket equations</name>
						<start>60697</start>
						<end>60780</end>
						<in>103700</in>
						<out>103783</out>
						<file id="file-1" />
						<sourcetrack>
							<mediatype>audio</mediatype>
							<trackindex>1</trackindex>
						</sourcetrack>
						<labels>
							<label2>Iris</label2>
						</labels>
						<outputchannelindex>1</outputchannelindex>
					</clipitem>
					<clipitem id="clipitem-1941" premiereChannelType="stereo">
						<masterclipid>masterclip-2</masterclipid>
						<name>chandrika rocket equations</name>
						<start>60780</start>
						<end>60838</end>
						<in>103813</in>
						<out>103871</out>
						<file id="file-1" />
						<sourcetrack>
							<mediatype>audio</mediatype>
							<trackindex>1</trackindex>
						</sourcetrack>
						<labels>
							<label2>Iris</label2>
						</labels>
						<outputchannelindex>1</outputchannelindex>
					</clipitem>
					<clipitem id="clipitem-1942" premiereChannelType="stereo">
						<masterclipid>masterclip-2</masterclipid>
						<name>chandrika rocket equations</name>
						<start>60838</start>
						<end>60973</end>
						<in>103940</in>
						<out>104075</out>
						<file id="file-1" />
						<sourcetrack>
							<mediatype>audio</mediatype>
							<trackindex>1</trackindex>
						</sourcetrack>
						<labels>
							<label2>Iris</label2>
						</labels>
						<outputchannelindex>1</outputchannelindex>
					</clipitem>
					<clipitem id="clipitem-1943" premiereChannelType="stereo">
						<masterclipid>masterclip-2</masterclipid>
						<name>chandrika rocket equations</name>
						<start>60973</start>
						<end>61039</end>
						<in>104109</in>
						<out>104175</out>
						<file id="file-1" />
						<sourcetrack>
							<mediatype>audio</mediatype>
							<trackindex>1</trackindex>
						</sourcetrack>
						<labels>
							<label2>Iris</label2>
						</labels>
						<outputchannelindex>1</outputchannelindex>
					</clipitem>
					<clipitem id="clipitem-1944" premiereChannelType="stereo">
						<masterclipid>masterclip-2</masterclipid>
						<name>chandrika rocket equations</name>
						<start>61039</start>
						<end>61109</end>
						<in>104195</in>
						<out>104265</out>
						<file id="file-1" />
						<sourcetrack>
							<mediatype>audio</mediatype>
							<trackindex>1</trackindex>
						</sourcetrack>
						<labels>
							<label2>Iris</label2>
						</labels>
						<outputchannelindex>1</outputchannelindex>
					</clipitem>
					<clipitem id="clipitem-1945" premiereChannelType="stereo">
						<masterclipid>masterclip-2</masterclipid>
						<name>chandrika rocket equations</name>
						<start>61109</start>
						<end>61185</end>
						<in>104269</in>
						<out>104345</out>
						<file id="file-1" />
						<sourcetrack>
							<mediatype>audio</mediatype>
							<trackindex>1</trackindex>
						</sourcetrack>
						<labels>
							<label2>Iris</label2>
						</labels>
						<outputchannelindex>1</outputchannelindex>
					</clipitem>
					<clipitem id="clipitem-1946" premiereChannelType="stereo">
						<masterclipid>masterclip-2</masterclipid>
						<name>chandrika rocket equations</name>
						<start>61185</start>
						<end>61220</end>
						<in>104387</in>
						<out>104422</out>
						<file id="file-1" />
						<sourcetrack>
							<mediatype>audio</mediatype>
							<trackindex>1</trackindex>
						</sourcetrack>
						<labels>
							<label2>Iris</label2>
						</labels>
						<outputchannelindex>1</outputchannelindex>
					</clipitem>
					<clipitem id="clipitem-1947" premiereChannelType="stereo">
						<masterclipid>masterclip-2</masterclipid>
						<name>chandrika rocket equations</name>
						<start>61220</start>
						<end>61263</end>
						<in>104463</in>
						<out>104506</out>
						<file id="file-1" />
						<sourcetrack>
							<mediatype>audio</mediatype>
							<trackindex>1</trackindex>
						</sourcetrack>
						<labels>
							<label2>Iris</label2>
						</labels>
						<outputchannelindex>1</outputchannelindex>
					</clipitem>
					<clipitem id="clipitem-1948" premiereChannelType="stereo">
						<masterclipid>masterclip-2</masterclipid>
						<name>chandrika rocket equations</name>
						<start>61263</start>
						<end>61301</end>
						<in>104508</in>
						<out>104546</out>
						<file id="file-1" />
						<sourcetrack>
							<mediatype>audio</mediatype>
							<trackindex>1</trackindex>
						</sourcetrack>
						<labels>
							<label2>Iris</label2>
						</labels>
						<outputchannelindex>1</outputchannelindex>
					</clipitem>
					<clipitem id="clipitem-1949" premiereChannelType="stereo">
						<masterclipid>masterclip-2</masterclipid>
						<name>chandrika rocket equations</name>
						<start>61301</start>
						<end>61359</end>
						<in>104549</in>
						<out>104607</out>
						<file id="file-1" />
						<sourcetrack>
							<mediatype>audio</mediatype>
							<trackindex>1</trackindex>
						</sourcetrack>
						<labels>
							<label2>Iris</label2>
						</labels>
						<outputchannelindex>1</outputchannelindex>
					</clipitem>
					<clipitem id="clipitem-1950" premiereChannelType="stereo">
						<masterclipid>masterclip-2</masterclipid>
						<name>chandrika rocket equations</name>
						<start>61359</start>
						<end>61401</end>
						<in>104659</in>
						<out>104701</out>
						<file id="file-1" />
						<sourcetrack>
							<mediatype>audio</mediatype>
							<trackindex>1</trackindex>
						</sourcetrack>
						<labels>
							<label2>Iris</label2>
						</labels>
						<outputchannelindex>1</outputchannelindex>
					</clipitem>
					<clipitem id="clipitem-1951" premiereChannelType="stereo">
						<masterclipid>masterclip-2</masterclipid>
						<name>chandrika rocket equations</name>
						<start>61401</start>
						<end>61499</end>
						<in>104722</in>
						<out>104820</out>
						<file id="file-1" />
						<sourcetrack>
							<mediatype>audio</mediatype>
							<trackindex>1</trackindex>
						</sourcetrack>
						<labels>
							<label2>Iris</label2>
						</labels>
						<outputchannelindex>1</outputchannelindex>
					</clipitem>
					<clipitem id="clipitem-1952" premiereChannelType="stereo">
						<masterclipid>masterclip-2</masterclipid>
						<name>chandrika rocket equations</name>
						<start>61499</start>
						<end>61529</end>
						<in>104831</in>
						<out>104861</out>
						<file id="file-1" />
						<sourcetrack>
							<mediatype>audio</mediatype>
							<trackindex>1</trackindex>
						</sourcetrack>
						<labels>
							<label2>Iris</label2>
						</labels>
						<outputchannelindex>1</outputchannelindex>
					</clipitem>
					<clipitem id="clipitem-1953" premiereChannelType="stereo">
						<masterclipid>masterclip-2</masterclipid>
						<name>chandrika rocket equations</name>
						<start>61529</start>
						<end>61680</end>
						<in>104974</in>
						<out>105125</out>
						<file id="file-1" />
						<sourcetrack>
							<mediatype>audio</mediatype>
							<trackindex>1</trackindex>
						</sourcetrack>
						<labels>
							<label2>Iris</label2>
						</labels>
						<outputchannelindex>1</outputchannelindex>
					</clipitem>
					<clipitem id="clipitem-1954" premiereChannelType="stereo">
						<masterclipid>masterclip-2</masterclipid>
						<name>chandrika rocket equations</name>
						<start>61680</start>
						<end>61731</end>
						<in>105128</in>
						<out>105179</out>
						<file id="file-1" />
						<sourcetrack>
							<mediatype>audio</mediatype>
							<trackindex>1</trackindex>
						</sourcetrack>
						<labels>
							<label2>Iris</label2>
						</labels>
						<outputchannelindex>1</outputchannelindex>
					</clipitem>
					<clipitem id="clipitem-1955" premiereChannelType="stereo">
						<masterclipid>masterclip-2</masterclipid>
						<name>chandrika rocket equations</name>
						<start>61731</start>
						<end>61786</end>
						<in>105222</in>
						<out>105277</out>
						<file id="file-1" />
						<sourcetrack>
							<mediatype>audio</mediatype>
							<trackindex>1</trackindex>
						</sourcetrack>
						<labels>
							<label2>Iris</label2>
						</labels>
						<outputchannelindex>1</outputchannelindex>
					</clipitem>
					<clipitem id="clipitem-1956" premiereChannelType="stereo">
						<masterclipid>masterclip-2</masterclipid>
						<name>chandrika rocket equations</name>
						<start>61786</start>
						<end>61875</end>
						<in>105284</in>
						<out>105373</out>
						<file id="file-1" />
						<sourcetrack>
							<mediatype>audio</mediatype>
							<trackindex>1</trackindex>
						</sourcetrack>
						<labels>
							<label2>Iris</label2>
						</labels>
						<outputchannelindex>1</outputchannelindex>
					</clipitem>
					<clipitem id="clipitem-1957" premiereChannelType="stereo">
						<masterclipid>masterclip-2</masterclipid>
						<name>chandrika rocket equations</name>
						<start>61875</start>
						<end>61894</end>
						<in>105444</in>
						<out>105463</out>
						<file id="file-1" />
						<sourcetrack>
							<mediatype>audio</mediatype>
							<trackindex>1</trackindex>
						</sourcetrack>
						<labels>
							<label2>Iris</label2>
						</labels>
						<outputchannelindex>1</outputchannelindex>
					</clipitem>
					<clipitem id="clipitem-1958" premiereChannelType="stereo">
						<masterclipid>masterclip-2</masterclipid>
						<name>chandrika rocket equations</name>
						<start>61894</start>
						<end>61968</end>
						<in>105472</in>
						<out>105546</out>
						<file id="file-1" />
						<sourcetrack>
							<mediatype>audio</mediatype>
							<trackindex>1</trackindex>
						</sourcetrack>
						<labels>
							<label2>Iris</label2>
						</labels>
						<outputchannelindex>1</outputchannelindex>
					</clipitem>
					<clipitem id="clipitem-1959" premiereChannelType="stereo">
						<masterclipid>masterclip-2</masterclipid>
						<name>chandrika rocket equations</name>
						<start>61968</start>
						<end>62101</end>
						<in>105570</in>
						<out>105703</out>
						<file id="file-1" />
						<sourcetrack>
							<mediatype>audio</mediatype>
							<trackindex>1</trackindex>
						</sourcetrack>
						<labels>
							<label2>Iris</label2>
						</labels>
						<outputchannelindex>1</outputchannelindex>
					</clipitem>
					<clipitem id="clipitem-1960" premiereChannelType="stereo">
						<masterclipid>masterclip-2</masterclipid>
						<name>chandrika rocket equations</name>
						<start>62101</start>
						<end>62222</end>
						<in>105719</in>
						<out>105840</out>
						<file id="file-1" />
						<sourcetrack>
							<mediatype>audio</mediatype>
							<trackindex>1</trackindex>
						</sourcetrack>
						<labels>
							<label2>Iris</label2>
						</labels>
						<outputchannelindex>1</outputchannelindex>
					</clipitem>
					<clipitem id="clipitem-1961" premiereChannelType="stereo">
						<masterclipid>masterclip-2</masterclipid>
						<name>chandrika rocket equations</name>
						<start>62222</start>
						<end>62260</end>
						<in>105850</in>
						<out>105888</out>
						<file id="file-1" />
						<sourcetrack>
							<mediatype>audio</mediatype>
							<trackindex>1</trackindex>
						</sourcetrack>
						<labels>
							<label2>Iris</label2>
						</labels>
						<outputchannelindex>1</outputchannelindex>
					</clipitem>
					<clipitem id="clipitem-1962" premiereChannelType="stereo">
						<masterclipid>masterclip-2</masterclipid>
						<name>chandrika rocket equations</name>
						<start>62260</start>
						<end>62298</end>
						<in>105937</in>
						<out>105975</out>
						<file id="file-1" />
						<sourcetrack>
							<mediatype>audio</mediatype>
							<trackindex>1</trackindex>
						</sourcetrack>
						<labels>
							<label2>Iris</label2>
						</labels>
						<outputchannelindex>1</outputchannelindex>
					</clipitem>
					<clipitem id="clipitem-1963" premiereChannelType="stereo">
						<masterclipid>masterclip-2</masterclipid>
						<name>chandrika rocket equations</name>
						<start>62298</start>
						<end>62410</end>
						<in>105986</in>
						<out>106098</out>
						<file id="file-1" />
						<sourcetrack>
							<mediatype>audio</mediatype>
							<trackindex>1</trackindex>
						</sourcetrack>
						<labels>
							<label2>Iris</label2>
						</labels>
						<outputchannelindex>1</outputchannelindex>
					</clipitem>
					<clipitem id="clipitem-1964" premiereChannelType="stereo">
						<masterclipid>masterclip-2</masterclipid>
						<name>chandrika rocket equations</name>
						<start>62410</start>
						<end>62590</end>
						<in>106140</in>
						<out>106320</out>
						<file id="file-1" />
						<sourcetrack>
							<mediatype>audio</mediatype>
							<trackindex>1</trackindex>
						</sourcetrack>
						<labels>
							<label2>Iris</label2>
						</labels>
						<outputchannelindex>1</outputchannelindex>
					</clipitem>
					<clipitem id="clipitem-1965" premiereChannelType="stereo">
						<masterclipid>masterclip-2</masterclipid>
						<name>chandrika rocket equations</name>
						<start>62590</start>
						<end>62606</end>
						<in>106449</in>
						<out>106465</out>
						<file id="file-1" />
						<sourcetrack>
							<mediatype>audio</mediatype>
							<trackindex>1</trackindex>
						</sourcetrack>
						<labels>
							<label2>Iris</label2>
						</labels>
						<outputchannelindex>1</outputchannelindex>
					</clipitem>
					<clipitem id="clipitem-1966" premiereChannelType="stereo">
						<masterclipid>masterclip-2</masterclipid>
						<name>chandrika rocket equations</name>
						<start>62606</start>
						<end>62696</end>
						<in>106525</in>
						<out>106615</out>
						<file id="file-1" />
						<sourcetrack>
							<mediatype>audio</mediatype>
							<trackindex>1</trackindex>
						</sourcetrack>
						<labels>
							<label2>Iris</label2>
						</labels>
						<outputchannelindex>1</outputchannelindex>
					</clipitem>
					<clipitem id="clipitem-1967" premiereChannelType="stereo">
						<masterclipid>masterclip-2</masterclipid>
						<name>chandrika rocket equations</name>
						<start>62696</start>
						<end>62851</end>
						<in>106621</in>
						<out>106776</out>
						<file id="file-1" />
						<sourcetrack>
							<mediatype>audio</mediatype>
							<trackindex>1</trackindex>
						</sourcetrack>
						<labels>
							<label2>Iris</label2>
						</labels>
						<outputchannelindex>1</outputchannelindex>
					</clipitem>
					<clipitem id="clipitem-1968" premiereChannelType="stereo">
						<masterclipid>masterclip-2</masterclipid>
						<name>chandrika rocket equations</name>
						<start>62851</start>
						<end>62870</end>
						<in>106824</in>
						<out>106843</out>
						<file id="file-1" />
						<sourcetrack>
							<mediatype>audio</mediatype>
							<trackindex>1</trackindex>
						</sourcetrack>
						<labels>
							<label2>Iris</label2>
						</labels>
						<outputchannelindex>1</outputchannelindex>
					</clipitem>
					<clipitem id="clipitem-1969" premiereChannelType="stereo">
						<masterclipid>masterclip-2</masterclipid>
						<name>chandrika rocket equations</name>
						<start>62870</start>
						<end>62907</end>
						<in>106908</in>
						<out>106945</out>
						<file id="file-1" />
						<sourcetrack>
							<mediatype>audio</mediatype>
							<trackindex>1</trackindex>
						</sourcetrack>
						<labels>
							<label2>Iris</label2>
						</labels>
						<outputchannelindex>1</outputchannelindex>
					</clipitem>
					<clipitem id="clipitem-1970" premiereChannelType="stereo">
						<masterclipid>masterclip-2</masterclipid>
						<name>chandrika rocket equations</name>
						<start>62907</start>
						<end>63031</end>
						<in>106981</in>
						<out>107105</out>
						<file id="file-1" />
						<sourcetrack>
							<mediatype>audio</mediatype>
							<trackindex>1</trackindex>
						</sourcetrack>
						<labels>
							<label2>Iris</label2>
						</labels>
						<outputchannelindex>1</outputchannelindex>
					</clipitem>
					<clipitem id="clipitem-1971" premiereChannelType="stereo">
						<masterclipid>masterclip-2</masterclipid>
						<name>chandrika rocket equations</name>
						<start>63031</start>
						<end>63074</end>
						<in>107150</in>
						<out>107193</out>
						<file id="file-1" />
						<sourcetrack>
							<mediatype>audio</mediatype>
							<trackindex>1</trackindex>
						</sourcetrack>
						<labels>
							<label2>Iris</label2>
						</labels>
						<outputchannelindex>1</outputchannelindex>
					</clipitem>
					<clipitem id="clipitem-1972" premiereChannelType="stereo">
						<masterclipid>masterclip-2</masterclipid>
						<name>chandrika rocket equations</name>
						<start>63074</start>
						<end>63125</end>
						<in>107199</in>
						<out>107250</out>
						<file id="file-1" />
						<sourcetrack>
							<mediatype>audio</mediatype>
							<trackindex>1</trackindex>
						</sourcetrack>
						<labels>
							<label2>Iris</label2>
						</labels>
						<outputchannelindex>1</outputchannelindex>
					</clipitem>
					<clipitem id="clipitem-1973" premiereChannelType="stereo">
						<masterclipid>masterclip-2</masterclipid>
						<name>chandrika rocket equations</name>
						<start>63125</start>
						<end>63244</end>
						<in>107259</in>
						<out>107378</out>
						<file id="file-1" />
						<sourcetrack>
							<mediatype>audio</mediatype>
							<trackindex>1</trackindex>
						</sourcetrack>
						<labels>
							<label2>Iris</label2>
						</labels>
						<outputchannelindex>1</outputchannelindex>
					</clipitem>
					<clipitem id="clipitem-1974" premiereChannelType="stereo">
						<masterclipid>masterclip-2</masterclipid>
						<name>chandrika rocket equations</name>
						<start>63244</start>
						<end>63311</end>
						<in>107384</in>
						<out>107451</out>
						<file id="file-1" />
						<sourcetrack>
							<mediatype>audio</mediatype>
							<trackindex>1</trackindex>
						</sourcetrack>
						<labels>
							<label2>Iris</label2>
						</labels>
						<outputchannelindex>1</outputchannelindex>
					</clipitem>
					<clipitem id="clipitem-1975" premiereChannelType="stereo">
						<masterclipid>masterclip-2</masterclipid>
						<name>chandrika rocket equations</name>
						<start>63311</start>
						<end>63336</end>
						<in>107454</in>
						<out>107479</out>
						<file id="file-1" />
						<sourcetrack>
							<mediatype>audio</mediatype>
							<trackindex>1</trackindex>
						</sourcetrack>
						<labels>
							<label2>Iris</label2>
						</labels>
						<outputchannelindex>1</outputchannelindex>
					</clipitem>
					<clipitem id="clipitem-1976" premiereChannelType="stereo">
						<masterclipid>masterclip-2</masterclipid>
						<name>chandrika rocket equations</name>
						<start>63336</start>
						<end>63362</end>
						<in>107486</in>
						<out>107512</out>
						<file id="file-1" />
						<sourcetrack>
							<mediatype>audio</mediatype>
							<trackindex>1</trackindex>
						</sourcetrack>
						<labels>
							<label2>Iris</label2>
						</labels>
						<outputchannelindex>1</outputchannelindex>
					</clipitem>
					<clipitem id="clipitem-1977" premiereChannelType="stereo">
						<masterclipid>masterclip-2</masterclipid>
						<name>chandrika rocket equations</name>
						<start>63362</start>
						<end>63477</end>
						<in>107539</in>
						<out>107654</out>
						<file id="file-1" />
						<sourcetrack>
							<mediatype>audio</mediatype>
							<trackindex>1</trackindex>
						</sourcetrack>
						<labels>
							<label2>Iris</label2>
						</labels>
						<outputchannelindex>1</outputchannelindex>
					</clipitem>
					<clipitem id="clipitem-1978" premiereChannelType="stereo">
						<masterclipid>masterclip-2</masterclipid>
						<name>chandrika rocket equations</name>
						<start>63477</start>
						<end>63588</end>
						<in>107660</in>
						<out>107771</out>
						<file id="file-1" />
						<sourcetrack>
							<mediatype>audio</mediatype>
							<trackindex>1</trackindex>
						</sourcetrack>
						<labels>
							<label2>Iris</label2>
						</labels>
						<outputchannelindex>1</outputchannelindex>
					</clipitem>
					<clipitem id="clipitem-1979" premiereChannelType="stereo">
						<masterclipid>masterclip-2</masterclipid>
						<name>chandrika rocket equations</name>
						<start>63588</start>
						<end>63614</end>
						<in>107774</in>
						<out>107800</out>
						<file id="file-1" />
						<sourcetrack>
							<mediatype>audio</mediatype>
							<trackindex>1</trackindex>
						</sourcetrack>
						<labels>
							<label2>Iris</label2>
						</labels>
						<outputchannelindex>1</outputchannelindex>
					</clipitem>
					<clipitem id="clipitem-1980" premiereChannelType="stereo">
						<masterclipid>masterclip-2</masterclipid>
						<name>chandrika rocket equations</name>
						<start>63614</start>
						<end>63657</end>
						<in>107814</in>
						<out>107857</out>
						<file id="file-1" />
						<sourcetrack>
							<mediatype>audio</mediatype>
							<trackindex>1</trackindex>
						</sourcetrack>
						<labels>
							<label2>Iris</label2>
						</labels>
						<outputchannelindex>1</outputchannelindex>
					</clipitem>
					<clipitem id="clipitem-1981" premiereChannelType="stereo">
						<masterclipid>masterclip-2</masterclipid>
						<name>chandrika rocket equations</name>
						<start>63657</start>
						<end>63767</end>
						<in>107901</in>
						<out>108011</out>
						<file id="file-1" />
						<sourcetrack>
							<mediatype>audio</mediatype>
							<trackindex>1</trackindex>
						</sourcetrack>
						<labels>
							<label2>Iris</label2>
						</labels>
						<outputchannelindex>1</outputchannelindex>
					</clipitem>
					<clipitem id="clipitem-1982" premiereChannelType="stereo">
						<masterclipid>masterclip-2</masterclipid>
						<name>chandrika rocket equations</name>
						<start>63767</start>
						<end>63841</end>
						<in>108055</in>
						<out>108129</out>
						<file id="file-1" />
						<sourcetrack>
							<mediatype>audio</mediatype>
							<trackindex>1</trackindex>
						</sourcetrack>
						<labels>
							<label2>Iris</label2>
						</labels>
						<outputchannelindex>1</outputchannelindex>
					</clipitem>
					<clipitem id="clipitem-1983" premiereChannelType="stereo">
						<masterclipid>masterclip-2</masterclipid>
						<name>chandrika rocket equations</name>
						<start>63841</start>
						<end>63864</end>
						<in>108149</in>
						<out>108172</out>
						<file id="file-1" />
						<sourcetrack>
							<mediatype>audio</mediatype>
							<trackindex>1</trackindex>
						</sourcetrack>
						<labels>
							<label2>Iris</label2>
						</labels>
						<outputchannelindex>1</outputchannelindex>
					</clipitem>
					<clipitem id="clipitem-1984" premiereChannelType="stereo">
						<masterclipid>masterclip-2</masterclipid>
						<name>chandrika rocket equations</name>
						<start>63864</start>
						<end>63941</end>
						<in>108330</in>
						<out>108407</out>
						<file id="file-1" />
						<sourcetrack>
							<mediatype>audio</mediatype>
							<trackindex>1</trackindex>
						</sourcetrack>
						<labels>
							<label2>Iris</label2>
						</labels>
						<outputchannelindex>1</outputchannelindex>
					</clipitem>
					<clipitem id="clipitem-1985" premiereChannelType="stereo">
						<masterclipid>masterclip-2</masterclipid>
						<name>chandrika rocket equations</name>
						<start>63941</start>
						<end>64013</end>
						<in>108451</in>
						<out>108523</out>
						<file id="file-1" />
						<sourcetrack>
							<mediatype>audio</mediatype>
							<trackindex>1</trackindex>
						</sourcetrack>
						<labels>
							<label2>Iris</label2>
						</labels>
						<outputchannelindex>1</outputchannelindex>
					</clipitem>
					<clipitem id="clipitem-1986" premiereChannelType="stereo">
						<masterclipid>masterclip-2</masterclipid>
						<name>chandrika rocket equations</name>
						<start>64013</start>
						<end>64131</end>
						<in>108533</in>
						<out>108651</out>
						<file id="file-1" />
						<sourcetrack>
							<mediatype>audio</mediatype>
							<trackindex>1</trackindex>
						</sourcetrack>
						<labels>
							<label2>Iris</label2>
						</labels>
						<outputchannelindex>1</outputchannelindex>
					</clipitem>
					<clipitem id="clipitem-1987" premiereChannelType="stereo">
						<masterclipid>masterclip-2</masterclipid>
						<name>chandrika rocket equations</name>
						<start>64131</start>
						<end>64228</end>
						<in>108740</in>
						<out>108837</out>
						<file id="file-1" />
						<sourcetrack>
							<mediatype>audio</mediatype>
							<trackindex>1</trackindex>
						</sourcetrack>
						<labels>
							<label2>Iris</label2>
						</labels>
						<outputchannelindex>1</outputchannelindex>
					</clipitem>
					<clipitem id="clipitem-1988" premiereChannelType="stereo">
						<masterclipid>masterclip-2</masterclipid>
						<name>chandrika rocket equations</name>
						<start>64228</start>
						<end>64251</end>
						<in>108857</in>
						<out>108880</out>
						<file id="file-1" />
						<sourcetrack>
							<mediatype>audio</mediatype>
							<trackindex>1</trackindex>
						</sourcetrack>
						<labels>
							<label2>Iris</label2>
						</labels>
						<outputchannelindex>1</outputchannelindex>
					</clipitem>
					<clipitem id="clipitem-1989" premiereChannelType="stereo">
						<masterclipid>masterclip-2</masterclipid>
						<name>chandrika rocket equations</name>
						<start>64251</start>
						<end>64282</end>
						<in>108894</in>
						<out>108925</out>
						<file id="file-1" />
						<sourcetrack>
							<mediatype>audio</mediatype>
							<trackindex>1</trackindex>
						</sourcetrack>
						<labels>
							<label2>Iris</label2>
						</labels>
						<outputchannelindex>1</outputchannelindex>
					</clipitem>
					<clipitem id="clipitem-1990" premiereChannelType="stereo">
						<masterclipid>masterclip-2</masterclipid>
						<name>chandrika rocket equations</name>
						<start>64282</start>
						<end>64321</end>
						<in>108968</in>
						<out>109007</out>
						<file id="file-1" />
						<sourcetrack>
							<mediatype>audio</mediatype>
							<trackindex>1</trackindex>
						</sourcetrack>
						<labels>
							<label2>Iris</label2>
						</labels>
						<outputchannelindex>1</outputchannelindex>
					</clipitem>
					<clipitem id="clipitem-1991" premiereChannelType="stereo">
						<masterclipid>masterclip-2</masterclipid>
						<name>chandrika rocket equations</name>
						<start>64321</start>
						<end>64420</end>
						<in>109044</in>
						<out>109143</out>
						<file id="file-1" />
						<sourcetrack>
							<mediatype>audio</mediatype>
							<trackindex>1</trackindex>
						</sourcetrack>
						<labels>
							<label2>Iris</label2>
						</labels>
						<outputchannelindex>1</outputchannelindex>
					</clipitem>
					<clipitem id="clipitem-1992" premiereChannelType="stereo">
						<masterclipid>masterclip-2</masterclipid>
						<name>chandrika rocket equations</name>
						<start>64420</start>
						<end>64490</end>
						<in>109166</in>
						<out>109236</out>
						<file id="file-1" />
						<sourcetrack>
							<mediatype>audio</mediatype>
							<trackindex>1</trackindex>
						</sourcetrack>
						<labels>
							<label2>Iris</label2>
						</labels>
						<outputchannelindex>1</outputchannelindex>
					</clipitem>
					<clipitem id="clipitem-1993" premiereChannelType="stereo">
						<masterclipid>masterclip-2</masterclipid>
						<name>chandrika rocket equations</name>
						<start>64490</start>
						<end>64527</end>
						<in>109252</in>
						<out>109289</out>
						<file id="file-1" />
						<sourcetrack>
							<mediatype>audio</mediatype>
							<trackindex>1</trackindex>
						</sourcetrack>
						<labels>
							<label2>Iris</label2>
						</labels>
						<outputchannelindex>1</outputchannelindex>
					</clipitem>
					<clipitem id="clipitem-1994" premiereChannelType="stereo">
						<masterclipid>masterclip-2</masterclipid>
						<name>chandrika rocket equations</name>
						<start>64527</start>
						<end>64581</end>
						<in>109291</in>
						<out>109345</out>
						<file id="file-1" />
						<sourcetrack>
							<mediatype>audio</mediatype>
							<trackindex>1</trackindex>
						</sourcetrack>
						<labels>
							<label2>Iris</label2>
						</labels>
						<outputchannelindex>1</outputchannelindex>
					</clipitem>
					<clipitem id="clipitem-1995" premiereChannelType="stereo">
						<masterclipid>masterclip-2</masterclipid>
						<name>chandrika rocket equations</name>
						<start>64581</start>
						<end>64645</end>
						<in>109350</in>
						<out>109414</out>
						<file id="file-1" />
						<sourcetrack>
							<mediatype>audio</mediatype>
							<trackindex>1</trackindex>
						</sourcetrack>
						<labels>
							<label2>Iris</label2>
						</labels>
						<outputchannelindex>1</outputchannelindex>
					</clipitem>
					<clipitem id="clipitem-1996" premiereChannelType="stereo">
						<masterclipid>masterclip-2</masterclipid>
						<name>chandrika rocket equations</name>
						<start>64645</start>
						<end>64712</end>
						<in>109417</in>
						<out>109484</out>
						<file id="file-1" />
						<sourcetrack>
							<mediatype>audio</mediatype>
							<trackindex>1</trackindex>
						</sourcetrack>
						<labels>
							<label2>Iris</label2>
						</labels>
						<outputchannelindex>1</outputchannelindex>
					</clipitem>
					<clipitem id="clipitem-1997" premiereChannelType="stereo">
						<masterclipid>masterclip-2</masterclipid>
						<name>chandrika rocket equations</name>
						<start>64712</start>
						<end>64822</end>
						<in>109498</in>
						<out>109608</out>
						<file id="file-1" />
						<sourcetrack>
							<mediatype>audio</mediatype>
							<trackindex>1</trackindex>
						</sourcetrack>
						<labels>
							<label2>Iris</label2>
						</labels>
						<outputchannelindex>1</outputchannelindex>
					</clipitem>
					<clipitem id="clipitem-1998" premiereChannelType="stereo">
						<masterclipid>masterclip-2</masterclipid>
						<name>chandrika rocket equations</name>
						<start>64822</start>
						<end>64975</end>
						<in>109609</in>
						<out>109762</out>
						<file id="file-1" />
						<sourcetrack>
							<mediatype>audio</mediatype>
							<trackindex>1</trackindex>
						</sourcetrack>
						<labels>
							<label2>Iris</label2>
						</labels>
						<outputchannelindex>1</outputchannelindex>
					</clipitem>
					<clipitem id="clipitem-1999" premiereChannelType="stereo">
						<masterclipid>masterclip-2</masterclipid>
						<name>chandrika rocket equations</name>
						<start>64975</start>
						<end>65077</end>
						<in>109767</in>
						<out>109869</out>
						<file id="file-1" />
						<sourcetrack>
							<mediatype>audio</mediatype>
							<trackindex>1</trackindex>
						</sourcetrack>
						<labels>
							<label2>Iris</label2>
						</labels>
						<outputchannelindex>1</outputchannelindex>
					</clipitem>
					<clipitem id="clipitem-2000" premiereChannelType="stereo">
						<masterclipid>masterclip-2</masterclipid>
						<name>chandrika rocket equations</name>
						<start>65077</start>
						<end>65110</end>
						<in>109884</in>
						<out>109917</out>
						<file id="file-1" />
						<sourcetrack>
							<mediatype>audio</mediatype>
							<trackindex>1</trackindex>
						</sourcetrack>
						<labels>
							<label2>Iris</label2>
						</labels>
						<outputchannelindex>1</outputchannelindex>
					</clipitem>
					<clipitem id="clipitem-2001" premiereChannelType="stereo">
						<masterclipid>masterclip-2</masterclipid>
						<name>chandrika rocket equations</name>
						<start>65110</start>
						<end>65168</end>
						<in>110253</in>
						<out>110311</out>
						<file id="file-1" />
						<sourcetrack>
							<mediatype>audio</mediatype>
							<trackindex>1</trackindex>
						</sourcetrack>
						<labels>
							<label2>Iris</label2>
						</labels>
						<outputchannelindex>1</outputchannelindex>
					</clipitem>
					<clipitem id="clipitem-2002" premiereChannelType="stereo">
						<masterclipid>masterclip-2</masterclipid>
						<name>chandrika rocket equations</name>
						<start>65168</start>
						<end>65310</end>
						<in>110342</in>
						<out>110484</out>
						<file id="file-1" />
						<sourcetrack>
							<mediatype>audio</mediatype>
							<trackindex>1</trackindex>
						</sourcetrack>
						<labels>
							<label2>Iris</label2>
						</labels>
						<outputchannelindex>1</outputchannelindex>
					</clipitem>
					<clipitem id="clipitem-2003" premiereChannelType="stereo">
						<masterclipid>masterclip-2</masterclipid>
						<name>chandrika rocket equations</name>
						<start>65310</start>
						<end>65369</end>
						<in>110527</in>
						<out>110586</out>
						<file id="file-1" />
						<sourcetrack>
							<mediatype>audio</mediatype>
							<trackindex>1</trackindex>
						</sourcetrack>
						<labels>
							<label2>Iris</label2>
						</labels>
						<outputchannelindex>1</outputchannelindex>
					</clipitem>
					<clipitem id="clipitem-2004" premiereChannelType="stereo">
						<masterclipid>masterclip-2</masterclipid>
						<name>chandrika rocket equations</name>
						<start>65369</start>
						<end>65384</end>
						<in>110590</in>
						<out>110605</out>
						<file id="file-1" />
						<sourcetrack>
							<mediatype>audio</mediatype>
							<trackindex>1</trackindex>
						</sourcetrack>
						<labels>
							<label2>Iris</label2>
						</labels>
						<outputchannelindex>1</outputchannelindex>
					</clipitem>
					<clipitem id="clipitem-2005" premiereChannelType="stereo">
						<masterclipid>masterclip-2</masterclipid>
						<name>chandrika rocket equations</name>
						<start>65384</start>
						<end>65402</end>
						<in>110611</in>
						<out>110629</out>
						<file id="file-1" />
						<sourcetrack>
							<mediatype>audio</mediatype>
							<trackindex>1</trackindex>
						</sourcetrack>
						<labels>
							<label2>Iris</label2>
						</labels>
						<outputchannelindex>1</outputchannelindex>
					</clipitem>
					<clipitem id="clipitem-2006" premiereChannelType="stereo">
						<masterclipid>masterclip-2</masterclipid>
						<name>chandrika rocket equations</name>
						<start>65402</start>
						<end>65417</end>
						<in>110636</in>
						<out>110651</out>
						<file id="file-1" />
						<sourcetrack>
							<mediatype>audio</mediatype>
							<trackindex>1</trackindex>
						</sourcetrack>
						<labels>
							<label2>Iris</label2>
						</labels>
						<outputchannelindex>1</outputchannelindex>
					</clipitem>
					<clipitem id="clipitem-2007" premiereChannelType="stereo">
						<masterclipid>masterclip-2</masterclipid>
						<name>chandrika rocket equations</name>
						<start>65417</start>
						<end>65432</end>
						<in>110671</in>
						<out>110686</out>
						<file id="file-1" />
						<sourcetrack>
							<mediatype>audio</mediatype>
							<trackindex>1</trackindex>
						</sourcetrack>
						<labels>
							<label2>Iris</label2>
						</labels>
						<outputchannelindex>1</outputchannelindex>
					</clipitem>
					<clipitem id="clipitem-2008" premiereChannelType="stereo">
						<masterclipid>masterclip-2</masterclipid>
						<name>chandrika rocket equations</name>
						<start>65432</start>
						<end>65447</end>
						<in>110697</in>
						<out>110712</out>
						<file id="file-1" />
						<sourcetrack>
							<mediatype>audio</mediatype>
							<trackindex>1</trackindex>
						</sourcetrack>
						<labels>
							<label2>Iris</label2>
						</labels>
						<outputchannelindex>1</outputchannelindex>
					</clipitem>
					<clipitem id="clipitem-2009" premiereChannelType="stereo">
						<masterclipid>masterclip-2</masterclipid>
						<name>chandrika rocket equations</name>
						<start>65447</start>
						<end>65492</end>
						<in>110751</in>
						<out>110796</out>
						<file id="file-1" />
						<sourcetrack>
							<mediatype>audio</mediatype>
							<trackindex>1</trackindex>
						</sourcetrack>
						<labels>
							<label2>Iris</label2>
						</labels>
						<outputchannelindex>1</outputchannelindex>
					</clipitem>
					<clipitem id="clipitem-2010" premiereChannelType="stereo">
						<masterclipid>masterclip-2</masterclipid>
						<name>chandrika rocket equations</name>
						<start>65492</start>
						<end>65522</end>
						<in>110800</in>
						<out>110830</out>
						<file id="file-1" />
						<sourcetrack>
							<mediatype>audio</mediatype>
							<trackindex>1</trackindex>
						</sourcetrack>
						<labels>
							<label2>Iris</label2>
						</labels>
						<outputchannelindex>1</outputchannelindex>
					</clipitem>
					<clipitem id="clipitem-2011" premiereChannelType="stereo">
						<masterclipid>masterclip-2</masterclipid>
						<name>chandrika rocket equations</name>
						<start>65522</start>
						<end>65543</end>
						<in>110850</in>
						<out>110871</out>
						<file id="file-1" />
						<sourcetrack>
							<mediatype>audio</mediatype>
							<trackindex>1</trackindex>
						</sourcetrack>
						<labels>
							<label2>Iris</label2>
						</labels>
						<outputchannelindex>1</outputchannelindex>
					</clipitem>
					<clipitem id="clipitem-2012" premiereChannelType="stereo">
						<masterclipid>masterclip-2</masterclipid>
						<name>chandrika rocket equations</name>
						<start>65543</start>
						<end>65569</end>
						<in>110872</in>
						<out>110898</out>
						<file id="file-1" />
						<sourcetrack>
							<mediatype>audio</mediatype>
							<trackindex>1</trackindex>
						</sourcetrack>
						<labels>
							<label2>Iris</label2>
						</labels>
						<outputchannelindex>1</outputchannelindex>
					</clipitem>
					<clipitem id="clipitem-2013" premiereChannelType="stereo">
						<masterclipid>masterclip-2</masterclipid>
						<name>chandrika rocket equations</name>
						<start>65569</start>
						<end>65676</end>
						<in>110911</in>
						<out>111018</out>
						<file id="file-1" />
						<sourcetrack>
							<mediatype>audio</mediatype>
							<trackindex>1</trackindex>
						</sourcetrack>
						<labels>
							<label2>Iris</label2>
						</labels>
						<outputchannelindex>1</outputchannelindex>
					</clipitem>
					<clipitem id="clipitem-2014" premiereChannelType="stereo">
						<masterclipid>masterclip-2</masterclipid>
						<name>chandrika rocket equations</name>
						<start>65676</start>
						<end>65717</end>
						<in>111100</in>
						<out>111141</out>
						<file id="file-1" />
						<sourcetrack>
							<mediatype>audio</mediatype>
							<trackindex>1</trackindex>
						</sourcetrack>
						<labels>
							<label2>Iris</label2>
						</labels>
						<outputchannelindex>1</outputchannelindex>
					</clipitem>
					<clipitem id="clipitem-2015" premiereChannelType="stereo">
						<masterclipid>masterclip-2</masterclipid>
						<name>chandrika rocket equations</name>
						<start>65717</start>
						<end>65893</end>
						<in>111230</in>
						<out>111406</out>
						<file id="file-1" />
						<sourcetrack>
							<mediatype>audio</mediatype>
							<trackindex>1</trackindex>
						</sourcetrack>
						<labels>
							<label2>Iris</label2>
						</labels>
						<outputchannelindex>1</outputchannelindex>
					</clipitem>
					<clipitem id="clipitem-2016" premiereChannelType="stereo">
						<masterclipid>masterclip-2</masterclipid>
						<name>chandrika rocket equations</name>
						<start>65893</start>
						<end>65921</end>
						<in>111417</in>
						<out>111445</out>
						<file id="file-1" />
						<sourcetrack>
							<mediatype>audio</mediatype>
							<trackindex>1</trackindex>
						</sourcetrack>
						<labels>
							<label2>Iris</label2>
						</labels>
						<outputchannelindex>1</outputchannelindex>
					</clipitem>
					<clipitem id="clipitem-2017" premiereChannelType="stereo">
						<masterclipid>masterclip-2</masterclipid>
						<name>chandrika rocket equations</name>
						<start>65921</start>
						<end>65962</end>
						<in>111466</in>
						<out>111507</out>
						<file id="file-1" />
						<sourcetrack>
							<mediatype>audio</mediatype>
							<trackindex>1</trackindex>
						</sourcetrack>
						<labels>
							<label2>Iris</label2>
						</labels>
						<outputchannelindex>1</outputchannelindex>
					</clipitem>
					<clipitem id="clipitem-2018" premiereChannelType="stereo">
						<masterclipid>masterclip-2</masterclipid>
						<name>chandrika rocket equations</name>
						<start>65962</start>
						<end>65991</end>
						<in>111545</in>
						<out>111574</out>
						<file id="file-1" />
						<sourcetrack>
							<mediatype>audio</mediatype>
							<trackindex>1</trackindex>
						</sourcetrack>
						<labels>
							<label2>Iris</label2>
						</labels>
						<outputchannelindex>1</outputchannelindex>
					</clipitem>
					<clipitem id="clipitem-2019" premiereChannelType="stereo">
						<masterclipid>masterclip-2</masterclipid>
						<name>chandrika rocket equations</name>
						<start>65991</start>
						<end>66047</end>
						<in>111575</in>
						<out>111631</out>
						<file id="file-1" />
						<sourcetrack>
							<mediatype>audio</mediatype>
							<trackindex>1</trackindex>
						</sourcetrack>
						<labels>
							<label2>Iris</label2>
						</labels>
						<outputchannelindex>1</outputchannelindex>
					</clipitem>
					<clipitem id="clipitem-2020" premiereChannelType="stereo">
						<masterclipid>masterclip-2</masterclipid>
						<name>chandrika rocket equations</name>
						<start>66047</start>
						<end>66066</end>
						<in>111637</in>
						<out>111656</out>
						<file id="file-1" />
						<sourcetrack>
							<mediatype>audio</mediatype>
							<trackindex>1</trackindex>
						</sourcetrack>
						<labels>
							<label2>Iris</label2>
						</labels>
						<outputchannelindex>1</outputchannelindex>
					</clipitem>
					<clipitem id="clipitem-2021" premiereChannelType="stereo">
						<masterclipid>masterclip-2</masterclipid>
						<name>chandrika rocket equations</name>
						<start>66066</start>
						<end>66089</end>
						<in>111668</in>
						<out>111691</out>
						<file id="file-1" />
						<sourcetrack>
							<mediatype>audio</mediatype>
							<trackindex>1</trackindex>
						</sourcetrack>
						<labels>
							<label2>Iris</label2>
						</labels>
						<outputchannelindex>1</outputchannelindex>
					</clipitem>
					<clipitem id="clipitem-2022" premiereChannelType="stereo">
						<masterclipid>masterclip-2</masterclipid>
						<name>chandrika rocket equations</name>
						<start>66089</start>
						<end>66162</end>
						<in>111692</in>
						<out>111765</out>
						<file id="file-1" />
						<sourcetrack>
							<mediatype>audio</mediatype>
							<trackindex>1</trackindex>
						</sourcetrack>
						<labels>
							<label2>Iris</label2>
						</labels>
						<outputchannelindex>1</outputchannelindex>
					</clipitem>
					<clipitem id="clipitem-2023" premiereChannelType="stereo">
						<masterclipid>masterclip-2</masterclipid>
						<name>chandrika rocket equations</name>
						<start>66162</start>
						<end>66177</end>
						<in>111769</in>
						<out>111784</out>
						<file id="file-1" />
						<sourcetrack>
							<mediatype>audio</mediatype>
							<trackindex>1</trackindex>
						</sourcetrack>
						<labels>
							<label2>Iris</label2>
						</labels>
						<outputchannelindex>1</outputchannelindex>
					</clipitem>
					<clipitem id="clipitem-2024" premiereChannelType="stereo">
						<masterclipid>masterclip-2</masterclipid>
						<name>chandrika rocket equations</name>
						<start>66177</start>
						<end>66236</end>
						<in>111800</in>
						<out>111859</out>
						<file id="file-1" />
						<sourcetrack>
							<mediatype>audio</mediatype>
							<trackindex>1</trackindex>
						</sourcetrack>
						<labels>
							<label2>Iris</label2>
						</labels>
						<outputchannelindex>1</outputchannelindex>
					</clipitem>
					<clipitem id="clipitem-2025" premiereChannelType="stereo">
						<masterclipid>masterclip-2</masterclipid>
						<name>chandrika rocket equations</name>
						<start>66236</start>
						<end>66321</end>
						<in>111894</in>
						<out>111979</out>
						<file id="file-1" />
						<sourcetrack>
							<mediatype>audio</mediatype>
							<trackindex>1</trackindex>
						</sourcetrack>
						<labels>
							<label2>Iris</label2>
						</labels>
						<outputchannelindex>1</outputchannelindex>
					</clipitem>
					<clipitem id="clipitem-2026" premiereChannelType="stereo">
						<masterclipid>masterclip-2</masterclipid>
						<name>chandrika rocket equations</name>
						<start>66321</start>
						<end>66338</end>
						<in>111991</in>
						<out>112008</out>
						<file id="file-1" />
						<sourcetrack>
							<mediatype>audio</mediatype>
							<trackindex>1</trackindex>
						</sourcetrack>
						<labels>
							<label2>Iris</label2>
						</labels>
						<outputchannelindex>1</outputchannelindex>
					</clipitem>
					<clipitem id="clipitem-2027" premiereChannelType="stereo">
						<masterclipid>masterclip-2</masterclipid>
						<name>chandrika rocket equations</name>
						<start>66338</start>
						<end>66438</end>
						<in>112015</in>
						<out>112115</out>
						<file id="file-1" />
						<sourcetrack>
							<mediatype>audio</mediatype>
							<trackindex>1</trackindex>
						</sourcetrack>
						<labels>
							<label2>Iris</label2>
						</labels>
						<outputchannelindex>1</outputchannelindex>
					</clipitem>
					<clipitem id="clipitem-2028" premiereChannelType="stereo">
						<masterclipid>masterclip-2</masterclipid>
						<name>chandrika rocket equations</name>
						<start>66438</start>
						<end>66483</end>
						<in>112134</in>
						<out>112179</out>
						<file id="file-1" />
						<sourcetrack>
							<mediatype>audio</mediatype>
							<trackindex>1</trackindex>
						</sourcetrack>
						<labels>
							<label2>Iris</label2>
						</labels>
						<outputchannelindex>1</outputchannelindex>
					</clipitem>
					<clipitem id="clipitem-2029" premiereChannelType="stereo">
						<masterclipid>masterclip-2</masterclipid>
						<name>chandrika rocket equations</name>
						<start>66483</start>
						<end>66500</end>
						<in>112192</in>
						<out>112209</out>
						<file id="file-1" />
						<sourcetrack>
							<mediatype>audio</mediatype>
							<trackindex>1</trackindex>
						</sourcetrack>
						<labels>
							<label2>Iris</label2>
						</labels>
						<outputchannelindex>1</outputchannelindex>
					</clipitem>
					<clipitem id="clipitem-2030" premiereChannelType="stereo">
						<masterclipid>masterclip-2</masterclipid>
						<name>chandrika rocket equations</name>
						<start>66500</start>
						<end>66531</end>
						<in>112212</in>
						<out>112243</out>
						<file id="file-1" />
						<sourcetrack>
							<mediatype>audio</mediatype>
							<trackindex>1</trackindex>
						</sourcetrack>
						<labels>
							<label2>Iris</label2>
						</labels>
						<outputchannelindex>1</outputchannelindex>
					</clipitem>
					<clipitem id="clipitem-2031" premiereChannelType="stereo">
						<masterclipid>masterclip-2</masterclipid>
						<name>chandrika rocket equations</name>
						<start>66531</start>
						<end>66578</end>
						<in>112274</in>
						<out>112321</out>
						<file id="file-1" />
						<sourcetrack>
							<mediatype>audio</mediatype>
							<trackindex>1</trackindex>
						</sourcetrack>
						<labels>
							<label2>Iris</label2>
						</labels>
						<outputchannelindex>1</outputchannelindex>
					</clipitem>
					<clipitem id="clipitem-2032" premiereChannelType="stereo">
						<masterclipid>masterclip-2</masterclipid>
						<name>chandrika rocket equations</name>
						<start>66578</start>
						<end>66654</end>
						<in>112352</in>
						<out>112428</out>
						<file id="file-1" />
						<sourcetrack>
							<mediatype>audio</mediatype>
							<trackindex>1</trackindex>
						</sourcetrack>
						<labels>
							<label2>Iris</label2>
						</labels>
						<outputchannelindex>1</outputchannelindex>
					</clipitem>
					<clipitem id="clipitem-2033" premiereChannelType="stereo">
						<masterclipid>masterclip-2</masterclipid>
						<name>chandrika rocket equations</name>
						<start>66654</start>
						<end>66703</end>
						<in>112431</in>
						<out>112480</out>
						<file id="file-1" />
						<sourcetrack>
							<mediatype>audio</mediatype>
							<trackindex>1</trackindex>
						</sourcetrack>
						<labels>
							<label2>Iris</label2>
						</labels>
						<outputchannelindex>1</outputchannelindex>
					</clipitem>
					<clipitem id="clipitem-2034" premiereChannelType="stereo">
						<masterclipid>masterclip-2</masterclipid>
						<name>chandrika rocket equations</name>
						<start>66703</start>
						<end>66845</end>
						<in>112513</in>
						<out>112655</out>
						<file id="file-1" />
						<sourcetrack>
							<mediatype>audio</mediatype>
							<trackindex>1</trackindex>
						</sourcetrack>
						<labels>
							<label2>Iris</label2>
						</labels>
						<outputchannelindex>1</outputchannelindex>
					</clipitem>
					<clipitem id="clipitem-2035" premiereChannelType="stereo">
						<masterclipid>masterclip-2</masterclipid>
						<name>chandrika rocket equations</name>
						<start>66845</start>
						<end>66940</end>
						<in>112737</in>
						<out>112832</out>
						<file id="file-1" />
						<sourcetrack>
							<mediatype>audio</mediatype>
							<trackindex>1</trackindex>
						</sourcetrack>
						<labels>
							<label2>Iris</label2>
						</labels>
						<outputchannelindex>1</outputchannelindex>
					</clipitem>
					<clipitem id="clipitem-2036" premiereChannelType="stereo">
						<masterclipid>masterclip-2</masterclipid>
						<name>chandrika rocket equations</name>
						<start>66940</start>
						<end>66969</end>
						<in>112833</in>
						<out>112862</out>
						<file id="file-1" />
						<sourcetrack>
							<mediatype>audio</mediatype>
							<trackindex>1</trackindex>
						</sourcetrack>
						<labels>
							<label2>Iris</label2>
						</labels>
						<outputchannelindex>1</outputchannelindex>
					</clipitem>
					<clipitem id="clipitem-2037" premiereChannelType="stereo">
						<masterclipid>masterclip-2</masterclipid>
						<name>chandrika rocket equations</name>
						<start>66969</start>
						<end>67105</end>
						<in>112885</in>
						<out>113021</out>
						<file id="file-1" />
						<sourcetrack>
							<mediatype>audio</mediatype>
							<trackindex>1</trackindex>
						</sourcetrack>
						<labels>
							<label2>Iris</label2>
						</labels>
						<outputchannelindex>1</outputchannelindex>
					</clipitem>
					<clipitem id="clipitem-2038" premiereChannelType="stereo">
						<masterclipid>masterclip-2</masterclipid>
						<name>chandrika rocket equations</name>
						<start>67105</start>
						<end>67124</end>
						<in>113026</in>
						<out>113045</out>
						<file id="file-1" />
						<sourcetrack>
							<mediatype>audio</mediatype>
							<trackindex>1</trackindex>
						</sourcetrack>
						<labels>
							<label2>Iris</label2>
						</labels>
						<outputchannelindex>1</outputchannelindex>
					</clipitem>
					<clipitem id="clipitem-2039" premiereChannelType="stereo">
						<masterclipid>masterclip-2</masterclipid>
						<name>chandrika rocket equations</name>
						<start>67124</start>
						<end>67145</end>
						<in>113066</in>
						<out>113087</out>
						<file id="file-1" />
						<sourcetrack>
							<mediatype>audio</mediatype>
							<trackindex>1</trackindex>
						</sourcetrack>
						<labels>
							<label2>Iris</label2>
						</labels>
						<outputchannelindex>1</outputchannelindex>
					</clipitem>
					<clipitem id="clipitem-2040" premiereChannelType="stereo">
						<masterclipid>masterclip-2</masterclipid>
						<name>chandrika rocket equations</name>
						<start>67145</start>
						<end>67201</end>
						<in>113088</in>
						<out>113144</out>
						<file id="file-1" />
						<sourcetrack>
							<mediatype>audio</mediatype>
							<trackindex>1</trackindex>
						</sourcetrack>
						<labels>
							<label2>Iris</label2>
						</labels>
						<outputchannelindex>1</outputchannelindex>
					</clipitem>
					<clipitem id="clipitem-2041" premiereChannelType="stereo">
						<masterclipid>masterclip-2</masterclipid>
						<name>chandrika rocket equations</name>
						<start>67201</start>
						<end>67218</end>
						<in>113151</in>
						<out>113168</out>
						<file id="file-1" />
						<sourcetrack>
							<mediatype>audio</mediatype>
							<trackindex>1</trackindex>
						</sourcetrack>
						<labels>
							<label2>Iris</label2>
						</labels>
						<outputchannelindex>1</outputchannelindex>
					</clipitem>
					<clipitem id="clipitem-2042" premiereChannelType="stereo">
						<masterclipid>masterclip-2</masterclipid>
						<name>chandrika rocket equations</name>
						<start>67218</start>
						<end>67263</end>
						<in>113279</in>
						<out>113324</out>
						<file id="file-1" />
						<sourcetrack>
							<mediatype>audio</mediatype>
							<trackindex>1</trackindex>
						</sourcetrack>
						<labels>
							<label2>Iris</label2>
						</labels>
						<outputchannelindex>1</outputchannelindex>
					</clipitem>
					<clipitem id="clipitem-2043" premiereChannelType="stereo">
						<masterclipid>masterclip-2</masterclipid>
						<name>chandrika rocket equations</name>
						<start>67263</start>
						<end>67292</end>
						<in>113371</in>
						<out>113400</out>
						<file id="file-1" />
						<sourcetrack>
							<mediatype>audio</mediatype>
							<trackindex>1</trackindex>
						</sourcetrack>
						<labels>
							<label2>Iris</label2>
						</labels>
						<outputchannelindex>1</outputchannelindex>
					</clipitem>
					<clipitem id="clipitem-2044" premiereChannelType="stereo">
						<masterclipid>masterclip-2</masterclipid>
						<name>chandrika rocket equations</name>
						<start>67292</start>
						<end>67524</end>
						<in>113468</in>
						<out>113700</out>
						<file id="file-1" />
						<sourcetrack>
							<mediatype>audio</mediatype>
							<trackindex>1</trackindex>
						</sourcetrack>
						<labels>
							<label2>Iris</label2>
						</labels>
						<outputchannelindex>1</outputchannelindex>
					</clipitem>
					<clipitem id="clipitem-2045" premiereChannelType="stereo">
						<masterclipid>masterclip-2</masterclipid>
						<name>chandrika rocket equations</name>
						<start>67524</start>
						<end>67594</end>
						<in>113707</in>
						<out>113777</out>
						<file id="file-1" />
						<sourcetrack>
							<mediatype>audio</mediatype>
							<trackindex>1</trackindex>
						</sourcetrack>
						<labels>
							<label2>Iris</label2>
						</labels>
						<outputchannelindex>1</outputchannelindex>
					</clipitem>
					<clipitem id="clipitem-2046" premiereChannelType="stereo">
						<masterclipid>masterclip-2</masterclipid>
						<name>chandrika rocket equations</name>
						<start>67594</start>
						<end>67815</end>
						<in>113826</in>
						<out>114047</out>
						<file id="file-1" />
						<sourcetrack>
							<mediatype>audio</mediatype>
							<trackindex>1</trackindex>
						</sourcetrack>
						<labels>
							<label2>Iris</label2>
						</labels>
						<outputchannelindex>1</outputchannelindex>
					</clipitem>
					<clipitem id="clipitem-2047" premiereChannelType="stereo">
						<masterclipid>masterclip-2</masterclipid>
						<name>chandrika rocket equations</name>
						<start>67815</start>
						<end>68003</end>
						<in>114057</in>
						<out>114245</out>
						<file id="file-1" />
						<sourcetrack>
							<mediatype>audio</mediatype>
							<trackindex>1</trackindex>
						</sourcetrack>
						<labels>
							<label2>Iris</label2>
						</labels>
						<outputchannelindex>1</outputchannelindex>
					</clipitem>
					<clipitem id="clipitem-2048" premiereChannelType="stereo">
						<masterclipid>masterclip-2</masterclipid>
						<name>chandrika rocket equations</name>
						<start>68003</start>
						<end>68026</end>
						<in>114247</in>
						<out>114270</out>
						<file id="file-1" />
						<sourcetrack>
							<mediatype>audio</mediatype>
							<trackindex>1</trackindex>
						</sourcetrack>
						<labels>
							<label2>Iris</label2>
						</labels>
						<outputchannelindex>1</outputchannelindex>
					</clipitem>
					<clipitem id="clipitem-2049" premiereChannelType="stereo">
						<masterclipid>masterclip-2</masterclipid>
						<name>chandrika rocket equations</name>
						<start>68026</start>
						<end>68089</end>
						<in>114286</in>
						<out>114349</out>
						<file id="file-1" />
						<sourcetrack>
							<mediatype>audio</mediatype>
							<trackindex>1</trackindex>
						</sourcetrack>
						<labels>
							<label2>Iris</label2>
						</labels>
						<outputchannelindex>1</outputchannelindex>
					</clipitem>
					<clipitem id="clipitem-2050" premiereChannelType="stereo">
						<masterclipid>masterclip-2</masterclipid>
						<name>chandrika rocket equations</name>
						<start>68089</start>
						<end>68106</end>
						<in>114351</in>
						<out>114368</out>
						<file id="file-1" />
						<sourcetrack>
							<mediatype>audio</mediatype>
							<trackindex>1</trackindex>
						</sourcetrack>
						<labels>
							<label2>Iris</label2>
						</labels>
						<outputchannelindex>1</outputchannelindex>
					</clipitem>
					<clipitem id="clipitem-2051" premiereChannelType="stereo">
						<masterclipid>masterclip-2</masterclipid>
						<name>chandrika rocket equations</name>
						<start>68106</start>
						<end>68312</end>
						<in>114375</in>
						<out>114581</out>
						<file id="file-1" />
						<sourcetrack>
							<mediatype>audio</mediatype>
							<trackindex>1</trackindex>
						</sourcetrack>
						<labels>
							<label2>Iris</label2>
						</labels>
						<outputchannelindex>1</outputchannelindex>
					</clipitem>
					<clipitem id="clipitem-2052" premiereChannelType="stereo">
						<masterclipid>masterclip-2</masterclipid>
						<name>chandrika rocket equations</name>
						<start>68312</start>
						<end>68534</end>
						<in>114584</in>
						<out>114806</out>
						<file id="file-1" />
						<sourcetrack>
							<mediatype>audio</mediatype>
							<trackindex>1</trackindex>
						</sourcetrack>
						<labels>
							<label2>Iris</label2>
						</labels>
						<outputchannelindex>1</outputchannelindex>
					</clipitem>
					<clipitem id="clipitem-2053" premiereChannelType="stereo">
						<masterclipid>masterclip-2</masterclipid>
						<name>chandrika rocket equations</name>
						<start>68534</start>
						<end>68608</end>
						<in>114813</in>
						<out>114887</out>
						<file id="file-1" />
						<sourcetrack>
							<mediatype>audio</mediatype>
							<trackindex>1</trackindex>
						</sourcetrack>
						<labels>
							<label2>Iris</label2>
						</labels>
						<outputchannelindex>1</outputchannelindex>
					</clipitem>
					<clipitem id="clipitem-2054" premiereChannelType="stereo">
						<masterclipid>masterclip-2</masterclipid>
						<name>chandrika rocket equations</name>
						<start>68608</start>
						<end>68631</end>
						<in>114951</in>
						<out>114974</out>
						<file id="file-1" />
						<sourcetrack>
							<mediatype>audio</mediatype>
							<trackindex>1</trackindex>
						</sourcetrack>
						<labels>
							<label2>Iris</label2>
						</labels>
						<outputchannelindex>1</outputchannelindex>
					</clipitem>
					<clipitem id="clipitem-2055" premiereChannelType="stereo">
						<masterclipid>masterclip-2</masterclipid>
						<name>chandrika rocket equations</name>
						<start>68631</start>
						<end>68654</end>
						<in>114996</in>
						<out>115019</out>
						<file id="file-1" />
						<sourcetrack>
							<mediatype>audio</mediatype>
							<trackindex>1</trackindex>
						</sourcetrack>
						<labels>
							<label2>Iris</label2>
						</labels>
						<outputchannelindex>1</outputchannelindex>
					</clipitem>
					<clipitem id="clipitem-2056" premiereChannelType="stereo">
						<masterclipid>masterclip-2</masterclipid>
						<name>chandrika rocket equations</name>
						<start>68654</start>
						<end>68673</end>
						<in>115030</in>
						<out>115049</out>
						<file id="file-1" />
						<sourcetrack>
							<mediatype>audio</mediatype>
							<trackindex>1</trackindex>
						</sourcetrack>
						<labels>
							<label2>Iris</label2>
						</labels>
						<outputchannelindex>1</outputchannelindex>
					</clipitem>
					<clipitem id="clipitem-2057" premiereChannelType="stereo">
						<masterclipid>masterclip-2</masterclipid>
						<name>chandrika rocket equations</name>
						<start>68673</start>
						<end>68689</end>
						<in>115066</in>
						<out>115082</out>
						<file id="file-1" />
						<sourcetrack>
							<mediatype>audio</mediatype>
							<trackindex>1</trackindex>
						</sourcetrack>
						<labels>
							<label2>Iris</label2>
						</labels>
						<outputchannelindex>1</outputchannelindex>
					</clipitem>
					<clipitem id="clipitem-2058" premiereChannelType="stereo">
						<masterclipid>masterclip-2</masterclipid>
						<name>chandrika rocket equations</name>
						<start>68689</start>
						<end>68767</end>
						<in>115121</in>
						<out>115199</out>
						<file id="file-1" />
						<sourcetrack>
							<mediatype>audio</mediatype>
							<trackindex>1</trackindex>
						</sourcetrack>
						<labels>
							<label2>Iris</label2>
						</labels>
						<outputchannelindex>1</outputchannelindex>
					</clipitem>
					<clipitem id="clipitem-2059" premiereChannelType="stereo">
						<masterclipid>masterclip-2</masterclipid>
						<name>chandrika rocket equations</name>
						<start>68767</start>
						<end>68891</end>
						<in>115201</in>
						<out>115325</out>
						<file id="file-1" />
						<sourcetrack>
							<mediatype>audio</mediatype>
							<trackindex>1</trackindex>
						</sourcetrack>
						<labels>
							<label2>Iris</label2>
						</labels>
						<outputchannelindex>1</outputchannelindex>
					</clipitem>
					<clipitem id="clipitem-2060" premiereChannelType="stereo">
						<masterclipid>masterclip-2</masterclipid>
						<name>chandrika rocket equations</name>
						<start>68891</start>
						<end>68982</end>
						<in>115327</in>
						<out>115418</out>
						<file id="file-1" />
						<sourcetrack>
							<mediatype>audio</mediatype>
							<trackindex>1</trackindex>
						</sourcetrack>
						<labels>
							<label2>Iris</label2>
						</labels>
						<outputchannelindex>1</outputchannelindex>
					</clipitem>
					<clipitem id="clipitem-2061" premiereChannelType="stereo">
						<masterclipid>masterclip-2</masterclipid>
						<name>chandrika rocket equations</name>
						<start>68982</start>
						<end>69029</end>
						<in>115422</in>
						<out>115469</out>
						<file id="file-1" />
						<sourcetrack>
							<mediatype>audio</mediatype>
							<trackindex>1</trackindex>
						</sourcetrack>
						<labels>
							<label2>Iris</label2>
						</labels>
						<outputchannelindex>1</outputchannelindex>
					</clipitem>
					<clipitem id="clipitem-2062" premiereChannelType="stereo">
						<masterclipid>masterclip-2</masterclipid>
						<name>chandrika rocket equations</name>
						<start>69029</start>
						<end>69216</end>
						<in>115485</in>
						<out>115672</out>
						<file id="file-1" />
						<sourcetrack>
							<mediatype>audio</mediatype>
							<trackindex>1</trackindex>
						</sourcetrack>
						<labels>
							<label2>Iris</label2>
						</labels>
						<outputchannelindex>1</outputchannelindex>
					</clipitem>
					<clipitem id="clipitem-2063" premiereChannelType="stereo">
						<masterclipid>masterclip-2</masterclipid>
						<name>chandrika rocket equations</name>
						<start>69216</start>
						<end>69257</end>
						<in>115675</in>
						<out>115716</out>
						<file id="file-1" />
						<sourcetrack>
							<mediatype>audio</mediatype>
							<trackindex>1</trackindex>
						</sourcetrack>
						<labels>
							<label2>Iris</label2>
						</labels>
						<outputchannelindex>1</outputchannelindex>
					</clipitem>
					<clipitem id="clipitem-2064" premiereChannelType="stereo">
						<masterclipid>masterclip-2</masterclipid>
						<name>chandrika rocket equations</name>
						<start>69257</start>
						<end>69293</end>
						<in>115734</in>
						<out>115770</out>
						<file id="file-1" />
						<sourcetrack>
							<mediatype>audio</mediatype>
							<trackindex>1</trackindex>
						</sourcetrack>
						<labels>
							<label2>Iris</label2>
						</labels>
						<outputchannelindex>1</outputchannelindex>
					</clipitem>
					<clipitem id="clipitem-2065" premiereChannelType="stereo">
						<masterclipid>masterclip-2</masterclipid>
						<name>chandrika rocket equations</name>
						<start>69293</start>
						<end>69308</end>
						<in>115866</in>
						<out>115881</out>
						<file id="file-1" />
						<sourcetrack>
							<mediatype>audio</mediatype>
							<trackindex>1</trackindex>
						</sourcetrack>
						<labels>
							<label2>Iris</label2>
						</labels>
						<outputchannelindex>1</outputchannelindex>
					</clipitem>
					<clipitem id="clipitem-2066" premiereChannelType="stereo">
						<masterclipid>masterclip-2</masterclipid>
						<name>chandrika rocket equations</name>
						<start>69308</start>
						<end>69404</end>
						<in>115898</in>
						<out>115994</out>
						<file id="file-1" />
						<sourcetrack>
							<mediatype>audio</mediatype>
							<trackindex>1</trackindex>
						</sourcetrack>
						<labels>
							<label2>Iris</label2>
						</labels>
						<outputchannelindex>1</outputchannelindex>
					</clipitem>
					<clipitem id="clipitem-2067" premiereChannelType="stereo">
						<masterclipid>masterclip-2</masterclipid>
						<name>chandrika rocket equations</name>
						<start>69404</start>
						<end>69421</end>
						<in>115999</in>
						<out>116016</out>
						<file id="file-1" />
						<sourcetrack>
							<mediatype>audio</mediatype>
							<trackindex>1</trackindex>
						</sourcetrack>
						<labels>
							<label2>Iris</label2>
						</labels>
						<outputchannelindex>1</outputchannelindex>
					</clipitem>
					<clipitem id="clipitem-2068" premiereChannelType="stereo">
						<masterclipid>masterclip-2</masterclipid>
						<name>chandrika rocket equations</name>
						<start>69421</start>
						<end>69482</end>
						<in>116042</in>
						<out>116103</out>
						<file id="file-1" />
						<sourcetrack>
							<mediatype>audio</mediatype>
							<trackindex>1</trackindex>
						</sourcetrack>
						<labels>
							<label2>Iris</label2>
						</labels>
						<outputchannelindex>1</outputchannelindex>
					</clipitem>
					<clipitem id="clipitem-2069" premiereChannelType="stereo">
						<masterclipid>masterclip-2</masterclipid>
						<name>chandrika rocket equations</name>
						<start>69482</start>
						<end>69568</end>
						<in>116204</in>
						<out>116290</out>
						<file id="file-1" />
						<sourcetrack>
							<mediatype>audio</mediatype>
							<trackindex>1</trackindex>
						</sourcetrack>
						<labels>
							<label2>Iris</label2>
						</labels>
						<outputchannelindex>1</outputchannelindex>
					</clipitem>
					<clipitem id="clipitem-2070" premiereChannelType="stereo">
						<masterclipid>masterclip-2</masterclipid>
						<name>chandrika rocket equations</name>
						<start>69568</start>
						<end>69583</end>
						<in>116294</in>
						<out>116309</out>
						<file id="file-1" />
						<sourcetrack>
							<mediatype>audio</mediatype>
							<trackindex>1</trackindex>
						</sourcetrack>
						<labels>
							<label2>Iris</label2>
						</labels>
						<outputchannelindex>1</outputchannelindex>
					</clipitem>
				</track>
			</audio>
		</media>
	</sequence>
</xmeml>